<?xml version="1.0" encoding="utf-8"?>
<!-- Generator: Adobe Illustrator 16.0.0, SVG Export Plug-In . SVG Version: 6.00 Build 0)  -->
<!DOCTYPE svg PUBLIC "-//W3C//DTD SVG 1.1//EN" "http://www.w3.org/Graphics/SVG/1.1/DTD/svg11.dtd">
<svg version="1.1" id="Layer_1" xmlns="http://www.w3.org/2000/svg" xmlns:xlink="http://www.w3.org/1999/xlink" x="0px" y="0px"
	 width="534px" height="569px" viewBox="0 0 534 569" enable-background="new 0 0 534 569" xml:space="preserve">
<g id="Layer_1_1_">
	<g>
		<path fill="#FFFFFF" fill-opacity="0.7176" d="M78.5,119.1c2.37,0,4.58,0.07,6.65,0.2c-0.47,0-1.5,0-3.1,0c-1.73,0-4.25,0-7.55,0
			s-5.58,0.08-6.85,0.25c-1.1,0.17-1.97,0.25-2.6,0.25c-1.1,0.13-1.8,0.2-2.1,0.2h-0.2c0.43-0.13,1.05-0.2,1.85-0.2
			C68.53,119.33,73.17,119.1,78.5,119.1z"/>
		<g>
			<path fill="#777780" fill-opacity="0.851" d="M82.4,118.85c-2.03-0.17-4.23-0.25-6.6-0.25c-5.33,0-9.97,0.23-13.9,0.7
				c-0.77,0-1.37,0.08-1.8,0.25c-2.23,0.3-3.5,0.68-3.8,1.15v0.25h-1.2v-0.25c0.47-0.47,2.05-0.93,4.75-1.4
				c0.47,0,0.92-0.08,1.35-0.25c4.1-0.43,8.97-0.65,14.6-0.65c2.53,0,4.88,0.07,7.05,0.2c2.83,0.17,5.43,0.32,7.8,0.45
				c3.6,0.47,5.57,1.02,5.9,1.65v0.25h-1.2v-0.25c-0.33-0.63-2.22-1.1-5.65-1.4C87.5,119,85.07,118.85,82.4,118.85z"/>
			
				<linearGradient id="SVGID_1_" gradientUnits="userSpaceOnUse" x1="-618.3125" y1="619.0508" x2="-568.1875" y2="619.0508" gradientTransform="matrix(1 0 0 -1 670 740)">
				<stop  offset="0" style="stop-color:#9EA2A5;stop-opacity:0.1137"/>
				<stop  offset="0.0392" style="stop-color:#7E8184;stop-opacity:0.4824"/>
				<stop  offset="0.0941" style="stop-color:#8F949A;stop-opacity:0.0863"/>
				<stop  offset="0.2353" style="stop-color:#DDDDDD;stop-opacity:0.4"/>
				<stop  offset="0.3647" style="stop-color:#C6CED2;stop-opacity:0.0941"/>
				<stop  offset="0.4863" style="stop-color:#E2E7E9;stop-opacity:0.0941"/>
				<stop  offset="0.6" style="stop-color:#FFFFFF;stop-opacity:0.4431"/>
				<stop  offset="0.7216" style="stop-color:#BCC1C2;stop-opacity:0.0863"/>
				<stop  offset="0.8353" style="stop-color:#E0E2E1;stop-opacity:0.2314"/>
				<stop  offset="0.9882" style="stop-color:#8E9193;stop-opacity:0.4235"/>
			</linearGradient>
			<path fill="url(#SVGID_1_)" d="M56.3,120.95v-0.25c0.3-0.47,1.57-0.85,3.8-1.15h0.2c0.3,0,0.98-0.08,2.05-0.25
				c0.63,0,1.5-0.08,2.6-0.25c1.27-0.13,3.55-0.2,6.85-0.2c3.3,0,5.82,0,7.55,0c1.6,0,2.62,0,3.05,0c2.67,0,5.1,0.15,7.3,0.45
				c3.43,0.3,5.32,0.77,5.65,1.4v0.25c-0.33,0.63-2.13,1.1-5.4,1.4H89.7c-3.8,0.47-8.43,0.7-13.9,0.7c-5.33,0-9.97-0.23-13.9-0.7
				C58.63,122.05,56.77,121.58,56.3,120.95z"/>
		</g>
		<g>
			<path fill="#675851" d="M62.55,92c-2.03,0.03-3.82,0.05-5.35,0.05c-1.6,0.03-18.8,0.05-51.6,0.05L7,91.3
				c33.37-0.07,51.63-0.07,54.8,0l0.75-0.05c0.03-0.1,0.12-0.15,0.25-0.15h0.1c0.13,0,0.33-0.02,0.6-0.05
				c0.07-0.03,0.12-0.05,0.15-0.05c0.93-0.23,2.28-0.45,4.05-0.65c0.93-0.2,1.87-0.32,2.8-0.35c2.17-0.17,4.27-0.23,6.3-0.2
				c2.87,0.03,5.4,0.22,7.6,0.55c1.6,0.2,2.63,0.37,3.1,0.5H88c0.2,0.03,0.37,0.22,0.5,0.55v0.65c-0.13-0.27-0.3-0.42-0.5-0.45h-0.5
				c-0.47-0.13-1.5-0.32-3.1-0.55c-2.2-0.27-4.73-0.45-7.6-0.55c-2.03-0.07-4.13,0-6.3,0.2c-0.93,0.1-1.87,0.22-2.8,0.35
				c-1.77,0.17-3.12,0.38-4.05,0.65c-0.03,0-0.08,0.03-0.15,0.1c-0.27,0.03-0.47,0.05-0.6,0.05c-0.07,0-0.1,0.02-0.1,0.05
				C62.67,91.9,62.58,91.93,62.55,92z M88.5,97.4c-1-0.2-1.53-0.3-1.6-0.3c-1.43-0.33-3.33-0.6-5.7-0.8
				c-4.13-0.33-9.42-0.05-15.85,0.85c6.07-1.03,10.97-1.37,14.7-1c3.7,0.37,5.95,0.62,6.75,0.75C87.53,96.97,88.1,97.13,88.5,97.4z"
				/>
			
				<linearGradient id="SVGID_2_" gradientUnits="userSpaceOnUse" x1="-610.7798" y1="644.3945" x2="-582.3279" y2="644.3945" gradientTransform="matrix(1 -4.832798e-003 -4.832797e-003 -1 675.6724 735.5638)">
				<stop  offset="0" style="stop-color:#392F2D"/>
				<stop  offset="0.3686" style="stop-color:#211C1B"/>
				<stop  offset="0.7843" style="stop-color:#39302D"/>
				<stop  offset="1" style="stop-color:#5F514B"/>
			</linearGradient>
			<path fill="url(#SVGID_2_)" d="M62.55,97.7V92c0.03-0.07,0.12-0.1,0.25-0.1c0-0.03,0.03-0.05,0.1-0.05c0.13,0,0.33-0.02,0.6-0.05
				c0.07-0.07,0.12-0.1,0.15-0.1c0.93-0.27,2.28-0.48,4.05-0.65c0.93-0.13,1.87-0.25,2.8-0.35c2.17-0.2,4.27-0.27,6.3-0.2
				c2.87,0.1,5.4,0.28,7.6,0.55c1.6,0.23,2.63,0.42,3.1,0.55H88c0.2,0.03,0.37,0.18,0.5,0.45v5.35c-0.4-0.27-0.97-0.43-1.7-0.5
				c-0.8-0.13-3.05-0.38-6.75-0.75c-3.73-0.37-8.63-0.03-14.7,1c-0.6,0.1-1.2,0.18-1.8,0.25c-0.3,0.1-0.57,0.2-0.8,0.3
				C62.65,97.7,62.58,97.7,62.55,97.7z"/>
			
				<linearGradient id="SVGID_3_" gradientUnits="userSpaceOnUse" x1="-627.4512" y1="645.1602" x2="-608.2513" y2="645.1477" gradientTransform="matrix(1 0 0 -1 670 740)">
				<stop  offset="0" style="stop-color:#473D38"/>
				<stop  offset="0.4902" style="stop-color:#473D38"/>
				<stop  offset="1" style="stop-color:#2B2422"/>
			</linearGradient>
			<path fill="url(#SVGID_3_)" d="M62.55,92v5.7c-4.5-0.47-23.48-1.03-56.95-1.7v-3.9c32.8,0,50-0.02,51.6-0.05
				C58.73,92.05,60.52,92.03,62.55,92z"/>
		</g>
		
			<linearGradient id="SVGID_4_" gradientUnits="userSpaceOnUse" x1="-982.1216" y1="98.2617" x2="-929.7591" y2="98.2617" gradientTransform="matrix(0.9339 -0.4021 -0.5299 -0.9759 1230.4557 261.2794)">
			<stop  offset="0" style="stop-color:#000000"/>
			<stop  offset="0.4588" style="stop-color:#000000;stop-opacity:0.8471"/>
			<stop  offset="0.6706" style="stop-color:#000000;stop-opacity:0.3137"/>
			<stop  offset="1" style="stop-color:#000000;stop-opacity:0"/>
		</linearGradient>
		<path fill="url(#SVGID_4_)" d="M320.8,549.37l1.4,0.11c1.43,0.22,2.93,0.84,4.5,1.85c2.13,1.31,3.78,2.91,4.95,4.78v0.06
			c1.23,1.87,1.63,3.47,1.2,4.78c-0.4,1.31-1.52,1.97-3.35,1.97H227.2c-7.35-0.32-13.29-2.95-17.83-7.87
			c-0.71-1.42-0.9-2.66-0.58-3.71c0.33-1.05,1.13-1.69,2.4-1.91L320.8,549.37z"/>
		<g>
			<g>
				
					<linearGradient id="SVGID_5_" gradientUnits="userSpaceOnUse" x1="-466.8086" y1="280.3608" x2="-366.5913" y2="280.3608" gradientTransform="matrix(1 0 0 -1 670 740)">
					<stop  offset="0" style="stop-color:#353146"/>
					<stop  offset="0.0863" style="stop-color:#5C527C"/>
					<stop  offset="0.7137" style="stop-color:#433661"/>
					<stop  offset="0.9294" style="stop-color:#42335C"/>
					<stop  offset="1" style="stop-color:#40354F"/>
				</linearGradient>
				<path fill="url(#SVGID_5_)" d="M291.5,362.1c4.4,0.37,7.3,1.62,8.7,3.75c0.27,0.47,0.48,0.97,0.65,1.5
					c1.27,17.93,2.07,36.02,2.4,54.25c0.7,40.37-0.92,81.47-4.85,123.3c-1.07,6.93-6.68,11.07-16.85,12.4H226.2
					c-9.73-1.17-15.73-5.3-18-12.4c-3.93-41.83-5.55-82.93-4.85-123.3c0.33-18.23,1.13-36.32,2.4-54.25
					c0.17-0.53,0.38-1.03,0.65-1.5c1.53-2.33,4.9-3.62,10.1-3.85c0.83-0.03,1.72-0.03,2.65,0h70.2
					C290.08,362,290.8,362.03,291.5,362.1z"/>
			</g>
			<g>
				
					<linearGradient id="SVGID_6_" gradientUnits="userSpaceOnUse" x1="-21.3062" y1="1427.3652" x2="175.633" y2="1427.3652" gradientTransform="matrix(0.2892 0.9573 0.9759 -0.2274 -1127.8733 711.287)">
					<stop  offset="0" style="stop-color:#342C44"/>
					<stop  offset="0.8314" style="stop-color:#3C3157"/>
					<stop  offset="0.9098" style="stop-color:#433661"/>
					<stop  offset="0.9294" style="stop-color:#42335C"/>
					<stop  offset="1" style="stop-color:#695F78"/>
				</linearGradient>
				<path fill="url(#SVGID_6_)" d="M277.05,561.15c6.3-2.43,9.77-7.98,10.4-16.65c5.13-60.03,6.57-119.55,4.3-178.55
					c5.4,0.47,8.53,2.22,9.4,5.25c4.13,57.67,3.32,116.85-2.45,177.55c-1.1,6.93-6.75,11.07-16.95,12.4H277.05z"/>
				
					<linearGradient id="SVGID_7_" gradientUnits="userSpaceOnUse" x1="-415.9873" y1="373.3262" x2="-416.0305" y2="178.8752" gradientTransform="matrix(1 0 0 -1 670 740)">
					<stop  offset="0" style="stop-color:#342C44"/>
					<stop  offset="0.8314" style="stop-color:#3C3157"/>
					<stop  offset="0.9098" style="stop-color:#433661"/>
					<stop  offset="0.9294" style="stop-color:#42335C"/>
					<stop  offset="1" style="stop-color:#695F78"/>
				</linearGradient>
				<path fill="url(#SVGID_7_)" d="M230.95,561.15c-6.3-2.43-9.77-7.98-10.4-16.65c-5.13-60.1-6.57-119.65-4.3-178.65
					c0.83-0.03,1.73-0.03,2.7,0h70.65c0.73,0,1.45,0.03,2.15,0.1c2.27,59,0.83,118.52-4.3,178.55c-0.63,8.67-4.1,14.22-10.4,16.65
					H230.95z"/>
				
					<linearGradient id="SVGID_8_" gradientUnits="userSpaceOnUse" x1="-246.2432" y1="1880.1855" x2="-53.5257" y2="1880.1855" gradientTransform="matrix(-0.2893 0.9572 0.9761 0.227 -1658.866 177.734)">
					<stop  offset="0" style="stop-color:#342C44"/>
					<stop  offset="0.8314" style="stop-color:#3C3157"/>
					<stop  offset="0.9098" style="stop-color:#433661"/>
					<stop  offset="0.9294" style="stop-color:#42335C"/>
					<stop  offset="1" style="stop-color:#695F78"/>
				</linearGradient>
				<path fill="url(#SVGID_8_)" d="M216.25,365.85c-2.27,59-0.83,118.55,4.3,178.65c0.63,8.67,4.1,14.22,10.4,16.65h-4.9
					c-9.83-1.17-15.88-5.3-18.15-12.4c-5.73-60.7-6.55-119.88-2.45-177.55C206.38,367.93,209.98,366.15,216.25,365.85z"/>
			</g>
			<g>
				
					<linearGradient id="SVGID_9_" gradientUnits="userSpaceOnUse" x1="96.1299" y1="1427.291" x2="170.5056" y2="1427.291" gradientTransform="matrix(0.2891 0.9573 0.9759 -0.2274 -1127.9639 711.2909)">
					<stop  offset="0" style="stop-color:#FFFFFF;stop-opacity:0.2706"/>
					<stop  offset="1" style="stop-color:#F9F8F9;stop-opacity:0"/>
				</linearGradient>
				<path fill="url(#SVGID_9_)" d="M301.25,372.7c0.37,5.4,0.72,10.82,1.05,16.25c2.77,52.03,1.57,105.3-3.6,159.8
					c-1.1,6.93-6.75,11.07-16.95,12.4h-4.7c6.3-2.43,9.77-7.98,10.4-16.65c4.47-52.27,6.13-104.12,5-155.55
					c-0.13-5.43-0.28-10.85-0.45-16.25H301.25z"/>
				
					<linearGradient id="SVGID_10_" gradientUnits="userSpaceOnUse" x1="-171.2241" y1="1880.3457" x2="-37.5093" y2="1880.3457" gradientTransform="matrix(-0.2892 0.9573 0.976 0.227 -1658.6744 177.8146)">
					<stop  offset="0" style="stop-color:#FFFFFF;stop-opacity:0.2627"/>
					<stop  offset="1" style="stop-color:#F9F8F9;stop-opacity:0"/>
				</linearGradient>
				<path fill="url(#SVGID_10_)" d="M216,372.7c-0.17,5.4-0.32,10.82-0.45,16.25c-1.13,51.43,0.53,103.28,5,155.55
					c0.63,8.67,4.1,14.22,10.4,16.65h-4.9c-9.83-1.17-15.88-5.3-18.15-12.4c-5.17-54.5-6.35-107.77-3.55-159.8
					c0.3-5.43,0.63-10.85,1-16.25H216z"/>
			</g>
			<g>
				
					<linearGradient id="SVGID_11_" gradientUnits="userSpaceOnUse" x1="-416.6875" y1="168.9995" x2="-416.6875" y2="271.4998" gradientTransform="matrix(1 0 0 -1 670 740)">
					<stop  offset="0" style="stop-color:#13111A"/>
					<stop  offset="0.1647" style="stop-color:#342C44"/>
					<stop  offset="1" style="stop-color:#352D45;stop-opacity:0"/>
				</linearGradient>
				<path fill="url(#SVGID_11_)" d="M289.6,365.85c0.73,0,1.45,0.03,2.15,0.1c5.4,0.47,8.53,2.22,9.4,5.25
					c4.13,57.67,3.32,116.85-2.45,177.55c-1.1,6.93-6.75,11.07-16.95,12.4h-55.7c-9.83-1.17-15.88-5.3-18.15-12.4
					c-5.73-60.7-6.55-119.88-2.45-177.55c0.93-3.27,4.53-5.05,10.8-5.35c0.83-0.03,1.73-0.03,2.7,0H289.6z"/>
			</g>
			<g>
				<g>
					
						<linearGradient id="SVGID_12_" gradientUnits="userSpaceOnUse" x1="-453.834" y1="323.5605" x2="-378.3864" y2="264.9836" gradientTransform="matrix(1 0 0 -1 670 740)">
						<stop  offset="0" style="stop-color:#97909D"/>
						<stop  offset="1" style="stop-color:#3E314B"/>
					</linearGradient>
					<path fill="url(#SVGID_12_)" d="M301.25,372.3c0.03,56.6-4.08,108.1-12.35,154.5c-0.63,4.8-3.37,7.48-8.2,8.05h-53.45
						c-3.27,0.27-5.95-1.98-8.05-6.75c-9.97-50.3-14.6-101.93-13.9-154.9c0.63-3.23,4.27-5.07,10.9-5.5h75.55
						C297.55,367.53,300.72,369.07,301.25,372.3z"/>
					
						<path fill="none" stroke="#2D2538" stroke-width="0.1" stroke-linecap="round" stroke-linejoin="round" stroke-miterlimit="3" d="
						M301.25,372.3c0.03,56.6-4.08,108.1-12.35,154.5c-0.63,4.8-3.37,7.48-8.2,8.05h-53.45c-3.27,0.27-5.95-1.98-8.05-6.75
						c-9.97-50.3-14.6-101.93-13.9-154.9c0.63-3.23,4.27-5.07,10.9-5.5h75.55C297.55,367.53,300.72,369.07,301.25,372.3z"/>
				</g>
			</g>
			<g>
				<path fill="#382E47" d="M294.25,369.05c1.5,15.3-0.87,67.4-7.1,156.3c-0.6,4.7-3.2,7.33-7.8,7.9h-51
					c-3.1,0.27-5.65-1.95-7.65-6.65c-6.97-73.93-8.33-126.52-4.1-157.75c0.4-0.03,0.82-0.07,1.25-0.1h72
					C291.55,368.68,293.02,368.78,294.25,369.05z"/>
				
					<path fill="none" stroke="#2D2538" stroke-width="0.1" stroke-linecap="round" stroke-linejoin="round" stroke-miterlimit="3" d="
					M294.25,369.05c1.5,15.3-0.87,67.4-7.1,156.3c-0.6,4.7-3.2,7.33-7.8,7.9h-51c-3.1,0.27-5.65-1.95-7.65-6.65
					c-6.97-73.93-8.33-126.52-4.1-157.75c0.4-0.03,0.82-0.07,1.25-0.1h72C291.55,368.68,293.02,368.78,294.25,369.05z"/>
			</g>
			<g>
				
					<linearGradient id="SVGID_13_" gradientUnits="userSpaceOnUse" x1="-423.4878" y1="374.0771" x2="-404.4579" y2="254.9276" gradientTransform="matrix(1 0 0 -1 670 740)">
					<stop  offset="0" style="stop-color:#362C47"/>
					<stop  offset="1" style="stop-color:#3E314B;stop-opacity:0"/>
				</linearGradient>
				<path fill="url(#SVGID_13_)" d="M301.25,372.3c0.03,56.6-4.08,108.1-12.35,154.5c-0.63,4.8-3.37,7.48-8.2,8.05h-53.45
					c-3.27,0.27-5.95-1.98-8.05-6.75c-9.97-50.3-14.6-101.93-13.9-154.9c0.63-3.23,4.27-5.07,10.9-5.5h75.55
					C297.55,367.53,300.72,369.07,301.25,372.3z"/>
			</g>
			<g>
				<path fill="#272134" d="M215.45,396.55c0-0.9,0.23-1.62,0.7-2.15c0.47-0.53,1.13-0.8,2-0.8h71.1c0.87,0,1.53,0.27,2,0.8
					c0.47,0.53,0.7,1.25,0.7,2.15v49.9c0,1.73-0.87,2.63-2.6,2.7H218c-1.7-0.07-2.55-0.97-2.55-2.7V396.55z"/>
			</g>
			<g>
				<g>
					<path fill="#545556" d="M290.65,396.05c-0.17-0.03-0.37-0.05-0.6-0.05H221.1c-1.77,0-2.65,0.9-2.65,2.7V447
						c0,0.5,0.07,0.93,0.2,1.3c-1.4-0.2-2.1-1.08-2.1-2.65v-48.3c0-1.8,0.9-2.7,2.7-2.7h68.95
						C289.47,394.65,290.28,395.12,290.65,396.05z"/>
					
						<linearGradient id="SVGID_14_" gradientUnits="userSpaceOnUse" x1="-486.98" y1="372.4629" x2="-299.5068" y2="229.462" gradientTransform="matrix(1 0 0 -1 670 740)">
						<stop  offset="0" style="stop-color:#717375"/>
						<stop  offset="0.3804" style="stop-color:#97989A"/>
						<stop  offset="1" style="stop-color:#97989A"/>
					</linearGradient>
					<path fill="url(#SVGID_14_)" d="M290.65,396.05c0.13,0.37,0.2,0.8,0.2,1.3v48.3c0,1.73-0.85,2.63-2.55,2.7h-69.2
						c-0.17,0-0.32-0.02-0.45-0.05c-0.13-0.37-0.2-0.8-0.2-1.3v-48.3c0-1.8,0.88-2.7,2.65-2.7h68.95
						C290.28,396,290.48,396.02,290.65,396.05z"/>
					<path fill="none" d="M218.45,447v-48.3c0-1.8,0.88-2.7,2.65-2.7h68.95"/>
					<path fill="none" d="M218.65,448.3c0.13,0.03,0.28,0.05,0.45,0.05"/>
					<path fill="none" d="M218.65,448.3c-0.13-0.37-0.2-0.8-0.2-1.3 M290.05,396c0.23,0,0.43,0.02,0.6,0.05"/>
					<path fill="none" d="M290.85,397.35c0-0.5-0.07-0.93-0.2-1.3"/>
					
						<path fill="none" stroke="#191522" stroke-width="0.1" stroke-linecap="round" stroke-linejoin="round" stroke-miterlimit="3" d="
						M288.3,448.35c1.7-0.07,2.55-0.97,2.55-2.7"/>
					<line fill="none" x1="290.85" y1="445.65" x2="290.85" y2="397.35"/>
					<line fill="none" x1="219.1" y1="448.35" x2="288.3" y2="448.35"/>
				</g>
			</g>
			<g>
				
					<radialGradient id="SVGID_15_" cx="-426.0996" cy="268.7998" r="62.4257" gradientTransform="matrix(1 0 0 -1 670 740)" gradientUnits="userSpaceOnUse">
					<stop  offset="0" style="stop-color:#433952"/>
					<stop  offset="1" style="stop-color:#3C2F49"/>
				</radialGradient>
				<path fill="url(#SVGID_15_)" d="M224.05,456.9c21-0.73,40.87-0.7,59.6,0.1c2.3,0.77,3.38,2.57,3.25,5.4l-6.15,55.55
					c-0.57,3.93-2.47,6.17-5.7,6.7H234.5c-2.97-0.27-5.13-2.58-6.5-6.95l-7.45-55C220.08,459.97,221.25,458.03,224.05,456.9z"/>
			</g>
			<g>
				<path fill="none" stroke="#32283E" stroke-width="2" stroke-linecap="round" stroke-linejoin="round" stroke-miterlimit="3" d="
					M224.05,456.9c21-0.73,40.87-0.7,59.6,0.1c2.3,0.77,3.38,2.57,3.25,5.4l-6.15,55.55c-0.57,3.93-2.47,6.17-5.7,6.7H234.5
					c-2.97-0.27-5.13-2.58-6.5-6.95l-7.45-55C220.08,459.97,221.25,458.03,224.05,456.9z"/>
			</g>
			<g>
				
					<linearGradient id="SVGID_16_" gradientUnits="userSpaceOnUse" x1="-449.1504" y1="250.2998" x2="-383.9504" y2="250.2998" gradientTransform="matrix(1 0 0 -1 670 740)">
					<stop  offset="0" style="stop-color:#55506B"/>
					<stop  offset="0.4745" style="stop-color:#594D6F"/>
					<stop  offset="1" style="stop-color:#695B8A"/>
				</linearGradient>
				<path fill="url(#SVGID_16_)" d="M230.55,519.4l-0.95,0.55c-0.43-0.87-0.83-1.85-1.2-2.95v-0.05l-7.15-53
					c-0.33-1.83,0.02-3.33,1.05-4.5h0.15c-0.1,2.87-0.15,4.32-0.15,4.35l7.15,53C229.75,517.77,230.12,518.63,230.55,519.4z
					 M279.65,519.35l-1.05-0.4c0.2-0.57,0.35-1.2,0.45-1.9l5.85-53.6c0.07-1.1,0.15-2.33,0.25-3.7c0.63,0.93,0.92,2.2,0.85,3.8
					l-5.9,53.65C280,518,279.85,518.72,279.65,519.35z"/>
				
					<linearGradient id="SVGID_17_" gradientUnits="userSpaceOnUse" x1="-415.3745" y1="220.0752" x2="-415.3745" y2="212.0252" gradientTransform="matrix(1 0 0 -1 670 740)">
					<stop  offset="0" style="stop-color:#5E5079"/>
					<stop  offset="0.2863" style="stop-color:#372B43"/>
					<stop  offset="1" style="stop-color:#1C1724"/>
				</linearGradient>
				<path fill="url(#SVGID_17_)" d="M230.55,519.4c1.17,2.23,2.72,3.43,4.65,3.6h38.95c2.23-0.4,3.72-1.75,4.45-4.05l1.05,0.4
					c-0.9,2.73-2.72,4.32-5.45,4.75h-39.1c-2.3-0.17-4.13-1.55-5.5-4.15L230.55,519.4z"/>
			</g>
			<g>
				
					<path fill="none" stroke="#32283E" stroke-linecap="round" stroke-linejoin="round" stroke-miterlimit="3" stroke-opacity="0.6118" d="
					M266.4,485.75c3.43,3.4,5.15,7.48,5.15,12.25c0,4.8-1.72,8.92-5.15,12.35c-3.4,3.37-7.48,5.05-12.25,5.05
					c-4.8,0-8.9-1.68-12.3-5.05c-3.4-3.43-5.1-7.55-5.1-12.35c0-4.77,1.7-8.85,5.1-12.25s7.5-5.1,12.3-5.1
					C258.92,480.65,263,482.35,266.4,485.75z"/>
			</g>
			<g>
				<path fill="none" stroke="#5F4D75" stroke-linecap="round" stroke-linejoin="round" stroke-miterlimit="3" d="M265.6,484.25
					c0.23,0.23,0.48,0.47,0.75,0.7c0.03,0.03,0.05,0.07,0.05,0.1c3.4,3.4,5.1,7.5,5.1,12.3c0,4.3-1.37,8.05-4.1,11.25
					c-0.2,0.23-0.42,0.47-0.65,0.7c-0.1,0.1-0.22,0.22-0.35,0.35c-3.4,3.37-7.48,5.05-12.25,5.05c-4,0-7.52-1.17-10.55-3.5
					c-0.27-0.2-0.52-0.4-0.75-0.6c-0.33-0.3-0.67-0.62-1-0.95c-3.4-3.43-5.1-7.53-5.1-12.3c0-4.13,1.28-7.77,3.85-10.9
					c0.2-0.27,0.42-0.52,0.65-0.75c0.2-0.23,0.4-0.45,0.6-0.65c3.4-3.4,7.5-5.1,12.3-5.1C258.55,479.95,262.37,481.38,265.6,484.25z
					"/>
				
					<path fill="none" stroke="#8775A4" stroke-width="0.1" stroke-linecap="round" stroke-linejoin="round" stroke-miterlimit="3" stroke-opacity="0.498" d="
					M266.75,509.3l-12.3-11.4l-11.6,12.7 M241.25,485.7l13.2,12.2l11.9-12.95"/>
			</g>
			<g>
				<path fill="#C3C8DC" d="M250.9,494.45c0.93-0.93,2.05-1.4,3.35-1.4c1.33,0,2.47,0.47,3.4,1.4c0.93,0.93,1.4,2.07,1.4,3.4
					c0,1.3-0.47,2.42-1.4,3.35c-0.93,0.93-2.07,1.4-3.4,1.4c-1.3,0-2.42-0.47-3.35-1.4c-0.93-0.93-1.4-2.05-1.4-3.35
					C249.5,496.52,249.97,495.38,250.9,494.45z"/>
				
					<path fill="none" stroke="#000000" stroke-width="0.1" stroke-linecap="round" stroke-linejoin="round" stroke-miterlimit="3" d="
					M250.9,494.45c0.93-0.93,2.05-1.4,3.35-1.4c1.33,0,2.47,0.47,3.4,1.4c0.93,0.93,1.4,2.07,1.4,3.4c0,1.3-0.47,2.42-1.4,3.35
					c-0.93,0.93-2.07,1.4-3.4,1.4c-1.3,0-2.42-0.47-3.35-1.4c-0.93-0.93-1.4-2.05-1.4-3.35C249.5,496.52,249.97,495.38,250.9,494.45
					z"/>
			</g>
			<g>
				
					<linearGradient id="SVGID_18_" gradientUnits="userSpaceOnUse" x1="-426.75" y1="252.5249" x2="-405.725" y2="252.5249" gradientTransform="matrix(1 0 0 -1 670 740)">
					<stop  offset="0" style="stop-color:#7C769A"/>
					<stop  offset="1" style="stop-color:#292736"/>
				</linearGradient>
				<path fill="url(#SVGID_18_)" d="M250.5,492.7c-0.07,0.07-0.13,0.13-0.2,0.2l-7.05-6.5c0.2-0.2,0.42-0.37,0.65-0.5
					c2.87-2.57,6.27-3.85,10.2-3.85s7.33,1.28,10.2,3.85l-6.3,6.85c-0.07-0.07-0.12-0.12-0.15-0.15c-1.07-0.73-2.27-1.1-3.6-1.1
					c-1,0-1.92,0.22-2.75,0.65C251.13,492.28,250.8,492.47,250.5,492.7z"/>
				
					<linearGradient id="SVGID_19_" gradientUnits="userSpaceOnUse" x1="-410.9629" y1="242.875" x2="-400.3364" y2="242.875" gradientTransform="matrix(1 0 0 -1 670 740)">
					<stop  offset="0" style="stop-color:#7C769A"/>
					<stop  offset="1" style="stop-color:#292736"/>
				</linearGradient>
				<path fill="url(#SVGID_19_)" d="M265.2,486.75c0.23,0.23,0.45,0.47,0.65,0.7c2.53,2.87,3.8,6.27,3.8,10.2c0,3.47-1,6.55-3,9.25
					c-0.17,0.2-0.33,0.4-0.5,0.6l-6.65-6.1c0.03-0.07,0.08-0.15,0.15-0.25c0.23-0.33,0.42-0.67,0.55-1c0.23-0.7,0.35-1.47,0.35-2.3
					c0-1.13-0.23-2.13-0.7-3c-0.2-0.37-0.43-0.72-0.7-1.05c-0.07-0.07-0.12-0.12-0.15-0.15L265.2,486.75z"/>
				
					<linearGradient id="SVGID_20_" gradientUnits="userSpaceOnUse" x1="-425.6123" y1="232.0747" x2="-404.9873" y2="232.0747" gradientTransform="matrix(1 0 0 -1 670 740)">
					<stop  offset="0" style="stop-color:#7C769A"/>
					<stop  offset="1" style="stop-color:#292736"/>
				</linearGradient>
				<path fill="url(#SVGID_20_)" d="M254.25,504.15c1.5,0,2.82-0.45,3.95-1.35c0.07-0.03,0.13-0.08,0.2-0.15l6.6,6.15
					c-3.03,2.93-6.67,4.4-10.9,4.4c-3.4,0-6.42-0.93-9.05-2.8c-0.23-0.17-0.47-0.35-0.7-0.55l6.2-6.85c0.07,0.07,0.13,0.12,0.2,0.15
					c0.3,0.2,0.65,0.38,1.05,0.55C252.53,504,253.35,504.15,254.25,504.15z"/>
				
					<linearGradient id="SVGID_21_" gradientUnits="userSpaceOnUse" x1="-431.4873" y1="241.7754" x2="-420.5123" y2="241.7754" gradientTransform="matrix(1 0 0 -1 670 740)">
					<stop  offset="0" style="stop-color:#7C769A"/>
					<stop  offset="1" style="stop-color:#292736"/>
				</linearGradient>
				<path fill="url(#SVGID_21_)" d="M249.15,494.1c-0.07,0.1-0.12,0.18-0.15,0.25c-0.73,1-1.1,2.17-1.1,3.5c0,1.5,0.48,2.83,1.45,4
					c0.03,0.03,0.08,0.08,0.15,0.15l-6.25,6.85c-0.07-0.07-0.13-0.12-0.2-0.15c-3.03-3.1-4.55-6.78-4.55-11.05
					c0-3.83,1.22-7.18,3.65-10.05L249.15,494.1z"/>
			</g>
			<g>
				<path fill="#261339" d="M257.53,556.31c0,0.04,0,0.09,0,0.13c0.16,2.09,1.03,3.5,2.61,4.22c0.02,0.01,0.04,0.02,0.05,0.03
					l1.16,0.48l-15.77-0.03c2.85-0.29,4.36-1.85,4.54-4.7c0.05-0.27,0.08-0.55,0.08-0.86c0.01-0.04,0.02-0.09,0.03-0.13
					c0.14-0.62,0.46-1.17,0.97-1.64c0.73-0.68,1.61-1.02,2.63-1.02s1.89,0.34,2.6,1.02c0.7,0.65,1.07,1.43,1.1,2.34
					c0,0.04,0,0.09,0,0.13L257.53,556.31L257.53,556.31z"/>
				<path fill="none" d="M260.14,560.66c0.02,0.01,0.04,0.02,0.05,0.03l1.16,0.48"/>
				<path fill="none" d="M257.53,556.15c0,0.04,0,0.09,0,0.13v0.03c0.16,2.11,1.03,3.56,2.61,4.35"/>
				<path fill="none" d="M257.53,556.15c0-0.97-0.37-1.79-1.1-2.47c-0.72-0.68-1.58-1.02-2.6-1.02s-1.9,0.34-2.63,1.02
					c-0.54,0.5-0.86,1.09-0.97,1.77"/>
				<path fill="none" d="M245.58,561.14c2.85-0.29,4.36-1.85,4.54-4.7c0.05-0.27,0.08-0.55,0.08-0.86c0.01-0.04,0.02-0.09,0.03-0.13
					"/>
			</g>
			<g>
				<path d="M252.2,555.5c0.53-0.5,1.17-0.75,1.9-0.75c0.77,0,1.42,0.25,1.95,0.75c0.53,0.53,0.8,1.17,0.8,1.9
					c0,0.73-0.27,1.37-0.8,1.9c-0.53,0.5-1.18,0.75-1.95,0.75c-0.73,0-1.37-0.25-1.9-0.75c-0.53-0.53-0.8-1.17-0.8-1.9
					C251.4,556.67,251.67,556.03,252.2,555.5z"/>
			</g>
			<g>
				<g>
					<g>
						<g>
							
								<linearGradient id="SVGID_22_" gradientUnits="userSpaceOnUse" x1="-416.5884" y1="180.4399" x2="-415.1359" y2="184.8378" gradientTransform="matrix(1 0 0 -1 670 740)">
								<stop  offset="0" style="stop-color:#6F6F7B"/>
								<stop  offset="1" style="stop-color:#BAB9B7"/>
							</linearGradient>
							<path fill="url(#SVGID_22_)" d="M253.1,555.35c0.57-0.27,1.13-0.3,1.7-0.1c0.6,0.17,1.05,0.53,1.35,1.1
								c0.27,0.57,0.3,1.15,0.1,1.75c-0.2,0.6-0.57,1.03-1.1,1.3c-0.57,0.27-1.15,0.3-1.75,0.1s-1.03-0.57-1.3-1.1
								c-0.27-0.57-0.3-1.13-0.1-1.7C252.2,556.1,252.57,555.65,253.1,555.35z"/>
						</g>
					</g>
					<g>
						<g>
							
								<linearGradient id="SVGID_23_" gradientUnits="userSpaceOnUse" x1="-416.0771" y1="179.3926" x2="-415.7051" y2="185.7686" gradientTransform="matrix(1 0 0 -1 670 740)">
								<stop  offset="0" style="stop-color:#5A626F"/>
								<stop  offset="0.2353" style="stop-color:#777F8B"/>
								<stop  offset="0.4902" style="stop-color:#B1B4B4"/>
								<stop  offset="0.7059" style="stop-color:#87919A"/>
								<stop  offset="1" style="stop-color:#6A6D7E"/>
							</linearGradient>
							<path fill="url(#SVGID_23_)" d="M253.2,555.55c0.5-0.23,1.02-0.27,1.55-0.1s0.92,0.5,1.15,1c0.27,0.5,0.32,1.02,0.15,1.55
								s-0.5,0.92-1,1.15c-0.5,0.3-1.02,0.35-1.55,0.15c-0.57-0.17-0.97-0.5-1.2-1c-0.27-0.5-0.3-1.02-0.1-1.55
								C252.37,556.22,252.7,555.82,253.2,555.55z"/>
						</g>
					</g>
					<g>
						<g>
							
								<radialGradient id="SVGID_24_" cx="-414.1504" cy="183.4009" r="1.2482" gradientTransform="matrix(1 0 0 -1 670 740)" gradientUnits="userSpaceOnUse">
								<stop  offset="0" style="stop-color:#FFFFFF"/>
								<stop  offset="0.7843" style="stop-color:#FBFBFB;stop-opacity:0.6157"/>
								<stop  offset="1" style="stop-color:#F2F2F4;stop-opacity:0"/>
							</radialGradient>
							<path fill="url(#SVGID_24_)" d="M255.9,556.45c0.07,0.07,0.12,0.13,0.15,0.2c0.13,0.43,0.13,0.88,0,1.35
								c0.1-0.43,0.03-0.87-0.2-1.3c-0.07-0.13-0.15-0.25-0.25-0.35l0.1-0.3C255.77,556.18,255.83,556.32,255.9,556.45z"/>
							
								<radialGradient id="SVGID_25_" cx="-416.25" cy="184.5996" r="1.7669" gradientTransform="matrix(1 0 0 -1 670 740)" gradientUnits="userSpaceOnUse">
								<stop  offset="0" style="stop-color:#FFFFFF"/>
								<stop  offset="0.7843" style="stop-color:#FBFBFB;stop-opacity:0.6157"/>
								<stop  offset="1" style="stop-color:#F2F2F4;stop-opacity:0"/>
							</radialGradient>
							<path fill="url(#SVGID_25_)" d="M255.55,555.9l-0.1,0.25c-0.03-0.03-0.07-0.07-0.1-0.1c-0.03-0.03-0.1-0.07-0.2-0.1
								c-0.13-0.1-0.3-0.18-0.5-0.25c-0.5-0.17-1-0.13-1.5,0.1c-0.37,0.17-0.63,0.4-0.8,0.7h-0.05c0.17-0.37,0.42-0.65,0.75-0.85
								c0.07-0.03,0.12-0.07,0.15-0.1c0.5-0.23,1.02-0.27,1.55-0.1c0.2,0.07,0.37,0.15,0.5,0.25c0.07,0.03,0.13,0.07,0.2,0.1
								C255.48,555.83,255.52,555.87,255.55,555.9z"/>
							
								<linearGradient id="SVGID_26_" gradientUnits="userSpaceOnUse" x1="-418.145" y1="182.2759" x2="-414.2925" y2="181.0118" gradientTransform="matrix(1 0 0 -1 670 740)">
								<stop  offset="0" style="stop-color:#424045"/>
								<stop  offset="0.7608" style="stop-color:#424042"/>
								<stop  offset="1" style="stop-color:#424041;stop-opacity:0"/>
							</linearGradient>
							<path fill="url(#SVGID_26_)" d="M253.6,559.1c0.53,0.17,1.05,0.12,1.55-0.15c0.3-0.13,0.55-0.35,0.75-0.65
								c-0.17,0.4-0.45,0.68-0.85,0.85c-0.5,0.3-1.02,0.35-1.55,0.15c-0.57-0.17-0.97-0.5-1.2-1c-0.23-0.43-0.28-0.88-0.15-1.35
								l0.05-0.15c-0.03,0.5,0.03,0.92,0.2,1.25C252.67,558.55,253.07,558.9,253.6,559.1z"/>
						</g>
					</g>
					<g>
						<g>
							
								<linearGradient id="SVGID_27_" gradientUnits="userSpaceOnUse" x1="-1992.043" y1="1477.8496" x2="-1991.1583" y2="1477.8496" gradientTransform="matrix(-0.6783 -0.7348 -0.7468 0.6653 6.9048 -1889.241)">
								<stop  offset="0" style="stop-color:#454648"/>
								<stop  offset="0.051" style="stop-color:#424345"/>
								<stop  offset="0.0824" style="stop-color:#939597"/>
								<stop  offset="0.1176" style="stop-color:#3D3E40"/>
								<stop  offset="0.2078" style="stop-color:#4E545C"/>
								<stop  offset="0.651" style="stop-color:#27292E"/>
								<stop  offset="0.8667" style="stop-color:#2F2F30"/>
								<stop  offset="0.9098" style="stop-color:#7D8082"/>
								<stop  offset="0.9608" style="stop-color:#47484A"/>
								<stop  offset="1" style="stop-color:#535456"/>
							</linearGradient>
							<path fill="url(#SVGID_27_)" d="M252.75,559.15c-0.07-0.03-0.12-0.07-0.15-0.1c-0.07-0.07-0.12-0.12-0.15-0.15
								c-0.1-0.1-0.18-0.2-0.25-0.3v-0.05l3.3-3c0,0.03,0.02,0.07,0.05,0.1c0.1,0.07,0.2,0.15,0.3,0.25c0.03,0.07,0.07,0.13,0.1,0.2
								c0.07,0.03,0.1,0.08,0.1,0.15L252.75,559.15z"/>
						</g>
					</g>
				</g>
			</g>
			<g>
				<g>
					<polygon fill="#D0CCE3" points="257.65,478.55 251.25,478.55 254.3,475.2 					"/>
				</g>
				<g>
					<polygon fill="#D0CCE3" points="257.65,516.25 254.3,519.6 251.25,516.25 					"/>
				</g>
				<g>
					<polygon fill="#D0CCE3" points="273.35,494.2 276.7,497.25 273.35,500.6 					"/>
				</g>
				<g>
					<polygon fill="#D0CCE3" points="235.6,494.2 235.6,500.6 232.25,497.25 					"/>
				</g>
			</g>
			<g>
				<path fill="#24222D" d="M251.85,486.3v0.6c0.07,0,0.13-0.02,0.2-0.05c0-0.03,0-0.1,0-0.2v-0.15c0-0.07,0-0.12,0-0.15
					C251.98,486.32,251.92,486.3,251.85,486.3z M251.8,485.85c0.4,0,0.65,0.07,0.75,0.2c0.1,0.1,0.15,0.27,0.15,0.5
					c0,0.23-0.03,0.38-0.1,0.45c-0.03,0.07-0.13,0.12-0.3,0.15c0.17,0.03,0.27,0.07,0.3,0.1c0.07,0.1,0.1,0.25,0.1,0.45v0.85h-0.65
					v-0.9c0-0.13,0-0.22,0-0.25c-0.03-0.03-0.1-0.05-0.2-0.05v1.2h-0.7v-2.7H251.8L251.8,485.85z M253.95,486.4v0.5h0.4v0.5h-0.4
					v0.6h0.45v0.55h-1.15v-2.7h1.15v0.55H253.95L253.95,486.4z M255.05,486c0.13-0.17,0.35-0.25,0.65-0.25c0.3,0,0.5,0.08,0.6,0.25
					c0.13,0.17,0.2,0.42,0.2,0.75V487h-0.7v-0.45c0-0.13,0-0.22,0-0.25c-0.03-0.03-0.07-0.05-0.1-0.05c-0.03,0-0.07,0.02-0.1,0.05
					c-0.03,0.03-0.05,0.12-0.05,0.25v1.25c0,0.17,0.02,0.27,0.05,0.3c0.03,0.03,0.07,0.05,0.1,0.05c0.03,0,0.07-0.02,0.1-0.05
					c0-0.07,0-0.17,0-0.3v-0.35h0.7v0.2c0,0.33-0.07,0.57-0.2,0.7c-0.13,0.17-0.33,0.25-0.6,0.25c-0.3,0-0.52-0.08-0.65-0.25
					c-0.13-0.13-0.2-0.37-0.2-0.7v-0.85C254.85,486.43,254.92,486.17,255.05,486z M266.6,495.9v2.15h0.4v0.55h-1.1v-2.7H266.6
					L266.6,495.9z M265.4,495.9v0.55h-0.45v0.5h0.45v0.55h-0.45v0.55h0.5v0.55h-1.2v-2.7H265.4L265.4,495.9z M263.7,496.65
					c0,0.2-0.02,0.35-0.05,0.45c-0.03,0.07-0.13,0.1-0.3,0.1c0.13,0.03,0.23,0.08,0.3,0.15c0.03,0.1,0.05,0.23,0.05,0.4v0.85h-0.65
					v-0.9c0-0.13,0-0.22,0-0.25c-0.03-0.03-0.08-0.05-0.15-0.05v1.2h-0.7v-2.7h0.6c0.4,0,0.67,0.07,0.8,0.2
					C263.67,496.2,263.7,496.38,263.7,496.65z M263.05,496.6c0-0.1,0-0.17,0-0.2c-0.03,0-0.08,0-0.15,0v0.55c0.07,0,0.12,0,0.15,0
					c0-0.03,0-0.1,0-0.2V496.6z M257.6,507.25c0.1,0.1,0.15,0.35,0.15,0.75v0.95c0,0.33-0.03,0.55-0.1,0.65
					c-0.07,0.1-0.27,0.15-0.6,0.15h-0.85v-2.7h0.5C257.2,507.05,257.5,507.12,257.6,507.25z M256.9,507.5v1.8
					c0.07,0,0.12-0.02,0.15-0.05c0.03-0.07,0.05-0.18,0.05-0.35v-1.25C257.07,507.55,257,507.5,256.9,507.5z M253.25,507.6v0.5h0.45
					v0.55h-0.45v0.55h0.5v0.55h-1.2v-2.7h1.15v0.55H253.25L253.25,507.6z M254.8,509.25v0.5h-0.75l0.35-2.7h1l0.4,2.7h-0.7
					l-0.05-0.5H254.8z M255.05,508.8l-0.1-1.15l-0.15,1.15H255.05z M245.45,494.45h0.6l-0.25,1.2l0.35,1.5h-0.6l-0.25-1l-0.1,1h-0.7
					l0.25-1.5l-0.25-1.2h0.7l0.1,0.7L245.45,494.45z M243.85,494.45l0.4,2.7h-0.7l-0.05-0.5h-0.25v0.5h-0.75l0.35-2.7H243.85z
					 M243.5,496.15l-0.1-1.1l-0.15,1.1H243.5z M245.45,502.2h-0.6l-0.35-1.25v1.25h-0.6v-2.7h0.6l0.4,1.2v-1.2h0.55V502.2
					L245.45,502.2z M243.4,499.5v2.7h-0.7v-2.7H243.4z M241.1,495.7l0.15-1.25h0.9v2.7h-0.6v-1.8l-0.25,1.8h-0.4l-0.3-1.8v1.8H240
					v-2.7h0.9L241.1,495.7z M240.9,502.2l-0.3-1.8v1.8H240v-2.7h0.9l0.2,1.25l0.15-1.25h0.9v2.7h-0.6v-1.8l-0.25,1.8H240.9z
					 M251.15,507.05c0.37,0,0.62,0.07,0.75,0.2c0.1,0.1,0.15,0.28,0.15,0.55c0,0.2-0.03,0.33-0.1,0.4c-0.03,0.1-0.13,0.15-0.3,0.15
					c0.13,0.03,0.23,0.08,0.3,0.15c0.07,0.1,0.1,0.23,0.1,0.4v0.85h-0.65v-0.9c0-0.13-0.02-0.22-0.05-0.25
					c0-0.03-0.05-0.05-0.15-0.05v1.2h-0.7v-2.7H251.15z M251.2,508.1c0.07,0,0.12,0,0.15,0c0.03-0.03,0.05-0.12,0.05-0.25v-0.1
					c0-0.1-0.02-0.17-0.05-0.2c-0.03-0.03-0.08-0.05-0.15-0.05V508.1z"/>
			</g>
			<g>
				<path fill="#D0CCE3" d="M251.6,486.75c0.07,0,0.12,0,0.15,0c0.03-0.03,0.05-0.12,0.05-0.25v-0.1c0-0.1-0.02-0.17-0.05-0.2
					s-0.08-0.05-0.15-0.05V486.75z M252.3,485.9c0.1,0.1,0.15,0.28,0.15,0.55c0,0.2-0.03,0.33-0.1,0.4c-0.03,0.1-0.13,0.15-0.3,0.15
					c0.13,0.03,0.23,0.08,0.3,0.15c0.07,0.07,0.1,0.2,0.1,0.4v0.85h-0.65v-0.9c0-0.13-0.02-0.22-0.05-0.25
					c0-0.03-0.05-0.05-0.15-0.05v1.2h-0.7v-2.7h0.65C251.92,485.7,252.17,485.77,252.3,485.9z M254.8,485.9
					c0.13-0.17,0.33-0.25,0.6-0.25c0.3,0,0.52,0.08,0.65,0.25c0.13,0.13,0.2,0.38,0.2,0.75v0.2h-0.7v-0.4c0-0.13-0.02-0.23-0.05-0.3
					c0-0.03-0.02-0.05-0.05-0.05c-0.07,0-0.1,0.02-0.1,0.05c-0.03,0.07-0.05,0.17-0.05,0.3v1.25c0,0.13,0.02,0.22,0.05,0.25
					c0,0.03,0.03,0.05,0.1,0.05c0.03,0,0.05-0.02,0.05-0.05c0.03-0.07,0.05-0.15,0.05-0.25v-0.35h0.7v0.15
					c0,0.37-0.07,0.62-0.2,0.75c-0.13,0.13-0.33,0.2-0.6,0.2c-0.3,0-0.52-0.07-0.65-0.2c-0.13-0.13-0.2-0.38-0.2-0.75v-0.85
					C254.6,486.28,254.67,486.03,254.8,485.9z M254.1,485.7v0.55h-0.45v0.5h0.45v0.5h-0.45v0.6h0.5v0.55h-1.2v-2.7H254.1
					L254.1,485.7z M266.35,495.8v2.15h0.4v0.5h-1.1v-2.65H266.35z M265.15,495.8v0.5h-0.45v0.55h0.4v0.5h-0.4v0.6h0.45v0.5H264
					v-2.65H265.15z M263.35,496.95c-0.03,0.07-0.13,0.12-0.3,0.15c0.17,0.03,0.27,0.07,0.3,0.1c0.07,0.1,0.1,0.25,0.1,0.45v0.8
					h-0.65v-0.85c0-0.17-0.02-0.27-0.05-0.3c0-0.03-0.05-0.05-0.15-0.05v1.2h-0.7v-2.65h0.65c0.37,0,0.62,0.07,0.75,0.2
					c0.1,0.1,0.15,0.27,0.15,0.5S263.42,496.88,263.35,496.95z M262.8,496.45c0-0.1-0.02-0.17-0.05-0.2c-0.03,0-0.08,0-0.15,0v0.6
					c0.07,0,0.12-0.02,0.15-0.05s0.05-0.1,0.05-0.2V496.45z M256.45,506.95c0.47,0,0.75,0.05,0.85,0.15c0.13,0.1,0.2,0.35,0.2,0.75
					v0.95c0,0.33-0.03,0.55-0.1,0.65c-0.1,0.1-0.3,0.15-0.6,0.15h-0.9v-2.65H256.45z M256.6,507.4v1.75c0.1,0,0.17-0.02,0.2-0.05
					c0.03-0.03,0.05-0.15,0.05-0.35v-1.05c0-0.13-0.02-0.2-0.05-0.2C256.8,507.43,256.73,507.4,256.6,507.4z M255.15,506.95
					l0.4,2.65h-0.7l-0.05-0.45h-0.25l-0.05,0.45h-0.7l0.35-2.65H255.15z M253.4,508v0.5H253v0.6h0.5v0.5h-1.2v-2.65h1.15v0.5H253
					V508H253.4z M254.8,508.65l-0.1-1.15l-0.15,1.15H254.8z M245.55,495.5l0.35,1.5h-0.65l-0.2-1l-0.15,1h-0.65l0.25-1.5l-0.25-1.2
					h0.65l0.15,0.75l0.15-0.75h0.55L245.55,495.5z M243.25,496.05l-0.1-1.15l-0.15,1.15H243.25z M243,496.5v0.5h-0.75l0.35-2.7h1
					l0.4,2.7h-0.7l-0.05-0.5H243z M245.2,502.05h-0.6l-0.4-1.25v1.25h-0.55v-2.7h0.55l0.4,1.2v-1.2h0.6V502.05z M243.1,502.05h-0.7
					v-2.7h0.7V502.05z M240.85,495.55l0.1-1.25h0.9v2.7h-0.55v-1.8l-0.25,1.8h-0.45l-0.25-1.8v1.8h-0.6v-2.7h0.9L240.85,495.55z
					 M240.95,499.35h0.9v2.7h-0.55v-1.8l-0.25,1.8h-0.45l-0.25-1.8v1.8h-0.6v-2.7h0.9l0.2,1.25L240.95,499.35z M250.95,507.4v0.6
					c0.07,0,0.12-0.02,0.15-0.05c0-0.03,0-0.1,0-0.2v-0.15c0-0.1,0-0.17,0-0.2C251.07,507.4,251.02,507.4,250.95,507.4z
					 M250.95,508.4v1.2h-0.7v-2.65h0.6c0.4,0,0.65,0.05,0.75,0.15c0.1,0.13,0.15,0.32,0.15,0.55c0,0.23-0.02,0.38-0.05,0.45
					c-0.07,0.07-0.17,0.1-0.3,0.1c0.13,0.07,0.23,0.12,0.3,0.15c0.03,0.1,0.05,0.25,0.05,0.45v0.8h-0.65v-0.85c0-0.17,0-0.27,0-0.3
					C251.07,508.42,251.02,508.4,250.95,508.4z"/>
			</g>
			<g>
				
					<linearGradient id="SVGID_28_" gradientUnits="userSpaceOnUse" x1="-443.8501" y1="262.1001" x2="-428.5251" y2="262.1001" gradientTransform="matrix(1 0 0 -1 670 740)">
					<stop  offset="0" style="stop-color:#B4B8DB"/>
					<stop  offset="1" style="stop-color:#858AB6"/>
				</linearGradient>
				<path fill="url(#SVGID_28_)" d="M227.55,474.45c0.97-0.93,2.12-1.4,3.45-1.4h5.65c1.37,0,2.5,0.47,3.4,1.4
					c0.97,0.97,1.45,2.12,1.45,3.45s-0.48,2.47-1.45,3.4c-0.9,0.97-2.03,1.45-3.4,1.45H231c-1.33,0-2.48-0.48-3.45-1.45
					c-0.93-0.93-1.4-2.07-1.4-3.4S226.62,475.42,227.55,474.45z"/>
				
					<linearGradient id="SVGID_29_" gradientUnits="userSpaceOnUse" x1="-429.9585" y1="281.8325" x2="-399.4322" y2="267.8867" gradientTransform="matrix(1 0 0 -1 670 740)">
					<stop  offset="0" style="stop-color:#B4B8DB"/>
					<stop  offset="1" style="stop-color:#858AB6"/>
				</linearGradient>
				<path fill="url(#SVGID_29_)" d="M272.1,465.25c0,0.1,0,0.18,0,0.25c-0.07,1.3-0.57,2.42-1.5,3.35c-1.03,1.03-2.27,1.55-3.7,1.55
					h-23.15c-1.43,0-2.67-0.52-3.7-1.55c-0.93-0.93-1.43-2.05-1.5-3.35c-0.03-0.07-0.05-0.15-0.05-0.25c0-0.03,0-0.07,0-0.1
					c0-1.47,0.52-2.7,1.55-3.7c1.03-1.03,2.27-1.55,3.7-1.55h23.15c1.43,0,2.67,0.52,3.7,1.55c1,1,1.5,2.23,1.5,3.7
					C272.1,465.18,272.1,465.22,272.1,465.25z"/>
				
					<linearGradient id="SVGID_30_" gradientUnits="userSpaceOnUse" x1="-403.6748" y1="261.8999" x2="-388.625" y2="261.8999" gradientTransform="matrix(1 0 0 -1 670 740)">
					<stop  offset="0" style="stop-color:#CABEAE"/>
					<stop  offset="1" style="stop-color:#C6B482"/>
				</linearGradient>
				<path fill="url(#SVGID_30_)" d="M267.4,475.2c0.73-0.8,1.6-1.2,2.6-1.2h7.65c1.03,0,1.92,0.4,2.65,1.2
					c0.7,0.8,1.05,1.77,1.05,2.9c0,1.13-0.35,2.1-1.05,2.9c-0.73,0.8-1.62,1.2-2.65,1.2H270c-1,0-1.87-0.4-2.6-1.2
					s-1.1-1.77-1.1-2.9C266.3,476.97,266.67,476,267.4,475.2z"/>
				<path fill="none" d="M227.55,474.45c-0.93,0.97-1.4,2.12-1.4,3.45s0.47,2.47,1.4,3.4c0.97,0.97,2.12,1.45,3.45,1.45h5.65
					c1.37,0,2.5-0.48,3.4-1.45c0.97-0.93,1.45-2.07,1.45-3.4s-0.48-2.48-1.45-3.45c-0.9-0.93-2.03-1.4-3.4-1.4H231
					C229.67,473.05,228.52,473.52,227.55,474.45z"/>
				<path fill="none" d="M272.1,465.25c0-0.03,0-0.07,0-0.1c0-1.47-0.5-2.7-1.5-3.7c-1.03-1.03-2.27-1.55-3.7-1.55h-23.15
					c-1.43,0-2.67,0.52-3.7,1.55c-1.03,1-1.55,2.23-1.55,3.7c0,0.03,0,0.07,0,0.1c0,0.1,0.02,0.18,0.05,0.25
					c0.07,1.3,0.57,2.42,1.5,3.35c1.03,1.03,2.27,1.55,3.7,1.55h23.15c1.43,0,2.67-0.52,3.7-1.55c0.93-0.93,1.43-2.05,1.5-3.35
					C272.1,465.43,272.1,465.35,272.1,465.25z"/>
				
					<path fill="none" stroke="#53472D" stroke-width="0.1" stroke-linecap="round" stroke-linejoin="round" stroke-miterlimit="3" d="
					M267.4,475.2c-0.73,0.8-1.1,1.77-1.1,2.9c0,1.13,0.37,2.1,1.1,2.9s1.6,1.2,2.6,1.2h7.65c1.03,0,1.92-0.4,2.65-1.2
					c0.7-0.8,1.05-1.77,1.05-2.9c0-1.13-0.35-2.1-1.05-2.9c-0.73-0.8-1.62-1.2-2.65-1.2H270C269,474,268.13,474.4,267.4,475.2z"/>
			</g>
			<g>
				<path fill="#B6A7C9" d="M284.9,381.45v1.1H284v1.25h1.05v1.15h-2.55v-5.75h2.45v1.15H284v1.1H284.9z M287.25,380.15v1.3
					c0.17,0,0.27-0.02,0.3-0.05c0.07-0.07,0.1-0.22,0.1-0.45v-0.35c0-0.17-0.02-0.28-0.05-0.35
					C287.53,380.18,287.42,380.15,287.25,380.15z M287.1,379.2c0.8,0,1.35,0.13,1.65,0.4c0.2,0.23,0.3,0.62,0.3,1.15
					c0,0.47-0.05,0.77-0.15,0.9c-0.13,0.17-0.35,0.27-0.65,0.3c0.3,0.07,0.5,0.18,0.6,0.35c0.13,0.17,0.2,0.47,0.2,0.9v1.75h-1.4
					v-1.9c0-0.3-0.02-0.5-0.05-0.6c-0.03-0.07-0.15-0.1-0.35-0.1v2.6h-1.5v-5.75H287.1L287.1,379.2z M277.15,381.45h0.95v1.1h-0.95
					v1.25h1.1v1.15h-2.55v-5.75h2.45v1.15h-1V381.45L277.15,381.45z M281.9,380.35H281v4.6h-1.45v-4.6h-0.9v-1.15h3.25V380.35z
					 M273.55,384.95v-3.8l-0.5,3.8h-0.95l-0.5-3.8v3.8h-1.3v-5.75h1.85l0.4,2.7l0.35-2.7h1.95v5.75H273.55z M226.6,379.65
					c0.23-0.4,0.68-0.6,1.35-0.6s1.13,0.18,1.4,0.55c0.23,0.33,0.35,0.82,0.35,1.45v0.25h-1.5v-0.6c0-0.3,0-0.48,0-0.55
					c-0.03-0.07-0.1-0.1-0.2-0.1s-0.17,0.03-0.2,0.1c-0.03,0.07-0.05,0.25-0.05,0.55v2.75c0,0.27,0.02,0.45,0.05,0.55
					c0.03,0.07,0.1,0.1,0.2,0.1s0.17-0.03,0.2-0.1c0.03-0.1,0.05-0.28,0.05-0.55v-0.7h-0.3v-0.85h1.75v3.05h-0.95l-0.1-0.4
					c-0.2,0.37-0.52,0.55-0.95,0.55c-0.53,0-0.92-0.2-1.15-0.6c-0.2-0.33-0.3-0.83-0.3-1.5v-1.75
					C226.25,380.52,226.37,379.98,226.6,379.65z M223.2,381.25v2c0,0.73-0.08,1.2-0.25,1.4c-0.2,0.2-0.65,0.3-1.35,0.3h-1.85v-5.75
					h1.1c1,0,1.65,0.12,1.95,0.35C223.07,379.78,223.2,380.35,223.2,381.25z M225.45,379.2v5.75H224v-5.75H225.45z M232,379.2v5.75
					h-1.45v-5.75H232z M221.7,380.4c-0.07-0.17-0.22-0.25-0.45-0.25V384c0.2,0,0.32-0.05,0.35-0.15c0.07-0.1,0.1-0.33,0.1-0.7v-2.25
					C221.7,380.63,221.7,380.47,221.7,380.4z M245.25,380.35v-1.15h3.25v1.15h-0.9v4.6h-1.45v-4.6H245.25z M250.6,379.2v2.05h0.4
					v-2.05h1.5v5.75H251v-2.4h-0.4v2.4h-1.5v-5.75H250.6z M238.95,379.2l0.9,5.75h-1.5l-0.1-1.05h-0.5l-0.1,1.05h-1.5l0.7-5.75
					H238.95z M235.85,380.35h-0.9v4.6h-1.45v-4.6h-0.9v-1.15h3.25V380.35L235.85,380.35z M241.8,379.2v4.6h0.9v1.15h-2.35v-5.75
					H241.8z M238.2,382.9l-0.2-2.4l-0.3,2.4H238.2z M267.75,379.05c0.7,0,1.17,0.22,1.4,0.65c0.2,0.33,0.3,0.97,0.3,1.9v1
					c0,0.93-0.1,1.57-0.3,1.9c-0.23,0.4-0.7,0.6-1.4,0.6s-1.17-0.2-1.4-0.6c-0.2-0.33-0.3-0.97-0.3-1.9v-1c0-0.93,0.1-1.57,0.3-1.9
					C266.58,379.27,267.05,379.05,267.75,379.05z M267.5,380.65v2.75c0,0.33,0.02,0.53,0.05,0.6s0.1,0.1,0.2,0.1s0.17-0.03,0.2-0.1
					c0.03-0.1,0.05-0.3,0.05-0.6v-2.75c0-0.27-0.02-0.43-0.05-0.5c-0.03-0.07-0.1-0.1-0.2-0.1s-0.15,0.03-0.15,0.1
					C267.53,380.22,267.5,380.38,267.5,380.65z M265.25,379.2v5.75h-1.3v-3.8l-0.5,3.8h-0.9l-0.55-3.8v3.8h-1.3v-5.75h1.9l0.4,2.7
					l0.3-2.7H265.25z M255.8,380.35h-1v1.1h0.95v1.1h-0.95v1.25h1.1v1.15h-2.55v-5.75h2.45V380.35z M258.4,380.25
					c-0.07-0.07-0.18-0.1-0.35-0.1v1.3c0.2,0,0.32-0.02,0.35-0.05c0.07-0.07,0.1-0.22,0.1-0.45v-0.35
					C258.5,380.43,258.47,380.32,258.4,380.25z M259.85,380.75c0,0.47-0.05,0.77-0.15,0.9c-0.1,0.17-0.32,0.27-0.65,0.3
					c0.3,0.07,0.52,0.18,0.65,0.35c0.1,0.17,0.15,0.47,0.15,0.9v1.75h-1.35v-1.9c0-0.3-0.02-0.5-0.05-0.6
					c-0.07-0.07-0.2-0.1-0.4-0.1v2.6h-1.45v-5.75h1.35c0.8,0,1.33,0.13,1.6,0.4C259.75,379.83,259.85,380.22,259.85,380.75z
					 M263.45,454.25c-0.13,0.13-0.35,0.2-0.65,0.2c-0.3,0-0.53-0.05-0.7-0.15c-0.17-0.13-0.25-0.35-0.25-0.65v-0.25h0.75v0.2
					c0,0.17,0,0.27,0,0.3c0.03,0.03,0.07,0.05,0.1,0.05c0.07,0,0.12-0.02,0.15-0.05c0.03-0.03,0.05-0.13,0.05-0.3
					c0-0.1-0.18-0.25-0.55-0.45c-0.37-0.2-0.55-0.47-0.55-0.8c0-0.1,0.02-0.18,0.05-0.25c0.03-0.2,0.1-0.35,0.2-0.45
					c0.13-0.1,0.35-0.15,0.65-0.15c0.3,0,0.53,0.07,0.7,0.2c0.1,0.07,0.17,0.2,0.2,0.4c0,0.03,0,0.08,0,0.15v0.2h-0.75v-0.35
					c-0.03-0.07-0.08-0.1-0.15-0.1c-0.03,0-0.07,0.02-0.1,0.05v0.05c0,0.03,0,0.08,0,0.15c0,0.17,0.08,0.3,0.25,0.4
					c0.17,0.1,0.35,0.18,0.55,0.25c0.17,0.17,0.25,0.38,0.25,0.65C263.65,453.88,263.58,454.12,263.45,454.25z M257,451.55
					l-0.05,0.4c0.13-0.3,0.32-0.45,0.55-0.45v1c-0.2,0-0.33,0.05-0.4,0.15c-0.07,0.07-0.1,0.17-0.1,0.3v1.45h-0.85v-2.85H257
					L257,451.55z M255.55,452.1c0.03,0.13,0.05,0.32,0.05,0.55v0.4h-1.1v0.6c0,0.13,0,0.22,0,0.25c0.03,0.03,0.08,0.05,0.15,0.05
					s0.1-0.02,0.1-0.05c0.03-0.07,0.05-0.15,0.05-0.25v-0.45h0.8v0.25c0,0.33-0.07,0.58-0.2,0.75c-0.13,0.17-0.38,0.25-0.75,0.25
					c-0.37,0-0.62-0.07-0.75-0.2c-0.17-0.17-0.25-0.45-0.25-0.85v-0.85c0-0.17,0.02-0.32,0.05-0.45c0.03-0.17,0.1-0.28,0.2-0.35
					c0.17-0.17,0.4-0.25,0.7-0.25c0.33,0,0.58,0.08,0.75,0.25C255.42,451.82,255.48,451.93,255.55,452.1z M252.9,451.15
					c0.1,0.17,0.15,0.4,0.15,0.7V452h-0.8v-0.3c0-0.1,0-0.17,0-0.2c-0.03-0.03-0.07-0.05-0.1-0.05c-0.13,0-0.2,0.08-0.2,0.25
					s0.05,0.3,0.15,0.4c0.03,0.03,0.08,0.07,0.15,0.1c0.37,0.23,0.57,0.37,0.6,0.4c0.2,0.2,0.3,0.5,0.3,0.9
					c0,0.37-0.08,0.62-0.25,0.75c-0.13,0.17-0.38,0.25-0.75,0.25c-0.33,0-0.58-0.08-0.75-0.25c-0.17-0.2-0.25-0.48-0.25-0.85v-0.25
					h0.8v0.4c0,0.17,0.02,0.27,0.05,0.3c0.03,0.03,0.08,0.05,0.15,0.05c0.1,0,0.15-0.12,0.15-0.35c0-0.23-0.1-0.42-0.3-0.55
					c-0.17-0.13-0.35-0.25-0.55-0.35c-0.17-0.13-0.27-0.32-0.3-0.55c0-0.1,0-0.2,0-0.3c0-0.27,0.07-0.48,0.2-0.65
					c0-0.03,0.02-0.07,0.05-0.1c0.13-0.13,0.37-0.2,0.7-0.2c0.33,0,0.57,0.07,0.7,0.2C252.83,451.08,252.87,451.12,252.9,451.15z
					 M254.5,452.55h0.25v-0.3c0-0.07,0-0.12,0-0.15l-0.05-0.05c0-0.03-0.02-0.05-0.05-0.05c-0.07,0-0.12,0.02-0.15,0.05v0.05
					c0,0.03,0,0.08,0,0.15V452.55z M261.3,452.65v0.4h-1.1v0.6c0,0.13,0.02,0.22,0.05,0.25c0,0.03,0.03,0.05,0.1,0.05
					c0.07,0,0.12-0.02,0.15-0.05c0-0.07,0-0.15,0-0.25v-0.45h0.8v0.25c0,0.33-0.05,0.58-0.15,0.75c-0.17,0.17-0.42,0.25-0.75,0.25
					c-0.37,0-0.63-0.07-0.8-0.2c-0.13-0.17-0.2-0.45-0.2-0.85v-0.85c0-0.17,0.02-0.32,0.05-0.45c0.03-0.17,0.1-0.28,0.2-0.35
					c0.13-0.17,0.37-0.25,0.7-0.25s0.58,0.08,0.75,0.25c0.07,0.07,0.12,0.18,0.15,0.35C261.28,452.23,261.3,452.42,261.3,452.65z
					 M260.45,452.25c0-0.07,0-0.12,0-0.15v-0.05c0-0.03-0.03-0.05-0.1-0.05s-0.1,0.02-0.1,0.05v0.05c-0.03,0.03-0.05,0.08-0.05,0.15
					v0.3h0.25V452.25z M258.8,450.95v0.45h-0.85v-0.45H258.8z M258.8,451.55v2.85h-0.85v-2.85H258.8z M247.4,452.1
					c0.03-0.17,0.08-0.28,0.15-0.35c0.17-0.17,0.42-0.25,0.75-0.25s0.57,0.08,0.7,0.25c0.1,0.1,0.17,0.22,0.2,0.35
					c0.03,0.13,0.05,0.32,0.05,0.55h-0.8v-0.35c0-0.1,0-0.17,0-0.2v-0.05c-0.03-0.03-0.08-0.05-0.15-0.05
					c-0.03,0-0.07,0.02-0.1,0.05v0.05c0,0.03,0,0.1,0,0.2v1.25c0,0.17,0,0.27,0,0.3c0.03,0.07,0.08,0.1,0.15,0.1
					c0.07,0,0.1-0.03,0.1-0.1c0.03-0.03,0.05-0.13,0.05-0.3v-0.35h0.75c0,0.47-0.07,0.8-0.2,1c-0.13,0.17-0.38,0.25-0.75,0.25
					c-0.33,0-0.58-0.08-0.75-0.25c-0.13-0.17-0.2-0.47-0.2-0.9v-0.8C247.35,452.37,247.37,452.23,247.4,452.1z M246.8,450.95v3.45
					H246v-2.3l-0.3,2.3h-0.55l-0.3-2.3v2.3h-0.8v-3.45h1.15l0.25,1.6l0.2-1.6H246.8z"/>
				<path fill="#343758" d="M231.3,476.9v2.7h-0.7v-2.7H231.3z M229.8,476.9v2.15h0.4v0.55h-1.1v-2.7H229.8L229.8,476.9z
					 M231.85,478.7v-0.85c0-0.07,0-0.12,0-0.15c0-0.27,0.05-0.47,0.15-0.6c0.1-0.17,0.3-0.25,0.6-0.25c0.3,0,0.52,0.08,0.65,0.25
					c0.1,0.13,0.17,0.33,0.2,0.6v0.2h-0.7v-0.3c0-0.13-0.02-0.22-0.05-0.25c0-0.03-0.02-0.05-0.05-0.05c-0.07,0-0.1,0.02-0.1,0.05
					c0,0.03,0,0.12,0,0.25v1.3c0,0.13,0,0.22,0,0.25c0,0.03,0.03,0.05,0.1,0.05c0.03,0,0.07-0.02,0.1-0.05c0-0.03,0-0.12,0-0.25
					v-0.35h-0.1v-0.4h0.8v1.45H233l-0.05-0.2c-0.1,0.17-0.25,0.25-0.45,0.25c-0.27,0-0.45-0.08-0.55-0.25
					C231.88,479.23,231.85,479,231.85,478.7z M257.2,463.2v3.4h0.7v0.85h-1.75v-4.25H257.2z M253.4,463.85
					c-0.07,0-0.12,0.03-0.15,0.1c0,0.03,0,0.15,0,0.35v1.95c0,0.27,0,0.43,0,0.5c0.03,0.07,0.08,0.1,0.15,0.1s0.12-0.03,0.15-0.1
					c0.03-0.1,0.05-0.27,0.05-0.5v-1.95c0-0.2-0.02-0.32-0.05-0.35C253.52,463.88,253.47,463.85,253.4,463.85z M254.65,465v0.7
					c0,0.7-0.07,1.17-0.2,1.4c-0.17,0.3-0.52,0.45-1.05,0.45c-0.5,0-0.83-0.15-1-0.45c-0.17-0.23-0.25-0.7-0.25-1.4V465
					c0-0.7,0.08-1.17,0.25-1.4c0.17-0.3,0.5-0.45,1-0.45c0.53,0,0.87,0.15,1,0.45C254.57,463.83,254.65,464.3,254.65,465z
					 M260.6,464.1c-0.03-0.1-0.15-0.15-0.35-0.15v2.8c0.17,0,0.27-0.05,0.3-0.15c0.03-0.03,0.05-0.2,0.05-0.5v-1.65
					C260.6,464.25,260.6,464.13,260.6,464.1z M261.7,464.7v1.5c0,0.53-0.07,0.87-0.2,1c-0.13,0.17-0.45,0.25-0.95,0.25h-1.35v-4.25
					h0.8c0.73,0,1.2,0.1,1.4,0.3C261.6,463.67,261.7,464.07,261.7,464.7z M249.3,463.2v1.55h0.3v-1.55h1.1v4.25h-1.1v-1.75h-0.3
					v1.75h-1.1v-4.25H249.3z M235.95,476.9h1.5v0.55h-0.4v2.15h-0.7v-2.15h-0.4V476.9z M234.65,476.9v0.95h0.2v-0.95h0.7v2.7h-0.7
					v-1.15h-0.2v1.15h-0.7v-2.7H234.65z"/>
				<path fill="#312917" d="M271.25,476.9l0.4,1.2v-1.2h0.55v2.7h-0.6l-0.35-1.25v1.25h-0.6v-2.7H271.25z M270,477.1
					c0.07,0.13,0.12,0.33,0.15,0.6c0,0.07,0,0.17,0,0.3v0.45c0,0.47-0.05,0.78-0.15,0.95s-0.32,0.25-0.65,0.25s-0.55-0.08-0.65-0.25
					c-0.1-0.17-0.15-0.48-0.15-0.95V478c0-0.13,0-0.23,0-0.3c0.03-0.27,0.08-0.47,0.15-0.6c0.1-0.17,0.32-0.25,0.65-0.25
					S269.9,476.93,270,477.1z M269.35,477.3c-0.07,0-0.1,0.02-0.1,0.05c0,0.03,0,0.12,0,0.25v1.25c0,0.17,0,0.27,0,0.3
					c0,0.03,0.03,0.05,0.1,0.05c0.03,0,0.07-0.02,0.1-0.05c0-0.07,0-0.17,0-0.3v-1.25c0-0.13,0-0.22,0-0.25
					C269.45,477.32,269.42,477.3,269.35,477.3z M277.1,477.45v0.5h0.4v0.5h-0.4v1.15h-0.7v-2.7h1.15v0.55H277.1L277.1,477.45z
					 M275.1,476.85c0.33,0,0.55,0.08,0.65,0.25c0.07,0.13,0.12,0.33,0.15,0.6c0,0.07,0,0.17,0,0.3v0.45c0,0.47-0.05,0.78-0.15,0.95
					s-0.32,0.25-0.65,0.25s-0.55-0.08-0.65-0.25c-0.1-0.17-0.15-0.48-0.15-0.95V478c0-0.13,0-0.23,0-0.3
					c0.03-0.27,0.08-0.47,0.15-0.6C274.55,476.93,274.77,476.85,275.1,476.85z M273.9,476.85l-0.8,2.8h-0.45l0.75-2.8H273.9z
					 M275,477.35c0,0.03,0,0.12,0,0.25v1.25c0,0.17,0,0.27,0,0.3c0,0.03,0.03,0.05,0.1,0.05c0.03,0,0.07-0.02,0.1-0.05
					c0-0.07,0-0.17,0-0.3v-1.25c0-0.13,0-0.22,0-0.25c0-0.03-0.03-0.05-0.1-0.05C275.03,477.3,275,477.32,275,477.35z M278,476.9
					h1.15v0.55h-0.45v0.5h0.4v0.5h-0.4v1.15H278V476.9z"/>
			</g>
			<g>
				
					<radialGradient id="SVGID_31_" cx="-423.4233" cy="2359.3477" r="3.1821" gradientTransform="matrix(-0.5226 0.8526 0.4008 0.2554 -926.6366 221.0424)" gradientUnits="userSpaceOnUse">
					<stop  offset="0" style="stop-color:#FFFFFF"/>
					<stop  offset="0.2078" style="stop-color:#FFFFFF"/>
					<stop  offset="0.3608" style="stop-color:#FFFFFF;stop-opacity:0.3922"/>
					<stop  offset="0.5059" style="stop-color:#FFFFFF;stop-opacity:0.298"/>
					<stop  offset="0.7843" style="stop-color:#FFFFFF;stop-opacity:0.0667"/>
					<stop  offset="1" style="stop-color:#FEFEFE;stop-opacity:0"/>
				</radialGradient>
				<path fill="url(#SVGID_31_)" d="M240.55,460.05c0.57-0.37,1.03-0.45,1.4-0.25c0.33,0.23,0.47,0.7,0.4,1.4
					c-0.07,0.7-0.33,1.43-0.8,2.2c-0.13,0.23-0.28,0.45-0.45,0.65c-0.37,0.43-0.75,0.78-1.15,1.05c-0.57,0.4-1.03,0.48-1.4,0.25
					c-0.33-0.23-0.47-0.7-0.4-1.4c0.03-0.47,0.17-0.97,0.4-1.5c0.13-0.2,0.27-0.43,0.4-0.7
					C239.42,461.02,239.95,460.45,240.55,460.05z"/>
			</g>
			<g>
				
					<radialGradient id="SVGID_32_" cx="-405.8506" cy="2355.4756" r="3.1802" gradientTransform="matrix(-0.5226 0.8526 0.4008 0.2554 -928.3514 219.9486)" gradientUnits="userSpaceOnUse">
					<stop  offset="0" style="stop-color:#FFFFFF"/>
					<stop  offset="0.2078" style="stop-color:#FFFFFF"/>
					<stop  offset="0.3608" style="stop-color:#FFFFFF;stop-opacity:0.3922"/>
					<stop  offset="0.5059" style="stop-color:#FFFFFF;stop-opacity:0.298"/>
					<stop  offset="0.7843" style="stop-color:#FFFFFF;stop-opacity:0.0667"/>
					<stop  offset="1" style="stop-color:#FEFEFE;stop-opacity:0"/>
				</radialGradient>
				<path fill="url(#SVGID_32_)" d="M229.45,472.7c0.37,0.23,0.52,0.7,0.45,1.4c-0.07,0.7-0.33,1.43-0.8,2.2
					c-0.17,0.23-0.32,0.45-0.45,0.65c-0.37,0.43-0.75,0.78-1.15,1.05c-0.6,0.37-1.07,0.43-1.4,0.2c-0.37-0.23-0.5-0.68-0.4-1.35
					c0.03-0.47,0.17-0.97,0.4-1.5c0.13-0.2,0.27-0.43,0.4-0.7c0.47-0.77,0.98-1.33,1.55-1.7
					C228.65,472.58,229.12,472.5,229.45,472.7z"/>
			</g>
			<g>
				
					<radialGradient id="SVGID_33_" cx="-427.2886" cy="2389.8535" r="3.1832" gradientTransform="matrix(-0.5226 0.8526 0.4008 0.2554 -913.1317 229.6478)" gradientUnits="userSpaceOnUse">
					<stop  offset="0" style="stop-color:#FFFFFF"/>
					<stop  offset="0.2078" style="stop-color:#FFFFFF"/>
					<stop  offset="0.3608" style="stop-color:#FFFFFF;stop-opacity:0.3922"/>
					<stop  offset="0.5059" style="stop-color:#FFFFFF;stop-opacity:0.298"/>
					<stop  offset="0.7843" style="stop-color:#FFFFFF;stop-opacity:0.0667"/>
					<stop  offset="1" style="stop-color:#FEFEFE;stop-opacity:0"/>
				</radialGradient>
				<path fill="url(#SVGID_33_)" d="M269.65,472.95c0.37,0.23,0.52,0.7,0.45,1.4c-0.1,0.67-0.38,1.38-0.85,2.15
					c-0.13,0.27-0.28,0.48-0.45,0.65c-0.33,0.43-0.7,0.78-1.1,1.05c-0.6,0.4-1.08,0.48-1.45,0.25c-0.33-0.23-0.47-0.7-0.4-1.4
					c0.07-0.47,0.22-0.97,0.45-1.5c0.13-0.2,0.27-0.43,0.4-0.7c0.47-0.73,0.98-1.3,1.55-1.7
					C268.82,472.78,269.28,472.72,269.65,472.95z"/>
			</g>
			<g>
				
					<radialGradient id="SVGID_34_" cx="-406.1924" cy="2386.3701" r="5.2805" gradientTransform="matrix(-0.5232 0.8522 0.4001 0.258 -915.5417 226.6932)" gradientUnits="userSpaceOnUse">
					<stop  offset="0" style="stop-color:#FFFFFF"/>
					<stop  offset="0.2078" style="stop-color:#FFFFFF"/>
					<stop  offset="0.3608" style="stop-color:#FFFFFF;stop-opacity:0.3922"/>
					<stop  offset="0.5059" style="stop-color:#FFFFFF;stop-opacity:0.298"/>
					<stop  offset="0.7843" style="stop-color:#FFFFFF;stop-opacity:0.0667"/>
					<stop  offset="1" style="stop-color:#FEFEFE;stop-opacity:0"/>
				</radialGradient>
				<path fill="url(#SVGID_34_)" d="M254.55,491.75c0.6,0.37,0.83,1.13,0.7,2.3s-0.58,2.37-1.35,3.6c-0.23,0.4-0.47,0.77-0.7,1.1
					c-0.6,0.73-1.23,1.32-1.9,1.75c-0.93,0.63-1.72,0.75-2.35,0.35c-0.57-0.37-0.8-1.13-0.7-2.3c0.13-0.8,0.38-1.63,0.75-2.5
					c0.2-0.37,0.42-0.73,0.65-1.1c0.77-1.27,1.63-2.22,2.6-2.85C253.22,491.5,253.98,491.38,254.55,491.75z"/>
			</g>
			<g>
				
					<radialGradient id="SVGID_35_" cx="-909.9697" cy="-1074.2031" r="14.6064" gradientTransform="matrix(-0.0589 -0.9983 -0.0565 3.332103e-003 100.478 -448.2684)" gradientUnits="userSpaceOnUse">
					<stop  offset="0" style="stop-color:#FFFFFF"/>
					<stop  offset="0.2078" style="stop-color:#FFFFFF"/>
					<stop  offset="0.3608" style="stop-color:#FFFFFF;stop-opacity:0.3922"/>
					<stop  offset="0.5059" style="stop-color:#FFFFFF;stop-opacity:0.298"/>
					<stop  offset="0.7843" style="stop-color:#FFFFFF;stop-opacity:0.0667"/>
					<stop  offset="1" style="stop-color:#FEFEFE;stop-opacity:0"/>
				</radialGradient>
				<path fill="url(#SVGID_35_)" d="M215.65,471.3c-0.23,0.03-0.53-1.4-0.9-4.3c-0.3-2.87-0.57-6.33-0.8-10.4
					c-0.07-1.27-0.12-2.45-0.15-3.55c-0.13-2.57-0.2-4.85-0.2-6.85c0-2.9,0.12-4.35,0.35-4.35c0.23-0.07,0.5,1.35,0.8,4.25
					c0.23,2,0.45,4.27,0.65,6.8c0.07,1.13,0.13,2.33,0.2,3.6c0.23,4.07,0.35,7.55,0.35,10.45
					C215.95,469.82,215.85,471.27,215.65,471.3z"/>
			</g>
			<g>
				<path fill="#362B46" d="M216,373.45v-0.35c0.03-0.03,0.07-0.05,0.1-0.05h78.45c0.03,0,0.07,0.02,0.1,0.05v0.35
					c-0.03,0-0.07,0-0.1,0H216.1C216.07,373.45,216.03,373.45,216,373.45z"/>
				<path fill="#483E57" d="M216,373.45c0.03,0,0.07,0,0.1,0h78.45c0.03,0,0.07,0,0.1,0v0.5c-0.03,0.03-0.07,0.05-0.1,0.05H216.1
					c-0.03,0-0.07-0.02-0.1-0.05V373.45z"/>
				<path fill="#2D2439" d="M294.65,374.15v0.5c-0.03,0.03-0.07,0.05-0.1,0.05H216.1c-0.03,0-0.07-0.02-0.1-0.05v-0.5
					c0.03,0,0.07,0,0.1,0h78.45C294.58,374.15,294.62,374.15,294.65,374.15z"/>
			</g>
			<g>
				
					<linearGradient id="SVGID_36_" gradientUnits="userSpaceOnUse" x1="-456.5498" y1="294.7754" x2="-377.5498" y2="294.7754" gradientTransform="matrix(1 0 0 -1 670 740)">
					<stop  offset="0" style="stop-color:#382D47;stop-opacity:0"/>
					<stop  offset="0.1098" style="stop-color:#382D47;stop-opacity:0"/>
					<stop  offset="0.1961" style="stop-color:#655382"/>
					<stop  offset="0.6" style="stop-color:#756196"/>
					<stop  offset="0.8314" style="stop-color:#6F5C8E"/>
					<stop  offset="0.9255" style="stop-color:#746095"/>
					<stop  offset="1" style="stop-color:#725E92;stop-opacity:0"/>
				</linearGradient>
				<path fill="url(#SVGID_36_)" d="M219.7,449.3c0-0.07,0.03-0.13,0.1-0.2c0.07-0.03,0.13-0.05,0.2-0.05h68.3c0.07,0,0.15,0,0.25,0
					c1.73,0.03,2.78-1.08,3.15-3.35l0.2-4.55c0-0.1,0.03-0.17,0.1-0.2c0.03-0.07,0.1-0.1,0.2-0.1c0.07,0,0.13,0.03,0.2,0.1
					c0.03,0.03,0.05,0.1,0.05,0.2l-0.2,4.7c-0.47,2.53-1.7,3.78-3.7,3.75c-0.03,0-0.07,0-0.1,0c-0.03-0.03-0.08-0.05-0.15-0.05H220
					c-0.07,0-0.13-0.02-0.2-0.05C219.73,449.43,219.7,449.37,219.7,449.3z"/>
			</g>
			<g>
				
					<radialGradient id="SVGID_37_" cx="-456.3496" cy="264" r="93.6875" gradientTransform="matrix(1 0 0 -1 670 740)" gradientUnits="userSpaceOnUse">
					<stop  offset="0" style="stop-color:#E3E4F0;stop-opacity:0.7059"/>
					<stop  offset="0" style="stop-color:#E2E3EF;stop-opacity:0.4902"/>
					<stop  offset="1" style="stop-color:#9B9FBF;stop-opacity:0"/>
				</radialGradient>
				<path fill="url(#SVGID_37_)" d="M214.4,391.15c0.07,0.07,0.1,0.13,0.1,0.2c-0.2,10.1-0.23,20.18-0.1,30.25
					c0,3.37,0.05,6.73,0.15,10.1c0.03,1.33,0.07,2.68,0.1,4.05c0.23,10.5,0.63,21,1.2,31.5c0.2,4.33,0.45,8.67,0.75,13
					c1,15.13,2.3,30.27,3.9,45.4c0,0.07-0.02,0.13-0.05,0.2c-0.07,0.03-0.13,0.05-0.2,0.05c-0.07,0.03-0.13,0.02-0.2-0.05
					c-0.07-0.03-0.1-0.08-0.1-0.15c-1.6-15.13-2.9-30.28-3.9-45.45c-0.27-4.33-0.52-8.67-0.75-13c-0.57-10.5-0.97-21-1.2-31.5
					c-0.03-1.37-0.07-2.72-0.1-4.05c-0.07-3.37-0.12-6.73-0.15-10.1c-0.13-10.07-0.1-20.15,0.1-30.25c0-0.07,0.02-0.13,0.05-0.2
					c0.07-0.03,0.13-0.05,0.2-0.05C214.27,391.1,214.33,391.12,214.4,391.15z"/>
			</g>
			<g>
				
					<radialGradient id="SVGID_38_" cx="-418.2222" cy="2502.5664" r="2.5525" gradientTransform="matrix(-0.5238 0.8518 0.3133 0.2007 -781.1271 313.5613)" gradientUnits="userSpaceOnUse">
					<stop  offset="0" style="stop-color:#FFFFFF"/>
					<stop  offset="0.2078" style="stop-color:#FFFFFF"/>
					<stop  offset="0.3608" style="stop-color:#FFFFFF;stop-opacity:0.3922"/>
					<stop  offset="0.5059" style="stop-color:#FFFFFF;stop-opacity:0.298"/>
					<stop  offset="0.7843" style="stop-color:#FFFFFF;stop-opacity:0.0667"/>
					<stop  offset="1" style="stop-color:#FEFEFE;stop-opacity:0"/>
				</radialGradient>
				<path fill="url(#SVGID_38_)" d="M220.45,460.8c0.1-0.37,0.23-0.75,0.4-1.15c0.1-0.2,0.22-0.38,0.35-0.55
					c0.37-0.6,0.77-1.07,1.2-1.4c0.4-0.33,0.72-0.43,0.95-0.3c0.23,0.13,0.3,0.48,0.2,1.05c-0.13,0.53-0.38,1.08-0.75,1.65
					c-0.13,0.2-0.25,0.38-0.35,0.55c-0.27,0.37-0.55,0.65-0.85,0.85c-0.43,0.37-0.75,0.47-0.95,0.3
					C220.42,461.67,220.35,461.33,220.45,460.8z"/>
			</g>
			
				<radialGradient id="SVGID_39_" cx="-396.4634" cy="299.8086" r="9.6933" gradientTransform="matrix(0.271 -0.0525 -0.3315 -1.7104 425.8202 1031.8859)" gradientUnits="userSpaceOnUse">
				<stop  offset="0" style="stop-color:#FFFFFF;stop-opacity:0.498"/>
				<stop  offset="0.1216" style="stop-color:#FFFFFF;stop-opacity:0.451"/>
				<stop  offset="0.2824" style="stop-color:#FFFFFF;stop-opacity:0.251"/>
				<stop  offset="0.5059" style="stop-color:#FFFFFF;stop-opacity:0.1412"/>
				<stop  offset="0.7176" style="stop-color:#FFFFFF;stop-opacity:0.0667"/>
				<stop  offset="1" style="stop-color:#FEFEFE;stop-opacity:0"/>
			</radialGradient>
			<path fill="url(#SVGID_39_)" d="M223.07,551.18c0.11,3.29-0.19,5.01-0.91,5.15c-0.72,0.14-1.65-1.34-2.77-4.43
				c-1.12-3.09-2.13-6.92-3.01-11.48c-0.88-4.56-1.38-8.49-1.5-11.78c-0.11-3.29,0.19-5.01,0.92-5.15c0.72-0.14,1.65,1.34,2.77,4.43
				c1.12,3.09,2.13,6.92,3.01,11.48C222.46,543.96,222.96,547.89,223.07,551.18z"/>
			
				<radialGradient id="SVGID_40_" cx="-229.418" cy="373.5908" r="9.697" gradientTransform="matrix(0.2756 -0.0159 -0.1543 -2.6769 328.8599 1428.9929)" gradientUnits="userSpaceOnUse">
				<stop  offset="0" style="stop-color:#FFFFFF;stop-opacity:0.6902"/>
				<stop  offset="0.2039" style="stop-color:#FFFFFF;stop-opacity:0.5882"/>
				<stop  offset="0.3804" style="stop-color:#FFFFFF;stop-opacity:0.251"/>
				<stop  offset="0.5059" style="stop-color:#FFFFFF;stop-opacity:0.1373"/>
				<stop  offset="0.7176" style="stop-color:#FFFFFF;stop-opacity:0.0667"/>
				<stop  offset="1" style="stop-color:#FEFEFE;stop-opacity:0"/>
			</radialGradient>
			<path fill="url(#SVGID_40_)" d="M210.9,450.68c-0.23,5.03-0.71,7.56-1.44,7.6s-1.5-2.42-2.31-7.39
				c-0.8-4.97-1.41-11.02-1.82-18.16c-0.41-7.14-0.5-13.22-0.28-18.25c0.23-5.03,0.71-7.56,1.44-7.61c0.74-0.04,1.5,2.42,2.31,7.39
				c0.8,4.97,1.41,11.02,1.82,18.16C211.04,439.57,211.13,445.66,210.9,450.68z"/>
			
				<radialGradient id="SVGID_41_" cx="865.4766" cy="481.4629" r="9.7" gradientTransform="matrix(0.0872 0.228 0.5566 -0.2128 -134.096 272.5681)" gradientUnits="userSpaceOnUse">
				<stop  offset="0" style="stop-color:#FFFFFF;stop-opacity:0.6902"/>
				<stop  offset="0.2039" style="stop-color:#FFFFFF;stop-opacity:0.5882"/>
				<stop  offset="0.3804" style="stop-color:#FFFFFF;stop-opacity:0.251"/>
				<stop  offset="0.5059" style="stop-color:#FFFFFF;stop-opacity:0.1333"/>
				<stop  offset="0.7176" style="stop-color:#FFFFFF;stop-opacity:0.0667"/>
				<stop  offset="1" style="stop-color:#FEFEFE;stop-opacity:0"/>
			</radialGradient>
			<path fill="url(#SVGID_41_)" d="M206.16,370.45c-1.2-0.03-1.92-0.35-2.15-0.95c-0.23-0.61,0.09-1.32,0.96-2.15
				c0.88-0.82,2.06-1.52,3.54-2.08c1.48-0.56,2.83-0.84,4.03-0.81s1.92,0.35,2.15,0.96c0.23,0.61-0.09,1.32-0.97,2.15
				c-0.88,0.82-2.06,1.52-3.54,2.09S207.36,370.48,206.16,370.45z"/>
			
				<radialGradient id="SVGID_42_" cx="-9.6138" cy="377.5527" r="9.7136" gradientTransform="matrix(0.225 8.447194e-003 0.1006 -2.6794 258.8316 1414.5199)" gradientUnits="userSpaceOnUse">
				<stop  offset="0" style="stop-color:#FFFFFF;stop-opacity:0.8"/>
				<stop  offset="0.1843" style="stop-color:#FFFFFF;stop-opacity:0.6941"/>
				<stop  offset="0.3804" style="stop-color:#FFFFFF;stop-opacity:0.251"/>
				<stop  offset="0.5059" style="stop-color:#FFFFFF;stop-opacity:0.1333"/>
				<stop  offset="0.7176" style="stop-color:#FFFFFF;stop-opacity:0.0667"/>
				<stop  offset="1" style="stop-color:#FEFEFE;stop-opacity:0"/>
			</radialGradient>
			<path fill="url(#SVGID_42_)" d="M295.5,421.11c-0.61,4.98-1.21,7.47-1.81,7.44c-0.6-0.02-1.02-2.54-1.25-7.56
				c-0.23-5.02-0.21-11.1,0.05-18.24c0.27-7.15,0.71-13.21,1.31-18.2c0.61-4.99,1.21-7.47,1.81-7.45c0.6,0.02,1.02,2.54,1.25,7.56
				c0.23,5.02,0.21,11.1-0.05,18.24C296.55,410.05,296.11,416.12,295.5,421.11z"/>
			
				<radialGradient id="SVGID_43_" cx="278.2275" cy="420.6523" r="9.6996" gradientTransform="matrix(0.1588 9.998571e-003 0.2572 -4.0864 137.4954 2201.1548)" gradientUnits="userSpaceOnUse">
				<stop  offset="0" style="stop-color:#FFFFFF;stop-opacity:0.8"/>
				<stop  offset="0.1843" style="stop-color:#FFFFFF;stop-opacity:0.6941"/>
				<stop  offset="0.3804" style="stop-color:#FFFFFF;stop-opacity:0.251"/>
				<stop  offset="0.5059" style="stop-color:#FFFFFF;stop-opacity:0.1294"/>
				<stop  offset="0.7176" style="stop-color:#FFFFFF;stop-opacity:0.0667"/>
				<stop  offset="1" style="stop-color:#FEFEFE;stop-opacity:0"/>
			</radialGradient>
			<path fill="url(#SVGID_43_)" d="M289.18,512.84c-0.78,7.61-1.38,11.4-1.8,11.37s-0.54-3.87-0.36-11.51
				c0.18-7.64,0.62-16.92,1.3-27.81c0.69-10.9,1.42-20.15,2.19-27.76c0.78-7.61,1.38-11.4,1.8-11.38c0.42,0.03,0.54,3.86,0.36,11.51
				c-0.18,7.64-0.62,16.92-1.3,27.81C290.69,495.97,289.96,505.23,289.18,512.84z"/>
		</g>
		<g>
			<g>
				<path fill="#343157" d="M83.9,5.95c6.13-2,13.85,8.57,23.15,31.7c19.6,48.9,32.25,79.1,37.95,90.6
					c5.87,11.57,10.57,40.7,14.1,87.4c0,0.07,0,0.13,0,0.2c-0.2,58.9,2.73,98.9,8.8,120c2.77,9.53,6.08,14.9,9.95,16.1
					c3.87,0.67,8.55-2.68,14.05-10.05c13-17.53,22.58-27.5,28.75-29.9c4.33-1.77,7.33-0.78,9,2.95c1.37,2.67,1.7,7.33,1,14
					c-0.07,0.6-0.33,1.08-0.8,1.45c-0.47,0.37-1,0.53-1.6,0.5c-0.6-0.1-1.08-0.37-1.45-0.8c-0.4-0.47-0.57-1-0.5-1.6
					c0.57-5.57,0.37-9.47-0.6-11.7c-0.67-1.2-1.78-1.48-3.35-0.85c-5.67,2.43-14.63,11.92-26.9,28.45
					c-6.97,9.4-13.17,13.32-18.6,11.75c-5.4-1.07-9.78-7.43-13.15-19.1c-6.17-21.33-9.15-61.7-8.95-121.1
					c-3.47-45.83-8.02-74.45-13.65-85.85c-5.77-11.53-18.48-41.82-38.15-90.85c-8.1-20.2-14.07-29.92-17.9-29.15
					c-4,1.37-6.62,13.53-7.85,36.5c-0.03,0.57-0.27,1.05-0.7,1.45c-0.47,0.4-1,0.58-1.6,0.55s-1.1-0.27-1.5-0.7
					c-0.43-0.47-0.62-0.98-0.55-1.55C74.22,20.62,77.9,7.15,83.9,5.95z"/>
			</g>
			<g>
				
					<radialGradient id="SVGID_44_" cx="-589.2075" cy="728.2988" r="28.5125" gradientTransform="matrix(1 8.768074e-004 8.621990e-004 -0.9833 669.0801 722.8)" gradientUnits="userSpaceOnUse">
					<stop  offset="0" style="stop-color:#FFFFFF"/>
					<stop  offset="1" style="stop-color:#FDFDFD;stop-opacity:0"/>
				</radialGradient>
				<path fill="url(#SVGID_44_)" d="M89.25,10.05c-2.47-2.27-4.63-2.5-6.5-0.7c-3.83,3.8-6.33,16.17-7.5,37.1
					c0,0.1-0.02,0.17-0.05,0.2c-0.07,0.03-0.13,0.05-0.2,0.05c-0.1,0-0.17-0.02-0.2-0.05c-0.03-0.07-0.05-0.13-0.05-0.2
					C75.88,25.28,78.43,12.8,82.4,9c2.07-2.07,4.48-1.85,7.25,0.65c2.63,2.37,5.63,6.93,9,13.7c0.03,0.07,0.03,0.13,0,0.2
					c-0.03,0.07-0.07,0.12-0.1,0.15c-0.1,0.03-0.18,0.03-0.25,0c-0.07-0.03-0.12-0.07-0.15-0.1C94.85,16.93,91.88,12.42,89.25,10.05
					z"/>
				
					<radialGradient id="SVGID_45_" cx="-536.6465" cy="845.3633" r="23.5858" gradientTransform="matrix(1 7.949119e-004 2.737324e-003 -3.4436 667.4214 3042.4849)" gradientUnits="userSpaceOnUse">
					<stop  offset="0" style="stop-color:#FFFFFF"/>
					<stop  offset="1" style="stop-color:#FDFDFD;stop-opacity:0"/>
				</radialGradient>
				<path fill="url(#SVGID_45_)" d="M109.25,49.6c0.07-0.07,0.13-0.1,0.2-0.1c0.03-0.03,0.1-0.03,0.2,0
					c0.07,0.03,0.12,0.08,0.15,0.15c4,9.93,7.68,19.02,11.05,27.25c10.9,26.67,18.38,44.05,22.45,52.15
					c5.6,11.17,10.15,38.87,13.65,83.1c0,0.07-0.02,0.15-0.05,0.25c-0.07,0.03-0.13,0.05-0.2,0.05c-0.1,0-0.17-0.02-0.2-0.05
					c-0.07-0.07-0.1-0.13-0.1-0.2c-3.5-44.1-8.03-71.73-13.6-82.9c-4.07-8.13-11.55-25.53-22.45-52.2
					c-3.37-8.2-7.07-17.28-11.1-27.25C109.22,49.75,109.22,49.67,109.25,49.6z"/>
				
					<radialGradient id="SVGID_46_" cx="-474.5596" cy="535.3506" r="35.8751" fx="-466.9626" fy="535.3506" gradientTransform="matrix(1 8.710792e-004 1.314812e-003 -1.5094 669.0061 1125.5691)" gradientUnits="userSpaceOnUse">
					<stop  offset="0" style="stop-color:#FFFFFF"/>
					<stop  offset="1" style="stop-color:#FDFDFD;stop-opacity:0"/>
				</radialGradient>
				<path fill="url(#SVGID_46_)" d="M157.3,245.75c0.07,0.03,0.1,0.08,0.1,0.15c0.87,47.63,4.33,79.53,10.4,95.7
					c3,7.97,6.62,12.08,10.85,12.35c4.27,0.2,9.2-3.45,14.8-10.95c12.67-17.1,21.98-26.85,27.95-29.25c3.13-1.3,5.3-0.63,6.5,2
					c1.2,2.47,1.48,6.8,0.85,13c0,0.07-0.02,0.13-0.05,0.2c-0.07,0.03-0.15,0.05-0.25,0.05c-0.07,0-0.12-0.03-0.15-0.1
					c-0.07-0.07-0.1-0.13-0.1-0.2c0.63-6.07,0.37-10.32-0.8-12.75c-1.1-2.27-3.03-2.85-5.8-1.75c-5.87,2.43-15.1,12.13-27.7,29.1
					c-5.73,7.73-10.83,11.47-15.3,11.2c-4.43-0.23-8.2-4.47-11.3-12.7c-6.13-16.23-9.62-48.2-10.45-95.9c0-0.07,0.03-0.12,0.1-0.15
					c0.07-0.07,0.13-0.1,0.2-0.1S157.27,245.68,157.3,245.75z"/>
			</g>
		</g>
		<g>
			<g>
				<g>
					<polygon fill="#302844" points="217.05,364.35 217.2,363.7 241.5,363.65 241.85,364.35 					"/>
				</g>
				<g>
					
						<linearGradient id="SVGID_47_" gradientUnits="userSpaceOnUse" x1="-452.75" y1="396.2998" x2="-428.475" y2="396.2998" gradientTransform="matrix(1 0 0 -1 670 740)">
						<stop  offset="0" style="stop-color:#51518C"/>
						<stop  offset="0.2392" style="stop-color:#6363A5"/>
						<stop  offset="1" style="stop-color:#3D3E6D"/>
					</linearGradient>
					<path fill="url(#SVGID_47_)" d="M217.25,345.75v-0.7c0-0.23,0.02-0.33,0.05-0.3c-0.03-2.07,0.85-3.1,2.65-3.1h18.9
						c1.63,0,2.53,1.13,2.7,3.4v0.2c-0.13-1.43-1.03-2.15-2.7-2.15h-18.9C218.22,343.1,217.32,343.98,217.25,345.75z"/>
					
						<linearGradient id="SVGID_48_" gradientUnits="userSpaceOnUse" x1="-452.75" y1="386.3496" x2="-428.475" y2="386.3496" gradientTransform="matrix(1 0 0 -1 670 740)">
						<stop  offset="0" style="stop-color:#655FA5"/>
						<stop  offset="7.843138e-003" style="stop-color:#FFFFFF"/>
						<stop  offset="0.0784" style="stop-color:#7575B1"/>
						<stop  offset="0.1294" style="stop-color:#655FA5"/>
						<stop  offset="0.9098" style="stop-color:#6561AB"/>
						<stop  offset="0.9294" style="stop-color:#5D589B"/>
						<stop  offset="1" style="stop-color:#514C8C"/>
					</linearGradient>
					<path fill="url(#SVGID_48_)" d="M217.25,345.75c0.07-1.77,0.97-2.65,2.7-2.65h18.9c1.67,0,2.57,0.72,2.7,2.15v18.95h-24.3
						V345.75z"/>
				</g>
				<path fill="#22233C" d="M223.16,341.86c0-0.17,0.56-0.34,1.67-0.51c1.14-0.08,2.51-0.13,4.1-0.13c1.59,0,2.95,0.04,4.07,0.13
					c1.14,0.17,1.71,0.34,1.71,0.51c0,0.17-0.57,0.3-1.71,0.38c-1.11,0.17-2.47,0.26-4.07,0.26s-2.96-0.08-4.1-0.26
					C223.72,342.16,223.16,342.03,223.16,341.86z"/>
				<g>
					
						<linearGradient id="SVGID_49_" gradientUnits="userSpaceOnUse" x1="-446.5371" y1="401.4004" x2="-435.3621" y2="401.4004" gradientTransform="matrix(1 0 0 -1 670 740)">
						<stop  offset="0" style="stop-color:#717497"/>
						<stop  offset="0.1098" style="stop-color:#C5C7FA"/>
						<stop  offset="0.2235" style="stop-color:#7374AD"/>
						<stop  offset="0.7216" style="stop-color:#565495"/>
						<stop  offset="0.8471" style="stop-color:#656BA3"/>
						<stop  offset="0.9098" style="stop-color:#6463A2"/>
						<stop  offset="1" style="stop-color:#4D4D80"/>
					</linearGradient>
					<path fill="url(#SVGID_49_)" d="M223.45,334.5c0,0.13,0.55,0.27,1.65,0.4c1.1,0.1,2.42,0.15,3.95,0.15
						c1.53,0,2.85-0.05,3.95-0.15c0.97-0.1,1.5-0.22,1.6-0.35v7.65c0,0.13-0.53,0.25-1.6,0.35c-1.1,0.1-2.42,0.15-3.95,0.15
						c-1.53,0-2.85-0.05-3.95-0.15c-1.1-0.1-1.65-0.22-1.65-0.35V334.5z"/>
					<path fill="#5C599E" d="M234.6,334.55c-0.1,0.13-0.63,0.25-1.6,0.35c-1.1,0.1-2.42,0.15-3.95,0.15c-1.53,0-2.85-0.05-3.95-0.15
						c-1.1-0.13-1.65-0.27-1.65-0.4s0.55-0.25,1.65-0.35c1.1-0.13,2.42-0.2,3.95-0.2c1.53,0,2.85,0.07,3.95,0.2
						c1.07,0.1,1.6,0.22,1.6,0.35V334.55z"/>
				</g>
				<path fill="#22233C" d="M225.27,334.52c0-0.12,0.35-0.24,1.05-0.36c0.71-0.06,1.57-0.09,2.57-0.09s1.85,0.03,2.55,0.09
					c0.71,0.12,1.07,0.24,1.07,0.36c0,0.12-0.36,0.21-1.07,0.27c-0.7,0.12-1.55,0.18-2.55,0.18s-1.86-0.06-2.57-0.18
					C225.62,334.73,225.27,334.64,225.27,334.52z"/>
				<g>
					
						<linearGradient id="SVGID_50_" gradientUnits="userSpaceOnUse" x1="-444.4873" y1="407.6758" x2="-437.7123" y2="407.6758" gradientTransform="matrix(1 0 0 -1 670 740)">
						<stop  offset="0" style="stop-color:#BDB9D0"/>
						<stop  offset="0.3843" style="stop-color:#A09EAC"/>
						<stop  offset="0.6196" style="stop-color:#B9B7C2"/>
						<stop  offset="0.7373" style="stop-color:#FFFFFF"/>
						<stop  offset="0.8471" style="stop-color:#D6D6D9"/>
						<stop  offset="1" style="stop-color:#686770"/>
					</linearGradient>
					<path fill="url(#SVGID_50_)" d="M225.5,329.85c0,0.07,0.33,0.13,1,0.2c0.67,0.07,1.47,0.1,2.4,0.1s1.73-0.03,2.4-0.1
						c0.6-0.03,0.93-0.1,1-0.2v4.65c0,0.1-0.33,0.17-1,0.2c-0.67,0.07-1.47,0.1-2.4,0.1s-1.73-0.03-2.4-0.1c-0.67-0.03-1-0.1-1-0.2
						V329.85z"/>
					<path fill="#8C8C93" d="M232.3,329.85c-0.07,0.1-0.4,0.17-1,0.2c-0.67,0.07-1.47,0.1-2.4,0.1c-0.93,0-1.73-0.03-2.4-0.1
						c-0.67-0.07-1-0.13-1-0.2c0-0.1,0.33-0.18,1-0.25c0.67-0.07,1.47-0.1,2.4-0.1c0.93,0,1.73,0.03,2.4,0.1
						C231.97,329.67,232.3,329.75,232.3,329.85z"/>
				</g>
				<g>
					
						<path fill="none" stroke="#928EBF" stroke-width="0.5" stroke-linecap="round" stroke-linejoin="round" stroke-miterlimit="3" d="
						M222.8,347.65v3.65c0,1.77,0.9,2.65,2.7,2.65h9.65c1.8,0,2.7-0.88,2.7-2.65v-3.65c0-1.8-0.9-2.7-2.7-2.7h-9.65
						C223.7,344.95,222.8,345.85,222.8,347.65z"/>
				</g>
				<g>
					
						<linearGradient id="SVGID_51_" gradientUnits="userSpaceOnUse" x1="-439.3765" y1="398.0625" x2="-440.3188" y2="383.0379" gradientTransform="matrix(1 0 0 -1 670 740)">
						<stop  offset="0" style="stop-color:#434978"/>
						<stop  offset="1" style="stop-color:#6560A9"/>
					</linearGradient>
					<path fill="url(#SVGID_51_)" d="M222.9,347.65v3.65c0,1.6,0.82,2.4,2.45,2.4H235c1.6,0,2.4-0.8,2.4-2.4v-3.65
						c0-1.63-0.8-2.45-2.4-2.45h-9.65C223.72,345.2,222.9,346.02,222.9,347.65z M222.35,347.65c0-1.97,1-2.95,3-2.95H235
						c1.97,0,2.95,0.98,2.95,2.95v3.65c0,1.97-0.98,2.95-2.95,2.95h-9.65c-2,0-3-0.98-3-2.95V347.65z"/>
					<path fill="#575293" d="M222.9,347.65c0-1.63,0.82-2.45,2.45-2.45H235c1.6,0,2.4,0.82,2.4,2.45v3.65c0,1.6-0.8,2.4-2.4,2.4
						h-9.65c-1.63,0-2.45-0.8-2.45-2.4V347.65L222.9,347.65z"/>
				</g>
			</g>
		</g>
		<g>
			<g>
				
					<linearGradient id="SVGID_52_" gradientUnits="userSpaceOnUse" x1="-595.0127" y1="481.6504" x2="-593.1877" y2="481.6504" gradientTransform="matrix(1 0 0 -1 670 740)">
					<stop  offset="0" style="stop-color:#666666"/>
					<stop  offset="0.1882" style="stop-color:#C2C2C2"/>
					<stop  offset="0.3059" style="stop-color:#DBDBDB"/>
					<stop  offset="0.3765" style="stop-color:#FFFFFF"/>
					<stop  offset="0.4863" style="stop-color:#CACACA"/>
					<stop  offset="1" style="stop-color:#000000"/>
				</linearGradient>
				<path fill="url(#SVGID_52_)" d="M76.5,165.15c0.17,0.33,0.25,0.73,0.25,1.2V350.4c0,0.47-0.08,0.87-0.25,1.2s-0.37,0.5-0.6,0.5
					s-0.43-0.17-0.6-0.5c-0.13-0.33-0.2-0.73-0.2-1.2V166.35c0-0.47,0.07-0.87,0.2-1.2c0.17-0.37,0.37-0.55,0.6-0.55
					S76.33,164.78,76.5,165.15z"/>
			</g>
			<g>
				
					<radialGradient id="SVGID_53_" cx="-594.1499" cy="173.3179" r="2.5753" fx="-594.0792" fy="173.3179" gradientTransform="matrix(1 0 0 -0.4806 670 290.0989)" gradientUnits="userSpaceOnUse">
					<stop  offset="0" style="stop-color:#060606;stop-opacity:0"/>
					<stop  offset="0.1333" style="stop-color:#020202;stop-opacity:0.251"/>
					<stop  offset="0.2667" style="stop-color:#010101;stop-opacity:0.3608"/>
					<stop  offset="0.4627" style="stop-color:#000000;stop-opacity:0.4627"/>
					<stop  offset="0.6745" style="stop-color:#000000;stop-opacity:0"/>
					<stop  offset="1" style="stop-color:#000000;stop-opacity:0"/>
				</radialGradient>
				<path fill="url(#SVGID_53_)" d="M75.9,162.45c0.23,0,0.43,0.15,0.6,0.45c0.17,0.3,0.25,0.65,0.25,1.05v46.65
					c-0.57,0.5-1.12,0.5-1.65,0v-46.65c0-0.4,0.07-0.75,0.2-1.05C75.47,162.6,75.67,162.45,75.9,162.45z"/>
			</g>
			<g>
				<path fill="#B2ABAA" d="M66.2,180.25c-0.23-0.1-0.37-0.22-0.4-0.35v-0.05c0.03-0.13,0.17-0.27,0.4-0.4
					c0.47-0.17,1.28-0.33,2.45-0.5c1.87-0.27,4.13-0.4,6.8-0.4c2.63,0,4.9,0.13,6.8,0.4c1.83,0.23,2.77,0.53,2.8,0.9
					c-0.01,0.37-0.94,0.67-2.8,0.9c-1.9,0.27-4.17,0.4-6.8,0.4c-2.67,0-4.93-0.13-6.8-0.4C67.48,180.58,66.67,180.42,66.2,180.25z"
					/>
				
					<linearGradient id="SVGID_54_" gradientUnits="userSpaceOnUse" x1="-604.1626" y1="555.2002" x2="-584.9376" y2="555.2002" gradientTransform="matrix(1 0 0 -1 670 740)">
					<stop  offset="0" style="stop-color:#ACA3A6"/>
					<stop  offset="0.1412" style="stop-color:#564D52"/>
					<stop  offset="0.1804" style="stop-color:#62555F"/>
					<stop  offset="0.3294" style="stop-color:#A69D9E"/>
					<stop  offset="0.4431" style="stop-color:#FDFCFA"/>
					<stop  offset="0.5882" style="stop-color:#D4CCCA"/>
					<stop  offset="0.8824" style="stop-color:#989291"/>
					<stop  offset="1" style="stop-color:#5E5B5A"/>
				</linearGradient>
				<path fill="url(#SVGID_54_)" d="M85.05,179.85v8.6c0,0.07-0.03,0.13-0.1,0.2c-0.3,0.27-1.2,0.5-2.7,0.7
					c-0.9,0.13-1.97,0.23-3.2,0.3c-0.47,0.03-1.13,0.07-2,0.1c-0.87,0-1.4,0-1.6,0c-0.3,0-0.62,0-0.95,0
					c-0.73-0.03-1.43-0.05-2.1-0.05c-0.13-0.03-0.28-0.05-0.45-0.05c-0.77-0.03-1.48-0.08-2.15-0.15c-0.4-0.03-0.78-0.08-1.15-0.15
					c-0.13,0-0.25-0.02-0.35-0.05c-0.97-0.13-1.67-0.28-2.1-0.45c-0.13-0.07-0.23-0.13-0.3-0.2c-0.07-0.07-0.1-0.13-0.1-0.2v-8.2
					h0.4c0.47,0.17,1.28,0.33,2.45,0.5c1.87,0.27,4.13,0.4,6.8,0.4c2.63,0,4.9-0.13,6.8-0.4C84.11,180.52,85.04,180.22,85.05,179.85
					z"/>
				
					<linearGradient id="SVGID_55_" gradientUnits="userSpaceOnUse" x1="-599.897" y1="541.7939" x2="-590.5718" y2="544.7906" gradientTransform="matrix(1 0 0 -1 670 740)">
					<stop  offset="0" style="stop-color:#4F4756"/>
					<stop  offset="0.1569" style="stop-color:#635B68"/>
					<stop  offset="0.2392" style="stop-color:#6A636E"/>
					<stop  offset="0.3451" style="stop-color:#DBD8D7"/>
					<stop  offset="0.5843" style="stop-color:#988D89"/>
					<stop  offset="0.6118" style="stop-color:#BDB4B5"/>
					<stop  offset="1" style="stop-color:#BDB4B5"/>
				</linearGradient>
				<path fill="url(#SVGID_55_)" d="M72.4,189.7l3.2,17.35c-0.27-0.03-0.43-0.1-0.5-0.2l-0.05-0.1l-8.95-17.8l0.1-0.1
					c0.43,0.17,1.13,0.32,2.1,0.45c0.1,0.03,0.22,0.05,0.35,0.05c0.37,0.07,0.75,0.12,1.15,0.15c0.67,0.07,1.38,0.12,2.15,0.15
					C72.12,189.65,72.27,189.67,72.4,189.7z"/>
				
					<linearGradient id="SVGID_56_" gradientUnits="userSpaceOnUse" x1="-602.96" y1="551.6807" x2="-593.8334" y2="555.9022" gradientTransform="matrix(1 0 0 -1 670 740)">
					<stop  offset="0" style="stop-color:#4F4756"/>
					<stop  offset="0.1333" style="stop-color:#4F4756"/>
					<stop  offset="0.1569" style="stop-color:#635B68"/>
					<stop  offset="0.2078" style="stop-color:#635B68"/>
					<stop  offset="0.2275" style="stop-color:#6A636E"/>
					<stop  offset="0.2667" style="stop-color:#FAF8F6"/>
					<stop  offset="0.3294" style="stop-color:#FAF8F6"/>
					<stop  offset="0.3647" style="stop-color:#988D89"/>
					<stop  offset="0.5843" style="stop-color:#988D89"/>
					<stop  offset="0.6118" style="stop-color:#BDB4B5"/>
					<stop  offset="1" style="stop-color:#BDB4B5"/>
				</linearGradient>
				<path fill="url(#SVGID_56_)" d="M66.2,188.85l-0.1,0.1l-0.2-0.3C65.97,188.72,66.07,188.78,66.2,188.85z"/>
				
					<linearGradient id="SVGID_57_" gradientUnits="userSpaceOnUse" x1="-597.1123" y1="541.6504" x2="-586.5873" y2="541.6504" gradientTransform="matrix(1 0 0 -1 670 740)">
					<stop  offset="0" style="stop-color:#988D89"/>
					<stop  offset="0.1765" style="stop-color:#FAF8F6"/>
					<stop  offset="0.2078" style="stop-color:#FAF8F6"/>
					<stop  offset="0.3647" style="stop-color:#988D89"/>
					<stop  offset="0.5569" style="stop-color:#2E2827"/>
					<stop  offset="0.6118" style="stop-color:#BDB4B5"/>
					<stop  offset="1" style="stop-color:#BDB4B5"/>
				</linearGradient>
				<path fill="url(#SVGID_57_)" d="M79.05,189.65c-0.33,1.47-0.8,3.88-1.4,7.25c-0.63,3.67-1.07,6.08-1.3,7.25
					c-0.27,1.33-0.42,2.3-0.45,2.9h-0.3l-3.2-17.35c0.67,0,1.37,0.02,2.1,0.05c0.33,0,0.65,0,0.95,0c0.2,0,0.73,0,1.6,0
					C77.92,189.72,78.58,189.68,79.05,189.65z"/>
				
					<linearGradient id="SVGID_58_" gradientUnits="userSpaceOnUse" x1="-592.6001" y1="543.0156" x2="-587.3506" y2="541.5138" gradientTransform="matrix(1 0 0 -1 670 740)">
					<stop  offset="0" style="stop-color:#988D89"/>
					<stop  offset="0.1961" style="stop-color:#E6E6E6"/>
					<stop  offset="0.3333" style="stop-color:#BEBBBB"/>
					<stop  offset="1" style="stop-color:#9B9797"/>
				</linearGradient>
				<path fill="url(#SVGID_58_)" d="M75.9,207.05c0.03-0.6,0.18-1.57,0.45-2.9c0.23-1.17,0.67-3.58,1.3-7.25
					c0.6-3.37,1.07-5.78,1.4-7.25c1.23-0.07,2.3-0.17,3.2-0.3c1.5-0.2,2.4-0.43,2.7-0.7l-1,1.75l-7.1,16.35H76.8
					C76.57,206.95,76.27,207.05,75.9,207.05z"/>
			</g>
			<g>
				
					<linearGradient id="SVGID_59_" gradientUnits="userSpaceOnUse" x1="-604.1626" y1="611.4492" x2="-584.9376" y2="611.4492" gradientTransform="matrix(1 0 0 -1 670 740)">
					<stop  offset="0" style="stop-color:#000000"/>
					<stop  offset="0.2118" style="stop-color:#010102"/>
					<stop  offset="0.3333" style="stop-color:#363636"/>
					<stop  offset="0.5059" style="stop-color:#5E5E5E"/>
					<stop  offset="0.6353" style="stop-color:#353536"/>
					<stop  offset="0.7608" style="stop-color:#010103"/>
					<stop  offset="1" style="stop-color:#030306"/>
				</linearGradient>
				<path fill="url(#SVGID_59_)" d="M66.2,74.55c0.47,0.17,1.28,0.33,2.45,0.5c1.87,0.23,4.13,0.35,6.8,0.35
					c2.63,0,4.9-0.12,6.8-0.35c1.86-0.27,2.79-0.57,2.8-0.9V181.7c0,0.33-0.93,0.63-2.8,0.9c-1.9,0.23-4.17,0.35-6.8,0.35
					c-2.67,0-4.93-0.12-6.8-0.35c-1.17-0.17-1.98-0.33-2.45-0.5c-0.27-0.13-0.4-0.27-0.4-0.4V74.55H66.2z"/>
				<path fill="#848484" d="M85.05,74.15c-0.01,0.33-0.94,0.63-2.8,0.9c-1.9,0.23-4.17,0.35-6.8,0.35c-2.67,0-4.93-0.12-6.8-0.35
					c-1.17-0.17-1.98-0.33-2.45-0.5c-0.27-0.13-0.4-0.27-0.4-0.4c0.03-0.17,0.17-0.3,0.4-0.4c0.47-0.2,1.28-0.38,2.45-0.55
					c1.87-0.23,4.13-0.35,6.8-0.35c2.63,0,4.9,0.12,6.8,0.35C84.08,73.47,85.02,73.78,85.05,74.15z"/>
			</g>
			<g>
				<path fill="#282829" d="M87.05,176.7c-0.13,0.27-0.8,0.5-2,0.7c-0.4,0.07-0.85,0.13-1.35,0.2c-0.47,0.07-0.95,0.12-1.45,0.15
					c-1.93,0.17-4.15,0.25-6.65,0.25s-4.72-0.08-6.65-0.25c-0.53-0.03-1.03-0.08-1.5-0.15c-0.67-0.1-1.23-0.18-1.7-0.25
					c-1.09-0.23-1.64-0.48-1.65-0.75v-0.05c0-0.17,0.23-0.33,0.7-0.5c0.23-0.07,0.58-0.15,1.05-0.25v0.55
					c0.4,0.07,0.93,0.13,1.6,0.2c0.47,0.07,0.97,0.13,1.5,0.2c1.93,0.17,4.15,0.25,6.65,0.25s4.72-0.08,6.65-0.25
					c0.5-0.07,0.98-0.13,1.45-0.2c0.5-0.07,0.95-0.12,1.35-0.15v-0.65c0.57,0.1,1.02,0.2,1.35,0.3c0.37,0.13,0.58,0.27,0.65,0.4
					V176.7z"/>
				
					<linearGradient id="SVGID_60_" gradientUnits="userSpaceOnUse" x1="-605.8999" y1="561.5" x2="-582.8999" y2="561.5" gradientTransform="matrix(1 0 0 -1 670 740)">
					<stop  offset="0" style="stop-color:#090909"/>
					<stop  offset="0.4078" style="stop-color:#060606"/>
					<stop  offset="0.5333" style="stop-color:#8C8C8C"/>
					<stop  offset="0.6588" style="stop-color:#030303"/>
					<stop  offset="0.7569" style="stop-color:#3C3C3C"/>
					<stop  offset="1" style="stop-color:#000000"/>
				</linearGradient>
				<path fill="url(#SVGID_60_)" d="M64.1,176.6c0.01,0.27,0.56,0.52,1.65,0.75c0.47,0.07,1.03,0.15,1.7,0.25
					c0.47,0.07,0.97,0.12,1.5,0.15c1.93,0.17,4.15,0.25,6.65,0.25s4.72-0.08,6.65-0.25c0.5-0.03,0.98-0.08,1.45-0.15
					c0.5-0.07,0.95-0.13,1.35-0.2c1.2-0.2,1.87-0.43,2-0.7v2.15L87.1,179c-0.1,0.27-0.78,0.52-2.05,0.75
					c-0.4,0.07-0.85,0.13-1.35,0.2c-2.23,0.3-4.93,0.45-8.1,0.45s-5.88-0.15-8.15-0.45c-0.67-0.1-1.23-0.18-1.7-0.25
					c-1.1-0.23-1.65-0.48-1.65-0.75V176.6z"/>
			</g>
			<g>
				<path fill="#282829" d="M87.05,171c-0.13,0.27-0.8,0.5-2,0.7c-0.4,0.07-0.85,0.13-1.35,0.2c-0.47,0.07-0.95,0.12-1.45,0.15
					c-1.93,0.2-4.15,0.3-6.65,0.3s-4.72-0.1-6.65-0.3c-0.53-0.03-1.03-0.08-1.5-0.15c-0.67-0.1-1.23-0.18-1.7-0.25
					c-1.09-0.23-1.64-0.48-1.65-0.75c0-0.2,0.23-0.38,0.7-0.55c0.23-0.07,0.58-0.13,1.05-0.2v0.5c0.4,0.07,0.93,0.15,1.6,0.25
					c0.47,0.03,0.97,0.08,1.5,0.15c1.93,0.17,4.15,0.25,6.65,0.25s4.72-0.08,6.65-0.25c0.5-0.07,0.98-0.12,1.45-0.15
					c0.5-0.1,0.95-0.17,1.35-0.2v-0.65c0.57,0.1,1.02,0.2,1.35,0.3c0.37,0.13,0.58,0.27,0.65,0.4V171z"/>
				
					<linearGradient id="SVGID_61_" gradientUnits="userSpaceOnUse" x1="-605.8999" y1="567.1992" x2="-582.8999" y2="567.1992" gradientTransform="matrix(1 0 0 -1 670 740)">
					<stop  offset="0" style="stop-color:#090909"/>
					<stop  offset="0.4078" style="stop-color:#060606"/>
					<stop  offset="0.5333" style="stop-color:#8C8C8C"/>
					<stop  offset="0.6588" style="stop-color:#030303"/>
					<stop  offset="0.7569" style="stop-color:#3C3C3C"/>
					<stop  offset="1" style="stop-color:#000000"/>
				</linearGradient>
				<path fill="url(#SVGID_61_)" d="M64.1,170.9c0.01,0.27,0.56,0.52,1.65,0.75c0.47,0.07,1.03,0.15,1.7,0.25
					c0.47,0.07,0.97,0.12,1.5,0.15c1.93,0.2,4.15,0.3,6.65,0.3s4.72-0.1,6.65-0.3c0.5-0.03,0.98-0.08,1.45-0.15
					c0.5-0.07,0.95-0.13,1.35-0.2c1.2-0.2,1.87-0.43,2-0.7v2.15l0.05,0.15c-0.1,0.3-0.78,0.57-2.05,0.8
					c-0.4,0.03-0.85,0.08-1.35,0.15c-2.23,0.3-4.93,0.45-8.1,0.45s-5.88-0.15-8.15-0.45c-0.67-0.07-1.23-0.15-1.7-0.25
					c-1.1-0.23-1.65-0.48-1.65-0.75V170.9z"/>
			</g>
			<g>
				<path fill="#282829" d="M87.05,165.3c-0.13,0.27-0.8,0.5-2,0.7c-0.4,0.07-0.85,0.13-1.35,0.2c-0.47,0.07-0.95,0.12-1.45,0.15
					c-1.93,0.2-4.15,0.3-6.65,0.3s-4.72-0.1-6.65-0.3c-0.53-0.03-1.03-0.08-1.5-0.15c-0.67-0.1-1.23-0.18-1.7-0.25
					c-1.09-0.23-1.64-0.48-1.65-0.75c0-0.2,0.23-0.37,0.7-0.5c0.23-0.1,0.58-0.18,1.05-0.25v0.5c0.4,0.07,0.93,0.15,1.6,0.25
					c0.47,0.03,0.97,0.08,1.5,0.15c1.93,0.17,4.15,0.25,6.65,0.25s4.72-0.08,6.65-0.25c0.5-0.07,0.98-0.12,1.45-0.15
					c0.5-0.07,0.95-0.13,1.35-0.2v-0.65c0.57,0.1,1.02,0.22,1.35,0.35c0.37,0.1,0.58,0.23,0.65,0.4V165.3z"/>
				
					<linearGradient id="SVGID_62_" gradientUnits="userSpaceOnUse" x1="-605.8999" y1="572.9004" x2="-582.8999" y2="572.9004" gradientTransform="matrix(1 0 0 -1 670 740)">
					<stop  offset="0" style="stop-color:#090909"/>
					<stop  offset="0.4078" style="stop-color:#060606"/>
					<stop  offset="0.5333" style="stop-color:#8C8C8C"/>
					<stop  offset="0.6588" style="stop-color:#030303"/>
					<stop  offset="0.7569" style="stop-color:#3C3C3C"/>
					<stop  offset="1" style="stop-color:#000000"/>
				</linearGradient>
				<path fill="url(#SVGID_62_)" d="M64.1,165.2c0.01,0.27,0.56,0.52,1.65,0.75c0.47,0.07,1.03,0.15,1.7,0.25
					c0.47,0.07,0.97,0.12,1.5,0.15c1.93,0.2,4.15,0.3,6.65,0.3s4.72-0.1,6.65-0.3c0.5-0.03,0.98-0.08,1.45-0.15
					c0.5-0.07,0.95-0.13,1.35-0.2c1.2-0.2,1.87-0.43,2-0.7v2.15l0.05,0.15c-0.1,0.3-0.78,0.57-2.05,0.8
					c-0.4,0.03-0.85,0.08-1.35,0.15c-2.23,0.3-4.93,0.45-8.1,0.45s-5.88-0.15-8.15-0.45c-0.67-0.07-1.23-0.15-1.7-0.25
					c-1.1-0.23-1.65-0.48-1.65-0.75V165.2z"/>
			</g>
			<g>
				<path fill="#282829" d="M87.05,159.6c-0.13,0.27-0.8,0.5-2,0.7c-0.4,0.07-0.85,0.13-1.35,0.2c-0.47,0.07-0.95,0.12-1.45,0.15
					c-1.93,0.2-4.15,0.3-6.65,0.3s-4.72-0.1-6.65-0.3c-0.53-0.03-1.03-0.08-1.5-0.15c-0.67-0.07-1.23-0.15-1.7-0.25
					c-1.09-0.23-1.64-0.48-1.65-0.75c0-0.2,0.23-0.37,0.7-0.5c0.23-0.1,0.58-0.18,1.05-0.25v0.5c0.4,0.07,0.93,0.15,1.6,0.25
					c0.47,0.03,0.97,0.08,1.5,0.15c1.93,0.17,4.15,0.25,6.65,0.25s4.72-0.08,6.65-0.25c0.5-0.07,0.98-0.12,1.45-0.15
					c0.5-0.07,0.95-0.13,1.35-0.2v-0.65c0.57,0.1,1.02,0.22,1.35,0.35c0.37,0.1,0.58,0.23,0.65,0.4V159.6z"/>
				
					<linearGradient id="SVGID_63_" gradientUnits="userSpaceOnUse" x1="-605.8999" y1="578.5996" x2="-582.8999" y2="578.5996" gradientTransform="matrix(1 0 0 -1 670 740)">
					<stop  offset="0" style="stop-color:#090909"/>
					<stop  offset="0.4078" style="stop-color:#060606"/>
					<stop  offset="0.5333" style="stop-color:#8C8C8C"/>
					<stop  offset="0.6588" style="stop-color:#030303"/>
					<stop  offset="0.7569" style="stop-color:#3C3C3C"/>
					<stop  offset="1" style="stop-color:#000000"/>
				</linearGradient>
				<path fill="url(#SVGID_63_)" d="M64.1,159.5c0.01,0.27,0.56,0.52,1.65,0.75c0.47,0.1,1.03,0.18,1.7,0.25
					c0.47,0.07,0.97,0.12,1.5,0.15c1.93,0.2,4.15,0.3,6.65,0.3s4.72-0.1,6.65-0.3c0.5-0.03,0.98-0.08,1.45-0.15
					c0.5-0.07,0.95-0.13,1.35-0.2c1.2-0.2,1.87-0.43,2-0.7v2.15l0.05,0.15c-0.1,0.3-0.78,0.57-2.05,0.8c-0.4,0.03-0.85,0.1-1.35,0.2
					c-2.23,0.27-4.93,0.4-8.1,0.4s-5.88-0.13-8.15-0.4c-0.67-0.1-1.23-0.2-1.7-0.3c-1.1-0.23-1.65-0.48-1.65-0.75V159.5z"/>
			</g>
			<g>
				
					<radialGradient id="SVGID_64_" cx="-595.5732" cy="-388.2163" r="10.1881" gradientTransform="matrix(1 -7.857566e-003 -2.063110e-003 -0.2626 671.8247 83.1338)" gradientUnits="userSpaceOnUse">
					<stop  offset="0" style="stop-color:#FFFFFF"/>
					<stop  offset="0.2078" style="stop-color:#FFFFFF"/>
					<stop  offset="0.3608" style="stop-color:#FFFFFF;stop-opacity:0.3922"/>
					<stop  offset="0.5059" style="stop-color:#FFFFFF;stop-opacity:0.298"/>
					<stop  offset="0.7843" style="stop-color:#FFFFFF;stop-opacity:0.0667"/>
					<stop  offset="1" style="stop-color:#FEFEFE;stop-opacity:0"/>
				</radialGradient>
				<path fill="url(#SVGID_64_)" d="M69.8,187.9c2.03-0.57,4.45-0.87,7.25-0.9c0.9,0,1.75,0.03,2.55,0.1
					c1.77,0.07,3.35,0.28,4.75,0.65c2.03,0.5,3.05,1.13,3.05,1.9c0,0.73-1,1.37-3,1.9c-1.4,0.37-3,0.63-4.8,0.8
					c-0.8,0.03-1.63,0.05-2.5,0.05c-2.83,0.03-5.27-0.2-7.3-0.7c-2-0.5-3-1.12-3-1.85C66.8,189.08,67.8,188.43,69.8,187.9z"/>
			</g>
			<g>
				<path d="M65.7,75.65v-9.7h0.1c0.03-0.13,0.17-0.25,0.4-0.35c0.47-0.2,1.28-0.38,2.45-0.55c1.87-0.23,4.13-0.35,6.8-0.35
					c2.63,0,4.9,0.12,6.8,0.35c1.37,0.2,2.23,0.42,2.6,0.65c0.07,0.07,0.12,0.12,0.15,0.15v9.95c-0.23,0.3-1.15,0.55-2.75,0.75
					c-1.9,0.27-4.17,0.4-6.8,0.4c-2.67,0-4.93-0.13-6.8-0.4c-1.17-0.17-1.98-0.33-2.45-0.5C65.93,75.92,65.77,75.78,65.7,75.65z"/>
			</g>
			<g>
				
					<linearGradient id="SVGID_65_" gradientUnits="userSpaceOnUse" x1="-604.2998" y1="669.4258" x2="-585.0248" y2="669.4258" gradientTransform="matrix(1 0 0 -1 670 740)">
					<stop  offset="0" style="stop-color:#69648D"/>
					<stop  offset="0.0863" style="stop-color:#433A6F"/>
					<stop  offset="0.149" style="stop-color:#3C3463"/>
					<stop  offset="0.2706" style="stop-color:#CFCDE4"/>
					<stop  offset="0.3451" style="stop-color:#332D54"/>
					<stop  offset="0.4392" style="stop-color:#2C2748"/>
					<stop  offset="0.502" style="stop-color:#282340"/>
					<stop  offset="0.698" style="stop-color:#FFFFFF"/>
					<stop  offset="0.8667" style="stop-color:#F2F0FF"/>
					<stop  offset="1" style="stop-color:#7F7B9E"/>
				</linearGradient>
				<path fill="url(#SVGID_65_)" d="M85,65.25v9.7c-0.23,0.27-1.15,0.52-2.75,0.75c-1.9,0.23-4.17,0.35-6.8,0.35
					c-2.67,0-4.93-0.12-6.8-0.35c-1.17-0.17-1.98-0.33-2.45-0.5c-0.27-0.13-0.43-0.27-0.5-0.4v-9.7h0.1v0.05
					c0,0.13,0.13,0.25,0.4,0.35c0.47,0.2,1.28,0.37,2.45,0.5c1.87,0.27,4.13,0.4,6.8,0.4c2.63,0,4.9-0.13,6.8-0.4
					C83.85,65.8,84.77,65.55,85,65.25z"/>
				<path fill="#ADABB6" d="M65.8,65.1c0.03-0.13,0.17-0.25,0.4-0.35c0.47-0.2,1.28-0.38,2.45-0.55c1.87-0.27,4.13-0.4,6.8-0.4
					c2.63,0,4.9,0.13,6.8,0.4c1.37,0.17,2.23,0.38,2.6,0.65c0.07,0.03,0.12,0.08,0.15,0.15v0.25c-0.23,0.3-1.15,0.55-2.75,0.75
					c-1.9,0.27-4.17,0.4-6.8,0.4c-2.67,0-4.93-0.13-6.8-0.4c-1.17-0.13-1.98-0.3-2.45-0.5c-0.27-0.1-0.4-0.22-0.4-0.35V65.1z"/>
			</g>
			<g>
				<path d="M65.7,65.25V65.2H85v0.25c-0.23,0.33-1.15,0.63-2.75,0.9c-1.9,0.33-4.17,0.5-6.8,0.5c-2.67,0-4.93-0.17-6.8-0.5
					c-1.17-0.2-1.98-0.4-2.45-0.6C65.93,65.58,65.77,65.42,65.7,65.25z"/>
			</g>
			<g>
				
					<linearGradient id="SVGID_66_" gradientUnits="userSpaceOnUse" x1="-604.2876" y1="687.625" x2="-585.0126" y2="687.625" gradientTransform="matrix(1 0 0 -1 670 740)">
					<stop  offset="0" style="stop-color:#050505"/>
					<stop  offset="0.2902" style="stop-color:#040404"/>
					<stop  offset="0.3804" style="stop-color:#BFBFBF"/>
					<stop  offset="0.4784" style="stop-color:#040404"/>
					<stop  offset="1" style="stop-color:#000000"/>
				</linearGradient>
				<path fill="url(#SVGID_66_)" d="M69.3,52.5v0.05h-0.05L69.3,52.5z M81.85,52.4c0-0.03-0.02-0.07-0.05-0.1v-0.05
					c0-0.03,0.02-0.05,0.05-0.05l0.05,0.2H81.85z"/>
				<path d="M72.35,53.35c-0.43-0.07-0.85-0.13-1.25-0.2c-1-0.17-1.6-0.37-1.8-0.6V52.5c-0.03-0.03-0.05-0.07-0.05-0.1
					c0-0.07,0.03-0.13,0.1-0.2c0.23-0.23,0.82-0.42,1.75-0.55c0.27-0.03,0.53-0.07,0.8-0.1h0.05c1.03-0.13,2.23-0.2,3.6-0.2h0.05
					c0.57,0,1.1,0.02,1.6,0.05c0.37,0,0.73,0.02,1.1,0.05c0.1,0,0.22,0.02,0.35,0.05c0.4,0.03,0.78,0.08,1.15,0.15
					c0.03,0,0.08,0,0.15,0c0.2,0.03,0.4,0.07,0.6,0.1c0.3,0.07,0.55,0.15,0.75,0.25c0.23,0.07,0.4,0.15,0.5,0.25v0.05
					c0.03,0.03,0.05,0.07,0.05,0.1v0.05c-0.03,0.07-0.08,0.13-0.15,0.2c-0.27,0.2-0.85,0.37-1.75,0.5L79.9,53.2
					c-0.37,0.03-0.77,0.08-1.2,0.15c-0.13,0-0.27,0.02-0.4,0.05c-0.37,0.03-0.73,0.05-1.1,0.05c-0.5,0.03-1.03,0.05-1.6,0.05h-0.05
					c-0.8,0-1.53-0.02-2.2-0.05C73.02,53.38,72.68,53.35,72.35,53.35z"/>
				
					<linearGradient id="SVGID_67_" gradientUnits="userSpaceOnUse" x1="-607.1533" y1="682.0117" x2="-590.1548" y2="678.3047" gradientTransform="matrix(1 0 0 -1 670 740)">
					<stop  offset="0" style="stop-color:#050505"/>
					<stop  offset="0.2235" style="stop-color:#040404"/>
					<stop  offset="0.3804" style="stop-color:#6F6F6F"/>
					<stop  offset="0.4784" style="stop-color:#040404"/>
					<stop  offset="1" style="stop-color:#000000"/>
				</linearGradient>
				<path fill="url(#SVGID_67_)" d="M69.3,52.55c0.2,0.23,0.8,0.43,1.8,0.6c0.4,0.07,0.82,0.13,1.25,0.2v13
					c-1.37-0.07-2.6-0.18-3.7-0.35c-1.17-0.13-1.98-0.3-2.45-0.5c-0.27-0.1-0.43-0.22-0.5-0.35l3.55-12.6H69.3z"/>
				
					<linearGradient id="SVGID_68_" gradientUnits="userSpaceOnUse" x1="-593.1274" y1="679.4053" x2="-584.0264" y2="681.7287" gradientTransform="matrix(1 0 0 -1 670 740)">
					<stop  offset="0" style="stop-color:#050505"/>
					<stop  offset="0.2235" style="stop-color:#040404"/>
					<stop  offset="0.5647" style="stop-color:#484848"/>
					<stop  offset="1" style="stop-color:#000000"/>
				</linearGradient>
				<path fill="url(#SVGID_68_)" d="M78.3,66.35V53.4c0.13-0.03,0.27-0.05,0.4-0.05c0.43-0.07,0.83-0.12,1.2-0.15l0.05-0.05
					c0.9-0.13,1.48-0.3,1.75-0.5c0.07-0.07,0.12-0.13,0.15-0.2V52.4h0.05L85,65.25c-0.23,0.3-1.15,0.55-2.75,0.75
					C81.08,66.17,79.77,66.28,78.3,66.35z"/>
				
					<linearGradient id="SVGID_69_" gradientUnits="userSpaceOnUse" x1="-597.6499" y1="680.125" x2="-591.7499" y2="680.125" gradientTransform="matrix(1 0 0 -1 670 740)">
					<stop  offset="0" style="stop-color:#050505"/>
					<stop  offset="0.2235" style="stop-color:#040404"/>
					<stop  offset="0.5647" style="stop-color:#2B2B2B"/>
					<stop  offset="1" style="stop-color:#000000"/>
				</linearGradient>
				<path fill="url(#SVGID_69_)" d="M72.35,66.35v-13c0.33,0,0.67,0.03,1,0.1c0.67,0.03,1.4,0.05,2.2,0.05h0.05
					c0.57,0,1.1-0.02,1.6-0.05c0.37,0,0.73-0.02,1.1-0.05v12.95c-0.37,0-0.73,0.02-1.1,0.05c-0.5,0-1.03,0-1.6,0
					c-0.07,0-0.12,0-0.15,0c-0.73,0-1.43-0.02-2.1-0.05C73.02,66.35,72.68,66.35,72.35,66.35z"/>
			</g>
			<g>
				
					<linearGradient id="SVGID_70_" gradientUnits="userSpaceOnUse" x1="-599.2764" y1="693.0205" x2="-594.3018" y2="692.3176" gradientTransform="matrix(1 0 0 -1 670 740)">
					<stop  offset="0" style="stop-color:#050505"/>
					<stop  offset="0.2235" style="stop-color:#040404"/>
					<stop  offset="0.5647" style="stop-color:#626262"/>
					<stop  offset="1" style="stop-color:#000000"/>
				</linearGradient>
				<path fill="url(#SVGID_70_)" d="M75.8,42l0.35,10.95h-0.5c-1.7,0-3.15-0.07-4.35-0.2c-1.2-0.13-1.8-0.32-1.8-0.55
					c0-0.07,0.05-0.12,0.15-0.15l3.3-10.3c0.07,0.07,0.27,0.12,0.6,0.15c0.37,0.07,0.9,0.1,1.6,0.1C75.38,42,75.6,42,75.8,42z"/>
				
					<linearGradient id="SVGID_71_" gradientUnits="userSpaceOnUse" x1="-596.7749" y1="698.3252" x2="-592.3247" y2="698.3252" gradientTransform="matrix(1 0 0 -1 670 740)">
					<stop  offset="0" style="stop-color:#050505"/>
					<stop  offset="0.2235" style="stop-color:#040404"/>
					<stop  offset="0.5647" style="stop-color:#2B2B2B"/>
					<stop  offset="1" style="stop-color:#000000"/>
				</linearGradient>
				<path fill="url(#SVGID_71_)" d="M77.3,41.75c-0.07,0.1-0.27,0.15-0.6,0.15c-0.23,0.07-0.53,0.1-0.9,0.1c-0.2,0-0.42,0-0.65,0
					c-0.7,0-1.23-0.03-1.6-0.1c-0.33-0.03-0.53-0.08-0.6-0.15L72.9,41.7c0-0.03,0.03-0.07,0.1-0.1c0.1-0.03,0.28-0.08,0.55-0.15
					c0.43-0.07,0.97-0.1,1.6-0.1c0.63,0,1.15,0.03,1.55,0.1c0.43,0.1,0.65,0.18,0.65,0.25L77.3,41.75z"/>
				<path d="M75.8,42c0.37,0,0.67-0.03,0.9-0.1c0.33,0,0.53-0.05,0.6-0.15l4.4,10.35c0.03,0.03,0.05,0.07,0.05,0.1
					c0,0.23-0.6,0.42-1.8,0.55c-1.07,0.13-2.33,0.2-3.8,0.2L75.8,42z"/>
			</g>
		</g>
	</g>
</g>
</svg>
