<?xml version="1.0" encoding="utf-8"?>
<!-- Generator: Adobe Illustrator 16.0.0, SVG Export Plug-In . SVG Version: 6.00 Build 0)  -->
<!DOCTYPE svg PUBLIC "-//W3C//DTD SVG 1.1//EN" "http://www.w3.org/Graphics/SVG/1.1/DTD/svg11.dtd">
<svg version="1.1" id="Layer_1" xmlns="http://www.w3.org/2000/svg" xmlns:xlink="http://www.w3.org/1999/xlink" x="0px" y="0px"
	 width="346.67px" height="552px" viewBox="0 0 346.67 552" enable-background="new 0 0 346.67 552" xml:space="preserve">
<g>
	<g>
		<g>
			<g>
				
					<linearGradient id="SVGID_1_" gradientUnits="userSpaceOnUse" x1="314.812" y1="-271.3506" x2="328.8876" y2="-271.3506" gradientTransform="matrix(-0.0105 0.9999 -0.9999 -0.0105 -77.4929 80.6829)">
					<stop  offset="0" style="stop-color:#000000;stop-opacity:0"/>
					<stop  offset="0.9882" style="stop-color:#000000;stop-opacity:0.4235"/>
				</linearGradient>
				<path fill-rule="evenodd" clip-rule="evenodd" fill="url(#SVGID_1_)" d="M170.53,391.45v-19.1h40.4v19.4
					c-0.8,6.9-3.88,11.98-9.25,15.25c-4.63,2.73-9.4,3.73-14.3,3c-5.7-0.9-10.22-4.08-13.55-9.55c-1.57-2.73-2.67-5.63-3.3-8.7
					h-0.25L170.53,391.45z"/>
			</g>
			<g>
				
					<linearGradient id="SVGID_2_" gradientUnits="userSpaceOnUse" x1="-369.1416" y1="-257.1167" x2="-322.1916" y2="-257.1167" gradientTransform="matrix(-1 0 0 -1 -157.333 3.999)">
					<stop  offset="0" style="stop-color:#9EA2A5;stop-opacity:0.1176"/>
					<stop  offset="0.0392" style="stop-color:#7E8184;stop-opacity:0.4824"/>
					<stop  offset="0.0941" style="stop-color:#A7AAAF;stop-opacity:0.0902"/>
					<stop  offset="0.2353" style="stop-color:#FFFFFF"/>
					<stop  offset="0.3647" style="stop-color:#C6CED2;stop-opacity:0.098"/>
					<stop  offset="0.4863" style="stop-color:#E2E7E9;stop-opacity:0.098"/>
					<stop  offset="0.6" style="stop-color:#AAB3B1;stop-opacity:0.1569"/>
					<stop  offset="0.7216" style="stop-color:#BCC1C2;stop-opacity:0.0863"/>
					<stop  offset="0.9882" style="stop-color:#8E9193;stop-opacity:0.4235"/>
				</linearGradient>
				<path fill-rule="evenodd" clip-rule="evenodd" fill="url(#SVGID_2_)" d="M170.53,392c1.27,4.37,2.52,6.72,3.75,7.05v-286.3
					l8.1,0.55v258.75c0.17,0.2,0.25,0.38,0.25,0.55c0.33,0.37,0.58,0.82,0.75,1.35c0.3,0.53,1.32,1.27,3.05,2.2l0.2-262.35
					c8.07,0.4,16.17-0.28,24.3-2.05V392c-0.8,6.9-3.88,11.98-9.25,15.25c-4.63,2.73-9.4,3.73-14.3,3c-5.7-0.9-10.22-4.08-13.55-9.55
					C172.27,397.97,171.17,395.07,170.53,392z M204.78,329.75c0.8-39.3,0.87-62.52,0.2-69.65c-0.47-5.43-1.03,17.78-1.7,69.65
					c-0.13,14.7-0.2,28.98-0.2,42.85c0,0.53,0,1.07,0,1.6c0,14.4,0.47,21.33,1.4,20.8c0.8-0.4,1.25-4.07,1.35-11
					c-0.1,2.2-0.15-1.6-0.15-11.4c0-4-0.08-8.83-0.25-14.5c0.17-0.17,0.17-0.25,0-0.25c-0.13-5.8-0.45-12.53-0.95-20.2
					C204.68,334.92,204.78,332.28,204.78,329.75z M186.43,384.85v-2.95c-0.47,0.9-0.62,1.88-0.45,2.95
					c0.13,2.17,0.35,4.82,0.65,7.95L186.43,384.85z"/>
				<linearGradient id="SVGID_3_" gradientUnits="userSpaceOnUse" x1="-838.4165" y1="255.3745" x2="799.9835" y2="255.3745">
					<stop  offset="0" style="stop-color:#FFFFFF;stop-opacity:0.3725"/>
					<stop  offset="0.4275" style="stop-color:#FFFFFF;stop-opacity:0.1569"/>
					<stop  offset="0.8627" style="stop-color:#BCC1C2;stop-opacity:0.0863"/>
				</linearGradient>
				<path fill-rule="evenodd" clip-rule="evenodd" fill="url(#SVGID_3_)" d="M174.28,112.75v286.3c-1.23-0.33-2.48-2.68-3.75-7.05
					V111.8c0.07-0.03,0.13-0.07,0.2-0.1L174.28,112.75z"/>
				
					<linearGradient id="SVGID_4_" gradientUnits="userSpaceOnUse" x1="-1025.5093" y1="-319.9507" x2="-747.9908" y2="-319.9507" gradientTransform="matrix(-0.2887 0.9574 -0.0473 -3.3068 -101.284 83.9284)">
					<stop  offset="0" style="stop-color:#9EA2A5;stop-opacity:0.1176"/>
					<stop  offset="0.0392" style="stop-color:#7E8184;stop-opacity:0.1686"/>
					<stop  offset="0.102" style="stop-color:#A7AAAF;stop-opacity:0.0902"/>
					<stop  offset="0.2353" style="stop-color:#FFFFFF"/>
					<stop  offset="0.3647" style="stop-color:#C6CED2;stop-opacity:0.0863"/>
					<stop  offset="0.4863" style="stop-color:#E2E7E9;stop-opacity:0.098"/>
					<stop  offset="0.6" style="stop-color:#D2D7D6;stop-opacity:0.098"/>
					<stop  offset="0.7216" style="stop-color:#F2F2F2;stop-opacity:0.0863"/>
					<stop  offset="0.9882" style="stop-color:#8E9193;stop-opacity:0.4235"/>
				</linearGradient>
				<path fill-rule="evenodd" clip-rule="evenodd" fill="url(#SVGID_4_)" d="M186.63,113.8l-0.2,262.35
					c-1.73-0.93-2.75-1.67-3.05-2.2c-0.17-0.53-0.42-0.98-0.75-1.35c0-0.17-0.08-0.35-0.25-0.55V113.3L186.63,113.8z"/>
				
					<linearGradient id="SVGID_5_" gradientUnits="userSpaceOnUse" x1="-293.3364" y1="-391.1919" x2="-189.9988" y2="-391.1919" gradientTransform="matrix(-0.9573 0.2891 -0.2245 -0.9768 -153.5241 26.6956)">
					<stop  offset="0" style="stop-color:#9EA2A5;stop-opacity:0.1176"/>
					<stop  offset="0.0392" style="stop-color:#7E8184;stop-opacity:0.1686"/>
					<stop  offset="0.102" style="stop-color:#A7AAAF;stop-opacity:0.0902"/>
					<stop  offset="0.2353" style="stop-color:#FFFFFF;stop-opacity:0.6627"/>
					<stop  offset="0.3647" style="stop-color:#C6CED2;stop-opacity:0.0863"/>
					<stop  offset="0.4863" style="stop-color:#E2E7E9;stop-opacity:0.098"/>
					<stop  offset="0.6" style="stop-color:#D2D7D6;stop-opacity:0.098"/>
					<stop  offset="0.7216" style="stop-color:#F2F2F2;stop-opacity:0.0863"/>
					<stop  offset="0.9882" style="stop-color:#8E9193;stop-opacity:0.4235"/>
				</linearGradient>
				<path fill-rule="evenodd" clip-rule="evenodd" fill="url(#SVGID_5_)" d="M204.78,329.75c0,2.53-0.1,5.17-0.3,7.9
					c0.5,7.67,0.82,14.4,0.95,20.2c0.17,0,0.17,0.08,0,0.25c0.17,5.67,0.25,10.5,0.25,14.5c0,9.8,0.05,13.6,0.15,11.4
					c-0.1,6.93-0.55,10.6-1.35,11c-0.93,0.53-1.4-6.4-1.4-20.8c0-0.53,0-1.07,0-1.6c0-13.87,0.07-28.15,0.2-42.85
					c0.67-51.87,1.23-75.08,1.7-69.65C205.65,267.23,205.58,290.45,204.78,329.75z M185.98,384.85c0.13,0.2,0.28,0.2,0.45,0
					l0.2,7.95C186.33,389.67,186.12,387.02,185.98,384.85z"/>
				
					<linearGradient id="SVGID_6_" gradientUnits="userSpaceOnUse" x1="-319.7671" y1="-441.0254" x2="-235.8399" y2="-441.0254" gradientTransform="matrix(-0.9547 0.2976 -0.1523 -1 -153.4637 27.4085)">
					<stop  offset="0" style="stop-color:#9EA2A5;stop-opacity:0.1176"/>
					<stop  offset="0.0392" style="stop-color:#7E8184;stop-opacity:0.1686"/>
					<stop  offset="0.102" style="stop-color:#A7AAAF;stop-opacity:0.0902"/>
					<stop  offset="0.2353" style="stop-color:#FFFFFF"/>
					<stop  offset="0.3647" style="stop-color:#C6CED2;stop-opacity:0.0863"/>
					<stop  offset="0.4863" style="stop-color:#E2E7E9;stop-opacity:0.098"/>
					<stop  offset="0.6" style="stop-color:#D2D7D6;stop-opacity:0.098"/>
					<stop  offset="0.7216" style="stop-color:#F2F2F2;stop-opacity:0.0863"/>
					<stop  offset="0.9882" style="stop-color:#8E9193;stop-opacity:0.4235"/>
				</linearGradient>
				<path fill-rule="evenodd" clip-rule="evenodd" fill="url(#SVGID_6_)" d="M186.43,384.85c-0.17,0.2-0.32,0.2-0.45,0
					c-0.17-1.07-0.02-2.05,0.45-2.95V384.85z"/>
				
					<path fill-rule="evenodd" clip-rule="evenodd" fill="none" stroke="#FFFFFF" stroke-width="0.1" stroke-linecap="round" stroke-linejoin="round" stroke-miterlimit="3" stroke-opacity="0.498" d="
					M210.93,111.75V392c-0.8,6.9-3.88,11.98-9.25,15.25c-4.63,2.73-9.4,3.73-14.3,3c-5.7-0.9-10.22-4.08-13.55-9.55
					c-1.57-2.73-2.67-5.63-3.3-8.7V111.8"/>
			</g>
		</g>
		<g>
			<path fill-rule="evenodd" clip-rule="evenodd" fill="#777780" fill-opacity="0.851" d="M211.48,107.6
				c-0.47,0.67-2.42,1.23-5.85,1.7h-0.25c-4.07,0.47-9,0.7-14.8,0.7c-5.63,0-10.48-0.23-14.55-0.7h-0.5
				c-3.27-0.47-5.13-1.02-5.6-1.65h1.15c0.47,0.63,2.35,1.1,5.65,1.4c3.9,0.47,8.52,0.7,13.85,0.7c5.47,0,10.08-0.23,13.85-0.7h0.25
				c3.27-0.3,5.07-0.77,5.4-1.4h1.15L211.48,107.6z M176.03,109.05c-0.17,0-0.72-0.08-1.65-0.25c0.93,0.33,1.87,0.5,2.8,0.5
				c0.93,0.13,2.03,0.2,3.3,0.2C177.65,109.2,176.17,109.05,176.03,109.05z"/>
			<linearGradient id="SVGID_7_" gradientUnits="userSpaceOnUse" x1="166.521" y1="110.4243" x2="216.546" y2="110.4243">
				<stop  offset="0" style="stop-color:#9EA2A5;stop-opacity:0.1255"/>
				<stop  offset="0.0392" style="stop-color:#CFD1D1;stop-opacity:0.4824"/>
				<stop  offset="0.0941" style="stop-color:#A7AAAF;stop-opacity:0.098"/>
				<stop  offset="0.2353" style="stop-color:#FFFFFF"/>
				<stop  offset="0.3647" style="stop-color:#FFFFFF;stop-opacity:0.1059"/>
				<stop  offset="0.4863" style="stop-color:#E2E7E9;stop-opacity:0.1059"/>
				<stop  offset="0.6" style="stop-color:#FFFFFF;stop-opacity:0.4431"/>
				<stop  offset="0.7216" style="stop-color:#BCC1C2;stop-opacity:0.0863"/>
				<stop  offset="0.8353" style="stop-color:#E0E2E1;stop-opacity:0.2314"/>
				<stop  offset="0.9882" style="stop-color:#8E9193;stop-opacity:0.4235"/>
			</linearGradient>
			<path fill-rule="evenodd" clip-rule="evenodd" fill="url(#SVGID_7_)" d="M169.93,107.65c0.47,0.63,2.33,1.18,5.6,1.65h0.5
				c4.07,0.47,8.92,0.7,14.55,0.7c5.8,0,10.73-0.23,14.8-0.7h0.25c3.43-0.47,5.38-1.03,5.85-1.7c0.3,0.97,0.3,2.07,0,3.3l-0.25,0.25
				c-0.3,0.63-2.25,1.1-5.85,1.4c-4.07,0.47-9,0.7-14.8,0.7c-5.63,0-10.48-0.23-14.55-0.7c-3.93-0.3-5.97-0.77-6.1-1.4v-0.25
				C169.47,109.5,169.47,108.42,169.93,107.65z"/>
			<path fill-rule="evenodd" clip-rule="evenodd" fill="#FFFFFF" d="M176.03,109.05c0.13,0,1.62,0.15,4.45,0.45
				c-1.27,0-2.37-0.07-3.3-0.2c-0.93,0-1.87-0.17-2.8-0.5C175.32,108.97,175.87,109.05,176.03,109.05z"/>
			<g>
				
					<radialGradient id="SVGID_8_" cx="190.3413" cy="108.7734" r="30.8252" gradientTransform="matrix(1 3.649611e-003 -2.027562e-003 0.1233 -1.5362 95.6457)" gradientUnits="userSpaceOnUse">
					<stop  offset="0.4549" style="stop-color:#9EA2A5;stop-opacity:0"/>
					<stop  offset="0.9882" style="stop-color:#363838;stop-opacity:0.7373"/>
				</radialGradient>
				<path fill-rule="evenodd" clip-rule="evenodd" fill="url(#SVGID_8_)" d="M188.13,110.45c0.14,0,0.35,0.09,0.65,0.25h0.25
					c3.77,0.17,5.65,0.32,5.65,0.45c0.17,0.33,0.25,0.57,0.25,0.7c-0.63,0-1.35,0.08-2.15,0.25c0.63,0,1.35,0,2.15,0v0.25
					c0,0.13-0.08,0.28-0.25,0.45c-0.33,0.16-0.56,0.25-0.7,0.25h1.15c1.1-0.17,2.12-0.25,3.05-0.25c0.63,0,1.1-0.08,1.4-0.25
					c0-0.13,0.08-0.2,0.25-0.2l0.25-0.5c0.3-0.13,0.62-0.2,0.95-0.2c1.1-0.17,2.03-0.25,2.8-0.25v-0.25c0-0.13,0-0.28,0-0.45h-0.25
					c-1.57,0.17-2.82,0.25-3.75,0.25c0-0.17,1.97-0.48,5.9-0.95l0.45,0.7c0.77,0.47,0.77,1.02,0,1.65c0.47-0.17,0.93-0.25,1.4-0.25
					c1.1-0.3,1.88-0.62,2.35-0.95c0.63-0.47,0.8-1,0.5-1.6c0.93,0.47,1.23,1.08,0.9,1.85c-0.3,0.47-1.55,0.85-3.75,1.15
					c-0.63,0.17-1.33,0.25-2.1,0.25c-4.07,0.47-9,0.7-14.8,0.7c-5.63,0-10.48-0.23-14.55-0.7c-3.93-0.3-5.97-0.77-6.1-1.4v-0.25
					c-0.33-0.93-0.5-1.63-0.5-2.1c0.17,0.63,0.33,1.18,0.5,1.65c0.13,0.47,0.37,0.55,0.7,0.25c0.13-0.33,0.13-1.12,0-2.35
					c0.47,0.3,1.17,0.45,2.1,0.45c-0.3,1.1-0.3,1.73,0,1.9c1.1,0.3,2.9,0.6,5.4,0.9c1.73,0.17,3.45,0.25,5.15,0.25
					c0.8-0.17,1.2-0.32,1.2-0.45l-0.7-0.95c0-0.17,0.85-0.25,2.55-0.25c0.63,0,1.18,0,1.65,0H188.13z"/>
				<path fill-rule="evenodd" clip-rule="evenodd" fill="#FFFFFF" fill-opacity="0.7255" d="M206.18,110.7l2.8-0.7
					c0.33-0.17,0.82-0.32,1.45-0.45c0.3,0.6,0.13,1.13-0.5,1.6c-0.47,0.33-1.25,0.65-2.35,0.95c-0.47,0-0.93,0.08-1.4,0.25
					C206.95,111.72,206.95,111.17,206.18,110.7z"/>
				<path fill-rule="evenodd" clip-rule="evenodd" fill="#FFFFFF" fill-opacity="0.451" d="M194.93,111.85
					c0-0.13-0.08-0.37-0.25-0.7c0-0.13-1.88-0.28-5.65-0.45h-0.25c-0.3-0.16-0.51-0.25-0.65-0.25c5.47,0,9.13,0,11,0
					c0.17,0,1.88-0.15,5.15-0.45h1.45c-3.93,0.47-5.9,0.78-5.9,0.95c-0.47,0.13-0.85,0.2-1.15,0.2c0,0.17,0.07,0.4,0.2,0.7
					c0.33,0,0.73,0,1.2,0l-0.25,0.5c-0.17,0-0.25,0.07-0.25,0.2c-0.3,0.17-0.77,0.25-1.4,0.25c-0.93,0-1.95,0.08-3.05,0.25h-1.15
					c0.14,0,0.37-0.09,0.7-0.25c0.17-0.17,0.25-0.32,0.25-0.45v-0.25c0.93,0,1.87-0.08,2.8-0.25l-0.45-0.2h-0.25
					C196.4,111.78,195.7,111.85,194.93,111.85z"/>
				<path fill-rule="evenodd" clip-rule="evenodd" fill="#FFFFFF" d="M199.83,110.95c0.93,0,2.18-0.08,3.75-0.25h0.25
					c0,0.17,0,0.32,0,0.45v0.25c-0.77,0-1.7,0.08-2.8,0.25c-0.33,0-0.65,0.07-0.95,0.2c-0.47,0-0.87,0-1.2,0
					c-0.13-0.3-0.2-0.53-0.2-0.7C198.98,111.15,199.37,111.08,199.83,110.95z M194.93,111.85c0.77,0,1.47-0.07,2.1-0.2h0.25
					l0.45,0.2c-0.93,0.17-1.87,0.25-2.8,0.25c-0.8,0-1.52,0-2.15,0C193.58,111.93,194.3,111.85,194.93,111.85z"/>
			</g>
		</g>
	</g>
	<g>
		<g>
			<g>
				<g>
					<path fill-rule="evenodd" clip-rule="evenodd" fill="#333333" d="M89.23,533.9c0.13-0.07,0.27-0.1,0.4-0.1
						c0.43,0,0.78,0.12,1.05,0.35c0.33,0.27,0.5,0.58,0.5,0.95c0,0.33-0.17,0.63-0.5,0.9c-0.27,0.23-0.62,0.35-1.05,0.35
						c-0.47,0-0.83-0.12-1.1-0.35c-0.33-0.27-0.5-0.57-0.5-0.9c0-0.37,0.17-0.68,0.5-0.95c0.17-0.13,0.38-0.22,0.65-0.25H89.23z"/>
				</g>
				<g>
					<linearGradient id="SVGID_9_" gradientUnits="userSpaceOnUse" x1="88.0586" y1="534.7495" x2="91.2085" y2="534.7495">
						<stop  offset="3.921569e-003" style="stop-color:#ABA298"/>
						<stop  offset="1" style="stop-color:#796F63"/>
					</linearGradient>
					<path fill-rule="evenodd" clip-rule="evenodd" fill="url(#SVGID_9_)" d="M89.63,533.5c0.43,0,0.78,0.1,1.05,0.3
						c0.33,0.27,0.5,0.58,0.5,0.95s-0.17,0.65-0.5,0.85c-0.27,0.27-0.62,0.4-1.05,0.4c-0.47,0-0.83-0.13-1.1-0.4
						c-0.33-0.2-0.5-0.48-0.5-0.85s0.17-0.68,0.5-0.95c0.17-0.13,0.38-0.22,0.65-0.25h0.05C89.37,533.52,89.5,533.5,89.63,533.5z
						 M89.43,533.55c-0.17,0-0.37,0.07-0.6,0.2c-0.2,0.1-0.3,0.23-0.3,0.4c0.03-0.13,0.17-0.25,0.4-0.35
						c0.3-0.07,0.52-0.13,0.65-0.2c0.13-0.03,0.23-0.03,0.3,0c-0.03-0.03-0.1-0.05-0.2-0.05C89.62,533.55,89.53,533.55,89.43,533.55
						z M89.78,533.9h-0.4v0.7h-0.8v0.3h0.8v0.7h0.4v-0.7h0.8v-0.3h-0.8V533.9z M89.63,535.9c-0.03,0-0.1,0-0.2,0v0.05
						c0.23,0,0.48-0.02,0.75-0.05c0.13-0.1,0.23-0.17,0.3-0.2c0.13-0.1,0.2-0.22,0.2-0.35C90.42,535.65,90.07,535.83,89.63,535.9z"
						/>
					<path fill-rule="evenodd" clip-rule="evenodd" fill="#AFA9A0" d="M89.43,533.55c0.1,0,0.18,0,0.25,0c0.1,0,0.17,0.02,0.2,0.05
						c-0.07-0.03-0.17-0.03-0.3,0c-0.13,0.07-0.35,0.13-0.65,0.2c-0.23,0.1-0.37,0.22-0.4,0.35c0-0.17,0.1-0.3,0.3-0.4
						C89.07,533.62,89.27,533.55,89.43,533.55z M89.63,535.9c0.43-0.07,0.78-0.25,1.05-0.55c0,0.13-0.07,0.25-0.2,0.35
						c-0.07,0.03-0.17,0.1-0.3,0.2c-0.27,0.03-0.52,0.05-0.75,0.05v-0.05C89.53,535.9,89.6,535.9,89.63,535.9z"/>
					
						<radialGradient id="SVGID_10_" cx="89.1836" cy="534.6997" r="1.625" gradientTransform="matrix(1 0 0 0.8077 0 102.8269)" gradientUnits="userSpaceOnUse">
						<stop  offset="0" style="stop-color:#1C1A17"/>
						<stop  offset="1" style="stop-color:#9E948A"/>
					</radialGradient>
					<polygon fill-rule="evenodd" clip-rule="evenodd" fill="url(#SVGID_10_)" points="89.78,533.9 89.78,534.6 90.58,534.6 
						90.58,534.9 89.78,534.9 89.78,535.6 89.38,535.6 89.38,534.9 88.58,534.9 88.58,534.6 89.38,534.6 89.38,533.9 					"/>
				</g>
			</g>
			<g>
				
					<linearGradient id="SVGID_11_" gradientUnits="userSpaceOnUse" x1="-270.0098" y1="580.2983" x2="-240.331" y2="580.2983" gradientTransform="matrix(0.759 -0.6511 0.7629 0.6631 -20.4879 -50.5491)">
					<stop  offset="3.921569e-003" style="stop-color:#000000"/>
					<stop  offset="1" style="stop-color:#000000;stop-opacity:0"/>
				</linearGradient>
				<polygon fill-rule="evenodd" clip-rule="evenodd" fill="url(#SVGID_11_)" points="4.48,549.05 41.48,517.4 303.18,517.4 
					339.18,549.05 				"/>
			</g>
			<g>
				<polygon fill-rule="evenodd" clip-rule="evenodd" fill="#7A310E" points="9.98,534.7 10.18,534.7 9.98,534.95 276.58,534.95 
					278.48,534.8 278.68,534.75 278.78,534.7 278.68,534.95 278.68,545 266.18,545 253.68,545 27.33,545 14.83,545 7.83,545 
					7.83,534.7 				"/>
				
					<linearGradient id="SVGID_12_" gradientUnits="userSpaceOnUse" x1="-320.2871" y1="530.8511" x2="-193.2145" y2="530.8511" gradientTransform="matrix(0.9349 -0.3549 0.7041 0.8023 -6.5292 -27.5249)">
					<stop  offset="3.921569e-003" style="stop-color:#AE6320"/>
					<stop  offset="1" style="stop-color:#DD9145"/>
				</linearGradient>
				<polygon fill-rule="evenodd" clip-rule="evenodd" fill="url(#SVGID_12_)" points="7.83,534.7 8.23,534.5 9.98,533.35 
					9.98,534.7 				"/>
				
					<linearGradient id="SVGID_13_" gradientUnits="userSpaceOnUse" x1="-302.4761" y1="567.6274" x2="-172.2592" y2="567.6274" gradientTransform="matrix(0.9284 -0.3716 0.6724 0.808 -6.9775 -28.8481)">
					<stop  offset="3.921569e-003" style="stop-color:#AE6320"/>
					<stop  offset="1" style="stop-color:#DD9145"/>
				</linearGradient>
				<polygon fill-rule="evenodd" clip-rule="evenodd" fill="url(#SVGID_13_)" points="277.98,534.2 276.58,533.35 278.43,534.7 
					278.68,534.7 278.78,534.7 278.68,534.75 278.48,534.8 276.58,534.95 9.98,534.95 10.18,534.7 9.98,534.7 9.98,533.35 
					8.23,534.5 24.33,503.5 257.58,503.5 				"/>
				<path fill-rule="evenodd" clip-rule="evenodd" fill="#AE6320" fill-opacity="0.5059" d="M27.33,545l-1.45,2.05h-10.1L14.83,545
					H27.33z M266.18,545l-1.45,2.05h-10.15l-0.9-2.05H266.18z"/>
				<linearGradient id="SVGID_14_" gradientUnits="userSpaceOnUse" x1="63.5586" y1="534.0249" x2="225.1086" y2="534.0249">
					<stop  offset="3.921569e-003" style="stop-color:#AE6320"/>
					<stop  offset="0.502" style="stop-color:#DF9931"/>
					<stop  offset="1" style="stop-color:#DD9145"/>
				</linearGradient>
				<polygon fill-rule="evenodd" clip-rule="evenodd" fill="url(#SVGID_14_)" points="278.68,534.7 278.43,534.7 276.58,533.35 
					277.98,534.2 				"/>
			</g>
			<g>
				<path fill-rule="evenodd" clip-rule="evenodd" fill="#59240B" d="M131.68,535c3.97-0.27,7.92-0.17,11.85,0.3
					c0.07,0.03,0.1,0.07,0.1,0.1c-13.2,0.4-26.4,0.5-39.6,0.3c9-0.1,18.22-0.3,27.65-0.6V535z M179.48,541.65
					c1.47,0.03,2.95,0.05,4.45,0.05c23.93,0.27,48.22,0.13,72.85-0.4c0.13,0,0.25,0,0.35,0c1.4-0.03,2.7-0.1,3.9-0.2
					c1.5-0.43,2.22-0.37,2.15,0.2v0.05c-3.6,0.27-7.37,0.43-11.3,0.5c-19.73,0.27-39.47,0.37-59.2,0.3c-0.37,0-0.72,0-1.05,0
					c-0.2,0-0.38,0-0.55,0c-2.43,0.13-4.82,0.2-7.15,0.2h-0.05c-3.67,0.2-7.33,0.33-11,0.4c0.73,0.07,1.47,0.12,2.2,0.15v0.15
					c-2.93,0.13-5.9,0.25-8.9,0.35c-0.6,0.07-1.27,0.1-2,0.1c-2.37,0.43-4.43,0.5-6.2,0.2c-11.4,0.3-22.88,0.25-34.45-0.15
					c-0.57,0.03-1.32,0.05-2.25,0.05c-2.17-0.03-4.33-0.1-6.5-0.2v-0.05c3.5-0.07,7.03-0.23,10.6-0.5c-0.07,0.27-0.37,0.45-0.9,0.55
					c10.5,0.1,21.03,0.05,31.6-0.15c-0.23-0.1-0.47-0.2-0.7-0.3c0.57,0.1,1.15,0.17,1.75,0.2c2.2-0.03,4.42-0.07,6.65-0.1
					c0.23-0.1,0.47-0.17,0.7-0.2c-0.77,0-1.5,0-2.2,0c-1.8,0.3-3.72,0.25-5.75-0.15c-0.93-0.03-1.85-0.08-2.75-0.15
					c0.37,0,0.75,0,1.15,0c0.37,0,0.7,0,1,0c0.6-0.03,1.2-0.07,1.8-0.1c0.27,0.03,0.48,0.07,0.65,0.1c1.1,0,2.2,0,3.3,0
					c0.37-0.07,0.72-0.17,1.05-0.3c0.47-0.07,0.93-0.1,1.4-0.1c0,0.07,0,0.13,0,0.2c-0.17,0.07-0.33,0.13-0.5,0.2
					c0.73-0.03,1.48-0.05,2.25-0.05c0.07-0.03,0.17-0.08,0.3-0.15c1.33-0.4,2.62-0.95,3.85-1.65c-0.03,0.13-0.15,0.27-0.35,0.4
					c-0.53,0.53-1.18,0.98-1.95,1.35c3.33-0.07,6.7-0.18,10.1-0.35c-0.87-0.03-1.72-0.1-2.55-0.2
					C176.65,541.87,178.05,541.78,179.48,541.65z M164.13,541.9c-0.23-0.03-0.43-0.05-0.6-0.05c0.13-0.1,0.25-0.2,0.35-0.3
					c-0.1-0.29-0.32-0.44-0.67-0.45c0.33,0,0.64,0,0.92,0v0.05C164.13,541.38,164.13,541.63,164.13,541.9z M157.03,541.95
					c-1,0-1.97,0.03-2.9,0.1c0.03-0.1,0.23-0.2,0.6-0.3c2.7-0.53,5.37-0.75,8-0.65c-0.4,0-0.9,0.08-1.5,0.25
					C159.8,541.58,158.4,541.78,157.03,541.95z M192.08,538.05c-0.67,0-1.3,0-1.9,0c0.57,0.07,1.13,0.12,1.7,0.15
					c-0.67,0.53-2.02,0.83-4.05,0.9c-1.27,0.07-2.57,0.13-3.9,0.2c-4.63,0.23-9.28,0.47-13.95,0.7c0.2,0.17,0.23,0.38,0.1,0.65
					c-0.2-0.27-0.5-0.47-0.9-0.6c-1.03,0-2.03,0.05-3,0.15c-5,0.2-9.98,0.43-14.95,0.7c-1.57,0.37-3.07,0.82-4.5,1.35h-0.1
					c0.87-0.5,1.75-0.93,2.65-1.3c-0.9,0.07-1.85,0.12-2.85,0.15c-13,0.7-26.08,1.18-39.25,1.45c-10.37,0.27-20.52,0.13-30.45-0.4
					c-4.3,0.07-8.6,0.12-12.9,0.15c-1.57,0.03-2.38-0.25-2.45-0.85c11.54,0.27,23.18,0.37,34.93,0.3c-0.21,0-0.4-0.02-0.58-0.05
					c-1.73-0.17-3.02-0.45-3.85-0.85c-0.3-0.03-0.63-0.08-1-0.15v-0.05c0.23,0,0.47,0,0.7,0c-0.63-0.4-1-0.87-1.1-1.4
					c1.6,0.53,3.22,0.98,4.85,1.35c0.5,0,1.03,0,1.6,0c-0.9-0.2-1.75-0.45-2.55-0.75c-0.43-0.13-0.6-0.4-0.5-0.8
					c0.1-0.03,0.18-0.05,0.25-0.05c0.5-0.07,0.92-0.13,1.25-0.2c-6.87,0.4-13.83,0.7-20.9,0.9c-9.53,0.33-18.92,0.3-28.15-0.1
					c14.73-0.2,29.5-0.6,44.3-1.2c0.13-0.17,0.4-0.3,0.8-0.4c-5.13-0.03-10.23-0.15-15.3-0.35c-5.3-0.17-10.53-0.32-15.7-0.45
					c12.33,0.03,24.73,0.02,37.2-0.05c1.1-0.13,2.23-0.27,3.4-0.4c2.2,0.03,4.37,0.12,6.5,0.25h0.05c2.33-0.03,4.67-0.05,7-0.05
					c0.37,0,0.73,0,1.1,0c2.47-0.1,4.95-0.17,7.45-0.2c3.4-0.07,6.8-0.17,10.2-0.3c1.87-0.03,3.63-0.17,5.3-0.4
					c-0.53,0.87-2.58,1.3-6.15,1.3c-5.17-0.1-10.35-0.03-15.55,0.2c-2.27,0.07-4.52,0.13-6.75,0.2c-4.1,0.33-8.23,0.63-12.4,0.9
					c0,0.03,0,0.08,0,0.15v0.05c-0.4,0.17-1.08,0.3-2.05,0.4c-0.5,0.1-0.98,0.17-1.45,0.2c0.93,0.57,2.1,0.85,3.5,0.85
					c2.7,0.07,5.4,0.13,8.1,0.2v0.1h0.05c4.27,0.07,8.55,0.1,12.85,0.1c0.3-0.03,0.63-0.1,1-0.2c0.57-0.07,1.12-0.17,1.65-0.3
					c-1.5-0.37-3.07-0.67-4.7-0.9c-0.77,0-1.52,0-2.25,0c0.03,0,0.05,0.03,0.05,0.1v0.05c-1.4,1.1-3.52,1.38-6.35,0.85
					c-1.63,0.1-3.22,0.02-4.75-0.25c-0.07-0.03-0.12-0.08-0.15-0.15c-0.17-0.17-0.23-0.37-0.2-0.6c0-0.03,0-0.07,0-0.1
					c0.4-0.1,0.8-0.17,1.2-0.2c-0.13,0-0.27,0-0.4,0c-1.37,0.17-2.95,0.27-4.75,0.3c0.63,0.13,1.32,0.25,2.05,0.35
					c0.07,0,0.17,0,0.3,0c0.83-0.13,1.23,0,1.2,0.4c-0.3,0.27-0.85,0.28-1.65,0.05c-0.23-0.03-0.48-0.05-0.75-0.05
					c-0.97,0-1.53-0.22-1.7-0.65v-0.1c-0.03-0.2,0.1-0.35,0.4-0.45c0.47-0.03,0.95-0.08,1.45-0.15c0.1,0,0.18,0,0.25,0
					c0.77,0,1.52,0.05,2.25,0.15v-0.05c1.23,0,2.45,0,3.65,0c2.4-0.2,4.72-0.2,6.95,0c7.03-0.07,13.97,0.03,20.8,0.3
					c2.97-0.03,5.97-0.17,9-0.4v-0.1c0.4,0,0.8,0,1.2,0c0.5-0.07,0.97-0.12,1.4-0.15c0,0.03,0,0.08,0,0.15c0.3,0,0.6,0,0.9,0
					c0.07,0,0.12-0.03,0.15-0.1c0.37-0.07,0.72-0.1,1.05-0.1c6.1-0.1,12.15-0.1,18.15,0c4.73,0.03,9.43,0.12,14.1,0.25v0.05
					c1.23-0.07,2.45-0.1,3.65-0.1c1.33-0.1,2.67-0.17,4-0.2c0.97-0.03,1.87-0.12,2.7-0.25c-0.77,0.03-1.52,0.07-2.25,0.1
					c-1.03,0.1-1.48-0.07-1.35-0.5c4.3-0.27,8.77-0.47,13.4-0.6c2.5,0,4.88-0.17,7.15-0.5c1.23,0,2.47,0.07,3.7,0.2v0.1
					C205.02,537.25,198.62,537.62,192.08,538.05z M208.43,540.2c0.3-0.07,0.58-0.12,0.85-0.15c0.07,0.03,0.1,0.08,0.1,0.15
					C209.05,540.2,208.73,540.2,208.43,540.2z M200.48,538.4c2.83-0.1,5.63-0.25,8.4-0.45c0-0.07-0.02-0.1-0.05-0.1
					c-0.3-0.03-0.6-0.05-0.9-0.05c1.23-0.03,2.43-0.08,3.6-0.15c1.07-0.3,1.58-0.23,1.55,0.2v0.1
					C208.88,538.25,204.68,538.4,200.48,538.4z M174.53,541.85c-0.57-0.07-1.13-0.13-1.7-0.2c-0.07,0-0.1-0.05-0.1-0.15
					c0.7,0.03,1.42,0.05,2.15,0.05C174.75,541.65,174.63,541.75,174.53,541.85z M187.73,540.2c-1.2,0.07-2.4,0.2-3.6,0.4
					c-0.03,0-0.1,0-0.2,0c-0.3,0.03-0.6,0.07-0.9,0.1c-3.13,0.23-6.43,0.22-9.9-0.05v-0.05c3.53,0,7.13-0.17,10.8-0.5
					c0.83-0.07,1.63-0.15,2.4-0.25c1.1-0.3,1.6-0.23,1.5,0.2v0.05C187.8,540.1,187.77,540.13,187.73,540.2z M192.53,540.25
					c3.5,0.37,7.02,0.58,10.55,0.65c-2.87,0-5.7-0.02-8.5-0.05c-0.7-0.03-1.27-0.12-1.7-0.25h-0.05c-0.5,0-1,0-1.5,0v-0.15
					c0.5,0.03,1,0.08,1.5,0.15c-0.2-0.1-0.38-0.2-0.55-0.3c-0.03,0-0.05-0.02-0.05-0.05C192.37,540.25,192.47,540.25,192.53,540.25z
					 M183.93,536.45c3.63-0.03,7.23-0.13,10.8-0.3c4.27,0,8.53-0.03,12.8-0.1c12.2-0.1,24.35,0.17,36.45,0.8
					c0.63,0.07,1.03,0.2,1.2,0.4c1.17,0.07,2.3,0.12,3.4,0.15v0.15c-1.1,0-2.18,0.07-3.25,0.2h-0.05c-1.6,0.17-3.23,0.4-4.9,0.7
					c-1.3,0.27-2.37,0.4-3.2,0.4c0.1-0.13,0.22-0.25,0.35-0.35c-0.07,0-0.13,0-0.2,0c-0.8,0.07-1.13-0.08-1-0.45V538
					c0.33-0.1,0.8-0.17,1.4-0.2c0.7,0,1.42,0.05,2.15,0.15c1.3-0.27,2.6-0.47,3.9-0.6c-12.87-0.9-25.93-1.2-39.2-0.9
					C197.65,536.58,190.77,536.58,183.93,536.45z M137.03,537.6c3.47,0.03,6.97-0.05,10.5-0.25c0.13,0,0.28,0,0.45,0
					c5.13,0,10.22-0.12,15.25-0.35c1,0,1.98,0,2.95,0c5.93,0.03,11.85,0.08,17.75,0.15c1.9,0,3.78,0.02,5.65,0.05v0.05
					c-1.87,0-3.75,0-5.65,0c-5.77-0.03-11.68,0-17.75,0.1c-1.8,0.03-3.6,0.07-5.4,0.1c-4.77,0.1-9.52,0.3-14.25,0.6
					c-3.5,0.27-6.63,0.17-9.4-0.3C137.07,537.75,137.03,537.7,137.03,537.6z M121.43,540.8c0.27,0.17,0.73,0.25,1.4,0.25
					c5.77-0.07,11.57-0.05,17.4,0.05c1.37,0.03,2.45-0.02,3.25-0.15c0.03,0,0.08,0,0.15,0c0.03,0,0.07,0,0.1,0
					c0.03-0.01,0.06-0.02,0.1-0.03c0.03,0,0.06,0.01,0.1,0.03c2.13-0.1,4.28-0.2,6.45-0.3c2.2-0.8,4.67-1.28,7.4-1.45
					c-3.37,0.03-6.77,0.07-10.2,0.1c-0.77,0.07-1.52,0.03-2.25-0.1c-0.67,0.3-1.88,0.47-3.65,0.5c-2.73,0.07-5.48-0.08-8.25-0.45
					c-4.97,0.13-9.97,0.18-15,0.15c1.07,0.17,2.1,0.38,3.1,0.65c0.6,0.13,0.57,0.27-0.1,0.4c-0.57,0.1-1.12,0.22-1.65,0.35
					C120.32,540.8,120.87,540.8,121.43,540.8z M172.96,536.2c-2.25-0.04-4.5-0.08-6.77-0.15c-6.27-0.1-12.53-0.22-18.8-0.35v-0.2
					c6.27,0.03,12.53,0.05,18.8,0.05c2.53-0.03,5.05-0.05,7.55-0.05c0.5,0,0.72,0.13,0.65,0.4c-0.07,0.17-0.23,0.27-0.5,0.3
					c-0.2,0-0.38,0-0.55,0H172.96z M99.03,535.9c-6.57,0.03-13.17-0.02-19.8-0.15v-0.25c6.63,0.03,13.23,0.1,19.8,0.2V535.9z
					 M98.78,541.95c-5.4,0-10.78,0.05-16.15,0.15c6.1,0.03,12.2,0.03,18.3,0C100.23,542.09,99.51,542.04,98.78,541.95z M93.63,538
					c-0.47,0.1-0.92,0.22-1.35,0.35c2.4-0.13,4.8-0.27,7.2-0.4C97.52,537.98,95.57,538,93.63,538z M112.88,539.25
					c-1.77-0.03-3.52-0.08-5.25-0.15c-1.3,0.1-2.63,0.23-4,0.4c1,0.73,2.37,0.85,4.1,0.35c0.3-0.1,0.58-0.17,0.85-0.2
					c0.27-0.03,0.48-0.03,0.65,0c0.4,0,0.72,0.05,0.95,0.15c0.03,0.03,0.03,0.07,0,0.1c0.87,0.2,2.12,0.13,3.75-0.2
					c-0.2,0-0.5-0.1-0.9-0.3C112.93,539.4,112.88,539.35,112.88,539.25z M111.23,543.4c0,0.07,0,0.12,0,0.15
					c-28.47,0.03-56.98,0.08-85.55,0.15c-0.33,0-0.68,0.02-1.05,0.05c-0.2,0-0.38,0.02-0.55,0.05c-4.93,0.6-9.4,0.52-13.4-0.25
					c0-0.03,0-0.08,0-0.15c-0.07-0.2,0.12-0.28,0.55-0.25c3.83,0.13,7.67,0.2,11.5,0.2c0.2,0,0.37,0,0.5,0
					c1.13-0.07,2.23-0.13,3.3-0.2c28.2,0.07,56.43,0.13,84.7,0.2V543.4z M105.68,541.5c-2,0-3.93-0.05-5.8-0.15
					c4.13,0.53,8.4,0.6,12.8,0.2C110.35,541.55,108.02,541.53,105.68,541.5z M108.23,542.05c8.27-0.1,16.5-0.3,24.7-0.6
					c-6.27,0.07-12.53,0.1-18.8,0.1C112.17,541.78,110.2,541.95,108.23,542.05z M210.68,540.65c2.03-0.1,4.08-0.18,6.15-0.25
					c1.17-0.07,2.35-0.12,3.55-0.15c-0.67-0.13-1.32-0.27-1.95-0.4c-1.6-0.37-1.93-0.87-1-1.5c0.57-0.4,1.3-0.72,2.2-0.95
					c4.6-1.07,8.47-0.88,11.6,0.55c-0.33-0.1-0.62-0.17-0.85-0.2c-0.13-0.07-0.27-0.12-0.4-0.15c-4.7-0.67-8.98-0.3-12.85,1.1
					c0.2,0.33,0.53,0.58,1,0.75c0.07,0,0.12,0,0.15,0c1.03,0.23,2.03,0.43,3,0.6c0.37,0,0.68,0.05,0.95,0.15
					c6.73,0.87,13.55,0.6,20.45-0.8c0.87-0.2,1.57-0.5,2.1-0.9c-0.97,1.03-2.48,1.68-4.55,1.95c-6.13,0.93-12.18,0.95-18.15,0.05
					c-5.7,0.63-11.42,0.77-17.15,0.4c-0.23,0-0.45,0-0.65,0c-0.7-0.03-1.42-0.1-2.15-0.2c-0.27,0-0.53,0-0.8,0
					c1.67-0.06,3.34-0.16,5-0.3c1,0.07,1.98,0.13,2.95,0.2c-0.13,0.03-0.21,0.05-0.25,0.05
					C209.6,540.65,210.15,540.65,210.68,540.65z M223.08,538.35c0.57-0.13,1.72-0.27,3.45-0.4c0.07,0,0.13,0,0.2,0
					c0.13,0.77-1.08,0.92-3.65,0.45V538.35z M223.08,539.45c0.07,0,0.15,0,0.25,0l0.2,0.05c0.43,0.07,0.88,0.07,1.35,0
					c2.47-0.3,4.92-0.67,7.35-1.1c0.07,0.03,0.15,0.1,0.25,0.2c0.37,0.2,0.22,0.37-0.45,0.5c-3.27,0.77-6.25,0.97-8.95,0.6
					C223.08,539.63,223.08,539.55,223.08,539.45z M234.38,543.05c-1.13-0.07-2.3-0.1-3.5-0.1c-0.7,0.07-1.47,0.12-2.3,0.15
					c-0.33,0.03-0.62,0.08-0.85,0.15c-9.8,0.17-19.48,0.12-29.05-0.15c13.2,0.03,26.43-0.28,39.7-0.95c0.3,0.5-0.37,0.77-2,0.8
					C235.72,543.02,235.05,543.05,234.38,543.05z M233.73,544.5c-12.43,0.03-25.1,0.05-38,0.05c-4.37,0-8.3-0.15-11.8-0.45
					c-0.8-0.1-1.57-0.2-2.3-0.3c-0.63,0.1-1.35,0.17-2.15,0.2c-3.47,0.23-6.75,0.2-9.85-0.1c4.77,0,9.53-0.38,14.3-1.15
					c0.17,0,0.32-0.02,0.45-0.05c-0.07,0.13-0.22,0.27-0.45,0.4c-0.4,0.27-1,0.48-1.8,0.65c0.6,0,1.2,0,1.8,0
					c12.8-0.1,25.57,0.02,38.3,0.35c3.87,0.13,7.7,0.23,11.5,0.3V544.5z M240.28,542.85c6.67,0.13,13.32,0.23,19.95,0.3
					c-0.13-0.03-0.27-0.07-0.4-0.1c0.4,0.03,0.82,0.07,1.25,0.1c2.67,0.07,5.32,0.1,7.95,0.1c2.17-0.1,4.4-0.3,6.7-0.6h0.05
					c-0.47,0.63-1.85,1.05-4.15,1.25c-3.2,0.2-6.12,0.1-8.75-0.3c-7.83,0.13-15.37-0.1-22.6-0.7V542.85z M244.28,535.3
					c1.3,0.03,2.62,0.1,3.95,0.2v0.05c-4.77,0.4-9.62,0.4-14.55,0C237.08,535.45,240.62,535.37,244.28,535.3z M168.38,539.5
					c0.83-0.07,1.72-0.13,2.65-0.2c2.7-0.2,5.42-0.37,8.15-0.5c-4.3,0.03-8.63,0.1-13,0.2c-1.1,0-2.18,0.02-3.25,0.05
					c1.07,0.03,2.15,0.1,3.25,0.2C166.95,539.35,167.68,539.43,168.38,539.5z M166.73,542.9c0.12-0.03,0.25-0.05,0.4-0.05
					c-0.12,0-0.23,0-0.35,0L166.73,542.9z M153.23,540.45c4.17-0.23,8.38-0.5,12.65-0.8C161.45,539.38,157.23,539.65,153.23,540.45z
					 M43.33,542.3c-0.43,0-0.87,0-1.3,0c0.43-0.03,0.87-0.08,1.3-0.15V542.3z M33.68,541.85c0.87,0.17,1.7,0.27,2.5,0.3
					c-1,0-2.03-0.02-3.1-0.05c-0.23-0.03-0.32-0.12-0.25-0.25C33.1,541.85,33.38,541.85,33.68,541.85z M32.93,540.65
					c1.3-0.03,2.58-0.08,3.85-0.15c-0.3,0.07-0.58,0.1-0.85,0.1C34.97,540.63,33.97,540.65,32.93,540.65z M17.93,540.3
					c-0.18,0-0.38,0.04-0.6,0.1c-0.03,0.03-0.1,0.05-0.2,0.05c-0.53,0.03-1.07,0.08-1.6,0.15v-0.1c0.57-0.03,1.2-0.1,1.9-0.2
					c0.1,0,0.17,0,0.2,0C17.75,540.3,17.85,540.3,17.93,540.3z M54.53,540.3h-3.1c-6.4-0.03-12.8-0.05-19.2-0.05
					c1.9-0.03,3.77-0.1,5.6-0.2c10.17,0.03,20.35,0.1,30.55,0.2v0.15C63.85,540.3,59.23,540.27,54.53,540.3z M55.48,537.8
					c-0.2,0.57-1.48,0.9-3.85,1c-9,0.3-17.83,0.32-26.5,0.05c6.33-0.13,12.77-0.3,19.3-0.5c-2.83-0.07-5.67-0.13-8.5-0.2v-0.2
					c4.13,0,8.28,0.07,12.45,0.2C50.72,538.02,53.08,537.9,55.48,537.8z M71.48,536.35c-10.23-0.1-20.78,0-31.65,0.3
					c-6.43,0.23-12.78,0.28-19.05,0.15v-0.15c3.03,0.13,6.17,0.05,9.4-0.25c0.07,0,0.15,0,0.25,0c3.97-0.03,7.87-0.15,11.7-0.35
					c9.83,0.07,19.62,0.13,29.35,0.2V536.35z M19.13,537.95c-0.4-0.23-0.77-0.5-1.1-0.8c-1.1-1.03-2.4-1.23-3.9-0.6
					c0.27,0.17,0.55,0.33,0.85,0.5l0.1,0.1c0.33,0.13,0.53,0.33,0.6,0.6c-0.57,0.47-1.5,0.5-2.8,0.1c-0.47-0.17-0.93-0.33-1.4-0.5
					c-0.07-0.07-0.15-0.12-0.25-0.15c0-0.1,0-0.22,0-0.35c0-0.03,0-0.1,0-0.2c0.03,0,0.05-0.02,0.05-0.05
					c0.19-0.16,0.39-0.3,0.57-0.4c-0.06,0.03-0.19,0.05-0.38,0.05c-0.47,0.13-0.68,0.05-0.65-0.25l0.05-0.05
					c0.13-0.13,0.37-0.2,0.7-0.2c3.4-0.5,5.82-0.02,7.25,1.45C19.07,537.43,19.17,537.68,19.13,537.95z M11.98,536.8
					c0.77,0.53,1.58,0.72,2.45,0.55c-0.4-0.23-0.73-0.48-1-0.75c-0.13-0.13-0.3-0.18-0.5-0.15c-0.2,0.1-0.45,0.2-0.75,0.3
					C12.12,536.75,12.05,536.77,11.98,536.8z M9.33,538.6c4.1-0.23,7.65-0.17,10.65,0.2v0.05c-3.5,0.83-7.05,0.77-10.65-0.2V538.6z
					 M17.58,537.15c-0.67,0.3-1.27,0.23-1.8-0.2c-0.03-0.07-0.05-0.13-0.05-0.2c0.93-0.1,1.53,0,1.8,0.3L17.58,537.15z
					 M24.93,534.95c4.1-0.1,7.57,0.02,10.4,0.35v0.1c-3.43,0-6.88-0.08-10.35-0.25C24.95,535.15,24.93,535.08,24.93,534.95z
					 M251.43,539.05c-0.9-0.03-1.77-0.05-2.6-0.05s-1.63,0.02-2.4,0.05c-0.43,0-0.8,0.05-1.1,0.15c0.03-0.2,0.27-0.32,0.7-0.35
					c1.7-0.13,3.4-0.27,5.1-0.4c0.53-0.03,1.05-0.07,1.55-0.1c-0.5,0-1.02,0.02-1.55,0.05c-0.47,0-0.67-0.15-0.6-0.45v-0.1
					c-0.03-0.17,0.17-0.23,0.6-0.2c0.2,0.07,0.33,0.07,0.4,0c0.2-0.03,0.33-0.07,0.4-0.1c8.03,0,15.97,0.1,23.8,0.3v0.1
					c-3.2,0.03-6.38,0.1-9.55,0.2c-4.73,0.13-9.5,0.42-14.3,0.85C251.72,539,251.57,539.02,251.43,539.05z M251.63,540.45
					c2.2,0,4.65-0.07,7.35-0.2c2.1-0.1,4.17-0.23,6.2-0.4c1.93,0.03,3.85,0.1,5.75,0.2c0.07,0,0.1,0.02,0.1,0.05
					c-5.8,0.5-11.75,0.83-17.85,1C252.02,541.2,251.5,540.98,251.63,540.45z M271.88,535.55c-1.67,0.1-3.37,0.18-5.1,0.25
					c-0.63,0-1.2,0.03-1.7,0.1c-0.73,0.03-1.27,0.13-1.6,0.3c-0.23,0.03-0.45,0.05-0.65,0.05c-4.3,0.5-8.22,0.38-11.75-0.35
					c7.03-0.07,14.1-0.37,21.2-0.9C272.25,535.23,272.12,535.42,271.88,535.55z M275.38,541.65c0,0.03,0,0.07,0,0.1
					c-4.23,0.5-8.62,0.5-13.15,0c3.53-0.07,7.18-0.17,10.95-0.3C274.68,541.02,275.42,541.08,275.38,541.65z"/>
				<path fill-rule="evenodd" clip-rule="evenodd" fill="#8B3810" d="M154.13,542.05c0.93-0.07,1.9-0.1,2.9-0.1
					c1.9-0.03,3.83-0.1,5.8-0.2c0.27,0.07,0.5,0.1,0.7,0.1c0.17,0,0.37,0.02,0.6,0.05c0.5,0,0.97,0.02,1.4,0.05v0.15
					c-0.43,0-0.9,0.02-1.4,0.05c-0.47,0-0.93,0.03-1.4,0.1c-1.67,0.07-3.33,0.13-5,0.2c-0.6,0.03-1.2,0.07-1.8,0.1
					c-0.3,0-0.63,0-1,0c-0.4,0-0.78,0-1.15,0c-7.9,0.27-15.73,0.3-23.5,0.1c5.43-0.13,10.88-0.27,16.35-0.4h0.1
					C149.2,542.18,151.67,542.12,154.13,542.05z M200.48,538.4l-8.6-0.2c-0.57-0.03-1.13-0.08-1.7-0.15c0.6,0,1.23,0,1.9,0
					c4.77-0.07,9.58-0.2,14.45-0.4c0.47,0.07,0.93,0.12,1.4,0.15c0.3,0,0.6,0.02,0.9,0.05c0.03,0,0.05,0.03,0.05,0.1
					C206.12,538.15,203.32,538.3,200.48,538.4z M208.43,540.2c0.3,0,0.62,0,0.95,0c2.07-0.1,4.18-0.17,6.35-0.2
					c0.8,0.03,1.57,0.1,2.3,0.2c0.07,0,0.1,0.02,0.1,0.05c-0.47,0.03-0.9,0.08-1.3,0.15c-2.07,0.07-4.12,0.15-6.15,0.25
					c-0.47-0.03-0.93-0.05-1.4-0.05c-0.97-0.07-1.95-0.13-2.95-0.2c-0.4-0.07-0.8-0.12-1.2-0.15
					C206.23,540.25,207.33,540.23,208.43,540.2z M175.28,541.9c-0.27,0.03-0.53,0.05-0.8,0.05c0-0.03,0.02-0.07,0.05-0.1
					c0.1-0.1,0.22-0.2,0.35-0.3c0.27-0.07,0.6-0.13,1-0.2c2.37-0.17,4.75-0.38,7.15-0.65c0.3-0.03,0.6-0.07,0.9-0.1
					c0.1,0,0.17,0,0.2,0c1.2-0.2,2.4-0.33,3.6-0.4c2.07-0.27,4.15-0.5,6.25-0.7c4,0.07,7.95,0.13,11.85,0.2c0.07,0,0.1,0.03,0.1,0.1
					c-4.37-0.1-8.83,0.05-13.4,0.45c-0.07,0-0.17,0-0.3,0c-2.17,0.17-4.35,0.4-6.55,0.7c-0.6,0.1-1.18,0.17-1.75,0.2
					c-1.5,0.2-2.98,0.37-4.45,0.5C178.05,541.78,176.65,541.87,175.28,541.9z M183.93,536.45c-4.07,0-8.15-0.07-12.25-0.2
					c0.41-0.03,0.83-0.05,1.28-0.05h0.38c0.17,0,0.35,0,0.55,0c3.33-0.1,6.68-0.18,10.05-0.25c3.8-0.1,7.62-0.22,11.45-0.35
					c1.37,0.07,2.73,0.13,4.1,0.2v0.1c-1.63,0.1-3.22,0.18-4.75,0.25C191.17,536.32,187.57,536.42,183.93,536.45z M121.43,540.8
					c-0.1-0.07-0.17-0.13-0.2-0.2c7.9,0.3,15.85,0.12,23.85-0.55c-0.13,0.38-0.54,0.68-1.25,0.88c-0.04,0.01-0.07,0.02-0.1,0.03
					c-0.03,0-0.07,0-0.1,0c-0.07,0-0.12,0-0.15,0c-0.8,0.13-1.88,0.18-3.25,0.15c-5.83-0.1-11.63-0.12-17.4-0.05
					C122.17,541.05,121.7,540.97,121.43,540.8z M207.63,542.95c-7.07,0.07-14.1,0.03-21.1-0.1v-0.3c7,0.07,14.03,0.13,21.1,0.2
					V542.95z M227.73,543.25c0.23-0.07,0.52-0.12,0.85-0.15c0.83-0.03,1.6-0.08,2.3-0.15c1.2,0,2.37,0.03,3.5,0.1
					c2.57,0.07,5.02,0.18,7.35,0.35c-4.1,0.1-8.38,0.23-12.85,0.4c-1.53,0.1-3.07,0.17-4.6,0.2v-0.1c0.3-0.2,0.8-0.37,1.5-0.5
					C226.42,543.37,227.07,543.32,227.73,543.25z M245.18,540.1v-0.05c2.13,0.03,4.25,0.1,6.35,0.2v0.15
					c-1.7,0.2-3.95,0.38-6.75,0.55c-1.23,0.1-1.8-0.08-1.7-0.55v-0.1C243.68,540.23,244.38,540.17,245.18,540.1z M57.53,538.45
					c3.03,0.03,6.08,0.1,9.15,0.2v0.2c-2.97,0.1-5.93,0.15-8.9,0.15C57.28,539,57.2,538.82,57.53,538.45z M54.53,540.3
					c1.03,0.07,2.05,0.1,3.05,0.1v0.05c-3.87-0.03-7.82-0.05-11.85-0.05l-8.95,0.1c-1.27,0.07-2.55,0.12-3.85,0.15l-10.3,0.3
					c-1.43,0.07-2.87,0.13-4.3,0.2c-1.97,0.1-3.7-0.05-5.2-0.45c0.77-0.03,1.57-0.07,2.4-0.1c0.53-0.07,1.07-0.12,1.6-0.15
					c0.1,0,0.17-0.02,0.2-0.05c0.22-0.06,0.42-0.1,0.6-0.1h0.25c0.77-0.03,1.52-0.07,2.25-0.1c3.93,0,7.87,0.02,11.8,0.05
					c6.4,0,12.8,0.02,19.2,0.05H54.53z M33.68,541.85c-0.3,0-0.58,0-0.85,0c-1.2,0-2.37-0.03-3.5-0.1v-0.2
					c10.23,0.07,20.47,0.13,30.7,0.2v0.2C51.27,541.95,42.48,541.92,33.68,541.85z M19.13,537.95c1.9-0.4,4.1-0.57,6.6-0.5
					c0.17,0,0.32,0,0.45,0c0.93-0.27,1.38-0.2,1.35,0.2v0.1c-2.73,0.4-5.73,0.55-9,0.45v-0.15C18.7,538.02,18.9,537.98,19.13,537.95
					z M245.33,539.2c0.3-0.1,0.67-0.15,1.1-0.15c0.77-0.03,1.57-0.05,2.4-0.05s1.7,0.02,2.6,0.05c3.8,0,7.53-0.12,11.2-0.35
					c4.17,0.07,8.35,0.13,12.55,0.2v0.1c-9.1,0.2-18.37,0.5-27.8,0.9c-1.33,0.1-2.42-0.05-3.25-0.45
					C244.43,539.32,244.83,539.23,245.33,539.2z M263.48,536.2c0.33-0.17,0.87-0.27,1.6-0.3c0.5-0.07,1.07-0.1,1.7-0.1
					c1.73-0.07,3.43-0.15,5.1-0.25c0.23,0,0.43-0.02,0.6-0.05c1.6,0.03,3.22,0.1,4.85,0.2v0.1c-3.63,0.13-7.4,0.38-11.3,0.75
					c-1.13,0.13-1.98,0.03-2.55-0.3V536.2z"/>
			</g>
			<g>
				<path fill-rule="evenodd" clip-rule="evenodd" fill="#9E5A1D" fill-opacity="0.4588" d="M165.19,504.97
					c2.02-0.1,4.05-0.17,6.07-0.2c1.08-0.07,2.23-0.07,3.44,0c0.78,0,1.57,0.02,2.38,0.05c-0.84,0-1.67,0.05-2.48,0.15
					c-15.08,0.64-30.15,1.08-45.23,1.32c-20.1,0.24-40.09,0.3-59.95,0.2c-2.87-0.03-5.67-0.19-8.4-0.46c-1.45-0.24-2.78-0.39-4-0.45
					c24.39,0.88,49.19,1.06,74.42,0.56c8.74-0.2,17.51-0.46,26.31-0.76c1.25-0.07,2.5-0.12,3.74-0.15
					C162.68,505.09,163.91,505.01,165.19,504.97z M146.72,511.3c-2.8,0.24-5.48,0.34-8.04,0.3c-6.51,1.01-13.12,1.21-19.83,0.61
					v-0.1c2.6-0.57,5.35-1.01,8.25-1.32c3.84-0.4,7.47-0.47,10.88-0.2c-2.5,0-4.94,0.29-7.34,0.86c0.24-0.03,0.49-0.08,0.76-0.15
					c-1.15,0.64-2.13,0.71-2.94,0.2c0-0.2,0.1-0.35,0.3-0.46c-2.83,0.27-5.67,0.61-8.5,1.01c5.5,0.44,11.25,0.25,17.25-0.56
					c-1.45-0.07-2.78-0.17-4-0.3c1.75,0,3.54,0.03,5.36,0.1c2.29-0.34,4.67-0.79,7.13-1.37c-6.58-0.24-13.17-0.27-19.78-0.1
					c2.5-0.13,4.99-0.3,7.49-0.51c3.95,0,7.91,0.07,11.89,0.2c0.47,0,0.74,0.14,0.81,0.41c-2.12,0.57-4.2,1.03-6.22,1.37
					c2.09,0,4.3-0.02,6.63-0.05L146.72,511.3z M153.75,516v-0.05c1.32-0.03,2.61-0.08,3.9-0.15c0.64-0.07,1.27-0.1,1.87-0.1
					c3.64,0,7.27,0.02,10.88,0.05c3.37-0.03,6.76-0.03,10.17,0v0.05c-3.41,0-6.81,0.05-10.22,0.15c-3.68,0.03-7.35,0.13-11.03,0.3
					c-2.06,0-3.93-0.07-5.62-0.2L153.75,516z M160.53,516.96c3.17-0.1,6.34-0.2,9.51-0.3c6.48-0.27,12.95-0.44,19.43-0.51
					c7.39-0.17,14.79-0.3,22.21-0.4c0.41,0,0.81-0.02,1.21-0.05c1.32,0,2.67,0.02,4.05,0.05v0.05c-9.21,0.24-18.43,0.49-27.67,0.76
					c-6.48,0.17-12.92,0.32-19.33,0.46c-1.89,0-3.74,0.05-5.57,0.15C163,517.16,161.71,517.1,160.53,516.96z M162.56,512.05
					c-6.14,0.71-11.99,1-17.56,0.86c6.21-0.04,12.55-0.54,19.02-1.52c-3.17,0-6.32,0-9.46,0c3.51-0.07,7.02-0.14,10.52-0.2
					c-0.3,0.07-0.66,0.13-1.06,0.2c0.37,0,0.76,0,1.16,0c0-0.07,0-0.14,0-0.2c2.29,0,4.64-0.03,7.03-0.1
					c6.48-0.07,12.97-0.15,19.48-0.25c3.58-0.03,7.2-0.07,10.88-0.1c0.27,0.07,0.22,0.1-0.15,0.1c-3.58,0.03-7.17,0.08-10.78,0.15
					c-6.48,0.07-12.99,0.17-19.53,0.3c-1.72,0-3.41,0.03-5.06,0.1c-0.67-0.07-1.3-0.07-1.87,0
					C164.95,511.6,164.08,511.82,162.56,512.05z M39.33,516.5c-6.14,0.71-11.99,1-17.56,0.86c6.21-0.04,12.55-0.54,19.02-1.52
					c-3.17,0-6.32,0-9.46,0c3.51-0.07,7.02-0.14,10.52-0.2c-0.3,0.07-0.66,0.13-1.06,0.2c0.37,0,0.76,0,1.16,0c0-0.07,0-0.14,0-0.2
					c2.29,0,4.64-0.03,7.03-0.1c6.48-0.07,12.97-0.15,19.48-0.25c3.58-0.03,7.2-0.07,10.88-0.1c0.27,0.07,0.22,0.1-0.15,0.1
					c-3.58,0.03-7.17,0.08-10.78,0.15c-6.48,0.07-12.99,0.17-19.53,0.3c-1.72,0-3.41,0.03-5.06,0.1c-0.67-0.07-1.3-0.07-1.87,0
					C41.73,516.04,40.85,516.26,39.33,516.5z M155.78,509.63c-1.79-0.07-3.19-0.3-4.2-0.71c4.32,0.34,8.69,0.61,13.1,0.81
					C161.71,509.73,158.75,509.69,155.78,509.63z M140.7,508.26c2.16,0.03,4.3,0.08,6.43,0.15c-13.39,0.27-26.88,0.34-40.48,0.2
					c10.66-0.13,21.3-0.22,31.92-0.25C139.32,508.29,140.03,508.26,140.7,508.26z M132.05,510.79c-0.61,0.03-1.25,0.07-1.92,0.1
					c0,0.2-0.46,0.37-1.37,0.51c-0.03,0-0.07,0.02-0.1,0.05c0.47,0.03,0.98,0.03,1.52,0c0.78-0.41,1.65-0.64,2.63-0.71
					C132.57,510.74,132.32,510.76,132.05,510.79z M126.43,519.34c-12.55,0.88-25.13,1.05-37.74,0.51
					c12.18,0.2,24.35,0.02,36.53-0.56c0.4,0,0.85,0,1.34,0C126.48,519.29,126.43,519.31,126.43,519.34z M129.72,520.96
					c11.54,0.81,23.64,0.83,36.33,0.05c0.74-0.03,1.52-0.05,2.33-0.05c6.51-0.4,13.04-0.76,19.58-1.06
					c7.46-0.3,14.94-0.59,22.46-0.86c8.13-0.27,16.28-0.49,24.44-0.66c2.33,0,4.62,0.02,6.88,0.05
					c-12.99,0.27-26.11,0.69-39.36,1.26c-4.92,0.24-9.8,0.46-14.62,0.66c-6.54,0.27-13.02,0.56-19.43,0.86
					c-5.5,0.24-10.93,0.49-16.29,0.76c-7.72,0.37-15.08,0.15-22.06-0.66C129.64,521.21,129.55,521.09,129.72,520.96z M130.38,515.75
					c-1.01-0.03-1.84-0.1-2.48-0.2c3.14,0.03,6.29,0.1,9.46,0.2c-2.23,0-4.42,0-6.58,0C130.65,515.71,130.51,515.71,130.38,515.75z
					 M138.17,517.98c0.07-0.14,0.15-0.19,0.25-0.15c10.35,0.1,20.74,0.12,31.17,0.05c1.89,0,3.79-0.02,5.72-0.05
					c0.61,0,1.23-0.02,1.87-0.05c3.88,0.03,7.76,0.05,11.64,0.05c0.94,0,1.92,0,2.93,0v0.05c-1.01,0-2.01,0.03-2.98,0.1
					c-6.44,0.07-12.88,0.13-19.33,0.2c-10.46,0.03-20.88-0.02-31.27-0.15V517.98z M137.36,525.26c-1.89-0.03-3.69-0.05-5.41-0.05
					c-1.05-0.1-1.8-0.3-2.28-0.61C132.2,524.81,134.76,525.02,137.36,525.26z M134.48,527.49c10.19,0.47,20.52,0.76,31.01,0.86
					c6.31-0.03,12.65-0.1,19.02-0.2c7.29-0.17,14.72-0.46,22.31-0.86c2.63-0.2,5.31-0.32,8.04-0.35c2.19-0.1,4.38-0.17,6.58-0.2
					h0.05c-0.57-0.13-1.13-0.27-1.67-0.4c-8.16,0.1-16.29,0.05-24.39-0.15c-0.17-0.03-0.19-0.14-0.05-0.3
					c7.96,0.13,15.94,0.22,23.93,0.25c-0.1-0.03-0.17-0.05-0.2-0.05c-0.07-0.1-0.05-0.17,0.05-0.2c0.13,0.07,0.32,0.15,0.56,0.25
					c2.19-0.03,4.4-0.05,6.63-0.05c0.2-0.1,0.44-0.17,0.71-0.2c0.47,0,0.95,0.03,1.42,0.1v0.1c0-0.07,0.07-0.07,0.2,0
					c-0.03,0-0.08,0-0.15,0c-0.78,0.2-1.54,0.4-2.28,0.61c0.2,0,0.4,0.02,0.61,0.05c-1.52,0.1-2.99,0.17-4.4,0.2
					c-0.71,0.14-1.4,0.32-2.07,0.56c-0.51,0.14-0.84,0.35-1.01,0.66c2.16,0.47,4.72,0.67,7.69,0.61c-2.77,0.14-5.4,0.07-7.89-0.2
					c0.13-0.64,0.62-1.16,1.47-1.57c-12.11,0.47-24.18,0.88-36.23,1.21c-1.38,0.07-2.8,0.12-4.25,0.15
					c-4.96,0.07-9.87,0.15-14.72,0.25c-9.61,0.03-19.17-0.07-28.69-0.3C135.51,528.23,134.75,527.96,134.48,527.49z M164.23,531.84
					c0.13,0,0.24,0,0.33,0c-0.09,0-0.22,0.02-0.38,0.05c-13.56,0.57-27.02,0.86-40.37,0.86c-9.58,0-19.11-0.15-28.59-0.46
					c-0.27,0-0.52,0-0.76,0c-2.9,0.13-5.06-0.2-6.48-1.01c2.66,0.67,5.63,1.01,8.9,1.01c17.94-0.13,35.94-0.29,53.98-0.46
					C155.69,531.77,160.15,531.77,164.23,531.84z M150.67,526.98c-26.48,0-52.92-0.02-79.33-0.05c-1.69,0-3.22-0.05-4.6-0.15
					c1.28-0.13,2.68-0.2,4.2-0.2c26.68,0.1,53.43,0.08,80.24-0.05c1.11,0,2.23-0.05,3.34-0.15h0.05
					C153.85,526.78,152.56,526.98,150.67,526.98z M121.68,513.67c-10.86,0.03-21.74,0.17-32.63,0.4c-4.45,0.07-8.9,0.41-13.36,1.01
					c-8.7,1.05-17.03,1.4-24.99,1.06c0.07-0.1,0.17-0.15,0.3-0.15c4.01,0.27,8.09,0.2,12.24-0.2c8.67-0.98,17.32-1.74,25.95-2.28
					c10.83,0,21.65,0.02,32.48,0.05V513.67z M100.02,512.66c-6.81-0.04-14.13,0.12-21.96,0.45c-3.58,0.1-6.98,0.07-10.22-0.1v-0.1
					c2.29-0.07,4.59-0.1,6.88-0.1c0.07-0.07,0.17-0.07,0.3,0c1.48-0.2,2.92-0.32,4.3-0.35c6.88,0.03,13.81,0.08,20.79,0.15
					L100.02,512.66z M60.52,507.16c-6.81-0.04-14.13,0.12-21.96,0.45c-3.58,0.1-6.98,0.07-10.22-0.1v-0.1
					c2.29-0.07,4.59-0.1,6.88-0.1c0.07-0.07,0.17-0.07,0.3,0c1.48-0.2,2.92-0.32,4.3-0.35c6.88,0.03,13.81,0.08,20.79,0.15
					L60.52,507.16z M97.09,528.85c-12.48,0.2-25.06,0.57-37.74,1.11c-4.32,0.13-8.62,0.29-12.9,0.46
					c17.98-0.03,36.02-0.02,54.14,0.05v0.1c-21.86,0.3-43.59,0.3-65.22,0c-6.61-0.07-13.17-0.17-19.68-0.3
					c3.51,0,7.05,0.03,10.62,0.1v-0.1c0-0.03,0.03-0.07,0.1-0.1l-0.1-0.1c2.46,0.07,5.01,0.14,7.64,0.2
					c9.01-0.07,18.1-0.29,27.27-0.66c9.51-0.4,19.04-0.69,28.59-0.86c2.4,0,4.82,0.02,7.29,0.05V528.85z M117.33,530.67
					c15.62,0.1,31.3,0.19,47.05,0.25c-17.74,0.37-35.35,0.35-52.82-0.05l0.05-0.05c0-0.03,0.03-0.08,0.1-0.15v-0.05
					C113.5,530.62,115.37,530.64,117.33,530.67z M86.31,510.64c-11.27,0.44-22.41,0.47-33.44,0.1c-0.5-0.09-1-0.14-1.49-0.15
					c0.59,0,1.19,0,1.8,0c1.18-0.37,2.33-0.78,3.44-1.21c0.1,0.03,0.19,0.12,0.25,0.25l-0.46,0.2c-1.08,0.24-2.11,0.49-3.09,0.76
					c8.16-0.03,16.65-0.12,25.45-0.25c2.6-0.1,5.18-0.22,7.74-0.35c7.76,0,15.55,0.05,23.37,0.15
					C102.03,510.17,94.17,510.33,86.31,510.64z M87.58,524.05c26.48-0.17,53.12-0.39,79.94-0.66c0.81,0,1.65,0,2.53,0
					c0.27-0.03,0.52-0.05,0.76-0.05c0.98,0,1.97,0.02,2.98,0.05l-0.05,0.05c-2.09,0.03-4.22,0.05-6.37,0.05
					c-12.11,0.2-24.35,0.47-36.73,0.81C116.13,524.67,101.78,524.59,87.58,524.05z M242.7,505.43c0.71,0.57,1.48,1.2,2.33,1.87v0.05
					c-1.21-0.3-1.97-0.89-2.28-1.77C242.68,505.48,242.66,505.43,242.7,505.43z M243.71,507.7c-7.45-0.27-15.55,0.15-24.29,1.26
					c-2.56,0.3-4.91,0.44-7.03,0.41c6.04-0.51,12.21-1.08,18.52-1.72c2.53-0.34,4.98-0.51,7.34-0.51c1.92,0,3.9,0.05,5.92,0.15
					l-0.05,0.05c-0.07,0-0.1,0.03-0.1,0.1c-0.17,0.3-0.3,0.62-0.41,0.96c-3.88,0.67-7.42,0.78-10.63,0.3
					c3.61-0.44,7.12-0.66,10.52-0.66C243.57,508.06,243.64,507.94,243.71,507.7z M236.07,508.56c0.54-0.03,1.1-0.05,1.67-0.05
					c-0.51-0.01-1-0.04-1.47-0.1C235.7,508.51,235.63,508.56,236.07,508.56z M231.72,512.86c1.01,0,2.08,0.02,3.19,0.05l-0.05,0.1
					c-14.47,0.84-28.99,1.64-43.56,2.38c-0.54-0.03-1.05,0-1.52,0.1c-2.29,0.03-4.57,0.07-6.83,0.1c-0.57,0-1.11,0-1.62,0
					c2.8-0.1,5.65-0.2,8.55-0.3c10.83-0.4,21.77-0.99,32.84-1.77c2.77-0.17,5.58-0.37,8.45-0.61c0-0.04,0.09-0.04,0.25,0
					C231.52,512.88,231.62,512.86,231.72,512.86z M246.49,520.56c3.44,0,6.85,0.07,10.22,0.2c0.07,0,0.15,0.05,0.25,0.15
					c-0.27,0.34-0.61,0.51-1.01,0.51c-3.04-0.37-6.22-0.59-9.56-0.66C246.12,520.76,246.15,520.69,246.49,520.56z M241.48,510.23
					c-0.03,0.2-0.08,0.4-0.15,0.61c0.54-0.03,1.13-0.05,1.77-0.05c2.26,0,4.6-0.07,7.03-0.2c-0.13-0.13-0.27-0.27-0.4-0.4
					c-0.04-0.03-0.04-0.05,0-0.05c0.24,0.13,0.44,0.27,0.61,0.4c0.61-0.1,1.25-0.15,1.92-0.15c-0.61,0.03-1.2,0.1-1.77,0.2
					c0.91,0.71,1.82,1.42,2.73,2.13c1.72-0.03,2.36,0.52,1.92,1.67c0.34,0.24,0.62,0.49,0.86,0.76v0.05
					c-0.34-0.2-0.66-0.41-0.96-0.61c-0.07,0-0.1,0.03-0.1,0.1c-1.52,0-2.75-0.24-3.69-0.71h-0.05c-2.36-0.2-3.39-1.2-3.09-2.99
					l0.05-0.1c0,1.35,0.96,2.36,2.88,3.04c-0.64-0.37-1.1-0.86-1.37-1.47c-0.13-0.13-0.13-0.29,0-0.46
					c0.34,0.27,0.64,0.62,0.91,1.06c0.07,0,0.12,0.02,0.15,0.05c0.03,0.14,0.13,0.14,0.3,0c0-0.13,0.05-0.2,0.15-0.2
					c0.51-0.14,1-0.2,1.47-0.2c-0.84-0.67-1.67-1.37-2.48-2.07c-2.9,0.37-5.85,0.64-8.85,0.81c-0.03,0.03-0.03,0.12,0,0.25
					c-0.07-0.13-0.1-0.22-0.1-0.25c-3.04,0.13-6.14,0.2-9.31,0.2c-5.33-0.04-10.68,0.17-16.04,0.61c8.23-0.91,16.56-1.38,24.99-1.42
					C240.88,510.64,241.08,510.44,241.48,510.23z M245.53,514.99c3.88,1.25,8.25,1.91,13.1,1.97c-6.31,0.3-11.01-0.49-14.12-2.38
					C244.82,514.69,245.16,514.82,245.53,514.99z M225.39,517.77c0.07,0,0.14,0.02,0.2,0.05c-10.76,0.47-21.55,0.66-32.38,0.56
					c10.29-0.13,20.64-0.39,31.07-0.76C224.62,517.65,224.99,517.7,225.39,517.77z M225.6,526.17c-1.72,0.07-3.44,0.12-5.16,0.15
					c0.57,0.03,1.2,0.1,1.87,0.2c0.37-0.1,0.76-0.15,1.16-0.15C224.15,526.31,224.85,526.24,225.6,526.17z M222.66,524.45
					c6.04-0.27,11.87-0.19,17.51,0.25c-3.14-0.17-6.41-0.13-9.82,0.1c-3.34,0.13-5.92,0.02-7.74-0.35H222.66z M241.64,507.65
					c6.04-0.27,11.87-0.19,17.51,0.25c-3.14-0.17-6.41-0.13-9.82,0.1c-3.34,0.13-5.92,0.02-7.74-0.35H241.64z M225.95,532.09
					c-9.21,0.37-18.47,0.57-27.78,0.61c-5.16-0.03-10.34-0.1-15.53-0.2c-2.22-0.1-4.45-0.17-6.68-0.2c-0.27,0-0.54,0-0.81,0
					c-1.08,0-1.67-0.19-1.77-0.56c0.95,0.1,1.96,0.17,3.04,0.2c2.16,0,4.33,0,6.53,0c11.94,0.07,24,0.05,36.17-0.05
					C221.48,531.85,223.76,531.92,225.95,532.09z M209.1,522.17c9.31,0.44,19.02,0.39,29.14-0.15c0.94-0.13,1.87-0.22,2.78-0.25
					c0.67,0.03,1.35,0.05,2.02,0.05v0.1c-10.93,0.81-21.65,0.96-32.18,0.46C210.17,522.27,209.58,522.21,209.1,522.17z
					 M245.58,525.66h-0.05c-0.81,0.2-1.62,0.42-2.43,0.66c0.03,0,0.07,0,0.1,0c0.34-0.03,0.66-0.05,0.96-0.05
					c0.4,0.14-0.41,0.36-2.43,0.66c-0.98,0.14-1.57,0.2-1.77,0.2c0.61-0.41,1.52-0.66,2.73-0.76c0.3-0.34,0.79-0.52,1.47-0.56
					c-2.09-0.1-4.22-0.2-6.38-0.3l0.1-0.05c2.56,0,5.13,0.05,7.69,0.15V525.66z M239.56,526.58c-1.75-0.2-3.66-0.24-5.72-0.1
					c-1.92,0.03-3.64,0.27-5.16,0.71c2.83,0.41,5.94,0.51,9.31,0.3c4.42-0.34,8.84-0.79,13.26-1.37c-1.82-0.44-3.71-0.78-5.67-1.01
					c2.09,0.2,4.18,0.46,6.27,0.76v0.1c-2.06,0.78-4.27,1.25-6.63,1.42c-5.5,0.24-10.89,0.3-16.19,0.2c-0.24,0-0.42-0.02-0.56-0.05
					c-0.24,0.57,0.79,0.64,3.09,0.2c0.03,0,0.1,0,0.2,0c-1.52,0.44-2.88,0.56-4.1,0.35c0.13-0.27,0.35-0.51,0.66-0.71
					c-0.07-0.14-0.03-0.27,0.1-0.41c0.84-0.3,1.84-0.47,2.99-0.51c0.88-0.07,1.77-0.12,2.68-0.15c2.33-0.27,4.43-0.27,6.32,0
					c-0.03,0-0.05,0.02-0.05,0.05c-0.13,0.2-0.34,0.37-0.61,0.51c-0.47,0.17-0.81,0.24-1.01,0.2l0.05-0.1
					c-0.03-0.03-0.02-0.05,0.05-0.05c0.07,0,0.13-0.02,0.2-0.05L239.56,526.58z M245.23,532.44c2.83,0.13,5.8,0.22,8.9,0.25
					c-2.26,0-4.5,0-6.73,0C246.49,532.7,245.77,532.61,245.23,532.44z M229.64,526.07c-0.27-0.07-0.54-0.07-0.81,0
					c0.17-0.07,0.32-0.1,0.46-0.1C229.43,525.97,229.54,526,229.64,526.07z M227.82,526.12c-1.18,0.03-2.39,0.19-3.64,0.46
					c1.35-0.03,2.77-0.2,4.25-0.51C228.19,526.07,227.99,526.09,227.82,526.12z M228.33,528.75c1.21,0.27,2.68,0.41,4.4,0.41
					c-2.16,0.3-3.63,0.19-4.4-0.35V528.75z M233.03,531.23c-8.13,0.14-16.24,0.27-24.34,0.41c8.09-0.37,16.17-0.54,24.23-0.51
					L233.03,531.23z M236.32,528.95c1.28-0.27,2.65-0.41,4.1-0.41c-0.95,0.34-2.31,0.49-4.1,0.46V528.95z M230.1,532.55
					c5.77,0.24,11.84-0.1,18.21-1.01c3.54-0.51,6.9-0.76,10.07-0.76c-4.62,0.37-9.31,0.88-14.07,1.52
					c-3.31,0.41-6.46,0.61-9.46,0.61c-1.79-0.03-3.51-0.1-5.16-0.2c2.63-1.08,5.67-1.75,9.11-2.02c5.77-0.47,11.49-0.74,17.15-0.81
					c1.52-0.04,3.04-0.04,4.55,0c-0.03,0.07-0.03,0.1,0,0.1c-8.4-0.1-17,0.41-25.8,1.52C233.15,531.65,231.62,532.01,230.1,532.55z
					 M232.17,506.29c-7.83,0.44-16.16,0.63-24.99,0.56c-1.42-0.07-2.56-0.19-3.44-0.35c0-0.03,0.03-0.03,0.1,0
					c0.07-0.13,0.2-0.19,0.41-0.15c0.88-0.04,1.79-0.07,2.73-0.1c0.37,0,0.71-0.03,1.01-0.1
					C216.09,506.14,224.15,506.19,232.17,506.29z M189.83,508.36c-0.14,0.03-0.27,0.12-0.41,0.25c-4.99-0.91-10.29-1.23-15.89-0.96
					c-2.26,0.07-4.55,0.27-6.88,0.61v-0.1c1.28-0.27,2.55-0.44,3.79-0.51c0.27,0,0.56-0.03,0.86-0.1c0.78-0.03,1.57-0.07,2.38-0.1
					c5.77-0.37,11.13-0.08,16.09,0.86L189.83,508.36z M191.7,509.37c0.24-0.03,0.44-0.03,0.61,0c6.98-0.41,13.73-0.47,20.24-0.2
					c-6.78,0.17-13.58,0.32-20.39,0.46c-1.79,0-3.58,0.03-5.36,0.1c-1.28,0.27-2.73,0.44-4.35,0.51c-3.44,0.1-6.71,0.02-9.82-0.25
					c-0.64-0.03-1.28-0.08-1.92-0.15c-0.51-0.07-0.66-0.22-0.46-0.46c0-0.1,0.03-0.12,0.1-0.05c0.88-0.27,1.8-0.47,2.78-0.61
					c3.47-0.57,6.85-0.61,10.12-0.1l-0.05,0.1c-0.37,0.17-0.83,0.27-1.37,0.3c-0.67,0.07-1.3,0.17-1.87,0.3
					c0-0.1,0.03-0.15,0.1-0.15c0.17-0.17,0.47-0.29,0.91-0.35c0.4-0.07,0.81-0.1,1.21-0.1h0.2c-2.97-0.3-6.07-0.24-9.31,0.2
					c-0.84,0.07-1.67,0.2-2.48,0.4c0.67,0.03,1.42,0.13,2.23,0.3c3.24,0.37,6.98,0.4,11.23,0.1c1.75-0.24,3.49-0.57,5.21-1.01
					c-0.74,0.34-1.57,0.64-2.48,0.91C188.44,509.49,190.08,509.41,191.7,509.37z M175.81,524.65c3.47-0.3,6.93-0.52,10.37-0.66
					c2.7-0.1,5.41-0.15,8.15-0.15c2.83,0,5.67-0.13,8.5-0.41c0.94,0,1.92,0.02,2.93,0.05c-6.61,0.34-13.2,0.66-19.78,0.96
					c-4.08,0.13-8.18,0.27-12.29,0.4C174.36,524.79,175.07,524.72,175.81,524.65z M168.53,531.08c2.63,0.17,5.28,0.35,7.94,0.56
					c-2.12-0.07-4.27-0.1-6.43-0.1c-0.81-0.07-1.35-0.22-1.62-0.46H168.53z M193.57,525.46c4.15,0.13,8.42,0,12.8-0.4
					C202.9,525.87,198.63,526,193.57,525.46z M72.25,519.14c-11.84,0.1-23.8,0.62-35.87,1.57c-0.44,0.03-0.86,0.05-1.26,0.05
					c1.99,1.08,4.32,1.89,6.98,2.43c-0.81-0.1-1.6-0.19-2.38-0.25c-2.5-0.37-4.35-1.13-5.57-2.28c7.02-0.4,14.25-0.86,21.7-1.37
					c3.64-0.17,7.18-0.3,10.62-0.4c1.99-0.13,3.91-0.07,5.77,0.2V519.14z M81.15,517.16c0.84,0.14,1.7,0.2,2.58,0.2
					c18.38,0.14,36.76,0.22,55.15,0.25c-18.45,0.03-36.85,0.03-55.2,0c-0.71,0-1.35-0.05-1.92-0.15c-0.13,0-0.25-0.02-0.35-0.05
					c-0.1-0.03-0.17-0.08-0.2-0.15c-0.1,0-0.12-0.02-0.05-0.05V517.16z M53.38,505.68c2.13,0.37,2.78,1.32,1.97,2.83
					c0.3-1.45-0.35-2.34-1.97-2.68V505.68z M50.9,508.16c-1.18,0-2.33-0.03-3.44-0.1v-0.1c3.2-0.34,5.72-0.15,7.54,0.56
					c-0.84-0.17-1.7-0.29-2.58-0.35c0.91,1.04,0.54,1.74-1.11,2.07c-0.3,0.1-0.59,0.22-0.86,0.35c-1.92,0.81-4.28,1.38-7.08,1.72
					c-0.13,0-0.25,0-0.35,0c2.56-0.47,4.97-1.11,7.23-1.92c-0.4,0-0.81,0.02-1.21,0.05v-0.05c0.54-0.03,1.1-0.1,1.67-0.2
					c0.61-0.17,1.2-0.39,1.77-0.66c0.2-0.37,0.19-0.83-0.05-1.37C51.88,508.13,51.37,508.13,50.9,508.16z M51.1,509.52
					c-0.88,0.3-1.94,0.59-3.19,0.86c-1.38,0.27-2.63,0.29-3.74,0.05c-0.1-0.03-0.1-0.05,0-0.05c-0.14-0.44,0.12-0.72,0.76-0.86
					c0.37-0.13,0.74-0.2,1.11-0.2c1.92-0.47,3.59-0.44,5.01,0.1C51.08,509.42,51.1,509.46,51.1,509.52z M44.88,514.18
					c1.65-0.2,3.31-0.3,4.96-0.3c4.01,0,8.06,0.02,12.14,0.05v0.05c-4.42,0-9.01,0.13-13.76,0.4c-1.99,0.13-3.96,0.19-5.92,0.15
					c0.15,0.03,0.31,0.05,0.48,0.05c-0.41,0-0.77-0.02-1.09-0.05c-1.62,0-3.2-0.05-4.76-0.15c0.98-0.17,2.13-0.24,3.44-0.2
					c-0.07-0.14-0.03-0.22,0.1-0.25c0.03,0.03,0.07,0.12,0.1,0.25c1.18-0.07,2.51-0.07,4,0C44.64,514.18,44.74,514.18,44.88,514.18z
					 M45.89,509.58c-0.71,0-1.2,0.15-1.47,0.46l-0.05,0.1c1.28,0.2,2.61,0.03,4-0.51c-0.81,0-1.62-0.02-2.43-0.05H45.89z
					 M51.71,520.66c0.54,0.44,1.57,0.59,3.09,0.46c-1.92,0.54-2.95,0.42-3.09-0.35C51.67,520.72,51.67,520.69,51.71,520.66z
					 M62.23,522.12c-1.79,0.41-3.78,0.71-5.97,0.91c-3.2,0.2-5.7-0.15-7.49-1.06c0.64,0.17,1.48,0.3,2.53,0.41
					c3.24,0.13,6.51,0.07,9.82-0.2c-2.73-0.1-5.46-0.19-8.2-0.25v-0.15c3.07,0.03,6.16,0.12,9.26,0.25
					C62.21,521.99,62.23,522.02,62.23,522.12z M80.34,521.97c0.17,0,0.34,0.02,0.51,0.05c-9.82,1.75-19.63,2.38-29.45,1.87
					c8.74-0.03,17.51-0.49,26.31-1.37C78.62,522.39,79.5,522.21,80.34,521.97z M81.15,523.14c0.2,0,0.4,0,0.61,0
					c6.61,0.07,13.24,0.13,19.88,0.2c-6.75,0-13.44,0.02-20.09,0.05C81.19,523.35,81.05,523.27,81.15,523.14z M69.57,528.19
					c-0.07,0-0.1,0.04-0.1,0.1c-15.75,0.71-31.55,1.03-47.41,0.96c-1.21,0-2.23-0.17-3.04-0.51c14.91,0.3,30.14,0.17,45.69-0.4
					c0.84-0.1,1.65-0.15,2.43-0.15C67.94,528.19,68.75,528.19,69.57,528.19z M79.79,521.92c-9.11-0.47-17.98-0.57-26.61-0.3
					C62.25,520.98,71.12,521.08,79.79,521.92z M42.85,513.12c0.94-0.24,1.89-0.45,2.83-0.66c-1.72,0.4-3.39,0.84-5.01,1.32
					C41.08,513.61,41.81,513.39,42.85,513.12z M43,511.19c1.62-0.27,3.32-0.49,5.11-0.66c-1.21,0.44-2.93,0.67-5.16,0.71L43,511.19z
					 M17.3,523.34c1.11,0.57,2.66,0.93,4.65,1.06c6.85,0.13,13.68-0.07,20.49-0.61c-6.51,0.98-13.44,1.31-20.79,1.01
					C19.46,524.67,18.01,524.18,17.3,523.34z M254.94,514.18c0.1-0.74-0.37-1.13-1.42-1.16
					C254.03,513.35,254.5,513.74,254.94,514.18z M251.96,514.74c0.54,0.51,1.25,0.91,2.13,1.21c0.03,0,0.05,0.02,0.05,0.05
					c-1.28,0-2.04-0.41-2.28-1.21L251.96,514.74z M251.35,513.12c0.17,1.08,1.35,1.54,3.54,1.37c-0.67-0.51-1.35-1-2.02-1.47
					C252.43,512.95,251.92,512.98,251.35,513.12z M249.17,513.73c0.37,0.71,1.23,1.04,2.58,1.01
					C250,515.11,249.14,514.77,249.17,513.73z M261.47,520.56c0.98,1.18,1.74,2.46,2.28,3.84c-0.07,0-0.07,0.02,0,0.05
					c-1.52,0.1-2.7-0.3-3.54-1.21c-0.2,0.37-0.27,0.73-0.2,1.06c-0.07,0.1-0.12,0.22-0.15,0.35c0.03-0.88-0.15-1.79-0.56-2.73
					c-0.07-0.13,0-0.3,0.2-0.51c0.41,1.28,1.65,2.28,3.74,2.99c-0.57-1.25-1.2-2.5-1.87-3.74
					C261.37,520.59,261.4,520.56,261.47,520.56z M266.68,525.46c-0.37-0.03-0.74-0.05-1.11-0.05c-0.27-0.07-0.24-0.17,0.1-0.3
					c0.27,0,0.59,0.03,0.96,0.1C266.53,525.24,266.54,525.33,266.68,525.46z M263.19,529.76c3.1,0.14,6.21,0.27,9.31,0.41
					c-3.24,0.07-6.36-0.05-9.36-0.35L263.19,529.76z M262.99,532.7c1.65-0.03,3.36-0.1,5.11-0.2c0.47,0,0.81-0.08,1.01-0.25
					c1.01-0.27,1.6-0.24,1.77,0.1c0,0.07,0,0.12,0,0.15c-1.01,0.03-2.14,0.08-3.39,0.15C265.97,532.68,264.47,532.7,262.99,532.7z
					 M257.52,527.69c-0.07,0-0.12-0.03-0.15-0.1c3.68-0.03,7.42-0.1,11.23-0.2c0.07,0.07,0.2,0.13,0.41,0.2l0.15,0.15
					C265.45,527.87,261.57,527.86,257.52,527.69z"/>
			</g>
		</g>
		<g>
			<g>
				
					<radialGradient id="SVGID_15_" cx="96.2837" cy="519.0493" r="27.1125" fx="96.9216" fy="519.0493" gradientTransform="matrix(1 0 0 0.1494 0 441.515)" gradientUnits="userSpaceOnUse">
					<stop  offset="0" style="stop-color:#000000;stop-opacity:0.498"/>
					<stop  offset="1" style="stop-color:#000000;stop-opacity:0"/>
				</radialGradient>
				<path fill-rule="evenodd" clip-rule="evenodd" fill="url(#SVGID_15_)" d="M90.03,520.5c-3.97-0.6-5.95-1.3-5.95-2.1
					c0-0.83,1.98-1.55,5.95-2.15c3.97-0.57,8.73-0.85,14.3-0.85c5.6,0,10.37,0.28,14.3,0.85c3.93,0.6,5.9,1.32,5.9,2.15
					c0,0.8-1.97,1.5-5.9,2.1c-3.93,0.63-8.7,0.95-14.3,0.95C98.77,521.45,94,521.13,90.03,520.5z"/>
				
					<radialGradient id="SVGID_16_" cx="190.4839" cy="516.6499" r="34.8" fx="191.3027" fy="516.6499" gradientTransform="matrix(1 0 0 0.1081 0 460.7908)" gradientUnits="userSpaceOnUse">
					<stop  offset="0" style="stop-color:#000000;stop-opacity:0.1255"/>
					<stop  offset="1" style="stop-color:#000000;stop-opacity:0"/>
				</radialGradient>
				<path fill-rule="evenodd" clip-rule="evenodd" fill="url(#SVGID_16_)" d="M233.08,516.55c0,0.8-3.75,1.52-11.25,2.15
					c-7.5,0.6-16.62,0.9-27.35,0.9s-19.88-0.3-27.45-0.9c-7.57-0.63-11.35-1.35-11.35-2.15c0-0.83,3.78-1.55,11.35-2.15
					c7.57-0.57,16.72-0.85,27.45-0.85s19.85,0.28,27.35,0.85C229.33,515,233.08,515.72,233.08,516.55z"/>
			</g>
			<g>
				<path fill-rule="evenodd" clip-rule="evenodd" d="M102.13,518.55c0,0.37-0.82,0.72-2.45,1.05c-4.1,0.43-8.18,0.43-12.25,0
					c-1.7-0.33-2.55-0.68-2.55-1.05c0-0.4,0.85-0.73,2.55-1c1.77-0.27,3.8-0.4,6.1-0.4c2.4,0,4.45,0.13,6.15,0.4
					C101.32,517.82,102.13,518.15,102.13,518.55z"/>
			</g>
			<g>
				<linearGradient id="SVGID_17_" gradientUnits="userSpaceOnUse" x1="81.4336" y1="10.0991" x2="105.1333" y2="10.0991">
					<stop  offset="0" style="stop-color:#9BADAF"/>
					<stop  offset="0.5098" style="stop-color:#FBF6FC"/>
					<stop  offset="0.7451" style="stop-color:#A3A9A9"/>
					<stop  offset="0.9176" style="stop-color:#E4E7E6"/>
				</linearGradient>
				<path fill-rule="evenodd" clip-rule="evenodd" fill="url(#SVGID_17_)" d="M97.78,12.2v-0.05c-3.17,0.2-6.37,0.2-9.6,0
					c-2.2-0.07-4.45-0.2-6.75-0.4V7.9c1.6,0.03,3.17,0.1,4.7,0.2h0.9c4.2,0.27,8.47,0.27,12.8,0c1.8-0.07,3.57-0.13,5.3-0.2v3.85
					C102.77,11.95,100.32,12.1,97.78,12.2z"/>
				<linearGradient id="SVGID_18_" gradientUnits="userSpaceOnUse" x1="88.2334" y1="65.041" x2="97.8335" y2="65.041">
					<stop  offset="0" style="stop-color:#56422A"/>
					<stop  offset="0.0353" style="stop-color:#574130"/>
					<stop  offset="0.1451" style="stop-color:#584131"/>
					<stop  offset="0.5882" style="stop-color:#FBF6FC"/>
					<stop  offset="0.7412" style="stop-color:#726151"/>
					<stop  offset="1" style="stop-color:#F0D8AC"/>
				</linearGradient>
				<path fill-rule="evenodd" clip-rule="evenodd" fill="url(#SVGID_18_)" d="M97.78,12.2v105.7c-3.23,0.07-6.43,0.03-9.6-0.1V12.15
					c3.23,0.2,6.43,0.2,9.6,0V12.2z"/>
				<linearGradient id="SVGID_19_" gradientUnits="userSpaceOnUse" x1="84.771" y1="5.1494" x2="100.296" y2="5.1494">
					<stop  offset="0" style="stop-color:#56422A"/>
					<stop  offset="0.3608" style="stop-color:#FBF6FC"/>
					<stop  offset="0.7529" style="stop-color:#726151"/>
					<stop  offset="0.8784" style="stop-color:#9F958A"/>
					<stop  offset="1" style="stop-color:#363636"/>
				</linearGradient>
				<path fill-rule="evenodd" clip-rule="evenodd" fill="url(#SVGID_19_)" d="M86.13,8.1V2c4.9,0.27,9.47,0.27,13.7,0v6.1
					c-4.33,0.27-8.6,0.27-12.8,0H86.13z"/>
				<linearGradient id="SVGID_20_" gradientUnits="userSpaceOnUse" x1="81.4336" y1="125.6436" x2="105.1333" y2="125.6436">
					<stop  offset="0" style="stop-color:#9BADAF"/>
					<stop  offset="0.5098" style="stop-color:#FBF6FC"/>
					<stop  offset="0.7451" style="stop-color:#A3A9A9"/>
					<stop  offset="0.9176" style="stop-color:#E4E7E6"/>
				</linearGradient>
				<path fill-rule="evenodd" clip-rule="evenodd" fill="url(#SVGID_20_)" d="M101.58,133.45c-0.6,0-1.18,0.02-1.75,0.05
					c-4.23,0.33-8.57,0.32-13-0.05c-0.43-0.03-0.88-0.05-1.35-0.05c-1.17-0.07-2.52-0.17-4.05-0.3v-11.65V121v-3.45
					c1.37,0.03,2.72,0.1,4.05,0.2c0.2,0,0.42,0,0.65,0h0.9c0.4,0.03,0.78,0.05,1.15,0.05c3.17,0.13,6.37,0.17,9.6,0.1
					c0.67-0.07,1.35-0.12,2.05-0.15c0.57,0,1.15-0.02,1.75-0.05c1.17-0.07,2.35-0.12,3.55-0.15V121v0.45v11.65
					C103.9,133.23,102.72,133.35,101.58,133.45z"/>
				<linearGradient id="SVGID_21_" gradientUnits="userSpaceOnUse" x1="85.4209" y1="326.4741" x2="101.5459" y2="326.4741">
					<stop  offset="0" style="stop-color:#56422A"/>
					<stop  offset="0.0353" style="stop-color:#574130"/>
					<stop  offset="0.1451" style="stop-color:#584131"/>
					<stop  offset="0.5882" style="stop-color:#FBF6FC"/>
					<stop  offset="0.7412" style="stop-color:#726151"/>
					<stop  offset="1" style="stop-color:#F0D8AC"/>
				</linearGradient>
				<path fill-rule="evenodd" clip-rule="evenodd" fill="url(#SVGID_21_)" d="M85.48,133.4c0.47,0,0.92,0.02,1.35,0.05
					c4.43,0.37,8.77,0.38,13,0.05c0.57-0.03,1.15-0.05,1.75-0.05V518.4c-0.23,0.27-0.82,0.48-1.75,0.65
					c-4.23,0.67-8.45,0.67-12.65,0c-0.97-0.17-1.53-0.38-1.7-0.65v-0.45v-26.7V414.7v-16.25v-190.9v-4.25v-4.75v-9.6v-9.5v-9.5
					v-6.45v-6.3V133.4z"/>
			</g>
		</g>
		<g>
			<linearGradient id="SVGID_22_" gradientUnits="userSpaceOnUse" x1="71.5835" y1="82.2368" x2="71.5835" y2="77.6618">
				<stop  offset="0" style="stop-color:#40392F"/>
				<stop  offset="0.2549" style="stop-color:#9B948A"/>
				<stop  offset="0.4549" style="stop-color:#B9B2A8"/>
				<stop  offset="0.6118" style="stop-color:#746D63"/>
				<stop  offset="1" style="stop-color:#40392F"/>
			</linearGradient>
			<rect x="67.83" y="78.4" fill-rule="evenodd" clip-rule="evenodd" fill="url(#SVGID_22_)" width="7.5" height="4.6"/>
		</g>
		<g>
			<path fill-rule="evenodd" clip-rule="evenodd" fill="#40392F" d="M53.83,81.95c0-0.33,0.03-0.6,0.1-0.8
				c0.27-1.07,1-2.02,2.2-2.85c0.1-0.1,0.22-0.17,0.35-0.2c1.53-0.97,3.38-1.55,5.55-1.75c1.13-0.13,2.18-0.1,3.15,0.1
				c1,0.17,1.88,0.47,2.65,0.9c1.3,0.67,2.1,1.5,2.4,2.5c0.03,0.27,0.05,0.57,0.05,0.9c0,1.37-0.82,2.6-2.45,3.7
				c-1.57,1.1-3.5,1.77-5.8,2c-2.3,0.2-4.27-0.17-5.9-1.1c-1.53-0.83-2.3-1.93-2.3-3.3V81.95z"/>
			<linearGradient id="SVGID_23_" gradientUnits="userSpaceOnUse" x1="53.6836" y1="78.6021" x2="70.2086" y2="78.6021">
				<stop  offset="0" style="stop-color:#40392F"/>
				<stop  offset="0.2549" style="stop-color:#9B948A"/>
				<stop  offset="0.4863" style="stop-color:#B9B2A8"/>
				<stop  offset="0.7569" style="stop-color:#979089"/>
				<stop  offset="1" style="stop-color:#40392F"/>
			</linearGradient>
			<path fill-rule="evenodd" clip-rule="evenodd" fill="url(#SVGID_23_)" d="M70.23,79.85c-0.3-1-1.1-1.83-2.4-2.5
				c-0.77-0.43-1.65-0.73-2.65-0.9c-0.97-0.2-2.02-0.23-3.15-0.1c-2.17,0.2-4.02,0.78-5.55,1.75c-0.13,0.03-0.25,0.1-0.35,0.2
				c-1.2,0.83-1.93,1.78-2.2,2.85c-0.07,0.2-0.1,0.47-0.1,0.8c-0.1-0.33-0.15-0.65-0.15-0.95c0-1.2,0.6-2.3,1.8-3.3
				c0.17-0.2,0.33-0.37,0.5-0.5c1.63-1.03,3.62-1.67,5.95-1.9c1.33-0.1,2.55-0.03,3.65,0.2c0.8,0.13,1.53,0.4,2.2,0.8
				c0.23,0.1,0.42,0.22,0.55,0.35c0.03,0,0.1,0.02,0.2,0.05c1.13,0.8,1.7,1.78,1.7,2.95C70.23,79.72,70.23,79.78,70.23,79.85z"/>
		</g>
		<g>
			<path fill-rule="evenodd" clip-rule="evenodd" fill="#5A5447" d="M105.18,74.5h0.1v1.65l-4.8,1.05v-1.7L105.18,74.5z M90.58,81.6
				l0.2-0.05l-0.15,0.05H90.58z"/>
			<path fill-rule="evenodd" clip-rule="evenodd" fill="#4F493D" d="M100.48,75.5v1.7h-24.6l13.95-0.95c0.9,0.07,1.92,0.1,3.05,0.1
				c1.5,0,2.78-0.08,3.85-0.25c0.87-0.13,1.4-0.28,1.6-0.45L100.48,75.5z"/>
			<path fill-rule="evenodd" clip-rule="evenodd" fill="#736C62" d="M105.28,76.15l-4.4,1.45H73.83l2.05-0.4h24.6L105.28,76.15z
				 M105.18,74.5l-4.7,1l-2.15,0.15c0-0.07,0-0.12,0-0.15s0-0.08,0-0.15v-0.1c0-0.07,0-0.12,0-0.15v-0.6H105.18z"/>
			<path fill-rule="evenodd" clip-rule="evenodd" fill="#2A2319" d="M73.83,77.6h27.05v7.9H73.83V77.6z M90.58,81.6h0.05l0.15-0.05
				L90.58,81.6z"/>
			<polygon fill-rule="evenodd" clip-rule="evenodd" fill="#3E372F" points="100.88,77.6 105.28,76.15 105.28,82.8 100.88,85.5 			
				"/>
		</g>
		<g>
			
				<linearGradient id="SVGID_24_" gradientUnits="userSpaceOnUse" x1="196.7915" y1="-127.8047" x2="209.4077" y2="-127.8047" gradientTransform="matrix(0.4716 0.8818 -0.5055 1.1752 -40.5553 69.0186)">
				<stop  offset="0" style="stop-color:#363226"/>
				<stop  offset="1" style="stop-color:#535042"/>
			</linearGradient>
			<polygon fill-rule="evenodd" clip-rule="evenodd" fill="url(#SVGID_24_)" points="102.43,77.9 118.98,77.9 118.98,84.75 
				102.43,83.8 			"/>
			
				<linearGradient id="SVGID_25_" gradientUnits="userSpaceOnUse" x1="103.6792" y1="215.144" x2="121.3335" y2="215.144" gradientTransform="matrix(0.4404 -0.8978 0.5496 1.1502 -45.1207 -70.9269)">
				<stop  offset="0" style="stop-color:#4A4435"/>
				<stop  offset="1" style="stop-color:#535042"/>
			</linearGradient>
			<polygon fill-rule="evenodd" clip-rule="evenodd" fill="url(#SVGID_25_)" points="118.98,77.9 121.53,76.75 121.53,83 
				118.98,84.75 			"/>
			
				<linearGradient id="SVGID_26_" gradientUnits="userSpaceOnUse" x1="118.9204" y1="162.2998" x2="125.2927" y2="162.2998" gradientTransform="matrix(0.867 -0.4982 0.1596 1.0617 -10.7792 -39.3191)">
				<stop  offset="0" style="stop-color:#696657"/>
				<stop  offset="1" style="stop-color:#7D7A6B"/>
			</linearGradient>
			<polygon fill-rule="evenodd" clip-rule="evenodd" fill="url(#SVGID_26_)" points="121.53,76.75 118.98,77.9 102.43,77.9 
				103.73,77.4 			"/>
		</g>
		<g>
			
				<linearGradient id="SVGID_27_" gradientUnits="userSpaceOnUse" x1="174.2368" y1="90.8364" x2="204.7758" y2="90.8364" gradientTransform="matrix(0.9995 -0.0303 0 1.0005 -0.0361 -2.3838)">
				<stop  offset="0" style="stop-color:#392F2D"/>
				<stop  offset="0.1412" style="stop-color:#77665E"/>
				<stop  offset="0.7843" style="stop-color:#39302D"/>
				<stop  offset="1" style="stop-color:#5F514B"/>
			</linearGradient>
			<path fill-rule="evenodd" clip-rule="evenodd" fill="url(#SVGID_27_)" d="M201.73,78.55c0.4-0.27,0.78-0.32,1.15-0.15v6.15
				c0,0.1-0.4,0.33-1.2,0.7l0.2-0.15c-0.23,0.13-1.4,0.4-3.5,0.8c-2.33,0.37-5.05,0.65-8.15,0.85c-3.13,0.2-6.35,0.17-9.65-0.1
				c-3.4-0.27-5.33-0.58-5.8-0.95v-0.8v-5.1v-0.15l0.1-0.05l0.1,0.15c0.23,0.03,0.48,0.05,0.75,0.05c7.4,0.8,13.48,0.88,18.25,0.25
				c3.53-0.37,5.8-0.72,6.8-1.05c0.97-0.27,1.32-0.42,1.05-0.45H201.73z"/>
			<path fill-rule="evenodd" clip-rule="evenodd" fill="#675851" d="M174.78,79.8c-3-0.13-21.52-0.22-55.55-0.25l0.75-0.35
				c37.07-0.2,55.73-0.2,56,0c7.83,0.93,14.17,1.07,19,0.4c2.53-0.3,4.57-0.6,6.1-0.9c0.03,0,0.08,0,0.15,0
				c0.03-0.1,0.12-0.15,0.25-0.15c0.03,0,0.08,0,0.15,0c0.03,0,0.07,0,0.1,0h0.1c0.27,0.03-0.08,0.18-1.05,0.45
				c-1,0.33-3.27,0.68-6.8,1.05c-4.77,0.63-10.85,0.55-18.25-0.25c-0.27,0-0.52-0.02-0.75-0.05l-0.1-0.15l-0.1,0.05V79.8z"/>
			
				<linearGradient id="SVGID_28_" gradientUnits="userSpaceOnUse" x1="153.8682" y1="91.4497" x2="174.5107" y2="91.4497" gradientTransform="matrix(0.9992 -0.0412 0 1.0008 -0.0666 -3.241)">
				<stop  offset="0" style="stop-color:#473D38"/>
				<stop  offset="0.4902" style="stop-color:#473D38"/>
				<stop  offset="1" style="stop-color:#2B2422"/>
			</linearGradient>
			<path fill-rule="evenodd" clip-rule="evenodd" fill="url(#SVGID_28_)" d="M119.23,79.55c34.03,0.03,52.55,0.12,55.55,0.25v5.1
				c-0.07-0.03-0.27-0.03-0.6,0c-0.6,0-18.92-0.4-54.95-1.2V79.55z"/>
		</g>
		<g>
			
				<radialGradient id="SVGID_29_" cx="94.0044" cy="81.9946" r="13.8913" gradientTransform="matrix(0.9997 -0.0234 -7.198751e-003 0.0783 -6.8049 73.9298)" gradientUnits="userSpaceOnUse">
				<stop  offset="0" style="stop-color:#FFFFFF"/>
				<stop  offset="1" style="stop-color:#FBFBFB;stop-opacity:0"/>
			</radialGradient>
			<path fill-rule="evenodd" clip-rule="evenodd" fill="url(#SVGID_29_)" d="M98.63,76.7l0.1,0.25c0,0.27-0.03,0.58-0.1,0.95
				c0,0.27-0.02,0.48-0.05,0.65l-0.15,0.35l-23.9,0.5c-0.1,0-0.15-0.1-0.15-0.3c0.07-0.2,0.1-0.43,0.1-0.7
				c0.03-0.3,0.07-0.57,0.1-0.8c0.07-0.2,0.12-0.3,0.15-0.3L98.63,76.7z"/>
		</g>
		<g>
			<path fill-rule="evenodd" clip-rule="evenodd" fill="#E5C9A4" d="M85.53,196.3v0.9c-0.13-0.07-0.27-0.15-0.4-0.25
				c0-0.1,0.05-0.17,0.15-0.2C85.42,196.58,85.5,196.43,85.53,196.3z M84.13,196.1c0.07,0.27,0.17,0.5,0.3,0.7
				c0.27-0.2,0.43-0.42,0.5-0.65c0,0.27,0.05,0.48,0.15,0.65c-0.13,0.13-0.27,0.23-0.4,0.3c-0.43,0.3-0.5,0.77-0.2,1.4
				c0,0.03,0.07,0.08,0.2,0.15l0.15,0.1c-0.37,0.27-0.27,0.42,0.3,0.45c0.1-0.17,0.22-0.3,0.35-0.4v-0.05h0.05v0.45h-0.4h-1V196.1z
				 M84.48,194.25l-0.05,0.05c-0.13,0.27-0.23,0.55-0.3,0.85v-0.7c0-0.97,0.45-1.43,1.35-1.4h0.05v0.55c-0.03-0.13-0.17-0.3-0.4-0.5
				c-0.2,0.23-0.43,0.45-0.7,0.65c-0.27,0.33-0.27,0.5,0,0.5H84.48z M85.53,194.05l-0.6,2.1c0.13-0.67,0.13-1.17,0-1.5
				c-0.2,0.03-0.3,0.07-0.3,0.1v-0.05c0.03-0.17,0.05-0.32,0.05-0.45C85.12,194.25,85.4,194.18,85.53,194.05z M85.53,198.2
				c-0.03,0-0.1,0-0.2,0c0.1-0.03,0.17-0.07,0.2-0.1V198.2z"/>
			<path fill-rule="evenodd" clip-rule="evenodd" fill="#48311F" d="M99.78,198.1h-1.7v-4.15h-12.4c0.03-0.13-0.02-0.25-0.15-0.35
				v-0.55h14.05c0.6,0.13,1.03,0.43,1.3,0.9h-0.05c-0.13-0.17-0.33-0.27-0.6-0.3l-0.05,0.05c-0.1,0.03-0.17,0.12-0.2,0.25h-0.2
				V198.1z"/>
			<path fill-rule="evenodd" clip-rule="evenodd" fill="#FFEDE3" d="M85.53,193.6c0.13,0.1,0.18,0.22,0.15,0.35l-0.15,0.1
				c-0.13,0.13-0.42,0.2-0.85,0.2l-0.05-0.15l-0.15,0.15h-0.05c-0.27,0-0.27-0.17,0-0.5c0.27-0.2,0.5-0.42,0.7-0.65
				C85.37,193.3,85.5,193.47,85.53,193.6z M85.08,196.8l0.05,0.15c0.13,0.1,0.27,0.18,0.4,0.25v0.9c-0.03,0.03-0.1,0.07-0.2,0.1
				c-0.17-0.03-0.32-0.1-0.45-0.2c0,0.07-0.02,0.1-0.05,0.1c-0.1,0.03-0.17,0.12-0.2,0.25c-0.1,0.03-0.15,0.08-0.15,0.15
				c-0.3-0.63-0.23-1.1,0.2-1.4C84.82,197.03,84.95,196.93,85.08,196.8z"/>
			<path fill-rule="evenodd" clip-rule="evenodd" fill="#6D4A2E" d="M84.13,196.1v-0.95c0.07-0.3,0.17-0.58,0.3-0.85l0.05-0.05
				l0.15-0.15l0.05,0.15c0,0.13-0.02,0.28-0.05,0.45v0.05c0-0.03,0.1-0.07,0.3-0.1c0.13,0.33,0.13,0.83,0,1.5
				c0.4-0.53,0.65-0.8,0.75-0.8c0.03,0.27-0.02,0.58-0.15,0.95c-0.03,0.13-0.12,0.28-0.25,0.45c-0.1,0.03-0.15,0.1-0.15,0.2
				l-0.05-0.15c-0.1-0.17-0.15-0.38-0.15-0.65c-0.07,0.23-0.23,0.45-0.5,0.65C84.3,196.6,84.2,196.37,84.13,196.1z"/>
			<path fill-rule="evenodd" clip-rule="evenodd" fill="#5E3927" d="M98.78,199.2H85.53v-0.45c0.13-0.07,0.22-0.13,0.25-0.2h14v0.65
				H98.78z M83.63,212.2h15.15h0.55c0.73-0.1,1.17,0.2,1.3,0.9v3.65c-0.13,0.9-0.63,1.43-1.5,1.6h-14.2c-0.87,0.03-1.3-0.43-1.3-1.4
				V212.2z M98.08,198.1H86.13h-0.15h-0.45v-0.9v-0.9c0.13-0.37,0.18-0.68,0.15-0.95c-0.1,0-0.35,0.27-0.75,0.8l0.6-2.1l0.15-0.1
				h12.4V198.1z"/>
			<path fill-rule="evenodd" clip-rule="evenodd" fill="#A9754D" d="M84.83,198.75l-0.15-0.1c-0.13-0.07-0.2-0.12-0.2-0.15
				c0-0.07,0.05-0.12,0.15-0.15c0.03-0.13,0.1-0.22,0.2-0.25c0.03,0,0.05-0.03,0.05-0.1c0.13,0.1,0.28,0.17,0.45,0.2
				c0.1,0,0.17,0,0.2,0c0.13,0,0.28-0.03,0.45-0.1h0.15c-0.1,0.2-0.22,0.35-0.35,0.45c-0.03,0.07-0.12,0.13-0.25,0.2h-0.05l0.05-0.1
				c-0.03,0-0.1,0-0.2,0c-0.13-0.07-0.28-0.1-0.45-0.1l-0.05,0.1V198.75z"/>
			<path fill-rule="evenodd" clip-rule="evenodd" fill="#A87850" d="M85.53,198.1h0.45c-0.17,0.07-0.32,0.1-0.45,0.1V198.1z"/>
			<path fill-rule="evenodd" clip-rule="evenodd" fill="#F7D1AC" d="M85.13,199.2c-0.57-0.03-0.67-0.18-0.3-0.45v-0.1l0.05-0.1
				c0.17,0,0.32,0.03,0.45,0.1c0.1,0,0.17,0,0.2,0l-0.05,0.1v0.05C85.35,198.9,85.23,199.03,85.13,199.2z"/>
			<linearGradient id="SVGID_30_" gradientUnits="userSpaceOnUse" x1="77.5332" y1="212.4995" x2="77.5332" y2="198.8995">
				<stop  offset="0" style="stop-color:#9A6E47"/>
				<stop  offset="0.2392" style="stop-color:#976C45"/>
				<stop  offset="0.3176" style="stop-color:#423117"/>
				<stop  offset="0.4314" style="stop-color:#543A23"/>
				<stop  offset="0.6353" style="stop-color:#897341"/>
				<stop  offset="0.851" style="stop-color:#A59564"/>
				<stop  offset="0.9451" style="stop-color:#D6D09E"/>
				<stop  offset="1" style="stop-color:#CBC394"/>
			</linearGradient>
			<path fill-rule="evenodd" clip-rule="evenodd" fill="url(#SVGID_30_)" d="M98.78,212.2H83.63H57.98c-2.33-4.37-2.27-8.7,0.2-13
				h25.95h1h0.4h13.25v1.4l-0.25-0.4l0.25,0.55v1.1v8.9v0.95V212.2z M60.18,202.5l-0.15,0.1c0.1,0,0.17,0.02,0.2,0.05
				C60.23,202.62,60.22,202.57,60.18,202.5z M57.13,206.3c-0.03-1.77,0.38-3.47,1.25-5.1C57.52,202.83,57.1,204.53,57.13,206.3
				h-0.05c-0.57,0.53-0.57,1.02,0,1.45v-0.05c0.03-0.13,0.08-0.23,0.15-0.3c0.13,0.8,0.37,1.58,0.7,2.35
				c-0.33-0.77-0.57-1.55-0.7-2.35C57.5,206.97,57.47,206.6,57.13,206.3z M98.13,199.95c-13.07-0.07-26.13-0.1-39.2-0.1l-0.2,0.2
				c13.1,0.07,26.22,0.07,39.35,0L98.13,199.95z M96.98,203.2h-36.3H96.98z"/>
			<path fill-rule="evenodd" clip-rule="evenodd" fill="#AD8057" d="M99.78,198.55h-14c0.13-0.1,0.25-0.25,0.35-0.45h11.95h1.7v0.1
				V198.55z"/>
			<path fill-rule="evenodd" clip-rule="evenodd" fill="#FCC79B" d="M100.83,193.95c0,0.2-0.13,0.45-0.4,0.75
				c-0.4-0.03-0.6-0.23-0.6-0.6c0-0.03,0.05-0.08,0.15-0.15c0.03-0.13,0.1-0.22,0.2-0.25l0.05-0.05
				C100.5,193.68,100.7,193.78,100.83,193.95z M99.78,198.2c0-0.03,0.02-0.07,0.05-0.1c0-0.2,0.07-0.38,0.2-0.55
				c0.1-0.03,0.17-0.05,0.2-0.05s0.12,0.02,0.25,0.05c0.1,0,0.17,0,0.2,0c0,0.17,0,0.35,0,0.55c-0.03,0.17-0.1,0.3-0.2,0.4
				l-0.05,0.05c0,0.07-0.05,0.13-0.15,0.2c-0.2,0.03-0.37-0.03-0.5-0.2V198.2z"/>
			<path fill-rule="evenodd" clip-rule="evenodd" fill="#B66E48" d="M101.08,198.1h-0.4c0-0.2,0-0.38,0-0.55c-0.03,0-0.1,0-0.2,0
				c-0.13-0.03-0.22-0.05-0.25-0.05s-0.1,0.02-0.2,0.05c-0.13,0.17-0.2,0.35-0.2,0.55h-0.05v-4.15h0.2
				c-0.1,0.07-0.15,0.12-0.15,0.15c0,0.37,0.2,0.57,0.6,0.6c0.27-0.3,0.4-0.55,0.4-0.75h0.05c0.07,0.2,0.13,0.43,0.2,0.7V198.1z"/>
			<path fill-rule="evenodd" clip-rule="evenodd" fill="#775D38" d="M99.78,198.55c0.13,0.17,0.3,0.23,0.5,0.2
				c0.1-0.07,0.15-0.13,0.15-0.2l0.05-0.05c0.1-0.1,0.17-0.23,0.2-0.4h0.4v0.25c0,0.1,0,0.17,0,0.2c-0.07,0.13-0.13,0.22-0.2,0.25
				c-0.17,0.3-0.53,0.43-1.1,0.4V198.55z M99.83,198.1c-0.03,0.03-0.05,0.07-0.05,0.1v-0.1H99.83z"/>
			<path fill-rule="evenodd" clip-rule="evenodd" fill="#634125" d="M168.03,212.05c0-0.13-0.07-0.2-0.2-0.2
				c-0.03,0-0.12,0.07-0.25,0.2c-0.1,0.1-0.15,0.22-0.15,0.35s0.05,0.22,0.15,0.25c0.13,0.17,0.22,0.25,0.25,0.25
				c0.13,0,0.2-0.07,0.2-0.2v1.25v0.9c-1.7-0.13-2.62-0.72-2.75-1.75v-2.9v-0.85h2.15v-5.5h-2.15V203v-1.8
				c0-1.43,0.92-1.98,2.75-1.65v0.4v1.35l-0.2-0.2c-0.17,0-0.25,0.07-0.25,0.2c-0.1,0.13-0.15,0.23-0.15,0.3
				c0,0.17,0.05,0.27,0.15,0.3c0,0.13,0.08,0.2,0.25,0.2l0.2-0.2v1.1v7.2V212.05z M168.03,199.95c-0.43,0.07-0.73,0.15-0.9,0.25
				c-0.43,0.4-0.57,1.15-0.4,2.25c-0.17-1.1-0.03-1.85,0.4-2.25C167.3,200.1,167.6,200.02,168.03,199.95z M166.53,212.25
				c-0.03,1,0.47,1.57,1.5,1.7C167,213.82,166.5,213.25,166.53,212.25z"/>
			<linearGradient id="SVGID_31_" gradientUnits="userSpaceOnUse" x1="174.1958" y1="208.437" x2="207.8708" y2="208.437">
				<stop  offset="0" style="stop-color:#26281A"/>
				<stop  offset="1" style="stop-color:#646743"/>
			</linearGradient>
			<path fill-rule="evenodd" clip-rule="evenodd" fill="url(#SVGID_31_)" d="M168.03,201.3v-1.35v-0.4c0.93,0.27,3.15,0.67,6.65,1.2
				c1.03,0.03,2.13,0.1,3.3,0.2c0.57,0.03,1.13,0.08,1.7,0.15c2.23,0.1,4.72,0.17,7.45,0.2c1.17,0,2.38,0,3.65,0
				c5,0.1,9.18-0.02,12.55-0.35c1.4-0.1,3.3-0.33,5.7-0.7c1.4-0.2,2.97-0.43,4.7-0.7c1.27,0.83,1.9,2.15,1.9,3.95v9.1
				c-0.27,0.9-2.13,1.88-5.6,2.95c-0.33,0.1-0.67,0.2-1,0.3c-1.73,0.37-3.2,0.65-4.4,0.85c-2.3,0.33-5.92,0.53-10.85,0.6
				c-2.3,0.03-4.52,0.03-6.65,0c-2.67-0.13-5.15-0.27-7.45-0.4c-0.57-0.1-1.13-0.17-1.7-0.2c-1.13-0.2-2.23-0.37-3.3-0.5
				c-2.5-0.33-4.72-0.78-6.65-1.35v-0.9v-1.25v-0.05c0.17-0.03,0.25-0.12,0.25-0.25s-0.08-0.25-0.25-0.35v-1.85V203v-1.1
				c0.03-0.03,0.05-0.13,0.05-0.3c0-0.07,0-0.17,0-0.3H168.03z M213.03,202.3v10.55V202.3z M199.23,202.1
				c4.87-0.17,8.05-0.33,9.55-0.5c1-0.07,2.08-0.23,3.25-0.5c-1.17,0.27-2.25,0.43-3.25,0.5
				C207.28,201.77,204.1,201.93,199.23,202.1z M170.83,202c-0.03,0.13-0.05,0.23-0.05,0.3c0,0.2,0.02,0.32,0.05,0.35
				c0.13,0.13,0.23,0.2,0.3,0.2c0.1,0,0.2-0.07,0.3-0.2c0.03-0.03,0.05-0.15,0.05-0.35c0-0.07-0.02-0.17-0.05-0.3
				c-0.1-0.13-0.2-0.2-0.3-0.2C171.07,201.8,170.97,201.87,170.83,202z M171.28,212.05c0.1-0.13,0.15-0.28,0.15-0.45
				c0-0.13-0.05-0.27-0.15-0.4c-0.1-0.1-0.22-0.15-0.35-0.15c-0.07,0-0.12,0.05-0.15,0.15c-0.13,0.13-0.2,0.27-0.2,0.4
				c0,0.17,0.07,0.32,0.2,0.45c0.03,0.1,0.08,0.15,0.15,0.15C171.07,212.2,171.18,212.15,171.28,212.05z M202.08,216.2l9.9-2.1
				L202.08,216.2z"/>
			<path fill-rule="evenodd" clip-rule="evenodd" fill="#C8AD7E" d="M60.18,202.5c0.03,0.07,0.05,0.12,0.05,0.15
				c-0.03-0.03-0.1-0.05-0.2-0.05L60.18,202.5z"/>
			<path fill-rule="evenodd" clip-rule="evenodd" fill="#FFF0DE" d="M57.23,207.4c-0.07,0.07-0.12,0.17-0.15,0.3v0.05
				c-0.57-0.43-0.57-0.92,0-1.45h0.05C57.47,206.6,57.5,206.97,57.23,207.4z"/>
			<path fill-rule="evenodd" clip-rule="evenodd" fill="#EDC2A2" d="M170.83,202c0.13-0.13,0.23-0.2,0.3-0.2c0.1,0,0.2,0.07,0.3,0.2
				c0.03,0.13,0.05,0.23,0.05,0.3c0,0.2-0.02,0.32-0.05,0.35c-0.1,0.13-0.2,0.2-0.3,0.2c-0.07,0-0.17-0.07-0.3-0.2
				c-0.03-0.03-0.05-0.15-0.05-0.35C170.78,202.23,170.8,202.13,170.83,202z M171.28,212.05c-0.1,0.1-0.22,0.15-0.35,0.15
				c-0.07,0-0.12-0.05-0.15-0.15c-0.13-0.13-0.2-0.28-0.2-0.45c0-0.13,0.07-0.27,0.2-0.4c0.03-0.1,0.08-0.15,0.15-0.15
				c0.13,0,0.25,0.05,0.35,0.15c0.1,0.13,0.15,0.27,0.15,0.4C171.43,211.77,171.38,211.92,171.28,212.05z"/>
			<path fill-rule="evenodd" clip-rule="evenodd" fill="#522C16" d="M168.03,201.9l-0.2,0.2c-0.17,0-0.25-0.07-0.25-0.2
				c-0.1-0.03-0.15-0.13-0.15-0.3c0-0.07,0.05-0.17,0.15-0.3c0-0.13,0.08-0.2,0.25-0.2l0.2,0.2h0.05c0,0.13,0,0.23,0,0.3
				C168.08,201.77,168.07,201.87,168.03,201.9z M168.03,212.7c0,0.13-0.07,0.2-0.2,0.2c-0.03,0-0.12-0.08-0.25-0.25
				c-0.1-0.03-0.15-0.12-0.15-0.25s0.05-0.25,0.15-0.35c0.13-0.13,0.22-0.2,0.25-0.2c0.13,0,0.2,0.07,0.2,0.2
				c0.17,0.1,0.25,0.22,0.25,0.35s-0.08,0.22-0.25,0.25V212.7z"/>
			<linearGradient id="SVGID_32_" gradientUnits="userSpaceOnUse" x1="-16.3042" y1="206.5996" x2="162.1708" y2="206.5996">
				<stop  offset="0" style="stop-color:#332B16"/>
				<stop  offset="0.3608" style="stop-color:#332B16"/>
				<stop  offset="1" style="stop-color:#572D17"/>
			</linearGradient>
			<path fill-rule="evenodd" clip-rule="evenodd" fill="url(#SVGID_32_)" d="M143.33,203h6.75h4.7h6.3h4.2v0.85h2.15v5.5h-2.15v0.85
				h-4.2h-6.3h-4.7h-6.75v-0.65h4.3h1.7h-1.7h-4.3v-5.9h4.3h1.7h-1.7h-4.3V203z M150.08,203v7.2V203z"/>
			<linearGradient id="SVGID_33_" gradientUnits="userSpaceOnUse" x1="103.4209" y1="206.5996" x2="148.0459" y2="206.5996">
				<stop  offset="0" style="stop-color:#332B16"/>
				<stop  offset="0.3608" style="stop-color:#332B16"/>
				<stop  offset="1" style="stop-color:#572D17"/>
			</linearGradient>
			<path fill-rule="evenodd" clip-rule="evenodd" fill="url(#SVGID_33_)" d="M143.33,210.2h-24.9h-1.45v-0.65v-5.9h6.2h-6.2V203
				h1.15h10.1c-0.43,0.17-0.8,0.38-1.1,0.65l-0.1,0.05c-0.83,0.8-1.25,1.7-1.25,2.7c0,1.03,0.42,1.9,1.25,2.6
				c0.23,0.23,0.48,0.42,0.75,0.55c0.6,0.4,1.32,0.6,2.15,0.6c0.83,0,1.57-0.2,2.2-0.6c0.27-0.13,0.53-0.32,0.8-0.55
				c0.87-0.7,1.3-1.58,1.3-2.65c0-0.97-0.43-1.85-1.3-2.65l-0.15-0.05h10.55v5.9V210.2z M143.33,203v0.65h-10.55
				c-0.3-0.27-0.67-0.48-1.1-0.65H143.33z M132.13,209.55h11.2H132.13z M123.18,203.65h3.95H123.18z M123.18,209.55h4.6H123.18h-6.2
				H123.18z"/>
			<path fill-rule="evenodd" clip-rule="evenodd" fill="#E0B58A" d="M128.98,203.2c0.07,0,0.1,0.02,0.1,0.05c0,0.17,0,0.3,0,0.4
				c-0.07,0.33-0.07,0.67,0,1c-0.13-0.07-0.22-0.12-0.25-0.15c-0.27-0.37-0.37-0.65-0.3-0.85
				C128.6,203.42,128.75,203.27,128.98,203.2z M129.08,208.5c0.03,0.03,0.1,0.05,0.2,0.05c0,0.03,0.02,0.05,0.05,0.05
				c0.27,0.17,0.43,0.37,0.5,0.6l-0.85,0.15c-0.37-0.1-0.52-0.43-0.45-1h0.1C128.8,208.38,128.95,208.43,129.08,208.5z"/>
			
				<radialGradient id="SVGID_34_" cx="129.9834" cy="206.3994" r="4.125" gradientTransform="matrix(1 0 0 0.8758 0 25.6436)" gradientUnits="userSpaceOnUse">
				<stop  offset="0" style="stop-color:#F0D8AC"/>
				<stop  offset="0.5059" style="stop-color:#58311D"/>
				<stop  offset="1" style="stop-color:#58311C"/>
			</radialGradient>
			<path fill-rule="evenodd" clip-rule="evenodd" fill="url(#SVGID_34_)" d="M132.13,209.55c-0.63,0.4-1.37,0.6-2.2,0.6
				c-0.83,0-1.55-0.2-2.15-0.6c-0.27-0.13-0.52-0.32-0.75-0.55c-0.83-0.7-1.25-1.57-1.25-2.6c0-1,0.42-1.9,1.25-2.7l0.1-0.05
				c0.3-0.27,0.67-0.48,1.1-0.65c0.5-0.23,1.07-0.35,1.7-0.35c0.7,0,1.28,0.12,1.75,0.35c0.43,0.17,0.8,0.38,1.1,0.65l0.15,0.05
				c0.87,0.8,1.3,1.68,1.3,2.65c0,1.07-0.43,1.95-1.3,2.65C132.67,209.23,132.4,209.42,132.13,209.55z M128.98,203.2
				c-0.23,0.07-0.38,0.22-0.45,0.45c-0.07,0.2,0.03,0.48,0.3,0.85c0.03,0.03,0.12,0.08,0.25,0.15c-0.07-0.33-0.07-0.67,0-1
				c0-0.1,0-0.23,0-0.4C129.08,203.22,129.05,203.2,128.98,203.2z M132.03,205.3c0.17,0.1,0.38,0.18,0.65,0.25
				c0.07-0.2,0.1-0.42,0.1-0.65s-0.08-0.42-0.25-0.55c-0.47,0-0.63,0.25-0.5,0.75C132.03,205.2,132.03,205.27,132.03,205.3z
				 M127.88,203.85c-0.07,0.03-0.13,0.05-0.2,0.05l-0.1,0.05c0,0.07-0.03,0.1-0.1,0.1v0.1c0,0.07-0.03,0.1-0.1,0.1l-0.2,0.1
				c-0.03,0.1-0.08,0.15-0.15,0.15c0,0.03,0,0.08,0,0.15l-0.1,0.05v0.4l0.1,0.15v0.05c0,0.03,0.03,0.05,0.1,0.05h0.05l0.1,0.1
				c0.13,0,0.23,0,0.3,0c0.07-0.07,0.13-0.1,0.2-0.1l0.2-0.1v-0.15l0.05-0.05c0.07-0.07,0.13-0.1,0.2-0.1c0-0.03,0.03-0.1,0.1-0.2
				l0.1-0.05v-0.4l-0.1-0.05v-0.2l-0.1-0.1c0-0.03-0.03-0.05-0.1-0.05c-0.07,0-0.12,0-0.15,0v-0.05H127.88z M128.98,209.35
				c0.2,0.07,0.43,0.13,0.7,0.2h1.15c0.37-0.1,0.7-0.28,1-0.55c0.73-0.8,1.05-1.23,0.95-1.3c-0.77,1.23-1.92,1.53-3.45,0.9
				c-0.03,0-0.05-0.02-0.05-0.05c-0.13-0.03-0.2-0.08-0.2-0.15v0.1c-0.13-0.07-0.28-0.12-0.45-0.15h-0.1
				C128.47,208.92,128.62,209.25,128.98,209.35z"/>
			<path fill-rule="evenodd" clip-rule="evenodd" fill="#E2DCC6" d="M132.03,205.3c0-0.03,0-0.1,0-0.2c-0.13-0.5,0.03-0.75,0.5-0.75
				c0.17,0.13,0.25,0.32,0.25,0.55s-0.03,0.45-0.1,0.65C132.42,205.48,132.2,205.4,132.03,205.3z"/>
			<path fill-rule="evenodd" clip-rule="evenodd" fill="#FFF5E8" d="M127.88,203.85h0.1v0.05c0.03,0,0.08,0,0.15,0
				c0.07,0,0.1,0.02,0.1,0.05l0.1,0.1v0.2l0.1,0.05v0.4l-0.1,0.05c-0.07,0.1-0.1,0.17-0.1,0.2c-0.07,0-0.13,0.03-0.2,0.1l-0.05,0.05
				v0.15l-0.2,0.1c-0.07,0-0.13,0.03-0.2,0.1c-0.07,0-0.17,0-0.3,0l-0.1-0.1h-0.05c-0.07,0-0.1-0.02-0.1-0.05v-0.05l-0.1-0.15v-0.4
				l0.1-0.05c0-0.07,0-0.12,0-0.15c0.07,0,0.12-0.05,0.15-0.15l0.2-0.1c0.07,0,0.1-0.03,0.1-0.1v-0.1c0.07,0,0.1-0.03,0.1-0.1
				l0.1-0.05C127.75,203.9,127.82,203.88,127.88,203.85z"/>
			<path fill-rule="evenodd" clip-rule="evenodd" fill="#D87742" d="M129.28,208.55c-0.1,0-0.17-0.02-0.2-0.05v-0.1
				C129.09,208.47,129.15,208.52,129.28,208.55z M129.33,208.6c1.53,0.63,2.68,0.33,3.45-0.9c0.1,0.07-0.22,0.5-0.95,1.3
				c-0.3,0.27-0.63,0.45-1,0.55h-1.15c-0.27-0.07-0.5-0.13-0.7-0.2l0.85-0.15C129.77,208.97,129.6,208.77,129.33,208.6z"/>
			<linearGradient id="SVGID_35_" gradientUnits="userSpaceOnUse" x1="107.2837" y1="206.3647" x2="161.9837" y2="206.3647">
				<stop  offset="0" style="stop-color:#332B16"/>
				<stop  offset="0.3608" style="stop-color:#332B16"/>
				<stop  offset="1" style="stop-color:#572D17"/>
			</linearGradient>
			<path fill-rule="evenodd" clip-rule="evenodd" fill="url(#SVGID_35_)" d="M111.03,201.2c0.33,0.03,0.7,0.13,1.1,0.3v1.5h4.85
				v0.65v5.9v0.65h-5.1v0.9c-0.83,0.33-1.62,0.53-2.35,0.6c-0.83,0-1.6-0.17-2.3-0.5v-0.45v-8.9v-0.35c0.97-0.43,2.03-0.57,3.2-0.4
				C110.6,201.1,110.8,201.13,111.03,201.2z M116.98,209.55h-5.05H116.98z M116.98,203.65h-4.3H116.98z"/>
			<linearGradient id="SVGID_36_" gradientUnits="userSpaceOnUse" x1="111.0337" y1="202.0996" x2="118.3337" y2="202.0996">
				<stop  offset="0" style="stop-color:#734923"/>
				<stop  offset="1" style="stop-color:#B27244"/>
			</linearGradient>
			<path fill-rule="evenodd" clip-rule="evenodd" fill="url(#SVGID_36_)" d="M111.03,201.2h5.05l1.2,0.1
				c0.93,0.6,1.22,1.17,0.85,1.7h-1.15h-4.85v-1.5C111.73,201.33,111.37,201.23,111.03,201.2z M114.93,201.85
				c1.33-0.03,2.02-0.12,2.05-0.25l0.15-0.1c-1.47,0-2.92-0.02-4.35-0.05l-0.2,0.15C112.78,201.8,113.57,201.88,114.93,201.85z"/>
			<path fill-rule="evenodd" clip-rule="evenodd" fill="#D2A888" d="M114.93,201.85c-1.37,0.03-2.15-0.05-2.35-0.25l0.2-0.15
				c1.43,0.03,2.88,0.05,4.35,0.05l-0.15,0.1C116.95,201.73,116.27,201.82,114.93,201.85z"/>
			<linearGradient id="SVGID_37_" gradientUnits="userSpaceOnUse" x1="109.4834" y1="210.9995" x2="118.5796" y2="210.9995">
				<stop  offset="0" style="stop-color:#BBAF89"/>
				<stop  offset="1" style="stop-color:#FFFFF8"/>
			</linearGradient>
			<path fill-rule="evenodd" clip-rule="evenodd" fill="url(#SVGID_37_)" d="M114.58,211.7l-5.05,0.1v-0.1
				c0.73-0.07,1.52-0.27,2.35-0.6v-0.9h5.1h1.45c0.43,0.93,0.15,1.43-0.85,1.5H114.58z M114.68,211.05c1.3,0.43,1.92,0.27,1.85-0.5
				c-0.7,0.13-1.32,0.27-1.85,0.4V211.05z"/>
			<path fill-rule="evenodd" clip-rule="evenodd" fill="#FFFDC7" d="M114.68,211.05v-0.1c0.53-0.13,1.15-0.27,1.85-0.4
				C116.6,211.32,115.98,211.48,114.68,211.05z M111.28,200.25l-0.05,0.15c-0.1,0.13-0.22,0.28-0.35,0.45
				c-0.73-0.2-1.08-0.47-1.05-0.8l0.15-0.1c0.47-0.07,0.88,0.03,1.25,0.3H111.28z M103.53,201.85c-0.07-0.13-0.13-0.25-0.2-0.35
				c-0.07-0.13-0.13-0.2-0.2-0.2c0.07-0.13,0.17-0.25,0.3-0.35l0.1-0.1c0.3,0.3,0.52,0.63,0.65,1c0.5,1.03,0.47,2.17-0.1,3.4
				C104.22,203.95,104.03,202.82,103.53,201.85z M104.18,210c-0.2,0.37-0.7,0.57-1.5,0.6c-0.13,0-0.23,0-0.3,0l1.9-2.45
				C104.28,208.72,104.25,209.33,104.18,210z M111.53,213.25c0.57-0.23,1.12-0.57,1.65-1c-0.1,0.83-0.65,1.18-1.65,1.05V213.25z"/>
			<linearGradient id="SVGID_38_" gradientUnits="userSpaceOnUse" x1="107.2837" y1="200.6167" x2="116.0837" y2="200.6167">
				<stop  offset="0" style="stop-color:#734923"/>
				<stop  offset="1" style="stop-color:#FFFFF8"/>
			</linearGradient>
			<path fill-rule="evenodd" clip-rule="evenodd" fill="url(#SVGID_38_)" d="M116.08,201.2h-5.05c-0.23-0.07-0.43-0.1-0.6-0.1
				c-1.17-0.17-2.23-0.03-3.2,0.4v-0.9c1.57-1.23,3.63-1.15,6.2,0.25L116.08,201.2z M111.28,200.25h-0.05
				c-0.37-0.27-0.78-0.37-1.25-0.3l-0.15,0.1c-0.03,0.33,0.32,0.6,1.05,0.8c0.13-0.17,0.25-0.32,0.35-0.45L111.28,200.25z"/>
			<path fill-rule="evenodd" clip-rule="evenodd" fill="#F4D9C6" d="M103.03,201.85h-4.25v-1.1l-0.25-0.55l0.25,0.4h8.45v0.9v0.35
				h-3.05c-0.13-0.37-0.35-0.7-0.65-1l-0.1,0.1c-0.13,0.1-0.23,0.22-0.3,0.35c0.07,0,0.13,0.07,0.2,0.2c0.07,0.1,0.13,0.22,0.2,0.35
				H103.03z"/>
			<path fill-rule="evenodd" clip-rule="evenodd" fill="#D3A47A" d="M104.18,201.85h3.05v8.9h-5.05c1.93-2.77,2.22-5.73,0.85-8.9
				h0.5c0.5,0.97,0.68,2.1,0.55,3.4C104.65,204.02,104.68,202.88,104.18,201.85z M104.18,210c0.07-0.67,0.1-1.28,0.1-1.85l-1.9,2.45
				c0.07,0,0.17,0,0.3,0C103.48,210.57,103.98,210.37,104.18,210z"/>
			<path fill-rule="evenodd" clip-rule="evenodd" fill="#8E5B40" d="M98.78,210.75h3.4h5.05v0.45c0.7,0.33,1.47,0.5,2.3,0.5v0.1
				h-2.45l-0.1-0.1h-8.2V210.75z"/>
			<linearGradient id="SVGID_39_" gradientUnits="userSpaceOnUse" x1="107.0962" y1="212.8862" x2="114.5712" y2="212.8862">
				<stop  offset="0" style="stop-color:#734923"/>
				<stop  offset="1" style="stop-color:#FFFFF8"/>
			</linearGradient>
			<path fill-rule="evenodd" clip-rule="evenodd" fill="url(#SVGID_39_)" d="M107.08,211.8h2.45l5.05-0.1
				c-0.2,0.27-0.65,0.78-1.35,1.55c-0.7,0.8-1.65,1.02-2.85,0.65C109.12,213.63,108.02,212.93,107.08,211.8z M111.53,213.25v0.05
				c1,0.13,1.55-0.22,1.65-1.05C112.65,212.68,112.1,213.02,111.53,213.25z"/>
			<linearGradient id="SVGID_40_" gradientUnits="userSpaceOnUse" x1="101.333" y1="210.7368" x2="101.333" y2="201.8618">
				<stop  offset="0" style="stop-color:#9A6E47"/>
				<stop  offset="0.1647" style="stop-color:#976C45"/>
				<stop  offset="0.3176" style="stop-color:#423117"/>
				<stop  offset="0.4314" style="stop-color:#543A23"/>
				<stop  offset="0.8471" style="stop-color:#443120"/>
				<stop  offset="1" style="stop-color:#CBC394"/>
			</linearGradient>
			<path fill-rule="evenodd" clip-rule="evenodd" fill="url(#SVGID_40_)" d="M102.18,210.75h-3.4v-8.9h4.25
				C104.4,205.02,104.12,207.98,102.18,210.75z"/>
			<path fill-rule="evenodd" clip-rule="evenodd" fill="#EACDBB" d="M98.13,199.95l-0.05,0.1c-13.13,0.07-26.25,0.07-39.35,0
				l0.2-0.2C72,199.85,85.07,199.88,98.13,199.95z"/>
			<path fill-rule="evenodd" clip-rule="evenodd" fill="none" d="M57.13,206.3c0.33,0.3,0.37,0.67,0.1,1.1
				c0.13,0.8,0.37,1.58,0.7,2.35 M57.13,206.3c-0.03-1.77,0.38-3.47,1.25-5.1"/>
			<path fill-rule="evenodd" clip-rule="evenodd" fill="none" d="M199.23,202.1c4.87-0.17,8.05-0.33,9.55-0.5
				c1-0.07,2.08-0.23,3.25-0.5"/>
			<line fill-rule="evenodd" clip-rule="evenodd" fill="none" x1="213.03" y1="202.3" x2="213.03" y2="212.85"/>
			<path fill-rule="evenodd" clip-rule="evenodd" fill="none" d="M168.03,199.95c-0.43,0.07-0.73,0.15-0.9,0.25
				c-0.43,0.4-0.57,1.15-0.4,2.25"/>
			<path fill-rule="evenodd" clip-rule="evenodd" fill="none" d="M166.53,212.25c-0.03,1,0.47,1.57,1.5,1.7"/>
			<line fill-rule="evenodd" clip-rule="evenodd" fill="none" x1="202.08" y1="216.2" x2="211.98" y2="214.1"/>
			<line fill-rule="evenodd" clip-rule="evenodd" fill="none" x1="147.63" y1="203.65" x2="149.33" y2="203.65"/>
			<line fill-rule="evenodd" clip-rule="evenodd" fill="none" x1="150.08" y1="203" x2="150.08" y2="210.2"/>
			<line fill-rule="evenodd" clip-rule="evenodd" fill="none" x1="147.63" y1="209.55" x2="149.33" y2="209.55"/>
			<path fill-rule="evenodd" clip-rule="evenodd" fill="none" d="M132.13,209.55h11.2 M129.68,209.55h1.15 M123.18,209.55h4.6"/>
			<path fill-rule="evenodd" clip-rule="evenodd" fill="none" d="M143.33,203.65h-10.55 M123.18,203.65h3.95"/>
			<line fill-rule="evenodd" clip-rule="evenodd" fill="none" x1="143.33" y1="203.65" x2="147.63" y2="203.65"/>
			<line fill-rule="evenodd" clip-rule="evenodd" fill="none" x1="143.33" y1="209.55" x2="147.63" y2="209.55"/>
			<path fill-rule="evenodd" clip-rule="evenodd" fill="none" d="M116.98,203.65h6.2 M116.98,203.65h-4.3"/>
			<path fill-rule="evenodd" clip-rule="evenodd" fill="none" d="M116.98,209.55h-5.05 M123.18,209.55h-6.2"/>
			<line fill-rule="evenodd" clip-rule="evenodd" fill="none" x1="96.98" y1="203.2" x2="60.68" y2="203.2"/>
		</g>
	</g>
</g>
</svg>
