<?xml version="1.0" encoding="utf-8"?>
<!-- Generator: Adobe Illustrator 16.0.0, SVG Export Plug-In . SVG Version: 6.00 Build 0)  -->
<!DOCTYPE svg PUBLIC "-//W3C//DTD SVG 1.1//EN" "http://www.w3.org/Graphics/SVG/1.1/DTD/svg11.dtd">
<svg version="1.1" xmlns="http://www.w3.org/2000/svg" xmlns:xlink="http://www.w3.org/1999/xlink" x="0px" y="0px" width="182px"
	 height="120.75px" viewBox="0 0 182 120.75" enable-background="new 0 0 182 120.75" xml:space="preserve">
<g id="Layer_1">
</g>
<g id="Layer_2">
	<g>
		<g opacity="0.6">
			
				<radialGradient id="SVGID_1_" cx="84.5" cy="116.75" r="116.0077" gradientTransform="matrix(0.9632 0 0 1 1.7711 0)" gradientUnits="userSpaceOnUse">
				<stop  offset="0" style="stop-color:#000000"/>
				<stop  offset="0.803" style="stop-color:#100E0E;stop-opacity:0.4433"/>
				<stop  offset="1" style="stop-color:#000000;stop-opacity:0"/>
			</radialGradient>
			<path fill="url(#SVGID_1_)" stroke="#FFFFFF" stroke-miterlimit="10" d="M178.48,115.34c0.39,1.57-4.88,2.43-11.96,2.58H12.58
				c-8.25-0.05-10.3-3.76-10.06-5.18l0.94-6.98c0.1-0.46,0.42-0.79,0.95-0.99c1.86-0.76,11.43-1.14,19.1-1.14h43.06
				c0.15-0.05,0.29-0.1,0.44-0.15c0.05-0.05,0.12-0.08,0.22-0.08c0.15-0.05,0.32-0.08,0.51-0.08c0.83-0.1,1.85-0.15,3.08-0.15h42.69
				c1.22,0,2.22,0.05,3,0.15c0.2,0,0.39,0.03,0.59,0.08c0.05,0,0.12,0.03,0.22,0.08c0.15,0.05,0.27,0.1,0.37,0.15h44.38
				c6.3,0,12.45-0.72,14.59-0.16l0.37,0.08c0.44,0.15,0.76,0.28,0.95,0.38c0.34,0.2,0.51,1.43,0.51,1.68V115.34z"/>
		</g>
		<g>
			
				<linearGradient id="SVGID_2_" gradientUnits="userSpaceOnUse" x1="-78.96" y1="-126.3423" x2="-78.96" y2="-120.7423" gradientTransform="matrix(1.5204 0 0 1.5204 209.0255 193.1791)">
				<stop  offset="0" style="stop-color:#080A09"/>
				<stop  offset="1" style="stop-color:#949BA1"/>
			</linearGradient>
			<path fill-rule="evenodd" clip-rule="evenodd" fill="url(#SVGID_2_)" d="M115.01,7.32H62.93c0-0.05,0-0.1,0-0.15V7.09
				c0.79-0.2,0.82-0.5,0.08-0.91c0.08-0.4,0.2-0.78,0.38-1.14c0.07-0.13,0.14-0.26,0.23-0.38c0.15-0.24,0.33-0.47,0.53-0.68
				c0.86-0.81,1.9-1.22,3.12-1.22h43.41c1.22,0,2.23,0.41,3.04,1.22c0.22,0.22,0.41,0.44,0.57,0.68c0.08,0.12,0.16,0.25,0.23,0.38
				c0.19,0.36,0.33,0.74,0.42,1.14v0.08c0.04,0.24,0.07,0.48,0.08,0.72v0.19C115.01,7.22,115.01,7.27,115.01,7.32z"/>
			<path fill-rule="evenodd" clip-rule="evenodd" fill="#595E62" d="M114.93,6.25l45.08-0.08c6.39,0,10.67,2.15,12.85,6.46
				l0.38,0.68c0.46,1.12,0.79,2.15,0.99,3.12c0.3,1.47,0.46,3.12,0.46,4.94l-0.19,37.06l-0.57-36.99c-0.05-1.42-0.2-2.71-0.46-3.88
				c-0.25-1.27-0.68-2.53-1.29-3.8c-2.18-4.31-6.41-6.46-12.7-6.46h-44.47c0-0.05,0-0.1,0-0.15V6.97
				C115,6.73,114.98,6.49,114.93,6.25z M62.93,7.32H19.6c-7.25,0-11.89,2.53-13.91,7.6c-0.81,1.98-1.24,4.21-1.29,6.69l0.23,76.4
				H3.79V22.52c0.1-3.45,0.41-5.98,0.91-7.6c1.88-5.83,6.72-8.74,14.52-8.74h43.79c0.74,0.41,0.71,0.72-0.08,0.91v0.08
				C62.93,7.22,62.93,7.27,62.93,7.32z"/>
			
				<linearGradient id="SVGID_3_" gradientUnits="userSpaceOnUse" x1="-78.7778" y1="-48.2422" x2="-78.7778" y2="-125.2422" gradientTransform="matrix(1.5204 0 0 1.5204 209.0255 193.1791)">
				<stop  offset="0" style="stop-color:#080A09"/>
				<stop  offset="1" style="stop-color:#949BA1"/>
			</linearGradient>
			<path fill-rule="evenodd" clip-rule="evenodd" fill="url(#SVGID_3_)" d="M3.79,98.01l0.66-5.55L4.4,21.61
				c0.05-2.48,0.48-4.71,1.29-6.69c2.03-5.07,6.66-7.6,13.91-7.6h43.33h52.08h44.47c6.28,0,10.52,2.15,12.7,6.46
				c0.61,1.27,1.04,2.53,1.29,3.8c0.25,1.17,0.41,2.46,0.46,3.88l0.57,36.99l0.19,36.98c0.42,11.62-2.98,18.16-10.19,19.61H15.95
				C7.58,114.35,3.52,108.67,3.79,98.01z M10.86,92.65v2.47c0,1.62,0.15,3.07,0.46,4.33c0.41,2.03,1.17,3.67,2.28,4.94
				c2.23,2.69,5.78,4.03,10.64,4.03H155.3c4.36-0.05,7.58-1.39,9.65-4.03c1.67-2.18,2.53-5.27,2.58-9.27v-2.66V73.23
				c0.4-0.17,0.69-0.29,0.87-0.38c0.48-0.22,0.19-0.14-0.87,0.23V24.04c-0.05-7.65-3.19-12.01-9.43-13.08l-0.46-0.08L24.24,10.74
				c-8.92,0-13.38,4.43-13.38,13.3V92.65z M11.35,114.55c0.15,0.16,0.32,0.32,0.49,0.49h-0.15
				C11.57,114.86,11.46,114.7,11.35,114.55z"/>
			
				<linearGradient id="SVGID_4_" gradientUnits="userSpaceOnUse" x1="-78.7778" y1="-48.2422" x2="-78.7778" y2="-125.2422" gradientTransform="matrix(1.5204 0 0 1.5204 209.0255 193.1791)">
				<stop  offset="0" style="stop-color:#080A09"/>
				<stop  offset="1" style="stop-color:#949BA1"/>
			</linearGradient>
			<path fill-rule="evenodd" clip-rule="evenodd" fill="url(#SVGID_4_)" d="M3.79,98.01l0.66-5.55L4.4,21.61
				c0.05-2.48,0.48-4.71,1.29-6.69c2.03-5.07,6.66-7.6,13.91-7.6h43.33h52.08h44.47c6.28,0,10.52,2.15,12.7,6.46
				c0.61,1.27,1.04,2.53,1.29,3.8c0.25,1.17,0.41,2.46,0.46,3.88l0.57,36.99l0.19,36.98c0.42,11.62-2.98,18.16-10.19,19.61H15.95
				C7.58,114.35,3.52,108.67,3.79,98.01z M10.86,92.65v2.47c0,1.62,0.15,3.07,0.46,4.33c0.41,2.03,1.17,3.67,2.28,4.94
				c2.23,2.69,5.78,4.03,10.64,4.03H155.3c4.36-0.05,7.58-1.39,9.65-4.03c1.67-2.18,2.53-5.27,2.58-9.27v-2.66V73.23
				c0.4-0.17,0.69-0.29,0.87-0.38c0.48-0.22,0.19-0.14-0.87,0.23V24.04c-0.05-7.65-3.19-12.01-9.43-13.08l-0.46-0.08L24.24,10.74
				c-8.92,0-13.38,4.43-13.38,13.3V92.65z M11.35,114.55c0.15,0.16,0.32,0.32,0.49,0.49h-0.15
				C11.57,114.86,11.46,114.7,11.35,114.55z"/>
			
				<linearGradient id="SVGID_5_" gradientUnits="userSpaceOnUse" x1="-78.4478" y1="-64.8921" x2="-78.4478" y2="-117.0921" gradientTransform="matrix(1.5204 0 0 1.5204 209.0255 193.1791)">
				<stop  offset="0" style="stop-color:#54595D"/>
				<stop  offset="1" style="stop-color:#0B0B09"/>
			</linearGradient>
			<path fill-rule="evenodd" clip-rule="evenodd" fill="url(#SVGID_5_)" d="M167.54,92.46c-0.1,3.82-0.97,6.78-2.58,8.89
				c-2.08,2.63-5.3,3.98-9.65,4.03H24.24c-4.86,0-8.41-1.34-10.64-4.03c-1.12-1.27-1.88-2.91-2.28-4.94
				c-0.27-1.12-0.42-2.37-0.46-3.76V24.04c0-8.87,4.46-13.3,13.38-13.3l133.42,0.15l0.46,0.08c6.23,1.06,9.38,5.42,9.43,13.08v49.03
				c1.07-0.37,1.36-0.44,0.87-0.23c-0.18,0.09-0.47,0.21-0.87,0.38V92.46z"/>
			
				<linearGradient id="SVGID_6_" gradientUnits="userSpaceOnUse" x1="-78.4478" y1="-64.8921" x2="-78.4478" y2="-117.0921" gradientTransform="matrix(1.5204 0 0 1.5204 209.0255 193.1791)">
				<stop  offset="0" style="stop-color:#54595D"/>
				<stop  offset="1" style="stop-color:#0B0B09"/>
			</linearGradient>
			<path fill-rule="evenodd" clip-rule="evenodd" fill="url(#SVGID_6_)" d="M156.5,10.74c6.23,1.06,10.99,5.65,11.04,13.3v49.03
				c1.07-0.37,1.36-0.44,0.87-0.23c-0.18,0.09-0.47,0.21-0.87,0.38v19.23c-0.1,3.82-0.97,6.78-2.58,8.89
				c-2.08,2.63-5.3,3.98-9.65,4.03H24.24c-4.86,0-8.41-1.34-10.64-4.03c-1.12-1.27-1.88-2.91-2.28-4.94
				c-0.27-1.12-0.42-2.37-0.46-3.76V24.04c0-8.87,4.46-13.3,13.38-13.3"/>
			<path fill-rule="evenodd" clip-rule="evenodd" fill="#54967A" d="M157.89,29.4c-0.42-4.87-4.12-7.16-11.1-6.88H29.41
				c-6.65,0.15-10.05,2.62-10.19,7.41v-2.62c-0.05-5.07,3.34-7.68,10.19-7.83h117.38c7.91-0.3,11.61,2.66,11.1,8.89V29.4z"/>
			
				<linearGradient id="SVGID_7_" gradientUnits="userSpaceOnUse" x1="-120.8696" y1="-112.3218" x2="-36.9063" y2="-76.6273" gradientTransform="matrix(1.5204 0 0 1.5204 209.0255 193.1791)">
				<stop  offset="0" style="stop-color:#E7E9E2"/>
				<stop  offset="1" style="stop-color:#66AA8E"/>
			</linearGradient>
			<path fill-rule="evenodd" clip-rule="evenodd" fill="url(#SVGID_7_)" d="M29.56,76.36c-6.11,0.23-9.02-2.8-10.04-6.25
				c-0.17-0.64-0.27-1.24-0.3-1.79V30.35c0-0.08,0-0.15,0-0.23v-0.19c0.14-4.79,3.53-7.26,10.19-7.41h117.38
				c6.98-0.28,10.68,2.01,11.1,6.88c0.06,0.63,0.06,1.3,0,2.02v35.35c0.06,0.79,0.06,1.53,0,2.2c-0.4,4.59-2.55,7.61-9.12,7.61
				L29.56,76.36z"/>
			<path fill-rule="evenodd" clip-rule="evenodd" fill="#333637" d="M167.54,92.46v2.66c-0.05,4-0.91,7.1-2.58,9.27
				c-2.08,2.63-5.3,3.98-9.65,4.03H24.24c-4.86,0-8.41-1.34-10.64-4.03c-1.12-1.27-1.88-2.92-2.28-4.94
				c-0.3-1.27-0.46-2.71-0.46-4.33v-2.47c0.04,1.39,0.19,2.65,0.46,3.76c0.41,2.03,1.17,3.67,2.28,4.94
				c2.23,2.69,5.78,4.03,10.64,4.03H155.3c4.36-0.05,7.58-1.39,9.65-4.03C166.58,99.25,167.44,96.28,167.54,92.46z"/>
		</g>
		<g>
			<path fill-rule="evenodd" clip-rule="evenodd" d="M99.42,51.41h3.42v4.03h-3.42V51.41z M99.42,67.15v-4.03h3.42v4.03H99.42z"/>
		</g>
		<g>
			<path fill-rule="evenodd" clip-rule="evenodd" d="M59.74,50.65v4.03h-3.42v-4.03H59.74z M56.32,66.39v-4.03h3.42v4.03H56.32z"/>
		</g>
		<g>
			<path fill-rule="evenodd" clip-rule="evenodd" d="M120.18,32.86c0-0.71,0.33-1.34,0.99-1.9c0.3-0.66,1.09-0.99,2.36-0.99
				c0.3,0,0.76,0.15,1.37,0.46l0.53,0.08c0.41,0,0.61-0.03,0.61-0.08l0.46-0.38l0.46,3.19h-0.46c-0.1-0.35-0.23-0.63-0.38-0.84
				c-0.3-0.51-0.71-0.86-1.22-1.06c-0.61-0.41-1.06-0.61-1.37-0.61c-0.3,0-0.63,0.1-0.99,0.3c0,0.2,0,0.43,0,0.68
				c0,0.2,0,0.35,0,0.46c0.35,0.3,0.99,0.79,1.9,1.44c1.37,0.66,2.21,1.24,2.51,1.75c0.3,0.41,0.46,0.91,0.46,1.52
				c0,0.35-0.08,0.74-0.23,1.14c-0.05,0.1-0.13,0.23-0.23,0.38c-0.1,0.2-0.25,0.41-0.46,0.61c-0.3,0.2-0.66,0.38-1.06,0.53
				c-0.35,0.25-0.84,0.38-1.44,0.38c-0.61,0-1.24-0.13-1.9-0.38l-0.46-0.23c-0.3,0-0.63,0.2-0.99,0.61l-0.46-3.34h0.46
				c0.35,0.81,0.84,1.44,1.44,1.9c0.66,0.46,1.14,0.68,1.44,0.68c0.3,0,0.61-0.1,0.91-0.3c0.3-0.15,0.46-0.38,0.46-0.68
				c0-0.3-0.15-0.58-0.46-0.84c-0.3-0.25-0.76-0.61-1.37-1.06c-1.27-0.66-2.08-1.19-2.43-1.6
				C120.33,34.08,120.18,33.47,120.18,32.86z M93.5,30.35c0.46,0,0.86,0.18,1.22,0.53c0.3,0.3,0.53,0.71,0.68,1.22
				c0.1,0.41,0.15,1.14,0.15,2.21v3.65c0,0.71,0.08,1.17,0.23,1.37c0.05,0.15,0.28,0.25,0.68,0.3v0.38h-4.03v-0.38
				c0.2-0.05,0.35-0.2,0.46-0.46c0.15-0.15,0.23-0.56,0.23-1.22v-4.18c0-0.76,0-1.24,0-1.44c-0.15-0.2-0.28-0.35-0.38-0.46
				c-0.15-0.1-0.25-0.15-0.3-0.15c-0.61,0-1.09,0.41-1.44,1.22v5.02c0,0.71,0.05,1.17,0.15,1.37c0.1,0.15,0.28,0.25,0.53,0.3v0.38
				h-3.95v-0.38c0.25-0.05,0.46-0.18,0.61-0.38c0.2-0.15,0.3-0.58,0.3-1.29v-5.32c0-0.71-0.1-1.14-0.3-1.29
				c-0.1-0.2-0.3-0.33-0.61-0.38v-0.3h3.27v1.22c0.35-0.56,0.73-0.94,1.14-1.14C92.53,30.48,92.99,30.35,93.5,30.35z M44.76,39.47
				h-4.71v-0.3c0.3-0.05,0.58-0.18,0.84-0.38c0.1-0.15,0.15-0.53,0.15-1.14v-3.8c0-0.81-0.03-1.32-0.08-1.52
				c-0.05-0.1-0.2-0.23-0.46-0.38c-0.1-0.05-0.23-0.08-0.38-0.08c-0.3,0-0.58,0.05-0.84,0.15c-0.2,0.2-0.46,0.51-0.76,0.91v4.71
				c0,0.61,0.03,0.99,0.08,1.14c0.15,0.2,0.41,0.33,0.76,0.38v0.3h-4.64v-0.3c0.35-0.05,0.61-0.18,0.76-0.38
				c0.2-0.15,0.3-0.53,0.3-1.14v-8.82c0-0.61-0.13-1.01-0.38-1.22c-0.1-0.15-0.33-0.25-0.68-0.3v-0.3h3.8v4.94
				c0.46-0.46,0.94-0.79,1.44-0.99c0.35-0.3,0.79-0.46,1.29-0.46c0.61,0,1.09,0.18,1.44,0.53c0.46,0.35,0.76,0.73,0.91,1.14
				c0.15,0.41,0.23,1.09,0.23,2.05v3.42c0,0.61,0.05,1.01,0.15,1.22c0.1,0.15,0.35,0.25,0.76,0.3V39.47z M85.51,26.85
				c0.15,0.25,0.23,0.51,0.23,0.76c0,0.46-0.18,0.84-0.53,1.14c-0.2,0.3-0.51,0.46-0.91,0.46c-0.35,0-0.71-0.15-1.06-0.46
				c-0.2-0.3-0.3-0.68-0.3-1.14c0-0.25,0.05-0.51,0.15-0.76c0.05-0.1,0.1-0.2,0.15-0.3c0.35-0.3,0.71-0.46,1.06-0.46
				c0.41,0,0.71,0.15,0.91,0.46C85.31,26.65,85.41,26.75,85.51,26.85z M79.51,30.81c0.41,0.3,0.66,0.68,0.76,1.14
				c0.1,0.46,0.15,1.17,0.15,2.13v3.88c0,0.71,0.05,1.17,0.15,1.37c0.2,0.15,0.46,0.25,0.76,0.3v0.38h-4.18v-0.38
				c0.3,0,0.53-0.15,0.68-0.46c0.1-0.15,0.15-0.56,0.15-1.22v-4.03c0-0.86,0-1.39,0-1.6c-0.1-0.25-0.23-0.43-0.38-0.53
				c-0.1-0.1-0.25-0.15-0.46-0.15c-0.25,0-0.48,0.1-0.68,0.3c-0.25,0.2-0.53,0.53-0.84,0.99v5.02c0,0.66,0,1.09,0,1.29
				c0.3,0.25,0.63,0.38,0.99,0.38v0.38h-4.41v-0.38c0.25,0,0.48-0.05,0.68-0.15c0.15-0.15,0.23-0.3,0.23-0.46c0-0.15,0-0.51,0-1.06
				v-4.03c0-0.86,0-1.39,0-1.6c-0.15-0.2-0.3-0.38-0.46-0.53c-0.05-0.1-0.13-0.15-0.23-0.15c-0.25,0-0.51,0.08-0.76,0.23
				c-0.2,0.2-0.51,0.56-0.91,1.06v5.02c0,0.66,0.08,1.09,0.23,1.29s0.38,0.33,0.68,0.38v0.38H67.5v-0.38
				c0.3-0.05,0.51-0.18,0.61-0.38c0.15-0.15,0.23-0.58,0.23-1.29v-5.32c0-0.71-0.08-1.14-0.23-1.29c-0.1-0.2-0.3-0.33-0.61-0.38
				v-0.3h3.27v1.22c0.51-0.56,0.94-0.96,1.29-1.22c0.35-0.2,0.76-0.3,1.22-0.3c0.56,0,0.99,0.13,1.29,0.38
				c0.41,0.3,0.73,0.73,0.99,1.29c0.51-0.61,0.91-1.04,1.22-1.29c0.46-0.25,0.94-0.38,1.44-0.38C78.77,30.35,79.2,30.5,79.51,30.81z
				 M82.02,30.66h3.65v7.37c0,0.66,0.03,1.09,0.08,1.29c0.15,0.2,0.46,0.3,0.91,0.3v0.38h-4.64v-0.38c0.35,0,0.66-0.13,0.91-0.38
				c0.1-0.15,0.15-0.56,0.15-1.22v-5.47c0-0.66-0.05-1.06-0.15-1.22c-0.25-0.2-0.56-0.33-0.91-0.38V30.66z"/>
		</g>
		<g>
			<g>
				<path fill-rule="evenodd" clip-rule="evenodd" fill="#989EA3" d="M23.45,88.82c0-2.03,1.01-3.04,3.04-3.04h83.32
					c2.03,0,3.04,1.01,3.04,3.04v10.95c0,2.03-1.01,3.04-3.04,3.04H26.49c-2.03,0-3.04-1.01-3.04-3.04V88.82z"/>
			</g>
			<g>
				<path fill-rule="evenodd" clip-rule="evenodd" d="M23.45,99.16c-2.03,0-3.04-1.01-3.04-3.04V85.17c0-2.03,1.01-3.04,3.04-3.04
					h83.32c2.03,0,3.04,1.01,3.04,3.04v10.95c0,2.03-1.01,3.04-3.04,3.04H23.45z"/>
			</g>
			<g>
				
					<linearGradient id="SVGID_8_" gradientUnits="userSpaceOnUse" x1="-220.7852" y1="-154.7925" x2="-220.7852" y2="-173.9925" gradientTransform="matrix(1.5204 0 0 1.5204 402.3263 346.9789)">
					<stop  offset="0" style="stop-color:#414547"/>
					<stop  offset="1" style="stop-color:#B6BBC1"/>
				</linearGradient>
				<path fill-rule="evenodd" clip-rule="evenodd" fill="url(#SVGID_8_)" d="M24.97,100.68c-2.03,0-3.04-1.01-3.04-3.04V86.69
					c0-2.03,1.01-3.04,3.04-3.04h83.32c2.03,0,3.04,1.01,3.04,3.04v10.95c0,2.03-1.01,3.04-3.04,3.04H24.97z"/>
				
					<path fill-rule="evenodd" clip-rule="evenodd" fill="none" stroke="#45484B" stroke-width="0.1" stroke-linecap="round" stroke-linejoin="round" stroke-miterlimit="3" d="
					M24.97,100.68h83.32c2.03,0,3.04-1.01,3.04-3.04V86.69c0-2.03-1.01-3.04-3.04-3.04H24.97c-2.03,0-3.04,1.01-3.04,3.04v10.95
					C21.93,99.66,22.95,100.68,24.97,100.68z"/>
			</g>
		</g>
	</g>
</g>
</svg>
