<?xml version="1.0" encoding="utf-8"?>
<!-- Generator: Adobe Illustrator 16.0.0, SVG Export Plug-In . SVG Version: 6.00 Build 0)  -->
<!DOCTYPE svg PUBLIC "-//W3C//DTD SVG 1.1//EN" "http://www.w3.org/Graphics/SVG/1.1/DTD/svg11.dtd">
<svg version="1.1" id="Layer_1" xmlns="http://www.w3.org/2000/svg" xmlns:xlink="http://www.w3.org/1999/xlink" x="0px" y="0px"
	 width="252.17px" height="162.5px" viewBox="0 0 252.17 162.5" enable-background="new 0 0 252.17 162.5" xml:space="preserve">
<g>
	<g>
		
			<linearGradient id="SVGID_1_" gradientUnits="userSpaceOnUse" x1="25.0176" y1="258.96" x2="54.6436" y2="259.3036" gradientTransform="matrix(1.3936 0 0 -1.3936 180.8871 442.4815)">
			<stop  offset="0" style="stop-color:#151515"/>
			<stop  offset="0.6275" style="stop-color:#1E1E1E"/>
			<stop  offset="1" style="stop-color:#5F5F5F"/>
		</linearGradient>
		<polygon fill="url(#SVGID_1_)" points="251.62,162.5 208.28,145.56 208.28,0.35 252.17,0.35 252.17,162.5 		"/>
		
			<linearGradient id="SVGID_2_" gradientUnits="userSpaceOnUse" x1="-39.5122" y1="218.6572" x2="-39.5293" y2="196.5572" gradientTransform="matrix(1.3936 0 0 -1.3936 180.8871 442.4815)">
			<stop  offset="0" style="stop-color:#000000"/>
			<stop  offset="1" style="stop-color:#464646"/>
		</linearGradient>
		<polygon fill="url(#SVGID_2_)" points="251.62,162.5 0,162.5 0,145.15 207.3,145.15 208.28,145.56 		"/>
		<polygon points="0,145.15 0,0.35 208.28,0.35 208.28,145.56 207.3,145.15 		"/>
	</g>
	<g>
		<g>
			
				<linearGradient id="SVGID_3_" gradientUnits="userSpaceOnUse" x1="45.001" y1="299.8438" x2="45.001" y2="310.8679" gradientTransform="matrix(1.3936 0 0 -1.3936 180.8871 442.4815)">
				<stop  offset="0" style="stop-color:#333333"/>
				<stop  offset="0.3608" style="stop-color:#6B6C6B"/>
				<stop  offset="0.5843" style="stop-color:#808080"/>
				<stop  offset="0.8863" style="stop-color:#545554"/>
				<stop  offset="1" style="stop-color:#5E5E5E"/>
			</linearGradient>
			<path fill="url(#SVGID_3_)" d="M248.27,25.99h-8.85v-0.07c-0.09-0.98-0.21-2.16-0.35-3.55c-0.09-1.49-0.14-3.23-0.14-5.23
				c0-0.09,0-0.16,0-0.21l0.07-4.25c0.05-0.42,0.07-0.84,0.07-1.25c0-0.19,0.02-0.37,0.07-0.56c0-0.14,0.02-0.25,0.07-0.35v-0.07
				c0.05-0.93,0.12-1.6,0.21-2.02V8.29h8.85c-0.05,0-0.07,0.05-0.07,0.14c-0.09,0.42-0.16,1.09-0.21,2.02v0.07
				c-0.05,0.09-0.07,0.21-0.07,0.35c-0.05,0.56-0.09,1.16-0.14,1.81l-0.07,4.25c0,0.05,0,0.12,0,0.21c0,2,0.05,3.74,0.14,5.23
				c0,0.33,0.02,0.65,0.07,0.98c0.09,1.44,0.19,2.3,0.28,2.58C248.2,25.97,248.23,25.99,248.27,25.99z"/>
			<path fill="#7C7D79" d="M248.27,8.29h-8.85V5.37h8.92V8.3L248.27,8.29L248.27,8.29z M239.42,25.99h8.85h0.07v2.37h-8.92V25.99
				L239.42,25.99z"/>
			<path fill="#93968F" d="M239.42,8.29v0.14c-0.09,0.42-0.16,1.09-0.21,2.02v0.07c-0.05,0.09-0.07,0.21-0.07,0.35
				c-0.05,0.19-0.07,0.37-0.07,0.56c0,0.42-0.02,0.84-0.07,1.25l-0.07,4.25c0,0.05,0,0.12,0,0.21c0,2,0.05,3.74,0.14,5.23
				c0.14,1.39,0.26,2.58,0.35,3.55v0.07v2.37l-1.19-5.09V11.22l1.19-5.85V8.29L239.42,8.29z"/>
		</g>
		<g>
			
				<path fill="none" stroke="#FFFFFF" stroke-width="0.1" stroke-linecap="round" stroke-linejoin="round" stroke-miterlimit="3" stroke-opacity="0.149" d="
				M247.16,8.92c-0.46,5.39-0.46,10.87,0,16.44"/>
		</g>
		<g>
			
				<path fill="none" stroke="#FFFFFF" stroke-width="0.1" stroke-linecap="round" stroke-linejoin="round" stroke-miterlimit="3" stroke-opacity="0.149" d="
				M245.83,8.92c-0.46,5.39-0.46,10.87,0,16.44"/>
		</g>
		<g>
			
				<path fill="none" stroke="#FFFFFF" stroke-width="0.1" stroke-linecap="round" stroke-linejoin="round" stroke-miterlimit="3" stroke-opacity="0.149" d="
				M244.72,8.92c-0.46,5.39-0.46,10.87,0,16.44"/>
		</g>
		<g>
			
				<path fill="none" stroke="#000000" stroke-width="0.1" stroke-linecap="round" stroke-linejoin="round" stroke-miterlimit="3" stroke-opacity="0.2902" d="
				M246.95,8.92c-0.46,5.39-0.46,10.87,0,16.44"/>
		</g>
		<g>
			
				<path fill="none" stroke="#000000" stroke-width="0.1" stroke-linecap="round" stroke-linejoin="round" stroke-miterlimit="3" stroke-opacity="0.2902" d="
				M245.62,8.92c-0.46,5.39-0.46,10.87,0,16.44"/>
		</g>
		<g>
			
				<path fill="none" stroke="#000000" stroke-width="0.1" stroke-linecap="round" stroke-linejoin="round" stroke-miterlimit="3" stroke-opacity="0.2902" d="
				M244.51,8.92c-0.46,5.39-0.46,10.87,0,16.44"/>
		</g>
		<g>
			
				<path fill="none" stroke="#FFFFFF" stroke-width="0.1" stroke-linecap="round" stroke-linejoin="round" stroke-miterlimit="3" stroke-opacity="0.149" d="
				M243.6,8.92c-0.46,5.39-0.46,10.87,0,16.44"/>
		</g>
		<g>
			
				<path fill="none" stroke="#FFFFFF" stroke-width="0.1" stroke-linecap="round" stroke-linejoin="round" stroke-miterlimit="3" stroke-opacity="0.149" d="
				M242.28,8.92c-0.46,5.39-0.46,10.87,0,16.44"/>
		</g>
		<g>
			
				<path fill="none" stroke="#FFFFFF" stroke-width="0.1" stroke-linecap="round" stroke-linejoin="round" stroke-miterlimit="3" stroke-opacity="0.149" d="
				M241.16,8.92c-0.46,5.39-0.46,10.87,0,16.44"/>
		</g>
		<g>
			
				<path fill="none" stroke="#000000" stroke-width="0.1" stroke-linecap="round" stroke-linejoin="round" stroke-miterlimit="3" stroke-opacity="0.2902" d="
				M243.4,8.92c-0.46,5.39-0.46,10.87,0,16.44"/>
		</g>
		<g>
			
				<path fill="none" stroke="#000000" stroke-width="0.1" stroke-linecap="round" stroke-linejoin="round" stroke-miterlimit="3" stroke-opacity="0.2902" d="
				M242.07,8.92c-0.46,5.39-0.46,10.87,0,16.44"/>
		</g>
		<g>
			
				<path fill="none" stroke="#000000" stroke-width="0.1" stroke-linecap="round" stroke-linejoin="round" stroke-miterlimit="3" stroke-opacity="0.2902" d="
				M240.96,8.92c-0.46,5.39-0.46,10.87,0,16.44"/>
		</g>
	</g>
	<g>
		<g>
			<path fill="#868079" d="M245.42,9.06v1.32h-0.14c-0.05,0.28-0.05,0.56,0,0.84c-0.14,1.39-0.21,3.11-0.21,5.16
				c0,1.95,0.07,3.65,0.21,5.09c0,0.28,0,0.51,0,0.7h0.21l0.07,1.39h-0.28c-0.14,0-0.26-0.67-0.35-2.02
				c-0.09-1.44-0.14-3.14-0.14-5.09c0-2.04,0.05-3.76,0.14-5.16c0-1.49,0.07-2.23,0.21-2.23c0.04,0,0.07,0.02,0.07,0.07V9.06H245.42
				z"/>
			<path fill="#7E7870" d="M245.48,22.16l6.48,0.07c0,0.05,0.02,0.46,0.07,1.25l-6.48,0.07L245.48,22.16z M245.42,10.38V9.06h0.07
				l6.27-0.07v1.32l-5.99,0.07H245.42z"/>
			
				<linearGradient id="SVGID_4_" gradientUnits="userSpaceOnUse" x1="-113.5449" y1="708.5518" x2="-105.0952" y2="708.5518" gradientTransform="matrix(0.0143 1.3935 1.3935 -0.0143 -737.3176 178.7162)">
				<stop  offset="0" style="stop-color:#37332F"/>
				<stop  offset="0.4784" style="stop-color:#6A6559"/>
				<stop  offset="0.7686" style="stop-color:#958F81"/>
				<stop  offset="1" style="stop-color:#5B5953"/>
			</linearGradient>
			<path fill="url(#SVGID_4_)" d="M251.97,22.23l-6.48-0.07h-0.21c0-0.19,0-0.42,0-0.7c-0.14-1.44-0.21-3.14-0.21-5.09
				c0-2.04,0.07-3.76,0.21-5.16c-0.05-0.28-0.05-0.56,0-0.84h0.14h0.35l5.99-0.07c0,0.09,0,0.16,0,0.21c0,0.19,0,0.39,0,0.63
				c-0.09,1.39-0.14,3.23-0.14,5.5c0,0.09,0,0.16,0,0.21c0,2.37,0.09,4.09,0.28,5.16v0.14L251.97,22.23z"/>
		</g>
	</g>
	<g>
		<g>
			
				<linearGradient id="SVGID_5_" gradientUnits="userSpaceOnUse" x1="45.001" y1="211.2432" x2="45.001" y2="222.269" gradientTransform="matrix(1.3936 0 0 -1.3936 180.8871 442.4815)">
				<stop  offset="0" style="stop-color:#333333"/>
				<stop  offset="0.3608" style="stop-color:#6B6C6B"/>
				<stop  offset="0.5843" style="stop-color:#808080"/>
				<stop  offset="0.8863" style="stop-color:#545554"/>
				<stop  offset="1" style="stop-color:#5E5E5E"/>
			</linearGradient>
			<path fill="url(#SVGID_5_)" d="M248.27,149.47h-8.85v-0.07c-0.09-0.97-0.21-2.16-0.35-3.55c-0.09-1.49-0.14-3.23-0.14-5.23
				c0-0.09,0-0.16,0-0.21l0.07-4.25c0.05-0.42,0.07-0.84,0.07-1.25c0-0.19,0.02-0.37,0.07-0.56c0-0.14,0.02-0.25,0.07-0.35v-0.07
				c0.05-0.93,0.12-1.6,0.21-2.02v-0.14h8.85c-0.05,0-0.07,0.05-0.07,0.14c-0.09,0.42-0.16,1.09-0.21,2.02V134
				c-0.05,0.09-0.07,0.21-0.07,0.35c-0.05,0.56-0.09,1.16-0.14,1.81l-0.07,4.25c0,0.05,0,0.12,0,0.21c0,2,0.05,3.74,0.14,5.23
				c0,0.33,0.02,0.65,0.07,0.98c0.09,1.44,0.19,2.3,0.28,2.58C248.2,149.44,248.23,149.46,248.27,149.47z"/>
			<path fill="#7C7D79" d="M248.27,131.77h-8.85v-2.93h8.92v2.93H248.27z M248.27,149.47h0.07v2.37h-8.92v-2.37H248.27z"/>
			<path fill="#93968F" d="M239.42,149.47v2.37l-1.19-5.09V134.7l1.19-5.85v2.93v0.14c-0.09,0.42-0.16,1.09-0.21,2.02V134
				c-0.05,0.09-0.07,0.21-0.07,0.35c-0.05,0.19-0.07,0.37-0.07,0.56c0,0.42-0.02,0.84-0.07,1.25l-0.07,4.25c0,0.05,0,0.12,0,0.21
				c0,2,0.05,3.74,0.14,5.23c0.14,1.39,0.26,2.58,0.35,3.55V149.47L239.42,149.47z"/>
		</g>
		<g>
			
				<path fill="none" stroke="#FFFFFF" stroke-width="0.1" stroke-linecap="round" stroke-linejoin="round" stroke-miterlimit="3" stroke-opacity="0.149" d="
				M247.16,132.39c-0.46,5.39-0.46,10.87,0,16.44"/>
		</g>
		<g>
			
				<path fill="none" stroke="#FFFFFF" stroke-width="0.1" stroke-linecap="round" stroke-linejoin="round" stroke-miterlimit="3" stroke-opacity="0.149" d="
				M245.83,132.39c-0.46,5.39-0.46,10.87,0,16.44"/>
		</g>
		<g>
			
				<path fill="none" stroke="#FFFFFF" stroke-width="0.1" stroke-linecap="round" stroke-linejoin="round" stroke-miterlimit="3" stroke-opacity="0.149" d="
				M244.72,132.39c-0.46,5.39-0.46,10.87,0,16.44"/>
		</g>
		<g>
			
				<path fill="none" stroke="#000000" stroke-width="0.1" stroke-linecap="round" stroke-linejoin="round" stroke-miterlimit="3" stroke-opacity="0.2902" d="
				M246.95,132.39c-0.46,5.39-0.46,10.87,0,16.44"/>
		</g>
		<g>
			
				<path fill="none" stroke="#000000" stroke-width="0.1" stroke-linecap="round" stroke-linejoin="round" stroke-miterlimit="3" stroke-opacity="0.2902" d="
				M245.62,132.39c-0.46,5.39-0.46,10.87,0,16.44"/>
		</g>
		<g>
			
				<path fill="none" stroke="#000000" stroke-width="0.1" stroke-linecap="round" stroke-linejoin="round" stroke-miterlimit="3" stroke-opacity="0.2902" d="
				M244.51,132.39c-0.46,5.39-0.46,10.87,0,16.44"/>
		</g>
		<g>
			
				<path fill="none" stroke="#FFFFFF" stroke-width="0.1" stroke-linecap="round" stroke-linejoin="round" stroke-miterlimit="3" stroke-opacity="0.149" d="
				M243.6,132.39c-0.46,5.39-0.46,10.87,0,16.44"/>
		</g>
		<g>
			
				<path fill="none" stroke="#FFFFFF" stroke-width="0.1" stroke-linecap="round" stroke-linejoin="round" stroke-miterlimit="3" stroke-opacity="0.149" d="
				M242.28,132.39c-0.46,5.39-0.46,10.87,0,16.44"/>
		</g>
		<g>
			
				<path fill="none" stroke="#FFFFFF" stroke-width="0.1" stroke-linecap="round" stroke-linejoin="round" stroke-miterlimit="3" stroke-opacity="0.149" d="
				M241.16,132.39c-0.46,5.39-0.46,10.87,0,16.44"/>
		</g>
		<g>
			
				<path fill="none" stroke="#000000" stroke-width="0.1" stroke-linecap="round" stroke-linejoin="round" stroke-miterlimit="3" stroke-opacity="0.2902" d="
				M243.4,132.39c-0.46,5.39-0.46,10.87,0,16.44"/>
		</g>
		<g>
			
				<path fill="none" stroke="#000000" stroke-width="0.1" stroke-linecap="round" stroke-linejoin="round" stroke-miterlimit="3" stroke-opacity="0.2902" d="
				M242.07,132.39c-0.46,5.39-0.46,10.87,0,16.44"/>
		</g>
		<g>
			
				<path fill="none" stroke="#000000" stroke-width="0.1" stroke-linecap="round" stroke-linejoin="round" stroke-miterlimit="3" stroke-opacity="0.2902" d="
				M240.96,132.39c-0.46,5.39-0.46,10.87,0,16.44"/>
		</g>
	</g>
	<g>
		<g>
			<path fill="#7E7870" d="M251.76,133.79l-5.99,0.07h-0.35v-1.32h0.07l6.27-0.07V133.79z M245.55,147.03l-0.07-1.39l6.48,0.07
				c0,0.05,0.02,0.46,0.07,1.25L245.55,147.03z"/>
			
				<linearGradient id="SVGID_6_" gradientUnits="userSpaceOnUse" x1="-24.9507" y1="707.6426" x2="-16.5" y2="707.6426" gradientTransform="matrix(0.0143 1.3935 1.3935 -0.0143 -737.3176 178.7162)">
				<stop  offset="0" style="stop-color:#37332F"/>
				<stop  offset="0.4784" style="stop-color:#6A6559"/>
				<stop  offset="0.7686" style="stop-color:#958F81"/>
				<stop  offset="1" style="stop-color:#5B5953"/>
			</linearGradient>
			<path fill="url(#SVGID_6_)" d="M251.97,145.7l-6.48-0.07h-0.21c0-0.19,0-0.42,0-0.7c-0.14-1.44-0.21-3.14-0.21-5.09
				c0-2.04,0.07-3.76,0.21-5.16c-0.05-0.28-0.05-0.56,0-0.84h0.14h0.35l5.99-0.07c0,0.09,0,0.16,0,0.21c0,0.19,0,0.39,0,0.63
				c-0.09,1.39-0.14,3.23-0.14,5.5c0,0.09,0,0.16,0,0.21c0,2.37,0.09,4.09,0.28,5.16v0.14L251.97,145.7z"/>
			<path fill="#868079" d="M245.48,145.63l0.07,1.39h-0.28c-0.14,0-0.26-0.67-0.35-2.02c-0.09-1.44-0.14-3.14-0.14-5.09
				c0-2.04,0.05-3.76,0.14-5.16c0-1.49,0.07-2.23,0.21-2.23c0.04,0,0.07,0.02,0.07,0.07v-0.07h0.21v1.32h-0.14
				c-0.05,0.28-0.05,0.56,0,0.84c-0.14,1.39-0.21,3.11-0.21,5.16c0,1.95,0.07,3.65,0.21,5.09c0,0.28,0,0.51,0,0.7H245.48z"/>
		</g>
	</g>
	<g>
		<path fill="#4A4342" d="M227.23,129.68H18.88h-0.07c-11.2-1.63-16.82-3.41-16.86-5.37v-0.07c0.09-2.83,11.71-5.3,34.84-7.39
			c23.23-2,51.26-3,84.1-3c32.84,0,60.79,0.98,83.83,2.93c22.95,1.95,34.65,4.65,35.12,8.08l-0.07,0.07
			c-0.79,1.44-4.97,2.97-12.54,4.6V129.68z"/>
		
			<linearGradient id="SVGID_7_" gradientUnits="userSpaceOnUse" x1="33.2539" y1="215.4326" x2="42.2529" y2="215.4326" gradientTransform="matrix(1.3936 0 0 -1.3936 180.8871 442.4815)">
			<stop  offset="0" style="stop-color:#AFADAD"/>
			<stop  offset="1" style="stop-color:#3E3939"/>
		</linearGradient>
		<path fill="url(#SVGID_7_)" d="M227.23,159.57v-29.89v-0.14c7.57-1.63,11.75-3.16,12.54-4.6v30.24c-0.19,0.32-0.51,0.65-0.97,0.97
			C236.84,157.36,232.99,158.5,227.23,159.57z"/>
		
			<linearGradient id="SVGID_8_" gradientUnits="userSpaceOnUse" x1="-116.2505" y1="213.7324" x2="33.2539" y2="213.7324" gradientTransform="matrix(1.3936 0 0 -1.3936 180.8871 442.4815)">
			<stop  offset="0" style="stop-color:#898686"/>
			<stop  offset="1" style="stop-color:#E1E1E1"/>
		</linearGradient>
		<path fill="url(#SVGID_8_)" d="M18.88,159.5v-29.82h208.35v29.89c-0.05-0.14-0.07-0.14-0.07,0H19.3L18.88,159.5z M223.81,148.84
			v-15.82H23.2v15.12v8.01h200.61V148.84z"/>
		
			<linearGradient id="SVGID_9_" gradientUnits="userSpaceOnUse" x1="30.7871" y1="211.1963" x2="-113.2012" y2="207.3355" gradientTransform="matrix(1.3936 0 0 -1.3936 180.8871 442.4815)">
			<stop  offset="0" style="stop-color:#2F2F2F"/>
			<stop  offset="0.1882" style="stop-color:#979595"/>
			<stop  offset="1" style="stop-color:#2C2929"/>
		</linearGradient>
		<path fill="url(#SVGID_9_)" d="M23.2,148.14h0.21c4.46-0.56,12.89-1.44,25.29-2.65c12.36-1.21,35.77-1.81,70.24-1.81
			c34.47,0,59.32,0.67,74.56,2.02c15.19,1.35,25.29,2.39,30.31,3.14v7.32H23.2V148.14z"/>
		
			<linearGradient id="SVGID_10_" gradientUnits="userSpaceOnUse" x1="-113.1504" y1="216.3828" x2="30.7998" y2="216.3828" gradientTransform="matrix(1.3936 0 0 -1.3936 180.8871 442.4815)">
			<stop  offset="0" style="stop-color:#1A1A1A"/>
			<stop  offset="0.4784" style="stop-color:#272525"/>
			<stop  offset="0.7922" style="stop-color:#6C6261"/>
			<stop  offset="1" style="stop-color:#474141"/>
		</linearGradient>
		<path fill="url(#SVGID_10_)" d="M223.81,148.84c-5.02-0.74-15.12-1.79-30.31-3.14c-15.24-1.35-40.09-2.02-74.56-2.02
			c-34.47,0-57.88,0.6-70.24,1.81c-12.4,1.21-20.83,2.09-25.29,2.65H23.2v-15.12h200.61V148.84z"/>
		
			<linearGradient id="SVGID_11_" gradientUnits="userSpaceOnUse" x1="-115.8589" y1="215.875" x2="-128.4833" y2="215.4953" gradientTransform="matrix(1.3936 0 0 -1.3936 180.8871 442.4815)">
			<stop  offset="0" style="stop-color:#AFADAD"/>
			<stop  offset="1" style="stop-color:#3E3939"/>
		</linearGradient>
		<path fill="url(#SVGID_11_)" d="M18.88,129.68v29.82c-11.2-1.53-16.84-3.3-16.93-5.29v-29.89c0.05,1.95,5.67,3.74,16.86,5.37
			L18.88,129.68L18.88,129.68z"/>
	</g>
	<g>
		<path fill="#4A4342" d="M227.23,98.74H18.88h-0.07C7.62,97.11,2,95.32,1.95,93.37V93.3c0.09-2.83,11.71-5.3,34.84-7.39
			c23.23-2,51.26-3,84.1-3c32.84,0,60.79,0.97,83.83,2.93c22.95,1.95,34.65,4.64,35.12,8.08L239.77,94
			c-0.79,1.44-4.97,2.97-12.54,4.6V98.74L227.23,98.74z"/>
		
			<linearGradient id="SVGID_12_" gradientUnits="userSpaceOnUse" x1="33.2539" y1="237.6338" x2="42.2529" y2="237.6338" gradientTransform="matrix(1.3936 0 0 -1.3936 180.8871 442.4815)">
			<stop  offset="0" style="stop-color:#AFADAD"/>
			<stop  offset="1" style="stop-color:#3E3939"/>
		</linearGradient>
		<path fill="url(#SVGID_12_)" d="M227.23,98.74V98.6c7.57-1.63,11.75-3.16,12.54-4.6v30.24c-0.19,0.33-0.51,0.65-0.97,0.98
			c-1.95,1.21-5.81,2.35-11.57,3.41V98.74L227.23,98.74z"/>
		
			<linearGradient id="SVGID_13_" gradientUnits="userSpaceOnUse" x1="-113.1504" y1="238.584" x2="30.7998" y2="238.584" gradientTransform="matrix(1.3936 0 0 -1.3936 180.8871 442.4815)">
			<stop  offset="0" style="stop-color:#000000"/>
			<stop  offset="0.4784" style="stop-color:#272525"/>
			<stop  offset="0.7922" style="stop-color:#6C6261"/>
			<stop  offset="0.9294" style="stop-color:#544D4C"/>
			<stop  offset="1" style="stop-color:#272525"/>
		</linearGradient>
		<path fill="url(#SVGID_13_)" d="M23.2,117.2v-15.12h200.61v15.82c-5.02-0.74-15.12-1.79-30.31-3.14
			c-15.24-1.35-40.09-2.02-74.56-2.02c-34.47,0-57.88,0.6-70.24,1.81c-12.4,1.21-20.83,2.09-25.29,2.65H23.2z"/>
		
			<linearGradient id="SVGID_14_" gradientUnits="userSpaceOnUse" x1="30.7861" y1="233.3945" x2="-113.2017" y2="229.5337" gradientTransform="matrix(1.3936 0 0 -1.3936 180.8871 442.4815)">
			<stop  offset="0" style="stop-color:#2F2F2F"/>
			<stop  offset="0.1882" style="stop-color:#979595"/>
			<stop  offset="1" style="stop-color:#2C2929"/>
		</linearGradient>
		<path fill="url(#SVGID_14_)" d="M223.81,117.9v7.32H23.2v-8.01h0.21c4.46-0.56,12.89-1.44,25.29-2.65
			c12.36-1.21,35.77-1.81,70.24-1.81c34.47,0,59.32,0.67,74.56,2.02C208.69,116.11,218.8,117.16,223.81,117.9z"/>
		
			<linearGradient id="SVGID_15_" gradientUnits="userSpaceOnUse" x1="-116.2505" y1="235.9336" x2="33.2539" y2="235.9336" gradientTransform="matrix(1.3936 0 0 -1.3936 180.8871 442.4815)">
			<stop  offset="0" style="stop-color:#898686"/>
			<stop  offset="1" style="stop-color:#E1E1E1"/>
		</linearGradient>
		<path fill="url(#SVGID_15_)" d="M18.88,98.74h208.35v29.89c-0.05-0.14-0.07-0.14-0.07,0H19.3l-0.42-0.07V98.74z M23.2,117.2v8.01
			h200.61v-7.32v-15.82H23.2V117.2z"/>
		
			<linearGradient id="SVGID_16_" gradientUnits="userSpaceOnUse" x1="-115.8594" y1="238.0791" x2="-128.4838" y2="237.6993" gradientTransform="matrix(1.3936 0 0 -1.3936 180.8871 442.4815)">
			<stop  offset="0" style="stop-color:#AFADAD"/>
			<stop  offset="1" style="stop-color:#3E3939"/>
		</linearGradient>
		<path fill="url(#SVGID_16_)" d="M1.95,93.37c0.05,1.95,5.67,3.74,16.86,5.37h0.07v29.82c-11.2-1.53-16.84-3.3-16.93-5.3V93.37z"/>
	</g>
	<g>
		
			<linearGradient id="SVGID_17_" gradientUnits="userSpaceOnUse" x1="33.2539" y1="260.4375" x2="42.2529" y2="260.4375" gradientTransform="matrix(1.3936 0 0 -1.3936 180.8871 442.4815)">
			<stop  offset="0" style="stop-color:#AFADAD"/>
			<stop  offset="1" style="stop-color:#3E3939"/>
		</linearGradient>
		<path fill="url(#SVGID_17_)" d="M239.77,62.22v30.24c-0.19,0.32-0.51,0.65-0.97,0.98c-1.95,1.21-5.81,2.35-11.57,3.41V66.96v-0.14
			C234.8,65.2,238.98,63.66,239.77,62.22z"/>
		<path fill="#4A4342" d="M227.23,66.96H18.88h-0.07C7.62,65.34,2,63.55,1.95,61.6v-0.07c0.09-2.83,11.71-5.3,34.84-7.39
			c23.23-2,51.26-3,84.1-3c32.84,0,60.79,0.98,83.83,2.93c22.95,1.95,34.65,4.65,35.12,8.08l-0.07,0.07
			c-0.79,1.44-4.97,2.97-12.54,4.6V66.96z"/>
		
			<linearGradient id="SVGID_18_" gradientUnits="userSpaceOnUse" x1="-116.2505" y1="258.7383" x2="33.2539" y2="258.7383" gradientTransform="matrix(1.3936 0 0 -1.3936 180.8871 442.4815)">
			<stop  offset="0" style="stop-color:#898686"/>
			<stop  offset="1" style="stop-color:#E1E1E1"/>
		</linearGradient>
		<path fill="url(#SVGID_18_)" d="M18.88,96.79V66.96h208.35v29.89c-0.05-0.14-0.07-0.14-0.07,0H19.3L18.88,96.79z M223.81,86.13
			V70.31H23.2v15.12v8.01h200.61V86.13z"/>
		
			<linearGradient id="SVGID_19_" gradientUnits="userSpaceOnUse" x1="30.7871" y1="256.1953" x2="-113.2012" y2="252.3345" gradientTransform="matrix(1.3936 0 0 -1.3936 180.8871 442.4815)">
			<stop  offset="0" style="stop-color:#2F2F2F"/>
			<stop  offset="0.1882" style="stop-color:#979595"/>
			<stop  offset="1" style="stop-color:#2C2929"/>
		</linearGradient>
		<path fill="url(#SVGID_19_)" d="M23.2,85.43h0.21c4.46-0.56,12.89-1.44,25.29-2.65c12.36-1.21,35.77-1.81,70.24-1.81
			c34.47,0,59.32,0.67,74.56,2.02c15.19,1.35,25.29,2.39,30.31,3.14v7.32H23.2V85.43z"/>
		
			<linearGradient id="SVGID_20_" gradientUnits="userSpaceOnUse" x1="-113.1504" y1="261.3818" x2="30.7998" y2="261.3818" gradientTransform="matrix(1.3936 0 0 -1.3936 180.8871 442.4815)">
			<stop  offset="0" style="stop-color:#1A1A1A"/>
			<stop  offset="0.4784" style="stop-color:#272525"/>
			<stop  offset="0.7922" style="stop-color:#6C6261"/>
			<stop  offset="1" style="stop-color:#474141"/>
		</linearGradient>
		<path fill="url(#SVGID_20_)" d="M223.81,86.13c-5.02-0.74-15.12-1.79-30.31-3.14c-15.24-1.35-40.09-2.02-74.56-2.02
			c-34.47,0-57.88,0.6-70.24,1.81c-12.4,1.21-20.83,2.09-25.29,2.65H23.2V70.31h200.61V86.13z"/>
		
			<linearGradient id="SVGID_21_" gradientUnits="userSpaceOnUse" x1="-115.8579" y1="260.8809" x2="-128.4833" y2="260.5012" gradientTransform="matrix(1.3936 0 0 -1.3936 180.8871 442.4815)">
			<stop  offset="0" style="stop-color:#AFADAD"/>
			<stop  offset="1" style="stop-color:#3E3939"/>
		</linearGradient>
		<path fill="url(#SVGID_21_)" d="M18.88,66.96v29.82c-11.2-1.53-16.84-3.3-16.93-5.29V61.6c0.05,1.95,5.67,3.74,16.86,5.37h0.07
			V66.96z"/>
	</g>
	<g>
		
			<linearGradient id="SVGID_22_" gradientUnits="userSpaceOnUse" x1="-116.2505" y1="281.5352" x2="33.2539" y2="281.5352" gradientTransform="matrix(1.3936 0 0 -1.3936 180.8871 442.4815)">
			<stop  offset="0" style="stop-color:#898686"/>
			<stop  offset="1" style="stop-color:#E1E1E1"/>
		</linearGradient>
		<path fill="url(#SVGID_22_)" d="M18.88,35.19h208.35v29.89c-0.05-0.14-0.07-0.14-0.07,0H19.3l-0.42-0.07V35.19z M223.81,54.35
			V38.53H23.2v15.12v8.01h200.61V54.35z"/>
		
			<linearGradient id="SVGID_23_" gradientUnits="userSpaceOnUse" x1="30.7866" y1="278.999" x2="-113.2012" y2="275.1382" gradientTransform="matrix(1.3936 0 0 -1.3936 180.8871 442.4815)">
			<stop  offset="0" style="stop-color:#2F2F2F"/>
			<stop  offset="0.1882" style="stop-color:#979595"/>
			<stop  offset="1" style="stop-color:#2C2929"/>
		</linearGradient>
		<path fill="url(#SVGID_23_)" d="M23.2,53.65h0.21C27.87,53.09,36.3,52.21,48.7,51c12.36-1.21,35.77-1.81,70.24-1.81
			c34.47,0,59.32,0.67,74.56,2.02c15.19,1.35,25.29,2.39,30.31,3.14v7.32H23.2V53.65z"/>
		
			<linearGradient id="SVGID_24_" gradientUnits="userSpaceOnUse" x1="33.2539" y1="283.2344" x2="42.2529" y2="283.2344" gradientTransform="matrix(1.3936 0 0 -1.3936 180.8871 442.4815)">
			<stop  offset="0" style="stop-color:#AFADAD"/>
			<stop  offset="1" style="stop-color:#3E3939"/>
		</linearGradient>
		<path fill="url(#SVGID_24_)" d="M227.23,35.19v-0.14c7.57-1.63,11.75-3.16,12.54-4.6v30.24c-0.19,0.33-0.51,0.65-0.97,0.98
			c-1.95,1.21-5.81,2.35-11.57,3.41V35.19L227.23,35.19z"/>
		<path fill="#4A4342" d="M227.23,35.19H18.88h-0.07C7.62,33.56,2,31.77,1.95,29.82v-0.07c0.09-2.83,11.71-5.3,34.84-7.39
			c23.23-2,51.26-3,84.1-3c32.84,0,60.79,0.98,83.83,2.93c22.95,1.95,34.65,4.65,35.12,8.08l-0.07,0.07
			c-0.79,1.44-4.97,2.97-12.54,4.6V35.19z"/>
		
			<linearGradient id="SVGID_25_" gradientUnits="userSpaceOnUse" x1="-113.1504" y1="284.1855" x2="30.7998" y2="284.1855" gradientTransform="matrix(1.3936 0 0 -1.3936 180.8871 442.4815)">
			<stop  offset="0" style="stop-color:#000000"/>
			<stop  offset="0.4784" style="stop-color:#272525"/>
			<stop  offset="0.7922" style="stop-color:#6C6261"/>
			<stop  offset="1" style="stop-color:#474141"/>
		</linearGradient>
		<path fill="url(#SVGID_25_)" d="M223.81,54.35c-5.02-0.74-15.12-1.79-30.31-3.14c-15.24-1.35-40.09-2.02-74.56-2.02
			c-34.47,0-57.88,0.6-70.24,1.81c-12.4,1.21-20.83,2.09-25.29,2.65H23.2V38.53h200.61V54.35z"/>
		
			<linearGradient id="SVGID_26_" gradientUnits="userSpaceOnUse" x1="-115.8574" y1="283.6816" x2="-128.4828" y2="283.3018" gradientTransform="matrix(1.3936 0 0 -1.3936 180.8871 442.4815)">
			<stop  offset="0" style="stop-color:#AFADAD"/>
			<stop  offset="1" style="stop-color:#3E3939"/>
		</linearGradient>
		<path fill="url(#SVGID_26_)" d="M1.95,29.82c0.05,1.95,5.67,3.74,16.86,5.37h0.07v29.82c-11.2-1.53-16.84-3.3-16.93-5.3V29.82z"/>
	</g>
	<g>
		
			<linearGradient id="SVGID_27_" gradientUnits="userSpaceOnUse" x1="33.2539" y1="305.2607" x2="42.2529" y2="305.2607" gradientTransform="matrix(1.3936 0 0 -1.3936 180.8871 442.4815)">
			<stop  offset="0" style="stop-color:#AFADAD"/>
			<stop  offset="1" style="stop-color:#3E3939"/>
		</linearGradient>
		<path fill="url(#SVGID_27_)" d="M227.23,4.25V3.62c6.71-1.15,10.76-2.36,12.16-3.62h0.38v29.75c-0.19,0.32-0.51,0.65-0.97,0.98
			c-1.95,1.21-5.81,2.35-11.57,3.41V4.25L227.23,4.25z"/>
		
			<linearGradient id="SVGID_28_" gradientUnits="userSpaceOnUse" x1="-116.2505" y1="303.7363" x2="33.2539" y2="303.7363" gradientTransform="matrix(1.3936 0 0 -1.3936 180.8871 442.4815)">
			<stop  offset="0" style="stop-color:#898686"/>
			<stop  offset="1" style="stop-color:#E1E1E1"/>
		</linearGradient>
		<path fill="url(#SVGID_28_)" d="M18.88,4.25h208.35v29.89c-0.05-0.14-0.07-0.14-0.07,0H19.3l-0.42-0.07V4.25z M223.81,23.41V7.59
			H23.2v15.12v8.01h200.61V23.41z"/>
		
			<linearGradient id="SVGID_29_" gradientUnits="userSpaceOnUse" x1="-128.4204" y1="315.9844" x2="42.2286" y2="315.9844" gradientTransform="matrix(1.3936 0 0 -1.3936 180.8871 442.4815)">
			<stop  offset="0" style="stop-color:#666666"/>
			<stop  offset="0.1451" style="stop-color:#AFADAD"/>
			<stop  offset="1" style="stop-color:#675E5C"/>
		</linearGradient>
		<path fill="url(#SVGID_29_)" d="M227.23,4.25H18.88h-0.07C9.79,2.94,4.39,1.52,2.61,0h236.78c-1.39,1.26-5.45,2.47-12.16,3.62
			V4.25z"/>
		
			<linearGradient id="SVGID_30_" gradientUnits="userSpaceOnUse" x1="30.7861" y1="301.1924" x2="-113.2017" y2="297.3316" gradientTransform="matrix(1.3936 0 0 -1.3936 180.8871 442.4815)">
			<stop  offset="0" style="stop-color:#2F2F2F"/>
			<stop  offset="0.1882" style="stop-color:#979595"/>
			<stop  offset="1" style="stop-color:#2C2929"/>
		</linearGradient>
		<path fill="url(#SVGID_30_)" d="M23.2,22.72h0.21c4.46-0.56,12.89-1.44,25.29-2.65c12.36-1.21,35.77-1.81,70.24-1.81
			c34.47,0,59.32,0.67,74.56,2.02c15.19,1.35,25.29,2.39,30.31,3.14v7.32H23.2V22.72z"/>
		
			<linearGradient id="SVGID_31_" gradientUnits="userSpaceOnUse" x1="-113.1504" y1="306.3867" x2="30.7998" y2="306.3867" gradientTransform="matrix(1.3936 0 0 -1.3936 180.8871 442.4815)">
			<stop  offset="0" style="stop-color:#1A1A1A"/>
			<stop  offset="0.4784" style="stop-color:#272525"/>
			<stop  offset="0.7922" style="stop-color:#6C6261"/>
			<stop  offset="1" style="stop-color:#474141"/>
		</linearGradient>
		<path fill="url(#SVGID_31_)" d="M223.81,23.41c-5.02-0.74-15.12-1.79-30.31-3.14c-15.24-1.35-40.09-2.02-74.56-2.02
			c-34.47,0-57.88,0.6-70.24,1.81c-12.4,1.21-20.83,2.09-25.29,2.65H23.2V7.59h200.61V23.41z"/>
		
			<linearGradient id="SVGID_32_" gradientUnits="userSpaceOnUse" x1="-115.8462" y1="305.4814" x2="-128.471" y2="305.1017" gradientTransform="matrix(1.3936 0 0 -1.3936 180.8871 442.4815)">
			<stop  offset="0" style="stop-color:#AFADAD"/>
			<stop  offset="1" style="stop-color:#3E3939"/>
		</linearGradient>
		<path fill="url(#SVGID_32_)" d="M2.61,0c1.77,1.52,7.17,2.94,16.2,4.25h0.07v29.82c-11.2-1.53-16.84-3.3-16.93-5.3V0H2.61z"/>
	</g>
	<g>
		
			<linearGradient id="SVGID_33_" gradientUnits="userSpaceOnUse" x1="1.7026" y1="261.3818" x2="30.7998" y2="261.3818" gradientTransform="matrix(1.3936 0 0 -1.3936 180.8871 442.4815)">
			<stop  offset="0" style="stop-color:#2F2F2F"/>
			<stop  offset="0.7059" style="stop-color:#403E3E"/>
			<stop  offset="0.8157" style="stop-color:#5A5858"/>
			<stop  offset="1" style="stop-color:#2C2929"/>
		</linearGradient>
		<path fill="url(#SVGID_33_)" d="M223.81,86.13c-5.02-0.74-15.12-1.79-30.31-3.14c-2.6-0.23-5.46-0.44-8.57-0.63
			c-0.56-0.05-1.11-0.07-1.67-0.07V70.31h40.55v0.07V86.13z"/>
		<path fill="#525050" d="M223.81,86.13v7.32h-40.49l-0.07-0.63V82.29c0.56,0,1.12,0.02,1.67,0.07c3.11,0.19,5.97,0.39,8.57,0.63
			C208.69,84.34,218.8,85.38,223.81,86.13z"/>
		
			<linearGradient id="SVGID_34_" gradientUnits="userSpaceOnUse" x1="-113.1831" y1="261.6045" x2="30.7894" y2="261.6045" gradientTransform="matrix(1.3936 0 0 -1.3936 180.8871 442.4815)">
			<stop  offset="0" style="stop-color:#000000"/>
			<stop  offset="0.4784" style="stop-color:#272525"/>
			<stop  offset="0.7922" style="stop-color:#6C6261"/>
			<stop  offset="1" style="stop-color:#474141"/>
		</linearGradient>
		<path fill="url(#SVGID_34_)" d="M62.57,81.88c-5.57,0.23-10.2,0.53-13.87,0.91C36.3,84,27.87,84.88,23.41,85.44H23.2V70.38h39.37
			V81.88z"/>
		
			<linearGradient id="SVGID_35_" gradientUnits="userSpaceOnUse" x1="30.8223" y1="257.7324" x2="-113.2062" y2="253.8706" gradientTransform="matrix(1.3936 0 0 -1.3936 180.8871 442.4815)">
			<stop  offset="0" style="stop-color:#2F2F2F"/>
			<stop  offset="0.1882" style="stop-color:#979595"/>
			<stop  offset="1" style="stop-color:#2C2929"/>
		</linearGradient>
		<path fill="url(#SVGID_35_)" d="M62.57,81.88v11.5H23.2v-7.94h0.21C27.87,84.88,36.3,84,48.7,82.79
			C52.38,82.41,57,82.11,62.57,81.88z"/>
	</g>
	<g>
		<path d="M202.7,86.68h0.07c0-0.04,0.02-0.07,0.07-0.07c-0.05,0-0.09,0-0.14,0h-0.07c-1.53-0.09-3.32-0.21-5.37-0.35
			c-3.11-0.23-6.83-0.51-11.15-0.84c-6.5-0.51-13.52-0.93-21.04-1.25c-12.31-0.51-26.01-0.77-41.11-0.77
			c-24.3,0-45.04,0.67-62.23,2.02c-7.94,0.6-13.82,1.02-17.63,1.25c0.14,0.05,0.28,0.14,0.42,0.28c0.19,0.09,0.35,0.21,0.49,0.35
			c0.7,0.7,1.04,1.51,1.04,2.44s-0.35,1.72-1.04,2.37c-0.37,0.37-0.79,0.67-1.25,0.91c-0.05-0.05-0.09-0.07-0.14-0.07v0.07
			c-0.33,0.09-0.67,0.14-1.05,0.14c-0.7,0-1.32-0.19-1.88-0.56c-0.14-0.09-0.28-0.21-0.42-0.35c-5.71-1.49-8.46-3.32-8.22-5.5
			c-0.42-4,9.29-6.76,29.13-8.29c17.37-1.35,38.3-2.02,62.78-2.02c15.1,0,28.8,0.25,41.11,0.77c7.76,0.33,14.96,0.74,21.6,1.25
			c3.95,0.33,7.48,0.67,10.59,1.05c12.68,1.63,18.86,4.04,18.54,7.25c0.28,2.37-3.04,4.32-9.96,5.85c-0.14,0.05-0.3,0.09-0.49,0.14
			c-0.56,0.42-1.21,0.63-1.95,0.63c-0.33,0-0.6-0.02-0.84-0.07c-0.23-0.09-0.44-0.19-0.63-0.28c-0.37-0.19-0.7-0.42-0.98-0.7
			c-0.65-0.7-0.97-1.49-0.97-2.37c0-0.98,0.19-1.7,0.56-2.16c0.33-0.46,0.77-0.79,1.32-0.98C202.1,86.73,202.38,86.68,202.7,86.68z"
			/>
	</g>
	<g>
		
			<radialGradient id="SVGID_36_" cx="-24.2344" cy="-137.6011" r="13.472" gradientTransform="matrix(1.3548 -0.3265 -0.1187 -0.4927 223.8737 7.7667)" gradientUnits="userSpaceOnUse">
			<stop  offset="0" style="stop-color:#626262"/>
			<stop  offset="0.3137" style="stop-color:#424242"/>
			<stop  offset="0.4157" style="stop-color:#565656"/>
			<stop  offset="0.5059" style="stop-color:#737373"/>
			<stop  offset="0.5725" style="stop-color:#BFBFBF"/>
			<stop  offset="0.651" style="stop-color:#5E5E5E"/>
			<stop  offset="0.8157" style="stop-color:#414141"/>
			<stop  offset="1" style="stop-color:#1A1A1A"/>
		</radialGradient>
		<path fill="url(#SVGID_36_)" d="M202.77,85.5l11.57-2.58c1.07,0.84,1.56,1.74,1.46,2.72c0.28,2.37-3.04,4.32-9.96,5.85
			c-0.14,0.05-0.3,0.09-0.49,0.14c0.14-0.14,0.28-0.28,0.42-0.42l0.07-0.07c0.65-0.7,0.98-1.46,0.98-2.3c0-0.98-0.35-1.81-1.04-2.51
			c-0.74-0.79-1.7-1.04-2.86-0.77l-0.07-0.07L202.77,85.5L202.77,85.5z"/>
		
			<linearGradient id="SVGID_37_" gradientUnits="userSpaceOnUse" x1="16.2959" y1="254.999" x2="15.5091" y2="248.8005" gradientTransform="matrix(1.3936 0 0 -1.3936 180.8871 442.4815)">
			<stop  offset="0" style="stop-color:#999999"/>
			<stop  offset="1" style="stop-color:#404040"/>
		</linearGradient>
		<path fill="url(#SVGID_37_)" d="M202.77,85.5h0.07l0.07,0.07c1.16-0.28,2.11-0.02,2.86,0.77c0.7,0.7,1.04,1.53,1.04,2.51
			c0,0.84-0.33,1.6-0.98,2.3l-0.07,0.07c-0.14,0.14-0.28,0.28-0.42,0.42c-0.56,0.42-1.21,0.63-1.95,0.63c-0.33,0-0.6-0.02-0.84-0.07
			c-0.23-0.09-0.44-0.19-0.63-0.28c-0.37-0.19-0.7-0.42-0.98-0.7c-0.65-0.7-0.97-1.49-0.97-2.37c0-0.98,0.19-1.7,0.56-2.16
			c0.33-0.46,0.77-0.79,1.32-0.97c0.23-0.09,0.51-0.14,0.83-0.14h0.07V85.5H202.77z"/>
		
			<radialGradient id="SVGID_38_" cx="-43.1885" cy="-2012.0996" r="107.2014" gradientTransform="matrix(1.3936 -5.519646e-003 -3.687903e-004 -0.0931 181.0397 -103.1098)" gradientUnits="userSpaceOnUse">
			<stop  offset="0" style="stop-color:#000000"/>
			<stop  offset="0.1765" style="stop-color:#171717"/>
			<stop  offset="0.3137" style="stop-color:#424242"/>
			<stop  offset="0.4157" style="stop-color:#565656"/>
			<stop  offset="0.5059" style="stop-color:#737373"/>
			<stop  offset="0.5725" style="stop-color:#BFBFBF"/>
			<stop  offset="0.651" style="stop-color:#5E5E5E"/>
			<stop  offset="0.7098" style="stop-color:#414141"/>
			<stop  offset="1" style="stop-color:#404040"/>
		</radialGradient>
		<path fill="url(#SVGID_38_)" d="M44.11,85.57c-0.09-0.05-0.21-0.09-0.35-0.14c-0.37-0.14-0.77-0.21-1.18-0.21
			c-0.09,0-0.21,0.02-0.35,0.07c-2-0.56-3.48-1.14-4.46-1.74c-1.44-0.65-1.88-1.35-1.32-2.09c4.6-1.81,12.84-3.18,24.74-4.11
			c17.37-1.35,38.3-2.02,62.78-2.02c15.1,0,28.8,0.26,41.11,0.77c7.76,0.32,14.96,0.74,21.6,1.25c3.95,0.33,7.48,0.67,10.59,1.04
			c8.83,1.11,14.52,2.62,17.07,4.53l-11.57,2.58c-0.05,0-0.09,0-0.14,0c-1.53-0.09-3.32-0.21-5.37-0.35
			c-3.11-0.23-6.83-0.51-11.15-0.84c-6.5-0.51-13.52-0.93-21.04-1.25c-12.31-0.51-26.01-0.77-41.11-0.77
			c-24.3,0-45.04,0.67-62.23,2.02C53.79,84.92,47.92,85.34,44.11,85.57z"/>
		
			<radialGradient id="SVGID_39_" cx="-51.3984" cy="318.7295" r="8.8515" gradientTransform="matrix(1.2589 0.5977 0.3711 -0.7817 -14.8295 362.166)" gradientUnits="userSpaceOnUse">
			<stop  offset="0" style="stop-color:#626262"/>
			<stop  offset="0.3137" style="stop-color:#424242"/>
			<stop  offset="0.4157" style="stop-color:#565656"/>
			<stop  offset="0.5059" style="stop-color:#737373"/>
			<stop  offset="0.5725" style="stop-color:#BFBFBF"/>
			<stop  offset="0.651" style="stop-color:#5E5E5E"/>
			<stop  offset="0.8157" style="stop-color:#414141"/>
			<stop  offset="1" style="stop-color:#1A1A1A"/>
		</radialGradient>
		<path fill="url(#SVGID_39_)" d="M36.44,81.46c-0.56,0.74-0.12,1.44,1.32,2.09c0.98,0.6,2.46,1.18,4.46,1.74c-0.05,0-0.12,0-0.21,0
			c-0.7,0.09-1.3,0.4-1.81,0.91c-0.65,0.7-0.98,1.51-0.98,2.44c0,0.93,0.33,1.72,0.98,2.37c0.05,0.05,0.07,0.09,0.07,0.14
			c-5.71-1.49-8.46-3.32-8.22-5.5C31.87,84.06,33.33,82.66,36.44,81.46z"/>
		
			<linearGradient id="SVGID_40_" gradientUnits="userSpaceOnUse" x1="-99.1978" y1="256.3584" x2="-99.1978" y2="251.4585" gradientTransform="matrix(1.3936 0 0 -1.3936 180.8871 442.4815)">
			<stop  offset="0" style="stop-color:#999999"/>
			<stop  offset="1" style="stop-color:#404040"/>
		</linearGradient>
		<path fill="url(#SVGID_40_)" d="M42.23,85.29c0.14-0.05,0.26-0.07,0.35-0.07c0.42,0,0.81,0.07,1.18,0.21
			c0.14,0.05,0.26,0.09,0.35,0.14c0.14,0.05,0.28,0.14,0.42,0.28c0.19,0.09,0.35,0.21,0.49,0.35c0.7,0.7,1.04,1.51,1.04,2.44
			c0,0.93-0.35,1.72-1.04,2.37c-0.37,0.37-0.79,0.67-1.25,0.91c-0.05-0.05-0.09-0.07-0.14-0.07v0.07c-0.33,0.09-0.67,0.14-1.05,0.14
			c-0.7,0-1.32-0.19-1.88-0.56c-0.14-0.09-0.28-0.21-0.42-0.35c0-0.05-0.02-0.09-0.07-0.14c-0.65-0.65-0.98-1.44-0.98-2.37
			c0-0.93,0.33-1.74,0.98-2.44c0.51-0.51,1.11-0.81,1.81-0.91C42.11,85.29,42.18,85.29,42.23,85.29z"/>
	</g>
	<g>
		<path fill="none" stroke="#1F1F1F" stroke-width="0.5" stroke-linecap="round" stroke-linejoin="round" stroke-miterlimit="3" d="
			M210.85,82.01c0-0.28-0.02-0.56-0.07-0.84c0-0.14,0-0.28,0-0.42c-0.19,0.14-0.37,0.28-0.56,0.42c-0.56,0.6-0.91,1.3-1.04,2.09
			c0.05-0.05,0.07-0.09,0.07-0.14c0.33-0.33,0.67-0.58,1.04-0.77c0.14-0.09,0.33-0.16,0.56-0.21
			C210.81,82.11,210.81,82.06,210.85,82.01z M209.18,83.27c0,0.05,0,0.12,0,0.21c0.46,0.19,0.91,0.49,1.32,0.91
			c0.93,0.84,1.39,1.93,1.39,3.27c0,0.09,0,0.19,0,0.28c-0.05,0.98-0.39,1.83-1.04,2.58c-0.09,0.14-0.21,0.26-0.35,0.35l-0.07,0.07
			c0.28,0.14,0.58,0.23,0.91,0.28c0.09,0,0.19,0,0.28,0c1.02,0,1.88-0.46,2.58-1.39c0.6-0.7,0.98-1.51,1.12-2.44
			c0-0.23,0-0.49,0-0.77c0-1.35-0.37-2.44-1.12-3.28c-0.7-0.88-1.56-1.32-2.58-1.32c-0.19,0-0.35,0.02-0.49,0.07
			c-0.09,0-0.19,0.02-0.28,0.07c-0.05,0.19-0.07,0.37-0.07,0.56c-0.05,0.37-0.09,0.72-0.14,1.04 M44.04,91.7
			c-0.79,0.7-1.74,1.04-2.86,1.04c-0.98,0-1.81-0.3-2.51-0.91c-0.09,0-0.16,0-0.21,0c-1.16,0-2.14-0.42-2.93-1.25
			c-0.14-0.14-0.28-0.3-0.42-0.49c-0.98-0.09-1.81-0.51-2.51-1.25c-0.79-0.79-1.18-1.77-1.18-2.93s0.39-2.18,1.18-3.07
			c0.74-0.74,1.67-1.14,2.79-1.18c0.09-0.74,0.33-1.46,0.7-2.16c0.56-1.21,1.35-1.88,2.37-2.02c0.74-0.05,1.44,0.21,2.09,0.77
			c0.51-0.79,1.16-1.23,1.95-1.32c0.37-0.05,0.72,0,1.04,0.14c0.56,0.19,1.07,0.56,1.53,1.12c0.56-1.12,1.32-1.74,2.3-1.88
			c0.74-0.05,1.44,0.21,2.09,0.77c0.51-0.79,1.16-1.23,1.95-1.32c0.98-0.09,1.86,0.35,2.65,1.32c0.56-1.21,1.35-1.88,2.37-2.02
			c0.93-0.09,1.79,0.3,2.58,1.18c0.65-0.93,1.44-1.42,2.37-1.46c0.74,0,1.42,0.3,2.02,0.91c0.6-0.65,1.28-1,2.02-1.04
			c0.98,0,1.81,0.51,2.51,1.53c0.74-1.16,1.63-1.77,2.65-1.81c0.74,0,1.39,0.28,1.95,0.84c0.6-0.7,1.3-1.07,2.09-1.11
			c0.98,0,1.81,0.53,2.51,1.6c0.7-1.02,1.51-1.53,2.44-1.53c0.74-0.05,1.42,0.26,2.02,0.91c0.6-0.74,1.3-1.12,2.09-1.12
			c0.98-0.05,1.81,0.46,2.51,1.53c0.74-1.21,1.63-1.81,2.65-1.81c0.74-0.05,1.42,0.25,2.02,0.91c0.6-0.7,1.3-1.04,2.09-1.04
			c0.93-0.05,1.74,0.42,2.44,1.39c0.7-1.07,1.53-1.6,2.51-1.6c0.74,0,1.42,0.3,2.02,0.91c0.56-0.65,1.23-0.98,2.02-0.98
			c0.98,0,1.81,0.56,2.51,1.67c0.74-1.16,1.63-1.74,2.65-1.74c0.7,0,1.35,0.28,1.95,0.84c0.6-0.7,1.3-1.05,2.09-1.05
			c0.98,0,1.81,0.53,2.51,1.6c0.7-0.98,1.51-1.44,2.44-1.39c0.74,0,1.42,0.33,2.02,0.98c0.6-0.74,1.3-1.09,2.09-1.04
			c0.98,0,1.81,0.53,2.51,1.6v-0.07c0.74-1.16,1.63-1.72,2.65-1.67c0.74,0,1.42,0.32,2.02,0.98c0.6-0.7,1.3-1.02,2.09-0.98
			c1.02,0,1.88,0.58,2.58,1.74c0.05,0.09,0.09,0.19,0.14,0.28c0.05-0.05,0.07-0.09,0.07-0.14c0.74-1.16,1.63-1.72,2.65-1.67
			c0.7,0,1.35,0.33,1.95,0.98c0.6-0.7,1.3-1.02,2.09-0.98c0.98,0,1.84,0.58,2.58,1.74c0.7-1.12,1.56-1.65,2.58-1.6
			c0.7,0,1.32,0.3,1.88,0.91c0.65-0.74,1.37-1.09,2.16-1.05c0.98,0,1.81,0.58,2.51,1.74c0.7-0.98,1.51-1.46,2.44-1.46
			c0.74,0.05,1.42,0.4,2.02,1.05c0.6-0.74,1.3-1.11,2.09-1.11c0.98,0.05,1.83,0.63,2.58,1.74c0.74-1.11,1.6-1.67,2.58-1.67
			c0.74,0.05,1.44,0.42,2.09,1.12c0.56-0.65,1.21-0.98,1.95-0.98c1.02,0.05,1.9,0.67,2.65,1.88c0.74-0.88,1.58-1.3,2.51-1.25
			c0.7,0.05,1.3,0.37,1.81,0.98c0.74-0.79,1.53-1.16,2.37-1.11c0.98,0.09,1.77,0.67,2.37,1.74c0.79-0.93,1.65-1.37,2.58-1.32
			c0.79,0.05,1.44,0.42,1.95,1.12c0.65-0.65,1.37-0.95,2.16-0.91c0.98,0.05,1.77,0.65,2.37,1.81c0.84-1.11,1.76-1.65,2.79-1.6
			c0.79,0.05,1.44,0.42,1.95,1.11c0.65-0.65,1.37-0.95,2.16-0.91c0.84,0.05,1.51,0.46,2.02,1.25c0.74-0.65,1.51-0.93,2.3-0.84
			c0.98,0.09,1.74,0.72,2.3,1.88c0.88-1.11,1.83-1.6,2.86-1.46c0.74,0.05,1.39,0.44,1.95,1.18c0.65-0.6,1.37-0.86,2.16-0.77
			c1.02,0.09,1.81,0.77,2.37,2.02c0.37,0.74,0.63,1.53,0.77,2.37c0.7-0.46,1.46-0.7,2.3-0.7c1.12,0,2.04,0.37,2.79,1.12
			c0.84,0.84,1.25,1.79,1.25,2.86c0,1.12-0.42,2.04-1.25,2.79c-0.19,0.23-0.37,0.42-0.56,0.56 M209.18,83.48l-0.07-0.07h-0.07
			c-0.56-0.23-1.16-0.35-1.81-0.35c-0.23,0-0.44,0.02-0.63,0.07c-0.14,0.56-0.3,1.09-0.49,1.6c0.33,0.19,0.65,0.44,0.98,0.77
			l0.07,0.07c0.74,0.88,1.14,1.97,1.18,3.28l0.14,0.35c-0.09,1.07-0.56,2-1.39,2.79c-0.09,0.09-0.19,0.19-0.28,0.28
			c0.14,0,0.28,0,0.42,0c1.25,0,2.32-0.44,3.21-1.32c-0.05,0-0.09-0.02-0.14-0.07c-0.19-0.09-0.37-0.21-0.56-0.35 M205.49,77.14
			c0.14,0.23,0.28,0.51,0.42,0.84c0.33,0.6,0.56,1.28,0.7,2.02c0.14,0.7,0.16,1.46,0.07,2.3c-0.05,0.28-0.07,0.56-0.07,0.84
			 M203.96,79.44c0.19-0.6,0.46-1.14,0.84-1.6c0.23-0.28,0.46-0.51,0.7-0.7 M200.68,77.42c0.05,0.05,0.07,0.09,0.07,0.14
			c0.23,0.46,0.42,0.95,0.56,1.46c0.23,0.88,0.3,1.83,0.21,2.86c-0.14,1.35-0.51,2.51-1.12,3.48c-0.09,0.19-0.21,0.35-0.35,0.49
			c0.05,0.05,0.09,0.12,0.14,0.21c0.09-0.19,0.23-0.37,0.42-0.56c0.88-0.88,1.95-1.32,3.21-1.32c0.14,0,0.28,0,0.42,0
			c0.7-0.6,1.49-0.95,2.37-1.04 M199.91,78.81c0.23-0.51,0.49-0.98,0.77-1.39 M194.9,78.11c0.19-0.42,0.39-0.79,0.63-1.11
			c0.19-0.23,0.37-0.44,0.56-0.63c0.14,0.19,0.26,0.39,0.35,0.63c0.23,0.42,0.42,0.88,0.56,1.39c0.23,0.84,0.3,1.79,0.21,2.86
			c-0.14,1.49-0.56,2.76-1.25,3.83c-0.09,0.05-0.16,0.12-0.21,0.21c-0.19,0.23-0.37,0.44-0.56,0.63c0.56,0.84,1.25,1.3,2.09,1.39
			c1.02,0.09,1.95-0.39,2.79-1.46c0-0.05-0.02-0.09-0.07-0.14c-0.05-0.14-0.09-0.26-0.14-0.35 M200.61,86.68
			c-0.19-0.19-0.33-0.39-0.42-0.63c-0.6,0.7-0.91,1.56-0.91,2.58c0,1.35,0.44,2.46,1.32,3.34c0.88,0.93,1.95,1.39,3.21,1.39
			c1.16,0,2.16-0.37,3-1.12c-0.56-0.05-1.07-0.19-1.53-0.42 M209.11,83.41v-0.07l0.07-0.07 M203.12,85.64
			c0.19-0.46,0.49-0.88,0.91-1.25c0.05-0.05,0.12-0.12,0.21-0.21c0.7,0.05,1.32,0.23,1.88,0.56 M190.65,77.69
			c0.14-0.33,0.33-0.65,0.56-0.98c0.23-0.28,0.46-0.51,0.7-0.7c0.14,0.23,0.28,0.49,0.42,0.77c0.19,0.37,0.35,0.74,0.49,1.11
			c0.28,0.93,0.37,1.97,0.28,3.14c-0.14,1.44-0.53,2.67-1.18,3.69c-0.09,0.14-0.19,0.26-0.28,0.35c-0.19,0.28-0.4,0.53-0.63,0.77
			c0.51,0.65,1.16,1,1.95,1.04c0.79,0.05,1.53-0.28,2.23-0.98c-0.14-0.19-0.25-0.4-0.35-0.63c-0.05-0.09-0.09-0.21-0.14-0.35
			 M182.63,75.6c0.14,0.23,0.28,0.49,0.42,0.77c0.14,0.23,0.26,0.49,0.35,0.77c0.37,1.02,0.51,2.18,0.42,3.48
			c-0.09,1.3-0.44,2.46-1.04,3.48c-0.14,0.19-0.28,0.37-0.42,0.56c-0.19,0.28-0.4,0.53-0.63,0.77c0.51,0.65,1.16,1,1.95,1.04
			c1.02,0.05,1.95-0.46,2.79-1.53c-0.05-0.05-0.07-0.09-0.07-0.14c-0.09-0.14-0.16-0.3-0.21-0.49 M181.52,77
			c0.14-0.23,0.28-0.46,0.42-0.7c0.23-0.28,0.46-0.51,0.7-0.7 M187.16,76.51v0.07c0.14,0.28,0.28,0.56,0.42,0.84
			c0.33,1.02,0.44,2.16,0.35,3.41c-0.14,1.35-0.51,2.53-1.12,3.55c-0.09,0.14-0.21,0.3-0.35,0.49v0.07c0.6,1.12,1.39,1.7,2.37,1.74
			c0.79,0.05,1.51-0.23,2.16-0.83c-0.19-0.28-0.35-0.56-0.49-0.84c-0.05-0.14-0.09-0.26-0.14-0.35 M186.6,77.35
			c0.14-0.28,0.3-0.56,0.49-0.84h0.07 M177.48,76.72c0.09-0.23,0.21-0.44,0.35-0.63c0.09-0.09,0.19-0.19,0.28-0.28
			c0,0.05,0.02,0.12,0.07,0.21c0.14,0.23,0.25,0.49,0.35,0.77c0.33,1.02,0.44,2.18,0.35,3.48s-0.42,2.46-0.98,3.48
			c-0.14,0.19-0.28,0.37-0.42,0.56c-0.09,0.09-0.16,0.19-0.21,0.28c0.56,1.07,1.32,1.63,2.3,1.67c0.79,0.05,1.51-0.23,2.16-0.84
			c-0.19-0.28-0.35-0.56-0.49-0.84c-0.09-0.23-0.19-0.44-0.28-0.63 M173.37,75.19c0.23,0.28,0.44,0.6,0.63,0.98
			c0.05,0.14,0.12,0.26,0.21,0.35c0.46,1.11,0.63,2.42,0.49,3.9c-0.09,1.16-0.37,2.18-0.84,3.07c-0.14,0.33-0.33,0.65-0.56,0.98
			c-0.14,0.19-0.28,0.35-0.42,0.49c0.46,0.56,1.05,0.86,1.74,0.91c0.93,0.09,1.81-0.33,2.65-1.25c-0.05-0.05-0.09-0.12-0.14-0.21
			c-0.14-0.23-0.23-0.46-0.28-0.7 M172.46,76.44c0.14-0.28,0.3-0.53,0.49-0.77c0.14-0.19,0.28-0.35,0.42-0.49 M168.49,76.23
			c0.09-0.14,0.19-0.28,0.28-0.42s0.19-0.26,0.28-0.35c0.14,0.28,0.28,0.56,0.42,0.84c0.42,0.98,0.6,2.09,0.56,3.34
			c-0.05,1.35-0.35,2.56-0.91,3.62c-0.09,0.19-0.21,0.37-0.35,0.56c-0.19,0.23-0.35,0.46-0.49,0.7c0.51,0.93,1.23,1.42,2.16,1.46
			c0.84,0.09,1.65-0.26,2.44-1.05c-0.23-0.28-0.44-0.6-0.63-0.97c-0.09-0.19-0.19-0.37-0.28-0.56 M164.45,74.56
			c0.19,0.19,0.37,0.44,0.56,0.77c0.14,0.23,0.28,0.49,0.42,0.77c0.42,1.02,0.6,2.16,0.56,3.41c-0.05,1.35-0.33,2.53-0.84,3.55
			c-0.14,0.23-0.28,0.44-0.42,0.63c-0.19,0.28-0.37,0.53-0.56,0.77c0.56,0.65,1.21,0.98,1.95,0.98c0.79,0.05,1.51-0.25,2.16-0.91
			c-0.09-0.14-0.16-0.28-0.21-0.42c-0.14-0.28-0.28-0.58-0.42-0.91 M163.4,76.02c0.09-0.28,0.23-0.53,0.42-0.77
			c0.19-0.28,0.4-0.51,0.63-0.7 M159.36,75.88c0.09-0.28,0.23-0.53,0.42-0.77c0,0.05,0.02,0.09,0.07,0.14
			c0.14,0.23,0.26,0.46,0.35,0.7c0.46,0.98,0.67,2.14,0.63,3.48c-0.05,1.3-0.3,2.44-0.77,3.41c-0.14,0.28-0.3,0.53-0.49,0.77
			c0.74,1.11,1.58,1.67,2.51,1.67c0.74,0.05,1.44-0.23,2.09-0.84c-0.23-0.23-0.44-0.51-0.63-0.84c-0.14-0.19-0.26-0.39-0.35-0.63
			 M154.2,75.74c0.14-0.23,0.28-0.46,0.42-0.7c0.14-0.23,0.3-0.42,0.49-0.56c0.23,0.23,0.44,0.51,0.63,0.84
			c0.09,0.14,0.19,0.3,0.28,0.49c0.51,1.02,0.74,2.25,0.7,3.69c-0.05,1.21-0.28,2.3-0.7,3.28c-0.19,0.28-0.37,0.58-0.56,0.91
			c-0.14,0.23-0.28,0.44-0.42,0.63c0.56,0.6,1.18,0.91,1.88,0.91c1.02,0.05,1.9-0.49,2.65-1.6c0-0.05-0.02-0.09-0.07-0.14
			c-0.14-0.23-0.25-0.44-0.35-0.63 M150.65,74.91c0.05,0,0.07,0.02,0.07,0.07c0.14,0.23,0.25,0.46,0.35,0.7
			c0.46,0.98,0.67,2.14,0.63,3.48c-0.05,1.3-0.3,2.46-0.77,3.48c-0.19,0.23-0.35,0.46-0.49,0.7c-0.05,0.09-0.09,0.16-0.14,0.21
			c0.7,1.16,1.53,1.74,2.51,1.74c0.84,0.05,1.58-0.28,2.23-0.97c-0.28-0.28-0.51-0.58-0.7-0.91c-0.14-0.23-0.26-0.46-0.35-0.7
			 M150.23,75.6c0.09-0.19,0.19-0.35,0.28-0.49c0.05-0.09,0.09-0.16,0.14-0.21 M145.98,74.21c0.23,0.23,0.46,0.53,0.7,0.91
			c0.09,0.14,0.19,0.28,0.28,0.42c0.51,1.07,0.74,2.32,0.7,3.76c-0.05,1.21-0.28,2.28-0.7,3.21c-0.19,0.33-0.37,0.65-0.56,0.98
			c-0.14,0.23-0.3,0.44-0.49,0.63c0.6,0.56,1.25,0.86,1.95,0.91c0.93,0,1.74-0.49,2.44-1.46c-0.05,0-0.07-0.02-0.07-0.07
			c-0.19-0.28-0.33-0.58-0.42-0.91 M145.08,75.53c0.14-0.23,0.28-0.46,0.42-0.7c0.14-0.23,0.3-0.44,0.49-0.63 M141.17,75.46
			c0.09-0.19,0.19-0.35,0.28-0.49l0.07-0.07v0.07c0.09,0.14,0.19,0.3,0.28,0.49c0.51,1.07,0.74,2.3,0.7,3.69
			c-0.05,1.21-0.28,2.3-0.7,3.28c-0.19,0.33-0.37,0.63-0.56,0.91v0.07c0.7,1.12,1.56,1.7,2.58,1.74c0.79,0,1.49-0.35,2.09-1.04
			c-0.23-0.23-0.46-0.53-0.7-0.91c-0.14-0.23-0.25-0.46-0.35-0.7 M136.85,74.14c0.23,0.23,0.44,0.51,0.63,0.84
			c0.09,0.14,0.19,0.3,0.28,0.49c0.51,1.02,0.74,2.25,0.7,3.69c-0.05,1.21-0.28,2.28-0.7,3.21c-0.19,0.32-0.37,0.65-0.56,0.97
			c-0.19,0.28-0.37,0.51-0.56,0.7c0.6,0.6,1.28,0.93,2.02,0.98c0.98,0,1.83-0.53,2.58-1.6l-0.07-0.07
			c-0.19-0.28-0.33-0.58-0.42-0.91 M135.95,75.39c0.09-0.19,0.21-0.37,0.35-0.56c0.19-0.28,0.37-0.51,0.56-0.7 M132.19,74.98
			c0.09,0.09,0.16,0.23,0.21,0.42c0.51,0.98,0.77,2.14,0.77,3.48c0,1.3-0.23,2.46-0.7,3.48c-0.14,0.23-0.28,0.46-0.42,0.7
			c-0.05,0.05-0.07,0.09-0.07,0.14c0.74,1.16,1.63,1.77,2.65,1.81c0.74,0,1.42-0.33,2.02-0.98c-0.23-0.23-0.44-0.51-0.63-0.84
			c-0.14-0.28-0.28-0.56-0.42-0.84 M127.38,73.93c0.19,0.23,0.37,0.49,0.56,0.77c0.14,0.19,0.26,0.39,0.35,0.63
			c0.51,1.02,0.77,2.21,0.77,3.55c0,1.3-0.23,2.44-0.7,3.41c-0.14,0.28-0.28,0.53-0.42,0.77c-0.14,0.28-0.3,0.53-0.49,0.77
			c0.6,0.6,1.28,0.93,2.02,0.98c0.98,0,1.81-0.53,2.51-1.6c-0.14-0.28-0.28-0.56-0.42-0.84 M126.47,75.32
			c0.09-0.23,0.21-0.46,0.35-0.7c0.19-0.28,0.37-0.51,0.56-0.7 M122.71,74.7c0,0.05,0.02,0.09,0.07,0.14
			c0.09,0.14,0.19,0.3,0.28,0.49c0.56,1.07,0.84,2.3,0.84,3.69c0,1.21-0.21,2.3-0.63,3.27c-0.14,0.28-0.28,0.56-0.42,0.84
			c0.7,1.07,1.53,1.63,2.51,1.67c0.79,0,1.49-0.33,2.09-0.98c-0.23-0.28-0.44-0.56-0.63-0.84c-0.14-0.23-0.26-0.46-0.35-0.7
			 M131.98,75.39c0.05-0.19,0.12-0.33,0.21-0.42 M122.36,75.32c0.09-0.23,0.21-0.44,0.35-0.63 M118.11,74.14
			c0.19,0.19,0.37,0.44,0.56,0.77c0.09,0.14,0.19,0.28,0.28,0.42c0.56,1.07,0.84,2.32,0.84,3.76c0,1.21-0.19,2.28-0.56,3.21
			c-0.19,0.33-0.37,0.65-0.56,0.98c-0.14,0.23-0.3,0.46-0.49,0.7c0.6,0.6,1.28,0.93,2.02,0.97c1.02,0,1.88-0.58,2.58-1.74l0.07-0.07
			c-0.05-0.05-0.09-0.09-0.14-0.14c-0.14-0.23-0.25-0.46-0.35-0.7 M113.65,74.56c0,0.05,0.02,0.09,0.07,0.14
			c0.14,0.23,0.28,0.46,0.42,0.7c0.46,0.98,0.7,2.14,0.7,3.48c0,1.3-0.23,2.46-0.7,3.48c-0.14,0.23-0.28,0.46-0.42,0.7
			c-0.05,0.09-0.09,0.19-0.14,0.28c0.7,1.07,1.53,1.63,2.51,1.67c0.79,0,1.49-0.35,2.09-1.04c-0.23-0.23-0.44-0.51-0.63-0.84
			c-0.19-0.28-0.33-0.54-0.42-0.77 M113.16,75.39c0.09-0.19,0.19-0.37,0.28-0.56c0.05-0.09,0.12-0.19,0.21-0.28 M117.27,75.32
			c0.05-0.19,0.14-0.37,0.28-0.56c0.19-0.23,0.37-0.44,0.56-0.63 M109.05,74c0.19,0.23,0.4,0.53,0.63,0.91
			c0.09,0.14,0.19,0.3,0.28,0.49c0.56,1.07,0.84,2.3,0.84,3.69c0,1.21-0.21,2.3-0.63,3.28c-0.14,0.32-0.3,0.63-0.49,0.91
			c-0.14,0.23-0.3,0.46-0.49,0.7c0.6,0.56,1.25,0.84,1.95,0.84c0.93,0,1.74-0.49,2.44-1.46c-0.05-0.05-0.09-0.09-0.14-0.14
			c-0.19-0.28-0.33-0.56-0.42-0.84 M108.14,75.46c0.09-0.28,0.21-0.53,0.35-0.77c0.19-0.23,0.37-0.46,0.56-0.7 M104.17,75.46
			c0.05-0.19,0.14-0.37,0.28-0.56c0.05,0,0.07,0.02,0.07,0.07c0.09,0.14,0.19,0.3,0.28,0.49c0.56,1.07,0.84,2.3,0.84,3.69
			c0,1.21-0.21,2.3-0.63,3.28c-0.14,0.33-0.3,0.63-0.49,0.91v0.07c0.74,1.07,1.6,1.6,2.58,1.6c0.79,0,1.49-0.35,2.09-1.04
			c-0.23-0.28-0.46-0.58-0.7-0.91c-0.14-0.23-0.26-0.44-0.35-0.63 M98.95,75.6c0.09-0.23,0.21-0.44,0.35-0.63
			c0.19-0.28,0.4-0.53,0.63-0.77c0.19,0.23,0.37,0.51,0.56,0.84c0.09,0.14,0.19,0.3,0.28,0.49c0.56,1.07,0.84,2.3,0.84,3.69
			c0,1.25-0.21,2.37-0.63,3.34c-0.14,0.28-0.3,0.56-0.49,0.84c-0.19,0.28-0.37,0.53-0.56,0.77c0.6,0.6,1.28,0.91,2.02,0.91
			c1.02,0,1.88-0.56,2.58-1.67c-0.05-0.05-0.07-0.09-0.07-0.14c-0.19-0.28-0.32-0.53-0.42-0.77 M95.39,74.91
			c0.05,0.09,0.09,0.19,0.14,0.28c0.09,0.14,0.19,0.3,0.28,0.49c0.56,1.07,0.84,2.3,0.84,3.69c0,1.21-0.21,2.3-0.63,3.28
			c-0.14,0.33-0.3,0.63-0.49,0.91c-0.05,0.05-0.07,0.09-0.07,0.14c0.7,0.98,1.51,1.46,2.44,1.46c0.79,0,1.46-0.33,2.02-0.98
			c-0.23-0.23-0.44-0.51-0.63-0.84c-0.14-0.23-0.28-0.49-0.42-0.77 M94.91,75.67c0.09-0.23,0.21-0.44,0.35-0.63
			c0.05-0.05,0.09-0.09,0.14-0.14 M90.86,74.56c0.19,0.23,0.37,0.49,0.56,0.77c0.09,0.14,0.19,0.3,0.28,0.49
			c0.56,1.02,0.84,2.25,0.84,3.69c0,1.21-0.21,2.3-0.63,3.28c-0.14,0.33-0.3,0.63-0.49,0.91s-0.35,0.53-0.49,0.77
			c0.6,0.6,1.28,0.91,2.02,0.91c0.98-0.05,1.81-0.6,2.51-1.67c-0.09-0.09-0.16-0.19-0.21-0.28c-0.14-0.23-0.28-0.46-0.42-0.7
			 M90.03,75.81c0.09-0.19,0.19-0.35,0.28-0.49c0.19-0.28,0.37-0.53,0.56-0.77 M85.92,75.95c0.09-0.19,0.19-0.35,0.28-0.49
			c0,0.05,0.02,0.09,0.07,0.14c0.05,0.09,0.12,0.21,0.21,0.35c0.6,1.07,0.91,2.35,0.91,3.83c0,1.16-0.19,2.21-0.56,3.14
			c-0.19,0.37-0.37,0.72-0.56,1.04c0.74,1.02,1.6,1.53,2.58,1.53c0.79-0.05,1.49-0.4,2.09-1.05c-0.23-0.23-0.44-0.49-0.63-0.77
			c-0.19-0.28-0.33-0.56-0.42-0.84 M81.6,75.05c0.19,0.19,0.37,0.44,0.56,0.77c0.05,0.09,0.12,0.19,0.21,0.28
			c0.6,1.11,0.91,2.42,0.91,3.9c0,1.16-0.19,2.18-0.56,3.07c-0.14,0.42-0.33,0.79-0.56,1.12c-0.14,0.28-0.3,0.51-0.49,0.7
			c0.6,0.6,1.28,0.91,2.02,0.91c1.02-0.05,1.88-0.65,2.58-1.81c0-0.05-0.02-0.09-0.07-0.14c-0.19-0.28-0.33-0.56-0.42-0.84
			 M80.83,76.16c0.05-0.14,0.12-0.28,0.21-0.42c0.19-0.28,0.37-0.51,0.56-0.7 M76.72,76.37c0.05-0.14,0.12-0.28,0.21-0.42
			c0.05-0.09,0.12-0.19,0.21-0.28c0.05,0,0.07,0.02,0.07,0.07c0.14,0.19,0.26,0.39,0.35,0.63c0.51,1.02,0.77,2.21,0.77,3.55
			c0,1.25-0.21,2.39-0.63,3.41c-0.14,0.23-0.3,0.49-0.49,0.77c-0.05,0.09-0.12,0.21-0.21,0.35c0.74,1.02,1.6,1.53,2.58,1.53
			c0.79-0.05,1.49-0.42,2.09-1.12c-0.23-0.23-0.44-0.49-0.63-0.77c-0.19-0.28-0.35-0.58-0.49-0.91 M71.56,76.65
			c0.14-0.28,0.28-0.53,0.42-0.77c0.19-0.28,0.37-0.51,0.56-0.7c0.23,0.23,0.44,0.51,0.63,0.84c0.09,0.19,0.21,0.37,0.35,0.56
			c0.51,1.02,0.77,2.23,0.77,3.62c0,1.25-0.21,2.37-0.63,3.34c-0.14,0.28-0.3,0.56-0.49,0.84c-0.14,0.28-0.3,0.53-0.49,0.77
			c0.56,0.56,1.21,0.81,1.95,0.77c0.93,0,1.72-0.49,2.37-1.46c0-0.05-0.02-0.09-0.07-0.14c-0.19-0.28-0.35-0.58-0.49-0.91
			 M67.94,76.16c0,0.05,0.02,0.09,0.07,0.14c0.09,0.19,0.21,0.37,0.35,0.56c0.51,1.02,0.77,2.23,0.77,3.62
			c0,1.25-0.21,2.37-0.63,3.34c-0.14,0.28-0.3,0.56-0.49,0.84c0.74,1.07,1.6,1.58,2.58,1.53c0.79,0,1.49-0.35,2.09-1.04
			c-0.23-0.28-0.46-0.58-0.7-0.91c-0.14-0.19-0.25-0.39-0.35-0.63 M62.36,77.28c0.09-0.28,0.23-0.56,0.42-0.84
			c0.19-0.28,0.39-0.53,0.63-0.77c0.19,0.23,0.37,0.49,0.56,0.77c0.14,0.23,0.28,0.46,0.42,0.7c0.46,0.98,0.7,2.14,0.7,3.48
			c0,1.3-0.23,2.46-0.7,3.48c-0.14,0.23-0.28,0.46-0.42,0.7c-0.19,0.33-0.37,0.6-0.56,0.84c0.6,0.6,1.28,0.88,2.02,0.84
			c1.02,0,1.88-0.6,2.58-1.81c0-0.05-0.02-0.09-0.07-0.14c-0.14-0.19-0.26-0.4-0.35-0.63 M67.59,76.93
			c0.09-0.28,0.21-0.53,0.35-0.77 M58.25,77.62c0.14-0.37,0.3-0.72,0.49-1.05c0.09-0.14,0.19-0.26,0.28-0.35
			c0.05,0.09,0.12,0.19,0.21,0.28c0.23,0.28,0.44,0.6,0.63,0.98c0.46,0.84,0.74,1.83,0.84,3c0.14,1.49-0.02,2.81-0.49,3.97
			c-0.09,0.09-0.16,0.21-0.21,0.35c-0.19,0.37-0.37,0.7-0.56,0.98c0.56,0.6,1.21,0.88,1.95,0.84c0.74,0,1.42-0.33,2.02-0.98
			c-0.23-0.23-0.44-0.51-0.63-0.84c-0.09-0.19-0.19-0.37-0.28-0.56 M54.07,77.07c0.05,0.05,0.09,0.09,0.14,0.14
			c0.19,0.23,0.35,0.49,0.49,0.77c0.56,0.88,0.88,1.95,0.98,3.21c0.09,1.35-0.05,2.55-0.42,3.62c-0.09,0.23-0.19,0.46-0.28,0.7v0.07
			c0.74,0.98,1.6,1.39,2.58,1.25c0.7-0.05,1.32-0.39,1.88-1.04c-0.28-0.23-0.51-0.51-0.7-0.84c-0.09-0.14-0.16-0.25-0.21-0.35
			 M49.47,77.07c0.23,0.19,0.46,0.42,0.7,0.7c0.14,0.19,0.3,0.4,0.49,0.63c0.56,0.98,0.88,2.09,0.98,3.34
			c0.09,1.21,0,2.32-0.28,3.34c-0.14,0.33-0.28,0.65-0.42,0.98c-0.14,0.28-0.28,0.53-0.42,0.77c0.6,0.56,1.28,0.79,2.02,0.7
			c1.02-0.09,1.83-0.74,2.44-1.95c-0.05-0.09-0.09-0.16-0.14-0.21c-0.14-0.14-0.26-0.3-0.35-0.49 M48.71,78.67
			c0.09-0.32,0.21-0.63,0.35-0.91c0.14-0.28,0.28-0.51,0.42-0.7 M53.65,78.04c0.09-0.33,0.23-0.65,0.42-0.98 M35.4,81.67
			c0.05,0,0.09,0,0.14,0h0.07c1.16,0,2.16,0.39,3,1.18c0.19,0.19,0.35,0.37,0.49,0.56v0.07c0.79,0.09,1.51,0.37,2.16,0.84
			c0.51,0,1,0.09,1.46,0.28c0.05-0.56,0.05-1.12,0-1.67c-0.09-1.16-0.37-2.18-0.84-3.07c-0.19-0.33-0.39-0.63-0.63-0.91
			c-0.23-0.28-0.46-0.51-0.7-0.7c-0.14,0.19-0.28,0.42-0.42,0.7c-0.23,0.46-0.42,0.95-0.56,1.46 M45.08,78.18
			c0.09,0.05,0.16,0.12,0.21,0.21c0.19,0.23,0.35,0.49,0.49,0.77c0.56,0.88,0.88,1.95,0.98,3.21c0.09,1.11,0.02,2.14-0.21,3.07
			c-0.14,0.42-0.3,0.84-0.49,1.25c-0.05,0.05-0.07,0.12-0.07,0.21c0.74,0.93,1.58,1.32,2.51,1.18c0.79-0.09,1.46-0.51,2.02-1.25
			c-0.23-0.19-0.46-0.44-0.7-0.77c-0.23-0.28-0.42-0.56-0.56-0.84 M44.6,79.37c0.09-0.37,0.23-0.72,0.42-1.04
			c0.05-0.05,0.07-0.09,0.07-0.14 M39.09,83.48c0.23,0.37,0.42,0.74,0.56,1.12c0.19-0.09,0.42-0.16,0.7-0.21
			c0.23-0.05,0.51-0.07,0.84-0.07h0.07c0.09,0.09,0.19,0.19,0.28,0.28c0.19,0.19,0.35,0.37,0.49,0.56 M45.99,86.89
			c-0.09-0.09-0.16-0.19-0.21-0.28c-0.28-0.33-0.51-0.7-0.7-1.11 M44.25,85.5c-0.46-0.42-0.98-0.72-1.53-0.91
			c0,0.19-0.02,0.39-0.07,0.63 M39.09,83.48c-0.05-0.05-0.12-0.07-0.21-0.07c-0.14,0-0.28,0-0.42,0c-1.16,0-2.14,0.39-2.93,1.18
			c-0.79,0.88-1.18,1.9-1.18,3.07c0,0.93,0.25,1.74,0.77,2.44c0.05,0,0.12,0,0.21,0c0.05,0,0.12,0,0.21,0
			c0.37,0,0.72-0.02,1.05-0.07c0.23-0.09,0.46-0.16,0.7-0.21l-0.07-0.07c-0.09-0.37-0.14-0.77-0.14-1.18c0-1.16,0.39-2.18,1.18-3.07
			c0.37-0.37,0.77-0.65,1.18-0.84c0.05-0.05,0.12-0.07,0.21-0.07 M40.42,91.42c-0.28,0.14-0.58,0.25-0.91,0.35
			c-0.28,0.05-0.56,0.07-0.84,0.07c-0.14-0.09-0.28-0.21-0.42-0.35c-0.19-0.19-0.32-0.35-0.42-0.49c-0.28-0.37-0.46-0.77-0.56-1.18"
			/>
	</g>
	<g>
		<path fill="#999999" d="M179.08,93.37l-0.07-0.21v-0.14c0-0.42,0-0.91,0-1.46c0-0.05,0-0.09,0-0.14V70.38h4.25v22.44v0.56
			L179.08,93.37L179.08,93.37z M66.54,93.44c0.19,1.76-1.09,1.76-3.83,0c-0.05,0-0.09-0.02-0.14-0.07V70.31h4.04l-0.07,0.07v20.97
			c0,0.05,0,0.09,0,0.14v1.74v0.07h-0.07l0.07,0.07V93.44z"/>
		
			<linearGradient id="SVGID_41_" gradientUnits="userSpaceOnUse" x1="30.9229" y1="253.9082" x2="-113.104" y2="250.0464" gradientTransform="matrix(1.3936 0 0 -1.3936 180.8871 442.4815)">
			<stop  offset="0" style="stop-color:#2F2F2F"/>
			<stop  offset="0.1882" style="stop-color:#979595"/>
			<stop  offset="1" style="stop-color:#2C2929"/>
		</linearGradient>
		<path fill="url(#SVGID_41_)" d="M179.08,93.44H66.54v-0.07l-0.07-0.07h0.07v-0.07c0.28-0.56,0.7-0.95,1.25-1.18
			c2-0.98,7.11-1.86,15.33-2.65c11.01-1.02,24.23-1.53,39.65-1.53c15.52,0,28.75,0.51,39.72,1.53c8.13,0.74,13.26,1.6,15.4,2.58
			c0.46,0.23,0.84,0.7,1.11,1.39L179.08,93.44v-0.07h4.18v-0.56l0.07,0.52v0.1L179.08,93.44L179.08,93.44z M62.57,93.37
			c0.04,0.04,0.09,0.07,0.14,0.07h-0.14V93.37z"/>
		
			<linearGradient id="SVGID_42_" gradientUnits="userSpaceOnUse" x1="-116.2461" y1="249.2695" x2="33.2547" y2="249.2695" gradientTransform="matrix(1.3936 0 0 -1.3936 180.8871 442.4815)">
			<stop  offset="0" style="stop-color:#898686"/>
			<stop  offset="1" style="stop-color:#E1E1E1"/>
		</linearGradient>
		<path fill="url(#SVGID_42_)" d="M62.71,93.44c2.74,1.76,4.02,1.76,3.83,0h112.53h4.25v-0.1c0.05,0,0.09,0,0.14,0v3.52h-14.42
			h-8.92H85.5h-9.41h-9.55h-3.97v-3.41h0.14V93.44z"/>
		
			<linearGradient id="SVGID_43_" gradientUnits="userSpaceOnUse" x1="-113.1836" y1="258.7344" x2="30.7905" y2="258.7344" gradientTransform="matrix(1.3936 0 0 -1.3936 180.8871 442.4815)">
			<stop  offset="0" style="stop-color:#1A1A1A"/>
			<stop  offset="0.4784" style="stop-color:#272525"/>
			<stop  offset="0.7922" style="stop-color:#6C6261"/>
			<stop  offset="1" style="stop-color:#474141"/>
		</linearGradient>
		<path fill="url(#SVGID_43_)" d="M66.54,93.23v-1.74c0-0.05,0-0.09,0-0.14V70.38H179v21.04c0,0.05,0,0.09,0,0.14
			c0,0.56,0,1.04,0,1.46v0.14l0.07,0.21v0.07L179,93.37c-0.28-0.7-0.65-1.16-1.11-1.39c-2.14-0.98-7.27-1.84-15.4-2.58
			c-10.96-1.02-24.2-1.53-39.72-1.53c-15.42,0-28.64,0.51-39.65,1.53c-8.22,0.79-13.33,1.67-15.33,2.65
			C67.24,92.28,66.82,92.68,66.54,93.23z"/>
	</g>
	<g>
		<path fill="none" d="M204.86,85.64c1.86,1.02,2.37,2.65,1.53,4.88"/>
		<path fill="none" d="M41.11,85.57c-1.86,1.02-2.37,2.65-1.53,4.88"/>
	</g>
	<g>
		<path fill="#4EDBFE" fill-opacity="0.4" d="M223.68,30.66H22.99V8.57h200.68v22.09H223.68z M23.69,132.6h200.68v22.09H23.69V132.6
			z"/>
	</g>
	<g>
		<g>
			<path d="M171.55,86.68c0.6,0.56,0.91,1.23,0.91,2.02c0.56,1.81-1.74,3.11-6.9,3.9c-0.05,0-0.09,0.02-0.14,0.07
				c-0.09,0-0.19,0-0.28,0c-0.05,0-0.09,0.02-0.14,0.07c-0.14,0-0.28,0-0.42,0c-0.05,0-0.09,0-0.14,0c-0.65,0-1.25-0.16-1.81-0.49
				c-0.14-0.09-0.25-0.19-0.35-0.28c-0.6-0.51-0.91-1.12-0.91-1.81h-0.07c0-0.28,0.07-0.56,0.21-0.84
				c-1.63-0.14-3.58-0.28-5.85-0.42h-0.07c-8.83-0.65-19.53-0.98-32.12-0.98c-12.59,0-23.32,0.33-32.19,0.98
				c-2.18,0.14-4.02,0.28-5.5,0.42h-0.07c0.14,0.37,0.19,0.79,0.14,1.25c-0.14,0.65-0.56,1.19-1.25,1.6
				c-0.51,0.33-1.07,0.51-1.67,0.56c-0.05,0-0.09,0-0.14,0c-0.19,0-0.35,0-0.49,0c-0.09,0-0.19-0.02-0.28-0.07
				c-2.14-0.23-3.6-0.51-4.39-0.84c-2.6-0.79-3.65-1.84-3.14-3.14c-0.05-0.79,0.3-1.46,1.05-2.02c0.51-0.65,2-1.21,4.46-1.67
				c0.65-0.14,1.39-0.26,2.23-0.35c2.28-0.37,5.11-0.67,8.5-0.91c9.06-0.6,19.97-0.91,32.75-0.91c12.77,0,23.67,0.3,32.68,0.91
				c0.84,0.09,1.67,0.16,2.51,0.21c1.07,0.09,2.11,0.21,3.14,0.35c0.46,0.05,0.93,0.07,1.39,0.07c0.42,0.09,0.83,0.16,1.25,0.21
				l0.28,0.07c0.09,0.05,0.21,0.07,0.35,0.07c0.09,0,0.19,0,0.28,0c0.05,0,0.09,0,0.14,0c2.51,0.42,4.27,0.88,5.3,1.39
				c0.05,0,0.09,0.02,0.14,0.07C171.21,86.33,171.41,86.5,171.55,86.68z"/>
		</g>
		<g>
			
				<radialGradient id="SVGID_44_" cx="-36.5298" cy="38.813" r="9.2867" gradientTransform="matrix(1.3789 -0.2017 -0.0999 -0.6828 219.6697 103.7927)" gradientUnits="userSpaceOnUse">
				<stop  offset="0" style="stop-color:#626262"/>
				<stop  offset="0.2078" style="stop-color:#424242"/>
				<stop  offset="0.3294" style="stop-color:#565656"/>
				<stop  offset="0.5059" style="stop-color:#737373"/>
				<stop  offset="0.5725" style="stop-color:#BFBFBF"/>
				<stop  offset="0.6824" style="stop-color:#5E5E5E"/>
				<stop  offset="0.8157" style="stop-color:#414141"/>
				<stop  offset="1" style="stop-color:#1A1A1A"/>
			</radialGradient>
			<path fill="url(#SVGID_44_)" d="M165.42,91.98v-0.07c0.46-0.14,0.88-0.39,1.25-0.77c0.6-0.6,0.91-1.35,0.91-2.23
				c0-0.84-0.3-1.56-0.91-2.16c-0.33-0.33-0.79-0.58-1.39-0.77h0.07c0.79-0.23,0.63-0.98-0.49-2.23c1.63-0.56,1.79-1.04,0.49-1.46
				v-0.07c0.05,0,0.09,0.02,0.14,0.07c2.51,0.46,4.27,1.02,5.3,1.67c0.05,0,0.09,0.02,0.14,0.07c0.28,0.19,0.49,0.39,0.63,0.63
				c0.6,0.65,0.91,1.46,0.91,2.44c0.56,2.23-1.74,3.83-6.9,4.81C165.52,91.91,165.47,91.93,165.42,91.98z"/>
			
				<radialGradient id="SVGID_45_" cx="-41.396" cy="-1173.2305" r="57.8" gradientTransform="matrix(1.3936 0 0 -0.1417 180.8871 -78.5955)" gradientUnits="userSpaceOnUse">
				<stop  offset="0" style="stop-color:#000000"/>
				<stop  offset="0.1765" style="stop-color:#171717"/>
				<stop  offset="0.3137" style="stop-color:#424242"/>
				<stop  offset="0.4157" style="stop-color:#565656"/>
				<stop  offset="0.5059" style="stop-color:#737373"/>
				<stop  offset="0.5725" style="stop-color:#BFBFBF"/>
				<stop  offset="0.651" style="stop-color:#5E5E5E"/>
				<stop  offset="0.7098" style="stop-color:#414141"/>
				<stop  offset="1" style="stop-color:#404040"/>
			</radialGradient>
			<path fill="url(#SVGID_45_)" d="M85.78,87.87c-0.19-0.42-0.44-0.79-0.77-1.11c-0.6-0.6-1.35-0.91-2.23-0.91
				c-0.14,0-0.28,0.02-0.42,0.07c-3.53-0.84-4.46-1.65-2.79-2.44c3.76-1.21,4.65-1.65,2.65-1.32c2.28-0.42,5.11-0.77,8.5-1.05
				c9.06-0.79,19.97-1.18,32.75-1.18c12.77,0,23.67,0.39,32.68,1.18c0.84,0.09,1.67,0.16,2.51,0.21c1.07,0.14,2.11,0.28,3.14,0.42
				c0.46,0.05,0.93,0.09,1.39,0.14c0.42,0.09,0.83,0.16,1.25,0.21l0.28,0.07c0.09,0.05,0.21,0.07,0.35,0.07
				c0.09,0.05,0.19,0.07,0.28,0.07c1.3,0.42,1.14,0.91-0.49,1.46c1.12,1.25,1.28,2,0.49,2.23c-0.14-0.05-0.28-0.07-0.42-0.07
				c-0.19-0.05-0.35-0.07-0.49-0.07c-0.84,0-1.56,0.3-2.16,0.91c-0.6,0.6-0.91,1.32-0.91,2.16h-0.07c0-0.33,0.07-0.65,0.21-0.98
				c-1.63-0.19-3.58-0.37-5.85-0.56h-0.07c-8.83-0.79-19.53-1.18-32.12-1.18s-23.32,0.39-32.19,1.18
				C89.1,87.56,87.26,87.73,85.78,87.87z"/>
			
				<linearGradient id="SVGID_46_" gradientUnits="userSpaceOnUse" x1="-11.8389" y1="255.9189" x2="-11.7139" y2="251.4939" gradientTransform="matrix(1.3936 0 0 -1.3936 180.8871 442.4815)">
				<stop  offset="0" style="stop-color:#999999"/>
				<stop  offset="1" style="stop-color:#595959"/>
			</linearGradient>
			<path fill="url(#SVGID_46_)" d="M165.14,91.98c-0.05,0-0.09,0.02-0.14,0.07c-0.14,0-0.28,0-0.42,0c-0.05,0-0.09,0-0.14,0
				c-0.65,0-1.25-0.19-1.81-0.56c-0.14-0.14-0.25-0.25-0.35-0.35c-0.6-0.6-0.91-1.35-0.91-2.23c0-0.84,0.3-1.56,0.91-2.16
				c0.6-0.6,1.32-0.91,2.16-0.91c0.14,0,0.3,0.02,0.49,0.07c0.14,0,0.28,0.02,0.42,0.07h-0.07c0.6,0.19,1.07,0.44,1.39,0.77
				c0.6,0.6,0.91,1.32,0.91,2.16c0,0.88-0.3,1.63-0.91,2.23c-0.37,0.37-0.79,0.63-1.25,0.77C165.33,91.95,165.24,91.98,165.14,91.98
				z"/>
			<path fill="#0000FF" d="M165.14,91.98c0.1,0,0.19-0.03,0.28-0.07v0.07C165.33,91.98,165.24,91.98,165.14,91.98z"/>
			
				<linearGradient id="SVGID_47_" gradientUnits="userSpaceOnUse" x1="-70.3911" y1="255.9307" x2="-70.3911" y2="251.4805" gradientTransform="matrix(1.3936 0 0 -1.3936 180.8871 442.4815)">
				<stop  offset="0" style="stop-color:#999999"/>
				<stop  offset="1" style="stop-color:#595959"/>
			</linearGradient>
			<path fill="url(#SVGID_47_)" d="M82.01,91.98c-0.37-0.09-0.72-0.26-1.04-0.49c-0.14-0.14-0.26-0.25-0.35-0.35
				c-0.6-0.6-0.91-1.35-0.91-2.23c0-0.84,0.3-1.56,0.91-2.16c0.51-0.51,1.09-0.79,1.74-0.84c0.14-0.05,0.28-0.07,0.42-0.07
				c0.88,0,1.63,0.3,2.23,0.91c0.33,0.33,0.58,0.7,0.77,1.11h-0.07c0.14,0.46,0.19,0.98,0.14,1.53c-0.14,0.84-0.56,1.51-1.25,2.02
				c-0.51,0.37-1.07,0.58-1.67,0.63c-0.05,0-0.09,0-0.14,0c-0.19,0-0.35,0-0.49,0C82.2,92.05,82.11,92.02,82.01,91.98z"/>
			
				<radialGradient id="SVGID_48_" cx="-71.9458" cy="234.6406" r="6.3" gradientTransform="matrix(1.3936 0 0 -1.2222 180.8871 370.6717)" gradientUnits="userSpaceOnUse">
				<stop  offset="0" style="stop-color:#626262"/>
				<stop  offset="0.3137" style="stop-color:#424242"/>
				<stop  offset="0.4157" style="stop-color:#565656"/>
				<stop  offset="0.5059" style="stop-color:#737373"/>
				<stop  offset="0.5725" style="stop-color:#BFBFBF"/>
				<stop  offset="0.651" style="stop-color:#5E5E5E"/>
				<stop  offset="0.8157" style="stop-color:#414141"/>
				<stop  offset="1" style="stop-color:#1A1A1A"/>
			</radialGradient>
			<path fill="url(#SVGID_48_)" d="M82.01,91.98c-2.14-0.28-3.6-0.6-4.39-0.98c-2.6-0.97-3.65-2.28-3.14-3.9
				c-0.05-0.98,0.3-1.79,1.05-2.44c0.51-0.79,2-1.49,4.46-2.09c0.65-0.14,1.39-0.28,2.23-0.42c2-0.32,1.11,0.12-2.65,1.32
				c-1.67,0.79-0.74,1.6,2.79,2.44c-0.65,0.05-1.23,0.33-1.74,0.84c-0.6,0.6-0.91,1.32-0.91,2.16c0,0.88,0.3,1.63,0.91,2.23
				c0.09,0.09,0.21,0.21,0.35,0.35C81.29,91.72,81.64,91.89,82.01,91.98z"/>
		</g>
		<g>
			<path fill="none" d="M165.7,86.13c1.86,0.98,2.37,2.51,1.53,4.6"/>
			<path fill="none" d="M81.74,85.99c-1.86,0.98-2.37,2.51-1.53,4.6"/>
		</g>
		<g>
			
				<path fill="none" stroke="#2E2C2C" stroke-width="0.5" stroke-linecap="round" stroke-linejoin="round" stroke-miterlimit="3" d="
				M168.77,88.77c0,1.12-0.4,2.07-1.18,2.86c0.23,0.05,0.46,0.07,0.7,0.07c1.12,0,2.07-0.39,2.86-1.18
				c0.79-0.79,1.19-1.74,1.19-2.86c0-1.11-0.4-2.07-1.19-2.86c-0.79-0.79-1.74-1.18-2.86-1.18c-0.33,0-0.63,0.05-0.91,0.14
				c-0.09,0.51-0.23,1.04-0.42,1.6c0.19,0.14,0.39,0.33,0.63,0.56C168.37,86.71,168.77,87.66,168.77,88.77z M79.99,82.57
				c0.09-0.28,0.21-0.56,0.35-0.84c0.19-0.23,0.35-0.46,0.49-0.7c0.56-0.65,1.18-0.98,1.88-0.98c0.93-0.14,1.74,0.26,2.44,1.19
				c0.6-1.02,1.3-1.58,2.09-1.67c0.05-0.05,0.12-0.07,0.21-0.07c0.56-0.05,1.07,0.07,1.53,0.35v-0.07c0.6-0.6,1.25-0.91,1.95-0.91
				c0.37,0,0.72,0.07,1.04,0.21c0.05,0,0.09,0.02,0.14,0.07c0.42,0.23,0.79,0.6,1.11,1.12c0.7-1.02,1.46-1.58,2.3-1.67
				c0.05-0.05,0.12-0.07,0.21-0.07c0.7,0,1.3,0.26,1.81,0.77c0.56-0.65,1.21-1,1.95-1.04c0.33,0,0.63,0.07,0.91,0.21
				c0.51,0.19,0.98,0.58,1.39,1.19c0.7-0.88,1.46-1.35,2.3-1.39c0.7,0,1.32,0.28,1.88,0.84c0.56-0.7,1.21-1.07,1.95-1.12
				c0.65,0,1.21,0.23,1.67,0.7c0.23,0.23,0.44,0.51,0.63,0.84c0.7-1.11,1.53-1.65,2.51-1.6c0.7-0.05,1.32,0.26,1.88,0.91
				c0.56-0.65,1.21-0.98,1.95-0.98c0.28,0,0.53,0.05,0.77,0.14c0.51,0.19,1,0.58,1.46,1.18c0.14-0.23,0.3-0.42,0.49-0.56
				c0.56-0.6,1.18-0.88,1.88-0.84c0.7,0,1.32,0.28,1.88,0.84c0.51-0.56,1.14-0.84,1.88-0.84c0.88,0,1.65,0.53,2.3,1.6
				c0.7-1.07,1.53-1.6,2.51-1.6c0.65,0.05,1.25,0.33,1.81,0.84c0.56-0.65,1.21-0.95,1.95-0.91c0.88,0,1.65,0.51,2.3,1.53
				c0.65-0.88,1.42-1.3,2.3-1.25c0.65,0,1.28,0.33,1.88,0.98c0.56-0.7,1.19-1.02,1.88-0.98c0.93,0.05,1.72,0.56,2.37,1.53
				c0.7-1.11,1.51-1.63,2.44-1.53c0.7,0,1.32,0.3,1.88,0.91c0.56-0.6,1.21-0.88,1.95-0.84c0.98,0.05,1.79,0.6,2.44,1.67
				c0.05,0.09,0.07,0.19,0.07,0.28c0.05-0.05,0.07-0.09,0.07-0.14c0.7-1.07,1.53-1.56,2.51-1.46c0.65,0,1.25,0.3,1.81,0.91
				c0.05,0.05,0.09,0.09,0.14,0.14c0.46-0.46,1.02-0.7,1.67-0.7c0.51,0,0.98,0.14,1.39,0.42c0.37,0.23,0.72,0.6,1.05,1.12
				c0.19,0.28,0.33,0.56,0.42,0.84c0.28-0.28,0.6-0.51,0.98-0.7c0.65-0.42,1.21-0.6,1.67-0.56c0.42-0.05,0.81,0.02,1.18,0.21
				c0.84,0.46,1.32,1.3,1.46,2.51c0.05,0.37,0.05,0.77,0,1.18 M157.55,79.44c0.14,0.19,0.28,0.39,0.42,0.63
				c0.09,0.19,0.19,0.37,0.28,0.56c0.19,0.37,0.33,0.81,0.42,1.32c0.09,0.6,0.12,1.3,0.07,2.09c-0.05,0.6-0.12,1.18-0.21,1.74
				c-0.14,0.42-0.3,0.84-0.49,1.25c-0.19,0.23-0.37,0.51-0.56,0.84c-0.05,0.09-0.12,0.21-0.21,0.35c0.42,0.42,0.88,0.7,1.39,0.84
				c0.19,0.09,0.37,0.14,0.56,0.14c0.46,0,0.88-0.09,1.25-0.28c0.05-0.09,0.12-0.14,0.21-0.14c0.37-0.28,0.7-0.65,0.98-1.12
				c0.42-0.65,0.72-1.39,0.91-2.23c0.05-0.46,0.07-0.95,0.07-1.46c0-1.07-0.19-2.02-0.56-2.86 M153.02,79.99
				c0.09,0.09,0.16,0.21,0.21,0.35v0.07c0.42,0.88,0.63,1.95,0.63,3.21c-0.05,1.21-0.3,2.3-0.77,3.28
				c-0.14,0.19-0.26,0.39-0.35,0.63c-0.05,0.05-0.07,0.09-0.07,0.14c0.7,1.07,1.51,1.65,2.44,1.74c0.7,0,1.32-0.3,1.88-0.91
				c0.09-0.09,0.19-0.19,0.28-0.28c-0.14-0.19-0.28-0.37-0.42-0.56c-0.7-1.02-1.04-2.25-1.04-3.69c0-1.44,0.35-2.67,1.04-3.69
				c0.23-0.33,0.46-0.6,0.7-0.84 M162.56,85.43c0.6-0.46,1.32-0.7,2.16-0.7c0.14,0,0.28,0.02,0.42,0.07c0.09,0,0.19,0,0.28,0
				c0.56-0.56,1.21-0.91,1.95-1.04 M160.68,88.77c0,0.05,0,0.12,0,0.21v0.07c0.05,0.98,0.44,1.84,1.19,2.58
				c0.79,0.79,1.74,1.18,2.86,1.18c1.12,0,2.07-0.4,2.86-1.18 M160.68,88.98c-0.09-0.05-0.16-0.07-0.21-0.07 M165.42,84.8
				c0.56,0.09,1.07,0.28,1.53,0.56 M148.56,78.88c0.19,0.28,0.37,0.53,0.56,0.77c0.09,0.19,0.19,0.39,0.28,0.63
				c0.46,0.93,0.7,2.02,0.7,3.27c-0.05,1.21-0.33,2.28-0.84,3.21c-0.14,0.23-0.26,0.46-0.35,0.7c-0.14,0.28-0.3,0.49-0.49,0.63
				c0.56,0.6,1.18,0.93,1.88,0.98c0.93,0.05,1.72-0.42,2.37-1.39c-0.14-0.28-0.28-0.53-0.42-0.77 M147.72,80.2
				c0.09-0.23,0.21-0.44,0.35-0.63c0.19-0.28,0.35-0.51,0.49-0.7 M139.99,78.95c0.14,0.19,0.3,0.42,0.49,0.7
				c0.09,0.14,0.19,0.28,0.28,0.42c0.46,0.98,0.67,2.14,0.63,3.48c0,1.12-0.21,2.11-0.63,3c-0.14,0.28-0.3,0.58-0.49,0.91
				c-0.14,0.23-0.3,0.44-0.49,0.63c0.6,0.56,1.23,0.86,1.88,0.91c0.98,0.05,1.79-0.46,2.44-1.53l0.07-0.07
				c-0.05-0.05-0.09-0.09-0.14-0.14c-0.14-0.19-0.26-0.4-0.35-0.63 M139.15,79.99c0.05-0.19,0.14-0.35,0.28-0.49
				c0.19-0.19,0.37-0.37,0.56-0.56 M143.89,80.13c0.09-0.23,0.21-0.44,0.35-0.63c0,0.05,0.02,0.09,0.07,0.14
				c0.09,0.14,0.19,0.3,0.28,0.49c0.46,0.98,0.67,2.11,0.63,3.41c0,1.12-0.23,2.14-0.7,3.07c-0.09,0.23-0.21,0.49-0.35,0.77
				c0.65,0.98,1.42,1.51,2.3,1.6c0.74,0,1.39-0.3,1.95-0.91c-0.19-0.23-0.37-0.49-0.56-0.77c-0.14-0.19-0.26-0.39-0.35-0.63
				 M135.81,79.23c0,0.05,0.02,0.07,0.07,0.07c0.14,0.23,0.28,0.49,0.42,0.77c0.37,0.88,0.56,1.95,0.56,3.21
				c-0.05,1.21-0.3,2.3-0.77,3.28c-0.14,0.14-0.28,0.32-0.42,0.56c-0.05,0.09-0.09,0.19-0.14,0.28c0.65,1.02,1.44,1.56,2.37,1.6
				c0.7,0,1.32-0.3,1.88-0.91c-0.19-0.19-0.37-0.44-0.56-0.77c-0.19-0.33-0.3-0.58-0.35-0.77 M135.32,79.99
				c0.09-0.19,0.19-0.37,0.28-0.56c0.05-0.09,0.12-0.16,0.21-0.21 M131.56,78.6c0.14,0.23,0.33,0.51,0.56,0.84
				c0.09,0.14,0.19,0.3,0.28,0.49c0.46,1.02,0.67,2.18,0.63,3.48c0,1.12-0.23,2.11-0.7,3c-0.09,0.28-0.23,0.56-0.42,0.84
				c-0.14,0.23-0.3,0.44-0.49,0.63c0.6,0.51,1.23,0.79,1.88,0.84c0.84,0,1.58-0.44,2.23-1.32c-0.05-0.05-0.09-0.09-0.14-0.14
				c-0.19-0.28-0.3-0.53-0.35-0.77 M126.96,79.92c0.05-0.19,0.14-0.37,0.28-0.56c0.05,0,0.07,0.02,0.07,0.07
				c0.09,0.14,0.19,0.3,0.28,0.49c0.46,0.98,0.67,2.11,0.63,3.41c0,1.12-0.21,2.14-0.63,3.07c-0.14,0.28-0.3,0.56-0.49,0.84v0.07
				c0.7,0.98,1.51,1.46,2.44,1.46c0.7,0.05,1.32-0.25,1.88-0.91c-0.19-0.23-0.39-0.51-0.63-0.84c-0.14-0.23-0.23-0.42-0.28-0.56
				 M130.72,79.99c0.05-0.28,0.14-0.53,0.28-0.77c0.19-0.19,0.37-0.4,0.56-0.63 M123.06,78.6c0.14,0.23,0.3,0.49,0.49,0.77
				c0.09,0.14,0.16,0.33,0.21,0.56c0.51,0.98,0.74,2.11,0.7,3.41c0,1.16-0.21,2.21-0.63,3.14c-0.14,0.23-0.3,0.46-0.49,0.7
				c-0.19,0.23-0.35,0.46-0.49,0.7c0.56,0.6,1.18,0.91,1.88,0.91c0.93,0,1.72-0.49,2.37-1.46c-0.05-0.05-0.07-0.09-0.07-0.14
				c-0.19-0.28-0.3-0.53-0.35-0.77 M118.81,79.16c0.05,0.09,0.09,0.19,0.14,0.28c0.09,0.14,0.16,0.28,0.21,0.42
				c0.05,0.09,0.09,0.21,0.14,0.35c0.42,0.93,0.6,1.97,0.56,3.14c0,1.07-0.19,2.04-0.56,2.93c0,0.05-0.02,0.09-0.07,0.14
				c-0.14,0.28-0.3,0.56-0.49,0.84l-0.07,0.07c0.19,0.28,0.4,0.53,0.63,0.77c0.51,0.42,1.07,0.65,1.67,0.7
				c0.74,0,1.37-0.3,1.88-0.91c-0.23-0.23-0.44-0.49-0.63-0.77c-0.09-0.23-0.21-0.46-0.35-0.7 M118.32,79.85
				c0.14-0.19,0.25-0.37,0.35-0.56c0.05-0.05,0.09-0.09,0.14-0.14 M122.08,79.92c0.14-0.23,0.25-0.44,0.35-0.63
				c0.19-0.23,0.39-0.46,0.63-0.7 M114.63,78.81c0.19,0.19,0.35,0.42,0.49,0.7c0.05,0.14,0.12,0.28,0.21,0.42
				c0.51,0.98,0.74,2.14,0.7,3.48c0,1.12-0.21,2.11-0.63,3c-0.14,0.33-0.3,0.6-0.49,0.84c-0.14,0.28-0.28,0.53-0.42,0.77
				c0.56,0.56,1.18,0.84,1.88,0.84c0.33,0,0.65-0.07,0.98-0.21c0.46-0.28,0.91-0.72,1.32-1.32c-0.09-0.05-0.16-0.12-0.21-0.21
				c-0.09-0.23-0.21-0.46-0.35-0.7 M113.79,79.85c0.09-0.14,0.19-0.28,0.28-0.42c0.19-0.28,0.37-0.49,0.56-0.63 M110.24,79.51
				c-0.05,0.05-0.05,0.09,0,0.14c0.05,0.05,0.12,0.14,0.21,0.28c0.56,1.07,0.81,2.28,0.77,3.62c0,1.12-0.19,2.07-0.56,2.86
				c-0.19,0.37-0.37,0.7-0.56,0.98c0.7,1.02,1.51,1.53,2.44,1.53c0.74-0.05,1.39-0.35,1.95-0.91c-0.23-0.28-0.44-0.56-0.63-0.84
				c-0.14-0.23-0.25-0.49-0.35-0.77 M105.98,79.09c0.19,0.19,0.35,0.42,0.49,0.7c0,0.09,0.05,0.19,0.14,0.28
				c0.56,1.02,0.81,2.23,0.77,3.62c0,1.07-0.19,2.02-0.56,2.86c-0.14,0.37-0.3,0.72-0.49,1.04c-0.14,0.28-0.3,0.49-0.49,0.63
				c0.51,0.56,1.12,0.84,1.81,0.84c0.74-0.05,1.39-0.39,1.95-1.04c0.19-0.19,0.35-0.39,0.49-0.63c0-0.05-0.02-0.09-0.07-0.14
				c-0.14-0.23-0.25-0.49-0.35-0.77 M105.22,80.2c0.05-0.14,0.12-0.28,0.21-0.42c0.19-0.28,0.37-0.51,0.56-0.7 M109.96,79.92
				c0.09-0.18,0.18-0.32,0.28-0.42 M96.58,80.69c0.14-0.28,0.28-0.53,0.42-0.77c0.19-0.23,0.37-0.44,0.56-0.63
				c0.19,0.23,0.37,0.49,0.56,0.77c0.05,0.19,0.14,0.37,0.28,0.56c0.46,0.93,0.67,2.04,0.63,3.34c0,1.16-0.21,2.21-0.63,3.14
				c-0.14,0.23-0.28,0.49-0.42,0.77c-0.14,0.23-0.3,0.46-0.49,0.7c0.46,0.51,1.05,0.74,1.74,0.7c0.42,0,0.81-0.09,1.18-0.28
				c0.42-0.28,0.79-0.65,1.12-1.12c0-0.05-0.02-0.09-0.07-0.14c-0.19-0.28-0.35-0.56-0.49-0.84 M101.8,79.65v0.07
				c0.14,0.23,0.26,0.46,0.35,0.7c0.46,0.93,0.67,2.02,0.63,3.27c0,1.16-0.21,2.23-0.63,3.21c-0.14,0.19-0.3,0.39-0.49,0.63
				c0,0.09-0.05,0.21-0.14,0.35c0.65,0.98,1.42,1.44,2.3,1.39c0.74,0,1.42-0.35,2.02-1.04c-0.23-0.14-0.42-0.35-0.56-0.63
				c-0.19-0.28-0.35-0.58-0.49-0.91 M101.39,80.34c0.05-0.14,0.12-0.28,0.21-0.42c0.05-0.09,0.12-0.19,0.21-0.28 M93.23,80.27
				c0,0.05,0.02,0.09,0.07,0.14c0.09,0.19,0.19,0.35,0.28,0.49c0.51,0.93,0.74,2.04,0.7,3.34c-0.05,1.16-0.28,2.21-0.7,3.14
				c-0.14,0.28-0.28,0.53-0.42,0.77c0.65,0.98,1.42,1.44,2.3,1.39h0.07c0.7,0,1.35-0.33,1.95-0.98c-0.23-0.28-0.44-0.56-0.63-0.84
				c-0.14-0.19-0.26-0.37-0.35-0.56 M88.98,79.85c0.05,0,0.09,0.02,0.14,0.07c0.05,0.05,0.12,0.12,0.21,0.21
				c0.51-0.65,1.11-1.02,1.81-1.12c0.28,0,0.56,0.02,0.84,0.07 M88.56,88.42c0.23,0.56,0.42,0.88,0.56,0.98
				c0.09,0.09,0.19,0.16,0.28,0.21c0.23-0.14,0.46-0.33,0.7-0.56v-0.07c0.14-0.28,0.28-0.53,0.42-0.77c0.09-0.23,0.21-0.46,0.35-0.7
				c0.33-0.93,0.44-1.95,0.35-3.07c-0.09-1.25-0.4-2.3-0.91-3.14c-0.19-0.19-0.3-0.35-0.35-0.49c-0.23-0.28-0.44-0.51-0.63-0.7
				c-0.19,0.19-0.35,0.39-0.49,0.63c-0.14,0.19-0.39,0.35-0.77,0.49c0.05-0.23,0.16-0.46,0.35-0.7c0.19-0.28,0.37-0.51,0.56-0.7
				 M84.94,81.8c0.05-0.19,0.12-0.37,0.21-0.56c0,0.05,0.02,0.09,0.07,0.14c0.14,0.19,0.26,0.35,0.35,0.49
				c0.6,0.84,0.93,1.88,0.98,3.14c0.09,1.12-0.05,2.14-0.42,3.07c-0.05,0.14-0.12,0.3-0.21,0.49 M84.1,86.13
				c-0.42-0.42-0.86-0.7-1.32-0.84c-0.42-0.19-0.88-0.28-1.39-0.28c0.09,0.09,0.19,0.19,0.28,0.28c0.19,0.14,0.35,0.3,0.49,0.49
				 M89.4,89.61l0.07,0.07c0.37,0.19,0.77,0.25,1.18,0.21c0.42,0,0.84-0.12,1.25-0.35l0.07-0.07c0.23-0.19,0.46-0.39,0.7-0.63
				c0.19-0.23,0.35-0.46,0.49-0.7l-0.07-0.07c-0.14-0.19-0.26-0.39-0.35-0.63 M92.88,80.97c0.09-0.23,0.21-0.46,0.35-0.7
				 M73.37,83.41c-0.74,0.84-1.14,1.79-1.18,2.86c0,1.07,0.37,1.97,1.12,2.72c0.14,0.14,0.28,0.28,0.42,0.42
				c0.51,0.46,1.14,0.74,1.88,0.84c-0.51-0.65-0.74-1.42-0.7-2.3c0-1.07,0.39-2,1.18-2.79c0.74-0.74,1.65-1.09,2.72-1.04
				c0.14,0,0.28,0,0.42,0c0.09,0,0.16,0.02,0.21,0.07V84.1c-0.14-0.19-0.3-0.37-0.49-0.56c-0.74-0.74-1.65-1.14-2.72-1.18h-0.07
				c-0.05,0-0.09,0-0.14,0c-0.88,0.05-1.65,0.3-2.3,0.77C73.58,83.22,73.47,83.31,73.37,83.41z M75.6,90.24c0.05,0,0.09,0,0.14,0
				c0.05,0,0.12,0,0.21,0c0.37,0,0.7-0.02,0.98-0.07c0.23-0.09,0.44-0.14,0.63-0.14v-0.07c-0.09-0.33-0.12-0.67-0.07-1.04
				c0-1.12,0.37-2.07,1.11-2.86c0.37-0.37,0.74-0.65,1.11-0.84c0.05,0,0.12,0,0.21,0c-0.14-0.37-0.3-0.72-0.49-1.04 M79.92,85.22
				c0.19-0.09,0.4-0.16,0.63-0.21c0.23,0,0.51,0,0.84,0c-0.6-0.46-1.25-0.74-1.95-0.84 M80.48,91.56c-0.23,0.14-0.51,0.23-0.84,0.28
				c-0.23,0.05-0.49,0.07-0.77,0.07c0.6,0.56,1.37,0.86,2.3,0.91c1.02,0,1.93-0.3,2.72-0.91 M75.6,90.24
				c0.09,0.19,0.21,0.35,0.35,0.49c0.74,0.74,1.65,1.14,2.72,1.18c0.05,0,0.12,0,0.21,0c-0.14-0.09-0.28-0.19-0.42-0.28
				c-0.14-0.19-0.26-0.35-0.35-0.49c-0.28-0.33-0.46-0.7-0.56-1.11 M89.4,89.61c-0.37,0.19-0.77,0.3-1.18,0.35h-0.07
				c-0.79,0.09-1.53-0.23-2.23-0.98"/>
		</g>
	</g>
	<g>
		<line fill="none" x1="22.85" y1="61.6" x2="23.34" y2="61.6"/>
		<line fill="none" x1="18.67" y1="35.47" x2="18.67" y2="64.73"/>
		<line fill="none" x1="18.67" y1="4.39" x2="18.67" y2="33.66"/>
		<polyline fill="none" points="18.67,99.16 18.67,121.73 18.67,128.42 		"/>
		<polyline fill="none" points="18.67,129.81 18.67,130.16 18.67,159.08 		"/>
		<path fill="none" stroke="#D5D5D5" stroke-width="0.1" stroke-linecap="round" stroke-linejoin="round" stroke-miterlimit="3" d="
			M23.2,93.44h39.44 M66.68,93.44h112.46"/>
		<path fill="none" stroke="#DDDDDD" stroke-width="0.1" stroke-linecap="round" stroke-linejoin="round" stroke-miterlimit="3" d="
			M183.26,93.44h40.55 M23.27,125.15l200.54,0.14 M23.13,156.08l200.61,0.07 M23.34,62.02l200.68-0.07 M23.27,30.73h200.68"/>
		<line fill="none" x1="18.67" y1="67.24" x2="18.67" y2="96.51"/>
	</g>
</g>
</svg>
