<?xml version="1.0" encoding="utf-8"?>
<!-- Generator: Adobe Illustrator 16.0.0, SVG Export Plug-In . SVG Version: 6.00 Build 0)  -->
<!DOCTYPE svg PUBLIC "-//W3C//DTD SVG 1.1//EN" "http://www.w3.org/Graphics/SVG/1.1/DTD/svg11.dtd">
<svg version="1.1" id="Layer_1" xmlns="http://www.w3.org/2000/svg" xmlns:xlink="http://www.w3.org/1999/xlink" x="0px" y="0px"
	 width="259.5px" height="323px" viewBox="0 0 259.5 323" enable-background="new 0 0 259.5 323" xml:space="preserve">
<g>
	<g>
		
			<linearGradient id="SVGID_1_" gradientUnits="userSpaceOnUse" x1="-123.4355" y1="-114.0059" x2="-121.5516" y2="-86.0315" gradientTransform="matrix(1.3936 0 0 1.3936 227.0239 432.3033)">
			<stop  offset="0" style="stop-color:#FFFFFF"/>
			<stop  offset="1" style="stop-color:#FFFFFF;stop-opacity:0"/>
		</linearGradient>
		<polygon fill-rule="evenodd" clip-rule="evenodd" fill="url(#SVGID_1_)" points="108.29,294.47 5.02,307.02 5.02,288.9 
			108.29,288.9 		"/>
	</g>
	<g>
		
			<radialGradient id="SVGID_2_" cx="-156" cy="-86.9526" r="1.778" gradientTransform="matrix(0.9999 0.9708 -0.9901 1.0198 79.5128 551.2371)" gradientUnits="userSpaceOnUse">
			<stop  offset="0" style="stop-color:#FFFFFF"/>
			<stop  offset="0.1922" style="stop-color:#FFFFFF"/>
			<stop  offset="0.2824" style="stop-color:#FFFFFF;stop-opacity:0.7255"/>
			<stop  offset="0.4157" style="stop-color:#FFFFFF;stop-opacity:0.6"/>
			<stop  offset="0.5882" style="stop-color:#FEFEFE;stop-opacity:0.3373"/>
			<stop  offset="0.8157" style="stop-color:#FCFCFC;stop-opacity:0.0863"/>
			<stop  offset="1" style="stop-color:#F9F9F9;stop-opacity:0"/>
		</radialGradient>
		<path fill-rule="evenodd" clip-rule="evenodd" fill="url(#SVGID_2_)" d="M7.95,312.87c-0.46-0.46-0.74-1.02-0.84-1.67
			c0.05-0.65,0.3-1.23,0.77-1.74s1.05-0.77,1.74-0.77c0.7-0.05,1.28,0.16,1.74,0.63s0.72,1.04,0.77,1.74
			c-0.05,0.65-0.3,1.23-0.77,1.74c-0.46,0.51-1.04,0.77-1.74,0.77C8.97,313.57,8.41,313.33,7.95,312.87z"/>
	</g>
	<g>
		
			<radialGradient id="SVGID_3_" cx="-92.2002" cy="-89.6001" r="4.4661" gradientTransform="matrix(-1.0537 0.9121 -0.7221 -0.8343 -63.3216 316.778)" gradientUnits="userSpaceOnUse">
			<stop  offset="0" style="stop-color:#FFFFFF"/>
			<stop  offset="0.1922" style="stop-color:#FFFFFF"/>
			<stop  offset="0.2824" style="stop-color:#FFFFFF;stop-opacity:0.7255"/>
			<stop  offset="0.4157" style="stop-color:#FFFFFF;stop-opacity:0.6"/>
			<stop  offset="0.5882" style="stop-color:#FEFEFE;stop-opacity:0.3373"/>
			<stop  offset="0.8157" style="stop-color:#FCFCFC;stop-opacity:0.0863"/>
			<stop  offset="1" style="stop-color:#F9F9F9;stop-opacity:0"/>
		</radialGradient>
		<path fill-rule="evenodd" clip-rule="evenodd" fill="url(#SVGID_3_)" d="M95.4,303.81c1.25-1.11,2.65-1.72,4.18-1.81
			c1.49-0.05,2.67,0.44,3.55,1.46c0.88,1.02,1.18,2.25,0.91,3.69c-0.28,1.53-1.05,2.86-2.3,3.97c-1.25,1.07-2.67,1.63-4.25,1.67
			c-1.49,0.09-2.67-0.37-3.55-1.39c-0.88-1.02-1.18-2.28-0.91-3.76C93.35,306.16,94.14,304.88,95.4,303.81z"/>
	</g>
</g>
<g>
	<g>
		
			<linearGradient id="SVGID_4_" gradientUnits="userSpaceOnUse" x1="-123.4355" y1="-114.0059" x2="-121.5516" y2="-86.0315" gradientTransform="matrix(1.3936 0 0 1.3936 228.2739 256.3034)">
			<stop  offset="0" style="stop-color:#FFFFFF"/>
			<stop  offset="1" style="stop-color:#FFFFFF;stop-opacity:0"/>
		</linearGradient>
		<polygon fill-rule="evenodd" clip-rule="evenodd" fill="url(#SVGID_4_)" points="109.54,118.47 6.27,131.02 6.27,112.9 
			109.54,112.9 		"/>
	</g>
	<g>
		
			<radialGradient id="SVGID_5_" cx="-156" cy="-86.9526" r="1.7763" gradientTransform="matrix(0.9999 0.9708 -0.9901 1.0198 80.7628 375.237)" gradientUnits="userSpaceOnUse">
			<stop  offset="0" style="stop-color:#FFFFFF"/>
			<stop  offset="0.1922" style="stop-color:#FFFFFF"/>
			<stop  offset="0.2824" style="stop-color:#FFFFFF;stop-opacity:0.7294"/>
			<stop  offset="0.4157" style="stop-color:#FFFFFF;stop-opacity:0.6"/>
			<stop  offset="0.5882" style="stop-color:#FEFEFE;stop-opacity:0.3412"/>
			<stop  offset="0.8157" style="stop-color:#FCFCFC;stop-opacity:0.0863"/>
			<stop  offset="1" style="stop-color:#F9F9F9;stop-opacity:0"/>
		</radialGradient>
		<path fill-rule="evenodd" clip-rule="evenodd" fill="url(#SVGID_5_)" d="M9.2,136.87c-0.46-0.46-0.74-1.02-0.84-1.67
			c0.05-0.65,0.3-1.23,0.77-1.74c0.46-0.51,1.05-0.77,1.74-0.77c0.7-0.05,1.28,0.16,1.74,0.63s0.72,1.05,0.77,1.74
			c-0.05,0.65-0.3,1.23-0.77,1.74c-0.46,0.51-1.04,0.77-1.74,0.77C10.22,137.57,9.66,137.33,9.2,136.87z"/>
	</g>
	<g>
		
			<radialGradient id="SVGID_6_" cx="-90.2002" cy="-87.6001" r="4.4661" gradientTransform="matrix(-1.0537 0.9121 -0.7221 -0.8343 -55.7327 143.4096)" gradientUnits="userSpaceOnUse">
			<stop  offset="0" style="stop-color:#FFFFFF"/>
			<stop  offset="0.1922" style="stop-color:#FFFFFF"/>
			<stop  offset="0.2824" style="stop-color:#FFFFFF;stop-opacity:0.7294"/>
			<stop  offset="0.4157" style="stop-color:#FFFFFF;stop-opacity:0.6"/>
			<stop  offset="0.5882" style="stop-color:#FEFEFE;stop-opacity:0.3412"/>
			<stop  offset="0.8157" style="stop-color:#FCFCFC;stop-opacity:0.0863"/>
			<stop  offset="1" style="stop-color:#F9F9F9;stop-opacity:0"/>
		</radialGradient>
		<path fill-rule="evenodd" clip-rule="evenodd" fill="url(#SVGID_6_)" d="M99.43,130.6c1.25-1.11,2.65-1.72,4.18-1.81
			c1.49-0.05,2.67,0.44,3.55,1.46c0.88,1.02,1.18,2.25,0.91,3.69c-0.28,1.53-1.05,2.86-2.3,3.97c-1.25,1.07-2.67,1.63-4.25,1.67
			c-1.49,0.09-2.67-0.37-3.55-1.39c-0.88-1.02-1.19-2.28-0.91-3.76C97.39,132.94,98.18,131.67,99.43,130.6z"/>
	</g>
</g>
<g>
	<g>
		
			<linearGradient id="SVGID_7_" gradientUnits="userSpaceOnUse" x1="-123.4355" y1="-114.0059" x2="-121.5516" y2="-86.0315" gradientTransform="matrix(1.3936 0 0 1.3936 371.3735 256.3034)">
			<stop  offset="0" style="stop-color:#FFFFFF"/>
			<stop  offset="1" style="stop-color:#FFFFFF;stop-opacity:0"/>
		</linearGradient>
		<polygon fill-rule="evenodd" clip-rule="evenodd" fill="url(#SVGID_7_)" points="252.64,118.47 149.37,131.02 149.37,112.9 
			252.64,112.9 		"/>
	</g>
	<g>
		
			<radialGradient id="SVGID_8_" cx="-156" cy="-86.9526" r="1.7763" gradientTransform="matrix(0.9999 0.9708 -0.9901 1.0198 223.8624 375.237)" gradientUnits="userSpaceOnUse">
			<stop  offset="0" style="stop-color:#FFFFFF"/>
			<stop  offset="0.1922" style="stop-color:#FFFFFF"/>
			<stop  offset="0.2824" style="stop-color:#FFFFFF;stop-opacity:0.7294"/>
			<stop  offset="0.4157" style="stop-color:#FFFFFF;stop-opacity:0.6"/>
			<stop  offset="0.5882" style="stop-color:#FEFEFE;stop-opacity:0.3412"/>
			<stop  offset="0.8157" style="stop-color:#FCFCFC;stop-opacity:0.0863"/>
			<stop  offset="1" style="stop-color:#F9F9F9;stop-opacity:0"/>
		</radialGradient>
		<path fill-rule="evenodd" clip-rule="evenodd" fill="url(#SVGID_8_)" d="M152.3,136.87c-0.46-0.46-0.74-1.02-0.84-1.67
			c0.05-0.65,0.3-1.23,0.77-1.74c0.46-0.51,1.04-0.77,1.74-0.77c0.7-0.05,1.28,0.16,1.74,0.63s0.72,1.05,0.77,1.74
			c-0.05,0.65-0.3,1.23-0.77,1.74c-0.46,0.51-1.04,0.77-1.74,0.77C153.32,137.57,152.76,137.33,152.3,136.87z"/>
	</g>
	<g>
		
			<radialGradient id="SVGID_9_" cx="-90.1997" cy="-87.6001" r="4.4658" gradientTransform="matrix(-1.0537 0.9121 -0.7221 -0.8343 87.3681 143.4092)" gradientUnits="userSpaceOnUse">
			<stop  offset="0" style="stop-color:#FFFFFF"/>
			<stop  offset="0.1922" style="stop-color:#FFFFFF"/>
			<stop  offset="0.2824" style="stop-color:#FFFFFF;stop-opacity:0.7294"/>
			<stop  offset="0.4157" style="stop-color:#FFFFFF;stop-opacity:0.6"/>
			<stop  offset="0.5882" style="stop-color:#FEFEFE;stop-opacity:0.3412"/>
			<stop  offset="0.8157" style="stop-color:#FCFCFC;stop-opacity:0.0863"/>
			<stop  offset="1" style="stop-color:#F9F9F9;stop-opacity:0"/>
		</radialGradient>
		<path fill-rule="evenodd" clip-rule="evenodd" fill="url(#SVGID_9_)" d="M242.53,130.6c1.25-1.11,2.65-1.72,4.18-1.81
			c1.49-0.05,2.67,0.44,3.55,1.46c0.88,1.02,1.18,2.25,0.91,3.69c-0.28,1.53-1.04,2.86-2.3,3.97c-1.25,1.07-2.67,1.63-4.25,1.67
			c-1.49,0.09-2.67-0.37-3.55-1.39c-0.88-1.02-1.18-2.28-0.91-3.76C240.49,132.94,241.28,131.67,242.53,130.6z"/>
	</g>
</g>
<g>
	<g>
		
			<linearGradient id="SVGID_10_" gradientUnits="userSpaceOnUse" x1="-157.5" y1="-125.4502" x2="-85.7002" y2="-125.4502" gradientTransform="matrix(1.3936 0 0 1.3936 227.0747 183.2028)">
			<stop  offset="0" style="stop-color:#848484"/>
			<stop  offset="1" style="stop-color:#999999"/>
		</linearGradient>
		<polygon fill-rule="evenodd" clip-rule="evenodd" fill="url(#SVGID_10_)" points="100.74,11.51 14.34,11.51 7.58,5.24 
			107.64,5.24 		"/>
		<path fill-rule="evenodd" clip-rule="evenodd" fill="#BEBEBE" d="M107.64,5.24v64.73h-0.35l-5.47-2.86l-1.15,0.07v-2.65h0.07
			V11.51L107.64,5.24z M14.34,11.51v83.27l-6.76,6.76V5.24L14.34,11.51z"/>
		<polygon fill-rule="evenodd" clip-rule="evenodd" fill="#DDDDDD" points="107.29,69.97 91.82,69.97 93.18,67.39 93.29,67.18 
			100.67,67.18 101.82,67.12 		"/>
		<polygon fill-rule="evenodd" clip-rule="evenodd" fill="#C4C4C4" points="91.16,69.97 93.18,67.39 91.82,69.97 		"/>
		<path fill-rule="evenodd" clip-rule="evenodd" fill="#F2F2F2" d="M75.07,81.05l-0.03-6.9c0.05-2.14,0.81-3.46,2.3-3.97
			c0.33-0.09,0.7-0.16,1.12-0.21h12.72h0.66h15.47l0.35,0.28v0.7H78.58c-0.42,0.05-0.79,0.12-1.12,0.21
			c-1.49,0.51-2.25,1.83-2.3,3.97L75.07,81.05z"/>
		
			<linearGradient id="SVGID_11_" gradientUnits="userSpaceOnUse" x1="-107.0176" y1="-81.6592" x2="-87.5405" y2="-57.0358" gradientTransform="matrix(1.3936 0 0 1.3936 227.0747 183.2028)">
			<stop  offset="0" style="stop-color:#E6E6E6"/>
			<stop  offset="1" style="stop-color:#C3C3C3"/>
		</linearGradient>
		<path fill-rule="evenodd" clip-rule="evenodd" fill="url(#SVGID_11_)" d="M75.03,87.46v-1.15l0.03-5.26l0.1-5.92
			c0.05-2.14,0.81-3.46,2.3-3.97c0.33-0.09,0.7-0.16,1.12-0.21h29.06v30.8H75.03V87.46z"/>
		<polygon fill-rule="evenodd" clip-rule="evenodd" fill="#F0F0F0" points="75.03,86.31 75.03,87.46 72.84,85.27 		"/>
		<polygon fill-rule="evenodd" clip-rule="evenodd" fill="#C7C7C7" points="72.84,85.27 75.03,87.46 75.03,101.75 74.75,101.75 
			72.7,95.2 72.73,94.78 72.73,85.16 		"/>
		<polygon fill-rule="evenodd" clip-rule="evenodd" fill="#CFCFCF" points="7.58,101.54 14.34,94.78 72.73,94.78 72.7,95.2 
			74.75,101.75 7.58,101.75 		"/>
	</g>
	<g>
		<g>
			<path fill-rule="evenodd" clip-rule="evenodd" fill="#FFFFFF" fill-opacity="0.2118" d="M105.62,8.1v6.45
				c-11.76,1.28-28.46,4.52-50.1,9.72c-26.57,4.88-41.55,15.05-44.94,30.52V8.1H105.62z"/>
		</g>
		<g>
			
				<radialGradient id="SVGID_12_" cx="-90.9502" cy="-99.3999" r="6.9815" gradientTransform="matrix(1.3051 0.4888 -1.1233 2.999 107.3611 387.2409)" gradientUnits="userSpaceOnUse">
				<stop  offset="0" style="stop-color:#FFFFFF"/>
				<stop  offset="0.1922" style="stop-color:#FFFFFF"/>
				<stop  offset="0.2824" style="stop-color:#FFFFFF;stop-opacity:0.7216"/>
				<stop  offset="0.4157" style="stop-color:#FFFFFF;stop-opacity:0.6"/>
				<stop  offset="0.5882" style="stop-color:#FEFEFE;stop-opacity:0.3333"/>
				<stop  offset="0.8157" style="stop-color:#FCFCFC;stop-opacity:0.0863"/>
				<stop  offset="1" style="stop-color:#F9F9F9;stop-opacity:0"/>
			</radialGradient>
			<path fill-rule="evenodd" clip-rule="evenodd" fill="url(#SVGID_12_)" d="M109.17,48.02c-2.14,5.67-4.81,10.2-8.01,13.59
				c-3.21,3.11-6.04,4.2-8.5,3.28c-2.42-0.93-3.79-3.6-4.11-8.01c-0.23-4.69,0.72-9.87,2.86-15.54c2.14-5.67,4.81-10.2,8.01-13.59
				c3.3-3.39,6.16-4.62,8.57-3.69c2.46,0.93,3.81,3.74,4.04,8.43C112.26,37.18,111.31,42.35,109.17,48.02z"/>
		</g>
		<g>
			
				<radialGradient id="SVGID_13_" cx="-88.0024" cy="-98.3999" r="2.8875" gradientTransform="matrix(-1.3936 0 6.032969e-003 -14.2318 -110.9841 -1340.6774)" gradientUnits="userSpaceOnUse">
				<stop  offset="0" style="stop-color:#FFFFFF"/>
				<stop  offset="0.1922" style="stop-color:#FFFFFF"/>
				<stop  offset="0.2824" style="stop-color:#FFFFFF;stop-opacity:0.7216"/>
				<stop  offset="0.4157" style="stop-color:#FFFFFF;stop-opacity:0.6"/>
				<stop  offset="0.5882" style="stop-color:#FEFEFE;stop-opacity:0.3333"/>
				<stop  offset="0.8157" style="stop-color:#FCFCFC;stop-opacity:0.0863"/>
				<stop  offset="1" style="stop-color:#F9F9F9;stop-opacity:0"/>
			</radialGradient>
			<path fill-rule="evenodd" clip-rule="evenodd" fill="url(#SVGID_13_)" d="M13.85,31.16c0.74,7.94,1.11,17.47,1.11,28.57
				s-0.37,20.63-1.11,28.57c-0.79,7.94-1.72,11.92-2.79,11.92s-2-3.97-2.79-11.92c-0.74-7.94-1.11-17.47-1.11-28.57
				S7.53,39.1,8.28,31.16c0.79-7.43,1.72-11.15,2.79-11.15S13.06,23.73,13.85,31.16z"/>
		</g>
		<g>
			
				<radialGradient id="SVGID_14_" cx="-155.0996" cy="-125.25" r="2.2185" gradientTransform="matrix(0.997 0.9737 -0.997 1.0208 40.6865 287.5367)" gradientUnits="userSpaceOnUse">
				<stop  offset="0" style="stop-color:#FFFFFF"/>
				<stop  offset="0.1922" style="stop-color:#FFFFFF"/>
				<stop  offset="0.2824" style="stop-color:#FFFFFF;stop-opacity:0.7216"/>
				<stop  offset="0.4157" style="stop-color:#FFFFFF;stop-opacity:0.6"/>
				<stop  offset="0.5882" style="stop-color:#FEFEFE;stop-opacity:0.3333"/>
				<stop  offset="0.8157" style="stop-color:#FCFCFC;stop-opacity:0.0863"/>
				<stop  offset="1" style="stop-color:#F9F9F9;stop-opacity:0"/>
			</radialGradient>
			<path fill-rule="evenodd" clip-rule="evenodd" fill="url(#SVGID_14_)" d="M8.76,6.56c0.6-0.6,1.32-0.95,2.16-1.04
				c0.84,0,1.56,0.3,2.16,0.91c0.6,0.56,0.91,1.25,0.91,2.09c0,0.88-0.3,1.63-0.91,2.23c-0.6,0.6-1.32,0.93-2.16,0.98
				c-0.84-0.05-1.56-0.35-2.16-0.91c-0.6-0.6-0.91-1.3-0.91-2.09C7.86,7.89,8.16,7.17,8.76,6.56z"/>
		</g>
		<g>
			
				<radialGradient id="SVGID_15_" cx="-86.8496" cy="-59.7002" r="1.2107" gradientTransform="matrix(0.996 0.9747 -0.9962 1.0179 133.0719 245.4285)" gradientUnits="userSpaceOnUse">
				<stop  offset="0" style="stop-color:#FFFFFF"/>
				<stop  offset="0.1922" style="stop-color:#FFFFFF"/>
				<stop  offset="0.2824" style="stop-color:#FFFFFF;stop-opacity:0.7216"/>
				<stop  offset="0.4157" style="stop-color:#FFFFFF;stop-opacity:0.6"/>
				<stop  offset="0.5882" style="stop-color:#FEFEFE;stop-opacity:0.3333"/>
				<stop  offset="0.8157" style="stop-color:#FCFCFC;stop-opacity:0.0863"/>
				<stop  offset="1" style="stop-color:#F9F9F9;stop-opacity:0"/>
			</radialGradient>
			<path fill-rule="evenodd" clip-rule="evenodd" fill="url(#SVGID_15_)" d="M104.85,98.82c0.33-0.33,0.72-0.49,1.18-0.49
				c0.46,0,0.86,0.16,1.18,0.49c0.33,0.32,0.49,0.72,0.49,1.18c0,0.42-0.16,0.79-0.49,1.12c-0.33,0.33-0.72,0.51-1.18,0.56
				c-0.46,0-0.86-0.16-1.18-0.49c-0.32-0.33-0.49-0.72-0.49-1.18C104.37,99.54,104.53,99.14,104.85,98.82z"/>
		</g>
		<g>
			<path fill-rule="evenodd" clip-rule="evenodd" fill-opacity="0.2392" d="M89.39,88.72c-0.74-0.79-1.12-1.74-1.12-2.86
				c0-1.11,0.37-2.07,1.12-2.86c0.79-0.74,1.74-1.12,2.86-1.12c1.11,0,2.07,0.37,2.86,1.12c0.79,0.79,1.18,1.74,1.18,2.86
				c0,1.12-0.39,2.07-1.18,2.86c-0.79,0.79-1.74,1.18-2.86,1.18C91.13,89.9,90.17,89.51,89.39,88.72z"/>
		</g>
		<g>
			
				<linearGradient id="SVGID_16_" gradientUnits="userSpaceOnUse" x1="-100.0874" y1="-70.1748" x2="-94.4124" y2="-70.1748" gradientTransform="matrix(1.3936 0 0 1.3936 227.0747 183.2028)">
				<stop  offset="0" style="stop-color:#444444"/>
				<stop  offset="1" style="stop-color:#000000"/>
			</linearGradient>
			<path fill-rule="evenodd" clip-rule="evenodd" fill="url(#SVGID_16_)" d="M88.76,88.23c-0.74-0.79-1.11-1.74-1.11-2.86
				c0-1.11,0.37-2.07,1.11-2.86c0.79-0.74,1.74-1.11,2.86-1.11c1.12,0,2.07,0.37,2.86,1.11c0.79,0.79,1.19,1.74,1.19,2.86
				c0,1.12-0.4,2.07-1.19,2.86c-0.79,0.79-1.74,1.19-2.86,1.19C90.5,89.41,89.55,89.02,88.76,88.23z"/>
		</g>
		<g>
			
				<radialGradient id="SVGID_17_" cx="-98.3496" cy="-71.2998" r="1.5502" gradientTransform="matrix(0.8114 -1.133 0.9228 0.6609 235.6119 19.5271)" gradientUnits="userSpaceOnUse">
				<stop  offset="0" style="stop-color:#FFFFFF"/>
				<stop  offset="0.1922" style="stop-color:#FFFFFF"/>
				<stop  offset="0.2824" style="stop-color:#FFFFFF;stop-opacity:0.7216"/>
				<stop  offset="0.4157" style="stop-color:#FFFFFF;stop-opacity:0.6"/>
				<stop  offset="0.5882" style="stop-color:#FEFEFE;stop-opacity:0.3333"/>
				<stop  offset="0.8157" style="stop-color:#FCFCFC;stop-opacity:0.0863"/>
				<stop  offset="1" style="stop-color:#F9F9F9;stop-opacity:0"/>
			</radialGradient>
			<path fill-rule="evenodd" clip-rule="evenodd" fill="url(#SVGID_17_)" d="M88.76,85.58c-0.37-0.28-0.56-0.67-0.56-1.19
				c-0.05-0.56,0.09-1.07,0.42-1.53c0.33-0.46,0.74-0.77,1.25-0.91c0.51-0.19,0.95-0.14,1.32,0.14c0.37,0.28,0.58,0.7,0.63,1.25
				c0.05,0.51-0.09,1-0.42,1.46c-0.33,0.46-0.74,0.79-1.25,0.98C89.59,85.93,89.13,85.86,88.76,85.58z"/>
		</g>
	</g>
</g>
<g>
	<g>
		
			<linearGradient id="SVGID_18_" gradientUnits="userSpaceOnUse" x1="-157.5" y1="-125.4507" x2="-85.7002" y2="-125.4507" gradientTransform="matrix(1.3936 0 0 1.3936 369.5747 182.4528)">
			<stop  offset="0" style="stop-color:#848484"/>
			<stop  offset="1" style="stop-color:#999999"/>
		</linearGradient>
		<polygon fill-rule="evenodd" clip-rule="evenodd" fill="url(#SVGID_18_)" points="243.24,10.76 156.84,10.76 150.08,4.49 
			250.14,4.49 		"/>
		<path fill-rule="evenodd" clip-rule="evenodd" fill="#BEBEBE" d="M250.14,4.49v64.73h-0.35l-5.47-2.86l-1.15,0.07v-2.65h0.07
			V10.76L250.14,4.49z M156.84,10.76v83.27l-6.76,6.76V4.49L156.84,10.76z"/>
		<polygon fill-rule="evenodd" clip-rule="evenodd" fill="#DDDDDD" points="249.79,69.22 234.32,69.22 235.68,66.64 235.79,66.43 
			243.17,66.43 244.32,66.37 		"/>
		<polygon fill-rule="evenodd" clip-rule="evenodd" fill="#C4C4C4" points="233.66,69.22 235.68,66.64 234.32,69.22 		"/>
		<path fill-rule="evenodd" clip-rule="evenodd" fill="#F2F2F2" d="M217.57,80.3l-0.04-6.9c0.05-2.14,0.81-3.46,2.3-3.97
			c0.33-0.09,0.7-0.16,1.12-0.21h12.72h0.66h15.47l0.35,0.28v0.7h-29.06c-0.42,0.05-0.79,0.12-1.12,0.21
			c-1.49,0.51-2.25,1.83-2.3,3.97L217.57,80.3z"/>
		
			<linearGradient id="SVGID_19_" gradientUnits="userSpaceOnUse" x1="-107.0176" y1="-81.6592" x2="-87.5405" y2="-57.0358" gradientTransform="matrix(1.3936 0 0 1.3936 369.5747 182.4528)">
			<stop  offset="0" style="stop-color:#E6E6E6"/>
			<stop  offset="1" style="stop-color:#C3C3C3"/>
		</linearGradient>
		<path fill-rule="evenodd" clip-rule="evenodd" fill="url(#SVGID_19_)" d="M217.53,86.71v-1.15l0.04-5.26l0.1-5.92
			c0.05-2.14,0.81-3.46,2.3-3.97c0.33-0.09,0.7-0.16,1.12-0.21h29.06V101h-32.61V86.71z"/>
		<polygon fill-rule="evenodd" clip-rule="evenodd" fill="#F0F0F0" points="217.53,85.56 217.53,86.71 215.34,84.52 		"/>
		<polygon fill-rule="evenodd" clip-rule="evenodd" fill="#C7C7C7" points="215.34,84.52 217.53,86.71 217.53,101 217.25,101 
			215.2,94.45 215.23,94.03 215.23,84.41 		"/>
		<polygon fill-rule="evenodd" clip-rule="evenodd" fill="#CFCFCF" points="150.08,100.79 156.84,94.03 215.23,94.03 215.2,94.45 
			217.25,101 150.08,101 		"/>
	</g>
	<g>
		<g>
			<path fill-rule="evenodd" clip-rule="evenodd" fill="#FFFFFF" fill-opacity="0.2118" d="M248.12,7.35v6.45
				c-11.76,1.28-28.46,4.52-50.1,9.72c-26.57,4.88-41.55,15.05-44.94,30.52V7.35H248.12z"/>
		</g>
		<g>
			
				<radialGradient id="SVGID_20_" cx="-90.9502" cy="-99.3999" r="6.9815" gradientTransform="matrix(1.3051 0.4888 -1.1233 2.999 249.8611 386.4909)" gradientUnits="userSpaceOnUse">
				<stop  offset="0" style="stop-color:#FFFFFF"/>
				<stop  offset="0.1922" style="stop-color:#FFFFFF"/>
				<stop  offset="0.2824" style="stop-color:#FFFFFF;stop-opacity:0.7255"/>
				<stop  offset="0.4157" style="stop-color:#FFFFFF;stop-opacity:0.6"/>
				<stop  offset="0.5882" style="stop-color:#FEFEFE;stop-opacity:0.3373"/>
				<stop  offset="0.8157" style="stop-color:#FCFCFC;stop-opacity:0.0863"/>
				<stop  offset="1" style="stop-color:#F9F9F9;stop-opacity:0"/>
			</radialGradient>
			<path fill-rule="evenodd" clip-rule="evenodd" fill="url(#SVGID_20_)" d="M254.53,31.73c0.23,4.69-0.72,9.87-2.86,15.54
				c-2.14,5.67-4.81,10.2-8.01,13.59c-3.21,3.11-6.04,4.2-8.5,3.28c-2.42-0.93-3.79-3.6-4.11-8.01c-0.23-4.69,0.72-9.87,2.86-15.54
				c2.14-5.67,4.81-10.2,8.01-13.59c3.3-3.39,6.16-4.62,8.57-3.69C252.95,24.23,254.3,27.04,254.53,31.73z"/>
		</g>
		<g>
			
				<radialGradient id="SVGID_21_" cx="-88.0024" cy="-98.3999" r="2.8875" gradientTransform="matrix(-1.3936 0 6.032969e-003 -14.2318 31.516 -1341.4274)" gradientUnits="userSpaceOnUse">
				<stop  offset="0" style="stop-color:#FFFFFF"/>
				<stop  offset="0.1922" style="stop-color:#FFFFFF"/>
				<stop  offset="0.2824" style="stop-color:#FFFFFF;stop-opacity:0.7255"/>
				<stop  offset="0.4157" style="stop-color:#FFFFFF;stop-opacity:0.6"/>
				<stop  offset="0.5882" style="stop-color:#FEFEFE;stop-opacity:0.3373"/>
				<stop  offset="0.8157" style="stop-color:#FCFCFC;stop-opacity:0.0863"/>
				<stop  offset="1" style="stop-color:#F9F9F9;stop-opacity:0"/>
			</radialGradient>
			<path fill-rule="evenodd" clip-rule="evenodd" fill="url(#SVGID_21_)" d="M153.56,19.26c1.07,0,2,3.72,2.79,11.15
				c0.74,7.94,1.11,17.47,1.11,28.57s-0.37,20.63-1.11,28.57c-0.79,7.94-1.72,11.92-2.79,11.92s-2-3.97-2.79-11.92
				c-0.74-7.94-1.11-17.47-1.11-28.57s0.37-20.63,1.11-28.57C151.57,22.98,152.5,19.26,153.56,19.26z"/>
		</g>
		<g>
			
				<radialGradient id="SVGID_22_" cx="-155.1006" cy="-125.25" r="2.219" gradientTransform="matrix(0.997 0.9737 -0.997 1.0208 183.1861 286.7876)" gradientUnits="userSpaceOnUse">
				<stop  offset="0" style="stop-color:#FFFFFF"/>
				<stop  offset="0.1922" style="stop-color:#FFFFFF"/>
				<stop  offset="0.2824" style="stop-color:#FFFFFF;stop-opacity:0.7255"/>
				<stop  offset="0.4157" style="stop-color:#FFFFFF;stop-opacity:0.6"/>
				<stop  offset="0.5882" style="stop-color:#FEFEFE;stop-opacity:0.3373"/>
				<stop  offset="0.8157" style="stop-color:#FCFCFC;stop-opacity:0.0863"/>
				<stop  offset="1" style="stop-color:#F9F9F9;stop-opacity:0"/>
			</radialGradient>
			<path fill-rule="evenodd" clip-rule="evenodd" fill="url(#SVGID_22_)" d="M150.36,7.97c0-0.84,0.3-1.56,0.91-2.16
				c0.6-0.6,1.32-0.95,2.16-1.04c0.84,0,1.56,0.3,2.16,0.91c0.6,0.56,0.91,1.25,0.91,2.09c0,0.88-0.3,1.63-0.91,2.23
				c-0.6,0.6-1.32,0.93-2.16,0.98c-0.84-0.05-1.56-0.35-2.16-0.91C150.66,9.46,150.36,8.76,150.36,7.97z"/>
		</g>
		<g>
			
				<radialGradient id="SVGID_23_" cx="-86.8496" cy="-59.7002" r="1.2107" gradientTransform="matrix(0.996 0.9747 -0.9962 1.0179 275.5718 244.6785)" gradientUnits="userSpaceOnUse">
				<stop  offset="0" style="stop-color:#FFFFFF"/>
				<stop  offset="0.1922" style="stop-color:#FFFFFF"/>
				<stop  offset="0.2824" style="stop-color:#FFFFFF;stop-opacity:0.7255"/>
				<stop  offset="0.4157" style="stop-color:#FFFFFF;stop-opacity:0.6"/>
				<stop  offset="0.5882" style="stop-color:#FEFEFE;stop-opacity:0.3373"/>
				<stop  offset="0.8157" style="stop-color:#FCFCFC;stop-opacity:0.0863"/>
				<stop  offset="1" style="stop-color:#F9F9F9;stop-opacity:0"/>
			</radialGradient>
			<path fill-rule="evenodd" clip-rule="evenodd" fill="url(#SVGID_23_)" d="M246.87,99.25c0-0.46,0.16-0.86,0.49-1.18
				c0.33-0.33,0.72-0.49,1.19-0.49s0.86,0.16,1.18,0.49c0.33,0.32,0.49,0.72,0.49,1.18c0,0.42-0.16,0.79-0.49,1.12
				s-0.72,0.51-1.18,0.56c-0.46,0-0.86-0.16-1.19-0.49C247.03,100.11,246.87,99.72,246.87,99.25z"/>
		</g>
		<g>
			<path fill-rule="evenodd" clip-rule="evenodd" fill-opacity="0.2392" d="M234.74,89.15c-1.12,0-2.07-0.39-2.86-1.18
				c-0.74-0.79-1.12-1.74-1.12-2.86c0-1.11,0.37-2.07,1.12-2.86c0.79-0.74,1.74-1.12,2.86-1.12c1.11,0,2.07,0.37,2.86,1.12
				c0.79,0.79,1.18,1.74,1.18,2.86c0,1.12-0.39,2.07-1.18,2.86C236.81,88.76,235.86,89.15,234.74,89.15z"/>
		</g>
		<g>
			
				<linearGradient id="SVGID_24_" gradientUnits="userSpaceOnUse" x1="-100.0874" y1="-70.1748" x2="-94.4124" y2="-70.1748" gradientTransform="matrix(1.3936 0 0 1.3936 369.5747 182.4528)">
				<stop  offset="0" style="stop-color:#444444"/>
				<stop  offset="1" style="stop-color:#000000"/>
			</linearGradient>
			<path fill-rule="evenodd" clip-rule="evenodd" fill="url(#SVGID_24_)" d="M234.11,88.66c-1.11,0-2.07-0.4-2.86-1.19
				c-0.74-0.79-1.11-1.74-1.11-2.86c0-1.11,0.37-2.07,1.11-2.86c0.79-0.74,1.74-1.11,2.86-1.11c1.12,0,2.07,0.37,2.86,1.11
				c0.79,0.79,1.18,1.74,1.18,2.86c0,1.12-0.39,2.07-1.18,2.86C236.18,88.27,235.23,88.66,234.11,88.66z"/>
		</g>
		<g>
			
				<radialGradient id="SVGID_25_" cx="-98.3501" cy="-71.2998" r="1.5505" gradientTransform="matrix(0.8114 -1.133 0.9228 0.6609 378.1116 18.7766)" gradientUnits="userSpaceOnUse">
				<stop  offset="0" style="stop-color:#FFFFFF"/>
				<stop  offset="0.1922" style="stop-color:#FFFFFF"/>
				<stop  offset="0.2824" style="stop-color:#FFFFFF;stop-opacity:0.7255"/>
				<stop  offset="0.4157" style="stop-color:#FFFFFF;stop-opacity:0.6"/>
				<stop  offset="0.5882" style="stop-color:#FEFEFE;stop-opacity:0.3373"/>
				<stop  offset="0.8157" style="stop-color:#FCFCFC;stop-opacity:0.0863"/>
				<stop  offset="1" style="stop-color:#F9F9F9;stop-opacity:0"/>
			</radialGradient>
			<path fill-rule="evenodd" clip-rule="evenodd" fill="url(#SVGID_25_)" d="M232.65,85.04c-0.56,0.14-1.02,0.07-1.39-0.21
				c-0.37-0.28-0.56-0.67-0.56-1.19c-0.05-0.56,0.09-1.07,0.42-1.53s0.74-0.77,1.25-0.91c0.51-0.19,0.95-0.14,1.32,0.14
				c0.37,0.28,0.58,0.7,0.63,1.25c0.05,0.51-0.09,1-0.42,1.46C233.58,84.53,233.16,84.85,232.65,85.04z"/>
		</g>
	</g>
</g>
</svg>
