<?xml version="1.0" encoding="utf-8"?>
<!-- Generator: Adobe Illustrator 16.0.0, SVG Export Plug-In . SVG Version: 6.00 Build 0)  -->
<!DOCTYPE svg PUBLIC "-//W3C//DTD SVG 1.1//EN" "http://www.w3.org/Graphics/SVG/1.1/DTD/svg11.dtd">
<svg version="1.1" id="Layer_1" xmlns="http://www.w3.org/2000/svg" xmlns:xlink="http://www.w3.org/1999/xlink" x="0px" y="0px"
	 width="39.75px" height="38.95px" viewBox="0 0 39.75 38.95" enable-background="new 0 0 39.75 38.95" xml:space="preserve">
<symbol  id="glace" viewBox="-7.1 -2.5 14.15 5.05">
	<g id="Layer_1_2_">
		<g>
			
				<radialGradient id="SVGID_1_" cx="0" cy="0" r="7.25" gradientTransform="matrix(1 0 0 0.3569 0 4.882813e-004)" gradientUnits="userSpaceOnUse">
				<stop  offset="0" style="stop-color:#FFFFFF"/>
				<stop  offset="0.1922" style="stop-color:#FFFFFF"/>
				<stop  offset="0.2824" style="stop-color:#FFFFFF;stop-opacity:0.7333"/>
				<stop  offset="0.4157" style="stop-color:#FFFFFF;stop-opacity:0.6"/>
				<stop  offset="0.5882" style="stop-color:#FEFEFE;stop-opacity:0.3451"/>
				<stop  offset="0.8157" style="stop-color:#FCFCFC;stop-opacity:0.0863"/>
				<stop  offset="1" style="stop-color:#F9F9F9;stop-opacity:0"/>
			</radialGradient>
			<path fill-rule="evenodd" clip-rule="evenodd" fill="url(#SVGID_1_)" d="M-0.05,2.55C1.92,2.55,3.6,2.3,5,1.8
				C6.37,1.3,7.05,0.7,7.05,0S6.37-1.3,5-1.8C3.6-2.27,1.92-2.5-0.05-2.5c-1.93,0-3.6,0.23-5,0.7C-6.42-1.3-7.1-0.7-7.1,0
				s0.68,1.3,2.05,1.8C-3.65,2.3-1.98,2.55-0.05,2.55z"/>
		</g>
	</g>
</symbol>
<g>
	<g>
		<g>
			<linearGradient id="SVGID_2_" gradientUnits="userSpaceOnUse" x1="10.8862" y1="12.6665" x2="3.9604" y2="9.6683">
				<stop  offset="0" style="stop-color:#101013"/>
				<stop  offset="1" style="stop-color:#565447"/>
			</linearGradient>
			<path fill-rule="evenodd" clip-rule="evenodd" fill="url(#SVGID_2_)" d="M4.15,17.35C3.42,14.28,3.87,11.37,5.5,8.6
				c1.67-2.77,4.08-4.53,7.25-5.3c3.07-0.73,5.97-0.27,8.7,1.4c2.73,1.67,4.47,4.03,5.2,7.1c0.77,3.13,0.33,6.08-1.3,8.85
				c-1.67,2.8-4.03,4.57-7.1,5.3c-3.17,0.77-6.12,0.3-8.85-1.4S4.92,20.45,4.15,17.35z"/>
		</g>
	</g>
	<g>
		<g>
			<radialGradient id="SVGID_3_" cx="12.3999" cy="16.8501" r="21.0194" gradientUnits="userSpaceOnUse">
				<stop  offset="0" style="stop-color:#050505"/>
				<stop  offset="1" style="stop-color:#000000;stop-opacity:0"/>
			</radialGradient>
			<polygon fill-rule="evenodd" clip-rule="evenodd" fill="url(#SVGID_3_)" points="34.8,12.6 34.8,38.7 26.05,38.95 5.4,18.35 
				18.8,5.75 			"/>
		</g>
		<g>
			<g>
				<path fill-rule="evenodd" clip-rule="evenodd" d="M8.55,14.75c0-2.37,0.87-4.38,2.6-6.05c1.67-1.73,3.68-2.6,6.05-2.6
					c2.4,0,4.45,0.87,6.15,2.6c1.67,1.67,2.5,3.68,2.5,6.05c0,2.4-0.83,4.45-2.5,6.15c-1.7,1.67-3.75,2.5-6.15,2.5
					c-2.37,0-4.38-0.83-6.05-2.5C9.42,19.2,8.55,17.15,8.55,14.75z"/>
			</g>
			<g>
				<g>
					<linearGradient id="SVGID_4_" gradientUnits="userSpaceOnUse" x1="10.3813" y1="10.7764" x2="11.7396" y2="9.1833">
						<stop  offset="0" style="stop-color:#000000"/>
						<stop  offset="0.8392" style="stop-color:#534A36"/>
						<stop  offset="1" style="stop-color:#3E3728"/>
					</linearGradient>
					<path fill-rule="evenodd" clip-rule="evenodd" fill="url(#SVGID_4_)" d="M11.4,9.1l0.1,0.05c0.03,0.07,0.1,0.12,0.2,0.15
						c0.13,0.2,0.2,0.43,0.2,0.7c0,0.07,0,0.12,0,0.15c0,0.1-0.02,0.2-0.05,0.3c-0.07,0.03-0.12,0.1-0.15,0.2h-0.1
						c-0.03,0.1-0.1,0.17-0.2,0.2c-0.13,0.03-0.27,0.05-0.4,0.05c-0.23,0-0.45-0.08-0.65-0.25c0-0.07-0.02-0.1-0.05-0.1L9.9,10.2
						c0.03,0,0.12,0,0.25,0c0.23,0,0.45-0.08,0.65-0.25c0.17-0.2,0.25-0.42,0.25-0.65c0-0.13,0-0.22,0-0.25
						C11.02,8.98,11,8.93,11,8.9V8.85l-0.1-0.1L11.4,9.1z"/>
					<path fill-rule="evenodd" clip-rule="evenodd" fill="#333333" d="M11.9,7.85L12.05,8l0.25,0.15l0.1,0.05
						c-0.3,0.23-0.58,0.48-0.85,0.75c-0.03,0.07-0.08,0.12-0.15,0.15l-0.5-0.35c0.07-0.03,0.12-0.08,0.15-0.15
						C11.35,8.33,11.63,8.08,11.9,7.85z M10.3,10.55c-0.23,0.37-0.42,0.77-0.55,1.2c-0.07,0.1-0.12,0.17-0.15,0.2l-0.5-0.4l0.1-0.1
						c0.17-0.43,0.37-0.87,0.6-1.3v0.05h0.1L10.3,10.55z M8.7,13.3l0.55,0.45c-0.03,0.3-0.05,0.62-0.05,0.95v0.05
						c0,0.13,0,0.25,0,0.35l-0.65-0.4c0-0.07,0-0.12,0-0.15C8.55,14.12,8.6,13.7,8.7,13.3z M8.7,16.4l0.75,0.5
						c0.07,0.2,0.12,0.38,0.15,0.55c0.03,0.2,0.1,0.37,0.2,0.5H9.75l-0.7-0.5c-0.07-0.03-0.1-0.07-0.1-0.1
						C8.88,17.05,8.8,16.73,8.7,16.4z M9.65,18.85l1.05,0.7c0.13,0.2,0.3,0.38,0.5,0.55c0.1,0.13,0.22,0.28,0.35,0.45l-1.4-0.9
						C9.98,19.42,9.82,19.15,9.65,18.85z M23.25,9.1L22.5,8c0.13,0.13,0.27,0.27,0.4,0.4c0.1,0.07,0.17,0.13,0.2,0.2
						c0.1,0.1,0.2,0.2,0.3,0.3L24,10c-0.17-0.27-0.37-0.55-0.6-0.85C23.37,9.15,23.32,9.13,23.25,9.1z M21.15,7.15L22,8
						c-0.2-0.13-0.38-0.25-0.55-0.35c-0.23-0.13-0.47-0.25-0.7-0.35l-0.7-0.65C20.42,6.78,20.78,6.95,21.15,7.15z M17.4,6.55
						L16.85,6.2c0.1,0,0.17,0,0.2,0c0.5,0,0.98,0.02,1.45,0.05l0.6,0.5c-0.2-0.07-0.4-0.1-0.6-0.1C18.13,6.58,17.77,6.55,17.4,6.55z
						 M14.05,7.2l-0.5-0.35h0.1c0.4-0.17,0.83-0.32,1.3-0.45c0.07,0,0.12,0,0.15,0c0.03,0.03,0.1,0.08,0.2,0.15l0.3,0.2
						c-0.07,0-0.12,0-0.15,0C15.42,6.78,15.37,6.8,15.3,6.8h-0.05C14.82,6.93,14.42,7.07,14.05,7.2z"/>
					
						<radialGradient id="SVGID_5_" cx="14.3501" cy="18.9502" r="9.0716" gradientTransform="matrix(0.8664 0.4994 -0.7859 1.3633 16.8097 -14.0512)" gradientUnits="userSpaceOnUse">
						<stop  offset="0" style="stop-color:#574F42"/>
						<stop  offset="1" style="stop-color:#1E1E1E"/>
					</radialGradient>
					<path fill-rule="evenodd" clip-rule="evenodd" fill="url(#SVGID_5_)" d="M12.4,8.2c0.03,0.03,0.1,0.05,0.2,0.05
						c0.03,0.17,0.08,0.27,0.15,0.3c0.17,0.2,0.37,0.3,0.6,0.3h0.1c0.07,0,0.18-0.03,0.35-0.1c0.03-0.03,0.07-0.08,0.1-0.15
						c0.07,0,0.12-0.02,0.15-0.05c0.07-0.03,0.12-0.08,0.15-0.15c0.1-0.13,0.15-0.3,0.15-0.5c0-0.27-0.1-0.5-0.3-0.7
						c0.37-0.13,0.77-0.27,1.2-0.4h0.05c0.07,0,0.12-0.02,0.15-0.05c0.03,0,0.08,0,0.15,0c0,0.03,0,0.07,0,0.1c0,0.1,0,0.18,0,0.25
						c0.03,0.03,0.08,0.1,0.15,0.2c0,0.1,0.03,0.17,0.1,0.2c0.1,0.13,0.22,0.23,0.35,0.3c0.1,0,0.2,0,0.3,0c0.2,0,0.37-0.03,0.5-0.1
						c0.03-0.03,0.1-0.1,0.2-0.2c0.17-0.13,0.25-0.35,0.25-0.65c0-0.07-0.02-0.17-0.05-0.3c0.37,0,0.73,0.03,1.1,0.1
						c0.2,0,0.4,0.03,0.6,0.1c-0.17,0.13-0.25,0.28-0.25,0.45c0,0.2,0.05,0.35,0.15,0.45c0.07,0.1,0.12,0.18,0.15,0.25
						c0.03,0,0.08,0.03,0.15,0.1c0.13,0.13,0.32,0.2,0.55,0.2s0.43-0.1,0.6-0.3c0.2-0.17,0.3-0.37,0.3-0.6
						c0.23,0.1,0.47,0.22,0.7,0.35C21.62,7.75,21.8,7.87,22,8c-0.1,0-0.17,0.05-0.2,0.15c-0.1,0.03-0.17,0.1-0.2,0.2
						c-0.07,0.13-0.1,0.27-0.1,0.4s0.03,0.27,0.1,0.4c0.03,0.07,0.07,0.12,0.1,0.15c0.1,0.1,0.2,0.17,0.3,0.2
						c0.1,0.1,0.23,0.15,0.4,0.15c0.2,0,0.37-0.02,0.5-0.05c0.07-0.07,0.13-0.13,0.2-0.2c0.1-0.1,0.15-0.2,0.15-0.3
						c0.07,0.03,0.12,0.05,0.15,0.05c0.23,0.3,0.43,0.58,0.6,0.85c0.07,0.1,0.15,0.17,0.25,0.2c0,0.1,0.02,0.18,0.05,0.25
						c-0.03,0-0.08,0.02-0.15,0.05c-0.1,0-0.22,0.05-0.35,0.15l-0.05,0.05c-0.13,0.13-0.2,0.32-0.2,0.55v0.1c0,0.07,0,0.13,0,0.2
						c0,0.03,0,0.08,0,0.15c0.03,0,0.05,0.02,0.05,0.05v0.05c0.03,0,0.05,0.03,0.05,0.1l0.1,0.05c0.17,0.2,0.4,0.3,0.7,0.3
						c0.23,0,0.43-0.1,0.6-0.3c0.17,0.47,0.28,0.93,0.35,1.4c0.07,0.03,0.1,0.1,0.1,0.2c-0.1-0.03-0.2-0.05-0.3-0.05
						c-0.23,0-0.43,0.08-0.6,0.25c-0.07,0.07-0.12,0.15-0.15,0.25c-0.1,0.13-0.15,0.27-0.15,0.4c0,0.2,0.05,0.33,0.15,0.4
						c0,0.1,0.05,0.2,0.15,0.3c0.17,0.2,0.37,0.3,0.6,0.3c0.13,0,0.25-0.03,0.35-0.1c-0.03,0.43-0.1,0.85-0.2,1.25H25.3
						c-0.07-0.03-0.15-0.08-0.25-0.15c-0.03,0-0.1,0-0.2,0c-0.23,0-0.43,0.1-0.6,0.3c-0.17,0.13-0.27,0.27-0.3,0.4
						c0,0.1,0,0.18,0,0.25c0,0.13,0.02,0.27,0.05,0.4c0.07,0.1,0.15,0.18,0.25,0.25c0.13,0.17,0.32,0.27,0.55,0.3
						c-0.2,0.37-0.43,0.72-0.7,1.05L24,19.3c-0.03-0.1-0.1-0.15-0.2-0.15c-0.13-0.1-0.27-0.15-0.4-0.15c-0.1,0-0.2,0.02-0.3,0.05
						c-0.13,0-0.25,0.08-0.35,0.25c-0.17,0.17-0.25,0.37-0.25,0.6c0,0.13,0.02,0.27,0.05,0.4c0,0.07,0.03,0.1,0.1,0.1
						c0,0.03,0.03,0.1,0.1,0.2c0.07,0.03,0.15,0.08,0.25,0.15c-0.33,0.27-0.68,0.52-1.05,0.75c0-0.13-0.08-0.25-0.25-0.35
						c-0.07-0.1-0.13-0.17-0.2-0.2c-0.13-0.03-0.27-0.05-0.4-0.05c-0.1,0-0.2,0-0.3,0c-0.07,0.07-0.15,0.13-0.25,0.2h-0.1
						l-0.05,0.05c-0.2,0.2-0.3,0.42-0.3,0.65c0,0.13,0.05,0.27,0.15,0.4c0.07,0.03,0.12,0.1,0.15,0.2c-0.37,0.13-0.73,0.23-1.1,0.3
						c0-0.3-0.1-0.53-0.3-0.7c-0.03-0.03-0.1-0.08-0.2-0.15c-0.1-0.03-0.22-0.05-0.35-0.05c0-0.07-0.02-0.1-0.05-0.1
						c-0.17,0-0.28,0.05-0.35,0.15c-0.1,0-0.2,0.05-0.3,0.15c-0.03,0.03-0.08,0.08-0.15,0.15c-0.1,0.13-0.15,0.32-0.15,0.55
						c0,0.1,0,0.17,0,0.2c-0.03,0-0.07,0-0.1,0c-0.37,0-0.75-0.02-1.15-0.05c0-0.1,0-0.2,0-0.3c0-0.23-0.08-0.43-0.25-0.6
						c-0.07-0.1-0.13-0.18-0.2-0.25c-0.17-0.03-0.32-0.05-0.45-0.05c-0.27,0-0.5,0.1-0.7,0.3c0,0.03-0.02,0.07-0.05,0.1
						c-0.03,0-0.05,0.03-0.05,0.1c-0.07,0.07-0.1,0.15-0.1,0.25c-0.03,0-0.05-0.02-0.05-0.05h-0.1c-0.07-0.07-0.15-0.12-0.25-0.15
						c-0.3-0.1-0.58-0.23-0.85-0.4c-0.03-0.07-0.08-0.1-0.15-0.1c0.1-0.07,0.17-0.18,0.2-0.35c0.07-0.07,0.1-0.18,0.1-0.35
						c0-0.23-0.1-0.43-0.3-0.6c-0.03-0.07-0.08-0.1-0.15-0.1l-0.05-0.05c-0.13-0.1-0.27-0.15-0.4-0.15c-0.3,0-0.53,0.1-0.7,0.3
						c0,0.03-0.03,0.08-0.1,0.15h-0.05c-0.13-0.17-0.25-0.32-0.35-0.45c-0.2-0.17-0.37-0.35-0.5-0.55c0.1-0.03,0.2-0.08,0.3-0.15
						c0.13-0.17,0.2-0.4,0.2-0.7c0-0.23-0.07-0.43-0.2-0.6c-0.1-0.1-0.2-0.15-0.3-0.15c-0.1-0.1-0.23-0.15-0.4-0.15
						c-0.2,0-0.37,0.05-0.5,0.15c-0.1-0.13-0.17-0.3-0.2-0.5c-0.03-0.17-0.08-0.35-0.15-0.55c0.23,0,0.45-0.08,0.65-0.25
						c0.13-0.17,0.22-0.33,0.25-0.5c0-0.07,0-0.12,0-0.15c0-0.1-0.02-0.2-0.05-0.3c0-0.03,0-0.07,0-0.1c-0.1-0.1-0.17-0.17-0.2-0.2
						c-0.07-0.1-0.13-0.18-0.2-0.25c-0.17-0.03-0.32-0.05-0.45-0.05c-0.1,0-0.18,0-0.25,0c0-0.1,0-0.22,0-0.35V14.7
						c0-0.33,0.02-0.65,0.05-0.95c0.1,0.07,0.2,0.1,0.3,0.1c0.27,0,0.5-0.1,0.7-0.3c0.03-0.03,0.07-0.08,0.1-0.15
						c0.1-0.13,0.15-0.28,0.15-0.45c0-0.07,0-0.12,0-0.15c-0.03-0.23-0.12-0.42-0.25-0.55c-0.1-0.07-0.18-0.12-0.25-0.15
						c-0.13-0.03-0.27-0.08-0.4-0.15c0.03-0.03,0.08-0.1,0.15-0.2c0.13-0.43,0.32-0.83,0.55-1.2c0.03,0,0.05,0.03,0.05,0.1
						c0.2,0.17,0.42,0.25,0.65,0.25c0.13,0,0.27-0.02,0.4-0.05c0.1-0.03,0.17-0.1,0.2-0.2h0.1c0.03-0.1,0.08-0.17,0.15-0.2
						c0.03-0.1,0.05-0.2,0.05-0.3c0-0.03,0-0.08,0-0.15c0-0.27-0.07-0.5-0.2-0.7c-0.1-0.03-0.17-0.08-0.2-0.15L11.4,9.1
						c0.07-0.03,0.12-0.08,0.15-0.15C11.82,8.68,12.1,8.43,12.4,8.2z M12.75,20.1l-0.1-0.05v0.05H12.75z M18.65,21.65V21.6H18.6
						L18.65,21.65z"/>
					
						<linearGradient id="SVGID_6_" gradientUnits="userSpaceOnUse" x1="-147.0396" y1="-558.2949" x2="-145.2255" y2="-558.2949" gradientTransform="matrix(-0.4961 0.8682 -0.86 -0.5106 -542.9161 -145.1482)">
						<stop  offset="0" style="stop-color:#000000"/>
						<stop  offset="0.8392" style="stop-color:#534A36"/>
						<stop  offset="1" style="stop-color:#3E3728"/>
					</linearGradient>
					<path fill-rule="evenodd" clip-rule="evenodd" fill="url(#SVGID_6_)" d="M9.25,13.75L8.7,13.3h0.05c0.23,0,0.45-0.1,0.65-0.3
						c0.17-0.17,0.25-0.4,0.25-0.7c0-0.1-0.02-0.22-0.05-0.35c0.13,0.07,0.27,0.12,0.4,0.15c0.07,0.03,0.15,0.08,0.25,0.15
						c0.13,0.13,0.22,0.32,0.25,0.55c0,0.03,0,0.08,0,0.15c0,0.17-0.05,0.32-0.15,0.45c-0.03,0.07-0.07,0.12-0.1,0.15
						c-0.2,0.2-0.43,0.3-0.7,0.3C9.45,13.85,9.35,13.82,9.25,13.75z"/>
					<linearGradient id="SVGID_7_" gradientUnits="userSpaceOnUse" x1="9.9922" y1="15.3047" x2="9.1594" y2="16.7251">
						<stop  offset="0" style="stop-color:#000000"/>
						<stop  offset="0.8392" style="stop-color:#534A36"/>
						<stop  offset="1" style="stop-color:#3E3728"/>
					</linearGradient>
					<path fill-rule="evenodd" clip-rule="evenodd" fill="url(#SVGID_7_)" d="M9.45,16.9L8.7,16.4v-0.05c0.1-0.03,0.18-0.1,0.25-0.2
						c0.2-0.2,0.3-0.43,0.3-0.7c0-0.1-0.02-0.2-0.05-0.3V15.1c0.07,0,0.15,0,0.25,0c0.13,0,0.28,0.02,0.45,0.05
						c0.07,0.07,0.13,0.15,0.2,0.25c0.03,0.03,0.1,0.1,0.2,0.2c0,0.03,0,0.07,0,0.1c0.03,0.1,0.05,0.2,0.05,0.3
						c0,0.03,0,0.08,0,0.15c-0.03,0.17-0.12,0.33-0.25,0.5C9.9,16.82,9.68,16.9,9.45,16.9z"/>
					<linearGradient id="SVGID_8_" gradientUnits="userSpaceOnUse" x1="10.8252" y1="17.9604" x2="10.0298" y2="19.3132">
						<stop  offset="0" style="stop-color:#000000"/>
						<stop  offset="0.8392" style="stop-color:#534A36"/>
						<stop  offset="1" style="stop-color:#3E3728"/>
					</linearGradient>
					<path fill-rule="evenodd" clip-rule="evenodd" fill="url(#SVGID_8_)" d="M10.7,19.55l-1.05-0.7c0.1-0.13,0.15-0.32,0.15-0.55
						c0-0.13,0-0.25,0-0.35c0.13-0.1,0.3-0.15,0.5-0.15c0.17,0,0.3,0.05,0.4,0.15c0.1,0,0.2,0.05,0.3,0.15
						c0.13,0.17,0.2,0.37,0.2,0.6c0,0.3-0.07,0.53-0.2,0.7C10.9,19.47,10.8,19.52,10.7,19.55z"/>
					<linearGradient id="SVGID_9_" gradientUnits="userSpaceOnUse" x1="18.6455" y1="7.7202" x2="20.4233" y2="6.3739">
						<stop  offset="0" style="stop-color:#000000"/>
						<stop  offset="0.8392" style="stop-color:#534A36"/>
						<stop  offset="1" style="stop-color:#3E3728"/>
					</linearGradient>
					<path fill-rule="evenodd" clip-rule="evenodd" fill="url(#SVGID_9_)" d="M20.05,6.65l0.7,0.65c0,0.23-0.1,0.43-0.3,0.6
						c-0.17,0.2-0.37,0.3-0.6,0.3S19.43,8.13,19.3,8c-0.07-0.07-0.12-0.1-0.15-0.1C19.12,7.83,19.07,7.75,19,7.65
						c-0.1-0.1-0.15-0.25-0.15-0.45c0-0.17,0.08-0.32,0.25-0.45l-0.6-0.5C19.03,6.35,19.55,6.48,20.05,6.65z"/>
					<linearGradient id="SVGID_10_" gradientUnits="userSpaceOnUse" x1="15.8647" y1="7.6646" x2="17.1647" y2="6.3646">
						<stop  offset="0" style="stop-color:#000000"/>
						<stop  offset="0.8392" style="stop-color:#534A36"/>
						<stop  offset="1" style="stop-color:#3E3728"/>
					</linearGradient>
					<path fill-rule="evenodd" clip-rule="evenodd" fill="url(#SVGID_10_)" d="M16.85,6.2l0.55,0.35c0.03,0.13,0.05,0.23,0.05,0.3
						c0,0.3-0.08,0.52-0.25,0.65c-0.1,0.1-0.17,0.17-0.2,0.2c-0.13,0.07-0.3,0.1-0.5,0.1c-0.1,0-0.2,0-0.3,0
						c-0.13-0.07-0.25-0.17-0.35-0.3c-0.07-0.03-0.1-0.1-0.1-0.2c-0.07-0.1-0.12-0.17-0.15-0.2c0-0.07,0-0.15,0-0.25
						c0-0.03,0-0.07,0-0.1c0.13,0.03,0.25,0.05,0.35,0.05c0.27,0,0.47-0.08,0.6-0.25C16.72,6.45,16.82,6.33,16.85,6.2z"/>
					<linearGradient id="SVGID_11_" gradientUnits="userSpaceOnUse" x1="21.4053" y1="8.9917" x2="22.8991" y2="7.5104">
						<stop  offset="0" style="stop-color:#000000"/>
						<stop  offset="0.8392" style="stop-color:#534A36"/>
						<stop  offset="1" style="stop-color:#3E3728"/>
					</linearGradient>
					<path fill-rule="evenodd" clip-rule="evenodd" fill="url(#SVGID_11_)" d="M22,8l-0.85-0.85C21.62,7.38,22.07,7.67,22.5,8
						l0.75,1.1c0,0.1-0.05,0.2-0.15,0.3c-0.07,0.07-0.13,0.13-0.2,0.2c-0.13,0.03-0.3,0.05-0.5,0.05c-0.17,0-0.3-0.05-0.4-0.15
						c-0.1-0.03-0.2-0.1-0.3-0.2c-0.03-0.03-0.07-0.08-0.1-0.15c-0.07-0.13-0.1-0.27-0.1-0.4s0.03-0.27,0.1-0.4
						c0.03-0.1,0.1-0.17,0.2-0.2C21.83,8.05,21.9,8,22,8z"/>
					<linearGradient id="SVGID_12_" gradientUnits="userSpaceOnUse" x1="12.0313" y1="9.4814" x2="14.4312" y2="7.0814">
						<stop  offset="0" style="stop-color:#000000"/>
						<stop  offset="0.8392" style="stop-color:#534A36"/>
						<stop  offset="1" style="stop-color:#3E3728"/>
					</linearGradient>
					<path fill-rule="evenodd" clip-rule="evenodd" fill="url(#SVGID_12_)" d="M13.55,6.85l0.5,0.35c0.2,0.2,0.3,0.43,0.3,0.7
						c0,0.2-0.05,0.37-0.15,0.5c-0.03,0.07-0.08,0.12-0.15,0.15C14.02,8.58,13.97,8.6,13.9,8.6c-0.03,0.07-0.07,0.12-0.1,0.15
						c-0.17,0.07-0.28,0.1-0.35,0.1h-0.1c-0.23,0-0.43-0.1-0.6-0.3c-0.07-0.03-0.12-0.13-0.15-0.3c-0.1,0-0.17-0.02-0.2-0.05
						l-0.1-0.05c0.17,0.03,0.28,0.05,0.35,0.05c0.3,0,0.53-0.1,0.7-0.3c0.2-0.17,0.3-0.37,0.3-0.6c0-0.13-0.03-0.25-0.1-0.35V6.85z"
						/>
					<polygon fill-rule="evenodd" clip-rule="evenodd" fill="#6D6247" points="12.05,8 11.9,7.85 11.95,7.85 12.05,7.9 					"/>
					<linearGradient id="SVGID_13_" gradientUnits="userSpaceOnUse" x1="23.626" y1="11.8008" x2="24.9767" y2="11.002">
						<stop  offset="0" style="stop-color:#000000"/>
						<stop  offset="0.8392" style="stop-color:#534A36"/>
						<stop  offset="1" style="stop-color:#3E3728"/>
					</linearGradient>
					<path fill-rule="evenodd" clip-rule="evenodd" fill="url(#SVGID_13_)" d="M24.15,10.5L25,11.9l0.05,0.05
						c-0.17,0.2-0.37,0.3-0.6,0.3c-0.3,0-0.53-0.1-0.7-0.3l-0.1-0.05c0-0.07-0.02-0.1-0.05-0.1v-0.05c0-0.03-0.02-0.05-0.05-0.05
						c0-0.07,0-0.12,0-0.15c0-0.07,0-0.13,0-0.2v-0.1c0-0.23,0.07-0.42,0.2-0.55l0.05-0.05C23.93,10.55,24.05,10.5,24.15,10.5z"/>
					
						<linearGradient id="SVGID_14_" gradientUnits="userSpaceOnUse" x1="68.8662" y1="-410.8809" x2="70.0853" y2="-410.8809" gradientTransform="matrix(0.2666 0.9638 -0.9681 0.251 -391.3023 51.3588)">
						<stop  offset="0" style="stop-color:#000000"/>
						<stop  offset="0.8392" style="stop-color:#534A36"/>
						<stop  offset="1" style="stop-color:#3E3728"/>
					</linearGradient>
					<path fill-rule="evenodd" clip-rule="evenodd" fill="url(#SVGID_14_)" d="M24.45,14l1.1,1.3c-0.1,0.07-0.22,0.1-0.35,0.1
						c-0.23,0-0.43-0.1-0.6-0.3c-0.1-0.1-0.15-0.2-0.15-0.3c-0.1-0.07-0.15-0.2-0.15-0.4C24.3,14.27,24.35,14.13,24.45,14z"/>
					<linearGradient id="SVGID_15_" gradientUnits="userSpaceOnUse" x1="24.373" y1="17.9209" x2="24.8888" y2="19.8983">
						<stop  offset="0" style="stop-color:#000000"/>
						<stop  offset="0.8392" style="stop-color:#534A36"/>
						<stop  offset="1" style="stop-color:#3E3728"/>
					</linearGradient>
					<path fill-rule="evenodd" clip-rule="evenodd" fill="url(#SVGID_15_)" d="M23.95,17.1l0.85,1.2c-0.23-0.03-0.42-0.13-0.55-0.3
						c-0.1-0.07-0.18-0.15-0.25-0.25c-0.03-0.13-0.05-0.27-0.05-0.4C23.95,17.28,23.95,17.2,23.95,17.1z"/>
					<linearGradient id="SVGID_16_" gradientUnits="userSpaceOnUse" x1="21.5332" y1="21.5171" x2="22.5332" y2="22.5171">
						<stop  offset="0" style="stop-color:#000000"/>
						<stop  offset="0.8392" style="stop-color:#534A36"/>
						<stop  offset="1" style="stop-color:#3E3728"/>
					</linearGradient>
					<path fill-rule="evenodd" clip-rule="evenodd" fill="url(#SVGID_16_)" d="M21.95,21.5l-1.4-0.4c0.1-0.07,0.18-0.13,0.25-0.2
						c0.1,0,0.2,0,0.3,0c0.13,0,0.27,0.02,0.4,0.05c0.07,0.03,0.13,0.1,0.2,0.2C21.87,21.25,21.95,21.37,21.95,21.5z"/>
					
						<linearGradient id="SVGID_17_" gradientUnits="userSpaceOnUse" x1="75.0732" y1="-401.583" x2="76.7529" y2="-401.583" gradientTransform="matrix(0.253 0.9675 -0.9634 0.2685 -393.3597 56.2094)">
						<stop  offset="0" style="stop-color:#000000"/>
						<stop  offset="0.8392" style="stop-color:#534A36"/>
						<stop  offset="1" style="stop-color:#3E3728"/>
					</linearGradient>
					<path fill-rule="evenodd" clip-rule="evenodd" fill="url(#SVGID_17_)" d="M13,21.7c0-0.07,0-0.18,0-0.35
						c0-0.13-0.02-0.25-0.05-0.35c-0.07-0.07-0.13-0.18-0.2-0.35c-0.07-0.03-0.12-0.05-0.15-0.05c-0.1-0.03-0.17-0.08-0.2-0.15
						c-0.07,0-0.13,0-0.2,0c-0.07-0.03-0.12-0.05-0.15-0.05c-0.13,0-0.28,0.05-0.45,0.15c0.07-0.07,0.1-0.12,0.1-0.15
						c0.17-0.2,0.4-0.3,0.7-0.3c0.13,0,0.27,0.05,0.4,0.15l0.05,0.05c0.07,0,0.12,0.03,0.15,0.1c0.2,0.17,0.3,0.37,0.3,0.6
						c0,0.17-0.03,0.28-0.1,0.35C13.17,21.52,13.1,21.63,13,21.7z"/>
					
						<linearGradient id="SVGID_18_" gradientUnits="userSpaceOnUse" x1="110.0957" y1="-313.1631" x2="111.6649" y2="-313.1631" gradientTransform="matrix(0.5098 0.8603 -0.8684 0.4962 -312.2109 83.5725)">
						<stop  offset="0" style="stop-color:#000000"/>
						<stop  offset="0.8392" style="stop-color:#534A36"/>
						<stop  offset="1" style="stop-color:#3E3728"/>
					</linearGradient>
					<path fill-rule="evenodd" clip-rule="evenodd" fill="url(#SVGID_18_)" d="M16.2,22.85h-0.05l-1.55-0.9
						c0.2-0.2,0.43-0.3,0.7-0.3c0.13,0,0.28,0.02,0.45,0.05c0.07,0.07,0.13,0.15,0.2,0.25c0.17,0.17,0.25,0.37,0.25,0.6
						C16.2,22.65,16.2,22.75,16.2,22.85z"/>
					<linearGradient id="SVGID_19_" gradientUnits="userSpaceOnUse" x1="18.876" y1="22.6494" x2="20.051" y2="23.8244">
						<stop  offset="0" style="stop-color:#000000"/>
						<stop  offset="0.8392" style="stop-color:#534A36"/>
						<stop  offset="1" style="stop-color:#3E3728"/>
					</linearGradient>
					<path fill-rule="evenodd" clip-rule="evenodd" fill="url(#SVGID_19_)" d="M19.3,22.7l-1.7-0.55c0.07-0.07,0.12-0.12,0.15-0.15
						c0.1-0.1,0.2-0.15,0.3-0.15c0.07-0.1,0.18-0.15,0.35-0.15c0.03,0,0.05,0.03,0.05,0.1c0.13,0,0.25,0.02,0.35,0.05
						c0.1,0.07,0.17,0.12,0.2,0.15C19.2,22.17,19.3,22.4,19.3,22.7z"/>
				</g>
			</g>
			<g>
				<path fill-rule="evenodd" clip-rule="evenodd" d="M21.45,14.7c0,1.13-0.42,2.12-1.25,2.95c-0.83,0.87-1.83,1.3-3,1.3
					c-1.2,0-2.22-0.43-3.05-1.3c-0.8-0.83-1.2-1.82-1.2-2.95c0-1.17,0.4-2.17,1.2-3c0.83-0.83,1.85-1.25,3.05-1.25
					c1.17,0,2.17,0.42,3,1.25C21.03,12.53,21.45,13.53,21.45,14.7z"/>
			</g>
			<g>
				
					<radialGradient id="SVGID_20_" cx="16.5498" cy="17" r="5.0514" gradientTransform="matrix(0.8659 0.5002 -0.7864 1.3613 15.5878 -14.4208)" gradientUnits="userSpaceOnUse">
					<stop  offset="0" style="stop-color:#565447"/>
					<stop  offset="0.3373" style="stop-color:#0C0C0C"/>
					<stop  offset="1" style="stop-color:#0B0B0B"/>
				</radialGradient>
				<path fill-rule="evenodd" clip-rule="evenodd" fill="url(#SVGID_20_)" d="M21.8,13.1c0.23,0.43,0.35,0.93,0.35,1.5
					c0,1.07-0.4,2-1.2,2.8c-0.73,0.73-1.63,1.1-2.7,1.1c-1.13,0-2.07-0.37-2.8-1.1c-0.73-0.8-1.1-1.73-1.1-2.8v-0.05L19,14.9
					l-4.1-2.4c0.17-0.23,0.35-0.43,0.55-0.6c0.73-0.8,1.67-1.2,2.8-1.2c1,0,1.88,0.37,2.65,1.1l-0.65,0.65L19.9,12.8L19,14.9
					c0.83-0.33,1.35-0.52,1.55-0.55l0.2-0.85L21.8,13.1z"/>
				<linearGradient id="SVGID_21_" gradientUnits="userSpaceOnUse" x1="15.6694" y1="17.0195" x2="18.8865" y2="8.4259">
					<stop  offset="0" style="stop-color:#000000"/>
					<stop  offset="0.1647" style="stop-color:#000000"/>
					<stop  offset="0.3373" style="stop-color:#616161"/>
					<stop  offset="0.4745" style="stop-color:#0B0B0B"/>
					<stop  offset="0.6471" style="stop-color:#000000"/>
					<stop  offset="1" style="stop-color:#000000"/>
				</linearGradient>
				<path fill-rule="evenodd" clip-rule="evenodd" fill="url(#SVGID_21_)" d="M14.9,12.5l4.1,2.4l-4.65-0.35c0-0.2,0-0.38,0-0.55
					C14.45,13.43,14.63,12.93,14.9,12.5z"/>
				<linearGradient id="SVGID_22_" gradientUnits="userSpaceOnUse" x1="19.6895" y1="13.0161" x2="21.0093" y2="14.6453">
					<stop  offset="0" style="stop-color:#000000"/>
					<stop  offset="0.1608" style="stop-color:#0B0B0B"/>
					<stop  offset="0.3373" style="stop-color:#616161"/>
					<stop  offset="0.5529" style="stop-color:#0B0B0B"/>
					<stop  offset="0.6471" style="stop-color:#000000"/>
					<stop  offset="1" style="stop-color:#000000"/>
				</linearGradient>
				<path fill-rule="evenodd" clip-rule="evenodd" fill="url(#SVGID_22_)" d="M20.9,11.8c0.03,0,0.05,0.03,0.05,0.1
					c0.37,0.33,0.65,0.73,0.85,1.2l-1.05,0.4c0.03-0.1,0.05-0.17,0.05-0.2c0-0.23-0.08-0.45-0.25-0.65c-0.1-0.1-0.2-0.17-0.3-0.2
					L20.9,11.8z M19.9,12.8c0.1,0.03,0.2,0.1,0.3,0.2c0.13,0.13,0.2,0.32,0.2,0.55c0,0.07,0.05,0.33,0.15,0.8
					c-0.2,0.03-0.72,0.22-1.55,0.55L19.9,12.8z"/>
				<path fill-rule="evenodd" clip-rule="evenodd" fill="#0B0B0B" d="M19.9,12.8l0.35-0.35c0.1,0.03,0.2,0.1,0.3,0.2
					c0.17,0.2,0.25,0.42,0.25,0.65c0,0.03-0.02,0.1-0.05,0.2l-0.2,0.85c-0.1-0.47-0.15-0.73-0.15-0.8c0-0.23-0.07-0.42-0.2-0.55
					C20.1,12.9,20,12.83,19.9,12.8z"/>
			</g>
			
				<use xlink:href="#glace"  width="14.15" height="5.05" x="-7.1" y="-2.5" transform="matrix(0.3726 0.0999 0.1332 -0.4968 16.1499 14.4502)" overflow="visible"/>
			
				<use xlink:href="#glace"  width="14.15" height="5.05" x="-7.1" y="-2.5" transform="matrix(0.4196 -0.7115 -0.7281 -0.3886 8.5498 10.1499)" overflow="visible"/>
		</g>
	</g>
</g>
</svg>
