<?xml version="1.0" encoding="utf-8"?>
<!-- Generator: Adobe Illustrator 16.0.0, SVG Export Plug-In . SVG Version: 6.00 Build 0)  -->
<!DOCTYPE svg PUBLIC "-//W3C//DTD SVG 1.1//EN" "http://www.w3.org/Graphics/SVG/1.1/DTD/svg11.dtd">
<svg version="1.1" id="Layer_1" xmlns="http://www.w3.org/2000/svg" xmlns:xlink="http://www.w3.org/1999/xlink" x="0px" y="0px"
	 width="39.45px" height="13.7px" viewBox="0 0 39.45 13.7" enable-background="new 0 0 39.45 13.7" xml:space="preserve">
<symbol  id="glace" viewBox="-7.1 -2.5 14.15 5.05">
	<g id="Layer_1_2_">
		<g>
			
				<radialGradient id="SVGID_1_" cx="0" cy="0" r="7.25" gradientTransform="matrix(1 0 0 0.3569 0 4.882813e-004)" gradientUnits="userSpaceOnUse">
				<stop  offset="0" style="stop-color:#FFFFFF"/>
				<stop  offset="0.1922" style="stop-color:#FFFFFF"/>
				<stop  offset="0.2824" style="stop-color:#FFFFFF;stop-opacity:0.7333"/>
				<stop  offset="0.4157" style="stop-color:#FFFFFF;stop-opacity:0.6"/>
				<stop  offset="0.5882" style="stop-color:#FEFEFE;stop-opacity:0.3451"/>
				<stop  offset="0.8157" style="stop-color:#FCFCFC;stop-opacity:0.0863"/>
				<stop  offset="1" style="stop-color:#F9F9F9;stop-opacity:0"/>
			</radialGradient>
			<path fill-rule="evenodd" clip-rule="evenodd" fill="url(#SVGID_1_)" d="M-0.05,2.55C1.92,2.55,3.6,2.3,5,1.8
				C6.37,1.3,7.05,0.7,7.05,0S6.37-1.3,5-1.8C3.6-2.27,1.92-2.5-0.05-2.5c-1.93,0-3.6,0.23-5,0.7C-6.42-1.3-7.1-0.7-7.1,0
				s0.68,1.3,2.05,1.8C-3.65,2.3-1.98,2.55-0.05,2.55z"/>
		</g>
	</g>
</symbol>
<g>
	<g>
		<linearGradient id="SVGID_2_" gradientUnits="userSpaceOnUse" x1="0" y1="6.8501" x2="39.4502" y2="6.8501">
			<stop  offset="0" style="stop-color:#836F52"/>
			<stop  offset="1" style="stop-color:#E6E1DD"/>
		</linearGradient>
		<path fill-rule="evenodd" clip-rule="evenodd" fill="url(#SVGID_2_)" d="M39.1,13.4V0.35H0.4V13.4H39.1z M39.45,13.7H0V0h39.45
			V13.7z"/>
		
			<radialGradient id="SVGID_3_" cx="24.4004" cy="7.0498" r="27.3125" fx="13.047" fy="7.0498" gradientTransform="matrix(1 0 0 0.7291 0 1.91)" gradientUnits="userSpaceOnUse">
			<stop  offset="0" style="stop-color:#FD424F"/>
			<stop  offset="0.4" style="stop-color:#E93735"/>
			<stop  offset="0.698" style="stop-color:#561B1A"/>
			<stop  offset="0.8157" style="stop-color:#271416"/>
			<stop  offset="1" style="stop-color:#2D1516"/>
		</radialGradient>
		<rect x="0.4" y="0.35" fill-rule="evenodd" clip-rule="evenodd" fill="url(#SVGID_3_)" width="38.7" height="13.05"/>
	</g>
	
		<use xlink:href="#glace"  width="14.15" height="5.05" x="-7.1" y="-2.5" transform="matrix(0.8322 0 0 -2.3564 19.7998 7.3501)" overflow="visible"/>
</g>
</svg>
