<?xml version="1.0" encoding="utf-8"?>
<!-- Generator: Adobe Illustrator 16.0.0, SVG Export Plug-In . SVG Version: 6.00 Build 0)  -->
<!DOCTYPE svg PUBLIC "-//W3C//DTD SVG 1.1//EN" "http://www.w3.org/Graphics/SVG/1.1/DTD/svg11.dtd">
<svg version="1.1" id="Layer_1" xmlns="http://www.w3.org/2000/svg" xmlns:xlink="http://www.w3.org/1999/xlink" x="0px" y="0px"
	 width="31.63px" height="31.5px" viewBox="0 0 31.63 31.5" enable-background="new 0 0 31.63 31.5" xml:space="preserve">
<g>
	<g>
		<path fill-rule="evenodd" clip-rule="evenodd" fill-opacity="0.4902" d="M30.25,13.2c0.2,0.67,0.3,1.4,0.3,2.2
			c0,2.33-0.82,4.32-2.45,5.95c-1.67,1.6-3.67,2.4-6,2.4c-0.6,0-1.18-0.03-1.75-0.1v-5.8l-6.5-3.05c0-0.67,0.12-1.3,0.35-1.9
			c0.4-1.27,1.08-2.38,2.05-3.35c1.63-1.63,3.58-2.45,5.85-2.45c2.33,0,4.33,0.82,6,2.45C29.17,10.62,29.88,11.83,30.25,13.2z
			 M24.55,8.95h0.05l0.05-0.1L24.55,8.95z"/>
	</g>
	<g>
		
			<linearGradient id="SVGID_1_" gradientUnits="userSpaceOnUse" x1="-659.8633" y1="-84.1235" x2="-647.0233" y2="-84.1235" gradientTransform="matrix(-0.329 -0.9443 0.7238 -0.9618 -142.4349 -681.2216)">
			<stop  offset="0" style="stop-color:#121212"/>
			<stop  offset="0.4627" style="stop-color:#6F6F6F"/>
			<stop  offset="0.5843" style="stop-color:#FFFFFF"/>
			<stop  offset="0.7255" style="stop-color:#484848"/>
			<stop  offset="1" style="stop-color:#000000"/>
			<stop  offset="1" style="stop-color:#111111"/>
			<stop  offset="1" style="stop-color:#1E1E1E"/>
		</linearGradient>
		<path fill-rule="evenodd" clip-rule="evenodd" fill="url(#SVGID_1_)" d="M18.95,7.95c2.37,2.7,4.05,4.02,5.05,3.95
			c-1.27,1.27-2.73,2.85-4.4,4.75L6.3,30.55c-4.23-0.67-5.93-3.13-5.1-7.4c0.57-0.9,0.88-1.42,0.95-1.55l13.3-19.9
			C15.32,3.27,16.48,5.35,18.95,7.95z"/>
	</g>
	<g>
		<radialGradient id="SVGID_2_" cx="16.0498" cy="6.75" r="9.35" gradientUnits="userSpaceOnUse">
			<stop  offset="0" style="stop-color:#FFFFFF"/>
			<stop  offset="0.4275" style="stop-color:#737373"/>
			<stop  offset="0.6275" style="stop-color:#6F6F6F"/>
			<stop  offset="1" style="stop-color:#404040"/>
			<stop  offset="1" style="stop-color:#2F2F2F"/>
			<stop  offset="1" style="stop-color:#2F2F2F"/>
		</radialGradient>
		<path fill-rule="evenodd" clip-rule="evenodd" fill="url(#SVGID_2_)" d="M23.4,15.05c-1.67,1.63-3.65,2.45-5.95,2.45
			c-2.3,0-4.27-0.82-5.9-2.45c-1.6-1.63-2.4-3.6-2.4-5.9c0-0.9,0.13-1.73,0.4-2.5c0.37-1.27,1.03-2.38,2-3.35
			c1.63-1.63,3.6-2.45,5.9-2.45c2.3,0,4.28,0.82,5.95,2.45c1.07,1.07,1.8,2.27,2.2,3.6c0.17,0.7,0.25,1.45,0.25,2.25
			C25.85,11.45,25.03,13.42,23.4,15.05z M22.5,5.6c0.67,1.1,0.95,1.18,0.85,0.25C23.22,4.88,22.1,3.8,20,2.6l-0.15,0.05
			C20.98,3.48,21.87,4.47,22.5,5.6z M16.1,3.85v-0.1c0.23-0.83-0.02-1.28-0.75-1.35c-0.67,0.2-1.18,0.5-1.55,0.9
			C14.17,4.27,14.93,4.45,16.1,3.85z"/>
		<path fill-rule="evenodd" clip-rule="evenodd" fill="#BBBCB6" d="M22.5,5.6c-0.63-1.13-1.52-2.12-2.65-2.95L20,2.6
			c2.1,1.2,3.22,2.28,3.35,3.25C23.45,6.78,23.17,6.7,22.5,5.6z"/>
		<path fill-rule="evenodd" clip-rule="evenodd" fill="#FFFFFF" d="M16.1,3.85c-1.17,0.6-1.93,0.42-2.3-0.55
			c0.37-0.4,0.88-0.7,1.55-0.9c0.73,0.07,0.98,0.52,0.75,1.35V3.85z"/>
	</g>
</g>
</svg>
