<?xml version="1.0" encoding="utf-8"?>
<!-- Generator: Adobe Illustrator 16.0.0, SVG Export Plug-In . SVG Version: 6.00 Build 0)  -->
<!DOCTYPE svg PUBLIC "-//W3C//DTD SVG 1.1//EN" "http://www.w3.org/Graphics/SVG/1.1/DTD/svg11.dtd">
<svg version="1.1" id="Layer_1" xmlns="http://www.w3.org/2000/svg" xmlns:xlink="http://www.w3.org/1999/xlink" x="0px" y="0px"
	 width="34.63px" height="31.25px" viewBox="0 0 34.63 31.25" enable-background="new 0 0 34.63 31.25" xml:space="preserve">
<g>
	<g>
		<path fill-rule="evenodd" clip-rule="evenodd" fill-opacity="0.4902" d="M17.15,22.22c0-0.9,0.13-1.73,0.4-2.5
			c0.37-1.27,1.05-2.38,2.05-3.35c1.6-1.63,3.55-2.45,5.85-2.45s4.28,0.82,5.95,2.45c1.07,1.07,1.8,2.27,2.2,3.6
			c0.17,0.7,0.25,1.45,0.25,2.25c0,2.3-0.82,4.27-2.45,5.9c-1.67,1.63-3.65,2.45-5.95,2.45s-4.25-0.82-5.85-2.45
			C17.97,26.49,17.15,24.53,17.15,22.22z M27.95,15.73L28,15.67l-0.15,0.05H27.95z"/>
	</g>
	<g>
		
			<linearGradient id="SVGID_1_" gradientUnits="userSpaceOnUse" x1="-279.6904" y1="72.8076" x2="-266.8363" y2="72.8076" gradientTransform="matrix(0.9588 -0.284 0.9321 0.7669 208.3947 -120.751)">
			<stop  offset="0" style="stop-color:#121212"/>
			<stop  offset="0.4627" style="stop-color:#6F6F6F"/>
			<stop  offset="0.5843" style="stop-color:#FFFFFF"/>
			<stop  offset="0.7255" style="stop-color:#484848"/>
			<stop  offset="1" style="stop-color:#000000"/>
			<stop  offset="1" style="stop-color:#111111"/>
			<stop  offset="1" style="stop-color:#1E1E1E"/>
		</linearGradient>
		<path fill-rule="evenodd" clip-rule="evenodd" fill="url(#SVGID_1_)" d="M9.75,2.92l19.45,14.2c-1.53-0.17-3.7,0.9-6.5,3.2
			c-2.77,2.27-4.15,3.9-4.15,4.9c-1.17-1.3-2.68-2.83-4.55-4.6l-13.3-14c0.83-4.2,3.37-5.78,7.6-4.75C9.13,2.48,9.62,2.83,9.75,2.92
			z"/>
	</g>
	<g>
		<radialGradient id="SVGID_2_" cx="20.9004" cy="17.5254" r="9.35" gradientUnits="userSpaceOnUse">
			<stop  offset="0" style="stop-color:#FFFFFF"/>
			<stop  offset="0.4275" style="stop-color:#737373"/>
			<stop  offset="0.6275" style="stop-color:#6F6F6F"/>
			<stop  offset="1" style="stop-color:#404040"/>
			<stop  offset="1" style="stop-color:#2F2F2F"/>
			<stop  offset="1" style="stop-color:#2F2F2F"/>
		</radialGradient>
		<path fill-rule="evenodd" clip-rule="evenodd" fill="url(#SVGID_2_)" d="M14,19.92c0-0.9,0.13-1.73,0.4-2.5
			c0.4-1.27,1.08-2.38,2.05-3.35c1.63-1.63,3.58-2.45,5.85-2.45c2.33,0,4.33,0.82,6,2.45c1.07,1.07,1.78,2.27,2.15,3.6
			c0.2,0.7,0.3,1.45,0.3,2.25c0,2.33-0.82,4.3-2.45,5.9c-1.67,1.63-3.67,2.45-6,2.45c-2.27,0-4.22-0.82-5.85-2.45
			C14.82,24.22,14,22.26,14,19.92z M20.2,13.17c-0.63,0.23-1.15,0.53-1.55,0.9c0.4,0.97,1.17,1.15,2.3,0.55v-0.05
			C21.18,13.71,20.93,13.24,20.2,13.17z M24.75,13.42c1.1,0.83,1.98,1.82,2.65,2.95c0.63,1.1,0.9,1.18,0.8,0.25
			c-0.13-0.97-1.25-2.05-3.35-3.25L24.75,13.42z"/>
		<path fill-rule="evenodd" clip-rule="evenodd" fill="#FFFFFF" d="M20.2,13.17c0.73,0.07,0.98,0.53,0.75,1.4v0.05
			c-1.13,0.6-1.9,0.42-2.3-0.55C19.05,13.71,19.57,13.41,20.2,13.17z"/>
		<path fill-rule="evenodd" clip-rule="evenodd" fill="#BBBCB6" d="M24.75,13.42l0.1-0.05c2.1,1.2,3.22,2.28,3.35,3.25
			c0.1,0.93-0.17,0.85-0.8-0.25C26.73,15.24,25.85,14.26,24.75,13.42z"/>
	</g>
</g>
</svg>
