<?xml version="1.0" encoding="utf-8"?>
<!-- Generator: Adobe Illustrator 16.0.0, SVG Export Plug-In . SVG Version: 6.00 Build 0)  -->
<!DOCTYPE svg PUBLIC "-//W3C//DTD SVG 1.1//EN" "http://www.w3.org/Graphics/SVG/1.1/DTD/svg11.dtd">
<svg version="1.1" id="Layer_1" xmlns="http://www.w3.org/2000/svg" xmlns:xlink="http://www.w3.org/1999/xlink" x="0px" y="0px"
	 width="23.06px" height="20.94px" viewBox="0 0 23.06 20.94" enable-background="new 0 0 23.06 20.94" xml:space="preserve">
<g>
	<g>
		<rect x="5.69" y="0.7" fill-rule="evenodd" clip-rule="evenodd" fill="#222222" width="16.3" height="2"/>
		<polygon fill-rule="evenodd" clip-rule="evenodd" fill="#151515" points="15.29,9.35 1.79,9.35 5.69,2.7 21.99,2.7 21.94,2.8 		
			"/>
		<polygon fill-rule="evenodd" clip-rule="evenodd" fill="#535353" points="5.69,2.7 1.79,9.35 1.79,20.1 0.84,19.1 0.84,8.25 
			5.69,0.7 		"/>
		<polygon fill-rule="evenodd" clip-rule="evenodd" fill="#333333" points="1.79,9.35 15.29,9.35 15.29,20.15 1.89,20.15 1.79,20.1 
					"/>
	</g>
	<g>
		<rect x="2.94" y="12.55" fill-rule="evenodd" clip-rule="evenodd" fill="#00AA00" width="11.25" height="4.5"/>
	</g>
	<g>
		<g>
			<path fill-rule="evenodd" clip-rule="evenodd" d="M6.94,14.05c-0.17-0.13-0.37-0.2-0.6-0.2s-0.42,0.07-0.55,0.2
				c-0.13,0.2-0.2,0.47-0.2,0.8c0,0.3,0.07,0.53,0.2,0.7c0.13,0.17,0.32,0.25,0.55,0.25s0.43-0.08,0.6-0.25
				c0.13-0.17,0.2-0.4,0.2-0.7C7.14,14.52,7.07,14.25,6.94,14.05z M7.74,14.85c0,0.47-0.13,0.82-0.4,1.05c-0.23,0.27-0.57,0.4-1,0.4
				c-0.4,0-0.72-0.13-0.95-0.4c-0.27-0.23-0.4-0.58-0.4-1.05c0-0.3,0.03-0.53,0.1-0.7c0.1-0.13,0.2-0.28,0.3-0.45
				c0.1-0.07,0.22-0.15,0.35-0.25c0.17-0.07,0.37-0.1,0.6-0.1c0.43,0,0.77,0.12,1,0.35C7.6,14,7.74,14.38,7.74,14.85z M11.09,13.85
				v0.7h1.2v0.5h-1.2v1.2h-0.55v-2.8h1.95v0.4H11.09z M10.14,13.45v0.4h-1.4v0.7h1.2v0.5h-1.2v1.2H8.19v-2.8H10.14z"/>
		</g>
	</g>
</g>
</svg>
