<?xml version="1.0" encoding="utf-8"?>
<!-- Generator: Adobe Illustrator 16.0.0, SVG Export Plug-In . SVG Version: 6.00 Build 0)  -->
<!DOCTYPE svg PUBLIC "-//W3C//DTD SVG 1.1//EN" "http://www.w3.org/Graphics/SVG/1.1/DTD/svg11.dtd">
<svg version="1.1" id="Layer_1" xmlns="http://www.w3.org/2000/svg" xmlns:xlink="http://www.w3.org/1999/xlink" x="0px" y="0px"
	 width="23.04px" height="22.67px" viewBox="0 0 23.04 22.67" enable-background="new 0 0 23.04 22.67" xml:space="preserve">
<g>
	<g>
		<path fill-rule="evenodd" clip-rule="evenodd" fill="#535353" d="M2.09,13.03L2.09,13.03l5.15,6.4v2.05l0,0l-6.2-8.15V1.23h0.05
			c0.3,0.23,0.7,0.57,1,0.8"/>
		<path fill-rule="evenodd" clip-rule="evenodd" fill="#696969" d="M2.09,2.02c-0.3-0.23-0.7-0.57-1-0.8h13.4l1.25,0.8"/>
		<polyline fill-rule="evenodd" clip-rule="evenodd" fill="#222222" points="7.24,19.42 22.09,19.42 22.09,21.47 7.24,21.47 		"/>
		<polygon fill-rule="evenodd" clip-rule="evenodd" fill="#151515" points="2.09,13.03 15.74,13.03 22.09,19.42 7.24,19.42 
			7.24,19.42 		"/>
		<polygon fill-rule="evenodd" clip-rule="evenodd" fill="#333333" points="15.74,13.03 2.09,13.03 2.09,12.97 2.09,2.02 
			15.74,2.02 		"/>
	</g>
	<g>
		<rect x="3.19" y="5.27" fill-rule="evenodd" clip-rule="evenodd" fill="#00AA00" width="11.25" height="4.55"/>
	</g>
	<g>
		<g>
			<path fill-rule="evenodd" clip-rule="evenodd" d="M10.74,6.17h0.45v2.75h-0.55l-1.1-1.8v1.8h-0.5V6.17h0.55l1.15,1.85V6.17z
				 M6.69,6.27c0.17-0.1,0.35-0.15,0.55-0.15c0.43,0,0.77,0.12,1,0.35c0.27,0.27,0.4,0.62,0.4,1.05c0,0.47-0.13,0.82-0.4,1.05
				c-0.23,0.27-0.55,0.4-0.95,0.4s-0.72-0.13-0.95-0.4c-0.27-0.23-0.4-0.57-0.4-1c0-0.27,0.03-0.52,0.1-0.75
				c0.1-0.13,0.2-0.25,0.3-0.35C6.44,6.38,6.56,6.31,6.69,6.27z M7.79,6.83c-0.13-0.13-0.32-0.2-0.55-0.2c-0.2,0-0.37,0.07-0.5,0.2
				c-0.13,0.2-0.2,0.43-0.2,0.7c0,0.33,0.07,0.57,0.2,0.7c0.13,0.17,0.3,0.25,0.5,0.25c0.23,0,0.42-0.08,0.55-0.25
				c0.13-0.13,0.2-0.37,0.2-0.7C7.99,7.19,7.92,6.96,7.79,6.83z"/>
		</g>
	</g>
</g>
</svg>
