<?xml version="1.0" encoding="utf-8"?>
<!-- Generator: Adobe Illustrator 16.0.0, SVG Export Plug-In . SVG Version: 6.00 Build 0)  -->
<!DOCTYPE svg PUBLIC "-//W3C//DTD SVG 1.1//EN" "http://www.w3.org/Graphics/SVG/1.1/DTD/svg11.dtd">
<svg version="1.1" id="Layer_2" xmlns="http://www.w3.org/2000/svg" xmlns:xlink="http://www.w3.org/1999/xlink" x="0px" y="0px"
	 width="15.88px" height="15px" viewBox="0 0 15.88 15" enable-background="new 0 0 15.88 15" xml:space="preserve">
<g>
	<path fill-rule="evenodd" clip-rule="evenodd" fill="#FFFFFF" fill-opacity="0.498" d="M13.4,12.31c-1.06,1.06-2.36,1.6-3.88,1.6
		s-2.84-0.53-3.95-1.6c-1.06-1.06-1.6-2.36-1.6-3.88s0.53-2.81,1.6-3.88C6.69,3.49,8,2.96,9.53,2.96s2.81,0.53,3.88,1.6
		C14.47,5.62,15,6.91,15,8.43S14.47,11.24,13.4,12.31z"/>
	<path fill-rule="evenodd" clip-rule="evenodd" d="M10.3,9.96c-1.06,1.06-2.36,1.6-3.88,1.6s-2.84-0.53-3.95-1.6
		c-1.06-1.07-1.6-2.36-1.6-3.88s0.53-2.81,1.6-3.88c1.12-1.06,2.43-1.6,3.95-1.6s2.81,0.53,3.88,1.6c1.06,1.06,1.6,2.36,1.6,3.88
		S11.37,8.89,10.3,9.96z"/>
	<path fill-rule="evenodd" clip-rule="evenodd" fill="#FF0000" d="M12,11.21c-1.06,1.06-2.36,1.6-3.88,1.6s-2.84-0.53-3.95-1.6
		c-1.06-1.07-1.6-2.36-1.6-3.88s0.53-2.81,1.6-3.88c1.12-1.06,2.43-1.6,3.95-1.6s2.81,0.53,3.88,1.6c1.06,1.06,1.6,2.36,1.6,3.88
		S13.07,10.14,12,11.21z"/>
	
		<path fill-rule="evenodd" clip-rule="evenodd" fill="none" stroke="#6C0000" stroke-width="0.1" stroke-linecap="round" stroke-linejoin="round" stroke-miterlimit="3" d="
		M12,11.21c-1.06,1.06-2.36,1.6-3.88,1.6s-2.84-0.53-3.95-1.6c-1.06-1.07-1.6-2.36-1.6-3.88s0.53-2.81,1.6-3.88
		c1.12-1.06,2.43-1.6,3.95-1.6s2.81,0.53,3.88,1.6c1.06,1.06,1.6,2.36,1.6,3.88S13.07,10.14,12,11.21z"/>
	<path fill-rule="evenodd" clip-rule="evenodd" fill="#FFFFFF" d="M8.33,5.58C7.95,5.86,7.48,5.99,6.93,5.99S5.91,5.86,5.51,5.58
		c-0.38-0.27-0.57-0.6-0.57-0.99c0-0.39,0.19-0.72,0.57-0.99C5.91,3.33,6.39,3.2,6.93,3.2S7.95,3.33,8.33,3.6
		C8.71,3.88,8.9,4.21,8.9,4.59C8.9,4.98,8.71,5.31,8.33,5.58z"/>
	<path fill-rule="evenodd" clip-rule="evenodd" fill="#FFFFFF" d="M11.86,6.19c-0.19,0.19-0.42,0.29-0.67,0.29
		c-0.22,0-0.43-0.1-0.62-0.29c-0.19-0.16-0.29-0.37-0.29-0.62c0-0.26,0.1-0.48,0.29-0.67c0.19-0.16,0.4-0.24,0.62-0.24
		c0.26,0,0.48,0.08,0.67,0.24c0.19,0.19,0.29,0.42,0.29,0.67C12.15,5.82,12.06,6.03,11.86,6.19z"/>
</g>
</svg>
