<?xml version="1.0" encoding="utf-8"?>
<!-- Generator: Adobe Illustrator 16.0.0, SVG Export Plug-In . SVG Version: 6.00 Build 0)  -->
<!DOCTYPE svg PUBLIC "-//W3C//DTD SVG 1.1//EN" "http://www.w3.org/Graphics/SVG/1.1/DTD/svg11.dtd">
<svg version="1.1" id="Layer_1" xmlns="http://www.w3.org/2000/svg" xmlns:xlink="http://www.w3.org/1999/xlink" x="0px" y="0px"
	 width="939px" height="20px" viewBox="0 0 939 20" enable-background="new 0 0 939 20" xml:space="preserve">
<g>
	<g>
		<path fill-rule="evenodd" clip-rule="evenodd" fill="#FFFFFF" fill-opacity="0.7412" d="M185.95,14.61c-0.7,0-1.08,0.22-1.14,0.66
			c0.22,0.17,0.43,0.31,0.65,0.44c1.57,0.29,3.07,0.17,4.51-0.36c0-0.05-0.01-0.09-0.04-0.11c-0.49-0.64-1.37-0.86-2.64-0.66
			C186.83,14.58,186.38,14.59,185.95,14.61z M164.49,14.81c-0.3,0-0.49,0.1-0.57,0.3c-0.08,0.31,0.07,0.53,0.45,0.66
			c2.14,0.73,4.17,0.58,6.09-0.44c-0.03-0.05-0.07-0.1-0.12-0.14c-1.06-0.64-2.33-0.83-3.82-0.58
			C165.85,14.74,165.17,14.81,164.49,14.81z M147.27,19.23c-0.03-0.04-0.07-0.07-0.12-0.11c-0.46-0.25-0.96-0.44-1.5-0.55v0.03
			c-0.05,0.02-0.08,0.05-0.08,0.11c0.6,0.26,1.18,0.46,1.75,0.6C147.31,19.28,147.29,19.25,147.27,19.23z M158.8,7.81
			c0,0.09,0.03,0.16,0.08,0.19c1.54,0.79,2.99,0.98,4.35,0.58c0-0.06-0.01-0.09-0.04-0.11c-1.14-0.66-2.55-0.95-4.23-0.88
			c-0.03,0.02-0.05,0.05-0.08,0.08C158.83,7.71,158.8,7.75,158.8,7.81z M153.44,8.11c-0.08,0.02-0.18,0.04-0.28,0.06
			c-0.03,0.02-0.04,0.04-0.04,0.06C153.22,8.19,153.33,8.15,153.44,8.11z M143.61,7.7c0.03,0.09,0.09,0.16,0.2,0.19
			c1.06,0.33,2.07,0.57,3.05,0.71c0.27-0.07,0.53-0.16,0.77-0.25c-0.03-0.05-0.05-0.08-0.08-0.08c-1.25-0.38-2.53-0.62-3.86-0.71
			c-0.03,0-0.04,0.01-0.04,0.03C143.62,7.61,143.61,7.65,143.61,7.7z M131.87,15.78c0.46,0.05,0.92,0.09,1.38,0.11
			c0.13-0.37-0.11-0.64-0.73-0.82v0.03C132.08,15.37,131.87,15.6,131.87,15.78z M117.97,13.7c-0.27,0-0.57,0.04-0.89,0.11
			c0.92,0.11,1.8,0.11,2.64,0C119.26,13.59,118.67,13.55,117.97,13.7z M107.12,18.12c0,0.04,0.01,0.06,0.04,0.08
			c2.09,0.75,4.19,0.82,6.3,0.22c-1.9-0.51-3.87-0.79-5.93-0.82c-0.16,0.07-0.28,0.2-0.37,0.38
			C107.14,18.02,107.12,18.07,107.12,18.12z M109.03,9.01c0.03-0.06,0.03-0.09,0-0.11h-0.04c-0.35,0.04-0.72,0.09-1.1,0.17
			c-1.3-0.33-2.21-0.19-2.72,0.41c-0.05,0.04-0.08,0.08-0.08,0.14c0.19,0.09,0.38,0.17,0.57,0.25
			C106.82,9.77,107.95,9.48,109.03,9.01z M98.87,7.47c-0.11-0.15-0.28-0.28-0.53-0.41c-0.08,0.02-0.15,0.05-0.2,0.08
			c-0.11,0.11-0.2,0.21-0.28,0.3C98.21,7.46,98.55,7.47,98.87,7.47z M103.09,1.68c-0.84-0.24-1.71-0.39-2.6-0.47
			c-0.19,0.2-0.18,0.44,0.04,0.71c0.03,0.05,0.08,0.11,0.16,0.16c0.08,0.04,0.18,0.06,0.28,0.08c0.05,0.02,0.11,0.03,0.16,0.03
			c0.65-0.09,1.33-0.24,2.03-0.44C103.15,1.7,103.12,1.68,103.09,1.68z M126.05,1.59c-0.54-0.04-1.1-0.05-1.67-0.03
			c-0.16,0.51,0.22,0.89,1.14,1.13c0.05-0.02,0.08-0.04,0.08-0.06C125.96,2.27,126.11,1.92,126.05,1.59z M144.86,1.83
			c-2.14-0.42-4.39-0.56-6.74-0.41c-0.14,0.02-0.24,0.06-0.33,0.11C139.91,2,142.26,2.1,144.86,1.83z M148.2,1.61
			c0.03,0.09,0.08,0.16,0.16,0.19c0.05,0.02,0.09,0.04,0.12,0.06c-0.03-0.11-0.1-0.21-0.2-0.3C148.25,1.55,148.22,1.57,148.2,1.61z
			 M165.99,2.59c0.3-0.11,0.58-0.26,0.85-0.44c0-0.06-0.01-0.1-0.04-0.14c-0.24-0.38-0.61-0.64-1.1-0.77
			c-0.32,0.02-0.66,0.05-1.02,0.08c-0.24-0.06-0.47-0.08-0.69-0.08c-0.22,0-0.41,0.03-0.57,0.08c-0.27,0.07-0.47,0.22-0.61,0.44
			c-0.03,0.05-0.04,0.1-0.04,0.14C163.81,2.25,164.88,2.48,165.99,2.59z M175.78,0.97c-0.62,0.77-0.34,1.34,0.85,1.7
			c0.05-0.04,0.09-0.07,0.12-0.11c0.49-0.59,0.54-1.1,0.16-1.54C176.54,0.99,176.16,0.97,175.78,0.97z M170.54,1.52
			c-0.19,0.06-0.41,0.13-0.65,0.22c-0.49,0.2-0.72,0.48-0.69,0.85c1.03-0.11,2.09-0.32,3.17-0.63c0-0.04-0.03-0.06-0.08-0.08
			C171.72,1.73,171.14,1.61,170.54,1.52z M184.2,0.44c-0.03,0.06-0.03,0.11,0,0.17c1.98,0.99,3.78,1,5.4,0.03
			c-1.41-0.62-2.99-0.81-4.75-0.58v0.03c-0.11-0.02-0.2-0.03-0.28-0.03C184.37,0.15,184.25,0.28,184.2,0.44z M91.72,14.47h-0.61
			c0.46,0.27,0.95,0.51,1.46,0.71c1.06-0.17,2.06-0.43,3.01-0.8c0-0.06-0.01-0.08-0.04-0.08c-0.05-0.02-0.11-0.04-0.16-0.05
			C94.19,14.27,92.97,14.35,91.72,14.47z M73.72,15.06c0.54,0.02,1.07,0.03,1.58,0.03c-0.43-0.09-0.91-0.12-1.42-0.08
			C73.83,15,73.78,15.02,73.72,15.06z M77.86,5.17c-1.3,0.02-2.65,0.16-4.06,0.41c-0.38-0.02-0.74,0-1.1,0.06
			c2.38,0.49,4.81,0.46,7.27-0.08C79.95,5.52,79.92,5.5,79.9,5.5C79.22,5.35,78.54,5.25,77.86,5.17z M69.29,9.32
			c-0.76-0.37-1.73-0.46-2.93-0.27c-0.27,0.04-0.46,0.19-0.57,0.47c-0.03,0.06-0.05,0.11-0.08,0.17C66.91,9.64,68.1,9.52,69.29,9.32
			z M38.41,7.13c-1.87-0.97-4.25-1.12-7.15-0.46c-0.35-0.02-0.49,0.03-0.41,0.14c0.08,0.11,0.18,0.22,0.28,0.33
			c2.17,0.6,4.44,0.74,6.83,0.41c0.22-0.09,0.42-0.18,0.61-0.27C38.52,7.22,38.46,7.17,38.41,7.13z M14.15,7.75
			c2.3,0.35,4.56,0.32,6.79-0.08C18.96,7.2,16.7,7.23,14.15,7.75z M5.5,8.3C4.82,7.91,4.05,7.68,3.18,7.58
			c0.03,0.05,0.04,0.11,0.04,0.16c0.81,0.4,1.6,0.62,2.36,0.66C5.55,8.35,5.53,8.32,5.5,8.3z M15.82,18.54
			c0.87-0.09,1.73-0.34,2.6-0.74C17.39,17.78,16.53,18.02,15.82,18.54z M1.72,1.9c-0.24,0.07-0.3,0.15-0.16,0.22
			c0.43,0.24,0.91,0.4,1.42,0.49c0.76-0.07,1.5-0.24,2.23-0.5C4.1,1.92,2.94,1.85,1.72,1.9z M15.33,2.14c0-0.05-0.03-0.1-0.08-0.14
			c-0.73-0.49-1.61-0.75-2.64-0.77c-0.6,0.05-1.23,0.15-1.91,0.27c-0.33,0.15-0.45,0.38-0.37,0.69c0.33,0.2,0.65,0.38,0.98,0.55
			C12.91,3.12,14.25,2.91,15.33,2.14z M23.82,2.28c-0.03-0.04-0.07-0.07-0.12-0.11c-0.03-0.02-0.07-0.03-0.12-0.03
			c0.05,0.06,0.11,0.12,0.16,0.19C23.77,2.32,23.79,2.3,23.82,2.28z M27.93,2.47c0.03-0.02,0.05-0.04,0.08-0.06
			c0.05-0.05,0.07-0.09,0.04-0.11c-0.03-0.02-0.07-0.04-0.12-0.06v0.03c0,0.06,0,0.11,0,0.17V2.47z M36.13,3.21
			c0-0.02,0.01-0.04,0.04-0.05c0.46-0.49,0.37-0.91-0.28-1.24c-0.08,0.02-0.15,0.05-0.2,0.08C35.06,2.62,35.21,3.03,36.13,3.21z
			 M58.32,2.19c0.11,0.09,0.23,0.17,0.37,0.25c0-0.02-0.01-0.04-0.04-0.06C58.54,2.3,58.43,2.24,58.32,2.19z M47.43,2.16
			c0-0.06-0.01-0.09-0.04-0.11c-1.11-0.7-2.57-0.91-4.39-0.66c-0.03,0.02-0.05,0.04-0.08,0.05c0,0.04-0.01,0.08-0.04,0.14
			c-0.14,0.27-0.08,0.52,0.16,0.74c0.05,0.05,0.12,0.11,0.2,0.16c0.81,0.22,1.54,0.34,2.19,0.36C46.09,2.68,46.75,2.46,47.43,2.16z
			 M61.98,2.02c0.38,0.31,0.79,0.55,1.22,0.71c0.65-0.16,1.35-0.4,2.11-0.71c0.03-0.06,0.03-0.09,0-0.11s-0.05-0.04-0.08-0.06
			c-0.92-0.07-1.86-0.07-2.8,0C61.96,1.84,61.81,1.89,61.98,2.02z M74.65,2.1c0.41-0.13,0.83-0.29,1.26-0.49
			c0.03-0.04,0.03-0.07,0-0.11c-0.11-0.07-0.22-0.15-0.33-0.22c-0.46,0.11-0.89,0.28-1.3,0.52c-0.03,0.02-0.04,0.05-0.04,0.11
			C74.38,1.98,74.52,2.04,74.65,2.1z M90.38,1.76c-0.03-0.06-0.05-0.08-0.08-0.08c-1.65-0.33-3.35-0.48-5.08-0.46
			c1,0.49,1.98,0.8,2.93,0.93C88.87,2.09,89.62,1.97,90.38,1.76z"/>
	</g>
	<g>
		<path fill-rule="evenodd" clip-rule="evenodd" fill="#FFFFFF" fill-opacity="0.7373" d="M366.48,15.46
			c0.6,0.11,1.16,0.18,1.71,0.22c0.05-0.5-0.22-0.93-0.81-1.32v0.03C366.85,14.79,366.56,15.15,366.48,15.46z M372.45,10.29
			c0,0.05,0.01,0.1,0.04,0.14c1,0.75,1.94,0.69,2.8-0.17c-0.05-0.05-0.09-0.11-0.12-0.16c-0.11-0.16-0.26-0.29-0.45-0.38
			c-0.49-0.02-0.99-0.03-1.5-0.03c-0.11,0.02-0.23,0.06-0.37,0.11C372.55,9.89,372.42,10.06,372.45,10.29z M211.1,16.41
			c1.81,0.31,3.82,0.09,6.01-0.66C214.24,15.17,212.24,15.39,211.1,16.41z M206.34,9.03c-0.22,0-0.43,0-0.65,0
			c1.65,0.46,3.41,0.4,5.28-0.17C209.73,8.48,208.18,8.53,206.34,9.03z M206.26,17.1c-0.57-0.11-1.19-0.15-1.87-0.11
			c-1.79-0.46-2.87-0.24-3.25,0.66c0.14,0.07,0.27,0.14,0.41,0.19c1.14,0.07,2.48-0.08,4.02-0.47
			C205.87,17.3,206.1,17.21,206.26,17.1z M189.97,15.65c0.6,0.49,1.22,0.86,1.87,1.1c0.43-0.11,0.85-0.25,1.26-0.41
			c-0.03-0.05-0.05-0.08-0.08-0.08c-0.95-0.33-1.98-0.54-3.09-0.63L189.97,15.65z M348.72,14.64c-0.84-0.18-1.75-0.25-2.72-0.19
			c-0.19,0.05-0.42,0.13-0.69,0.22c-0.19,0.07-0.39,0.15-0.61,0.22c-0.05,0.02-0.09,0.04-0.12,0.05c-0.05,0.24,0.08,0.4,0.41,0.49
			c0.95,0.24,1.87,0.32,2.76,0.25c0.49-0.16,0.91-0.43,1.26-0.8c-0.03-0.04-0.05-0.07-0.08-0.11
			C348.87,14.72,348.8,14.68,348.72,14.64z M333.12,15.39c0.41-0.07,0.81-0.18,1.22-0.33c-0.11-0.15-0.3-0.28-0.57-0.41
			c-0.05,0.02-0.09,0.05-0.12,0.08C333.37,14.96,333.2,15.18,333.12,15.39z M336.57,17.99c-0.08,0.02-0.15,0.05-0.2,0.11
			c-0.03,0.06-0.05,0.1-0.08,0.14c-0.03,0.17,0.05,0.26,0.24,0.3c2.57,0.64,5.04,0.72,7.4,0.24c0.05-0.04,0.11-0.06,0.16-0.08
			c-0.03-0.05-0.05-0.09-0.08-0.11c-1.9-0.79-4.09-0.99-6.58-0.6c-0.27-0.04-0.53-0.05-0.77-0.03
			C336.63,17.98,336.6,17.99,336.57,17.99z M317.35,8.94c-0.89,0.11-1.65,0.27-2.28,0.49c2.19,0.66,4.42,0.55,6.66-0.33
			c-0.03-0.06-0.05-0.09-0.08-0.11c-0.57-0.24-1.16-0.41-1.79-0.52c-0.62,0.07-1.29,0.2-1.99,0.39v0.03
			C317.71,8.9,317.54,8.92,317.35,8.94z M298.21,17.48c-0.79-0.16-1.3-0.03-1.54,0.41c1.46,0.05,2.99-0.08,4.59-0.41
			c-0.98-0.13-1.99-0.14-3.05-0.03V17.48z M307.44,16.3c-0.35,0-0.72,0.06-1.1,0.17c0.16,0.15,0.41,0.27,0.73,0.38
			c0.05-0.04,0.09-0.07,0.12-0.11C307.3,16.59,307.38,16.45,307.44,16.3z M299.23,9.33c-0.03,0.04-0.05,0.07-0.08,0.11
			c1.49,0.57,3.03,0.92,4.63,1.07c1-0.2,2.02-0.49,3.05-0.85c-0.03-0.06-0.07-0.09-0.12-0.11c-1.19-0.42-2.47-0.69-3.82-0.82
			c-0.24,0.04-0.5,0.07-0.77,0.11C301,8.72,300.04,8.89,299.23,9.33z M288.18,8.4c0.14-0.15,0.23-0.27,0.28-0.38
			c-0.41,0-0.81,0.02-1.22,0.06c0.14,0.16,0.42,0.29,0.85,0.38C288.12,8.44,288.15,8.42,288.18,8.4z M268.67,17.47
			c0.92-0.11,1.83-0.26,2.72-0.44c-0.3,0.02-0.62,0.06-0.98,0.14C269.88,17.22,269.3,17.32,268.67,17.47z M269.44,5.47
			c0-0.02-0.01-0.03-0.04-0.03c-1.57-0.33-3.17-0.52-4.79-0.57C266.23,5.45,267.84,5.65,269.44,5.47z M266.97,8.54l-0.08,0.03
			c1.17,1.57,3.4,2.06,6.71,1.45c0.6-0.22,0.96-0.58,1.1-1.07c-0.11-0.06-0.22-0.1-0.33-0.14C272.06,8.43,269.59,8.34,266.97,8.54z
			 M254.25,8.52c0,0.02-0.01,0.05-0.04,0.08c-0.05,0.15-0.08,0.29-0.08,0.44c0.05,0.06,0.11,0.1,0.16,0.14
			c0.84,0.46,1.5,0.38,1.99-0.25c0.03-0.04,0.03-0.07,0-0.11c-0.05-0.07-0.11-0.15-0.16-0.22C255.49,8.57,254.87,8.54,254.25,8.52z
			 M229.75,16c-1,0.09-2.03,0.26-3.09,0.49c2.11,0.11,4.02-0.2,5.73-0.93C231.55,15.61,230.67,15.76,229.75,16z M236.98,9.07
			c0.68,0.07,1.25,0.01,1.71-0.19C238.04,8.83,237.47,8.89,236.98,9.07z M314.5,3.37c0.16,0.02,0.31,0.03,0.45,0.03
			c-0.05-0.05-0.12-0.1-0.2-0.14c-0.08,0.02-0.15,0.05-0.2,0.08C314.54,3.36,314.53,3.37,314.5,3.37z M334.05,2.45
			c-1.81-0.24-3.75-0.17-5.81,0.19C330.27,2.81,332.2,2.75,334.05,2.45z"/>
	</g>
	<g>
		<path fill-rule="evenodd" clip-rule="evenodd" fill="#FFFFFF" fill-opacity="0.7373" d="M482.11,18.22
			c1.44,0.46,2.87,0.59,4.31,0.41C485.07,18.36,483.63,18.22,482.11,18.22z M488.33,12.84c0.3,0.11,0.6,0.21,0.89,0.3
			c2.38,0.18,4.88-0.11,7.48-0.88c-1.76-0.91-4.23-1.03-7.4-0.35c-0.16,0.02-0.35,0.07-0.57,0.17c-0.38,0.13-0.53,0.34-0.45,0.63
			C488.29,12.74,488.3,12.78,488.33,12.84z M479.03,15.04c-0.03-0.04-0.05-0.05-0.08-0.05c-1.22-0.27-2.45-0.47-3.7-0.6
			c1.25,0.42,2.44,0.66,3.58,0.71C478.9,15.07,478.97,15.06,479.03,15.04z M443.43,15.24c-0.03,0.05-0.03,0.08,0,0.08
			c0.08,0.04,0.15,0.07,0.2,0.11c0.22-0.09,0.43-0.21,0.65-0.36C443.99,15.11,443.7,15.17,443.43,15.24z M410.89,14.84
			c0,0.05,0.01,0.09,0.04,0.11c1.9,0.91,3.74,1,5.53,0.25c-1.73-0.37-3.59-0.5-5.57-0.41C410.89,14.8,410.89,14.82,410.89,14.84z
			 M393.94,7.98c1.14,0.24,2.18,0.25,3.13,0.03c-1.08-0.42-2.25-0.68-3.49-0.77c-0.08,0.13-0.09,0.27-0.04,0.41
			c0,0.06,0.01,0.1,0.04,0.14C393.68,7.9,393.8,7.96,393.94,7.98z M405.4,6.63l0.04,0.05c1.38,1.79,3.67,2.07,6.87,0.82
			C410.54,6.52,408.24,6.23,405.4,6.63z M374.84,7.63c1.33,0.27,2.61,0.28,3.86,0.03C377.59,7.36,376.31,7.35,374.84,7.63z
			 M388.54,7.98c0.46-0.11,0.88-0.29,1.26-0.55c-0.35,0.05-0.72,0.12-1.1,0.19c-0.54-0.05-0.73-0.03-0.57,0.08
			C388.26,7.8,388.4,7.89,388.54,7.98z M558.78,5.81c0.98,0.48,1.91,0.72,2.8,0.74c0.84-0.13,1.65-0.38,2.44-0.74
			c0-0.05-0.01-0.09-0.04-0.11c-1.08-0.44-2.28-0.7-3.58-0.79c-0.27,0.04-0.56,0.1-0.85,0.19v0.03c-0.43,0.07-0.69,0.25-0.77,0.52
			C558.75,5.7,558.75,5.76,558.78,5.81z M553.02,16.22c-0.24,0.02-0.5,0.05-0.77,0.08c0.16,0.07,0.35,0.14,0.57,0.19
			c0.05-0.05,0.11-0.11,0.16-0.16C553,16.29,553.02,16.26,553.02,16.22z M550.74,8.89c0.43-0.02,0.87-0.06,1.3-0.11
			c-0.13-0.16-0.38-0.31-0.73-0.44c0,0.02,0,0.04,0,0.05C551.04,8.56,550.85,8.73,550.74,8.89z M504.05,16.62
			c-0.95-0.2-1.96-0.33-3.05-0.38c-0.08,0.02-0.15,0.05-0.2,0.08c-0.08,0.02-0.14,0.05-0.16,0.08c-0.24,0.17-0.33,0.37-0.24,0.6
			c0.03,0.09,0.07,0.19,0.12,0.3C501.71,17.47,502.89,17.24,504.05,16.62z M497.43,1.58c-0.03,0.06-0.04,0.12-0.04,0.19
			c-0.03,0.04-0.04,0.08-0.04,0.14c0,0.16,0.11,0.29,0.33,0.38c2.76,0.93,4.94,0.9,6.54-0.11C502.24,1.47,499.97,1.27,497.43,1.58z
			 M515.22,1.79c0.03,0.05,0.07,0.11,0.12,0.16c1.46,0.44,3.01,0.53,4.63,0.27c0.27-0.07,0.53-0.14,0.77-0.19
			c0-0.02-0.01-0.04-0.04-0.06c-1.84-0.46-3.75-0.69-5.73-0.71C515.01,1.42,515.09,1.59,515.22,1.79z M544.32,2.41
			c0.24-0.04,0.47-0.07,0.69-0.11c0.35-0.33,0.45-0.62,0.28-0.88c-0.41-0.07-0.81-0.14-1.22-0.19
			C543.64,1.62,543.72,2.01,544.32,2.41z M559.27,1.17c1.54,0.44,3.24,0.26,5.08-0.52c0-0.06-0.03-0.09-0.08-0.11
			c-1.11-0.49-2.33-0.72-3.66-0.69c-0.14,0.02-0.27,0.04-0.41,0.06c-0.27,0.02-0.51,0.13-0.73,0.33
			C559.17,0.55,559.11,0.86,559.27,1.17z M438.27,1.13c-1.57-0.44-3.49-0.42-5.77,0.06c-0.27,0.02-0.37,0.07-0.28,0.17
			c0.03,0.02,0.04,0.05,0.04,0.08C434.42,1.58,436.42,1.48,438.27,1.13z M450.5,1.37c-0.68-0.55-1.6-0.79-2.76-0.71
			c0.52,0.6,1.22,0.97,2.11,1.1c0.22-0.07,0.43-0.17,0.65-0.27C450.52,1.45,450.52,1.41,450.5,1.37z M470.98,1.15
			c-0.08,0-0.16,0-0.24,0c-0.27,0.04-0.45,0.13-0.53,0.27C470.47,1.33,470.73,1.24,470.98,1.15z"/>
	</g>
	<g>
		<path fill-rule="evenodd" clip-rule="evenodd" fill="#FFFFFF" fill-opacity="0.7373" d="M751.83,15.11
			c-0.08-0.06-0.16-0.08-0.24-0.08c-0.7-0.05-1.41-0.09-2.11-0.11c-0.03,0.06-0.04,0.11-0.04,0.17c0.81,0.62,1.64,0.94,2.48,0.96
			c0.19-0.26,0.19-0.52,0-0.8C751.88,15.2,751.85,15.15,751.83,15.11z M740.81,8.77c-0.33,0.42-0.01,0.78,0.93,1.07
			c0.05-0.04,0.09-0.07,0.12-0.11c0.3-0.33,0.39-0.62,0.28-0.88C741.72,8.82,741.27,8.79,740.81,8.77z M725.25,14.99h-0.04
			c-0.73-0.06-1.3,0.11-1.71,0.49l-0.04,0.03C724.09,15.4,724.69,15.22,725.25,14.99z M728.99,15.59c0.08,0.04,0.18,0.07,0.29,0.11
			c0-0.04-0.01-0.08-0.04-0.14c-0.16-0.27-0.39-0.49-0.69-0.63C728.46,15.24,728.61,15.46,728.99,15.59z M722.12,9.33
			c-0.03-0.02-0.05-0.04-0.08-0.05c-1.17-0.66-2.52-0.97-4.06-0.93C719.39,8.89,720.77,9.22,722.12,9.33z M709.37,14.85
			c-0.41,0.13-0.77,0.31-1.1,0.55c-0.03,0.02-0.04,0.05-0.04,0.11c0.03,0.09,0.09,0.16,0.2,0.19c0.33,0.11,0.65,0.2,0.98,0.27
			C709.76,15.56,709.75,15.18,709.37,14.85z M690.76,15.52c1.27,0.33,2.46,0.54,3.58,0.63C693.55,15.47,692.36,15.26,690.76,15.52z
			 M697.14,14.91c-0.92,0.59-0.85,0.97,0.2,1.15c0.13-0.02,0.26-0.04,0.37-0.05c0.41-0.51,0.22-0.89-0.57-1.13V14.91z M703.15,7.88
			c0,0.02,0.01,0.04,0.04,0.05c2.55,1.34,5.49,1.44,8.82,0.33C709.32,7.4,706.37,7.28,703.15,7.88z M695.79,9.01
			c-0.08,0.02-0.15,0.05-0.2,0.08c-0.19,0.15-0.34,0.28-0.45,0.41c0.35-0.07,0.7-0.17,1.06-0.27
			C696.09,9.16,695.96,9.08,695.79,9.01z M689.74,9.15c0.3,0.11,0.61,0.21,0.93,0.3c-0.05-0.37-0.33-0.7-0.81-0.99
			c-0.11,0.05-0.19,0.13-0.24,0.22c-0.03,0.05-0.05,0.11-0.08,0.16C689.51,8.99,689.58,9.09,689.74,9.15z M681.98,14.83
			c-0.05,0.02-0.09,0.05-0.12,0.08c-0.35,0.33-0.55,0.62-0.61,0.88c0.46-0.02,0.91-0.05,1.34-0.08
			C682.54,15.4,682.33,15.11,681.98,14.83z M678.53,8.66c-0.43,0.04-0.87,0.08-1.3,0.14c0,0.02-0.01,0.03-0.04,0.03
			c-0.35,0.04-0.51,0.19-0.49,0.47c0,0.05,0.01,0.11,0.04,0.16c0,0.06,0.01,0.1,0.04,0.14c0,0.06,0.01,0.11,0.04,0.16
			c0.08,0.09,0.18,0.16,0.28,0.19c0.73,0.18,1.42,0.31,2.07,0.38c0.92-0.2,1.84-0.47,2.76-0.8c-0.03-0.06-0.07-0.09-0.12-0.11
			C680.76,9.06,679.66,8.8,678.53,8.66z M667.96,14.73c-3.3-0.64-6.77-0.82-10.4-0.55c0.03,0.07,0.08,0.13,0.16,0.16
			C661.11,15.43,664.52,15.55,667.96,14.73z M669.79,9.29c-0.05,0.04-0.08,0.08-0.08,0.14c0.65,0.31,1.33,0.57,2.03,0.77
			c0.89-0.22,1.64-0.57,2.23-1.04c-0.13-0.04-0.26-0.07-0.37-0.11c-0.22-0.09-0.45-0.16-0.69-0.22c-0.13,0.02-0.27,0.04-0.41,0.05
			C671.21,8.55,670.3,8.69,669.79,9.29z M638.5,14.82c-0.14,0.02-0.2,0.08-0.2,0.19c0,0.04,0,0.08,0,0.14
			c0.79,0.16,1.58,0.29,2.4,0.38c0.14-0.05,0.26-0.11,0.37-0.16c-0.03-0.04-0.07-0.07-0.12-0.11
			C640.21,14.89,639.4,14.75,638.5,14.82z M651.51,9.08c-0.62-0.15-1.25-0.27-1.87-0.38c-0.03,0.05-0.04,0.11-0.04,0.16
			c0,0.04,0.03,0.06,0.08,0.08c0.38,0.18,0.75,0.35,1.1,0.49c0.27-0.07,0.54-0.16,0.81-0.25C651.59,9.13,651.56,9.1,651.51,9.08z
			 M647.97,9.71c-0.03-0.05-0.07-0.1-0.12-0.14c-1.35-0.9-3.16-1.1-5.4-0.6c0.98,0.9,2.47,1.29,4.47,1.18
			C647.27,10.02,647.62,9.88,647.97,9.71z M754.59,15.2c0-0.05-0.01-0.1-0.04-0.14c-0.03-0.05-0.07-0.1-0.12-0.14
			c0.03,0.07,0.07,0.15,0.12,0.22C754.55,15.16,754.56,15.18,754.59,15.2z M753.17,8.8c0.08-0.04,0.16-0.08,0.24-0.14
			c0.38-0.27,0.57-0.53,0.57-0.77c-0.38-0.24-0.81-0.39-1.3-0.47C752.19,7.94,752.35,8.4,753.17,8.8z M628.63,2.33
			c-1.71-0.35-3.59-0.44-5.65-0.27C624.28,3.03,626.16,3.12,628.63,2.33z M673.93,2.59c0.08-0.02,0.14-0.05,0.16-0.08
			c0.27-0.22,0.39-0.42,0.37-0.6c-0.38-0.04-0.77-0.06-1.18-0.08C673.15,2.04,673.36,2.3,673.93,2.59z M741.38,2.38
			c0.6-0.7,0.57-1.29-0.08-1.78c-1.14,0.6-1.14,1.23,0,1.87C741.33,2.42,741.35,2.4,741.38,2.38z M749.91-0.18
			c0.95,0.22,1.88,0.27,2.8,0.16C751.85-0.22,750.92-0.27,749.91-0.18z M620.91,14.83c-1.6-0.6-3.33-0.77-5.2-0.49
			c-0.35,0.02-0.49,0.07-0.41,0.17c1.03,1.41,2.93,1.55,5.69,0.44C620.97,14.88,620.94,14.84,620.91,14.83z M597.59,15.33v0.03
			c2.33,0.35,4.77,0.19,7.31-0.47c-1.87-0.24-3.86-0.24-5.97,0c-0.35-0.02-0.72,0.05-1.1,0.22
			C597.7,15.16,597.62,15.24,597.59,15.33z M587.72,14.95c-0.03-0.04-0.05-0.06-0.08-0.08c-0.16-0.13-0.34-0.24-0.53-0.33
			c-0.51,0.04-1.06,0.12-1.63,0.25c-0.81-0.13-1.48,0.01-1.99,0.41c-0.03,0.04-0.04,0.08-0.04,0.14c0.22,0.13,0.45,0.25,0.69,0.36
			C585.33,15.54,586.52,15.29,587.72,14.95z M567.81,15.12c0,0.07,0,0.16,0,0.27c0.03,0.05,0.04,0.11,0.04,0.16
			c1.65,0.79,3.16,0.87,4.51,0.25C571.08,15.25,569.57,15.03,567.81,15.12z M565,8.89c0.89,0.22,1.8,0.26,2.72,0.11
			C566.86,8.87,565.95,8.83,565,8.89z M566.58,2.1c-0.03,0-0.05,0-0.08,0c1.17,0.49,2.55,0.52,4.15,0.08
			c-0.03-0.04-0.05-0.06-0.08-0.08c-0.46-0.11-0.93-0.19-1.42-0.25C568.36,1.86,567.5,1.94,566.58,2.1z M580.4,2.76
			c0.6-0.18,1.22-0.43,1.87-0.74V1.99c-0.7,0.11-1.31,0.35-1.83,0.71L580.4,2.76z M590.76,2.87c0.05-0.02,0.09-0.04,0.12-0.05
			c-0.11-0.04-0.2-0.08-0.28-0.14c-0.73-0.35-1.53-0.59-2.4-0.71C588.74,2.77,589.59,3.07,590.76,2.87z M609.29,2.78
			c-1.3-0.51-2.76-0.76-4.39-0.74C606.31,2.73,607.77,2.98,609.29,2.78z M614.45,2.94c-0.08,0.22-0.01,0.41,0.2,0.58
			c0.22-0.07,0.43-0.16,0.65-0.25c-0.03-0.04-0.05-0.06-0.08-0.08C614.98,3.1,614.72,3.01,614.45,2.94z"/>
	</g>
	<g>
		<path fill-rule="evenodd" clip-rule="evenodd" fill="#FFFFFF" fill-opacity="0.7373" d="M930,10.31v0.03
			c-0.38,0.07-0.62,0.22-0.73,0.44c0.51,0.04,1.02-0.18,1.5-0.66C930.52,10.17,930.27,10.23,930,10.31z M930.65,5.12
			c-0.27,0.02-0.52,0.13-0.73,0.33c-0.35,0.37-0.38,0.73-0.08,1.1c1.68,0.09,3.22-0.19,4.63-0.85c0-0.05-0.01-0.09-0.04-0.11
			c-0.7-0.29-1.46-0.5-2.28-0.63C931.66,4.97,931.16,5.03,930.65,5.12z M933.29,7.18c-0.03,0.02-0.05,0.04-0.08,0.06
			c0.24,0,0.47-0.01,0.69-0.03c-0.11-0.05-0.22-0.11-0.33-0.16C933.44,7.06,933.34,7.1,933.29,7.18z M892.42,19.1
			c2.47,0.27,4.71,0,6.75-0.83c-1.82-0.68-3.89-0.83-6.22-0.46c-0.95-0.11-1.71,0.07-2.27,0.55c-0.05,0.02-0.08,0.05-0.08,0.11
			C891.21,18.73,891.82,18.94,892.42,19.1z M900.13,7.68c0.14,0.11,0.31,0.22,0.53,0.33c0.08-0.02,0.15-0.05,0.2-0.08
			c0.16-0.11,0.29-0.21,0.37-0.3C900.88,7.63,900.51,7.64,900.13,7.68z M886.32,7.3c1.19,0.27,2.44,0.34,3.74,0.19
			C888.84,7.31,887.59,7.25,886.32,7.3z M892.94,2.58c0.11-0.04,0.19-0.08,0.24-0.14c0.22-0.18,0.34-0.37,0.37-0.55
			c-0.13,0.04-0.3,0.06-0.49,0.08c-0.24,0.04-0.47,0.08-0.69,0.14C892.48,2.26,892.67,2.41,892.94,2.58z M907.85,1.53
			c-0.03,0.05-0.04,0.1-0.04,0.14c2.98,1.01,6.18,1.02,9.59,0.05c0-0.04-0.03-0.06-0.08-0.08c-1.46-0.38-2.98-0.59-4.55-0.63
			c-1.08,0-2.21,0.07-3.37,0.22c-0.41-0.07-0.79-0.09-1.14-0.05C908.09,1.24,907.96,1.36,907.85,1.53z M929.18,0.86
			c1.49,0.57,3.1,0.56,4.84-0.03c-0.73-0.09-1.52-0.08-2.36,0.03C930.85,0.88,930.02,0.88,929.18,0.86z M872.87,16.75
			c-0.81,0.09-1.5,0.24-2.07,0.44c1.33,0.2,2.64-0.06,3.94-0.8c-0.43,0.07-0.88,0.17-1.34,0.28v0.03
			C873.24,16.71,873.06,16.73,872.87,16.75z M859.18,17.83c-1.38-0.48-2.88-0.68-4.51-0.6v0.03c1.22,0.46,2.45,0.78,3.7,0.96
			c0.3-0.07,0.6-0.17,0.89-0.27C859.23,17.88,859.21,17.84,859.18,17.83z M865.27,12.11c-0.03-0.05-0.07-0.09-0.12-0.11
			c-0.84-0.29-1.72-0.49-2.64-0.6c-0.84,0.04-1.76,0.17-2.76,0.38c-0.16,0.02-0.35,0.07-0.57,0.17c-0.38,0.13-0.53,0.34-0.45,0.63
			c0,0.04,0.01,0.08,0.04,0.14c0.16,0.06,0.31,0.11,0.45,0.17C861.49,13.19,863.51,12.94,865.27,12.11z M862.71,16.56
			c0.03-0.05,0.05-0.1,0.08-0.14c-0.27-0.02-0.54-0.03-0.81-0.03c0.16,0.09,0.37,0.18,0.61,0.27
			C862.64,16.63,862.69,16.6,862.71,16.56z M823.83,17.37c-0.19,0.04-0.29,0.14-0.28,0.3c0.49,0.27,0.96,0.49,1.42,0.63
			c1.11-0.04,2.23-0.13,3.37-0.28c0.49-0.07,0.88-0.19,1.18-0.36c-0.03-0.05-0.05-0.1-0.08-0.14c-0.73-0.71-1.9-0.9-3.5-0.55
			C825.29,17.06,824.59,17.19,823.83,17.37z M818.05,4.82c-0.32,0.02-0.46,0.09-0.41,0.22c0.05,0.13,0.11,0.25,0.16,0.36
			c2.36,0.49,4.75,0.46,7.19-0.08c-0.03-0.04-0.05-0.05-0.08-0.05c-1.95-0.4-3.94-0.6-5.97-0.6C818.65,4.7,818.35,4.75,818.05,4.82z
			 M756.87,17.17l-0.04,0c-0.05,0.09-0.11,0.19-0.16,0.3c0.22,0.11,0.42,0.21,0.61,0.3c1.11,0.27,2.22,0.46,3.33,0.55
			c1-0.07,2-0.36,3.01-0.85c-0.13-0.04-0.26-0.08-0.37-0.14c-0.57-0.26-1.21-0.42-1.91-0.49C759.87,16.86,758.38,16.97,756.87,17.17
			z M755.32,1.36c-0.3,0-0.47,0.03-0.53,0.08c1.49,0.75,3.59,0.79,6.3,0.11c0.16-0.04,0.31-0.08,0.45-0.14
			C759.88,0.83,757.81,0.81,755.32,1.36z M769.17,1.49c0.95,0.15,1.91,0.18,2.88,0.11C771.22,1.32,770.26,1.29,769.17,1.49z
			 M791.24,1.29c-1.17-0.35-2.59-0.34-4.27,0.03c-0.76-0.16-1.34-0.08-1.75,0.25C787.47,1.86,789.48,1.77,791.24,1.29z M819.68,1.86
			c0.41-0.11,0.83-0.27,1.26-0.49c0.03-0.04,0.03-0.07,0-0.11c-0.87-0.71-2.14-0.91-3.82-0.58c-0.35-0.02-0.5,0.06-0.45,0.22
			c0.13,0.37,0.34,0.65,0.61,0.85C818.09,1.8,818.89,1.84,819.68,1.86z M835.4,1.52c-0.03-0.06-0.05-0.08-0.08-0.08
			c-1.92-0.38-3.91-0.53-5.97-0.44c0,0.02,0,0.04,0,0.05c0,0.06,0.01,0.11,0.04,0.17c0,0.04,0,0.08,0,0.14
			c0.05,0.05,0.11,0.09,0.16,0.11c0.81,0.2,1.6,0.36,2.36,0.47C833.05,1.97,834.21,1.84,835.4,1.52z M854.34,1.33v0.03
			c-0.6,0.2-0.81,0.44-0.65,0.71c0.41-0.04,0.8-0.07,1.18-0.11C854.89,1.72,854.72,1.51,854.34,1.33z M874.25,2.12
			c0.33,0.07,0.66,0.15,1.02,0.22c-0.03-0.06-0.07-0.09-0.12-0.11c-0.3-0.13-0.61-0.24-0.93-0.33c0,0.02,0,0.05,0,0.08
			C874.23,2.01,874.25,2.06,874.25,2.12z M878.92,1.45c-0.62,0.62-0.47,1.02,0.45,1.18c0.05-0.04,0.09-0.07,0.12-0.11
			c0.49-0.46,0.37-0.84-0.37-1.15C879.01,1.39,878.95,1.42,878.92,1.45z M882.7,2.33c0.62-0.11,1.25-0.25,1.87-0.41
			c-0.03-0.06-0.05-0.08-0.08-0.08c-0.62-0.15-1.26-0.27-1.91-0.36c-0.03,0.07-0.05,0.16-0.08,0.25c-0.03,0.09-0.04,0.19-0.04,0.3
			c0.03,0.05,0.04,0.1,0.04,0.14C882.58,2.24,882.64,2.3,882.7,2.33z"/>
	</g>
</g>
</svg>
