<?xml version="1.0" encoding="utf-8"?>
<!-- Generator: Adobe Illustrator 16.0.0, SVG Export Plug-In . SVG Version: 6.00 Build 0)  -->
<!DOCTYPE svg PUBLIC "-//W3C//DTD SVG 1.1//EN" "http://www.w3.org/Graphics/SVG/1.1/DTD/svg11.dtd">
<svg version="1.1" id="Layer_1" xmlns="http://www.w3.org/2000/svg" xmlns:xlink="http://www.w3.org/1999/xlink" x="0px" y="0px"
	 width="776px" height="735px" viewBox="0 0 776 735" enable-background="new 0 0 776 735" xml:space="preserve">
<g>
	<g>
		<rect y="317.7" fill-rule="evenodd" clip-rule="evenodd" fill="#271E14" width="778.7" height="419.05"/>
	</g>
	<g>
		<linearGradient id="SVGID_1_" gradientUnits="userSpaceOnUse" x1="389.3086" y1="331.4473" x2="390.8269" y2="-1.4762">
			<stop  offset="0" style="stop-color:#202B35"/>
			<stop  offset="1" style="stop-color:#3C5063"/>
		</linearGradient>
		<rect x="1" y="0.15" fill-rule="evenodd" clip-rule="evenodd" fill="url(#SVGID_1_)" width="778.45" height="260.35"/>
	</g>
	<g>
		<linearGradient id="SVGID_2_" gradientUnits="userSpaceOnUse" x1="389.6768" y1="280.4902" x2="389.8037" y2="234.7399">
			<stop  offset="0" style="stop-color:#000000"/>
			<stop  offset="1" style="stop-color:#010101;stop-opacity:0"/>
		</linearGradient>
		<rect x="0.4" y="132.25" fill-rule="evenodd" clip-rule="evenodd" fill="url(#SVGID_2_)" width="778.85" height="190.1"/>
	</g>
	<g>
		<g>
			
				<path fill-rule="evenodd" clip-rule="evenodd" fill="none" stroke="#3E2F20" stroke-width="4" stroke-linecap="round" stroke-linejoin="round" stroke-miterlimit="3" d="
				M704.2,664.15v59.9h-315v-58.9 M347.85,665.15v58.9h-315v-2.3v-56.6"/>
			
				<path fill-rule="evenodd" clip-rule="evenodd" fill="none" stroke="#16100C" stroke-width="4" stroke-linecap="round" stroke-linejoin="round" stroke-miterlimit="3" d="
				M32.85,721.75h-2.1v-56.6 M345.75,665.15v56.6H32.85"/>
		</g>
	</g>
	<g>
		
			<polyline fill-rule="evenodd" clip-rule="evenodd" fill="none" stroke="#16100C" stroke-width="4" stroke-linecap="round" stroke-linejoin="round" stroke-miterlimit="3" points="
			702.15,670.15 702.15,721.75 387.15,721.75 387.15,670.15 		"/>
	</g>
	<g>
		<rect x="0.3" y="674.25" fill-rule="evenodd" clip-rule="evenodd" fill="#493A25" width="779.75" height="14.35"/>
	</g>
	<g>
		<line fill-rule="evenodd" clip-rule="evenodd" fill="none" x1="20.7" y1="673.75" x2="738.95" y2="673.75"/>
	</g>
	<g>
		
			<linearGradient id="SVGID_3_" gradientUnits="userSpaceOnUse" x1="-143.8452" y1="-573.2661" x2="103.9048" y2="-573.2661" gradientTransform="matrix(4.036327e-006 1 -1 -7.443641e-003 -2.709614e-004 1.647249e-004)">
			<stop  offset="0" style="stop-color:#FEFDDF;stop-opacity:0.251"/>
			<stop  offset="0.9765" style="stop-color:#FEF9D3;stop-opacity:0"/>
		</linearGradient>
		<path fill-rule="evenodd" clip-rule="evenodd" fill="url(#SVGID_3_)" d="M658.9,0.9L763.55,103c8.73,13.6-41.15,27.33-149.65,41.2
			c-108.57,13.87-177.25,8.22-206.05-16.95c-28.77-25.27-33.52-44.77-14.25-58.5C435.8,32.45,460.45,9.53,467.55,0L658.9,0.9z"/>
	</g>
	<g>
		
			<linearGradient id="SVGID_4_" gradientUnits="userSpaceOnUse" x1="-141.0547" y1="-198.3984" x2="106.6953" y2="-198.3984" gradientTransform="matrix(4.036327e-006 1 -1 -7.443641e-003 -2.709614e-004 1.647249e-004)">
			<stop  offset="0" style="stop-color:#FEFDDF;stop-opacity:0.251"/>
			<stop  offset="0.9765" style="stop-color:#FEF9D3;stop-opacity:0"/>
		</linearGradient>
		<path fill-rule="evenodd" clip-rule="evenodd" fill="url(#SVGID_4_)" d="M284,0.9L388.7,103c8.73,13.6-41.17,27.33-149.7,41.2
			c-108.57,13.87-177.23,8.22-206-16.95C4.23,101.98-0.55,82.48,18.65,68.75C60.92,32.45,85.58,9.53,92.65,0L284,0.9z"/>
	</g>
	<g>
		<linearGradient id="SVGID_5_" gradientUnits="userSpaceOnUse" x1="0.2998" y1="460.75" x2="780.0498" y2="460.75">
			<stop  offset="0" style="stop-color:#B99657"/>
			<stop  offset="0.2196" style="stop-color:#B08136"/>
			<stop  offset="0.5255" style="stop-color:#A67521"/>
			<stop  offset="0.6941" style="stop-color:#8E6013"/>
			<stop  offset="1" style="stop-color:#8D6013"/>
		</linearGradient>
		<rect x="0.3" y="247.15" fill-rule="evenodd" clip-rule="evenodd" fill="url(#SVGID_5_)" width="779.75" height="427.2"/>
	</g>
</g>
</svg>
