<?xml version="1.0" encoding="utf-8"?>
<!-- Generator: Adobe Illustrator 16.0.0, SVG Export Plug-In . SVG Version: 6.00 Build 0)  -->
<!DOCTYPE svg PUBLIC "-//W3C//DTD SVG 1.1//EN" "http://www.w3.org/Graphics/SVG/1.1/DTD/svg11.dtd">
<svg version="1.1" id="Layer_1" xmlns="http://www.w3.org/2000/svg" xmlns:xlink="http://www.w3.org/1999/xlink" x="0px" y="0px"
	 width="15.88px" height="15px" viewBox="0 0 15.88 15" enable-background="new 0 0 15.88 15" xml:space="preserve">
<g>
	<path fill-rule="evenodd" clip-rule="evenodd" fill="#FFFFFF" fill-opacity="0.498" d="M13.35,12.37c-1.06,1.06-2.36,1.6-3.88,1.6
		s-2.84-0.53-3.95-1.6c-1.06-1.06-1.6-2.36-1.6-3.88c0-1.52,0.53-2.81,1.6-3.88c1.12-1.06,2.43-1.6,3.95-1.6s2.81,0.53,3.88,1.6
		c1.06,1.06,1.6,2.36,1.6,3.88C14.95,10.01,14.42,11.31,13.35,12.37z"/>
	<path fill-rule="evenodd" clip-rule="evenodd" d="M10.25,10.02c-1.06,1.06-2.36,1.6-3.88,1.6c-1.52,0-2.84-0.53-3.95-1.6
		c-1.06-1.07-1.6-2.36-1.6-3.88s0.53-2.81,1.6-3.88c1.12-1.06,2.43-1.6,3.95-1.6c1.52,0,2.81,0.53,3.88,1.6
		c1.06,1.06,1.6,2.36,1.6,3.88S11.32,8.96,10.25,10.02z"/>
	<path fill-rule="evenodd" clip-rule="evenodd" fill="#02D22C" d="M11.9,11.27c-1.06,1.06-2.36,1.6-3.88,1.6
		c-1.52,0-2.84-0.53-3.95-1.6c-1.06-1.07-1.6-2.36-1.6-3.88s0.53-2.81,1.6-3.88c1.12-1.06,2.43-1.6,3.95-1.6
		c1.52,0,2.81,0.53,3.88,1.6c1.06,1.06,1.6,2.36,1.6,3.88S12.97,10.21,11.9,11.27z"/>
	
		<path fill-rule="evenodd" clip-rule="evenodd" fill="none" stroke="#016314" stroke-width="0.1" stroke-linecap="round" stroke-linejoin="round" stroke-miterlimit="3" d="
		M11.9,11.27c-1.06,1.06-2.36,1.6-3.88,1.6c-1.52,0-2.84-0.53-3.95-1.6c-1.06-1.07-1.6-2.36-1.6-3.88s0.53-2.81,1.6-3.88
		c1.12-1.06,2.43-1.6,3.95-1.6c1.52,0,2.81,0.53,3.88,1.6c1.06,1.06,1.6,2.36,1.6,3.88S12.97,10.21,11.9,11.27z"/>
	<path fill-rule="evenodd" clip-rule="evenodd" fill="#FFFFFF" d="M8.28,5.65C7.9,5.92,7.43,6.06,6.88,6.06S5.86,5.92,5.46,5.65
		c-0.38-0.27-0.57-0.6-0.57-0.99c0-0.39,0.19-0.72,0.57-0.99c0.4-0.27,0.88-0.41,1.42-0.41S7.9,3.39,8.28,3.67
		c0.38,0.27,0.58,0.6,0.58,0.99C8.85,5.05,8.66,5.38,8.28,5.65z"/>
	<path fill-rule="evenodd" clip-rule="evenodd" fill="#FFFFFF" d="M11.82,6.26c-0.19,0.19-0.42,0.29-0.67,0.29
		c-0.22,0-0.43-0.1-0.62-0.29c-0.19-0.16-0.29-0.37-0.29-0.62c0-0.26,0.1-0.48,0.29-0.67c0.19-0.16,0.4-0.24,0.62-0.24
		c0.26,0,0.48,0.08,0.67,0.24c0.19,0.19,0.29,0.42,0.29,0.67C12.1,5.89,12.01,6.1,11.82,6.26z"/>
</g>
</svg>
