<?xml version="1.0" encoding="utf-8"?>
<!-- Generator: Adobe Illustrator 16.0.0, SVG Export Plug-In . SVG Version: 6.00 Build 0)  -->
<!DOCTYPE svg PUBLIC "-//W3C//DTD SVG 1.1//EN" "http://www.w3.org/Graphics/SVG/1.1/DTD/svg11.dtd">
<svg version="1.1" id="Layer_2" xmlns="http://www.w3.org/2000/svg" xmlns:xlink="http://www.w3.org/1999/xlink" x="0px" y="0px"
	 width="837px" height="850px" viewBox="0 0 837 850" enable-background="new 0 0 837 850" xml:space="preserve">
<line fill="none" stroke="#930000" stroke-linecap="round" stroke-linejoin="round" stroke-miterlimit="3" stroke-opacity="0" x1="396.59" y1="170.07" x2="399.99" y2="170.07"/>
<g>
	<g>
		<g>
			
				<linearGradient id="SVGID_1_" gradientUnits="userSpaceOnUse" x1="584.7236" y1="412.6379" x2="666.7971" y2="-136.1822" gradientTransform="matrix(1 0 0 -1 -160.5 721.0259)">
				<stop  offset="0" style="stop-color:#393C4C"/>
				<stop  offset="1" style="stop-color:#676A87"/>
			</linearGradient>
			<rect x="-31.24" y="-70.04" fill="url(#SVGID_1_)" width="945.95" height="991.06"/>
		</g>
		<g>
			
				<linearGradient id="SVGID_2_" gradientUnits="userSpaceOnUse" x1="422.7021" y1="224.967" x2="1425.7581" y2="224.967" gradientTransform="matrix(1 0 0 -1 -481.5 958.0767)">
				<stop  offset="0" style="stop-color:#7D849B"/>
				<stop  offset="1" style="stop-color:#656B81"/>
			</linearGradient>
			<polygon fill="url(#SVGID_2_)" points="-31.24,680.52 912.13,680.52 912.13,788.19 -31.24,788.19 -31.24,680.52 -31.24,678.03 
				912.13,678.03 912.13,680.52 			"/>
			
				<line fill="none" stroke="#FFFFFF" stroke-width="2" stroke-linecap="round" stroke-linejoin="round" stroke-miterlimit="3" stroke-opacity="0.2588" x1="-31.24" y1="680.52" x2="912.13" y2="680.52"/>
		</g>
		
			<linearGradient id="SVGID_3_" gradientUnits="userSpaceOnUse" x1="599.4453" y1="-183.3948" x2="599.4453" y2="-78.1835" gradientTransform="matrix(1 0 0 -1 -160.5 721.0259)">
			<stop  offset="0" style="stop-color:#0C0B10"/>
			<stop  offset="0.3451" style="stop-color:#252635"/>
			<stop  offset="0.3765" style="stop-color:#8D90AF"/>
			<stop  offset="0.3922" style="stop-color:#676A87"/>
			<stop  offset="1" style="stop-color:#60637E"/>
		</linearGradient>
		<polygon fill="url(#SVGID_3_)" points="909.13,902.9 909.13,785.81 907.5,785.81 -31.24,785.81 -31.24,902.9 		"/>
	</g>
	<g>
		<g>
			<g>
				<path fill="#FFFFFF" d="M394.55,94.02c-7.03,2.34-13.6,4.83-19.72,7.48c0,0.38-0.29,0.75-0.91,1.13
					c-4.24,4.24-6.8,8.32-7.71,12.24c-0.45,2.199-0.86,4.689-1.25,7.479c-0.07,1.59-0.18,3.29-0.34,5.101
					c6.19-1.2,11.72-2.311,16.55-3.29c7.09-1.58,12.87-3.061,17.34-4.421v-0.34c1.061-6.12,1.86-9.75,2.38-10.88
					c0.391-0.609,0.73-2.54,1.021-5.78h2.72l0.57,6.23c0.75,1.2,1.359,4.65,1.81,10.31c0.521,4.46,0.79,7.53,0.79,9.181
					c0,1.2,0,4.35,0,9.41c0,0.39-0.069,1.58-0.229,3.63l-3.061-1.931c0.07-0.75,0.11-1.31,0.11-1.699c0-5.061,0-8.21,0-9.41
					c0-1.65-0.29-4.69-0.91-9.07c-0.07-2.27-0.29-4.189-0.68-5.78c-0.23,1.2-0.45,2.721-0.681,4.53
					c-0.159,1.811-0.29,2.95-0.449,3.4c0,0.29-0.301,1.359-0.91,3.17c-0.3,1.81-0.84,4.38-1.59,7.71c-0.75,3.63-1.07,6.01-0.91,7.14
					c0.39,0.23,0.39,0.57,0,1.021c-0.23,0.16-0.61,0.3-1.13,0.449c-0.29,0.07-0.73,0-1.25-0.229c-0.38-0.16-0.57-0.38-0.57-0.68
					c-0.45-1.2-0.27-3.9,0.57-8.051c0.61-3.109,1.2-6.17,1.81-9.18c-4.69,1.2-10.27,2.54-16.77,3.97
					c-4.83,0.841-10.27,1.86-16.32,3.061c-0.16,0-0.34,0-0.57,0c0,0.39,0,0.79,0,1.25c-0.23,1.74-0.5,3.51-0.79,5.33
					c-0.07,1.52-0.23,2.56-0.45,3.17c1.66,0.16,2.49,0.91,2.49,2.27c0,1.07-0.95,1.88-2.83,2.49l-0.57,0.12
					c-0.16,0.52-0.27,1.02-0.34,1.47l0.11-0.109c-1.2,3.85-2.61,7.029-4.19,9.52c-0.68,0.97-1.4,1.88-2.15,2.72
					c-1.43,1.58-2.99,3.17-4.65,4.761c-4.76,3.63-10.81,7.14-18.13,10.54c-0.52,0.229-0.95,0.27-1.25,0.109
					c-0.29-0.069-0.68-0.27-1.13-0.569c-0.16-0.29-0.16-0.57,0-0.801c0-0.38,0.23-0.68,0.68-0.899
					c5.96-2.721,10.93-5.511,14.85-8.391c2.79-1.97,5.1-3.97,6.91-6.01c2.04-2.27,3.67-5.28,4.88-9.07
					c0.29-0.609,0.45-1.199,0.45-1.81c0,0.23-0.16,0.34-0.45,0.34c-0.68,0.61-1.43,1.09-2.27,1.47c-0.16,0-0.29,0.12-0.45,0.341
					c-2.72,1.199-5.55,1.409-8.5,0.569c-3.24-0.609-5.26-2.83-6.01-6.689c-0.07-1.65-0.12-3.9-0.12-6.69c0-4.6,1.13-8.95,3.4-13.03
					c3.17-4.6,7.71-9.069,13.6-13.369l0.34-0.45c3.33-2.11,7.44-4.58,12.35-7.37c1.06-1.2,3.35-3.29,6.91-6.23
					c3.4-2.88,9.68-5.1,18.81-6.689c0.45-0.07,0.86,0,1.25,0.229c0.521,0.23,0.84,0.521,0.91,0.91c0,0.23-0.18,0.521-0.57,0.91
					c-0.229,0.39-0.52,0.57-0.91,0.57c-8.32,1.29-14.39,3.439-18.25,6.46c4.83-1.88,9.86-3.69,15.07-5.44
					c0.45-0.229,0.79-0.229,1.02,0c0.39,0,0.75,0.18,1.13,0.57c0.07,0.39,0.07,0.75,0,1.13C395.3,93.79,395.01,93.95,394.55,94.02z
					 M357.72,112.38c-4.24,3.109-7.59,6.41-10.09,9.97c-2.79,4.08-4.19,8.43-4.19,13.03c0,4.38,0.18,7.09,0.57,8.16
					c1.06,1.29,3.17,1.93,6.35,1.93h0.57c-0.39-0.9-0.64-1.93-0.79-3.06c-0.07,0-0.11-0.11-0.11-0.341
					c-0.61-0.609-1.29-1.09-2.04-1.47c-0.16-0.229-0.27-0.39-0.34-0.45c0-0.16,0-0.34,0-0.569v-0.57c0-0.39,0.12-0.68,0.34-0.91
					c0.39-0.229,0.75-0.34,1.13-0.34h1.02c0.16,0,0.27,0,0.34,0l0.79-2.04c0.38-1.2,1.7-2.83,3.97-4.87
					c0.45-0.61,0.86-0.97,1.25-1.13c0.16-1.2,0.57-2.65,1.25-4.31c0.29-0.98,0.75-1.99,1.36-3.061c0.29-0.84,0.61-1.63,0.91-2.38
					v-0.23c1.29-2.109,2.31-3.85,3.06-5.21c0.61-3.109,1.25-5.55,1.93-7.369c-1.88,1.199-3.74,2.449-5.55,3.739h0.11
					C358.85,111.43,358.24,111.93,357.72,112.38z M360.67,128.47c0.23,0.16,0.41,0.16,0.57,0c0-1.43,0.05-2.76,0.12-3.97
					c-0.61,1.66-0.91,2.67-0.91,3.06C360.44,127.95,360.51,128.25,360.67,128.47z M359.53,132.89c-0.07,1.88-0.07,4.13,0,6.69h0.23
					c0.16-0.61,0.27-1.2,0.34-1.811c0.39-2.04,0.5-3.56,0.34-4.53c0.16-0.84-0.16-1.13-0.91-0.909
					C359.53,132.4,359.53,132.6,359.53,132.89z M356.47,140.26c-0.23-2.04-0.41-3.97-0.57-5.78c-0.91,0.971-1.63,2.11-2.15,3.4
					c0.23,0.75,0.73,1.359,1.47,1.81C355.61,139.99,356.02,140.19,356.47,140.26z M354.09,145.36c0.75-0.39,1.36-0.75,1.81-1.13
					c-0.45-0.069-1.18-0.18-2.15-0.34C353.75,144.27,353.87,144.75,354.09,145.36z"/>
			</g>
			<g>
				
					<linearGradient id="SVGID_4_" gradientUnits="userSpaceOnUse" x1="75.605" y1="335.5027" x2="224.8105" y2="335.5027" gradientTransform="matrix(-1 0 0 1 616.5 -246.9238)">
					<stop  offset="0.0078" style="stop-color:#2F2F2F"/>
					<stop  offset="0.0863" style="stop-color:#595959"/>
					<stop  offset="0.1333" style="stop-color:#B7B7B7"/>
					<stop  offset="0.1961" style="stop-color:#707070"/>
					<stop  offset="0.4863" style="stop-color:#5E5E5E"/>
					<stop  offset="0.6" style="stop-color:#515151"/>
					<stop  offset="0.7608" style="stop-color:#7B7B7B"/>
					<stop  offset="1" style="stop-color:#202020"/>
				</linearGradient>
				<path fill="url(#SVGID_4_)" d="M397.27,73.62h44.771h81.49h3.51c4.53-0.521,6.979,0.609,7.37,3.399v5.33h-6.12v10.43h6.12v7.48
					c-0.61,2.04-3.061,3.17-7.37,3.4h-5.67h-79.33h-42.39c-3.92-0.23-6.3-1.65-7.141-4.311V81.44
					C392.29,77.52,393.87,74.91,397.27,73.62z"/>
			</g>
			<g>
				
					<linearGradient id="SVGID_5_" gradientUnits="userSpaceOnUse" x1="267.5674" y1="1241.8499" x2="291.8189" y2="1241.8499" gradientTransform="matrix(0.0047 1 1 6.837683e-005 -537.5659 -193.4658)">
					<stop  offset="0" style="stop-color:#000000"/>
					<stop  offset="0.2706" style="stop-color:#CCCCCC"/>
					<stop  offset="0.4275" style="stop-color:#6B6B6B"/>
					<stop  offset="1" style="stop-color:#202020"/>
					<stop  offset="1" style="stop-color:#7B7B7B"/>
				</linearGradient>
				<path fill="url(#SVGID_5_)" d="M883.7,92.77c0,1.75-0.75,2.54-2.271,2.38H722.09H529.19c-2.2-4.689-2.271-9.449-0.23-14.279
					h193.12h159.46c1.2,0.229,1.93,1.06,2.15,2.489v9.41H883.7z"/>
			</g>
			<g>
				<path fill="#EFEFEF" d="M529.87,77.93c-0.16,0.16-0.271,0.34-0.34,0.57h-0.341l-0.229,0.34c0,0.38,0.18,0.63,0.57,0.79
					c0.069,0.229,0.27,0.34,0.569,0.34c0.23,0,0.521-0.07,0.91-0.23l-0.46,0.23c-0.29,0.07-0.61,0.11-0.899,0.11
					c-0.45,0-0.73-0.051-0.79-0.11c-0.391-0.23-0.57-0.52-0.57-0.91c0-0.16,0.18-0.34,0.57-0.57c0.069-0.38,0.34-0.569,0.79-0.569
					h0.22V77.93z M531.92,97.54c-0.3,0.229-0.5,0.41-0.57,0.569c-0.52,0.23-0.909,0.341-1.13,0.341c-0.38,0-0.729-0.11-1.02-0.341
					c-0.38-0.39-0.57-0.68-0.57-0.909c0-0.29,0.18-0.57,0.57-0.79l0.34-0.12c-0.23,0.29-0.34,0.52-0.34,0.68
					c0,0.23,0.16,0.41,0.45,0.57c0.289,0.39,0.609,0.569,0.899,0.569c0.391,0,0.681-0.18,0.91-0.569H531.92L531.92,97.54z"/>
				<path d="M531.92,97.54h-0.45c-0.229,0.39-0.52,0.569-0.91,0.569c-0.29,0-0.609-0.18-0.899-0.569c-0.3-0.16-0.45-0.34-0.45-0.57
					c0-0.16,0.11-0.39,0.34-0.68h0.12c0.29-0.16,0.61-0.23,0.9-0.23c0.39,0,0.68,0.07,0.91,0.23c0.289,0.069,0.449,0.29,0.449,0.68
					C531.92,97.19,531.92,97.38,531.92,97.54z M529.87,77.93h0.229c0.301,0,0.641,0.18,1.021,0.57h0.229v0.34
					c0,0.38-0.069,0.63-0.229,0.79l-0.11,0.109c-0.38,0.16-0.68,0.23-0.91,0.23c-0.289,0-0.5-0.11-0.569-0.34
					c-0.38-0.16-0.57-0.41-0.57-0.79l0.23-0.34h0.34C529.6,78.27,529.71,78.09,529.87,77.93z"/>
			</g>
			<g>
				
					<radialGradient id="SVGID_6_" cx="314.0747" cy="-2.1814" r="2.4635" gradientTransform="matrix(3.4237 0 0 -3.4237 -510.9678 78.2758)" gradientUnits="userSpaceOnUse">
					<stop  offset="0" style="stop-color:#C1C1C1"/>
					<stop  offset="0.3608" style="stop-color:#9A9A9A"/>
					<stop  offset="0.5843" style="stop-color:#717171"/>
					<stop  offset="1" style="stop-color:#202020"/>
					<stop  offset="1" style="stop-color:#7B7B7B"/>
				</radialGradient>
				<path fill="url(#SVGID_6_)" d="M567.16,83.37c1.2,1.199,1.81,2.79,1.81,4.76c0,1.649-0.609,3.109-1.81,4.31
					c-1.2,1.36-2.65,2.04-4.311,2.04c-1.81,0-3.399-0.68-4.76-2.04c-1.29-1.2-1.93-2.77-1.93-4.649c0-1.74,0.64-3.221,1.93-4.42
					c1.36-1.2,2.95-1.811,4.76-1.811C564.51,81.56,565.96,82.17,567.16,83.37z M558.09,85.41v0.569l0.23,0.34l0.229,0.11
					c0.23,0,0.34,0.07,0.34,0.23h0.681l0.569-0.341v-1.25h-0.34V84.84c-0.16,0-0.229-0.07-0.229-0.23h-0.681v0.23h-0.34v0.229
					h-0.229v0.11L558.09,85.41z"/>
				<path fill="#FFFFFF" d="M558.09,85.41l0.23-0.23v-0.11h0.229V84.84h0.34v-0.23h0.681c0,0.16,0.069,0.23,0.229,0.23v0.229h0.34
					v1.25l-0.569,0.341h-0.681c0-0.16-0.109-0.23-0.34-0.23l-0.229-0.11l-0.23-0.34V85.41z"/>
			</g>
			<g>
				
					<linearGradient id="SVGID_7_" gradientUnits="userSpaceOnUse" x1="608.3223" y1="1033.4543" x2="611.9294" y2="1033.4543" gradientTransform="matrix(0.7071 0.7071 0.6924 -0.7218 -737.8693 402.2616)">
					<stop  offset="0" style="stop-color:#E8E8E0"/>
					<stop  offset="1" style="stop-color:#535258"/>
				</linearGradient>
				<path fill="url(#SVGID_7_)" d="M409.74,93.91v-0.23v-0.11c0.39-0.39,0.64-0.68,0.79-0.909c0.68-1.131,1.02-2.431,1.02-3.851
					c0-1.88-0.609-3.439-1.81-4.649c-0.391-0.391-0.681-0.681-0.91-0.91c-0.97-0.61-2.11-0.9-3.4-0.9h-0.34V81.9
					c0.23-0.069,0.57-0.109,1.021-0.109h0.229c1.061,0.069,2.08,0.41,3.061,1.02c0.449,0.29,0.84,0.57,1.13,0.79
					c1.2,1.43,1.819,3.061,1.819,4.87c0,1.29-0.3,2.49-0.909,3.63c-0.29,0.39-0.61,0.68-0.91,0.91
					C410.24,93.39,409.97,93.68,409.74,93.91z"/>
				<path fill="#B4B1AC" d="M409.97,94.47l-0.229-0.57c0.229-0.229,0.5-0.52,0.79-0.91c0.3-0.229,0.609-0.52,0.91-0.909
					c0.609-1.13,0.909-2.341,0.909-3.63c0-1.811-0.609-3.45-1.819-4.87c-0.29-0.23-0.681-0.5-1.13-0.79
					c-0.971-0.61-1.99-0.95-3.061-1.021h-0.229c-0.45,0-0.801,0.04-1.021,0.11c-0.91,0-1.59,0.29-2.04,0.91l-0.569-0.91
					c0.979-0.61,2.149-0.91,3.51-0.91c1.29,0,2.54,0.45,3.74,1.36c0.159,0,0.27,0.04,0.34,0.109c0.29,0.23,0.609,0.5,0.91,0.79
					c1.199,1.431,1.81,3.17,1.81,5.21c0,1.59-0.29,2.9-0.91,3.971c-0.29,0.39-0.61,0.75-0.91,1.13
					C410.53,93.86,410.19,94.18,409.97,94.47z"/>
				
					<linearGradient id="SVGID_8_" gradientUnits="userSpaceOnUse" x1="446.2129" y1="1017.1008" x2="458.6413" y2="1017.1008" gradientTransform="matrix(0.3785 0.9256 0.9043 -0.4306 -685.1377 106.8576)">
					<stop  offset="0" style="stop-color:#3D3D47"/>
					<stop  offset="1" style="stop-color:#33363D"/>
				</linearGradient>
				<path fill="url(#SVGID_8_)" d="M404.53,82.35l4.529,11.67c-0.159,0.29-0.34,0.5-0.569,0.57h-0.23h-0.34l-4.87-11.79h0.34
					c0.16-0.23,0.271-0.38,0.341-0.45C404.12,82.35,404.37,82.35,404.53,82.35z"/>
				<path fill="#6A7579" d="M409.17,93.91c0,0.069-0.04,0.109-0.11,0.109l-4.529-11.67c0.069,0,0.18,0,0.34,0L409.17,93.91z"/>
				<path fill="#31343D" d="M405.09,82.35l4.65,11.33c-0.23,0.16-0.41,0.23-0.57,0.23l-4.31-11.561H405.09z"/>
				
					<linearGradient id="SVGID_9_" gradientUnits="userSpaceOnUse" x1="491.9902" y1="1030.9709" x2="500.46" y2="1030.9709" gradientTransform="matrix(0.4817 0.8764 0.8556 -0.5195 -712.4523 187.4307)">
					<stop  offset="0" style="stop-color:#5F6170"/>
					<stop  offset="1" style="stop-color:#7C7C7C"/>
				</linearGradient>
				<path fill="url(#SVGID_9_)" d="M409.74,93.68l-4.65-11.33h0.34c1.29,0,2.431,0.29,3.4,0.9c0.229,0.229,0.52,0.52,0.91,0.91
					c1.2,1.199,1.81,2.76,1.81,4.649c0,1.43-0.34,2.72-1.02,3.851c-0.16,0.229-0.41,0.52-0.79,0.909V93.68L409.74,93.68z"/>
				
					<linearGradient id="SVGID_10_" gradientUnits="userSpaceOnUse" x1="412.8545" y1="1007.0979" x2="425.7077" y2="1007.0979" gradientTransform="matrix(0.3307 0.9437 0.9348 -0.3561 -677.2723 52.0341)">
					<stop  offset="0" style="stop-color:#666C7A"/>
					<stop  offset="1" style="stop-color:#494E61"/>
				</linearGradient>
				<path fill="url(#SVGID_10_)" d="M403.05,83.25l3.97,11.67c-0.069,0-0.18,0-0.34,0h-0.18c-0.75-0.021-1.43-0.181-2-0.45
					c-0.97-0.39-1.7-0.95-2.15-1.7c-1.199-1.2-1.81-2.72-1.81-4.53V88.13c0-1.811,0.61-3.33,1.81-4.53
					c0.07-0.229,0.29-0.5,0.681-0.79L403.05,83.25L403.05,83.25z"/>
				<polygon fill="#646F71" points="407.59,94.93 403.05,83.25 403.05,82.8 407.93,94.59 407.93,94.93 				"/>
				<path fill="#A9AAAF" d="M403.05,82.8h-0.569c-0.23,0.16-0.45,0.29-0.681,0.45c-0.16,0.069-0.27,0.18-0.34,0.34
					c-0.16,0.07-0.34,0.27-0.57,0.57c-1.13,1.06-1.739,2.489-1.81,4.31c0-1.43,0.34-2.83,1.02-4.19c0.29-0.449,0.61-0.79,0.91-1.02
					c0.29-0.29,0.681-0.61,1.13-0.9c0.16-0.29,0.271-0.449,0.341-0.449L403.05,82.8z"/>
				
					<linearGradient id="SVGID_11_" gradientUnits="userSpaceOnUse" x1="436.998" y1="1011.384" x2="444.1756" y2="1011.384" gradientTransform="matrix(0.3632 0.9317 0.9163 -0.4028 -683.969 86.7592)">
					<stop  offset="0" style="stop-color:#B9BDBE"/>
					<stop  offset="1" style="stop-color:#606068"/>
				</linearGradient>
				<path fill="url(#SVGID_11_)" d="M406.52,94.93c-0.159,0-0.289,0-0.39,0c-1.81,0-3.36-0.64-4.649-1.93
					c-1.2-1.36-1.811-2.88-1.811-4.53c0-1.81,0.61-3.45,1.811-4.87c0.449-0.229,0.789-0.5,1.02-0.79h0.57
					c-0.391,0.29-0.61,0.57-0.681,0.79c-1.199,1.2-1.81,2.72-1.81,4.53v0.109c0,1.811,0.61,3.33,1.81,4.53
					c0.45,0.75,1.181,1.311,2.15,1.7C405.09,94.75,405.75,94.91,406.52,94.93z"/>
				
					<linearGradient id="SVGID_12_" gradientUnits="userSpaceOnUse" x1="605.8008" y1="1028.5022" x2="611.8919" y2="1028.5022" gradientTransform="matrix(0.6977 0.7163 0.6908 -0.724 -731.745 398.5362)">
					<stop  offset="0" style="stop-color:#696E74"/>
					<stop  offset="1" style="stop-color:#424041"/>
				</linearGradient>
				<path fill="url(#SVGID_12_)" d="M401.47,83.59c-1.2,1.43-1.81,3.06-1.81,4.87c0,1.649,0.609,3.17,1.81,4.529
					c1.29,1.29,2.83,1.931,4.65,1.931c0.11,0,0.25,0,0.38,0h0.18c0.16,0,0.271,0,0.34,0v0.229c-0.449,0.16-1.06,0.23-1.81,0.23
					c-0.84,0-1.54-0.16-2.15-0.45c-0.75-0.229-1.43-0.68-2.04-1.36c-1.289-1.359-1.93-2.989-1.93-4.869v-0.23
					c0.07-1.81,0.68-3.24,1.811-4.31C401.13,83.87,401.31,83.66,401.47,83.59c0.07-0.16,0.181-0.271,0.34-0.34
					c0.23-0.16,0.45-0.29,0.681-0.45C402.26,83.1,401.92,83.37,401.47,83.59z"/>
				<path fill="#6B6A70" d="M409.74,93.91l0.229,0.569l-0.229,0.11c-0.23,0-0.41,0-0.57,0l-0.11-0.57c0.091,0,0.181,0,0.341,0
					L409.74,93.91z"/>
				<path fill="#52525A" d="M409.06,94.02c0.07,0,0.11-0.04,0.11-0.109c0.16,0,0.34-0.07,0.57-0.23v0.23l-0.34,0.109
					C409.26,94.02,409.15,94.02,409.06,94.02z"/>
				<path fill="#605D68" d="M407.02,95.15c0.23,0,0.41-0.069,0.57-0.229h0.34v-0.34h0.34v0.569c-0.84,0.38-1.579,0.57-2.27,0.57
					h-0.23c-0.97,0-1.88-0.27-2.72-0.79c0.61,0.29,1.311,0.45,2.15,0.45C405.95,95.38,406.57,95.31,407.02,95.15z"/>
				<path fill="#38373C" d="M409.17,94.59c-0.229,0.229-0.52,0.41-0.91,0.57v-0.57h0.23c0.229-0.07,0.41-0.271,0.569-0.57
					L409.17,94.59z"/>
				<path fill="#B8C0C3" d="M407.02,94.93h0.57c-0.16,0.16-0.34,0.23-0.57,0.23V94.93z"/>
				<polygon fill="#AAB2B4" points="403.05,83.25 407.59,94.93 407.02,94.93 				"/>
			</g>
			<g>
				<path fill="#B4B1AC" d="M514.12,82.35c-0.84,0.07-1.521,0.39-2.04,0.91l-0.46-0.91c0.91-0.52,2.04-0.79,3.399-0.79
					c1.36,0,2.561,0.41,3.631,1.24c0.229,0,0.409,0.07,0.569,0.229c0.23,0.23,0.521,0.41,0.91,0.57c1.2,1.43,1.811,3.17,1.811,5.21
					c0,1.59-0.391,2.9-1.131,3.97c-0.22,0.521-0.449,0.95-0.68,1.25c-0.52,0.381-0.91,0.681-1.13,0.91l-0.34-0.45
					c0.39-0.289,0.68-0.609,0.91-0.909c0.38-0.391,0.68-0.681,0.909-0.91c0.61-1.13,0.91-2.431,0.91-3.851
					c0-1.649-0.609-3.22-1.81-4.649c-0.23-0.391-0.61-0.641-1.13-0.8c-0.91-0.681-1.931-1.021-3.061-1.021h-0.109
					C514.73,82.35,514.35,82.35,514.12,82.35z"/>
				
					<linearGradient id="SVGID_13_" gradientUnits="userSpaceOnUse" x1="687.334" y1="1110.1213" x2="690.9406" y2="1110.1213" gradientTransform="matrix(0.7071 0.7071 0.6924 -0.7218 -737.8693 402.2616)">
					<stop  offset="0" style="stop-color:#E8E8E0"/>
					<stop  offset="1" style="stop-color:#535258"/>
				</linearGradient>
				<path fill="url(#SVGID_13_)" d="M514.12,82.8v-0.45c0.229,0,0.62,0,1.13,0h0.11c1.13,0,2.149,0.34,3.06,1.021
					c0.521,0.159,0.91,0.409,1.13,0.79c1.2,1.43,1.811,2.989,1.811,4.649c0,1.43-0.29,2.72-0.91,3.851
					c-0.23,0.229-0.521,0.52-0.91,0.909c-0.229,0.29-0.521,0.61-0.91,0.91v-0.45c0.45-0.289,0.75-0.63,0.91-1.02
					c0.75-0.97,1.13-2.2,1.13-3.63c0-1.97-0.68-3.561-2.04-4.76c-0.229-0.29-0.45-0.641-0.68-1.021c-0.97-0.52-2.15-0.8-3.51-0.8
					H514.12L514.12,82.8z"/>
				
					<linearGradient id="SVGID_14_" gradientUnits="userSpaceOnUse" x1="549.0107" y1="1126.2795" x2="557.4808" y2="1126.2795" gradientTransform="matrix(0.4817 0.8764 0.8556 -0.5195 -712.4523 187.4307)">
					<stop  offset="0" style="stop-color:#5F6170"/>
					<stop  offset="1" style="stop-color:#7C7C7C"/>
				</linearGradient>
				<path fill="url(#SVGID_14_)" d="M518.65,94.02l-4.53-11.22h0.34c1.36,0,2.54,0.27,3.51,0.79c0.23,0.38,0.45,0.729,0.681,1.02
					c1.359,1.2,2.04,2.79,2.04,4.761c0,1.43-0.391,2.649-1.131,3.63C519.4,93.39,519.11,93.73,518.65,94.02z"/>
				<path fill="#6B6A70" d="M518.99,94.93h-0.34c-0.16,0.16-0.271,0.23-0.341,0.23l-0.229-0.57c0.16,0,0.27,0,0.34,0l0.23-0.11
					L518.99,94.93z"/>
				<path fill="#52525A" d="M518.31,94.47c0.07,0,0.181-0.16,0.341-0.45v0.45l-0.23,0.11c-0.07,0-0.18,0-0.34,0
					C518.25,94.59,518.31,94.54,518.31,94.47z"/>
				<path fill="#6A7579" d="M518.09,94.59l-4.53-11.79c0.16,0,0.271,0,0.341,0l4.42,11.67C518.31,94.54,518.25,94.59,518.09,94.59z"
					/>
				<path fill="#38373C" d="M518.31,95.15c-0.229,0.23-0.52,0.41-0.909,0.57v-0.57V94.92h0.109c0.29,0,0.5-0.11,0.57-0.34
					L518.31,95.15z"/>
				
					<linearGradient id="SVGID_15_" gradientUnits="userSpaceOnUse" x1="493.6748" y1="1117.8528" x2="506.1057" y2="1117.8528" gradientTransform="matrix(0.3785 0.9256 0.9043 -0.4306 -685.1377 106.8576)">
					<stop  offset="0" style="stop-color:#3D3D47"/>
					<stop  offset="1" style="stop-color:#33363D"/>
				</linearGradient>
				<path fill="url(#SVGID_15_)" d="M517.07,95.15l-4.98-11.899h0.45c0.07-0.16,0.18-0.29,0.34-0.45c0.23,0,0.46,0,0.681,0
					l4.529,11.79c-0.069,0.229-0.27,0.34-0.569,0.34h-0.11v0.23h-0.34V95.15z"/>
				<path fill="#605D68" d="M517.07,95.15h0.34v0.57c-0.84,0.39-1.63,0.57-2.38,0.57h-0.23c-1.069,0-1.97-0.271-2.72-0.79
					c0.61,0.229,1.36,0.34,2.27,0.34c0.681,0,1.29-0.05,1.811-0.11c0.229,0,0.39-0.069,0.46-0.229l0.22-0.11v0.11
					c0.16,0,0.23-0.05,0.23-0.11V95.15L517.07,95.15z"/>
				<path fill="#646F71" d="M512.08,83.25l4.979,11.899v0.23c0,0.07-0.069,0.109-0.229,0.109V95.38l-0.22,0.109l-4.53-11.899v-0.23
					V83.25L512.08,83.25z"/>
				
					<linearGradient id="SVGID_16_" gradientUnits="userSpaceOnUse" x1="685.126" y1="1106.3059" x2="691.2156" y2="1106.3059" gradientTransform="matrix(0.6977 0.7163 0.6908 -0.724 -731.745 398.5362)">
					<stop  offset="0" style="stop-color:#696E74"/>
					<stop  offset="1" style="stop-color:#424041"/>
				</linearGradient>
				<path fill="url(#SVGID_16_)" d="M512.08,95.49c-0.84-0.38-1.47-0.859-1.93-1.47c-1.431-1.43-2.15-3.06-2.15-4.87v-0.34
					c0.23-1.649,0.86-3.06,1.93-4.189c0.221-0.29,0.521-0.641,0.9-1.021c0.229,0,0.479-0.07,0.79-0.229
					c-0.32,0.159-0.7,0.43-1.13,0.79c-1.2,1.43-1.811,2.989-1.811,4.649c0,1.811,0.61,3.4,1.811,4.76
					c1.359,1.29,2.95,1.931,4.76,1.931c0.23,0,0.52,0,0.91,0v0.229c-0.521,0.07-1.13,0.11-1.811,0.11
					C513.44,95.83,512.69,95.72,512.08,95.49z"/>
				
					<linearGradient id="SVGID_17_" gradientUnits="userSpaceOnUse" x1="481.3271" y1="1112.7717" x2="488.5033" y2="1112.7717" gradientTransform="matrix(0.3632 0.9317 0.9163 -0.4028 -683.969 86.7592)">
					<stop  offset="0" style="stop-color:#B9BDBE"/>
					<stop  offset="1" style="stop-color:#606068"/>
				</linearGradient>
				<path fill="url(#SVGID_17_)" d="M516.16,95.49c-0.38,0-0.68,0-0.91,0c-1.81,0-3.4-0.64-4.76-1.93
					c-1.2-1.359-1.811-2.95-1.811-4.76c0-1.65,0.61-3.22,1.811-4.65c0.43-0.359,0.81-0.64,1.13-0.79l0.11-0.12h0.34v0.12
					c-0.301,0.16-0.521,0.41-0.681,0.79c-1.199,1.2-1.81,2.65-1.81,4.311c0,0.16,0,0.27,0,0.34c0,1.81,0.61,3.33,1.81,4.53
					c0.45,0.75,1.181,1.29,2.16,1.59c0.61,0.29,1.311,0.45,2.15,0.45h0.45v0.119H516.16z"/>
				<path fill="#B8C0C3" d="M516.16,95.38l0.46,0.109c-0.07,0.16-0.23,0.23-0.46,0.23v-0.23V95.38z"/>
				
					<linearGradient id="SVGID_18_" gradientUnits="userSpaceOnUse" x1="452.2148" y1="1109.8264" x2="465.0635" y2="1109.8264" gradientTransform="matrix(0.3307 0.9437 0.9348 -0.3561 -677.2723 52.0341)">
					<stop  offset="0" style="stop-color:#666C7A"/>
					<stop  offset="1" style="stop-color:#494E61"/>
				</linearGradient>
				<path fill="url(#SVGID_18_)" d="M512.08,83.37V83.6l4.08,11.79h-0.45c-0.84,0-1.54-0.16-2.15-0.45
					c-0.979-0.29-1.699-0.84-2.159-1.59c-1.2-1.2-1.811-2.72-1.811-4.53c0-0.069,0-0.18,0-0.34c0-1.66,0.61-3.109,1.811-4.31
					C511.56,83.78,511.78,83.53,512.08,83.37z"/>
				<polygon fill="#AAB2B4" points="516.16,95.38 512.08,83.59 516.62,95.49 				"/>
				<path fill="#31343D" d="M513.89,82.8h0.221l4.529,11.22c-0.159,0.29-0.27,0.45-0.34,0.45L513.89,82.8z"/>
				<path fill="#A9AAAF" d="M511.63,83.37c-0.32,0.159-0.57,0.229-0.79,0.229c-0.38,0.38-0.68,0.73-0.899,1.021
					c-1.07,1.13-1.7,2.54-1.931,4.189c0-1.43,0.34-2.76,1.021-3.97c0.39-0.45,0.75-0.86,1.13-1.25c0.229-0.23,0.57-0.5,1.02-0.79
					c0.16-0.23,0.29-0.39,0.45-0.45l0.46,0.91h-0.34L511.63,83.37z"/>
			</g>
		</g>
	</g>
	<g>
		
			<linearGradient id="SVGID_19_" gradientUnits="userSpaceOnUse" x1="168.0635" y1="409.9519" x2="239.3225" y2="409.9519" gradientTransform="matrix(-0.0278 -0.9996 -0.9972 0.1149 683.5769 835.1298)">
			<stop  offset="0.0314" style="stop-color:#373936"/>
			<stop  offset="0.4627" style="stop-color:#141212"/>
			<stop  offset="0.549" style="stop-color:#2E2B29"/>
			<stop  offset="0.8235" style="stop-color:#B9B4AC"/>
			<stop  offset="0.8863" style="stop-color:#FFFFFD"/>
			<stop  offset="1" style="stop-color:#232637"/>
		</linearGradient>
		<path fill="url(#SVGID_19_)" d="M269.32,714.64c0-0.16,0-2.771,0-7.82c-0.07-5.149-0.11-11.33-0.11-18.59
			c0-7.25,0.04-13.42,0.11-18.47v-7.71c0.16,0,0.23,2.6,0.23,7.819c0.07,5.061,0.11,11.221,0.11,18.471s-0.05,13.42-0.11,18.47
			C269.55,712.03,269.48,714.64,269.32,714.64z"/>
		
			<linearGradient id="SVGID_20_" gradientUnits="userSpaceOnUse" x1="32.9541" y1="415.1951" x2="104.2118" y2="415.1951" gradientTransform="matrix(-0.0278 -0.9996 -0.9972 0.1149 683.5769 835.1298)">
			<stop  offset="0.0314" style="stop-color:#373936"/>
			<stop  offset="0.4627" style="stop-color:#141212"/>
			<stop  offset="0.549" style="stop-color:#2E2B29"/>
			<stop  offset="0.8235" style="stop-color:#B9B4AC"/>
			<stop  offset="0.8863" style="stop-color:#FFFFFD"/>
			<stop  offset="1" style="stop-color:#232637"/>
		</linearGradient>
		<path fill="url(#SVGID_20_)" d="M267.73,824.119c0-7.25,0.05-13.489,0.12-18.699v-7.48c0.16,0,0.23,2.561,0.23,7.71
			c0.16,5.15,0.23,11.33,0.23,18.59c0,7.25-0.07,13.42-0.23,18.471c0,5.05-0.07,7.59-0.23,7.59v-7.71
			C267.78,837.539,267.73,831.369,267.73,824.119z"/>
		<g>
			
				<linearGradient id="SVGID_21_" gradientUnits="userSpaceOnUse" x1="567.9697" y1="121.1672" x2="567.8904" y2="144.3467" gradientTransform="matrix(1 0 0 -1 -481.5 958.0767)">
				<stop  offset="0.0314" style="stop-color:#373936"/>
				<stop  offset="0.0863" style="stop-color:#74766B"/>
				<stop  offset="0.1804" style="stop-color:#A9A393"/>
				<stop  offset="0.298" style="stop-color:#43617B"/>
				<stop  offset="0.3922" style="stop-color:#333A40"/>
				<stop  offset="0.4627" style="stop-color:#141212"/>
				<stop  offset="0.549" style="stop-color:#2E2B29"/>
				<stop  offset="0.6471" style="stop-color:#86817C"/>
				<stop  offset="0.7412" style="stop-color:#E8E6E3"/>
				<stop  offset="0.8235" style="stop-color:#B9B4AC"/>
				<stop  offset="0.8863" style="stop-color:#FFFFFD"/>
				<stop  offset="1" style="stop-color:#232637"/>
			</linearGradient>
			<path fill="url(#SVGID_21_)" d="M226.03,836.36H-51.42c-5.06-7.71-5.06-15.479,0-23.35h168.64h16.21h92.6
				c1.36,3.399,2.04,7.25,2.04,11.56c0,3.01-0.27,5.82-0.79,8.38C226.82,834.159,226.41,835.3,226.03,836.36z"/>
		</g>
		<g>
			<path fill="#46271E" d="M18.96,791.59c0.23,0,0.45,3.17,0.68,9.52c0.23,6.351,0.34,14.05,0.34,23.12c0,9-0.11,16.61-0.34,22.89
				c-0.23,5.891-0.41,9.07-0.57,9.521h-0.11c-0.23-0.45-0.5-3.63-0.79-9.521c-0.07-6.279-0.11-13.89-0.11-22.89
				c0-9.07,0.04-16.77,0.11-23.12c0.29-5.83,0.57-8.91,0.79-9.29V791.59z"/>
			
				<linearGradient id="SVGID_22_" gradientUnits="userSpaceOnUse" x1="466.5957" y1="177.9573" x2="466.5957" y2="100.154" gradientTransform="matrix(1 0 0 -1 -481.5 958.0767)">
				<stop  offset="0" style="stop-color:#965D4A"/>
				<stop  offset="0.5529" style="stop-color:#B97C5D"/>
				<stop  offset="1" style="stop-color:#3C1F19"/>
			</linearGradient>
			<path fill="url(#SVGID_22_)" d="M18.96,856.65l-53.61-2.27h-2.72c-3.79,0-6.28-2-7.48-6.011c-4.99-17.68-5.21-33.279-0.68-46.81
				c1.2-3.47,3.74-5.39,7.59-5.78l56.89-4.189v0.229c-0.23,0.39-0.5,3.47-0.79,9.29c-0.07,6.35-0.11,14.05-0.11,23.12
				c0,9,0.04,16.61,0.11,22.89C18.46,853.02,18.74,856.19,18.96,856.65z"/>
		</g>
		<g>
			
				<linearGradient id="SVGID_23_" gradientUnits="userSpaceOnUse" x1="814.29" y1="348.6667" x2="938.7305" y2="348.6667" gradientTransform="matrix(1 0 0 -1 -481.5 958.0767)">
				<stop  offset="0.0314" style="stop-color:#373936"/>
				<stop  offset="0.0863" style="stop-color:#74766B"/>
				<stop  offset="0.1804" style="stop-color:#A9A393"/>
				<stop  offset="0.2196" style="stop-color:#9D998A"/>
				<stop  offset="0.251" style="stop-color:#43617B"/>
				<stop  offset="0.3922" style="stop-color:#333A40"/>
				<stop  offset="0.4627" style="stop-color:#141212"/>
				<stop  offset="0.549" style="stop-color:#2E2B29"/>
				<stop  offset="0.8392" style="stop-color:#62645B"/>
				<stop  offset="0.8667" style="stop-color:#AEAFAD"/>
				<stop  offset="0.9098" style="stop-color:#47494C"/>
				<stop  offset="0.9608" style="stop-color:#333641"/>
				<stop  offset="1" style="stop-color:#232637"/>
			</linearGradient>
			<path fill="url(#SVGID_23_)" d="M453.26,615.02c-0.229-0.16-0.5-0.23-0.79-0.23c-3.02-1.06-7.529-1.97-13.489-2.72
				c-12.24-1.59-26.931-2.38-44.09-2.38c-17.16,0-31.8,0.79-43.97,2.38c-6.05,0.75-10.59,1.65-13.6,2.72
				c-0.16,0-0.29,0.07-0.45,0.23c-2.72-0.98-4.08-1.99-4.08-3.06c0-2.33,6.05-4.301,18.13-5.891c12.17-1.52,26.81-2.27,43.97-2.27
				c17.16,0,31.85,0.75,44.09,2.27c12.17,1.59,18.25,3.561,18.25,5.891C457.23,613.02,455.91,614.039,453.26,615.02z"/>
			
				<linearGradient id="SVGID_24_" gradientUnits="userSpaceOnUse" x1="788.7012" y1="343.2268" x2="964.0858" y2="343.2268" gradientTransform="matrix(1 0 0 -1 -481.5 958.0767)">
				<stop  offset="0.0314" style="stop-color:#373936"/>
				<stop  offset="0.1647" style="stop-color:#43617B"/>
				<stop  offset="0.3137" style="stop-color:#333A40"/>
				<stop  offset="0.4627" style="stop-color:#141212"/>
				<stop  offset="1" style="stop-color:#000000"/>
				<stop  offset="1" style="stop-color:#000000"/>
			</linearGradient>
			<path fill="url(#SVGID_24_)" d="M336.87,615.02c0.16-0.16,0.3-0.23,0.45-0.23c3.01-1.06,7.55-1.97,13.6-2.72
				c12.17-1.59,26.81-2.38,43.97-2.38c17.16,0,31.85,0.79,44.09,2.38c5.96,0.75,10.47,1.65,13.489,2.72c0.29,0,0.57,0.07,0.79,0.23
				c-0.229,0-0.5,0.04-0.79,0.11c-3.01,0.97-7.529,1.859-13.489,2.609c-12.24,1.521-26.931,2.271-44.09,2.271
				c-17.16,0-31.8-0.75-43.97-2.271c-6.05-0.75-10.59-1.63-13.6-2.609C337.16,615.06,337.02,615.02,336.87,615.02z"/>
		</g>
		<g>
			
				<linearGradient id="SVGID_25_" gradientUnits="userSpaceOnUse" x1="850.9775" y1="354.4519" x2="1140.2627" y2="354.4519" gradientTransform="matrix(1 0 0 -1 -481.5 958.0767)">
				<stop  offset="0" style="stop-color:#161920"/>
				<stop  offset="1" style="stop-color:#20202C"/>
			</linearGradient>
			<path fill="url(#SVGID_25_)" d="M457.23,611.96c0-2.33-6.08-4.301-18.25-5.891c-12.24-1.52-26.931-2.27-44.09-2.27
				c-17.16,0-31.8,0.75-43.97,2.27c-12.08,1.59-18.13,3.561-18.13,5.891c0,0.449,0.23,0.909,0.68,1.359h-72.65
				c-0.38-0.229-0.68-0.52-0.91-0.91c-0.23-0.29-0.41-0.64-0.57-1.02c-0.07-0.23-0.12-0.521-0.12-0.91
				c0-4.38,11.63-8.09,34.91-11.11c0.75-0.069,1.54-0.18,2.38-0.34c0.61-0.16,1.29-0.27,2.04-0.34c26.14-3.17,57.84-4.76,95.09-4.76
				c37.1,0,68.75,1.59,94.97,4.76c1.29,0.23,2.609,0.41,3.97,0.57c23.57,3.109,35.36,6.84,35.36,11.22c0,0.61-0.16,1.09-0.45,1.47
				c-0.29,0.45-0.73,0.91-1.25,1.36H456.31C456.93,612.869,457.23,612.409,457.23,611.96z"/>
		</g>
		<g>
			<path fill="#74422E" d="M417.9,601.99c-0.841,0.29-2.67,0.61-5.551,0.91c-3.63,0.23-8.119,0.34-13.489,0.34
				c-5.21,0-9.59-0.109-13.15-0.34c-3.01-0.16-4.92-0.45-5.67-0.91c0-0.16,0.07-0.229,0.23-0.229c0.61-0.23,2.43-0.45,5.44-0.681
				c3.56-0.29,7.93-0.449,13.15-0.449c5.37,0,9.859,0.159,13.489,0.449c2.881,0.23,4.69,0.45,5.44,0.681h0.11V601.99z"/>
			
				<linearGradient id="SVGID_26_" gradientUnits="userSpaceOnUse" x1="863.3594" y1="345.4612" x2="897.3594" y2="345.4612" gradientTransform="matrix(1 0 0 -1 -481.5 958.0767)">
				<stop  offset="0" style="stop-color:#583330"/>
				<stop  offset="0.4745" style="stop-color:#C97C6A"/>
				<stop  offset="1" style="stop-color:#5C3923"/>
			</linearGradient>
			<path fill="url(#SVGID_26_)" d="M380.05,601.99c0.75,0.45,2.65,0.75,5.67,0.91c3.56,0.23,7.93,0.34,13.15,0.34
				c5.37,0,9.86-0.109,13.49-0.34c2.88-0.29,4.71-0.61,5.55-0.91v0.11l-1.47,19.95c-12.08,1.659-23.69,1.59-34.791-0.23
				L380.05,601.99z"/>
		</g>
		<g>
			
				<linearGradient id="SVGID_27_" gradientUnits="userSpaceOnUse" x1="857.123" y1="312.0608" x2="904.8999" y2="383.836" gradientTransform="matrix(1 0 0 -1 -481.5 958.0767)">
				<stop  offset="0.0314" style="stop-color:#373936"/>
				<stop  offset="0.0863" style="stop-color:#74766B"/>
				<stop  offset="0.1804" style="stop-color:#A9A393"/>
				<stop  offset="0.298" style="stop-color:#43617B"/>
				<stop  offset="0.3922" style="stop-color:#333A40"/>
				<stop  offset="0.4627" style="stop-color:#141212"/>
				<stop  offset="0.549" style="stop-color:#2E2B29"/>
				<stop  offset="0.6471" style="stop-color:#86817C"/>
				<stop  offset="0.7412" style="stop-color:#E8E6E3"/>
				<stop  offset="0.8235" style="stop-color:#B9B4AC"/>
				<stop  offset="0.8863" style="stop-color:#FFFFFD"/>
				<stop  offset="1" style="stop-color:#232637"/>
			</linearGradient>
			<path fill="url(#SVGID_27_)" d="M416.99,614.789l0.34-6.46c8.45,0.29,16.09,0.91,22.89,1.811
				c12.311,1.649,18.471,3.63,18.471,5.89c0,2.2-6.16,4.12-18.471,5.78c-5.67,0.75-11.97,1.65-18.93,2.72
				c8.39,16.84-4.87,15.8-39.78-3.17l0.34,3.061c-11.86-0.61-22.17-1.471-30.94-2.61c-12.24-1.66-18.36-3.63-18.36-5.89
				c0-2.2,6.12-4.12,18.36-5.78c8.68-1.13,18.52-1.88,29.47-2.271l0.79,7.25C387.68,617.17,399.61,617.06,416.99,614.789z"/>
			<g>
				
					<linearGradient id="SVGID_28_" gradientUnits="userSpaceOnUse" x1="857.5791" y1="311.156" x2="905.3538" y2="382.9284" gradientTransform="matrix(1 0 0 -1 -481.5 958.0767)">
					<stop  offset="0" style="stop-color:#050505;stop-opacity:0.498"/>
					<stop  offset="1" style="stop-color:#000000;stop-opacity:0.0863"/>
				</linearGradient>
				<path fill="url(#SVGID_28_)" d="M417.56,615.699l0.341-6.46c8.46,0.23,16.1,0.84,22.89,1.811c12.31,1.649,18.47,3.63,18.47,5.89
					c0,2.2-6.16,4.13-18.47,5.78c-5.73,0.75-12.06,1.66-18.93,2.72c8.39,16.84-4.87,15.8-39.78-3.18l0.11,3.06
					c-11.72-0.609-21.98-1.47-30.83-2.609c-12.31-1.65-18.47-3.631-18.47-5.891c0-2.2,6.17-4.13,18.47-5.78
					c8.61-1.13,18.47-1.88,29.58-2.27l0.68,7.25C388.21,618.079,400.18,617.97,417.56,615.699z"/>
			</g>
		</g>
		<g>
			
				<radialGradient id="SVGID_29_" cx="584.8916" cy="182.4802" r="44.8631" gradientTransform="matrix(3.4237 0 0 -0.5512 -1609.9717 710.6693)" gradientUnits="userSpaceOnUse">
				<stop  offset="0" style="stop-color:#181820"/>
				<stop  offset="0.8078" style="stop-color:#17181D"/>
				<stop  offset="1" style="stop-color:#35372C"/>
			</radialGradient>
			<path fill="url(#SVGID_29_)" d="M298.56,622.27c26.14,3.24,57.84,4.87,95.09,4.87c37.1,0,68.75-1.63,94.97-4.87
				c20.63-2.56,33.14-5.49,37.51-8.73c0.61-0.609,1.25-1.63,1.93-3.06c0.16,0.84,0.11,2.15-0.109,3.97c0,0.75-0.16,1.41-0.45,1.931
				c-1.2,2.199-3.01,3.85-5.44,4.989h-0.109c-6.28,3.24-17.34,6.19-33.21,8.841c-26.221,4.46-57.87,6.689-94.97,6.689
				c-37.02,0-68.73-2.22-95.09-6.689c-15.57-2.561-26.47-5.49-32.75-8.73c-1.81-0.97-3.22-1.81-4.19-2.49
				c-1.97-1.359-2.88-3.239-2.72-5.67c0-0.609,0.07-1.43,0.23-2.5c0.23,0.75,0.45,1.29,0.68,1.59c0.23,0.391,0.61,0.75,1.13,1.131
				c0.84,0.609,2.08,1.29,3.74,2.04C270.97,617.92,282.24,620.159,298.56,622.27z"/>
		</g>
		<g>
			
				<linearGradient id="SVGID_30_" gradientUnits="userSpaceOnUse" x1="744.8115" y1="186.8821" x2="1005.7078" y2="186.8821" gradientTransform="matrix(1 0 0 -1 -481.5 958.0767)">
				<stop  offset="0.0314" style="stop-color:#373936"/>
				<stop  offset="0.0863" style="stop-color:#74766B"/>
				<stop  offset="0.1804" style="stop-color:#A9A393"/>
				<stop  offset="0.298" style="stop-color:#43617B"/>
				<stop  offset="0.3922" style="stop-color:#333A40"/>
				<stop  offset="0.4627" style="stop-color:#141212"/>
				<stop  offset="0.549" style="stop-color:#2E2B29"/>
				<stop  offset="0.6471" style="stop-color:#86817C"/>
				<stop  offset="0.7412" style="stop-color:#E8E6E3"/>
				<stop  offset="0.8235" style="stop-color:#B9B4AC"/>
				<stop  offset="0.8863" style="stop-color:#FFFFFD"/>
				<stop  offset="1" style="stop-color:#232637"/>
			</linearGradient>
			<path fill="url(#SVGID_30_)" d="M298.67,630.21c26.36,4.46,58.07,6.689,95.09,6.689c37.11,0,68.75-2.22,94.971-6.689
				c15.869-2.65,26.93-5.601,33.21-8.841L521.6,883.85c0.07,0.39,0.12,0.79,0.12,1.25c0,0.16,0,0.29,0,0.45
				c0,9.75-12.51,18.069-37.52,24.93c-25,7.03-55.19,10.54-90.55,10.54c-35.29,0-65.44-3.51-90.44-10.54
				c-23.8-6.51-36.31-14.28-37.51-23.35l0.23-265.66C272.2,624.72,283.1,627.64,298.67,630.21z"/>
		</g>
		<g>
			
				<radialGradient id="SVGID_31_" cx="603.4287" cy="69.4036" r="17.504" gradientTransform="matrix(3.4237 0 0 -4.3837 -1609.9717 939.2423)" gradientUnits="userSpaceOnUse">
				<stop  offset="0" style="stop-color:#FFFFFF;stop-opacity:0.6"/>
				<stop  offset="1" style="stop-color:#FBFBFB;stop-opacity:0"/>
			</radialGradient>
			<path fill="url(#SVGID_31_)" d="M351.37,633.61c0-0.07,0.07-0.18,0.23-0.34c0-0.07,0.07-0.07,0.23,0
				c77.97,2.65,133.1-1.88,165.35-13.6h0.23c0.07,0,0.18,0.069,0.34,0.229V620c-0.16,0.159-0.27,0.3-0.34,0.449
				c-32.26,11.721-87.45,16.25-165.58,13.601c-0.16-0.16-0.29-0.23-0.45-0.23C351.3,633.67,351.3,633.61,351.37,633.61z"/>
			
				<radialGradient id="SVGID_32_" cx="551.8223" cy="78.6848" r="5.6855" gradientTransform="matrix(3.4237 0 0 -3.4237 -1609.9717 889.8617)" gradientUnits="userSpaceOnUse">
				<stop  offset="0" style="stop-color:#FFFFFF;stop-opacity:0.6"/>
				<stop  offset="1" style="stop-color:#FBFBFB;stop-opacity:0"/>
			</radialGradient>
			<path fill="url(#SVGID_32_)" d="M298.67,627.14l-0.11,0.11c-23.96-3.631-36.54-8.12-37.74-13.49c-0.16-0.16-0.16-0.23,0-0.23
				l0.23-0.229c0.07-0.07,0.18-0.07,0.34,0v0.229c1.29,5.21,13.67,9.561,37.17,13.03l0.11,0.229c0.16,0,0.23,0.11,0.23,0.341h-0.23
				V627.14z"/>
		</g>
		<g>
			
				<linearGradient id="SVGID_33_" gradientUnits="userSpaceOnUse" x1="850.9775" y1="343.137" x2="1140.2627" y2="343.137" gradientTransform="matrix(1 0 0 -1 -481.5 958.0767)">
				<stop  offset="0" style="stop-color:#161920"/>
				<stop  offset="1" style="stop-color:#20202C"/>
			</linearGradient>
			<path fill="url(#SVGID_33_)" d="M452.47,615.13c0.29-0.07,0.57-0.11,0.79-0.11c1.431-0.52,2.45-1.09,3.061-1.7
				c19.79-14.12,43.109-14.12,69.93,0c0,0.16-0.05,0.23-0.12,0.23c-4.37,3.239-16.88,6.159-37.51,8.72
				c-26.23,3.24-57.87,4.88-94.97,4.88c-37.24,0-68.95-1.63-95.09-4.88c-16.32-2.11-27.59-4.35-33.77-6.68
				c-1.65-0.75-2.9-1.431-3.74-2.04c-0.16,0-0.23-0.07-0.23-0.23c43.14-11.79,67.37-11.79,72.65,0c0.75,0.61,1.88,1.181,3.4,1.7
				c0.16,0,0.29,0.04,0.45,0.11c3.01,0.97,7.55,1.859,13.6,2.609c12.17,1.521,26.81,2.271,43.97,2.271
				c17.16,0,31.85-0.75,44.09-2.271C444.94,616.99,449.45,616.11,452.47,615.13z"/>
		</g>
		<g>
			
				<linearGradient id="SVGID_34_" gradientUnits="userSpaceOnUse" x1="723.5977" y1="241.1145" x2="723.4547" y2="294.8353" gradientTransform="matrix(1 0 0 -1 -481.5 958.0767)">
				<stop  offset="0.0314" style="stop-color:#373936"/>
				<stop  offset="0.0863" style="stop-color:#74766B"/>
				<stop  offset="0.1804" style="stop-color:#A9A393"/>
				<stop  offset="0.298" style="stop-color:#43617B"/>
				<stop  offset="0.3922" style="stop-color:#333A40"/>
				<stop  offset="0.4627" style="stop-color:#141212"/>
				<stop  offset="0.549" style="stop-color:#2E2B29"/>
				<stop  offset="0.6471" style="stop-color:#86817C"/>
				<stop  offset="0.7412" style="stop-color:#E8E6E3"/>
				<stop  offset="0.8235" style="stop-color:#B9B4AC"/>
				<stop  offset="0.8863" style="stop-color:#FFFFFD"/>
				<stop  offset="1" style="stop-color:#232637"/>
			</linearGradient>
			<path fill="url(#SVGID_34_)" d="M213.67,717.02c0.29,0,0.5-2.68,0.57-8.05c0.23-5.28,0.34-11.67,0.34-19.15
				c0-7.479-0.12-13.87-0.34-19.149c-0.07-5.37-0.27-8.04-0.57-8.04h54.97c1.2,7.699,1.81,16.659,1.81,26.859
				c0,6.96-0.27,13.33-0.79,19.15c-0.29,2.95-0.73,5.729-1.25,8.39h-54.74V717.02z"/>
			
				<linearGradient id="SVGID_35_" gradientUnits="userSpaceOnUse" x1="697.7363" y1="241.9377" x2="690.6729" y2="314.8557" gradientTransform="matrix(1 0 0 -1 -481.5 958.0767)">
				<stop  offset="0.0314" style="stop-color:#373936"/>
				<stop  offset="0.4627" style="stop-color:#141212"/>
				<stop  offset="0.549" style="stop-color:#2E2B29"/>
				<stop  offset="0.8235" style="stop-color:#B9B4AC"/>
				<stop  offset="0.8863" style="stop-color:#FFFFFD"/>
				<stop  offset="1" style="stop-color:#232637"/>
			</linearGradient>
			<path fill="url(#SVGID_35_)" d="M213.67,662.619c0.29,0,0.5,2.67,0.57,8.04c0.23,5.28,0.34,11.67,0.34,19.15
				c0,7.479-0.12,13.87-0.34,19.15c-0.07,5.369-0.27,8.05-0.57,8.05c-0.23,0-0.45-2.681-0.68-8.05
				c-0.16-5.28-0.23-11.671-0.23-19.15c0-7.48,0.07-13.87,0.23-19.15C213.22,665.289,213.45,662.619,213.67,662.619z"/>
		</g>
		<g>
			
				<linearGradient id="SVGID_36_" gradientUnits="userSpaceOnUse" x1="678.5703" y1="106.1511" x2="671.5063" y2="179.0704" gradientTransform="matrix(1 0 0 -1 -481.5 958.0767)">
				<stop  offset="0.0314" style="stop-color:#373936"/>
				<stop  offset="0.4627" style="stop-color:#141212"/>
				<stop  offset="0.549" style="stop-color:#2E2B29"/>
				<stop  offset="0.8235" style="stop-color:#B9B4AC"/>
				<stop  offset="0.8863" style="stop-color:#FFFFFD"/>
				<stop  offset="1" style="stop-color:#232637"/>
			</linearGradient>
			<path fill="url(#SVGID_36_)" d="M194.52,852.57c-0.23,0-0.45-2.609-0.68-7.819c-0.16-5.28-0.23-11.721-0.23-19.271
				s0.07-13.94,0.23-19.15c0.23-5.279,0.45-7.93,0.68-7.93s0.41,2.65,0.57,7.93c0.23,5.21,0.34,11.61,0.34,19.15
				s-0.11,13.979-0.34,19.271C194.93,849.96,194.75,852.57,194.52,852.57z"/>
			
				<linearGradient id="SVGID_37_" gradientUnits="userSpaceOnUse" x1="714.0225" y1="105.3147" x2="713.8796" y2="159.0345" gradientTransform="matrix(1 0 0 -1 -481.5 958.0767)">
				<stop  offset="0.0314" style="stop-color:#373936"/>
				<stop  offset="0.0863" style="stop-color:#74766B"/>
				<stop  offset="0.1804" style="stop-color:#A9A393"/>
				<stop  offset="0.298" style="stop-color:#43617B"/>
				<stop  offset="0.3922" style="stop-color:#333A40"/>
				<stop  offset="0.4627" style="stop-color:#141212"/>
				<stop  offset="0.549" style="stop-color:#2E2B29"/>
				<stop  offset="0.6471" style="stop-color:#86817C"/>
				<stop  offset="0.7412" style="stop-color:#E8E6E3"/>
				<stop  offset="0.8235" style="stop-color:#B9B4AC"/>
				<stop  offset="0.8863" style="stop-color:#FFFFFD"/>
				<stop  offset="1" style="stop-color:#232637"/>
			</linearGradient>
			<path fill="url(#SVGID_37_)" d="M194.52,852.57c0.23,0,0.41-2.609,0.57-7.819c0.23-5.28,0.34-11.721,0.34-19.271
				s-0.11-13.94-0.34-19.15c-0.16-5.279-0.34-7.93-0.57-7.93h74.12c1.2,7.55,1.81,16.48,1.81,26.75c0,6.87-0.27,13.3-0.79,19.271
				c-0.29,2.88-0.73,5.6-1.25,8.159h-73.89V852.57z"/>
		</g>
		<g>
			<path fill="none" d="M270.11,667.039c1.43,16.391,1.36,31.891-0.23,46.471"/>
		</g>
		<g>
			<path fill="none" d="M269.32,802.47c1.43,16.479,1.41,32.01-0.11,46.58"/>
		</g>
		
			<linearGradient id="SVGID_38_" gradientUnits="userSpaceOnUse" x1="94.959" y1="389.6121" x2="147.0362" y2="389.6121" gradientTransform="matrix(4.352557e-005 -1 -1 -0.2059 669.9763 1028.6299)">
			<stop  offset="0" style="stop-color:#373936;stop-opacity:0.498"/>
			<stop  offset="0.0863" style="stop-color:#74766B;stop-opacity:0.498"/>
			<stop  offset="0.1804" style="stop-color:#A9A393;stop-opacity:0.498"/>
			<stop  offset="0.298" style="stop-color:#43617B;stop-opacity:0.498"/>
			<stop  offset="0.3922" style="stop-color:#333A40;stop-opacity:0.498"/>
			<stop  offset="0.4627" style="stop-color:#141212;stop-opacity:0.498"/>
			<stop  offset="0.549" style="stop-color:#2E2B29;stop-opacity:0.498"/>
			<stop  offset="0.6314" style="stop-color:#77736E;stop-opacity:0.498"/>
			<stop  offset="0.7412" style="stop-color:#E8E6E3;stop-opacity:0.498"/>
			<stop  offset="0.8235" style="stop-color:#B9B4AC;stop-opacity:0.498"/>
			<stop  offset="0.8863" style="stop-color:#FFFFFD;stop-opacity:0.498"/>
			<stop  offset="1" style="stop-color:#232637;stop-opacity:0.498"/>
		</linearGradient>
		<path fill="url(#SVGID_38_)" d="M291.08,847.47c0,2.88-0.07,5.51-0.23,7.93l-21.53-4.53c0.16,0,0.23-2.609,0.23-7.819
			c0.07-5.051,0.11-11.221,0.11-18.471s-0.05-13.42-0.11-18.47c0-5.21-0.07-7.82-0.23-7.82l21.53,4.761
			c0.38,7.479,0.57,16.14,0.57,25.95C291.42,835.73,291.31,841.869,291.08,847.47z"/>
		
			<linearGradient id="SVGID_39_" gradientUnits="userSpaceOnUse" x1="873.0459" y1="113.3489" x2="898.7386" y2="113.3489" gradientTransform="matrix(1.5737 -0.0652 0.0236 -1.0224 -1105.6807 1002.817)">
			<stop  offset="0" style="stop-color:#8C8A7D;stop-opacity:0"/>
			<stop  offset="0.1882" style="stop-color:#8D8B7E;stop-opacity:0.2039"/>
			<stop  offset="0.4784" style="stop-color:#959284"/>
			<stop  offset="1" style="stop-color:#888579;stop-opacity:0"/>
		</linearGradient>
		<path fill="url(#SVGID_39_)" d="M308.15,851.3c0,2.88-0.11,5.51-0.36,7.93l-34.52-7.34c0.25,0.02,0.36-2.58,0.36-7.82
			c0.11-5.06,0.18-11.22,0.18-18.5s-0.07-13.439-0.18-18.54c0-5.24-0.11-7.84-0.36-7.87l34.52,7.57c0.61,7.55,0.91,16.25,0.91,26.09
			C308.69,839.56,308.51,845.72,308.15,851.3z"/>
		<g>
			
				<linearGradient id="SVGID_40_" gradientUnits="userSpaceOnUse" x1="678.9199" y1="105.2278" x2="678.9199" y2="159.5135" gradientTransform="matrix(1 0 0 -1 -481.5 958.0767)">
				<stop  offset="0" style="stop-color:#583330"/>
				<stop  offset="0.4745" style="stop-color:#C97C6A"/>
				<stop  offset="1" style="stop-color:#5C3923"/>
			</linearGradient>
			<path fill="url(#SVGID_40_)" d="M179.67,856.19c0.07-0.61,0.18-3.58,0.34-8.95c0.16-5.83,0.23-12.989,0.23-21.53
				c0-8.46-0.07-15.71-0.23-21.76c-0.16-5.279-0.27-8.21-0.34-8.72h1.47v-0.11l0.11,0.11l32.3,2.38
				c2.27,19.33,2.15,37.97-0.34,55.87L179.67,856.19z"/>
			<path fill="#74422E" d="M179.67,795.22c0.07,0.52,0.18,3.439,0.34,8.72c0.16,6.05,0.23,13.31,0.23,21.76
				c0,8.55-0.07,15.71-0.23,21.53c-0.16,5.37-0.27,8.34-0.34,8.95l-0.23,0.109c-0.07,0-0.18-3.01-0.34-9.069
				c-0.16-5.82-0.23-12.99-0.23-21.53c0-8.45,0.07-15.71,0.23-21.76C179.26,798.659,179.45,795.74,179.67,795.22z"/>
		</g>
		<g>
			
				<radialGradient id="SVGID_41_" cx="585.2861" cy="1090.3225" r="1.1446" gradientTransform="matrix(-3.3627 -0.643 0.7169 10.7808 1458.3628 -10705.3496)" gradientUnits="userSpaceOnUse">
				<stop  offset="0" style="stop-color:#FFFFFF"/>
				<stop  offset="0.1922" style="stop-color:#FFFFFF"/>
				<stop  offset="0.2824" style="stop-color:#FFFFFF;stop-opacity:0.7098"/>
				<stop  offset="0.4157" style="stop-color:#FFFFFF;stop-opacity:0.6"/>
				<stop  offset="0.5882" style="stop-color:#FEFEFE;stop-opacity:0.3216"/>
				<stop  offset="0.8157" style="stop-color:#FCFCFC;stop-opacity:0.0863"/>
				<stop  offset="1" style="stop-color:#F9F9F9;stop-opacity:0"/>
			</radialGradient>
			<path fill="url(#SVGID_41_)" d="M275.66,673.5c0.16,3.239-0.04,5.96-0.57,8.159c-0.61,2.561-1.36,3.69-2.27,3.4
				c-1.13-0.29-2.2-1.93-3.17-4.87c-0.84-2.2-1.29-5.05-1.36-8.61c-0.38-3.01-0.27-5.729,0.34-8.159c0.61-2.2,1.43-3.101,2.49-2.721
				c1.13,0.07,2.11,1.431,2.95,4.08C274.92,667.199,275.44,670.1,275.66,673.5z"/>
		</g>
		<g>
			<g>
				
					<linearGradient id="SVGID_42_" gradientUnits="userSpaceOnUse" x1="879.0273" y1="334.4895" x2="904.1321" y2="334.4895" gradientTransform="matrix(1 0 0 -1 -481.5 958.0767)">
					<stop  offset="0" style="stop-color:#292B2C"/>
					<stop  offset="0.102" style="stop-color:#46494D"/>
					<stop  offset="0.1412" style="stop-color:#B8BBBE"/>
					<stop  offset="0.1922" style="stop-color:#5C5F65"/>
					<stop  offset="0.251" style="stop-color:#6D7078"/>
					<stop  offset="0.302" style="stop-color:#E0E1E2"/>
					<stop  offset="0.4" style="stop-color:#414347"/>
					<stop  offset="0.8706" style="stop-color:#3E3F42"/>
					<stop  offset="0.9137" style="stop-color:#56595C"/>
					<stop  offset="0.9569" style="stop-color:#A3A7A9"/>
					<stop  offset="1" style="stop-color:#1D1E1F"/>
				</linearGradient>
				<path fill="url(#SVGID_42_)" d="M423.57,624.09v1.93c-0.16,0.39-0.721,0.57-1.7,0.57l-14.5,0.569
					c-1.521,0.07-2.72-0.109-3.63-0.569l-4.08-4.311V620l0.109,0.229l0.341,0.229l1.359,1.591c0.23,0.159,0.391,0.34,0.45,0.569
					c0.521,0.391,1.09,0.86,1.7,1.471c0.45,0.609,1.47,1.02,3.06,1.25c0.23,0,0.45,0,0.681,0l14.5-0.801
					C422.61,624.47,423.18,624.31,423.57,624.09z"/>
			</g>
			<g>
				
					<linearGradient id="SVGID_43_" gradientUnits="userSpaceOnUse" x1="878.7314" y1="352.0525" x2="892.3495" y2="328.489" gradientTransform="matrix(1 0 0 -1 -481.5 958.0767)">
					<stop  offset="0" style="stop-color:#FFFFFF"/>
					<stop  offset="1" style="stop-color:#5B5D62"/>
				</linearGradient>
				<path fill="url(#SVGID_43_)" d="M401.01,614.789c-1.069,0.16-1.52,0.57-1.359,1.25c0,0.381,0.109,0.75,0.34,1.131l3.97,4.649
					c1.2,0.91,3.69,1.36,7.48,1.36l-4.08,0.109c-1.88,0-3.13-0.409-3.74-1.25c-2.04-1.97-3.35-3.47-3.97-4.529
					c-0.29-0.38-0.5-0.681-0.57-0.91c-0.16-0.16-0.23-0.34-0.23-0.57v-0.109v-0.341c0.16-0.52,0.521-0.79,1.131-0.79H401.01
					L401.01,614.789z"/>
				
					<linearGradient id="SVGID_44_" gradientUnits="userSpaceOnUse" x1="875.7686" y1="337.4514" x2="880.4166" y2="342.0994" gradientTransform="matrix(1 0 0 -1 -481.5 958.0767)">
					<stop  offset="0" style="stop-color:#505154"/>
					<stop  offset="0.4784" style="stop-color:#FFFFFF"/>
					<stop  offset="1" style="stop-color:#3F4044"/>
				</linearGradient>
				<path fill="url(#SVGID_44_)" d="M399.65,617.51l-5.67,2.95l-0.34-1.471l5.209-3.06v0.12c0,0.229,0.07,0.41,0.23,0.569
					C399.15,616.829,399.36,617.13,399.65,617.51z"/>
				
					<linearGradient id="SVGID_45_" gradientUnits="userSpaceOnUse" x1="893.165" y1="341.2712" x2="893.165" y2="333.2815" gradientTransform="matrix(1 0 0 -1 -481.5 958.0767)">
					<stop  offset="0" style="stop-color:#5A5C61"/>
					<stop  offset="0.1176" style="stop-color:#888B91"/>
					<stop  offset="0.298" style="stop-color:#6D7078"/>
					<stop  offset="0.4078" style="stop-color:#A7A9AD"/>
					<stop  offset="0.6784" style="stop-color:#7E808B"/>
					<stop  offset="1" style="stop-color:#C7C8CD"/>
				</linearGradient>
				<path fill="url(#SVGID_45_)" d="M399.65,616.039l19.149-0.34c0.16,0.391,0.23,0.79,0.23,1.25v0.23c0,0.45,0,0.95,0,1.47
					l1.359,0.91l2.721,2.149c0.38,0.23,0.569,0.41,0.569,0.57c-0.39,0.23-0.979,0.391-1.819,0.45l-10.431,0.45
					c-3.79,0-6.279-0.45-7.479-1.36l-3.97-4.649C399.77,616.789,399.65,616.42,399.65,616.039z"/>
				<path fill="#1D1E1F" d="M393.99,620.46l5.67-2.95v2.149h-0.23l0.23,0.341L393.99,620.46z M420.39,619.55l-1.359-0.91
					c0-0.521,0-1.021,0-1.47v-0.23l3.399,0.91L420.39,619.55z"/>
				
					<linearGradient id="SVGID_46_" gradientUnits="userSpaceOnUse" x1="879.2549" y1="336.657" x2="904.3586" y2="336.657" gradientTransform="matrix(1 0 0 -1 -481.5 958.0767)">
					<stop  offset="0" style="stop-color:#292B2C"/>
					<stop  offset="0.102" style="stop-color:#46494D"/>
					<stop  offset="0.1412" style="stop-color:#B8BBBE"/>
					<stop  offset="0.1922" style="stop-color:#5C5F65"/>
					<stop  offset="0.251" style="stop-color:#6D7078"/>
					<stop  offset="0.302" style="stop-color:#E0E1E2"/>
					<stop  offset="0.4" style="stop-color:#414347"/>
					<stop  offset="0.8706" style="stop-color:#3E3F42"/>
					<stop  offset="0.9137" style="stop-color:#56595C"/>
					<stop  offset="0.9569" style="stop-color:#A3A7A9"/>
					<stop  offset="1" style="stop-color:#1D1E1F"/>
				</linearGradient>
				<path fill="url(#SVGID_46_)" d="M399.65,617.51c0.609,1.069,1.93,2.56,3.97,4.529c0.61,0.841,1.86,1.25,3.74,1.25l4.08-0.109
					l10.43-0.45c0.84-0.07,1.43-0.229,1.82-0.45v1.811c0,0.069-0.051,0.18-0.11,0.34v-0.34c-0.39,0.229-0.95,0.39-1.7,0.449
					l-14.5,0.79c-0.229,0-0.45,0-0.68,0c-1.59-0.229-2.61-0.64-3.061-1.25c-0.609-0.609-1.18-1.09-1.699-1.47
					c-0.07-0.229-0.23-0.41-0.45-0.57l-1.36-1.59l-0.34-0.229l-0.11-0.23v-0.34v-2.14H399.65z"/>
				
					<linearGradient id="SVGID_47_" gradientUnits="userSpaceOnUse" x1="278.7554" y1="277.6746" x2="280.5731" y2="277.6746" gradientTransform="matrix(-0.0624 -0.9981 -1.0001 0.0293 704.3172 885.8783)">
					<stop  offset="0" style="stop-color:#5A5C61"/>
					<stop  offset="0.302" style="stop-color:#BDBEC1"/>
					<stop  offset="0.4627" style="stop-color:#6B6D75"/>
					<stop  offset="1" style="stop-color:#82848E"/>
				</linearGradient>
				<path fill="url(#SVGID_47_)" d="M418.81,615.699l-19.149,0.34c-0.16-0.68,0.29-1.09,1.359-1.25l0.45-0.109l16.09-0.45
					c0.45,0.16,0.79,0.521,1.021,1.13C418.74,615.52,418.81,615.63,418.81,615.699z"/>
				
					<linearGradient id="SVGID_48_" gradientUnits="userSpaceOnUse" x1="899.8496" y1="342.052" x2="904.3781" y2="340.8403" gradientTransform="matrix(1 0 0 -1 -481.5 958.0767)">
					<stop  offset="0" style="stop-color:#505154"/>
					<stop  offset="0.4784" style="stop-color:#FFFFFF"/>
					<stop  offset="1" style="stop-color:#3F4044"/>
				</linearGradient>
				<path fill="url(#SVGID_48_)" d="M422.43,617.85l-3.399-0.91c0-0.45-0.07-0.86-0.23-1.25c0-0.07-0.069-0.18-0.229-0.34
					l4.189,1.47L422.43,617.85z"/>
			</g>
			<g>
				<g>
					
						<radialGradient id="SVGID_49_" cx="589.2939" cy="129.425" r="0.9917" gradientTransform="matrix(3.4237 0 0 -0.9987 -1609.9717 749.8761)" gradientUnits="userSpaceOnUse">
						<stop  offset="0" style="stop-color:#FFFFFF"/>
						<stop  offset="0.2549" style="stop-color:#F3F3F1"/>
						<stop  offset="0.3137" style="stop-color:#C6C7C1"/>
						<stop  offset="0.5216" style="stop-color:#9D9E94"/>
						<stop  offset="1" style="stop-color:#7D7E76"/>
					</radialGradient>
					<path fill="url(#SVGID_49_)" d="M405.43,620.909c0-0.069,0.23-0.22,0.681-0.45c0.52-0.159,1.13-0.229,1.81-0.229
						c0.61,0,1.2,0.07,1.811,0.229c0.52,0.23,0.789,0.381,0.789,0.45c0,0.3-0.27,0.57-0.789,0.8c-0.61,0.07-1.2,0.11-1.811,0.11
						c-0.68,0-1.29-0.05-1.81-0.11C405.66,621.48,405.43,621.21,405.43,620.909z"/>
				</g>
				<g>
					
						<linearGradient id="SVGID_50_" gradientUnits="userSpaceOnUse" x1="888.8027" y1="336.9368" x2="890.0488" y2="336.9368" gradientTransform="matrix(1 0 0 -1 -481.5 958.0767)">
						<stop  offset="0" style="stop-color:#585A52"/>
						<stop  offset="1" style="stop-color:#7A7D72"/>
					</linearGradient>
					<path fill="url(#SVGID_50_)" d="M407.93,621.82c-0.09,0-0.199,0-0.34,0l-0.229-0.109v-1.25h0.229v1.25
						C407.72,621.77,407.86,621.82,407.93,621.82c0.16,0,0.271-0.05,0.34-0.109v-1.25h0.45v1.25l-0.45,0.109
						C408.2,621.82,408.08,621.82,407.93,621.82z"/>
					
						<linearGradient id="SVGID_51_" gradientUnits="userSpaceOnUse" x1="889.4297" y1="337.928" x2="889.4297" y2="336.3991" gradientTransform="matrix(1 0 0 -1 -481.5 958.0767)">
						<stop  offset="0" style="stop-color:#282824"/>
						<stop  offset="1" style="stop-color:#818275"/>
					</linearGradient>
					<path fill="url(#SVGID_51_)" d="M407.59,620.46c0.16,0,0.271,0,0.34,0c0.16,0,0.271,0,0.34,0v1.25
						c-0.069,0.069-0.18,0.109-0.34,0.109c-0.09,0-0.199-0.05-0.34-0.109V620.46z"/>
				</g>
				<g>
					
						<radialGradient id="SVGID_52_" cx="589.7246" cy="130.927" r="0.1736" gradientTransform="matrix(3.4237 0 0 -0.9781 -1609.9717 748.8105)" gradientUnits="userSpaceOnUse">
						<stop  offset="0" style="stop-color:#FFFFFF"/>
						<stop  offset="0.6275" style="stop-color:#FFFFFF;stop-opacity:0.251"/>
						<stop  offset="1" style="stop-color:#FFFFFF;stop-opacity:0"/>
					</radialGradient>
					<path fill="url(#SVGID_52_)" d="M409.63,620.46c0.07,0.069,0.11,0.18,0.11,0.34l-0.11,0.109c-0.16,0-0.34,0-0.57,0
						c-0.159,0-0.27,0-0.34,0l-0.229-0.109c0-0.16,0.069-0.271,0.229-0.34c0.07,0,0.181,0,0.34,0
						C409.29,620.46,409.47,620.46,409.63,620.46z"/>
				</g>
				<g>
					
						<radialGradient id="SVGID_53_" cx="268.3887" cy="-158.4939" r="0.8668" gradientTransform="matrix(3.4237 0 0 -3.4237 -510.9678 78.2758)" gradientUnits="userSpaceOnUse">
						<stop  offset="0" style="stop-color:#ECE3D7"/>
						<stop  offset="1" style="stop-color:#BA9C69;stop-opacity:0"/>
					</radialGradient>
					<path fill="url(#SVGID_53_)" d="M409.74,621.71c0.109,0,0.229,0,0.34,0c0.29,0,0.5-0.07,0.57-0.23
						c0.39-0.07,0.63-0.27,0.79-0.57c-0.16,0.391-0.45,0.681-0.91,0.91c-0.9,0.16-1.771,0.23-2.601,0.23c-0.229,0-0.41,0-0.569,0
						c-0.841,0-1.54-0.07-2.15-0.23c-0.61-0.229-0.91-0.52-0.91-0.91l0.57-0.34c-0.23,0.16-0.34,0.271-0.34,0.34v0.23
						c0.069,0.229,0.41,0.45,1.02,0.68c0.521,0,1.13,0,1.811,0c0.159,0,0.29,0,0.449,0c0.23,0,0.391,0,0.45,0c0.16,0,0.34,0,0.57,0
						c0.16,0,0.34,0,0.57,0C409.51,621.8,409.63,621.75,409.74,621.71z M408.38,620.01c0.48,0,0.811,0.09,1.021,0.229h-0.23
						c-0.29,0-0.75,0-1.36,0h-0.229c-0.61,0-1.13,0.07-1.59,0.23c0.229-0.16,0.45-0.23,0.68-0.23c0.36-0.14,0.66-0.229,0.91-0.229
						h0.34c0.16,0,0.271,0,0.34,0H408.38z M409.63,620.23c0.07,0,0.23,0,0.45,0c0.38,0.16,0.68,0.34,0.91,0.56v0.11
						c0-0.22-0.32-0.38-0.91-0.45C409.85,620.3,409.7,620.23,409.63,620.23z"/>
					
						<radialGradient id="SVGID_54_" cx="268.7158" cy="-158.2869" r="0.823" fx="268.7222" fy="-158.2869" gradientTransform="matrix(3.4237 0 0 -3.4237 -510.9678 78.2758)" gradientUnits="userSpaceOnUse">
						<stop  offset="0.0235" style="stop-color:#090909;stop-opacity:0.8235"/>
						<stop  offset="0.4157" style="stop-color:#010101;stop-opacity:0.298"/>
						<stop  offset="0.7216" style="stop-color:#010101;stop-opacity:0"/>
						<stop  offset="1" style="stop-color:#000000;stop-opacity:0.251"/>
					</radialGradient>
					<path fill="url(#SVGID_54_)" d="M409.4,621.82c0.229-0.069,0.449-0.18,0.68-0.34c0.29-0.07,0.5-0.18,0.57-0.34
						c0.159,0,0.27-0.07,0.34-0.23V620.8c-0.23-0.221-0.521-0.41-0.91-0.561c-0.23,0-0.39,0-0.45,0H409.4
						c-0.2-0.14-0.54-0.229-1.021-0.229c0.34,0,0.771,0,1.25,0h0.11c0.16,0.16,0.27,0.229,0.34,0.229h0.229
						c0.61,0.16,0.91,0.38,0.91,0.681c-0.16,0.3-0.39,0.5-0.68,0.569h-0.23c-0.159,0.09-0.34,0.181-0.569,0.23
						C409.63,621.75,409.51,621.8,409.4,621.82z M407.59,620.01c-0.25,0-0.54,0.09-0.91,0.229c-0.229,0-0.449,0.07-0.68,0.23h-0.57
						c-0.16,0-0.27,0.05-0.34,0.109v0.23l-0.229,0.11c0,0.3,0.3,0.5,0.909,0.569c0.23,0.13,0.41,0.23,0.57,0.23
						c-0.229,0-0.5-0.091-0.79-0.23c-0.45-0.069-0.79-0.18-1.02-0.34v-0.229c0-0.07,0.109-0.181,0.34-0.341
						c0.16-0.069,0.38-0.18,0.68-0.34C406.14,620.07,406.82,620.01,407.59,620.01z"/>
				</g>
			</g>
			<g>
				<g>
					
						<radialGradient id="SVGID_55_" cx="591.9424" cy="132.3748" r="1.0346" gradientTransform="matrix(3.4237 0 0 -0.9586 -1609.9717 747.106)" gradientUnits="userSpaceOnUse">
						<stop  offset="0" style="stop-color:#FFFFFF"/>
						<stop  offset="0.2549" style="stop-color:#F3F3F1"/>
						<stop  offset="0.3137" style="stop-color:#C6C7C1"/>
						<stop  offset="0.5216" style="stop-color:#9D9E94"/>
						<stop  offset="1" style="stop-color:#7D7E76"/>
					</radialGradient>
					<path fill="url(#SVGID_55_)" d="M419.71,620.57c0,0.22-0.229,0.41-0.68,0.57c-0.521,0.16-1.13,0.229-1.811,0.229
						c-0.75,0-1.43-0.069-2.04-0.229c-0.449-0.16-0.68-0.34-0.68-0.57c0-0.229,0.23-0.41,0.68-0.569c0.61-0.07,1.29-0.12,2.04-0.12
						c0.681,0,1.29,0.05,1.811,0.12C419.49,620.159,419.71,620.34,419.71,620.57z"/>
				</g>
				<g>
					
						<linearGradient id="SVGID_56_" gradientUnits="userSpaceOnUse" x1="898.0967" y1="337.4519" x2="899.3428" y2="337.4519" gradientTransform="matrix(1 0 0 -1 -481.5 958.0767)">
						<stop  offset="0" style="stop-color:#585A52"/>
						<stop  offset="1" style="stop-color:#7A7D72"/>
					</linearGradient>
					<path fill="url(#SVGID_56_)" d="M416.65,620.01c0.229-0.07,0.409-0.12,0.569-0.12c0.07,0,0.181,0.05,0.34,0.12
						c-0.159,0-0.27,0-0.34,0c-0.16,0-0.27,0-0.34,0H416.65z M417.56,621.36V620h0.341v1.13L417.56,621.36z M416.88,621.36h-0.229
						v-0.229L416.88,621.36z"/>
					
						<linearGradient id="SVGID_57_" gradientUnits="userSpaceOnUse" x1="898.6055" y1="338.4368" x2="898.6055" y2="336.7955" gradientTransform="matrix(1 0 0 -1 -481.5 958.0767)">
						<stop  offset="0" style="stop-color:#282824"/>
						<stop  offset="1" style="stop-color:#818275"/>
					</linearGradient>
					<path fill="url(#SVGID_57_)" d="M417.56,620.01v1.359c-0.159,0-0.27,0-0.34,0c-0.16,0-0.27,0-0.34,0l-0.229-0.229v-1.13h0.229
						c0.07,0,0.18,0,0.34,0C417.29,620.01,417.4,620.01,417.56,620.01z"/>
				</g>
				<g>
					
						<radialGradient id="SVGID_58_" cx="592.4717" cy="134.3508" r="0.1819" gradientTransform="matrix(3.4237 0 0 -0.9336 -1609.9717 745.6033)" gradientUnits="userSpaceOnUse">
						<stop  offset="0" style="stop-color:#FFFFFF"/>
						<stop  offset="0.6275" style="stop-color:#FFFFFF;stop-opacity:0.251"/>
						<stop  offset="1" style="stop-color:#FFFFFF;stop-opacity:0"/>
					</radialGradient>
					<path fill="url(#SVGID_58_)" d="M418.81,620.01l0.23,0.229l-0.23,0.23c-0.159,0-0.27,0-0.34,0c-0.229,0-0.41,0-0.569,0
						l-0.11-0.23l0.11-0.229c0.159,0,0.34,0,0.569,0C418.53,620.01,418.65,620.01,418.81,620.01z"/>
				</g>
				<g>
					
						<radialGradient id="SVGID_59_" cx="271.1006" cy="-158.3577" r="0.8427" gradientTransform="matrix(3.4237 0 0 -3.4237 -510.9678 78.2758)" gradientUnits="userSpaceOnUse">
						<stop  offset="0" style="stop-color:#ECE3D7"/>
						<stop  offset="1" style="stop-color:#BA9C69;stop-opacity:0"/>
					</radialGradient>
					<path fill="url(#SVGID_59_)" d="M413.59,620.46c0,0.069,0,0.18,0,0.34c0.07,0.069,0.41,0.27,1.021,0.569
						c0.52,0.07,1.199,0.11,2.04,0.11h0.34c0.97,0,1.77-0.04,2.38-0.11c0.229-0.159,0.41-0.289,0.57-0.449h0.109
						c0.23,0,0.41-0.11,0.57-0.341c0,0.221-0.29,0.5-0.9,0.79c-0.84,0.23-1.66,0.341-2.5,0.341h-0.569
						c-0.841,0-1.54-0.12-2.15-0.341c-0.75-0.29-1.13-0.569-1.13-0.79C413.37,620.5,413.43,620.46,413.59,620.46z M418.47,619.67
						h0.34c0.16,0,0.341,0.09,0.57,0.229c0.45,0.07,0.75,0.18,0.91,0.34c0.07,0,0.11,0.07,0.11,0.23l-0.11,0.109
						c0-0.229-0.3-0.409-0.91-0.569c-0.229-0.07-0.41-0.11-0.57-0.11C418.65,619.9,418.53,619.82,418.47,619.67z M416.72,619.67
						c-0.68,0.02-1.22,0.13-1.66,0.34v-0.12c0.23-0.16,0.45-0.23,0.681-0.23C416.09,619.67,416.4,619.67,416.72,619.67z"/>
					
						<radialGradient id="SVGID_60_" cx="271.4614" cy="-158.1394" r="0.8434" fx="271.4681" fy="-158.1394" gradientTransform="matrix(3.4237 0 0 -3.4237 -510.9678 78.2758)" gradientUnits="userSpaceOnUse">
						<stop  offset="0.0235" style="stop-color:#090909;stop-opacity:0.8235"/>
						<stop  offset="0.4157" style="stop-color:#010101;stop-opacity:0.298"/>
						<stop  offset="0.7216" style="stop-color:#010101;stop-opacity:0"/>
						<stop  offset="1" style="stop-color:#000000;stop-opacity:0.251"/>
					</radialGradient>
					<path fill="url(#SVGID_60_)" d="M419.71,620.909c-0.59,0.23-1.2,0.391-1.82,0.45c0.521-0.07,1.021-0.229,1.471-0.45
						C419.44,620.909,419.55,620.909,419.71,620.909z M415.07,620.01h-0.45c-0.07,0-0.18,0.069-0.34,0.229h-0.11v0.23
						c0,0.29,0.29,0.45,0.91,0.45c0.3,0.3,0.66,0.43,1.13,0.449c-0.57,0-1.09-0.09-1.59-0.229c-0.45-0.16-0.79-0.271-1.021-0.34
						c0-0.16,0-0.271,0-0.341c0.07-0.159,0.181-0.229,0.341-0.229c0.159-0.16,0.39-0.271,0.68-0.34c0.75-0.23,1.63-0.34,2.61-0.34
						c0.069,0,0.18,0,0.34,0c0.449,0,0.859,0.04,1.25,0.109c0.38,0,0.68,0,0.91,0c0.609,0.23,0.899,0.5,0.899,0.79l-0.229,0.11
						c0,0.16-0.11,0.27-0.341,0.34c0-0.07,0.07-0.18,0.23-0.34l0.11-0.11c0-0.16-0.051-0.229-0.11-0.229
						c-0.16-0.16-0.46-0.271-0.91-0.341c-0.229-0.14-0.41-0.229-0.57-0.229h-0.34h-1.75c-0.319,0-0.64,0-0.95,0
						c-0.229,0-0.449,0.07-0.68,0.229V620L415.07,620.01L415.07,620.01z"/>
				</g>
			</g>
		</g>
		
			<linearGradient id="SVGID_61_" gradientUnits="userSpaceOnUse" x1="229.7622" y1="388.8279" x2="281.8393" y2="388.8279" gradientTransform="matrix(4.352557e-005 -1 -1 -0.2059 669.9763 1028.6299)">
			<stop  offset="0" style="stop-color:#373936;stop-opacity:0.502"/>
			<stop  offset="0.0863" style="stop-color:#74766B;stop-opacity:0.502"/>
			<stop  offset="0.1804" style="stop-color:#A9A393;stop-opacity:0.502"/>
			<stop  offset="0.298" style="stop-color:#43617B;stop-opacity:0.502"/>
			<stop  offset="0.3922" style="stop-color:#333A40;stop-opacity:0.502"/>
			<stop  offset="0.4627" style="stop-color:#141212;stop-opacity:0.502"/>
			<stop  offset="0.549" style="stop-color:#2E2B29;stop-opacity:0.502"/>
			<stop  offset="0.6314" style="stop-color:#77736E;stop-opacity:0.502"/>
			<stop  offset="0.7412" style="stop-color:#E8E6E3;stop-opacity:0.502"/>
			<stop  offset="0.8235" style="stop-color:#B9B4AC;stop-opacity:0.502"/>
			<stop  offset="0.8863" style="stop-color:#FFFFFD;stop-opacity:0.502"/>
			<stop  offset="1" style="stop-color:#232637;stop-opacity:0.502"/>
		</linearGradient>
		<path fill="url(#SVGID_61_)" d="M291.87,712.829c0,2.881-0.07,5.511-0.23,7.931l-21.53-4.53c0.16,0,0.23-2.61,0.23-7.82
			c0.07-5.06,0.11-11.22,0.11-18.47s-0.04-13.42-0.11-18.47c0-5.21-0.07-7.82-0.23-7.82l21.53,4.76
			c0.39,7.48,0.57,16.141,0.57,25.95C292.21,701.09,292.1,707.23,291.87,712.829z"/>
		
			<linearGradient id="SVGID_62_" gradientUnits="userSpaceOnUse" x1="872.2197" y1="186.9963" x2="897.9135" y2="186.9963" gradientTransform="matrix(1.5737 -0.0652 0.0236 -1.0224 -1105.3311 943.4166)">
			<stop  offset="0" style="stop-color:#8C8A7D;stop-opacity:0"/>
			<stop  offset="0.1882" style="stop-color:#8D8B7E;stop-opacity:0.2039"/>
			<stop  offset="0.4784" style="stop-color:#959284"/>
			<stop  offset="1" style="stop-color:#888579;stop-opacity:0"/>
		</linearGradient>
		<path fill="url(#SVGID_62_)" d="M308.94,716.659c0,2.88-0.11,5.511-0.36,7.931l-34.52-7.351c0.25,0.021,0.36-2.58,0.36-7.819
			c0.11-5.051,0.18-11.221,0.18-18.5c0-7.28-0.07-13.44-0.18-18.54c0-5.24-0.11-7.841-0.36-7.87l34.52,7.569
			c0.61,7.551,0.9,16.25,0.9,26.091C309.51,704.92,309.3,711.079,308.94,716.659z"/>
	</g>
	<g>
		<g>
			<path fill="#B97373" d="M-54.02,750.68c0-0.07,0.05-0.11,0.11-0.11c0.23-0.39,0.63-0.64,1.25-0.79
				c54.01-26.6,94.45-36.68,121.26-30.27c29.63,6.05,44.24,29.92,43.86,71.63c0,0.61-0.07,1.25-0.23,1.92c0,1.43,0,3.36,0,5.78
				l-0.91,15.069c-4.83,1.65-9.59,1.65-14.28,0c-0.16-0.449-0.23-1.06-0.23-1.81l0.79-14.51c0-2.88,0.11-5.101,0.34-6.69
				c0.23-32.64-10.58-51.68-32.41-57.12C40.76,728.5,3.47,738.159-46.33,762.8c-0.23,0-0.41,0.109-0.57,0.34
				c-0.45,0.29-0.79,0.5-1.02,0.57"/>
		</g>
		<g>
			
				<radialGradient id="SVGID_63_" cx="488.9238" cy="224.3914" r="28.9835" fx="489.0375" fy="224.3914" gradientTransform="matrix(3.3963 -0.4331 -0.1862 -1.4595 -1584.2052 1286.3256)" gradientUnits="userSpaceOnUse">
				<stop  offset="0.3098" style="stop-color:#874444"/>
				<stop  offset="0.4314" style="stop-color:#874444"/>
				<stop  offset="0.5686" style="stop-color:#9C5858"/>
				<stop  offset="0.9255" style="stop-color:#9C5858"/>
			</radialGradient>
			<path fill="url(#SVGID_63_)" d="M46.62,732.659c-5.44,0.29-11.22,0.971-17.34,2.04c0.68-0.75-0.75-3.24-4.31-7.479
				c2.27-4.53,0.75-6.391-4.53-5.55c8.32-1.971,16.14-3.17,23.46-3.631L46.62,732.659z"/>
			
				<radialGradient id="SVGID_64_" cx="506.9883" cy="838.9807" r="44.5642" fx="510.3087" fy="838.9807" gradientTransform="matrix(3.207 -1.1986 -0.2701 -0.7231 -1408.4703 1920.0936)" gradientUnits="userSpaceOnUse">
				<stop  offset="0" style="stop-color:#985050;stop-opacity:0"/>
				<stop  offset="0.6314" style="stop-color:#985050;stop-opacity:0"/>
				<stop  offset="0.7961" style="stop-color:#7D3A3A;stop-opacity:0.3725"/>
				<stop  offset="1" style="stop-color:#6B2B2B;stop-opacity:0.6392"/>
			</radialGradient>
			<path fill="url(#SVGID_64_)" d="M29.28,734.699c-0.16,0-0.27,0.11-0.34,0.34c-2.33,0.381-4.65,0.86-6.91,1.471
				c-2.88,0.609-5.78,1.31-8.73,2.149c-12.4,3.63-26.14,8.841-41.25,15.641l-3.29-14.511C-14.31,732.31,1.1,726.76,15,723.13
				c1.81-0.521,3.63-1.021,5.44-1.471c5.28-0.84,6.8,1.021,4.53,5.551C28.53,731.46,29.96,733.949,29.28,734.699z"/>
			
				<radialGradient id="SVGID_65_" cx="484.3906" cy="33.2415" r="17.222" fx="484.4581" fy="33.2415" gradientTransform="matrix(3.4237 0 0 -3.3528 -1609.9717 890.6331)" gradientUnits="userSpaceOnUse">
				<stop  offset="0" style="stop-color:#985050;stop-opacity:0"/>
				<stop  offset="0.7647" style="stop-color:#874444"/>
				<stop  offset="0.8941" style="stop-color:#874444"/>
				<stop  offset="1" style="stop-color:#9C5858"/>
			</radialGradient>
			<path fill="url(#SVGID_65_)" d="M108.27,757.369l-12.69,10.54c-4.08-18.75-14.17-30.029-30.26-33.89
				c-5.67-1.2-11.9-1.66-18.7-1.36l-2.72-14.62c9.07-0.609,17.23-0.069,24.48,1.58C88.71,723.77,101.99,736.35,108.27,757.369z"/>
			
				<radialGradient id="SVGID_66_" cx="492.0703" cy="2.5374" r="9.8729" fx="492.109" fy="2.5374" gradientTransform="matrix(3.4237 0 0 -8.3685 -1609.9717 809.58)" gradientUnits="userSpaceOnUse">
				<stop  offset="0" style="stop-color:#985050;stop-opacity:0"/>
				<stop  offset="0.7647" style="stop-color:#874444"/>
				<stop  offset="1" style="stop-color:#9C5858"/>
			</radialGradient>
			<path fill="url(#SVGID_66_)" d="M108.27,757.369c2.79,9.45,4.13,20.74,3.97,33.891c0,0.609-0.04,1.2-0.11,1.81
				c0,1.59,0,3.58,0,6.01l-0.91,14.96c-4.83,1.74-9.63,1.74-14.39,0c-0.07-0.449-0.11-1.069-0.11-1.81l0.68-14.51
				c0-2.88,0.07-5.101,0.23-6.69c0.23-8.77-0.45-16.479-2.04-23.12L108.27,757.369z"/>
		</g>
		<g>
			
				<linearGradient id="SVGID_67_" gradientUnits="userSpaceOnUse" x1="577.1543" y1="142.0647" x2="594.3265" y2="142.1465" gradientTransform="matrix(1 0 0 -1 -481.5 958.0767)">
				<stop  offset="0.0863" style="stop-color:#FAFAF9"/>
				<stop  offset="0.3804" style="stop-color:#A9A393"/>
				<stop  offset="0.5333" style="stop-color:#86817C"/>
				<stop  offset="0.7412" style="stop-color:#E8E6E3"/>
				<stop  offset="0.8235" style="stop-color:#B9B4AC"/>
				<stop  offset="0.8863" style="stop-color:#FFFFFD"/>
				<stop  offset="1" style="stop-color:#232637"/>
			</linearGradient>
			<path fill="url(#SVGID_67_)" d="M111.9,818.23c-5.21,0.68-10.47,0.68-15.75,0v-4.99c4.99,0.521,10.25,0.521,15.75,0V818.23z"/>
		</g>
		
			<radialGradient id="SVGID_68_" cx="202.6919" cy="445.344" r="4.5349" fx="202.763" fy="445.344" gradientTransform="matrix(4.6494 1.1979 0.2859 -1.1096 -999.7229 974.3275)" gradientUnits="userSpaceOnUse">
			<stop  offset="0" style="stop-color:#FFFFFF"/>
			<stop  offset="0.2118" style="stop-color:#FFFFFF"/>
			<stop  offset="0.2784" style="stop-color:#FFFFFF;stop-opacity:0.6902"/>
			<stop  offset="0.3961" style="stop-color:#FFFFFF;stop-opacity:0.4118"/>
			<stop  offset="0.5922" style="stop-color:#FFFFFF;stop-opacity:0.0667"/>
			<stop  offset="0.7765" style="stop-color:#FFFFFF;stop-opacity:0.0078"/>
			<stop  offset="0.9765" style="stop-color:#FFFFFF;stop-opacity:0.0039"/>
			<stop  offset="1" style="stop-color:#FFFFFF;stop-opacity:0"/>
		</radialGradient>
		<path fill="url(#SVGID_68_)" d="M82.43,729.55c-3.83-0.04-8.34-0.75-13.58-2.08c-5.12-1.311-9.43-2.9-12.9-4.74
			c-3.38-1.79-4.9-3.31-4.58-4.55c0.32-1.22,2.38-1.811,6.21-1.771c3.92,0.091,8.43,0.79,13.58,2.13c5.24,1.341,9.54,2.92,12.9,4.69
			c3.47,1.84,5.03,3.36,4.71,4.58C88.46,729.079,86.33,729.64,82.43,729.55z"/>
	</g>
	<g>
		<g>
			
				<radialGradient id="SVGID_69_" cx="265.7119" cy="-22.6775" r="8.3739" gradientTransform="matrix(3.4237 0 0 -3.4237 -510.9678 78.2758)" gradientUnits="userSpaceOnUse">
				<stop  offset="0" style="stop-color:#FFFFFF"/>
				<stop  offset="0.251" style="stop-color:#FFFFFF"/>
				<stop  offset="0.3373" style="stop-color:#FFFFFF;stop-opacity:0.7804"/>
				<stop  offset="0.4863" style="stop-color:#555555;stop-opacity:0.651"/>
				<stop  offset="0.5843" style="stop-color:#CCCCCC;stop-opacity:0.902"/>
				<stop  offset="0.7098" style="stop-color:#FFFFFF"/>
			</radialGradient>
			<path fill="url(#SVGID_69_)" d="M399.43,171.32h-0.569c-0.07,0-0.16,0-0.23,0c-0.45,0-0.84,0-1.13,0h-0.57
				c-0.52-0.069-1.09-0.159-1.7-0.229c-3.17-0.68-6.01-2.22-8.5-4.65c-3.4-3.109-5.1-7.09-5.1-12.01c0-4.6,1.7-8.57,5.1-11.9
				c3.33-3.399,7.3-5.1,11.9-5.1c4.6,0,8.61,1.7,12.01,5.1c3.24,3.33,4.87,7.301,4.87,11.9c0,4.92-1.63,8.91-4.87,12.01
				c-2.34,2.34-5.029,3.851-8.05,4.53C401.62,171.13,400.56,171.25,399.43,171.32z M391.83,161.8c1.97,1.74,4.26,2.61,6.91,2.61
				c2.72,0,5.029-0.86,6.91-2.61c2.34-2.2,3.51-4.65,3.51-7.37c0-2.56-1.18-4.99-3.51-7.25c-1.881-1.81-4.19-2.72-6.91-2.72
				c-2.65,0-4.94,0.91-6.91,2.72c-2.04,2.271-3.06,4.69-3.06,7.25C388.77,157.15,389.79,159.6,391.83,161.8z"/>
			
				<linearGradient id="SVGID_70_" gradientUnits="userSpaceOnUse" x1="872.1455" y1="571.6252" x2="889.9336" y2="571.6252" gradientTransform="matrix(1 0 0 -1 -481.5 958.0767)">
				<stop  offset="0" style="stop-color:#FFFFFF;stop-opacity:0.8118"/>
				<stop  offset="0.4941" style="stop-color:#FDFDFD;stop-opacity:0"/>
				<stop  offset="0.6784" style="stop-color:#F9F9F9;stop-opacity:0.3176"/>
				<stop  offset="0.8078" style="stop-color:#F7F7F7"/>
				<stop  offset="1" style="stop-color:#F6F6F6;stop-opacity:0.498"/>
			</linearGradient>
			<path fill="url(#SVGID_70_)" d="M406.57,601.76c-4.08,0.229-8.61,0.229-13.6,0c-0.68,0-1.4-0.07-2.15-0.23v-366.3V208.6v-12.01
				c-0.3-3.11,0.29-5.55,1.81-7.37c1.52-1.81,2.2-4.83,2.04-9.07v-9.069c0.68,0.069,1.43,0.16,2.271,0.229h0.569
				c0.3,0,0.681,0,1.13,0c0.07,0,0.16,0,0.23,0h0.57c1.52,0,2.949-0.109,4.31-0.34v11c0.38,3.17,1.29,5.37,2.72,6.57
				c1.521,1.13,2.2,3.56,2.04,7.25v12.81v26.63v366.3C407.88,601.69,407.25,601.76,406.57,601.76z"/>
			<path fill="#46271C" d="M392.97,601.76c4.99,0.229,9.52,0.229,13.6,0v0.12h-0.11c-1.81,0.159-3.9,0.229-6.229,0.229
				C397.34,602.1,394.94,601.99,392.97,601.76z"/>
		</g>
		<g>
			<path fill="none" d="M394.67,139.58c-9.97,3.92-13.26,11.22-9.86,21.87"/>
			<path fill="none" d="M402.6,187.18c2.79,1.36,4.351,3.44,4.65,6.23"/>
			<line fill="none" x1="396.48" y1="171.99" x2="396.48" y2="173.02"/>
			<path fill="none" d="M395.91,187.75c-2.27,1.88-3.36,4.489-3.29,7.819"/>
			<line fill="none" x1="396.48" y1="173.02" x2="396.25" y2="184.69"/>
		</g>
		<g>
			<path fill="#FFFFFF" d="M397.61,136.41c0.38,0.29,0.5,0.729,0.34,1.25c-0.23,2.72,0.16,4.72,1.13,6.01
				c0.68,0.75,1.75,1.13,3.17,1.13l3.4,2.38c-4.15,2.56-7.19,2.61-9.07,0.11c-1.97-2.561-2.76-5.851-2.38-9.86
				c0.07-0.52,0.29-0.95,0.68-1.25c0.39-0.45,0.84-0.64,1.36-0.57C396.71,135.68,397.16,135.95,397.61,136.41z"/>
		</g>
	</g>
</g>
</svg>
