<?xml version="1.0" encoding="utf-8"?>
<!-- Generator: Adobe Illustrator 16.0.0, SVG Export Plug-In . SVG Version: 6.00 Build 0)  -->
<!DOCTYPE svg PUBLIC "-//W3C//DTD SVG 1.1//EN" "http://www.w3.org/Graphics/SVG/1.1/DTD/svg11.dtd">
<svg version="1.1" id="Layer_1" xmlns="http://www.w3.org/2000/svg" xmlns:xlink="http://www.w3.org/1999/xlink" x="0px" y="0px"
	 width="200.8px" height="564px" viewBox="0 0 200.8 564" enable-background="new 0 0 200.8 564" xml:space="preserve">
<g>
	<g>
		<path d="M174.75,556.25l10.451,4.9H19.65C13.52,559.02,9,557.32,6.1,556.05L174.75,556.25z"/>
	</g>
	<g>
		<g>
			<path fill-opacity="0.251" d="M173.1,53.5l-0.2,498.85l21.051,7.7H21.9L2.7,554.7L2,538.3h19.05V63.55
				c7.97-27.8,14.08-33.92,18.35-18.35h129.25L173.1,53.5z"/>
		</g>
		<g>
			<path fill-opacity="0.4784" d="M143.35,51.75L143.1,550.6l17.2,7.7H20.2l-15.65-5.35l-0.6-16.4H19.5V61.8
				C26,34,30.97,27.87,34.4,43.4h105.25L143.35,51.75z"/>
		</g>
		<g>
			
				<linearGradient id="SVGID_1_" gradientUnits="userSpaceOnUse" x1="-251.5117" y1="948.5225" x2="-238.2355" y2="198.9012" gradientTransform="matrix(1 0 0 -1 281.5 755.5)">
				<stop  offset="0" style="stop-color:#B4B8C0"/>
				<stop  offset="0.5333" style="stop-color:#E1E2E6"/>
				<stop  offset="1" style="stop-color:#9D9FA6"/>
			</linearGradient>
			<path fill="url(#SVGID_1_)" d="M30.35,538.15V9.45v-0.3H46.2v6.05v37.25v4.95v477.45c-0.07,0-0.12,0.021-0.15,0.051h0.15v2.949
				V538v2.65H30.35l0.15-2.5H30.35z"/>
			<polygon fill="#534D45" points="135.25,57.4 95.4,57.4 46.2,57.4 46.2,52.45 139.05,52.45 147.451,52.45 147.451,52.9 
				135.701,57.4 			"/>
			
				<linearGradient id="SVGID_2_" gradientUnits="userSpaceOnUse" x1="-120.9282" y1="720.2188" x2="-225.1275" y2="722.4514" gradientTransform="matrix(1 0 0 -1 281.5 755.5)">
				<stop  offset="0" style="stop-color:#485362"/>
				<stop  offset="0.1176" style="stop-color:#6D7683"/>
				<stop  offset="0.1608" style="stop-color:#CED2DB"/>
				<stop  offset="1" style="stop-color:#A5ADB8"/>
			</linearGradient>
			<rect x="46.2" y="15.2" fill="url(#SVGID_2_)" width="92.85" height="37.25"/>
			
				<linearGradient id="SVGID_3_" gradientUnits="userSpaceOnUse" x1="-270.6748" y1="795.209" x2="-243.357" y2="227.0873" gradientTransform="matrix(1 0 0 -1 281.5 755.5)">
				<stop  offset="0" style="stop-color:#8C8F98"/>
				<stop  offset="1" style="stop-color:#797C86"/>
			</linearGradient>
			<polygon fill="url(#SVGID_3_)" points="30.35,9.45 30.35,538.15 30.35,538.6 30.35,540.65 21.6,538.15 21.45,538.15 21.45,40.4 
							"/>
			
				<linearGradient id="SVGID_4_" gradientUnits="userSpaceOnUse" x1="-228.0146" y1="698.0586" x2="-153.5427" y2="217.7332" gradientTransform="matrix(1 0 0 -1 281.5 755.5)">
				<stop  offset="0" style="stop-color:#777777"/>
				<stop  offset="0.5882" style="stop-color:#717C86"/>
				<stop  offset="1" style="stop-color:#4E5054"/>
			</linearGradient>
			<path fill="url(#SVGID_4_)" d="M46.2,534.85V57.4h49.2h39.85v215.55v0.1v264.8h-88.7H46.2V534.9V534.85z M80.65,404.45
				c0.07,0,0.15,0.02,0.25,0.05v-1.3C80.8,403.23,80.72,403.65,80.65,404.45z"/>
			<path fill="#3F3F3A" d="M80.65,404.45c0.07-0.8,0.15-1.22,0.25-1.25v1.3C80.8,404.47,80.72,404.45,80.65,404.45z"/>
			<polygon fill="#A9A9AA" points="30.35,538.6 30.35,538.15 30.5,538.15 			"/>
			<polygon fill="#797C86" points="6.7,538.25 18.95,542.2 18.8,542.4 18.8,560.5 6.7,555.95 			"/>
			<path fill="#B6B8BB" d="M181.65,542.55l-162.7-0.35L6.7,538.25v-0.1h14.75h0.15l8.75,2.5H46.2h101.25h0.6h15.3v-0.9
				c-0.07-0.03-0.101-0.07-0.101-0.1l0.101,0.05v-1.4L181.65,542.55z"/>
			
				<linearGradient id="SVGID_5_" gradientUnits="userSpaceOnUse" x1="-359.1968" y1="683.9453" x2="-180.4933" y2="201.8658" gradientTransform="matrix(1 0 0 -1 281.5 755.5)">
				<stop  offset="0" style="stop-color:#DADDE8"/>
				<stop  offset="0.5804" style="stop-color:#D6D7DE"/>
				<stop  offset="1" style="stop-color:#989EAB"/>
			</linearGradient>
			<polygon fill="url(#SVGID_5_)" points="18.95,542.2 181.65,542.55 181.6,560.65 19.05,560.6 18.8,560.5 18.8,542.4 			"/>
			<path fill="#CDCFD1" d="M18.8,560.5l0.25,0.1H18.8V560.5z M0,584.85l1.9-1.699v2L0,584.85z"/>
			<path fill="#696A72" d="M141.701,537.85l0.6-1.25l-0.6,1.351V537.85z M46.2,537.85h0.35c-0.13,0.07-0.25,0.12-0.35,0.15V537.85z
				 M46.2,534.9h-0.15c0.03-0.03,0.08-0.051,0.15-0.051V534.9z"/>
			<path fill="#2D2E2F" d="M46.2,538c0.1-0.03,0.22-0.08,0.35-0.15h88.7v0.101l11.851,2.5l0.351,0.2H46.2V538z"/>
			
				<linearGradient id="SVGID_6_" gradientUnits="userSpaceOnUse" x1="-144.0225" y1="721.6758" x2="-134.5957" y2="721.6733" gradientTransform="matrix(1 0 0 -1 281.5 755.5)">
				<stop  offset="0" style="stop-color:#CBCFD8"/>
				<stop  offset="0.6902" style="stop-color:#C7CCD5"/>
				<stop  offset="0.8627" style="stop-color:#ACB3BE"/>
				<stop  offset="1" style="stop-color:#505B6B"/>
			</linearGradient>
			<polygon fill="url(#SVGID_6_)" points="138.05,52.45 138.05,15.2 145.25,15.2 147.451,15.2 147.451,52.45 			"/>
			<polygon fill="#677383" points="147.451,15.2 145.25,15.2 147.451,9.15 			"/>
			
				<linearGradient id="SVGID_7_" gradientUnits="userSpaceOnUse" x1="-220.5088" y1="735.3584" x2="-41.8044" y2="253.2763" gradientTransform="matrix(1 0 0 -1 281.5 755.5)">
				<stop  offset="0" style="stop-color:#DADDE8"/>
				<stop  offset="0.5804" style="stop-color:#D6D7DE"/>
				<stop  offset="1" style="stop-color:#BDC0CA"/>
			</linearGradient>
			<path fill="url(#SVGID_7_)" d="M147.451,540.5V52.9v-0.45V15.2V9.15h15.899V538.3v1.4l-0.101-0.05c0,0.029,0.03,0.069,0.101,0.1
				v0.9h-15.3L147.451,540.5z"/>
			
				<linearGradient id="SVGID_8_" gradientUnits="userSpaceOnUse" x1="-206.7627" y1="687.9111" x2="-80.7932" y2="257.0595" gradientTransform="matrix(1 0 0 -1 281.5 755.5)">
				<stop  offset="0" style="stop-color:#5E5E5E"/>
				<stop  offset="0.5882" style="stop-color:#626262"/>
				<stop  offset="1" style="stop-color:#302625"/>
			</linearGradient>
			<path fill="url(#SVGID_8_)" d="M135.25,537.85v-264.8v-0.1V57.4h0.451l11.75-4.5v487.6l-0.351-0.05l-11.851-2.5V537.85z
				 M141.701,537.85v0.101l0.6-1.351L141.701,537.85z"/>
			<polygon fill="#423633" points="147.1,540.45 147.451,540.5 147.451,540.65 			"/>
			<polygon fill="#6C573D" points="147.451,540.65 147.451,540.5 148.05,540.65 			"/>
			
				<path fill="none" stroke="#000000" stroke-width="0.1" stroke-linecap="round" stroke-linejoin="round" stroke-miterlimit="3" d="
				M135.25,273.05v-0.1 M135.25,537.85v0.101"/>
		</g>
		<g>
			<line fill="none" x1="30.95" y1="13.8" x2="30.95" y2="503.8"/>
			<line fill="none" x1="18.9" y1="542.15" x2="173.8" y2="542.15"/>
		</g>
	</g>
</g>
</svg>
