<?xml version="1.0" encoding="utf-8"?>
<!-- Generator: Adobe Illustrator 16.0.0, SVG Export Plug-In . SVG Version: 6.00 Build 0)  -->
<!DOCTYPE svg PUBLIC "-//W3C//DTD SVG 1.1//EN" "http://www.w3.org/Graphics/SVG/1.1/DTD/svg11.dtd">
<svg version="1.1" id="Layer_1" xmlns="http://www.w3.org/2000/svg" xmlns:xlink="http://www.w3.org/1999/xlink" x="0px" y="0px"
	 width="206px" height="560px" viewBox="0 0 206 560" enable-background="new 0 0 206 560" xml:space="preserve">
<g>
	<path fill-rule="evenodd" clip-rule="evenodd" d="M24.65,555.82c-6.07-2.17-10.53-3.88-13.4-5.15l167.2,0.2l10.35,4.95H24.65z"/>
	<g>
		<g>
			<path fill-rule="evenodd" clip-rule="evenodd" fill-opacity="0.2471" d="M177.07,48.18l-0.22,498.22l20.86,7.71H27.13
				l-19.03-5.36l-0.73-16.38h18.89V58.25c7.92-27.76,14-33.89,18.23-18.36h128.14L177.07,48.18z"/>
		</g>
		<g>
			<path fill-rule="evenodd" clip-rule="evenodd" fill-opacity="0.2471" d="M147.55,46.42l-0.2,498.25l17,7.65H25.45l-15.5-5.3
				l-0.6-16.4h15.4V56.47c6.43-27.77,11.37-33.88,14.8-18.35h104.4L147.55,46.42z"/>
		</g>
		<g>
			<path fill-rule="evenodd" clip-rule="evenodd" fill="#555555" d="M51.19,49.65V18.73h88.32l-0.15,0.15l0.15-0.07v-0.07h1.46
				v30.85h-1.17c-0.1-0.05-0.19-0.1-0.29-0.15v0.15v0.07H51.19z"/>
			
				<linearGradient id="SVGID_1_" gradientUnits="userSpaceOnUse" x1="-156.9131" y1="-153.1353" x2="-71.2678" y2="139.7911" gradientTransform="matrix(1.4586 0 0 1.469 310.0256 286.731)">
				<stop  offset="0" style="stop-color:#5E5E5E"/>
				<stop  offset="0.5882" style="stop-color:#626262"/>
				<stop  offset="1" style="stop-color:#302625"/>
			</linearGradient>
			<path fill-rule="evenodd" clip-rule="evenodd" fill="url(#SVGID_1_)" d="M150.31,5.51v528.93l-0.07,0.07h0.07v0.15l-4.67,0.15
				v16.01l-9.48-5.07h5.18v-14.03h-0.07l-2.41-1.1v-0.07h0.07l0.58-263.1v-0.07V52.15h0.15l1.31-2.28v-0.29V18.73h-1.46v0.07
				l-0.15,0.07l0.15-0.15L150.31,5.51z M144.54,49.5h-0.15v0.07h0.07C144.47,49.53,144.5,49.51,144.54,49.5z M139.51,49.58v-0.15
				c0.1,0.05,0.19,0.1,0.29,0.15H139.51z M146.08,531.72l-0.15,0.22v0.07L146.08,531.72z M141.48,531.64h0.15l-0.29-0.07
				L141.48,531.64z"/>
			
				<linearGradient id="SVGID_2_" gradientUnits="userSpaceOnUse" x1="-168.3174" y1="-185.1851" x2="-46.8265" y2="142.5683" gradientTransform="matrix(1.4586 0 0 1.469 310.0256 286.731)">
				<stop  offset="0" style="stop-color:#DADDE8"/>
				<stop  offset="0.5804" style="stop-color:#D6D7DE"/>
				<stop  offset="1" style="stop-color:#BDC0CA"/>
			</linearGradient>
			<polygon fill-rule="evenodd" clip-rule="evenodd" fill="url(#SVGID_2_)" points="166.06,532.01 166.06,534.51 150.31,534.51 
				150.23,534.51 150.31,534.44 150.31,5.51 150.31,3.67 166.06,3.67 			"/>
			<path fill-rule="evenodd" clip-rule="evenodd" fill="#534D45" d="M144.54,49.5c-0.05,0-0.07,0.03-0.07,0.07h-0.07V49.5H144.54z"
				/>
			<polygon fill-rule="evenodd" clip-rule="evenodd" fill="#444444" points="139.8,49.58 140.97,49.58 140.97,49.87 139.66,52.15 
				139.51,52.15 51.19,52.08 51.19,49.65 139.51,49.65 139.51,49.58 			"/>
			
				<linearGradient id="SVGID_3_" gradientUnits="userSpaceOnUse" x1="-173.2583" y1="-159.585" x2="-122.6263" y2="166.964" gradientTransform="matrix(1.4586 0 0 1.469 310.0256 286.731)">
				<stop  offset="0" style="stop-color:#777777"/>
				<stop  offset="0.5882" style="stop-color:#717C86"/>
				<stop  offset="1" style="stop-color:#4E5054"/>
			</linearGradient>
			<path fill-rule="evenodd" clip-rule="evenodd" fill="url(#SVGID_3_)" d="M51.19,52.08l88.32,0.07v215.21v0.07l-0.58,263.1h-0.07
				H51.12L51.19,52.08z M143.23,550.81l-0.22-0.07v-0.15C143.11,550.69,143.18,550.77,143.23,550.81z M85.62,397.45
				c-0.1,0.05-0.17,0.46-0.22,1.25c0.05,0,0.12,0.03,0.22,0.07V397.45z M51.12,545.67v0.07h-0.07L51.12,545.67z"/>
			<path fill-rule="evenodd" clip-rule="evenodd" fill="#B6B8BB" d="M150.31,534.51h15.75v-2.5l19.47,4.63l-26.11-0.07
				c-2.43,0-5.47,0-9.12,0l-0.29-0.15l-4.38-1.62l4.67-0.15V534.51z M51.05,534.73l0.07,0.07l6.13,1.69l-2.63-0.15l-30.41-0.07
				l-12.18-3.97v-0.07h14.66h0.15l8.68,2.5H51.05z M57.25,550.81h85.99h2.41h0.07l3.94,1.76l-92.4-0.15V550.81z"/>
			<polygon fill-rule="evenodd" clip-rule="evenodd" fill="#696A72" points="146.08,531.72 145.93,532.01 145.93,531.94 			"/>
			
				<linearGradient id="SVGID_4_" gradientUnits="userSpaceOnUse" x1="-261.6592" y1="-150.1025" x2="-140.1683" y2="177.6508" gradientTransform="matrix(1.4586 0 0 1.469 310.0256 286.731)">
				<stop  offset="0" style="stop-color:#DADDE8"/>
				<stop  offset="0.5804" style="stop-color:#D6D7DE"/>
				<stop  offset="1" style="stop-color:#989EAB"/>
			</linearGradient>
			<path fill-rule="evenodd" clip-rule="evenodd" fill="url(#SVGID_4_)" d="M151.47,554.71l-0.22-0.07v0.07l-126.97-0.07l-0.22-0.07
				v-3.75v-14.32l0.15-0.22l30.41,0.07l2.63,0.15v9.25v5.07v1.62l92.4,0.15l0.29,0.15l0.07-16.31l0.29,0.15c3.65,0,6.69,0,9.12,0
				l26.11,0.07l-0.07,18.07h-33.91v0.07L151.47,554.71z M150.45,552.58v-0.15h-0.07v0.15H150.45z M51.12,545.67l-0.07,0.07h0.07
				V545.67z"/>
			<path fill-rule="evenodd" clip-rule="evenodd" fill="#676A70" d="M51.12,530.54h87.74v0.07l2.41,1.1l-90.14-0.07V530.54z
				 M141.48,531.64l-0.15-0.07l0.29,0.07H141.48z"/>
			<polygon fill-rule="evenodd" clip-rule="evenodd" fill="#39383D" points="51.12,531.64 141.26,531.72 141.34,531.72 
				141.34,545.75 136.16,545.75 57.25,545.75 57.25,536.49 51.12,534.8 51.05,534.73 51.12,534.73 			"/>
			<polygon fill-rule="evenodd" clip-rule="evenodd" fill="#8A8C95" points="149.65,552.58 145.71,550.81 145.64,550.81 
				145.64,534.8 150.01,536.42 149.94,552.72 			"/>
			<path fill-rule="evenodd" clip-rule="evenodd" fill="#989EAB" d="M151.25,554.71v-0.07l0.22,0.07H151.25z M150.45,552.58h-0.07
				v-0.15L150.45,552.58z"/>
			
				<linearGradient id="SVGID_5_" gradientUnits="userSpaceOnUse" x1="-203.1294" y1="-139.623" x2="-117.4841" y2="153.3033" gradientTransform="matrix(1.4586 0 0 1.469 310.0256 286.731)">
				<stop  offset="0" style="stop-color:#DADDE8"/>
				<stop  offset="0.5804" style="stop-color:#D6D7DE"/>
				<stop  offset="1" style="stop-color:#989EAB"/>
			</linearGradient>
			<polygon fill-rule="evenodd" clip-rule="evenodd" fill="url(#SVGID_5_)" points="150.38,552.43 150.45,552.43 150.45,552.58 			
				"/>
			<path fill-rule="evenodd" clip-rule="evenodd" d="M143.23,550.81H57.25v-5.07h78.91l9.48,5.07H143.23
				c-0.05-0.05-0.12-0.12-0.22-0.22v0.15L143.23,550.81z"/>
			
				<linearGradient id="SVGID_6_" gradientUnits="userSpaceOnUse" x1="-188.4023" y1="-329.9985" x2="-179.4687" y2="179.6509" gradientTransform="matrix(1.4586 0 0 1.469 310.0256 286.731)">
				<stop  offset="0" style="stop-color:#B4B8C0"/>
				<stop  offset="0.5333" style="stop-color:#E1E2E6"/>
				<stop  offset="1" style="stop-color:#9D9FA6"/>
			</linearGradient>
			<polygon fill-rule="evenodd" clip-rule="evenodd" fill="url(#SVGID_6_)" points="35.51,532.23 35.51,4.19 35.51,3.89 51.19,3.89 
				51.19,18.73 51.19,49.65 51.19,52.08 51.12,530.54 51.12,531.64 51.12,534.73 51.05,534.73 35.51,534.73 35.51,532.67 
				35.66,532.23 			"/>
			
				<linearGradient id="SVGID_7_" gradientUnits="userSpaceOnUse" x1="-201.5244" y1="-225.7632" x2="-182.8611" y2="160.4801" gradientTransform="matrix(1.4586 0 0 1.469 310.0256 286.731)">
				<stop  offset="0" style="stop-color:#8C8F98"/>
				<stop  offset="1" style="stop-color:#797C86"/>
			</linearGradient>
			<polygon fill-rule="evenodd" clip-rule="evenodd" fill="url(#SVGID_7_)" points="35.51,4.19 35.51,532.23 35.51,532.67 
				35.51,534.73 26.83,532.23 26.69,532.23 26.69,35.11 			"/>
			<path fill-rule="evenodd" clip-rule="evenodd" fill="#3F3F3A" d="M85.62,397.45v1.32c-0.1-0.05-0.17-0.07-0.22-0.07
				C85.45,397.91,85.52,397.5,85.62,397.45z"/>
			<polygon fill-rule="evenodd" clip-rule="evenodd" fill="#797C86" points="12.03,532.31 24.21,536.27 24.06,536.49 24.06,550.81 
				24.06,554.56 14.22,550.81 13.49,550.52 12.03,550.01 			"/>
			<polygon fill-rule="evenodd" clip-rule="evenodd" fill="#CDCFD1" points="24.06,554.56 24.28,554.63 24.06,554.63 			"/>
			<polygon fill-rule="evenodd" clip-rule="evenodd" fill="#A9A9AA" points="35.51,532.67 35.51,532.23 35.66,532.23 			"/>
			
				<line fill-rule="evenodd" clip-rule="evenodd" fill="none" stroke="#000000" stroke-width="0.1" stroke-linecap="round" stroke-linejoin="round" stroke-miterlimit="3" x1="139.51" y1="267.36" x2="139.51" y2="267.44"/>
		</g>
		<g>
			<line fill-rule="evenodd" clip-rule="evenodd" fill="none" x1="35.37" y1="8.52" x2="35.37" y2="497.93"/>
		</g>
	</g>
</g>
</svg>
