<?xml version="1.0" encoding="utf-8"?>
<!-- Generator: Adobe Illustrator 16.0.0, SVG Export Plug-In . SVG Version: 6.00 Build 0)  -->
<!DOCTYPE svg PUBLIC "-//W3C//DTD SVG 1.1//EN" "http://www.w3.org/Graphics/SVG/1.1/DTD/svg11.dtd">
<svg version="1.1" id="Layer_1" xmlns="http://www.w3.org/2000/svg" xmlns:xlink="http://www.w3.org/1999/xlink" x="0px" y="0px"
	 width="325px" height="368px" viewBox="0 0 325 368" enable-background="new 0 0 325 368" xml:space="preserve">
<g>
	<g>
		<g>
			
				<radialGradient id="SVGID_1_" cx="121.1001" cy="64.4502" r="5.4893" gradientTransform="matrix(0.7152 0.6989 -1.5148 1.5503 132.1125 -120.0997)" gradientUnits="userSpaceOnUse">
				<stop  offset="0" style="stop-color:#FFFFFF;stop-opacity:0.6941"/>
				<stop  offset="0.1922" style="stop-color:#FFFFFF;stop-opacity:0.4902"/>
				<stop  offset="0.5333" style="stop-color:#FEFEFE;stop-opacity:0.2"/>
				<stop  offset="0.7765" style="stop-color:#FCFCFC;stop-opacity:0.0863"/>
				<stop  offset="1" style="stop-color:#F9F9F9;stop-opacity:0"/>
			</radialGradient>
			<path fill-rule="evenodd" clip-rule="evenodd" fill="url(#SVGID_1_)" d="M129.3,56.1c1.07,1,1.15,2.7,0.25,5.1
				c-0.83,2.3-2.38,4.62-4.65,6.95c-2.27,2.3-4.55,3.92-6.85,4.85c-2.27,0.77-3.93,0.65-5-0.35c-1.03-1.07-1.18-2.73-0.45-5
				c0.83-2.37,2.38-4.7,4.65-7c2.27-2.3,4.55-3.9,6.85-4.8C126.53,54.95,128.27,55.03,129.3,56.1z"/>
		</g>
		<g>
			<g>
				<linearGradient id="SVGID_2_" gradientUnits="userSpaceOnUse" x1="-32.1841" y1="-2.1465" x2="69.8195" y2="68.8734">
					<stop  offset="0" style="stop-color:#636362"/>
					<stop  offset="1" style="stop-color:#000000"/>
				</linearGradient>
				<path fill-rule="evenodd" clip-rule="evenodd" fill="url(#SVGID_2_)" d="M18.2,127.8h113.3V18.65H18.35v108.9L18.2,127.8z
					 M12.85,132.35V12.75h124.5v119.6H12.85z"/>
			</g>
		</g>
		<g>
			<linearGradient id="SVGID_3_" gradientUnits="userSpaceOnUse" x1="18.3501" y1="22.2002" x2="131.5" y2="22.2002">
				<stop  offset="0" style="stop-color:#848484"/>
				<stop  offset="1" style="stop-color:#999999"/>
			</linearGradient>
			<polygon fill-rule="evenodd" clip-rule="evenodd" fill="url(#SVGID_3_)" points="18.35,18.65 131.5,18.65 123.7,25.75 26,25.75 
							"/>
			<path fill-rule="evenodd" clip-rule="evenodd" fill="#BEBEBE" d="M26,25.75v94.15l-7.65,7.65V18.65L26,25.75z M131.5,18.65v73.2
				h-0.4l-6.15-3.25l-1.3,0.1v-3h0.05V25.75L131.5,18.65z"/>
			<polygon fill-rule="evenodd" clip-rule="evenodd" fill="#CFCFCF" points="92.05,119.9 92.05,120.35 94.3,127.8 18.35,127.8 
				18.35,127.55 26,119.9 			"/>
			<polygon fill-rule="evenodd" clip-rule="evenodd" fill="#DDDDDD" points="131.1,91.85 113.65,91.85 115.2,88.95 115.3,88.7 
				123.65,88.7 124.95,88.6 			"/>
			<polygon fill-rule="evenodd" clip-rule="evenodd" fill="#C4C4C4" points="115.2,88.95 113.65,91.85 112.9,91.85 			"/>
			<path fill-rule="evenodd" clip-rule="evenodd" fill="#F2F2F2" d="M131.5,92.95H98.65c-0.47,0.07-0.88,0.15-1.25,0.25
				c-1.67,0.57-2.53,2.07-2.6,4.5l-0.1,6.7l-0.05-7.8c0.03-2.43,0.9-3.93,2.6-4.5c0.37-0.1,0.78-0.18,1.25-0.25h14.4h0.75h17.45
				l0.4,0.3V92.95z"/>
			<linearGradient id="SVGID_4_" gradientUnits="userSpaceOnUse" x1="97.915" y1="91.2065" x2="128.5963" y2="130.0016">
				<stop  offset="0" style="stop-color:#E6E6E6"/>
				<stop  offset="1" style="stop-color:#C3C3C3"/>
			</linearGradient>
			<path fill-rule="evenodd" clip-rule="evenodd" fill="url(#SVGID_4_)" d="M94.65,127.8v-16.15v-1.3l0.05-5.95l0.1-6.7
				c0.07-2.43,0.93-3.93,2.6-4.5c0.37-0.1,0.78-0.18,1.25-0.25h32.85v34.85H94.65z"/>
			<polygon fill-rule="evenodd" clip-rule="evenodd" fill="#F0F0F0" points="94.65,110.35 94.65,111.65 92.2,109.2 			"/>
			<polygon fill-rule="evenodd" clip-rule="evenodd" fill="#C7C7C7" points="94.65,111.65 94.65,127.8 94.3,127.8 92.05,120.35 
				92.05,119.9 92.05,109.05 92.2,109.2 			"/>
		</g>
		<g>
			<path fill-rule="evenodd" clip-rule="evenodd" fill="#FFFFFF" fill-opacity="0.2118" d="M21.75,74.7V21.9h107.5v7.3
				c-13.3,1.43-32.18,5.08-56.65,10.95C42.53,45.68,25.58,57.2,21.75,74.7z"/>
		</g>
		<g>
			
				<radialGradient id="SVGID_5_" cx="30.2256" cy="56.3999" r="11.0054" gradientTransform="matrix(0.9364 0.3509 -0.8063 2.152 47.3952 -75.5752)" gradientUnits="userSpaceOnUse">
				<stop  offset="0" style="stop-color:#FFFFFF;stop-opacity:0.6941"/>
				<stop  offset="0.1922" style="stop-color:#FFFFFF;stop-opacity:0.4902"/>
				<stop  offset="0.5333" style="stop-color:#FEFEFE;stop-opacity:0.2"/>
				<stop  offset="0.7765" style="stop-color:#FCFCFC;stop-opacity:0.0863"/>
				<stop  offset="1" style="stop-color:#F9F9F9;stop-opacity:0"/>
			</radialGradient>
			<path fill-rule="evenodd" clip-rule="evenodd" fill="url(#SVGID_5_)" d="M38.95,33.1c2.77,1.03,4.28,4.2,4.55,9.5
				c0.27,5.3-0.8,11.17-3.2,17.6c-2.43,6.4-5.47,11.52-9.1,15.35c-3.6,3.5-6.8,4.73-9.6,3.7c-2.73-1.07-4.28-4.08-4.65-9.05
				c-0.27-5.3,0.82-11.17,3.25-17.6c2.4-6.4,5.42-11.52,9.05-15.35C32.98,33.42,36.22,32.03,38.95,33.1z"/>
		</g>
		<g>
			
				<radialGradient id="SVGID_6_" cx="116.9048" cy="-266.1235" r="4.0375" gradientTransform="matrix(1.238390e-004 1 -11.5077 -6.191951e-003 -2979.3455 5.4482)" gradientUnits="userSpaceOnUse">
				<stop  offset="0" style="stop-color:#FFFFFF;stop-opacity:0.6941"/>
				<stop  offset="0.1922" style="stop-color:#FFFFFF;stop-opacity:0.4902"/>
				<stop  offset="0.5333" style="stop-color:#FEFEFE;stop-opacity:0.2"/>
				<stop  offset="0.7765" style="stop-color:#FCFCFC;stop-opacity:0.0863"/>
				<stop  offset="1" style="stop-color:#F9F9F9;stop-opacity:0"/>
			</radialGradient>
			<path fill-rule="evenodd" clip-rule="evenodd" fill="url(#SVGID_6_)" d="M38.25,124c0-1.1,4.2-2.05,12.6-2.85
				c8.97-0.73,19.73-1.1,32.3-1.1c12.53,0,23.3,0.37,32.3,1.1c8.97,0.8,13.45,1.75,13.45,2.85s-4.48,2.02-13.45,2.75
				c-9,0.8-19.77,1.2-32.3,1.2c-12.57,0-23.33-0.4-32.3-1.2C42.45,126.02,38.25,125.1,38.25,124z"/>
		</g>
		<g>
			<path fill-rule="evenodd" clip-rule="evenodd" fill-opacity="0.2392" d="M113.8,104.05c1.23,0,2.3,0.43,3.2,1.3
				s1.35,1.93,1.35,3.2c0,1.27-0.45,2.35-1.35,3.25c-0.9,0.9-1.97,1.35-3.2,1.35c-1.27,0-2.35-0.45-3.25-1.35
				c-0.83-0.9-1.25-1.98-1.25-3.25c0-1.27,0.42-2.33,1.25-3.2C111.45,104.48,112.53,104.05,113.8,104.05z"/>
		</g>
		<g>
			<linearGradient id="SVGID_7_" gradientUnits="userSpaceOnUse" x1="108.5249" y1="108.0249" x2="117.4749" y2="108.0249">
				<stop  offset="0" style="stop-color:#444444"/>
				<stop  offset="1" style="stop-color:#000000"/>
			</linearGradient>
			<path fill-rule="evenodd" clip-rule="evenodd" fill="url(#SVGID_7_)" d="M109.85,104.75c0.9-0.83,1.97-1.25,3.2-1.25
				c1.27,0,2.35,0.42,3.25,1.25c0.9,0.9,1.35,1.98,1.35,3.25s-0.45,2.35-1.35,3.25c-0.9,0.87-1.98,1.3-3.25,1.3
				c-1.23,0-2.3-0.43-3.2-1.3c-0.83-0.9-1.25-1.98-1.25-3.25S109.02,105.65,109.85,104.75z"/>
		</g>
	</g>
	<g>
		<g>
			<linearGradient id="SVGID_8_" gradientUnits="userSpaceOnUse" x1="139.5928" y1="-1.7808" x2="242.3047" y2="69.7323">
				<stop  offset="0" style="stop-color:#636362"/>
				<stop  offset="1" style="stop-color:#000000"/>
			</linearGradient>
			<path fill-rule="evenodd" clip-rule="evenodd" fill="url(#SVGID_8_)" d="M304.5,19.45H190.2v108.9l-0.15,0.25H304.5V19.45z
				 M310.4,13.55v119.6H184.6V13.55H310.4z"/>
		</g>
		<g>
			<linearGradient id="SVGID_9_" gradientUnits="userSpaceOnUse" x1="190.2002" y1="23" x2="304.5" y2="23">
				<stop  offset="0" style="stop-color:#848484"/>
				<stop  offset="1" style="stop-color:#999999"/>
			</linearGradient>
			<polygon fill-rule="evenodd" clip-rule="evenodd" fill="url(#SVGID_9_)" points="296.6,26.55 197.9,26.55 190.2,19.45 
				304.5,19.45 			"/>
			<path fill-rule="evenodd" clip-rule="evenodd" fill="#BEBEBE" d="M296.55,89.5v-3h0.05V26.55l7.9-7.1v73.2h-0.4l-6.2-3.25
				L296.55,89.5z M197.9,26.55v94.15l-7.7,7.65V19.45L197.9,26.55z"/>
			<polygon fill-rule="evenodd" clip-rule="evenodd" fill="#C4C4C4" points="285.7,92.65 288,89.75 286.45,92.65 			"/>
			<path fill-rule="evenodd" clip-rule="evenodd" fill="#F2F2F2" d="M286.45,92.65h17.65l0.4,0.3v0.8h-33.2
				c-0.47,0.07-0.88,0.15-1.25,0.25c-1.7,0.57-2.58,2.07-2.65,4.5l-0.1,6.7l-0.05-7.8c0.03-2.43,0.9-3.93,2.6-4.5
				c0.4-0.1,0.83-0.18,1.3-0.25h14.55H286.45z"/>
			<polygon fill-rule="evenodd" clip-rule="evenodd" fill="#DDDDDD" points="296.55,89.5 297.9,89.4 304.1,92.65 286.45,92.65 
				288,89.75 288.1,89.5 			"/>
			<linearGradient id="SVGID_10_" gradientUnits="userSpaceOnUse" x1="270.6523" y1="91.9272" x2="301.459" y2="130.881">
				<stop  offset="0" style="stop-color:#E6E6E6"/>
				<stop  offset="1" style="stop-color:#C3C3C3"/>
			</linearGradient>
			<path fill-rule="evenodd" clip-rule="evenodd" fill="url(#SVGID_10_)" d="M304.5,93.75v34.85h-37.25v-16.15v-1.3l0.05-5.95
				l0.1-6.7c0.07-2.43,0.95-3.93,2.65-4.5c0.37-0.1,0.78-0.18,1.25-0.25H304.5z"/>
			<polygon fill-rule="evenodd" clip-rule="evenodd" fill="#C7C7C7" points="267.25,112.45 267.25,128.6 266.9,128.6 264.6,121.15 
				264.6,120.7 264.6,109.85 264.75,110 			"/>
			<polygon fill-rule="evenodd" clip-rule="evenodd" fill="#F0F0F0" points="267.25,111.15 267.25,112.45 264.75,110 			"/>
			<polygon fill-rule="evenodd" clip-rule="evenodd" fill="#CFCFCF" points="190.2,128.35 197.9,120.7 264.6,120.7 264.6,121.15 
				266.9,128.6 190.2,128.6 			"/>
		</g>
		<g>
			<path fill-rule="evenodd" clip-rule="evenodd" fill-opacity="0.2392" d="M286.9,106.15c1.27,0,2.35,0.42,3.25,1.25
				c0.9,0.9,1.35,1.97,1.35,3.2c0,1.27-0.45,2.35-1.35,3.25c-0.9,0.9-1.98,1.35-3.25,1.35s-2.35-0.45-3.25-1.35
				c-0.87-0.9-1.3-1.98-1.3-3.25c0-1.23,0.43-2.3,1.3-3.2C284.55,106.57,285.63,106.15,286.9,106.15z"/>
		</g>
		<g>
			<linearGradient id="SVGID_11_" gradientUnits="userSpaceOnUse" x1="281.5879" y1="110.0996" x2="290.6129" y2="110.0996">
				<stop  offset="0" style="stop-color:#444444"/>
				<stop  offset="1" style="stop-color:#000000"/>
			</linearGradient>
			<path fill-rule="evenodd" clip-rule="evenodd" fill="url(#SVGID_11_)" d="M286.2,105.55c1.27,0,2.35,0.43,3.25,1.3
				c0.9,0.87,1.35,1.93,1.35,3.2c0,1.27-0.45,2.35-1.35,3.25c-0.9,0.9-1.98,1.35-3.25,1.35s-2.37-0.45-3.3-1.35
				c-0.83-0.9-1.25-1.98-1.25-3.25c0-1.27,0.42-2.33,1.25-3.2C283.83,105.98,284.93,105.55,286.2,105.55z"/>
		</g>
		<g>
			
				<radialGradient id="SVGID_12_" cx="284.3496" cy="108.3457" r="2.4554" gradientTransform="matrix(0.5825 -0.8129 0.6655 0.4769 46.6215 287.8127)" gradientUnits="userSpaceOnUse">
				<stop  offset="0" style="stop-color:#FFFFFF"/>
				<stop  offset="0.1922" style="stop-color:#FFFFFF"/>
				<stop  offset="0.2824" style="stop-color:#FFFFFF;stop-opacity:0.7294"/>
				<stop  offset="0.4157" style="stop-color:#FFFFFF;stop-opacity:0.6"/>
				<stop  offset="0.5882" style="stop-color:#FEFEFE;stop-opacity:0.3412"/>
				<stop  offset="0.8157" style="stop-color:#FCFCFC;stop-opacity:0.0863"/>
				<stop  offset="1" style="stop-color:#F9F9F9;stop-opacity:0"/>
			</radialGradient>
			<path fill-rule="evenodd" clip-rule="evenodd" fill="url(#SVGID_12_)" d="M284.2,106.2c0.57-0.2,1.07-0.15,1.5,0.15
				c0.43,0.33,0.68,0.82,0.75,1.45c0.03,0.57-0.13,1.12-0.5,1.65c-0.37,0.5-0.85,0.87-1.45,1.1c-0.63,0.13-1.17,0.05-1.6-0.25
				c-0.4-0.3-0.6-0.75-0.6-1.35c-0.07-0.63,0.08-1.2,0.45-1.7C283.12,106.72,283.6,106.37,284.2,106.2z"/>
		</g>
		<g>
			<g>
				
					<radialGradient id="SVGID_13_" cx="296.1504" cy="64.0498" r="11.1058" gradientTransform="matrix(0.9365 0.3507 -0.7993 2.1343 70.0016 -176.51)" gradientUnits="userSpaceOnUse">
					<stop  offset="0" style="stop-color:#FFFFFF"/>
					<stop  offset="0.1922" style="stop-color:#FFFFFF"/>
					<stop  offset="0.2824" style="stop-color:#FFFFFF;stop-opacity:0.7176"/>
					<stop  offset="0.4157" style="stop-color:#FFFFFF;stop-opacity:0.6"/>
					<stop  offset="0.5882" style="stop-color:#FEFEFE;stop-opacity:0.3294"/>
					<stop  offset="0.8157" style="stop-color:#FCFCFC;stop-opacity:0.0863"/>
					<stop  offset="1" style="stop-color:#F9F9F9;stop-opacity:0"/>
				</radialGradient>
				<path fill-rule="evenodd" clip-rule="evenodd" fill="url(#SVGID_13_)" d="M309.5,50.25c0.27,5.3-0.82,11.17-3.25,17.6
					c-2.43,6.4-5.48,11.52-9.15,15.35c-3.67,3.53-6.9,4.77-9.7,3.7c-2.77-1.03-4.33-4.05-4.7-9.05c-0.27-5.3,0.82-11.17,3.25-17.6
					c2.43-6.4,5.48-11.52,9.15-15.35c3.77-3.83,7.03-5.22,9.8-4.15C307.7,41.78,309.23,44.95,309.5,50.25z"/>
			</g>
			<g>
				
					<radialGradient id="SVGID_14_" cx="194" cy="23.2998" r="3.5096" gradientTransform="matrix(0.7159 0.6982 -0.7157 0.7338 71.7931 -129.2515)" gradientUnits="userSpaceOnUse">
					<stop  offset="0" style="stop-color:#FFFFFF"/>
					<stop  offset="0.1922" style="stop-color:#FFFFFF"/>
					<stop  offset="0.2824" style="stop-color:#FFFFFF;stop-opacity:0.7176"/>
					<stop  offset="0.4157" style="stop-color:#FFFFFF;stop-opacity:0.6"/>
					<stop  offset="0.5882" style="stop-color:#FEFEFE;stop-opacity:0.3294"/>
					<stop  offset="0.8157" style="stop-color:#FCFCFC;stop-opacity:0.0863"/>
					<stop  offset="1" style="stop-color:#F9F9F9;stop-opacity:0"/>
				</radialGradient>
				<path fill-rule="evenodd" clip-rule="evenodd" fill="url(#SVGID_14_)" d="M197.5,23.15c0,1-0.33,1.85-1,2.55
					c-0.7,0.67-1.53,1.03-2.5,1.1c-0.97-0.07-1.78-0.42-2.45-1.05c-0.7-0.67-1.05-1.45-1.05-2.35c0-0.93,0.35-1.75,1.05-2.45
					c0.67-0.67,1.48-1.07,2.45-1.2c0.97,0,1.8,0.35,2.5,1.05C197.17,21.43,197.5,22.22,197.5,23.15z"/>
			</g>
			<g>
				
					<radialGradient id="SVGID_15_" cx="302.6504" cy="126.6001" r="1.9182" gradientTransform="matrix(0.7151 0.699 -0.7151 0.7316 176.7411 -177.5659)" gradientUnits="userSpaceOnUse">
					<stop  offset="0" style="stop-color:#FFFFFF"/>
					<stop  offset="0.1922" style="stop-color:#FFFFFF"/>
					<stop  offset="0.2824" style="stop-color:#FFFFFF;stop-opacity:0.7176"/>
					<stop  offset="0.4157" style="stop-color:#FFFFFF;stop-opacity:0.6"/>
					<stop  offset="0.5882" style="stop-color:#FEFEFE;stop-opacity:0.3294"/>
					<stop  offset="0.8157" style="stop-color:#FCFCFC;stop-opacity:0.0863"/>
					<stop  offset="1" style="stop-color:#F9F9F9;stop-opacity:0"/>
				</radialGradient>
				<path fill-rule="evenodd" clip-rule="evenodd" fill="url(#SVGID_15_)" d="M304.55,126.6c0,0.47-0.18,0.88-0.55,1.25
					s-0.82,0.58-1.35,0.65c-0.53,0-0.98-0.18-1.35-0.55c-0.37-0.37-0.55-0.82-0.55-1.35s0.18-0.98,0.55-1.35
					c0.37-0.37,0.82-0.55,1.35-0.55c0.53,0,0.98,0.18,1.35,0.55S304.55,126.07,304.55,126.6z"/>
			</g>
			<g>
				<path fill-rule="evenodd" clip-rule="evenodd" fill="#FFFFFF" fill-opacity="0.2118" d="M254.75,38.7
					c-3.13,0.73-6.4,1.48-9.8,2.25c-5.83,1.07-11.2,2.37-16.1,3.9c-20.37,6.3-32.12,16.52-35.25,30.65V22.7h108.6V30
					C290.57,31.23,274.75,34.13,254.75,38.7z"/>
			</g>
			<g>
				
					<radialGradient id="SVGID_16_" cx="-384.2402" cy="-257.0498" r="4.6" gradientTransform="matrix(-1 0 5.434783e-003 -10.1005 -188.6936 -2515.293)" gradientUnits="userSpaceOnUse">
					<stop  offset="0" style="stop-color:#FFFFFF"/>
					<stop  offset="0.1922" style="stop-color:#FFFFFF"/>
					<stop  offset="0.2824" style="stop-color:#FFFFFF;stop-opacity:0.7216"/>
					<stop  offset="0.4157" style="stop-color:#FFFFFF;stop-opacity:0.6"/>
					<stop  offset="0.5882" style="stop-color:#FEFEFE;stop-opacity:0.3333"/>
					<stop  offset="0.8157" style="stop-color:#FCFCFC;stop-opacity:0.0863"/>
					<stop  offset="1" style="stop-color:#F9F9F9;stop-opacity:0"/>
				</radialGradient>
				<path fill-rule="evenodd" clip-rule="evenodd" fill="url(#SVGID_16_)" d="M197.35,48.75c0.83,9,1.25,19.77,1.25,32.3
					c0,12.57-0.42,23.33-1.25,32.3c-0.9,9-1.97,13.5-3.2,13.5c-1.2,0-2.25-4.5-3.15-13.5c-0.87-8.97-1.3-19.73-1.3-32.3
					c0-12.53,0.43-23.3,1.3-32.3c0.9-8.4,1.95-12.6,3.15-12.6C195.38,36.15,196.45,40.35,197.35,48.75z"/>
			</g>
		</g>
	</g>
	<g>
		<g>
			<path fill-rule="evenodd" clip-rule="evenodd" d="M200,136.25h96v24.5h-96V136.25z M201.25,138.45v0.95v1.85v18.4h91.3h1.05h1.1
				v-18.4v-2.8v-1h-1.1h-92.35V138.45z"/>
			<polygon fill-rule="evenodd" clip-rule="evenodd" fill="#666666" points="293.6,159.65 293.6,138.45 201.25,138.45 
				201.25,137.45 293.6,137.45 294.7,137.45 294.7,138.45 294.7,141.25 294.7,159.65 			"/>
		</g>
		<g>
			<g>
				<linearGradient id="SVGID_17_" gradientUnits="userSpaceOnUse" x1="246.3193" y1="124.0776" x2="248.6738" y2="158.9257">
					<stop  offset="0" style="stop-color:#FFFFFF"/>
					<stop  offset="1" style="stop-color:#FFFFFF;stop-opacity:0"/>
				</linearGradient>
				<polygon fill-rule="evenodd" clip-rule="evenodd" fill="url(#SVGID_17_)" points="293.95,142.85 201.65,154.1 201.65,137.9 
					293.95,137.9 				"/>
			</g>
			<g>
				
					<radialGradient id="SVGID_18_" cx="205.7998" cy="157.75" r="2.21" gradientTransform="matrix(0.7182 0.6958 -0.7125 0.7354 170.3971 -101.4676)" gradientUnits="userSpaceOnUse">
					<stop  offset="0" style="stop-color:#FFFFFF"/>
					<stop  offset="0.1922" style="stop-color:#FFFFFF"/>
					<stop  offset="0.2824" style="stop-color:#FFFFFF;stop-opacity:0.7255"/>
					<stop  offset="0.4157" style="stop-color:#FFFFFF;stop-opacity:0.6"/>
					<stop  offset="0.5882" style="stop-color:#FEFEFE;stop-opacity:0.3373"/>
					<stop  offset="0.8157" style="stop-color:#FCFCFC;stop-opacity:0.0863"/>
					<stop  offset="1" style="stop-color:#F9F9F9;stop-opacity:0"/>
				</radialGradient>
				<path fill-rule="evenodd" clip-rule="evenodd" fill="url(#SVGID_18_)" d="M205.8,155.6c0.6-0.07,1.12,0.12,1.55,0.55
					c0.4,0.4,0.62,0.92,0.65,1.55c-0.03,0.57-0.25,1.08-0.65,1.55c-0.43,0.47-0.95,0.7-1.55,0.7c-0.6,0-1.1-0.22-1.5-0.65
					c-0.43-0.4-0.68-0.9-0.75-1.5c0.03-0.57,0.25-1.08,0.65-1.55C204.63,155.82,205.17,155.6,205.8,155.6z"/>
			</g>
			<g>
				
					<radialGradient id="SVGID_19_" cx="285.25" cy="154.4502" r="5.5562" gradientTransform="matrix(-0.7568 0.6537 -0.5182 -0.6 581.1642 60.6604)" gradientUnits="userSpaceOnUse">
					<stop  offset="0" style="stop-color:#FFFFFF"/>
					<stop  offset="0.1922" style="stop-color:#FFFFFF"/>
					<stop  offset="0.2824" style="stop-color:#FFFFFF;stop-opacity:0.7255"/>
					<stop  offset="0.4157" style="stop-color:#FFFFFF;stop-opacity:0.6"/>
					<stop  offset="0.5882" style="stop-color:#FEFEFE;stop-opacity:0.3373"/>
					<stop  offset="0.8157" style="stop-color:#FCFCFC;stop-opacity:0.0863"/>
					<stop  offset="1" style="stop-color:#F9F9F9;stop-opacity:0"/>
				</radialGradient>
				<path fill-rule="evenodd" clip-rule="evenodd" fill="url(#SVGID_19_)" d="M289.35,150.9c0.8,0.93,1.07,2.03,0.8,3.3
					c-0.23,1.37-0.92,2.55-2.05,3.55c-1.1,0.97-2.37,1.47-3.8,1.5c-1.33,0.1-2.38-0.32-3.15-1.25c-0.8-0.9-1.07-2.02-0.8-3.35
					c0.27-1.33,0.97-2.48,2.1-3.45c1.13-1,2.38-1.53,3.75-1.6C287.5,149.57,288.55,150,289.35,150.9z"/>
			</g>
		</g>
	</g>
	<g>
		<g>
			<path fill-rule="evenodd" clip-rule="evenodd" d="M28.35,136.25h96v24.5h-96V136.25z M29.6,138.45v0.95v1.85v18.4h91.3h1.05h1.1
				v-18.4v-2.8v-1h-1.1H29.6V138.45z"/>
			<polygon fill-rule="evenodd" clip-rule="evenodd" fill="#666666" points="121.95,159.65 121.95,138.45 29.6,138.45 29.6,137.45 
				121.95,137.45 123.05,137.45 123.05,138.45 123.05,141.25 123.05,159.65 			"/>
		</g>
		<g>
			<g>
				<linearGradient id="SVGID_20_" gradientUnits="userSpaceOnUse" x1="74.6689" y1="124.0781" x2="77.0234" y2="158.9261">
					<stop  offset="0" style="stop-color:#FFFFFF"/>
					<stop  offset="1" style="stop-color:#FFFFFF;stop-opacity:0"/>
				</linearGradient>
				<polygon fill-rule="evenodd" clip-rule="evenodd" fill="url(#SVGID_20_)" points="30,137.9 122.3,137.9 122.3,142.85 30,154.1 
									"/>
			</g>
			<g>
				
					<radialGradient id="SVGID_21_" cx="34.1499" cy="157.75" r="2.21" gradientTransform="matrix(0.7182 0.6958 -0.7125 0.7354 122.0258 17.973)" gradientUnits="userSpaceOnUse">
					<stop  offset="0" style="stop-color:#FFFFFF"/>
					<stop  offset="0.1922" style="stop-color:#FFFFFF"/>
					<stop  offset="0.2824" style="stop-color:#FFFFFF;stop-opacity:0.7255"/>
					<stop  offset="0.4157" style="stop-color:#FFFFFF;stop-opacity:0.6"/>
					<stop  offset="0.5882" style="stop-color:#FEFEFE;stop-opacity:0.3373"/>
					<stop  offset="0.8157" style="stop-color:#FCFCFC;stop-opacity:0.0863"/>
					<stop  offset="1" style="stop-color:#F9F9F9;stop-opacity:0"/>
				</radialGradient>
				<path fill-rule="evenodd" clip-rule="evenodd" fill="url(#SVGID_21_)" d="M34.15,155.6c0.6-0.07,1.12,0.12,1.55,0.55
					c0.4,0.4,0.62,0.92,0.65,1.55c-0.03,0.57-0.25,1.08-0.65,1.55c-0.43,0.47-0.95,0.7-1.55,0.7s-1.1-0.22-1.5-0.65
					c-0.43-0.4-0.68-0.9-0.75-1.5c0.03-0.57,0.25-1.08,0.65-1.55C32.98,155.82,33.52,155.6,34.15,155.6z"/>
			</g>
			<g>
				
					<radialGradient id="SVGID_22_" cx="113.6001" cy="154.4502" r="5.5562" gradientTransform="matrix(-0.7568 0.6537 -0.5182 -0.6 279.6127 172.8623)" gradientUnits="userSpaceOnUse">
					<stop  offset="0" style="stop-color:#FFFFFF"/>
					<stop  offset="0.1922" style="stop-color:#FFFFFF"/>
					<stop  offset="0.2824" style="stop-color:#FFFFFF;stop-opacity:0.7255"/>
					<stop  offset="0.4157" style="stop-color:#FFFFFF;stop-opacity:0.6"/>
					<stop  offset="0.5882" style="stop-color:#FEFEFE;stop-opacity:0.3373"/>
					<stop  offset="0.8157" style="stop-color:#FCFCFC;stop-opacity:0.0863"/>
					<stop  offset="1" style="stop-color:#F9F9F9;stop-opacity:0"/>
				</radialGradient>
				<path fill-rule="evenodd" clip-rule="evenodd" fill="url(#SVGID_22_)" d="M117.7,150.9c0.8,0.93,1.07,2.03,0.8,3.3
					c-0.23,1.37-0.92,2.55-2.05,3.55c-1.1,0.97-2.37,1.47-3.8,1.5c-1.33,0.1-2.38-0.32-3.15-1.25c-0.8-0.9-1.07-2.02-0.8-3.35
					c0.27-1.33,0.97-2.48,2.1-3.45c1.13-1,2.38-1.53,3.75-1.6C115.85,149.57,116.9,150,117.7,150.9z"/>
			</g>
		</g>
	</g>
	<g>
		<g>
			<path fill-rule="evenodd" clip-rule="evenodd" d="M124.35,327.45v24.5h-96v-24.5H124.35z M29.6,329.65v0.95v1.85v18.4h91.3h1.05
				h1.1v-18.4v-2.8v-1h-1.1H29.6V329.65z"/>
			<polygon fill-rule="evenodd" clip-rule="evenodd" fill="#666666" points="121.95,350.85 121.95,329.65 29.6,329.65 29.6,328.65 
				121.95,328.65 123.05,328.65 123.05,329.65 123.05,332.45 123.05,350.85 			"/>
		</g>
		<g>
			<g>
				<linearGradient id="SVGID_23_" gradientUnits="userSpaceOnUse" x1="74.6685" y1="315.2773" x2="77.0229" y2="350.1254">
					<stop  offset="0" style="stop-color:#FFFFFF"/>
					<stop  offset="1" style="stop-color:#FFFFFF;stop-opacity:0"/>
				</linearGradient>
				<polygon fill-rule="evenodd" clip-rule="evenodd" fill="url(#SVGID_23_)" points="122.3,334.05 30,345.3 30,329.1 122.3,329.1 
									"/>
			</g>
			<g>
				
					<radialGradient id="SVGID_24_" cx="34.1499" cy="348.9502" r="2.21" gradientTransform="matrix(0.7182 0.6958 -0.7125 0.7354 258.2626 68.5587)" gradientUnits="userSpaceOnUse">
					<stop  offset="0" style="stop-color:#FFFFFF"/>
					<stop  offset="0.1922" style="stop-color:#FFFFFF"/>
					<stop  offset="0.2824" style="stop-color:#FFFFFF;stop-opacity:0.7255"/>
					<stop  offset="0.4157" style="stop-color:#FFFFFF;stop-opacity:0.6"/>
					<stop  offset="0.5882" style="stop-color:#FEFEFE;stop-opacity:0.3373"/>
					<stop  offset="0.8157" style="stop-color:#FCFCFC;stop-opacity:0.0863"/>
					<stop  offset="1" style="stop-color:#F9F9F9;stop-opacity:0"/>
				</radialGradient>
				<path fill-rule="evenodd" clip-rule="evenodd" fill="url(#SVGID_24_)" d="M34.15,346.8c0.6-0.07,1.12,0.12,1.55,0.55
					c0.4,0.4,0.62,0.92,0.65,1.55c-0.03,0.57-0.25,1.08-0.65,1.55c-0.43,0.47-0.95,0.7-1.55,0.7s-1.1-0.22-1.5-0.65
					c-0.43-0.4-0.68-0.9-0.75-1.5c0.03-0.57,0.25-1.08,0.65-1.55C32.98,347.02,33.52,346.8,34.15,346.8z"/>
			</g>
			<g>
				
					<radialGradient id="SVGID_25_" cx="113.6001" cy="345.6504" r="5.5562" gradientTransform="matrix(-0.7568 0.6537 -0.5182 -0.6 378.7 478.7808)" gradientUnits="userSpaceOnUse">
					<stop  offset="0" style="stop-color:#FFFFFF"/>
					<stop  offset="0.1922" style="stop-color:#FFFFFF"/>
					<stop  offset="0.2824" style="stop-color:#FFFFFF;stop-opacity:0.7255"/>
					<stop  offset="0.4157" style="stop-color:#FFFFFF;stop-opacity:0.6"/>
					<stop  offset="0.5882" style="stop-color:#FEFEFE;stop-opacity:0.3373"/>
					<stop  offset="0.8157" style="stop-color:#FCFCFC;stop-opacity:0.0863"/>
					<stop  offset="1" style="stop-color:#F9F9F9;stop-opacity:0"/>
				</radialGradient>
				<path fill-rule="evenodd" clip-rule="evenodd" fill="url(#SVGID_25_)" d="M117.7,342.1c0.8,0.93,1.07,2.03,0.8,3.3
					c-0.23,1.37-0.92,2.55-2.05,3.55c-1.1,0.97-2.37,1.47-3.8,1.5c-1.33,0.1-2.38-0.32-3.15-1.25c-0.8-0.9-1.07-2.02-0.8-3.35
					c0.27-1.33,0.97-2.48,2.1-3.45c1.13-1,2.38-1.53,3.75-1.6C115.85,340.77,116.9,341.2,117.7,342.1z"/>
			</g>
		</g>
	</g>
</g>
</svg>
