<?xml version="1.0" encoding="utf-8"?>
<!-- Generator: Adobe Illustrator 16.0.0, SVG Export Plug-In . SVG Version: 6.00 Build 0)  -->
<!DOCTYPE svg PUBLIC "-//W3C//DTD SVG 1.1//EN" "http://www.w3.org/Graphics/SVG/1.1/DTD/svg11.dtd">
<svg version="1.1" id="Layer_3" xmlns="http://www.w3.org/2000/svg" xmlns:xlink="http://www.w3.org/1999/xlink" x="0px" y="0px"
	 width="29.25px" height="378.25px" viewBox="-0.98 0 29.25 378.25" enable-background="new -0.98 0 29.25 378.25"
	 xml:space="preserve">
<g>
	
		<linearGradient id="SVGID_1_" gradientUnits="userSpaceOnUse" x1="-205.6084" y1="-70.7703" x2="-186.9084" y2="-70.7703" gradientTransform="matrix(1.4586 0 0 1.469 299.9149 293.1871)">
		<stop  offset="0" style="stop-color:#B9C0C2"/>
		<stop  offset="1" style="stop-color:#7F8488"/>
	</linearGradient>
	<path fill-rule="evenodd" clip-rule="evenodd" fill="url(#SVGID_1_)" d="M4.75,371.75v2.2v2.87l-1.31-0.22
		c-1.6-0.34-2.75-0.73-3.43-1.18V3.68l3.72-1.47h0.8L4.46,2.29c0.1,0,0.19,0,0.29,0c4.08-0.44,6.98-0.66,8.68-0.66
		c0.24,0,0.46,0,0.66,0c1.68,0.03,3.26,0.09,4.74,0.18c0.46,0.04,0.91,0.07,1.35,0.11l3.43,0.51L27,4.05
		c0.02,0.02,0.03,0.05,0.04,0.07h-4.81l-0.04,1.65V4.49c0-0.39-0.83-0.73-2.48-1.03c-1.75-0.24-3.84-0.37-6.27-0.37
		S8.96,3.22,7.31,3.46C5.85,3.71,5,4,4.75,4.34V371.75z M3.84,60.02h-0.4v0.07C3.58,60.05,3.71,60.02,3.84,60.02z"/>
	
		<linearGradient id="SVGID_2_" gradientUnits="userSpaceOnUse" x1="-202.3452" y1="-71.5955" x2="-190.3697" y2="-71.5955" gradientTransform="matrix(1.4586 0 0 1.469 299.9149 293.1871)">
		<stop  offset="0" style="stop-color:#859092"/>
		<stop  offset="0.3569" style="stop-color:#929C9E"/>
		<stop  offset="0.6941" style="stop-color:#C4C4C4"/>
		<stop  offset="1" style="stop-color:#8F9497"/>
	</linearGradient>
	<path fill-rule="evenodd" clip-rule="evenodd" fill="url(#SVGID_2_)" d="M22.18,5.78v367.15l-0.29-0.73
		c-2.72-0.59-5.54-0.88-8.46-0.88c-2.43,0-4.62,0.07-6.56,0.22c-0.73,0.05-1.43,0.12-2.12,0.22V4.34C5,4,5.85,3.71,7.31,3.46
		C8.96,3.22,11,3.1,13.43,3.1s4.52,0.12,6.27,0.37c1.65,0.29,2.48,0.64,2.48,1.03V5.78z"/>
	
		<linearGradient id="SVGID_3_" gradientUnits="userSpaceOnUse" x1="-190.4077" y1="-69.9456" x2="-186.9077" y2="-69.9456" gradientTransform="matrix(1.4586 0 0 1.469 299.9149 293.1871)">
		<stop  offset="0" style="stop-color:#B9C0C2"/>
		<stop  offset="1" style="stop-color:#7F8488"/>
	</linearGradient>
	<path fill-rule="evenodd" clip-rule="evenodd" fill="url(#SVGID_3_)" d="M22.18,372.93V5.78l0.04-1.65h4.81l0.26,1.07v369.43
		L27,375.35c-0.63,0.44-1.89,0.86-3.79,1.25c-0.1,0-0.22,0.03-0.36,0.07c-0.2,0-0.41,0.02-0.66,0.07v-1.62V372.93z"/>
	
		<linearGradient id="SVGID_4_" gradientUnits="userSpaceOnUse" x1="-202.333" y1="54.4802" x2="-190.3828" y2="54.4802" gradientTransform="matrix(1.4586 0 0 1.469 299.9149 293.1871)">
		<stop  offset="0" style="stop-color:#67656C"/>
		<stop  offset="0.6196" style="stop-color:#676874"/>
		<stop  offset="1" style="stop-color:#8A8189"/>
	</linearGradient>
	<path fill-rule="evenodd" clip-rule="evenodd" fill="url(#SVGID_4_)" d="M4.75,371.75c0.68-0.1,1.39-0.17,2.12-0.22
		c1.94-0.15,4.13-0.22,6.56-0.22c2.92,0,5.74,0.29,8.46,0.88l0.29,0.73v2.21l-0.29-0.74c-2.72-0.59-5.54-0.88-8.46-0.88
		c-2.43,0-4.62,0.07-6.56,0.22c-0.73,0.05-1.43,0.12-2.12,0.22V371.75z"/>
</g>
</svg>
