<?xml version="1.0" encoding="utf-8"?>
<!-- Generator: Adobe Illustrator 16.0.0, SVG Export Plug-In . SVG Version: 6.00 Build 0)  -->
<!DOCTYPE svg PUBLIC "-//W3C//DTD SVG 1.1//EN" "http://www.w3.org/Graphics/SVG/1.1/DTD/svg11.dtd">
<svg version="1.1" id="Layer_3" xmlns="http://www.w3.org/2000/svg" xmlns:xlink="http://www.w3.org/1999/xlink" x="0px" y="0px"
	 width="31px" height="380.5px" viewBox="0 0 31 380.5" enable-background="new 0 0 31 380.5" xml:space="preserve">
<g>
	<g>
		<path fill-rule="evenodd" clip-rule="evenodd" fill="#A2A3A4" d="M29.76,3.73c-0.34,0.49-1.72,0.91-4.12,1.25
			c-2.75,0.44-6.08,0.66-10,0.66c-3.92,0-7.28-0.22-10.08-0.66C2.83,4.58,1.46,4.09,1.45,3.5c0-0.59,1.37-1.1,4.12-1.54
			c2.79-0.39,6.15-0.59,10.08-0.59c3.92,0,7.26,0.2,10,0.59c2.4,0.39,3.78,0.83,4.12,1.32V3.73z"/>
		
			<linearGradient id="SVGID_1_" gradientUnits="userSpaceOnUse" x1="-267.832" y1="-49.4395" x2="-248.5317" y2="-49.4395" gradientTransform="matrix(1.4709 0 0 1.4709 395.3966 264.4622)">
			<stop  offset="0" style="stop-color:#CBC7C4"/>
			<stop  offset="0.1176" style="stop-color:#BDBDB5"/>
			<stop  offset="0.251" style="stop-color:#514F54"/>
			<stop  offset="0.4392" style="stop-color:#A5A3AE"/>
			<stop  offset="0.6353" style="stop-color:#CBCDD9"/>
			<stop  offset="0.8471" style="stop-color:#857B83"/>
			<stop  offset="1" style="stop-color:#BDB9BD"/>
		</linearGradient>
		<path fill-rule="evenodd" clip-rule="evenodd" fill="url(#SVGID_1_)" d="M1.45,3.5c0.01,0.59,1.38,1.08,4.12,1.47
			c2.79,0.44,6.15,0.66,10.08,0.66c3.92,0,7.26-0.22,10-0.66c2.4-0.34,3.78-0.76,4.12-1.25h0.07v374.12c0-0.1-0.03-0.18-0.07-0.22
			v0.51c-0.34,0.44-1.72,0.83-4.12,1.18c-2.75,0.44-6.08,0.66-10,0.66c-3.92,0-7.28-0.22-10.08-0.66c-2.75-0.39-4.12-0.88-4.12-1.47
			V3.5z"/>
	</g>
	<g>
		
			<radialGradient id="SVGID_2_" cx="-258.4326" cy="-58.9155" r="4.325" gradientTransform="matrix(1.4709 0 0 39.7947 395.3966 2522.3296)" gradientUnits="userSpaceOnUse">
			<stop  offset="0" style="stop-color:#FFFFFF;stop-opacity:0.6941"/>
			<stop  offset="0.1922" style="stop-color:#FFFFFF;stop-opacity:0.4902"/>
			<stop  offset="0.5333" style="stop-color:#FEFEFE;stop-opacity:0.2"/>
			<stop  offset="0.7765" style="stop-color:#FCFCFC;stop-opacity:0.0863"/>
			<stop  offset="1" style="stop-color:#F9F9F9;stop-opacity:0"/>
		</radialGradient>
		<path fill-rule="evenodd" clip-rule="evenodd" fill="url(#SVGID_2_)" d="M21.45,177.8c0,46.58-0.59,86.49-1.77,119.73
			c-1.23,31.04-2.72,46.55-4.49,46.55c-1.67,0-3.11-15.52-4.34-46.55c-1.23-33.24-1.84-73.15-1.84-119.73
			c0-46.58,0.61-86.49,1.84-119.73S13.53,8.21,15.2,8.21c1.76,0,3.26,16.62,4.49,49.86C20.86,91.32,21.45,131.23,21.45,177.8z"/>
	</g>
</g>
<g>
	<g>
		
			<linearGradient id="SVGID_3_" gradientUnits="userSpaceOnUse" x1="-267.8574" y1="-49.4648" x2="-248.6069" y2="-49.4648" gradientTransform="matrix(1.4709 0 0 1.4709 395.3966 264.4622)">
			<stop  offset="0" style="stop-color:#687073"/>
			<stop  offset="0.1098" style="stop-color:#828D8F"/>
			<stop  offset="0.3373" style="stop-color:#A1ABAD"/>
			<stop  offset="0.6314" style="stop-color:#7C8185"/>
			<stop  offset="0.8471" style="stop-color:#A7ACAF"/>
			<stop  offset="1" style="stop-color:#666B6E"/>
		</linearGradient>
		<path fill-rule="evenodd" clip-rule="evenodd" fill="url(#SVGID_3_)" d="M29.72,3.62l0.04-0.11h0.07l-0.07,374.27l-0.07,0.29
			c-0.2,0.29-0.78,0.56-1.76,0.81c-0.64,0.15-1.45,0.27-2.43,0.37c-2.7,0.44-6.01,0.66-9.93,0.66c-3.92,0-7.28-0.22-10.08-0.66
			c-2.7-0.39-4.04-0.88-4.04-1.47V3.58C1.46,4.17,2.8,4.66,5.49,5.05c2.79,0.44,6.15,0.66,10.08,0.66c3.92,0,7.23-0.22,9.93-0.66
			c2.45-0.34,3.85-0.76,4.19-1.25V3.76L29.72,3.62z"/>
		
			<linearGradient id="SVGID_4_" gradientUnits="userSpaceOnUse" x1="-352.2075" y1="-177.3643" x2="-332.7575" y2="-177.3643" gradientTransform="matrix(1.4709 0 0 1.4709 395.3966 264.4622)">
			<stop  offset="0" style="stop-color:#877E85"/>
			<stop  offset="1" style="stop-color:#4D4A4F"/>
		</linearGradient>
		<path fill-rule="evenodd" clip-rule="evenodd" fill="url(#SVGID_4_)" d="M1.45,3.58c0-0.59,1.35-1.1,4.04-1.54
			c2.79-0.39,6.15-0.59,10.08-0.59c3.92,0,7.23,0.2,9.93,0.59c1.19,0.21,2.13,0.42,2.83,0.63c0.95,0.31,1.41,0.63,1.4,0.96
			l-0.04,0.15V3.8c-0.34,0.49-1.74,0.91-4.19,1.25c-2.7,0.44-6.01,0.66-9.93,0.66c-3.92,0-7.28-0.22-10.08-0.66
			C2.8,4.66,1.46,4.17,1.45,3.58z"/>
	</g>
	<g>
		
			<radialGradient id="SVGID_5_" cx="-258.4824" cy="-58.8647" r="4.3125" gradientTransform="matrix(1.4709 0 0 39.8973 395.3966 2526.4204)" gradientUnits="userSpaceOnUse">
			<stop  offset="0" style="stop-color:#FFFFFF;stop-opacity:0.6941"/>
			<stop  offset="0.1922" style="stop-color:#FFFFFF;stop-opacity:0.4902"/>
			<stop  offset="0.5333" style="stop-color:#FEFEFE;stop-opacity:0.2"/>
			<stop  offset="0.7765" style="stop-color:#FCFCFC;stop-opacity:0.0863"/>
			<stop  offset="1" style="stop-color:#F9F9F9;stop-opacity:0"/>
		</radialGradient>
		<path fill-rule="evenodd" clip-rule="evenodd" fill="url(#SVGID_5_)" d="M21.38,177.88c0,46.53-0.59,86.41-1.76,119.66
			c-1.23,31.04-2.72,46.55-4.49,46.55c-1.67,0-3.11-15.52-4.34-46.55c-1.18-33.24-1.77-73.13-1.77-119.66
			c0-46.63,0.59-86.54,1.77-119.73c1.23-33.24,2.67-49.86,4.34-49.86c1.77,0,3.26,16.62,4.49,49.86
			C20.79,91.34,21.38,131.25,21.38,177.88z"/>
	</g>
</g>
</svg>
