<?xml version="1.0" encoding="utf-8"?>
<!-- Generator: Adobe Illustrator 16.0.0, SVG Export Plug-In . SVG Version: 6.00 Build 0)  -->
<!DOCTYPE svg PUBLIC "-//W3C//DTD SVG 1.1//EN" "http://www.w3.org/Graphics/SVG/1.1/DTD/svg11.dtd">
<svg version="1.1" id="Layer_2" xmlns="http://www.w3.org/2000/svg" xmlns:xlink="http://www.w3.org/1999/xlink" x="0px" y="0px"
	 width="29.25px" height="378.25px" viewBox="-0.98 0 29.25 378.25" enable-background="new -0.98 0 29.25 378.25"
	 xml:space="preserve">
<g>
	
		<linearGradient id="SVGID_1_" gradientUnits="userSpaceOnUse" x1="-226.6094" y1="-193.2537" x2="-197.3138" y2="-188.9591" gradientTransform="matrix(1.4586 0 0 1.469 341.9149 287.1871)">
		<stop  offset="0" style="stop-color:#949496"/>
		<stop  offset="0.1176" style="stop-color:#CFD2CB"/>
		<stop  offset="0.2039" style="stop-color:#D9DCD1"/>
		<stop  offset="0.3333" style="stop-color:#869088"/>
		<stop  offset="0.5412" style="stop-color:#616968"/>
		<stop  offset="0.6314" style="stop-color:#BFCACC"/>
		<stop  offset="0.7725" style="stop-color:#FFFFFD"/>
		<stop  offset="0.8471" style="stop-color:#364240"/>
		<stop  offset="0.8784" style="stop-color:#C1C6C0"/>
		<stop  offset="1" style="stop-color:#898E8A"/>
	</linearGradient>
	<path fill-rule="evenodd" clip-rule="evenodd" fill="url(#SVGID_1_)" d="M27,4.12h-4.81l-0.04,1.65V4.49
		c0-0.39-0.83-0.73-2.48-1.03C17.92,3.22,15.83,3.1,13.4,3.1S8.92,3.22,7.27,3.46C5.81,3.71,4.96,4,4.72,4.34v0.07L3.95,4.27h-3.98
		V3.68l3.72-1.47h0.8L4.42,2.29c0.1,0,0.19,0,0.29,0c4.08-0.44,6.98-0.66,8.68-0.66c0.24,0,0.46,0,0.66,0
		c1.68,0.03,3.26,0.09,4.74,0.18c0.46,0.04,0.91,0.07,1.35,0.11l3.43,0.51l3.39,1.62C26.98,4.07,26.99,4.1,27,4.12z"/>
	
		<linearGradient id="SVGID_2_" gradientUnits="userSpaceOnUse" x1="-224.1899" y1="-191.95" x2="-210.8005" y2="60.2746" gradientTransform="matrix(1.4586 0 0 1.469 341.9149 287.1871)">
		<stop  offset="0" style="stop-color:#949496"/>
		<stop  offset="0.1176" style="stop-color:#CFD2CB"/>
		<stop  offset="0.2039" style="stop-color:#D9DCD1"/>
		<stop  offset="0.3333" style="stop-color:#869088"/>
		<stop  offset="0.6314" style="stop-color:#BFCACC"/>
		<stop  offset="0.7725" style="stop-color:#FFFFFD"/>
		<stop  offset="0.8784" style="stop-color:#C1C6C0"/>
		<stop  offset="1" style="stop-color:#898E8A"/>
	</linearGradient>
	<path fill-rule="evenodd" clip-rule="evenodd" fill="url(#SVGID_2_)" d="M22.15,92.41V5.78l0.04-1.65H27l0.26,1.07v77.6
		c-0.1,0-0.19,0-0.29,0c0.1,0.1,0.19,0.17,0.29,0.22l0.07,69.41h-0.04l0.04,11.68l-0.04-1.14l-0.04,211.65l-0.29,0.73
		c-0.63,0.44-1.9,0.86-3.79,1.25c-0.1,0-0.22,0.03-0.36,0.07c-0.2,0-0.41,0.02-0.66,0.07v-1.62v-2.2V112.83V92.41z"/>
	
		<linearGradient id="SVGID_3_" gradientUnits="userSpaceOnUse" x1="-231.1641" y1="-67.5115" x2="-219.1895" y2="-67.5115" gradientTransform="matrix(1.4586 0 0 1.469 341.9149 287.1871)">
		<stop  offset="0" style="stop-color:#39413C"/>
		<stop  offset="0.3569" style="stop-color:#869088"/>
		<stop  offset="0.6392" style="stop-color:#C1C6C1"/>
		<stop  offset="0.8941" style="stop-color:#8A908B"/>
		<stop  offset="1" style="stop-color:#545C56"/>
	</linearGradient>
	<path fill-rule="evenodd" clip-rule="evenodd" fill="url(#SVGID_3_)" d="M4.72,371.75V4.42V4.34C4.96,4,5.81,3.71,7.27,3.46
		C8.92,3.22,10.96,3.1,13.4,3.1s4.52,0.12,6.27,0.37c1.65,0.29,2.48,0.64,2.48,1.03v1.29v86.64h-2.26v20.42h2.26v260.09l-0.07-0.59
		c-2.87-0.69-5.76-1.03-8.68-1.03c-2.43,0-4.62,0.07-6.56,0.22C6.1,371.58,5.4,371.65,4.72,371.75z"/>
	
		<linearGradient id="SVGID_4_" gradientUnits="userSpaceOnUse" x1="-231.1646" y1="-125.6365" x2="-219.1895" y2="-125.6365" gradientTransform="matrix(1.4586 0 0 1.469 341.9149 287.1871)">
		<stop  offset="0" style="stop-color:#39413C"/>
		<stop  offset="0.3569" style="stop-color:#869088"/>
		<stop  offset="0.6392" style="stop-color:#C1C6C1"/>
		<stop  offset="0.8941" style="stop-color:#8A908B"/>
		<stop  offset="1" style="stop-color:#545C56"/>
	</linearGradient>
	<rect x="19.89" y="92.41" fill-rule="evenodd" clip-rule="evenodd" fill="url(#SVGID_4_)" width="2.26" height="20.42"/>
	
		<linearGradient id="SVGID_5_" gradientUnits="userSpaceOnUse" x1="-235.9521" y1="-65.7859" x2="-217.3994" y2="-65.7859" gradientTransform="matrix(1.4586 0 0 1.469 341.9149 287.1871)">
		<stop  offset="0" style="stop-color:#949496"/>
		<stop  offset="0.1176" style="stop-color:#CFD2CB"/>
		<stop  offset="0.2039" style="stop-color:#D9DCD1"/>
		<stop  offset="0.3333" style="stop-color:#869088"/>
		<stop  offset="0.4627" style="stop-color:#181F1B"/>
		<stop  offset="0.5098" style="stop-color:#0E1410"/>
		<stop  offset="0.5412" style="stop-color:#616968"/>
		<stop  offset="0.6314" style="stop-color:#BFCACC"/>
		<stop  offset="0.7725" style="stop-color:#FFFFFD"/>
		<stop  offset="0.8471" style="stop-color:#364240"/>
		<stop  offset="0.8784" style="stop-color:#C1C6C0"/>
		<stop  offset="1" style="stop-color:#898E8A"/>
	</linearGradient>
	<path fill-rule="evenodd" clip-rule="evenodd" fill="url(#SVGID_5_)" d="M4.72,4.42v367.33v2.2v2.87L3.4,376.6
		c-1.6-0.34-2.75-0.73-3.43-1.17V4.27h3.98L4.72,4.42z M3.4,60.02v0.07c0.14-0.05,0.27-0.07,0.4-0.07H3.4z"/>
	
		<linearGradient id="SVGID_6_" gradientUnits="userSpaceOnUse" x1="-231.2017" y1="58.5637" x2="-219.252" y2="58.5637" gradientTransform="matrix(1.4586 0 0 1.469 341.9149 287.1871)">
		<stop  offset="0" style="stop-color:#39413C"/>
		<stop  offset="0.3569" style="stop-color:#5A665D"/>
		<stop  offset="0.6392" style="stop-color:#677467"/>
		<stop  offset="1" style="stop-color:#545C56"/>
	</linearGradient>
	<path fill-rule="evenodd" clip-rule="evenodd" fill="url(#SVGID_6_)" d="M4.72,371.75c0.68-0.1,1.39-0.17,2.12-0.22
		c1.94-0.15,4.13-0.22,6.56-0.22c2.92,0,5.81,0.34,8.68,1.03l0.07,0.59v2.2l-0.29-0.74c-2.72-0.59-5.54-0.88-8.46-0.88
		c-2.43,0-4.62,0.07-6.56,0.22c-0.73,0.05-1.43,0.12-2.12,0.22V371.75z"/>
</g>
</svg>
