<?xml version="1.0" encoding="utf-8"?>
<!-- Generator: Adobe Illustrator 16.0.0, SVG Export Plug-In . SVG Version: 6.00 Build 0)  -->
<!DOCTYPE svg PUBLIC "-//W3C//DTD SVG 1.1//EN" "http://www.w3.org/Graphics/SVG/1.1/DTD/svg11.dtd">
<svg version="1.1" id="Layer_1" xmlns="http://www.w3.org/2000/svg" xmlns:xlink="http://www.w3.org/1999/xlink" x="0px" y="0px"
	 width="31px" height="380.5px" viewBox="0 0 31 380.5" enable-background="new 0 0 31 380.5" xml:space="preserve">
<g>
	<g>
		
			<linearGradient id="SVGID_1_" gradientUnits="userSpaceOnUse" x1="-369.4248" y1="-94.25" x2="-350.1748" y2="-94.25" gradientTransform="matrix(1.4709 0 0 1.4709 544.8468 330.262)">
			<stop  offset="0" style="stop-color:#707070"/>
			<stop  offset="0.1176" style="stop-color:#7D7D7D"/>
			<stop  offset="0.2039" style="stop-color:#636363"/>
			<stop  offset="0.3333" style="stop-color:#869088"/>
			<stop  offset="0.5098" style="stop-color:#E9E9E9"/>
			<stop  offset="0.6314" style="stop-color:#8D8D8D"/>
			<stop  offset="0.7725" style="stop-color:#FFFFFD"/>
			<stop  offset="0.8784" style="stop-color:#7F7F7F"/>
			<stop  offset="1" style="stop-color:#686868"/>
		</linearGradient>
		<path fill-rule="evenodd" clip-rule="evenodd" fill="url(#SVGID_1_)" d="M29.78,3.54l0.04-0.11h0.07L29.82,377.7l-0.07,0.29
			c-0.2,0.29-0.78,0.56-1.76,0.81c-0.64,0.15-1.45,0.27-2.43,0.37c-2.7,0.44-6.01,0.66-9.93,0.66c-3.92,0-7.28-0.22-10.08-0.66
			c-2.7-0.39-4.04-0.88-4.04-1.47V3.5c0.01,0.59,1.36,1.08,4.04,1.47c2.79,0.44,6.15,0.66,10.08,0.66c3.92,0,7.23-0.22,9.93-0.66
			C28,4.63,29.4,4.22,29.74,3.73V3.69L29.78,3.54z"/>
		<path fill-rule="evenodd" clip-rule="evenodd" fill="#C8CAC8" d="M1.5,3.5c0-0.59,1.35-1.1,4.04-1.54
			c2.79-0.39,6.15-0.59,10.08-0.59c3.92,0,7.23,0.2,9.93,0.59c1.19,0.21,2.13,0.42,2.83,0.63c0.95,0.31,1.41,0.63,1.4,0.96
			l-0.04,0.15v0.04C29.4,4.22,28,4.63,25.55,4.98c-2.7,0.44-6.01,0.66-9.93,0.66c-3.92,0-7.28-0.22-10.08-0.66
			C2.86,4.58,1.51,4.09,1.5,3.5z"/>
	</g>
	<g>
		
			<radialGradient id="SVGID_2_" cx="-360.0498" cy="-103.6499" r="4.3125" gradientTransform="matrix(1.4709 0 0 39.8973 544.8468 4313.1509)" gradientUnits="userSpaceOnUse">
			<stop  offset="0" style="stop-color:#FFFFFF;stop-opacity:0.6941"/>
			<stop  offset="0.1922" style="stop-color:#FFFFFF;stop-opacity:0.4902"/>
			<stop  offset="0.5333" style="stop-color:#FEFEFE;stop-opacity:0.2"/>
			<stop  offset="0.7765" style="stop-color:#FCFCFC;stop-opacity:0.0863"/>
			<stop  offset="1" style="stop-color:#F9F9F9;stop-opacity:0"/>
		</radialGradient>
		<path fill-rule="evenodd" clip-rule="evenodd" fill="url(#SVGID_2_)" d="M21.43,177.8c0,46.53-0.59,86.42-1.76,119.66
			c-1.23,31.04-2.72,46.55-4.49,46.55c-1.67,0-3.11-15.52-4.34-46.55c-1.18-33.24-1.77-73.13-1.77-119.66
			c0-46.63,0.59-86.54,1.77-119.73c1.23-33.24,2.67-49.86,4.34-49.86c1.76,0,3.26,16.62,4.49,49.86
			C20.84,91.27,21.43,131.18,21.43,177.8z"/>
	</g>
</g>
</svg>
