<?xml version="1.0" encoding="utf-8"?>
<!-- Generator: Adobe Illustrator 16.0.0, SVG Export Plug-In . SVG Version: 6.00 Build 0)  -->
<!DOCTYPE svg PUBLIC "-//W3C//DTD SVG 1.1//EN" "http://www.w3.org/Graphics/SVG/1.1/DTD/svg11.dtd">
<svg version="1.1" id="Layer_1" xmlns="http://www.w3.org/2000/svg" xmlns:xlink="http://www.w3.org/1999/xlink" x="0px" y="0px"
	 width="29.25px" height="378.25px" viewBox="-0.98 0 29.25 378.25" enable-background="new -0.98 0 29.25 378.25"
	 xml:space="preserve">
<g>
	
		<linearGradient id="SVGID_1_" gradientUnits="userSpaceOnUse" x1="-198.1616" y1="512.1057" x2="-180.588" y2="507.8646" gradientTransform="matrix(1.4586 0 0 -1.469 289.7628 752.9415)">
		<stop  offset="0" style="stop-color:#737874"/>
		<stop  offset="0.3569" style="stop-color:#869088"/>
		<stop  offset="0.6392" style="stop-color:#E6E6E6"/>
		<stop  offset="0.8941" style="stop-color:#8A908B"/>
		<stop  offset="1" style="stop-color:#545C56"/>
	</linearGradient>
	<path fill="url(#SVGID_1_)" d="M27.02,4.12h-4.81l-0.04,1.65V4.49c0-0.39-0.83-0.73-2.48-1.03c-1.75-0.24-3.84-0.37-6.27-0.37
		c-2.43,0-4.47,0.12-6.13,0.37C5.83,3.71,4.98,4,4.74,4.34v0.07L3.98,4.27H0V3.68l3.72-1.47h0.8L4.45,2.29c0.1,0,0.19,0,0.29,0
		c4.08-0.44,6.98-0.66,8.68-0.66c0.24,0,0.46,0,0.66,0c1.68,0.03,3.26,0.09,4.74,0.18c0.46,0.04,0.91,0.07,1.35,0.11l3.43,0.51
		l3.39,1.62C27,4.07,27.01,4.1,27.02,4.12z"/>
	
		<linearGradient id="SVGID_2_" gradientUnits="userSpaceOnUse" x1="-179.1953" y1="269.8059" x2="-185.0221" y2="531.4054" gradientTransform="matrix(1.4586 0 0 -1.469 289.7628 752.9415)">
		<stop  offset="0" style="stop-color:#707070"/>
		<stop  offset="0.1176" style="stop-color:#7D7D7D"/>
		<stop  offset="0.2039" style="stop-color:#636363"/>
		<stop  offset="0.3333" style="stop-color:#869088"/>
		<stop  offset="0.5098" style="stop-color:#E9E9E9"/>
		<stop  offset="0.6314" style="stop-color:#8D8D8D"/>
		<stop  offset="0.7725" style="stop-color:#FFFFFD"/>
		<stop  offset="0.8784" style="stop-color:#7F7F7F"/>
		<stop  offset="1" style="stop-color:#686868"/>
	</linearGradient>
	<path fill="url(#SVGID_2_)" d="M22.17,372.93V5.78l0.04-1.65h4.81l0.26,1.07v77.6c-0.1,0-0.19,0-0.29,0
		c0.1,0.1,0.19,0.17,0.29,0.22v73.67c0.03,2.9,0.03,4.65,0,5.25v212.68l-0.29,0.73c-0.63,0.44-1.9,0.86-3.79,1.25
		c-0.1,0-0.22,0.03-0.37,0.07c-0.19,0-0.41,0.02-0.66,0.07v-1.62V372.93z"/>
	
		<linearGradient id="SVGID_3_" gradientUnits="userSpaceOnUse" x1="-195.3916" y1="384.5686" x2="-183.4171" y2="384.5686" gradientTransform="matrix(1.4586 0 0 -1.469 289.7628 752.9415)">
		<stop  offset="0" style="stop-color:#737874"/>
		<stop  offset="0.3569" style="stop-color:#869088"/>
		<stop  offset="0.6392" style="stop-color:#E6E6E6"/>
		<stop  offset="0.8941" style="stop-color:#8A908B"/>
		<stop  offset="1" style="stop-color:#545C56"/>
	</linearGradient>
	<path fill="url(#SVGID_3_)" d="M22.17,5.78v367.15l-0.29-0.74c-2.72-0.59-5.54-0.88-8.46-0.88c-2.43,0-4.62,0.07-6.56,0.22
		c-0.73,0.05-1.43,0.12-2.12,0.22V4.42V4.34C4.98,4,5.83,3.71,7.29,3.46c1.65-0.24,3.7-0.37,6.13-0.37c2.43,0,4.52,0.12,6.27,0.37
		c1.65,0.29,2.48,0.64,2.48,1.03V5.78z"/>
	<path fill="#BDC1BD" d="M0,4.27h3.98l0.77,0.15v367.33v2.2v2.87l-1.31-0.22c-1.6-0.34-2.75-0.73-3.43-1.17L0,4.27L0,4.27z
		 M3.43,60.09c0.14-0.05,0.27-0.07,0.4-0.07h-0.4V60.09z"/>
	
		<linearGradient id="SVGID_4_" gradientUnits="userSpaceOnUse" x1="-195.3794" y1="258.4856" x2="-183.4302" y2="258.4856" gradientTransform="matrix(1.4586 0 0 -1.469 289.7628 752.9415)">
		<stop  offset="0" style="stop-color:#737874"/>
		<stop  offset="0.3569" style="stop-color:#525B53"/>
		<stop  offset="0.6392" style="stop-color:#878D88"/>
		<stop  offset="1" style="stop-color:#545C56"/>
	</linearGradient>
	<path fill="url(#SVGID_4_)" d="M22.17,372.93v2.2l-0.29-0.73c-2.72-0.59-5.54-0.88-8.46-0.88c-2.43,0-4.62,0.07-6.56,0.22
		c-0.73,0.05-1.43,0.12-2.12,0.22v-2.2c0.68-0.1,1.39-0.17,2.12-0.22c1.94-0.15,4.13-0.22,6.56-0.22c2.92,0,5.74,0.29,8.46,0.88
		L22.17,372.93z"/>
</g>
</svg>
