<?xml version="1.0" encoding="utf-8"?>
<!-- Generator: Adobe Illustrator 16.0.0, SVG Export Plug-In . SVG Version: 6.00 Build 0)  -->
<!DOCTYPE svg PUBLIC "-//W3C//DTD SVG 1.1//EN" "http://www.w3.org/Graphics/SVG/1.1/DTD/svg11.dtd">
<svg version="1.1" id="Layer_1" xmlns="http://www.w3.org/2000/svg" xmlns:xlink="http://www.w3.org/1999/xlink" x="0px" y="0px"
	 width="41.63px" height="41.33px" viewBox="0 0 41.63 41.33" enable-background="new 0 0 41.63 41.33" xml:space="preserve">
<symbol  id="light_off" viewBox="-14.15 -4.85 28.3 9.8">
	<g id="Layer_1_2_">
		<g>
			<linearGradient id="SVGID_1_" gradientUnits="userSpaceOnUse" x1="-14.1499" y1="0.0498" x2="14.1499" y2="0.0498">
				<stop  offset="0" style="stop-color:#836F52"/>
				<stop  offset="1" style="stop-color:#E6E1DD"/>
			</linearGradient>
			<path fill-rule="evenodd" clip-rule="evenodd" fill="url(#SVGID_1_)" d="M-13.85,4.7v-9.35H13.9V4.7H-13.85z M-14.15,4.95h28.3
				v-9.8h-28.3V4.95z"/>
			<radialGradient id="SVGID_2_" cx="3.3501" cy="-0.1001" r="14.2875" fx="9.4573" fy="-0.1001" gradientUnits="userSpaceOnUse">
				<stop  offset="0" style="stop-color:#6D2021"/>
				<stop  offset="0.698" style="stop-color:#561B1A"/>
				<stop  offset="1" style="stop-color:#170B0D"/>
			</radialGradient>
			<polygon fill-rule="evenodd" clip-rule="evenodd" fill="url(#SVGID_2_)" points="-13.85,4.7 13.9,4.7 13.9,-4.65 -13.85,-4.65 
							"/>
		</g>
	</g>
</symbol>
<g>
	
		<use xlink:href="#light_off"  width="28.3" height="9.8" id="lightOff_x5F_mc" x="-14.15" y="-4.85" transform="matrix(1.4709 0 0 -1.4709 20.813 7.2813)" overflow="visible"/>
	<g>
		<polygon fill-rule="evenodd" clip-rule="evenodd" fill="#151515" points="13.06,22.93 30.31,22.93 30.31,22.93 28.51,29.78 
			14.26,29.78 13.06,22.93 		"/>
		<rect x="14.26" y="29.78" fill-rule="evenodd" clip-rule="evenodd" fill="#333333" width="14.25" height="11.55"/>
		<rect x="13.06" y="20.78" fill-rule="evenodd" clip-rule="evenodd" fill="#222222" width="17.25" height="2.15"/>
	</g>
</g>
</svg>
