<?xml version="1.0" encoding="utf-8"?>
<!-- Generator: Adobe Illustrator 16.0.0, SVG Export Plug-In . SVG Version: 6.00 Build 0)  -->
<!DOCTYPE svg PUBLIC "-//W3C//DTD SVG 1.1//EN" "http://www.w3.org/Graphics/SVG/1.1/DTD/svg11.dtd">
<svg version="1.1" id="Layer_2" xmlns="http://www.w3.org/2000/svg" xmlns:xlink="http://www.w3.org/1999/xlink" x="0px" y="0px"
	 width="189.88px" height="74px" viewBox="0 0 189.88 74" enable-background="new 0 0 189.88 74" xml:space="preserve">
<symbol  id="glaceee_x5F_brass" viewBox="-14.55 -14.6 29.15 29.15">
	<g id="Layer_1_1_">
		<g>
			<radialGradient id="SVGID_1_" cx="0.0254" cy="-0.0254" r="14.4875" gradientUnits="userSpaceOnUse">
				<stop  offset="0" style="stop-color:#FEFEFE"/>
				<stop  offset="0.2078" style="stop-color:#FEFEFE"/>
				<stop  offset="0.4902" style="stop-color:#FFFFFF;stop-opacity:0.302"/>
				<stop  offset="0.6784" style="stop-color:#FFFFFF;stop-opacity:0.0824"/>
				<stop  offset="0.8392" style="stop-color:#FCFCFC;stop-opacity:0"/>
				<stop  offset="1" style="stop-color:#FBFBFB;stop-opacity:0"/>
			</radialGradient>
			<path fill-rule="evenodd" clip-rule="evenodd" fill="url(#SVGID_1_)" d="M10.25,10.3C13.15,7.47,14.6,4.03,14.6,0
				s-1.45-7.47-4.35-10.3C7.42-13.17,4-14.6,0-14.6c-4.03,0-7.47,1.43-10.3,4.3c-2.83,2.83-4.25,6.27-4.25,10.3s1.42,7.47,4.25,10.3
				c2.83,2.83,6.27,4.25,10.3,4.25C4,14.55,7.42,13.13,10.25,10.3z"/>
		</g>
	</g>
</symbol>
<path fill-rule="evenodd" clip-rule="evenodd" fill="#61616A" d="M188.86,27.45c0.07,0.5,0.1,1,0.1,1.51c0,0.57-0.03,1.1-0.1,1.6
	V27.45z"/>
<linearGradient id="SVGID_2_" gradientUnits="userSpaceOnUse" x1="0.9795" y1="51.3516" x2="188.8643" y2="51.3516">
	<stop  offset="0.0196" style="stop-color:#B79555"/>
	<stop  offset="0.1804" style="stop-color:#905B19"/>
	<stop  offset="0.4275" style="stop-color:#E1A746"/>
	<stop  offset="0.5255" style="stop-color:#FBEBAF"/>
	<stop  offset="0.6784" style="stop-color:#E8B65F"/>
	<stop  offset="0.8" style="stop-color:#BA843C"/>
	<stop  offset="0.9294" style="stop-color:#A67032"/>
	<stop  offset="1" style="stop-color:#BA9859"/>
</linearGradient>
<path fill-rule="evenodd" clip-rule="evenodd" fill="url(#SVGID_2_)" d="M188.46,32.16c0.17-0.53,0.31-1.06,0.4-1.6v16.2
	c-0.4,2.34-1.6,4.57-3.61,6.67c-4.31,4.35-12.26,8.24-23.85,11.69c-18.37,5.55-40.53,8.33-66.49,8.33c-7.15,0-14.02-0.21-20.59-0.63
	c-17.29-1.11-32.58-3.68-45.89-7.7c-11.76-3.54-19.76-7.56-24-12.04c-2.24-2.34-3.39-4.85-3.46-7.52v-16.3
	c0.03,0.99,0.2,1.96,0.53,2.91c0.07,0.24,0.16,0.47,0.25,0.7l0.3,0.63c0.09,0.19,0.19,0.39,0.3,0.58c0.02,0.05,0.05,0.1,0.08,0.15
	c0.17,0.31,0.35,0.61,0.55,0.9c3.64,5.18,12.13,9.78,25.45,13.79c13.31,4,28.61,6.55,45.89,7.65c6.58,0.42,13.44,0.63,20.59,0.63
	c25.95,0,48.12-2.76,66.49-8.28c13.36-4.01,21.88-8.61,25.55-13.79C187.62,34.16,188.12,33.17,188.46,32.16z"/>
<linearGradient id="SVGID_3_" gradientUnits="userSpaceOnUse" x1="-116.4932" y1="-66.4746" x2="201.4654" y2="77.0969">
	<stop  offset="0" style="stop-color:#A87A3E;stop-opacity:0.9804"/>
	<stop  offset="0.5059" style="stop-color:#8F5C1D;stop-opacity:0.9882"/>
	<stop  offset="0.5647" style="stop-color:#B08A4D;stop-opacity:0.9882"/>
	<stop  offset="0.6353" style="stop-color:#9A6A2A;stop-opacity:0.9882"/>
	<stop  offset="1" style="stop-color:#A37134"/>
</linearGradient>
<path fill-rule="evenodd" clip-rule="evenodd" fill="url(#SVGID_3_)" d="M0.98,29.25V28.7c0.2-7.66,9.35-14.2,27.46-19.61
	c13.31-4,28.61-6.55,45.89-7.65c6.58-0.42,13.44-0.63,20.59-0.63c25.95,0,48.12,2.76,66.49,8.28c17.13,5.12,26.29,11.24,27.46,18.36
	v3.11c-0.09,0.54-0.23,1.08-0.4,1.6c-0.34,1.01-0.85,1.99-1.5,2.96c-3.67,5.18-12.19,9.78-25.55,13.79
	c-18.37,5.52-40.53,8.28-66.49,8.28c-7.15,0-14.02-0.21-20.59-0.63c-17.29-1.1-32.58-3.65-45.89-7.65
	C15.11,44.91,6.62,40.31,2.98,35.12c-0.2-0.3-0.39-0.6-0.55-0.9c-0.03-0.05-0.05-0.1-0.08-0.15c-0.11-0.19-0.21-0.38-0.3-0.58
	l-0.3-0.63c-0.09-0.23-0.18-0.46-0.25-0.7C1.18,31.22,1.01,30.25,0.98,29.25z M157.6,41.64l12.38-5.72l0.68-0.48
	c0.67-0.47,1.28-0.94,1.83-1.43l0.28-0.35c0.5-0.49,0.95-0.99,1.33-1.5c0.9-1.24,1.45-2.49,1.65-3.76v-2.61
	c-0.97-5.82-8.89-10.84-23.75-15.05c-15.9-4.51-35.14-6.77-57.72-6.77c-6.96,0-13.61,0.22-19.94,0.65c-14.13,0.96-26.7,3-37.73,6.12
	c-15.7,4.42-23.63,9.8-23.8,16.15v0.3c0.03,1.74,0.62,3.39,1.75,4.97c0.45,0.6,0.98,1.18,1.6,1.76c0.02,0.03,0.05,0.05,0.08,0.08
	l0.13,0.18c0.5,0.44,1.05,0.86,1.65,1.28l12.63,6.04c1.84,0.66,3.82,1.3,5.96,1.91c11.02,3.16,23.6,5.24,37.73,6.22
	c6.34,0.43,12.98,0.65,19.94,0.65c22.58,0,41.82-2.29,57.72-6.87C153.99,42.83,155.86,42.25,157.6,41.64z"/>
<linearGradient id="SVGID_4_" gradientUnits="userSpaceOnUse" x1="92.9556" y1="8.9043" x2="95.4853" y2="42.8878">
	<stop  offset="0" style="stop-color:#A36932"/>
	<stop  offset="1" style="stop-color:#AD7836"/>
</linearGradient>
<path fill-rule="evenodd" clip-rule="evenodd" fill="url(#SVGID_4_)" d="M172.76,33.67l0.33-0.4c-4.01,2.98-11.09,5.92-21.24,8.83
	h-0.05c-15.87,4.51-35.04,6.77-57.52,6.77c-7.13,0-13.78-0.18-19.94-0.55c-13.25-0.79-24.27-2.43-33.07-4.92
	c-12.93-3.68-21.29-6.84-25.1-9.48c-0.62-0.57-1.16-1.16-1.6-1.76c-1.14-1.57-1.72-3.23-1.75-4.97v-0.3
	c0.17-6.35,8.1-11.74,23.8-16.15c11.02-3.12,23.6-5.16,37.73-6.12c6.34-0.43,12.98-0.65,19.94-0.65c22.58,0,41.82,2.26,57.72,6.77
	c14.86,4.21,22.78,9.23,23.75,15.05v2.61c-0.2,1.27-0.75,2.52-1.65,3.76C173.7,32.67,173.26,33.18,172.76,33.67z M157.6,41.64
	c-1.74,0.6-3.61,1.19-5.61,1.76c-15.9,4.58-35.14,6.87-57.72,6.87c-6.96,0-13.61-0.22-19.94-0.65c-14.13-0.98-26.7-3.06-37.73-6.22
	c-2.14-0.61-4.13-1.24-5.96-1.91c1.8,0.61,3.74,1.21,5.81,1.81c11.08,3.14,23.7,5.2,37.88,6.17c6.34,0.44,12.98,0.65,19.94,0.65
	c22.65,0,41.94-2.27,57.87-6.82C154.08,42.75,155.9,42.2,157.6,41.64z"/>
<radialGradient id="SVGID_5_" cx="94.3638" cy="37.8623" r="82.1244" gradientTransform="matrix(1.0021 0 0 1.0033 -0.2865 -2.258301e-003)" gradientUnits="userSpaceOnUse">
	<stop  offset="0" style="stop-color:#FFFFFF;stop-opacity:0.4235"/>
	<stop  offset="1" style="stop-color:#F5F5F5;stop-opacity:0"/>
</radialGradient>
<path fill-rule="evenodd" clip-rule="evenodd" fill="url(#SVGID_5_)" d="M169.98,35.93l-12.38,5.72c-1.7,0.55-3.52,1.11-5.46,1.66
	c-15.93,4.55-35.22,6.82-57.87,6.82c-6.96,0-13.6-0.22-19.94-0.65c-14.17-0.97-26.8-3.03-37.88-6.17c-2.07-0.6-4.01-1.2-5.81-1.81
	l-12.63-6.04c-0.6-0.42-1.15-0.84-1.65-1.28l-0.13-0.18c-0.03-0.02-0.05-0.05-0.08-0.08c3.81,2.64,12.17,5.8,25.1,9.48
	c8.8,2.49,19.82,4.13,33.07,4.92c6.17,0.37,12.81,0.55,19.94,0.55c22.48,0,41.65-2.26,57.52-6.77h0.05
	c10.15-2.91,17.24-5.85,21.24-8.83l-0.33,0.4l-0.28,0.35c-0.55,0.49-1.16,0.96-1.83,1.43L169.98,35.93z"/>
<path fill-rule="evenodd" clip-rule="evenodd" fill="none" stroke="#804316" stroke-width="0.1" stroke-linecap="round" stroke-linejoin="round" stroke-miterlimit="3" d="
	M16.16,33.92c0.02,0.03,0.05,0.05,0.08,0.08 M18.01,35.45l12.63,6.04 M157.6,41.64l12.38-5.72 M16.16,33.92
	c-0.62-0.57-1.16-1.16-1.6-1.76c-1.14-1.57-1.72-3.23-1.75-4.97v-0.3c0.17-6.35,8.1-11.74,23.8-16.15
	c11.02-3.12,23.6-5.16,37.73-6.12c6.34-0.43,12.98-0.65,19.94-0.65c22.58,0,41.82,2.26,57.72,6.77
	c14.86,4.21,22.78,9.23,23.75,15.05v2.61c-0.2,1.27-0.75,2.52-1.65,3.76c-0.38,0.51-0.82,1.01-1.33,1.5 M157.6,41.64
	c-1.74,0.6-3.61,1.19-5.61,1.76c-15.9,4.58-35.14,6.87-57.72,6.87c-6.96,0-13.61-0.22-19.94-0.65c-14.13-0.98-26.7-3.06-37.73-6.22
	c-2.14-0.61-4.13-1.24-5.96-1.91"/>
<path fill-rule="evenodd" clip-rule="evenodd" fill="none" d="M188.46,32.16c-0.34,1.01-0.85,1.99-1.5,2.96
	c-3.67,5.18-12.19,9.78-25.55,13.79c-18.37,5.52-40.53,8.28-66.49,8.28c-7.15,0-14.02-0.21-20.59-0.63
	c-17.29-1.1-32.58-3.65-45.89-7.65C15.11,44.91,6.62,40.31,2.98,35.12c-0.2-0.3-0.39-0.6-0.55-0.9c-0.03-0.05-0.05-0.1-0.08-0.15
	c-0.11-0.19-0.21-0.38-0.3-0.58l-0.3-0.63c-0.09-0.23-0.18-0.46-0.25-0.7"/>
<use xlink:href="#glaceee_x5F_brass"  width="29.15" height="29.15" x="-14.55" y="-14.6" transform="matrix(0.9022 -0.1066 -0.0165 -0.1397 128.3906 55.5908)" overflow="visible" opacity="0.9492"/>
<use xlink:href="#glaceee_x5F_brass"  width="29.15" height="29.15" x="-14.55" y="-14.6" transform="matrix(0.6909 0.0155 2.395530e-003 -0.107 79.8408 57.0449)" overflow="visible" opacity="0.9492"/>
<use xlink:href="#glaceee_x5F_brass"  width="29.15" height="29.15" x="-14.55" y="-14.6" transform="matrix(0.3003 -0.213 -0.0587 -0.083 182.8525 39.1865)" overflow="visible" opacity="0.9492"/>
<g>
	<g>
		
			<linearGradient id="SVGID_6_" gradientUnits="userSpaceOnUse" x1="-218.4741" y1="-209.9819" x2="-225.3209" y2="-258.5809" gradientTransform="matrix(1.2625 0 0 1.2625 374.7466 322.1401)">
			<stop  offset="0" style="stop-color:#333335"/>
			<stop  offset="1" style="stop-color:#1E1D1B"/>
		</linearGradient>
		<path fill-rule="evenodd" clip-rule="evenodd" fill="url(#SVGID_6_)" d="M0.98,29.16v-0.44c0.21-7.68,9.36-14.23,27.45-19.63
			c18.39-5.53,40.55-8.3,66.48-8.3c25.98,0,48.14,2.77,66.48,8.3c17.16,5.11,26.31,11.23,27.45,18.37v3.1
			c-0.25,1.56-0.89,3.08-1.9,4.56c-3.67,5.19-12.19,9.8-25.56,13.81c-18.34,5.53-40.5,8.3-66.48,8.3c-25.93,0-48.1-2.77-66.48-8.3
			C15.1,44.91,6.63,40.31,3,35.12C1.69,33.22,1.02,31.23,0.98,29.16z"/>
		
			<linearGradient id="SVGID_7_" gradientUnits="userSpaceOnUse" x1="-296.0537" y1="-214.5264" x2="-147.249" y2="-214.5264" gradientTransform="matrix(1.2625 0 0 1.2625 374.7466 322.1401)">
			<stop  offset="0.0196" style="stop-color:#B79555"/>
			<stop  offset="0.1804" style="stop-color:#905B19"/>
			<stop  offset="0.4275" style="stop-color:#E1A746"/>
			<stop  offset="0.5255" style="stop-color:#FBEBAF"/>
			<stop  offset="0.6784" style="stop-color:#E8B65F"/>
			<stop  offset="0.8" style="stop-color:#BA843C"/>
			<stop  offset="0.9294" style="stop-color:#A67032"/>
			<stop  offset="1" style="stop-color:#BA9859"/>
		</linearGradient>
		<path fill-rule="evenodd" clip-rule="evenodd" fill="url(#SVGID_7_)" d="M188.84,30.56v16.21c-0.38,2.32-1.58,4.54-3.61,6.65
			c-4.3,4.35-12.25,8.25-23.85,11.72c-18.34,5.53-40.5,8.3-66.48,8.3c-25.93,0-48.1-2.77-66.48-8.3
			C16.66,61.59,8.67,57.58,4.45,53.1c-2.24-2.36-3.4-4.88-3.48-7.54v-16.4c0.04,2.07,0.72,4.05,2.02,5.95
			c3.63,5.19,12.1,9.8,25.43,13.81c18.39,5.53,40.55,8.3,66.48,8.3c25.98,0,48.14-2.77,66.48-8.3c13.37-4.01,21.89-8.62,25.56-13.81
			C187.96,33.64,188.59,32.12,188.84,30.56z"/>
		<path fill-rule="evenodd" clip-rule="evenodd" fill="#61616A" d="M188.84,27.45c0.08,0.51,0.13,1.01,0.13,1.52
			c0,0.55-0.04,1.08-0.13,1.58V27.45z"/>
	</g>
	<g>
		
			<linearGradient id="SVGID_8_" gradientUnits="userSpaceOnUse" x1="-389.1108" y1="-307.8188" x2="-137.2703" y2="-194.0987" gradientTransform="matrix(1.2625 0 0 1.2625 374.7466 322.1401)">
			<stop  offset="0" style="stop-color:#5A564B"/>
			<stop  offset="0" style="stop-color:#5A564A"/>
			<stop  offset="0.1804" style="stop-color:#5A553F"/>
			<stop  offset="0.4275" style="stop-color:#695F38"/>
			<stop  offset="0.6314" style="stop-color:#5B6141"/>
			<stop  offset="0.8667" style="stop-color:#7F6F62"/>
			<stop  offset="1" style="stop-color:#4B4634"/>
		</linearGradient>
		<path fill-rule="evenodd" clip-rule="evenodd" fill="url(#SVGID_8_)" d="M188.84,27.45v3.1c-0.25,1.56-0.89,3.08-1.9,4.56
			c-3.67,5.19-12.19,9.8-25.56,13.81c-18.34,5.53-40.5,8.3-66.48,8.3c-25.93,0-48.1-2.77-66.48-8.3C15.1,44.91,6.63,40.31,3,35.12
			c-1.31-1.9-1.98-3.88-2.02-5.95v-0.44c0.21-7.68,9.36-14.23,27.45-19.63c18.39-5.53,40.55-8.3,66.48-8.3
			c25.98,0,48.14,2.77,66.48,8.3C178.55,14.19,187.7,20.32,188.84,27.45z"/>
	</g>
	<g>
		
			<linearGradient id="SVGID_9_" gradientUnits="userSpaceOnUse" x1="-389.1108" y1="-307.8188" x2="-137.2703" y2="-194.0987" gradientTransform="matrix(1.2625 0 0 1.2625 374.7466 322.1401)">
			<stop  offset="0" style="stop-color:#A87A3E;stop-opacity:0.9804"/>
			<stop  offset="0.5059" style="stop-color:#8F5C1D;stop-opacity:0.9882"/>
			<stop  offset="0.5647" style="stop-color:#B08A4D;stop-opacity:0.9882"/>
			<stop  offset="0.6353" style="stop-color:#9A6A2A;stop-opacity:0.9882"/>
			<stop  offset="1" style="stop-color:#A37134"/>
		</linearGradient>
		<path fill-rule="evenodd" clip-rule="evenodd" fill="url(#SVGID_9_)" d="M186.95,35.12c-3.67,5.19-12.19,9.8-25.56,13.81
			c-18.34,5.53-40.5,8.3-66.48,8.3c-25.93,0-48.1-2.77-66.48-8.3C15.1,44.91,6.63,40.31,3,35.12c-1.31-1.9-1.98-3.88-2.02-5.95
			v-0.44c0.21-7.68,9.36-14.23,27.45-19.63c18.39-5.53,40.55-8.3,66.48-8.3c25.98,0,48.14,2.77,66.48,8.3
			c17.16,5.11,26.31,11.23,27.45,18.37v3.1C188.59,32.12,187.96,33.64,186.95,35.12z"/>
	</g>
	<g>
		
			<linearGradient id="SVGID_10_" gradientUnits="userSpaceOnUse" x1="-223.1953" y1="-248.1182" x2="-221.1918" y2="-221.2076" gradientTransform="matrix(1.2625 0 0 1.2625 374.7466 322.1401)">
			<stop  offset="0" style="stop-color:#A36932"/>
			<stop  offset="1" style="stop-color:#AD7836"/>
		</linearGradient>
		<path fill-rule="evenodd" clip-rule="evenodd" fill="url(#SVGID_10_)" d="M175.75,25.81v2.6c-0.21,1.27-0.76,2.51-1.65,3.74
			c-3.16,4.22-10.54,7.98-22.14,11.27c-15.9,4.56-35.13,6.84-57.69,6.84c-22.48,0-41.71-2.28-57.69-6.84
			c-11.56-3.29-18.89-7.05-22.01-11.27c-1.14-1.56-1.73-3.21-1.77-4.94v-0.32c0.17-6.33,8.1-11.72,23.78-16.15
			C52.57,6.22,71.8,3.96,94.28,3.96c22.56,0,41.79,2.26,57.69,6.78C166.85,14.96,174.78,19.98,175.75,25.81z"/>
		
			<path fill-rule="evenodd" clip-rule="evenodd" fill="none" stroke="#804316" stroke-width="0.1" stroke-linecap="round" stroke-linejoin="round" stroke-miterlimit="3" d="
			M175.75,25.81v2.6c-0.21,1.27-0.76,2.51-1.65,3.74c-3.16,4.22-10.54,7.98-22.14,11.27c-15.9,4.56-35.13,6.84-57.69,6.84
			c-22.48,0-41.71-2.28-57.69-6.84c-11.56-3.29-18.89-7.05-22.01-11.27c-1.14-1.56-1.73-3.21-1.77-4.94v-0.32
			c0.17-6.33,8.1-11.72,23.78-16.15C52.57,6.22,71.8,3.96,94.28,3.96c22.56,0,41.79,2.26,57.69,6.78
			C166.85,14.96,174.78,19.98,175.75,25.81z"/>
	</g>
	<g>
		
			<radialGradient id="SVGID_11_" cx="-222.0801" cy="-225.1831" r="65.05" gradientTransform="matrix(1.2651 0 0 1.2667 375.2296 323.1943)" gradientUnits="userSpaceOnUse">
			<stop  offset="0" style="stop-color:#FFFFFF;stop-opacity:0.4235"/>
			<stop  offset="1" style="stop-color:#F5F5F5;stop-opacity:0"/>
		</radialGradient>
		<path fill-rule="evenodd" clip-rule="evenodd" fill="url(#SVGID_11_)" d="M173.09,33.28l-0.63,0.76
			c-3.89,3.4-10.67,6.47-20.34,9.21h0.03c-15.95,4.58-35.24,6.87-57.88,6.87c-22.54,0-41.82-2.29-57.85-6.87
			c-9.51-2.71-16.2-5.73-20.08-9.09l-0.19-0.25c3.79,2.66,12.15,5.81,25.08,9.47c12.94,3.65,30.62,5.48,53.04,5.48
			c22.49,0,41.65-2.27,57.5-6.81h0.03C162,39.15,169.09,36.23,173.09,33.28z"/>
	</g>
	<g>
		<path fill-rule="evenodd" clip-rule="evenodd" fill="none" d="M188.46,32.14c-0.34,1.01-0.85,2-1.52,2.98
			c-3.67,5.19-12.19,9.8-25.56,13.81c-18.34,5.53-40.5,8.3-66.48,8.3c-25.93,0-48.1-2.77-66.48-8.3C15.1,44.91,6.63,40.31,3,35.12
			c-0.67-0.97-1.16-1.96-1.49-2.98"/>
	</g>
	<g>
		
			<radialGradient id="SVGID_12_" cx="-195.1299" cy="-211.2822" r="10.4221" gradientTransform="matrix(1.2564 -0.1482 0.0229 0.1944 378.3675 67.746)" gradientUnits="userSpaceOnUse">
			<stop  offset="0" style="stop-color:#FEFEFE"/>
			<stop  offset="0.2078" style="stop-color:#FEFEFE"/>
			<stop  offset="0.4902" style="stop-color:#FFFFFF;stop-opacity:0.298"/>
			<stop  offset="0.6784" style="stop-color:#FFFFFF;stop-opacity:0.0824"/>
			<stop  offset="0.8392" style="stop-color:#FCFCFC;stop-opacity:0"/>
			<stop  offset="1" style="stop-color:#FBFBFB;stop-opacity:0"/>
		</radialGradient>
		<path fill-rule="evenodd" clip-rule="evenodd" fill="url(#SVGID_12_)" d="M119.26,58.11c-2.62-0.09-3.96-0.4-4.05-0.95
			c-0.08-0.55,1.14-1.2,3.67-1.96c2.53-0.68,5.61-1.22,9.24-1.65c3.63-0.42,6.72-0.59,9.3-0.51c2.66,0.08,4.03,0.4,4.11,0.95
			s-1.16,1.2-3.73,1.96c-2.49,0.67-5.55,1.22-9.17,1.65C125,58.02,121.88,58.19,119.26,58.11z"/>
	</g>
	<g>
		
			<radialGradient id="SVGID_13_" cx="-233.48" cy="-210.1328" r="7.9263" gradientTransform="matrix(1.2648 0.0269 -4.153432e-003 0.1957 374.2901 104.4421)" gradientUnits="userSpaceOnUse">
			<stop  offset="0" style="stop-color:#FEFEFE"/>
			<stop  offset="0.2078" style="stop-color:#FEFEFE"/>
			<stop  offset="0.4902" style="stop-color:#FFFFFF;stop-opacity:0.298"/>
			<stop  offset="0.6784" style="stop-color:#FFFFFF;stop-opacity:0.0824"/>
			<stop  offset="0.8392" style="stop-color:#FCFCFC;stop-opacity:0"/>
			<stop  offset="1" style="stop-color:#FBFBFB;stop-opacity:0"/>
		</radialGradient>
		<path fill-rule="evenodd" clip-rule="evenodd" fill="url(#SVGID_13_)" d="M72.71,57.92c-1.94-0.34-2.91-0.72-2.91-1.14
			c0-0.42,0.97-0.76,2.91-1.01c2.02-0.25,4.43-0.36,7.21-0.32c2.78,0.04,5.12,0.27,7.02,0.7c1.98,0.34,2.97,0.72,2.97,1.14
			c0,0.42-0.99,0.76-2.97,1.01c-1.98,0.25-4.36,0.36-7.15,0.32C77.01,58.57,74.65,58.34,72.71,57.92z"/>
	</g>
	<g>
		
			<radialGradient id="SVGID_14_" cx="-152.0801" cy="-224.2329" r="4.2242" gradientTransform="matrix(1.0323 -0.7323 0.2018 0.2851 385.064 -8.2595)" gradientUnits="userSpaceOnUse">
			<stop  offset="0" style="stop-color:#FEFEFE"/>
			<stop  offset="0.2078" style="stop-color:#FEFEFE"/>
			<stop  offset="0.4902" style="stop-color:#FFFFFF;stop-opacity:0.298"/>
			<stop  offset="0.6784" style="stop-color:#FFFFFF;stop-opacity:0.0824"/>
			<stop  offset="0.8392" style="stop-color:#FCFCFC;stop-opacity:0"/>
			<stop  offset="1" style="stop-color:#FBFBFB;stop-opacity:0"/>
		</radialGradient>
		<path fill-rule="evenodd" clip-rule="evenodd" fill="url(#SVGID_14_)" d="M187.2,36.07c0.25,0.34,0.04,0.95-0.63,1.84
			c-0.72,0.8-1.67,1.63-2.85,2.47c-1.22,0.84-2.34,1.48-3.35,1.9c-1.01,0.34-1.65,0.34-1.9,0c-0.25-0.34-0.04-0.93,0.63-1.77
			c0.67-0.84,1.62-1.69,2.85-2.53c1.18-0.84,2.3-1.46,3.35-1.84C186.31,35.75,186.95,35.73,187.2,36.07z"/>
	</g>
</g>
</svg>
