<?xml version="1.0" encoding="utf-8"?>
<!-- Generator: Adobe Illustrator 16.0.0, SVG Export Plug-In . SVG Version: 6.00 Build 0)  -->
<!DOCTYPE svg PUBLIC "-//W3C//DTD SVG 1.1//EN" "http://www.w3.org/Graphics/SVG/1.1/DTD/svg11.dtd">
<svg version="1.1" id="Layer_1" xmlns="http://www.w3.org/2000/svg" xmlns:xlink="http://www.w3.org/1999/xlink" x="0px" y="0px"
	 width="189.88px" height="74px" viewBox="0 0 189.88 74" enable-background="new 0 0 189.88 74" xml:space="preserve">
<g>
	<path fill-rule="evenodd" clip-rule="evenodd" fill="#61616A" d="M188.47,30.7v-3.1c0.07,0.5,0.1,1,0.1,1.5
		C188.58,29.67,188.54,30.2,188.47,30.7z"/>
	<linearGradient id="SVGID_1_" gradientUnits="userSpaceOnUse" x1="-116.2529" y1="-66.1304" x2="201.0474" y2="77.1439">
		<stop  offset="0" style="stop-color:#FE8D6D;stop-opacity:0.9804"/>
		<stop  offset="0.5059" style="stop-color:#C96C4A;stop-opacity:0.9882"/>
		<stop  offset="0.5647" style="stop-color:#B08A4D;stop-opacity:0.9882"/>
		<stop  offset="0.6353" style="stop-color:#FF8F67;stop-opacity:0.9882"/>
		<stop  offset="1" style="stop-color:#A1553B"/>
	</linearGradient>
	<path fill-rule="evenodd" clip-rule="evenodd" fill="url(#SVGID_1_)" d="M0.98,29.4v-0.55c0.2-7.63,9.33-14.15,27.4-19.55
		c18.33-5.5,40.45-8.25,66.35-8.25s48.02,2.75,66.35,8.25c17.1,5.1,26.23,11.2,27.4,18.3v3.1c-0.09,0.54-0.22,1.07-0.4,1.6
		c-0.34,1-0.84,1.99-1.5,2.95c-3.67,5.17-12.17,9.75-25.5,13.75c-18.33,5.5-40.45,8.25-66.35,8.25S46.71,54.5,28.38,49
		c-13.3-4-21.77-8.58-25.4-13.75c-0.2-0.29-0.39-0.59-0.55-0.9c-0.03-0.05-0.05-0.1-0.07-0.15c-0.11-0.19-0.21-0.38-0.3-0.58
		L1.75,33c-0.09-0.23-0.18-0.46-0.25-0.7C1.18,31.36,1,30.39,0.98,29.4z M16.13,34.05c0.02,0.03,0.05,0.05,0.08,0.08l0.13,0.17
		c0.5,0.43,1.05,0.86,1.65,1.28l12.6,6.02c1.83,0.66,3.82,1.3,5.95,1.9c15.93,4.57,35.12,6.85,57.55,6.85
		c22.53,0,41.73-2.28,57.6-6.85c2-0.56,3.87-1.15,5.6-1.75l12.35-5.7l0.67-0.47c0.67-0.46,1.27-0.94,1.83-1.43l0.28-0.35
		c0.5-0.49,0.95-0.99,1.32-1.5c0.9-1.23,1.45-2.48,1.65-3.75v-2.6c-0.97-5.8-8.87-10.8-23.7-15c-15.87-4.5-35.07-6.75-57.6-6.75
		c-22.43,0-41.62,2.25-57.55,6.75c-15.67,4.4-23.58,9.77-23.75,16.1v0.3c0.03,1.73,0.62,3.38,1.75,4.95
		C14.97,32.9,15.5,33.48,16.13,34.05z"/>
	<linearGradient id="SVGID_2_" gradientUnits="userSpaceOnUse" x1="92.7637" y1="9.1157" x2="95.2854" y2="42.991">
		<stop  offset="0" style="stop-color:#FEAA7C"/>
		<stop  offset="1" style="stop-color:#CB7E57"/>
	</linearGradient>
	<path fill-rule="evenodd" clip-rule="evenodd" fill="url(#SVGID_2_)" d="M16.13,34.05c-0.62-0.57-1.15-1.15-1.6-1.75
		c-1.13-1.57-1.72-3.22-1.75-4.95v-0.3c0.17-6.33,8.08-11.7,23.75-16.1C52.46,6.45,71.64,4.2,94.08,4.2
		c22.53,0,41.73,2.25,57.6,6.75c14.83,4.2,22.73,9.2,23.7,15v2.6c-0.2,1.27-0.75,2.52-1.65,3.75c-0.38,0.51-0.82,1.01-1.32,1.5
		l0.32-0.4c-4,2.97-11.07,5.9-21.2,8.8h-0.05c-15.83,4.5-34.97,6.75-57.4,6.75c-22.4,0-40.03-1.82-52.9-5.45
		C28.27,39.83,19.92,36.68,16.13,34.05z M30.58,41.6c1.8,0.61,3.73,1.21,5.8,1.8c16,4.53,35.23,6.8,57.7,6.8
		c22.6,0,41.85-2.27,57.75-6.8c1.93-0.55,3.75-1.1,5.45-1.65c-1.74,0.6-3.6,1.19-5.6,1.75c-15.87,4.57-35.07,6.85-57.6,6.85
		c-22.43,0-41.62-2.28-57.55-6.85C34.39,42.9,32.41,42.26,30.58,41.6z"/>
	<linearGradient id="SVGID_3_" gradientUnits="userSpaceOnUse" x1="0.9751" y1="51.4248" x2="188.4746" y2="51.4248">
		<stop  offset="0.0196" style="stop-color:#8A462E"/>
		<stop  offset="0.1804" style="stop-color:#F9B182"/>
		<stop  offset="0.4275" style="stop-color:#81452D"/>
		<stop  offset="0.5255" style="stop-color:#FEB381"/>
		<stop  offset="0.6784" style="stop-color:#A95A3B"/>
		<stop  offset="0.8" style="stop-color:#B76643"/>
		<stop  offset="0.9294" style="stop-color:#D26F4F"/>
		<stop  offset="1" style="stop-color:#C4C4C4"/>
	</linearGradient>
	<path fill-rule="evenodd" clip-rule="evenodd" fill="url(#SVGID_3_)" d="M188.08,32.3c0.17-0.53,0.31-1.06,0.4-1.6v16.15
		c-0.4,2.33-1.6,4.55-3.6,6.65c-4.3,4.33-12.23,8.22-23.8,11.65c-18.33,5.53-40.45,8.3-66.35,8.3s-48.02-2.77-66.35-8.3
		c-11.73-3.53-19.72-7.53-23.95-12c-2.23-2.33-3.38-4.83-3.45-7.5V29.4c0.03,0.99,0.2,1.96,0.52,2.9c0.07,0.24,0.16,0.47,0.25,0.7
		l0.3,0.63c0.09,0.19,0.19,0.39,0.3,0.58c0.02,0.05,0.05,0.1,0.07,0.15c0.17,0.31,0.35,0.6,0.55,0.9C6.61,40.42,15.08,45,28.38,49
		c18.33,5.5,40.45,8.25,66.35,8.25s48.02-2.75,66.35-8.25c13.33-4,21.83-8.58,25.5-13.75C187.23,34.29,187.73,33.3,188.08,32.3z"/>
	<radialGradient id="SVGID_4_" cx="94.0752" cy="38.1001" r="82.125" gradientUnits="userSpaceOnUse">
		<stop  offset="0" style="stop-color:#FFFFFF;stop-opacity:0.4235"/>
		<stop  offset="1" style="stop-color:#F5F5F5;stop-opacity:0"/>
	</radialGradient>
	<path fill-rule="evenodd" clip-rule="evenodd" fill="url(#SVGID_4_)" d="M157.28,41.75c-1.7,0.55-3.52,1.1-5.45,1.65
		c-15.9,4.53-35.15,6.8-57.75,6.8c-22.47,0-41.7-2.27-57.7-6.8c-2.07-0.59-4-1.2-5.8-1.8l-12.6-6.02c-0.6-0.42-1.15-0.84-1.65-1.28
		l-0.13-0.17c-0.03-0.02-0.05-0.05-0.08-0.08c3.8,2.63,12.15,5.78,25.05,9.45c12.87,3.63,30.5,5.45,52.9,5.45
		c22.43,0,41.57-2.25,57.4-6.75h0.05c10.13-2.9,17.2-5.83,21.2-8.8l-0.32,0.4l-0.28,0.35c-0.55,0.49-1.16,0.96-1.83,1.43l-0.67,0.47
		L157.28,41.75z"/>
	
		<path fill-rule="evenodd" clip-rule="evenodd" fill="none" stroke="#BB794A" stroke-width="0.1" stroke-linecap="round" stroke-linejoin="round" stroke-miterlimit="3" d="
		M16.13,34.05c-0.62-0.57-1.15-1.15-1.6-1.75c-1.13-1.57-1.72-3.22-1.75-4.95v-0.3c0.17-6.33,8.08-11.7,23.75-16.1
		C52.46,6.45,71.64,4.2,94.08,4.2c22.53,0,41.73,2.25,57.6,6.75c14.83,4.2,22.73,9.2,23.7,15v2.6c-0.2,1.27-0.75,2.52-1.65,3.75
		c-0.38,0.51-0.82,1.01-1.32,1.5 M169.63,36.05l-12.35,5.7c-1.74,0.6-3.6,1.19-5.6,1.75c-15.87,4.57-35.07,6.85-57.6,6.85
		c-22.43,0-41.62-2.28-57.55-6.85c-2.13-0.6-4.12-1.24-5.95-1.9l-12.6-6.02 M16.2,34.13c-0.03-0.02-0.05-0.05-0.08-0.08"/>
	<path fill-rule="evenodd" clip-rule="evenodd" fill="none" d="M188.08,32.3c-0.34,1-0.84,1.99-1.5,2.95
		c-3.67,5.17-12.17,9.75-25.5,13.75c-18.33,5.5-40.45,8.25-66.35,8.25S46.71,54.5,28.38,49c-13.3-4-21.77-8.58-25.4-13.75
		c-0.2-0.29-0.39-0.59-0.55-0.9c-0.03-0.05-0.05-0.1-0.07-0.15c-0.11-0.19-0.21-0.38-0.3-0.58L1.75,33
		c-0.09-0.23-0.18-0.46-0.25-0.7"/>
	<g>
		
			<radialGradient id="SVGID_5_" cx="-149.0986" cy="-210.9775" r="14.4882" gradientTransform="matrix(0.9003 -0.1063 0.0164 0.1392 265.8572 69.1752)" gradientUnits="userSpaceOnUse">
			<stop  offset="0" style="stop-color:#FEFEFE"/>
			<stop  offset="0.2078" style="stop-color:#FEFEFE"/>
			<stop  offset="0.4902" style="stop-color:#FFFFFF;stop-opacity:0.302"/>
			<stop  offset="0.6784" style="stop-color:#FFFFFF;stop-opacity:0.0824"/>
			<stop  offset="0.8392" style="stop-color:#FCFCFC;stop-opacity:0"/>
			<stop  offset="1" style="stop-color:#FBFBFB;stop-opacity:0"/>
		</radialGradient>
		<path fill-rule="evenodd" clip-rule="evenodd" fill="url(#SVGID_5_)" d="M137.18,53.13c2.66,0.09,4.02,0.41,4.09,0.97
			c0.07,0.56-1.18,1.19-3.75,1.9c-2.5,0.7-5.56,1.26-9.16,1.69c-3.63,0.43-6.75,0.59-9.34,0.5c-2.6-0.09-3.93-0.42-4-0.98
			s1.15-1.19,3.66-1.89c2.5-0.7,5.57-1.26,9.2-1.69C131.49,53.2,134.59,53.03,137.18,53.13z"/>
	</g>
	<g>
		
			<radialGradient id="SVGID_6_" cx="-149.0996" cy="-211" r="14.4999" gradientTransform="matrix(0.6895 0.0155 -2.390627e-003 0.1066 181.994 81.9034)" gradientUnits="userSpaceOnUse">
			<stop  offset="0" style="stop-color:#FEFEFE"/>
			<stop  offset="0.2078" style="stop-color:#FEFEFE"/>
			<stop  offset="0.4902" style="stop-color:#FFFFFF;stop-opacity:0.302"/>
			<stop  offset="0.6784" style="stop-color:#FFFFFF;stop-opacity:0.0824"/>
			<stop  offset="0.8392" style="stop-color:#FCFCFC;stop-opacity:0"/>
			<stop  offset="1" style="stop-color:#FBFBFB;stop-opacity:0"/>
		</radialGradient>
		<path fill-rule="evenodd" clip-rule="evenodd" fill="url(#SVGID_6_)" d="M86.77,56.16c1.99,0.35,2.98,0.74,2.97,1.17
			c-0.01,0.43-1.02,0.77-3.02,1.03c-1.96,0.26-4.32,0.36-7.08,0.3c-2.78-0.06-5.15-0.27-7.09-0.62c-1.95-0.35-2.92-0.73-2.91-1.16
			c0.01-0.43,0.99-0.77,2.96-1.03c1.96-0.26,4.33-0.36,7.11-0.29C82.47,55.61,84.82,55.81,86.77,56.16z"/>
	</g>
	<g>
		
			<radialGradient id="SVGID_7_" cx="-149.1006" cy="-210.9795" r="14.4902" gradientTransform="matrix(0.2997 -0.2123 0.0586 0.0828 239.5305 25.1054)" gradientUnits="userSpaceOnUse">
			<stop  offset="0" style="stop-color:#FEFEFE"/>
			<stop  offset="0.2078" style="stop-color:#FEFEFE"/>
			<stop  offset="0.4902" style="stop-color:#FFFFFF;stop-opacity:0.302"/>
			<stop  offset="0.6784" style="stop-color:#FFFFFF;stop-opacity:0.0824"/>
			<stop  offset="0.8392" style="stop-color:#FCFCFC;stop-opacity:0"/>
			<stop  offset="1" style="stop-color:#FBFBFB;stop-opacity:0"/>
		</radialGradient>
		<path fill-rule="evenodd" clip-rule="evenodd" fill="url(#SVGID_7_)" d="M184.94,36.27c1.04-0.38,1.67-0.4,1.91-0.07
			c0.24,0.33,0,0.93-0.7,1.78c-0.68,0.84-1.62,1.68-2.82,2.53c-1.21,0.86-2.32,1.47-3.34,1.83c-1.02,0.37-1.64,0.38-1.88,0.05
			c-0.24-0.33-0.01-0.92,0.67-1.75s1.63-1.68,2.84-2.54C182.82,37.25,183.93,36.64,184.94,36.27z"/>
	</g>
	<g>
		<path fill-rule="evenodd" clip-rule="evenodd" fill="#61616A" d="M188.97,30.7v-3.1c0.07,0.5,0.1,1,0.1,1.5
			C189.08,29.67,189.04,30.2,188.97,30.7z"/>
		<linearGradient id="SVGID_8_" gradientUnits="userSpaceOnUse" x1="164.4023" y1="47.8652" x2="155.7765" y2="-13.3132">
			<stop  offset="0" style="stop-color:#333335"/>
			<stop  offset="1" style="stop-color:#1E1D1B"/>
		</linearGradient>
		<path fill-rule="evenodd" clip-rule="evenodd" fill="url(#SVGID_8_)" d="M162.75,48.63c-0.41,0.13-0.81,0.25-1.22,0.38
			c-0.3,0.09-0.6,0.17-0.9,0.25c0.28-0.08,0.56-0.16,0.85-0.25C161.9,48.87,162.33,48.75,162.75,48.63z M163,9.75
			c-0.5-0.15-1.01-0.3-1.53-0.45c-0.28-0.08-0.55-0.17-0.82-0.25c0.29,0.08,0.58,0.16,0.88,0.25C162.02,9.45,162.51,9.6,163,9.75z"
			/>
		<linearGradient id="SVGID_9_" gradientUnits="userSpaceOnUse" x1="1.0249" y1="51.7998" x2="188.9746" y2="51.7998">
			<stop  offset="0.0196" style="stop-color:#8A462E"/>
			<stop  offset="0.1804" style="stop-color:#F9B182"/>
			<stop  offset="0.4275" style="stop-color:#81452D"/>
			<stop  offset="0.5255" style="stop-color:#FEB381"/>
			<stop  offset="0.6784" style="stop-color:#A95A3B"/>
			<stop  offset="0.8" style="stop-color:#B76643"/>
			<stop  offset="0.9294" style="stop-color:#D26F4F"/>
			<stop  offset="1" style="stop-color:#C4C4C4"/>
		</linearGradient>
		<path fill-rule="evenodd" clip-rule="evenodd" fill="url(#SVGID_9_)" d="M188.97,30.7v16.15c-0.4,2.33-1.6,4.55-3.6,6.65
			c-4.3,4.33-12.25,8.22-23.85,11.65c-18.37,5.53-40.53,8.3-66.5,8.3c-25.97,0-48.13-2.77-66.5-8.3c-11.77-3.53-19.78-7.53-24.05-12
			c-2.23-2.33-3.38-4.83-3.45-7.5v-15.5c0.18,1.76,0.83,3.46,1.95,5.1C6.61,40.42,15.09,45,28.42,49c0.6,0.18,1.21,0.36,1.83,0.53
			c18.03,5.15,39.6,7.72,64.73,7.72h0.05c25.56,0,47.42-2.67,65.6-8c0.3-0.08,0.6-0.16,0.9-0.25c0.41-0.12,0.82-0.25,1.22-0.38
			c12.46-3.85,20.51-8.22,24.15-13.13c0.04-0.04,0.07-0.08,0.1-0.13c0.02-0.04,0.05-0.08,0.08-0.13
			C188.08,33.78,188.71,32.27,188.97,30.7z"/>
		<linearGradient id="SVGID_10_" gradientUnits="userSpaceOnUse" x1="-116.4775" y1="-66.3545" x2="201.5212" y2="77.2559">
			<stop  offset="0" style="stop-color:#FE8D6D;stop-opacity:0.9804"/>
			<stop  offset="0.5059" style="stop-color:#C96C4A;stop-opacity:0.9882"/>
			<stop  offset="0.5647" style="stop-color:#B08A4D;stop-opacity:0.9882"/>
			<stop  offset="0.6353" style="stop-color:#FF8F67;stop-opacity:0.9882"/>
			<stop  offset="1" style="stop-color:#A1553B"/>
		</linearGradient>
		<path fill-rule="evenodd" clip-rule="evenodd" fill="url(#SVGID_10_)" d="M163,9.75c15.03,4.65,23.56,10.12,25.6,16.4
			c0.04,0.1,0.07,0.2,0.1,0.3c0.12,0.38,0.21,0.76,0.27,1.15v3.1c-0.27,1.57-0.9,3.08-1.9,4.55c-0.03,0.04-0.05,0.08-0.08,0.13
			c-0.03,0.04-0.06,0.08-0.1,0.13c-3.64,4.9-11.69,9.28-24.15,13.13c-0.42,0.12-0.85,0.25-1.28,0.38c-0.29,0.09-0.57,0.17-0.85,0.25
			c-18.18,5.33-40.04,8-65.6,8h-0.05c-25.12,0-46.7-2.58-64.73-7.72c-0.61-0.17-1.22-0.34-1.83-0.53C15.09,45,6.61,40.42,2.98,35.25
			c-1.12-1.64-1.77-3.34-1.95-5.1C1,29.87,0.98,29.59,0.98,29.3v-0.45c0.2-7.63,9.35-14.15,27.45-19.55
			c0.6-0.18,1.21-0.36,1.83-0.52c18.03-5.15,39.6-7.72,64.73-7.73h0.05c0.41,0,0.82,0,1.23,0c0.4,0,0.8,0,1.2,0
			c24.53,0.17,45.6,2.84,63.2,8c0.27,0.08,0.55,0.17,0.82,0.25C161.99,9.45,162.5,9.6,163,9.75z"/>
	</g>
	<g>
		
			<linearGradient id="SVGID_11_" gradientUnits="userSpaceOnUse" x1="-150.7144" y1="-233.2593" x2="-148.7172" y2="-206.4341" gradientTransform="matrix(1.2625 0 0 1.2625 283.5474 303.5903)">
			<stop  offset="0" style="stop-color:#FEAA7C"/>
			<stop  offset="1" style="stop-color:#CB7E57"/>
		</linearGradient>
		<path fill-rule="evenodd" clip-rule="evenodd" fill="url(#SVGID_11_)" d="M175.89,25.96v2.59c-0.21,1.26-0.76,2.5-1.64,3.72
			c-3.16,4.21-10.52,7.95-22.09,11.24c-15.87,4.54-35.06,6.82-57.57,6.82c-22.43,0-41.62-2.27-57.57-6.82
			c-11.53-3.28-18.85-7.03-21.97-11.24c-1.14-1.56-1.73-3.2-1.77-4.92v-0.32c0.17-6.31,8.08-11.68,23.74-16.1
			c15.95-4.5,35.14-6.75,57.57-6.75c22.51,0,41.7,2.25,57.57,6.75C167.01,15.15,174.92,20.16,175.89,25.96z"/>
		
			<path fill-rule="evenodd" clip-rule="evenodd" fill="none" stroke="#BB794A" stroke-width="0.1" stroke-linecap="round" stroke-linejoin="round" stroke-miterlimit="3" d="
			M175.89,25.96v2.59c-0.21,1.26-0.76,2.5-1.64,3.72c-3.16,4.21-10.52,7.95-22.09,11.24c-15.87,4.54-35.06,6.82-57.57,6.82
			c-22.43,0-41.62-2.27-57.57-6.82c-11.53-3.28-18.85-7.03-21.97-11.24c-1.14-1.56-1.73-3.2-1.77-4.92v-0.32
			c0.17-6.31,8.08-11.68,23.74-16.1c15.95-4.5,35.14-6.75,57.57-6.75c22.51,0,41.7,2.25,57.57,6.75
			C167.01,15.15,174.92,20.16,175.89,25.96z"/>
	</g>
	<g>
		
			<radialGradient id="SVGID_12_" cx="-149.6748" cy="-210.2998" r="65.05" gradientTransform="matrix(1.2625 0 0 1.2625 283.5474 303.5903)" gradientUnits="userSpaceOnUse">
			<stop  offset="0" style="stop-color:#FFFFFF;stop-opacity:0.4235"/>
			<stop  offset="1" style="stop-color:#F5F5F5;stop-opacity:0"/>
		</radialGradient>
		<path fill-rule="evenodd" clip-rule="evenodd" fill="url(#SVGID_12_)" d="M173.24,33.41l-0.63,0.76
			c-3.89,3.39-10.65,6.45-20.29,9.18h0.03c-15.92,4.56-35.17,6.85-57.76,6.85c-22.49,0-41.74-2.29-57.73-6.85
			c-9.49-2.7-16.17-5.72-20.04-9.06l-0.19-0.25c3.78,2.65,12.13,5.79,25.03,9.44c12.91,3.64,30.55,5.46,52.93,5.46
			c22.44,0,41.57-2.26,57.38-6.79h0.03C162.16,39.27,169.24,36.35,173.24,33.41z"/>
	</g>
	<g>
		<path fill-rule="evenodd" clip-rule="evenodd" fill="none" d="M188.58,32.3c-0.33,1-0.83,1.98-1.5,2.95
			C183.41,40.42,174.89,45,161.53,49c-18.37,5.5-40.53,8.25-66.5,8.25c-25.97,0-48.13-2.75-66.5-8.25
			c-13.33-4-21.83-8.58-25.5-13.75c-0.67-0.97-1.15-1.95-1.45-2.95"/>
	</g>
	<g>
		
			<radialGradient id="SVGID_13_" cx="-122.7251" cy="-196.3994" r="10.4222" gradientTransform="matrix(1.2538 -0.1477 0.0228 0.1938 286.9667 75.5742)" gradientUnits="userSpaceOnUse">
			<stop  offset="0" style="stop-color:#FEFEFE"/>
			<stop  offset="0.2078" style="stop-color:#FEFEFE"/>
			<stop  offset="0.4902" style="stop-color:#FFFFFF;stop-opacity:0.298"/>
			<stop  offset="0.6784" style="stop-color:#FFFFFF;stop-opacity:0.0824"/>
			<stop  offset="0.8392" style="stop-color:#FCFCFC;stop-opacity:0"/>
			<stop  offset="1" style="stop-color:#FBFBFB;stop-opacity:0"/>
		</radialGradient>
		<path fill-rule="evenodd" clip-rule="evenodd" fill="url(#SVGID_13_)" d="M119.52,58.16c-2.61-0.08-3.96-0.4-4.04-0.95
			c-0.08-0.55,1.14-1.2,3.66-1.96c2.52-0.67,5.6-1.22,9.22-1.64c3.62-0.42,6.71-0.59,9.28-0.5c2.65,0.08,4.02,0.4,4.1,0.95
			s-1.16,1.2-3.72,1.96c-2.48,0.67-5.53,1.22-9.15,1.64C125.24,58.07,122.12,58.24,119.52,58.16z"/>
	</g>
	<g>
		
			<radialGradient id="SVGID_14_" cx="-161.0752" cy="-195.2495" r="7.9269" gradientTransform="matrix(1.2622 0.0268 -4.144931e-003 0.1951 282.6922 99.4982)" gradientUnits="userSpaceOnUse">
			<stop  offset="0" style="stop-color:#FEFEFE"/>
			<stop  offset="0.2078" style="stop-color:#FEFEFE"/>
			<stop  offset="0.4902" style="stop-color:#FFFFFF;stop-opacity:0.298"/>
			<stop  offset="0.6784" style="stop-color:#FFFFFF;stop-opacity:0.0824"/>
			<stop  offset="0.8392" style="stop-color:#FCFCFC;stop-opacity:0"/>
			<stop  offset="1" style="stop-color:#FBFBFB;stop-opacity:0"/>
		</radialGradient>
		<path fill-rule="evenodd" clip-rule="evenodd" fill="url(#SVGID_14_)" d="M73.05,57.97c-1.94-0.34-2.9-0.72-2.9-1.14
			s0.97-0.76,2.9-1.01c2.02-0.25,4.42-0.36,7.2-0.32c2.78,0.04,5.11,0.27,7.01,0.69c1.98,0.34,2.97,0.71,2.97,1.14
			c0,0.42-0.99,0.76-2.97,1.01c-1.98,0.25-4.36,0.36-7.13,0.32C77.35,58.62,74.99,58.39,73.05,57.97z"/>
	</g>
	<g>
		
			<radialGradient id="SVGID_15_" cx="-79.6748" cy="-209.3501" r="4.2242" gradientTransform="matrix(1.0301 -0.7299 0.2014 0.2842 307.1891 40.6274)" gradientUnits="userSpaceOnUse">
			<stop  offset="0" style="stop-color:#FEFEFE"/>
			<stop  offset="0.2078" style="stop-color:#FEFEFE"/>
			<stop  offset="0.4902" style="stop-color:#FFFFFF;stop-opacity:0.298"/>
			<stop  offset="0.6784" style="stop-color:#FFFFFF;stop-opacity:0.0824"/>
			<stop  offset="0.8392" style="stop-color:#FCFCFC;stop-opacity:0"/>
			<stop  offset="1" style="stop-color:#FBFBFB;stop-opacity:0"/>
		</radialGradient>
		<path fill-rule="evenodd" clip-rule="evenodd" fill="url(#SVGID_15_)" d="M187.31,36.19c0.25,0.34,0.04,0.95-0.63,1.83
			c-0.71,0.8-1.66,1.62-2.84,2.46c-1.22,0.84-2.34,1.47-3.35,1.89c-1.01,0.34-1.64,0.34-1.89,0c-0.25-0.34-0.04-0.93,0.63-1.77
			c0.67-0.84,1.62-1.68,2.84-2.53c1.18-0.84,2.29-1.45,3.35-1.83C186.43,35.88,187.06,35.85,187.31,36.19z"/>
	</g>
</g>
</svg>
