<?xml version="1.0" encoding="utf-8"?>
<!-- Generator: Adobe Illustrator 16.0.0, SVG Export Plug-In . SVG Version: 6.00 Build 0)  -->
<!DOCTYPE svg PUBLIC "-//W3C//DTD SVG 1.1//EN" "http://www.w3.org/Graphics/SVG/1.1/DTD/svg11.dtd">
<svg version="1.1" id="Layer_1" xmlns="http://www.w3.org/2000/svg" xmlns:xlink="http://www.w3.org/1999/xlink" x="0px" y="0px"
	 width="181.15px" height="52.67px" viewBox="0 0 181.15 52.67" enable-background="new 0 0 181.15 52.67" xml:space="preserve">
<g>
	
		<radialGradient id="SVGID_1_" cx="91.3496" cy="27.25" r="85.5375" gradientTransform="matrix(1 0 0 0.2613 0 20.1299)" gradientUnits="userSpaceOnUse">
		<stop  offset="0" style="stop-color:#000000;stop-opacity:0.3451"/>
		<stop  offset="0.9412" style="stop-color:#000000;stop-opacity:0.3451"/>
		<stop  offset="1" style="stop-color:#000000;stop-opacity:0"/>
	</radialGradient>
	<path fill-rule="evenodd" clip-rule="evenodd" fill="url(#SVGID_1_)" d="M181.15,28.8c-0.23,1.3-0.85,2.55-1.85,3.75
		c-3.53,4.27-11.75,8.03-24.65,11.3c-17.67,4.57-39.03,6.85-64.1,6.85c-25,0-46.37-2.28-64.1-6.85c-12.83-3.27-21-7.03-24.5-11.3
		c-1.27-1.57-1.92-3.2-1.95-4.9V27.3C0.2,21,9.02,15.62,26.45,11.15c17.73-4.53,39.1-6.8,64.1-6.8c25.07,0,46.43,2.27,64.1,6.8
		c16.6,4.2,25.43,9.23,26.5,15.1V28.8z"/>
</g>
</svg>
