<?xml version="1.0" encoding="utf-8"?>
<!-- Generator: Adobe Illustrator 16.0.0, SVG Export Plug-In . SVG Version: 6.00 Build 0)  -->
<!DOCTYPE svg PUBLIC "-//W3C//DTD SVG 1.1//EN" "http://www.w3.org/Graphics/SVG/1.1/DTD/svg11.dtd">
<svg version="1.1" id="Layer_3" xmlns="http://www.w3.org/2000/svg" xmlns:xlink="http://www.w3.org/1999/xlink" x="0px" y="0px"
	 width="189.88px" height="74px" viewBox="0 0 189.88 74" enable-background="new 0 0 189.88 74" xml:space="preserve">
<g>
	<g>
		
			<linearGradient id="SVGID_1_" gradientUnits="userSpaceOnUse" x1="-218.9077" y1="-210.3804" x2="-225.7536" y2="-258.9735" gradientTransform="matrix(1.2625 0 0 1.2625 375.2466 322.6401)">
			<stop  offset="0" style="stop-color:#333335"/>
			<stop  offset="1" style="stop-color:#1E1D1B"/>
		</linearGradient>
		<path fill-rule="evenodd" clip-rule="evenodd" fill="url(#SVGID_1_)" d="M0.98,29.16v-0.44c0.21-7.68,9.36-14.23,27.44-19.63
			c18.38-5.53,40.53-8.3,66.45-8.3c25.96,0,48.11,2.77,66.45,8.3c17.16,5.11,26.3,11.23,27.44,18.37v3.1
			c-0.25,1.56-0.89,3.08-1.9,4.56c-3.67,5.19-12.18,9.8-25.54,13.81c-18.33,5.53-40.48,8.3-66.45,8.3c-25.92,0-48.07-2.77-66.45-8.3
			C15.09,44.91,6.62,40.31,3,35.12C1.69,33.22,1.02,31.23,0.98,29.16z"/>
		
			<linearGradient id="SVGID_2_" gradientUnits="userSpaceOnUse" x1="-296.4497" y1="-214.9229" x2="-147.7192" y2="-214.9229" gradientTransform="matrix(1.2625 0 0 1.2625 375.2466 322.6401)">
			<stop  offset="0.0196" style="stop-color:#646464"/>
			<stop  offset="0.1804" style="stop-color:#313133"/>
			<stop  offset="0.4275" style="stop-color:#39393B"/>
			<stop  offset="0.5255" style="stop-color:#F1F2F4"/>
			<stop  offset="0.6784" style="stop-color:#383745"/>
			<stop  offset="0.8" style="stop-color:#302E39"/>
			<stop  offset="0.9294" style="stop-color:#464644"/>
			<stop  offset="1" style="stop-color:#ADB1B0"/>
		</linearGradient>
		<path fill-rule="evenodd" clip-rule="evenodd" fill="url(#SVGID_2_)" d="M188.75,30.56v16.21c-0.38,2.32-1.58,4.54-3.6,6.65
			c-4.3,4.35-12.24,8.26-23.83,11.72c-18.33,5.53-40.48,8.3-66.45,8.3c-25.92,0-48.07-2.77-66.45-8.3
			C16.65,61.59,8.67,57.58,4.45,53.1c-2.23-2.37-3.39-4.88-3.48-7.54v-16.4c0.04,2.07,0.72,4.05,2.02,5.95
			c3.63,5.19,12.1,9.8,25.42,13.81c18.38,5.53,40.53,8.3,66.45,8.3c25.96,0,48.11-2.77,66.45-8.3c13.36-4.01,21.88-8.62,25.54-13.81
			C187.86,33.64,188.5,32.12,188.75,30.56z"/>
		<path fill-rule="evenodd" clip-rule="evenodd" fill="#61616A" d="M188.75,27.45c0.08,0.51,0.13,1.01,0.13,1.52
			c0,0.55-0.04,1.08-0.13,1.58V27.45z"/>
	</g>
	<g>
		
			<linearGradient id="SVGID_3_" gradientUnits="userSpaceOnUse" x1="-389.4624" y1="-308.1782" x2="-137.7438" y2="-194.5132" gradientTransform="matrix(1.2625 0 0 1.2625 375.2466 322.6401)">
			<stop  offset="0" style="stop-color:#5A564B"/>
			<stop  offset="0" style="stop-color:#5A564A"/>
			<stop  offset="0.1804" style="stop-color:#5A553F"/>
			<stop  offset="0.4275" style="stop-color:#695F38"/>
			<stop  offset="0.6314" style="stop-color:#5B6141"/>
			<stop  offset="0.8667" style="stop-color:#7F6F62"/>
			<stop  offset="1" style="stop-color:#4B4634"/>
		</linearGradient>
		<path fill-rule="evenodd" clip-rule="evenodd" fill="url(#SVGID_3_)" d="M188.75,27.45v3.1c-0.25,1.56-0.89,3.08-1.9,4.56
			c-3.67,5.19-12.18,9.8-25.54,13.81c-18.33,5.53-40.48,8.3-66.45,8.3c-25.92,0-48.07-2.77-66.45-8.3
			C15.09,44.91,6.62,40.31,3,35.12c-1.31-1.9-1.98-3.88-2.02-5.95v-0.44c0.21-7.68,9.36-14.23,27.44-19.63
			c18.38-5.53,40.53-8.3,66.45-8.3c25.96,0,48.11,2.77,66.45,8.3C178.46,14.2,187.61,20.32,188.75,27.45z"/>
	</g>
	<g>
		
			<linearGradient id="SVGID_4_" gradientUnits="userSpaceOnUse" x1="-307.5063" y1="-271.1729" x2="-155.7926" y2="-202.6616" gradientTransform="matrix(1.2625 0 0 1.2625 375.2466 322.6401)">
			<stop  offset="0" style="stop-color:#58575F;stop-opacity:0.9804"/>
			<stop  offset="0.2118" style="stop-color:#B4B1C4;stop-opacity:0.9882"/>
			<stop  offset="0.5059" style="stop-color:#DFDDE5;stop-opacity:0.9882"/>
			<stop  offset="0.6588" style="stop-color:#686367;stop-opacity:0.9882"/>
			<stop  offset="1" style="stop-color:#6A6A6A"/>
		</linearGradient>
		<path fill-rule="evenodd" clip-rule="evenodd" fill="url(#SVGID_4_)" d="M186.85,35.12c-3.67,5.19-12.18,9.8-25.54,13.81
			c-18.33,5.53-40.48,8.3-66.45,8.3c-25.92,0-48.07-2.77-66.45-8.3C15.09,44.91,6.62,40.31,3,35.12c-1.31-1.9-1.98-3.88-2.02-5.95
			v-0.44c0.21-7.68,9.36-14.23,27.44-19.63c18.38-5.53,40.53-8.3,66.45-8.3c25.96,0,48.11,2.77,66.45,8.3
			c17.16,5.11,26.3,11.23,27.44,18.37v3.1C188.5,32.12,187.86,33.64,186.85,35.12z"/>
	</g>
	<g>
		
			<linearGradient id="SVGID_5_" gradientUnits="userSpaceOnUse" x1="-223.6289" y1="-248.5146" x2="-221.6255" y2="-221.6055" gradientTransform="matrix(1.2625 0 0 1.2625 375.2466 322.6401)">
			<stop  offset="0.0235" style="stop-color:#515659"/>
			<stop  offset="1" style="stop-color:#686868"/>
		</linearGradient>
		<path fill-rule="evenodd" clip-rule="evenodd" fill="url(#SVGID_5_)" d="M175.66,28.4c-0.21,1.27-0.76,2.51-1.64,3.74
			c-3.16,4.22-10.54,7.98-22.13,11.27c-15.89,4.56-35.11,6.84-57.66,6.84c-22.47,0-41.69-2.28-57.66-6.84
			c-11.55-3.29-18.88-7.05-22-11.27c-1.14-1.56-1.73-3.21-1.77-4.94v-0.32c0.17-6.33,8.09-11.72,23.77-16.15
			c15.97-4.52,35.19-6.78,57.66-6.78c22.55,0,41.77,2.26,57.66,6.78c14.88,4.22,22.8,9.25,23.77,15.07V28.4z"/>
		
			<path fill-rule="evenodd" clip-rule="evenodd" fill="none" stroke="#525254" stroke-width="0.1" stroke-linecap="round" stroke-linejoin="round" stroke-miterlimit="3" d="
			M175.66,28.4c-0.21,1.27-0.76,2.51-1.64,3.74c-3.16,4.22-10.54,7.98-22.13,11.27c-15.89,4.56-35.11,6.84-57.66,6.84
			c-22.47,0-41.69-2.28-57.66-6.84c-11.55-3.29-18.88-7.05-22-11.27c-1.14-1.56-1.73-3.21-1.77-4.94v-0.32
			c0.17-6.33,8.09-11.72,23.77-16.15c15.97-4.52,35.19-6.78,57.66-6.78c22.55,0,41.77,2.26,57.66,6.78
			c14.88,4.22,22.8,9.25,23.77,15.07V28.4z"/>
	</g>
	<g>
		
			<radialGradient id="SVGID_6_" cx="-222.4697" cy="-224.9414" r="65.0506" gradientTransform="matrix(1.2645 0 0 1.2666 375.5364 322.8811)" gradientUnits="userSpaceOnUse">
			<stop  offset="0" style="stop-color:#FFFFFF;stop-opacity:0.4235"/>
			<stop  offset="1" style="stop-color:#F5F5F5;stop-opacity:0"/>
		</radialGradient>
		<path fill-rule="evenodd" clip-rule="evenodd" fill="url(#SVGID_6_)" d="M173.01,33.28l-0.63,0.76
			c-3.89,3.4-10.67,6.47-20.33,9.22h0.03c-15.94,4.58-35.23,6.87-57.85,6.87c-22.53,0-41.8-2.29-57.82-6.87
			c-9.5-2.71-16.19-5.74-20.07-9.09l-0.19-0.25c3.79,2.66,12.15,5.81,25.07,9.47c12.93,3.65,30.6,5.48,53.01,5.48
			c22.48,0,41.63-2.27,57.47-6.81h0.03C161.92,39.15,169.01,36.23,173.01,33.28z"/>
	</g>
	<g>
		<path fill-rule="evenodd" clip-rule="evenodd" fill="none" d="M188.37,32.14c-0.34,1.01-0.85,2-1.52,2.98
			c-3.67,5.19-12.18,9.8-25.54,13.81c-18.33,5.53-40.48,8.3-66.45,8.3c-25.92,0-48.07-2.77-66.45-8.3
			C15.09,44.91,6.62,40.31,3,35.12c-0.67-0.97-1.16-1.96-1.49-2.98"/>
	</g>
	<g>
		<g>
			
				<radialGradient id="SVGID_7_" cx="-195.5195" cy="-211.041" r="10.4221" gradientTransform="matrix(1.2558 -0.1481 0.0229 0.1944 378.6639 67.6403)" gradientUnits="userSpaceOnUse">
				<stop  offset="0" style="stop-color:#FEFEFE"/>
				<stop  offset="0.2078" style="stop-color:#FEFEFE"/>
				<stop  offset="0.4902" style="stop-color:#FFFFFF;stop-opacity:0.298"/>
				<stop  offset="0.6784" style="stop-color:#FFFFFF;stop-opacity:0.0824"/>
				<stop  offset="0.8392" style="stop-color:#FCFCFC;stop-opacity:0"/>
				<stop  offset="1" style="stop-color:#FBFBFB;stop-opacity:0"/>
			</radialGradient>
			<path fill-rule="evenodd" clip-rule="evenodd" fill="url(#SVGID_7_)" d="M119.2,58.1c-2.61-0.08-3.96-0.4-4.05-0.95
				s1.14-1.2,3.67-1.96c2.53-0.67,5.61-1.22,9.23-1.64c3.62-0.42,6.72-0.59,9.29-0.51c2.66,0.08,4.03,0.4,4.11,0.95
				c0.08,0.55-1.16,1.2-3.73,1.96c-2.49,0.68-5.54,1.22-9.17,1.65C124.94,58.02,121.82,58.19,119.2,58.1z"/>
		</g>
		<g>
			
				<radialGradient id="SVGID_8_" cx="-233.8691" cy="-209.8911" r="7.9259" gradientTransform="matrix(1.2642 0.0269 -4.151360e-003 0.1957 374.5983 104.4039)" gradientUnits="userSpaceOnUse">
				<stop  offset="0" style="stop-color:#FEFEFE"/>
				<stop  offset="0.2078" style="stop-color:#FEFEFE"/>
				<stop  offset="0.4902" style="stop-color:#FFFFFF;stop-opacity:0.298"/>
				<stop  offset="0.6784" style="stop-color:#FFFFFF;stop-opacity:0.0824"/>
				<stop  offset="0.8392" style="stop-color:#FCFCFC;stop-opacity:0"/>
				<stop  offset="1" style="stop-color:#FBFBFB;stop-opacity:0"/>
			</radialGradient>
			<path fill-rule="evenodd" clip-rule="evenodd" fill="url(#SVGID_8_)" d="M72.67,57.91c-1.94-0.34-2.91-0.72-2.91-1.14
				c0-0.42,0.97-0.76,2.91-1.01c2.02-0.25,4.43-0.36,7.21-0.32c2.78,0.04,5.12,0.27,7.02,0.7c1.98,0.34,2.97,0.72,2.97,1.14
				c0,0.42-0.99,0.76-2.97,1.01c-1.98,0.25-4.36,0.36-7.14,0.32C76.97,58.57,74.61,58.34,72.67,57.91z"/>
		</g>
		<g>
			
				<radialGradient id="SVGID_9_" cx="-152.4697" cy="-223.9922" r="4.2242" gradientTransform="matrix(1.0317 -0.7323 0.2017 0.2851 385.2266 -8.6132)" gradientUnits="userSpaceOnUse">
				<stop  offset="0" style="stop-color:#FEFEFE"/>
				<stop  offset="0.2078" style="stop-color:#FEFEFE"/>
				<stop  offset="0.4902" style="stop-color:#FFFFFF;stop-opacity:0.298"/>
				<stop  offset="0.6784" style="stop-color:#FFFFFF;stop-opacity:0.0824"/>
				<stop  offset="0.8392" style="stop-color:#FCFCFC;stop-opacity:0"/>
				<stop  offset="1" style="stop-color:#FBFBFB;stop-opacity:0"/>
			</radialGradient>
			<path fill-rule="evenodd" clip-rule="evenodd" fill="url(#SVGID_9_)" d="M187.1,36.07c0.25,0.34,0.04,0.95-0.63,1.84
				c-0.72,0.8-1.66,1.63-2.84,2.47c-1.22,0.85-2.34,1.48-3.35,1.9c-1.01,0.34-1.64,0.34-1.9,0c-0.25-0.34-0.04-0.93,0.63-1.77
				c0.67-0.84,1.62-1.69,2.85-2.53c1.18-0.84,2.3-1.46,3.35-1.84C186.22,35.75,186.85,35.73,187.1,36.07z"/>
		</g>
	</g>
</g>
</svg>
