<?xml version="1.0" encoding="utf-8"?>
<!-- Generator: Adobe Illustrator 16.0.0, SVG Export Plug-In . SVG Version: 6.00 Build 0)  -->
<!DOCTYPE svg PUBLIC "-//W3C//DTD SVG 1.1//EN" "http://www.w3.org/Graphics/SVG/1.1/DTD/svg11.dtd">
<svg version="1.1" id="Layer_1" xmlns="http://www.w3.org/2000/svg" xmlns:xlink="http://www.w3.org/1999/xlink" x="0px" y="0px"
	 width="43.05px" height="14.9px" viewBox="0 0 43.05 14.9" enable-background="new 0 0 43.05 14.9" xml:space="preserve">
<g>
	<g>
		<linearGradient id="SVGID_1_" gradientUnits="userSpaceOnUse" x1="0" y1="7.4502" x2="43.0498" y2="7.4502">
			<stop  offset="0" style="stop-color:#836F52"/>
			<stop  offset="1" style="stop-color:#E6E1DD"/>
		</linearGradient>
		<path fill-rule="evenodd" clip-rule="evenodd" fill="url(#SVGID_1_)" d="M0.45,14.55h42.2V0.35H0.45V14.55z M0,14.9V0h43.05v14.9
			H0z"/>
		
			<radialGradient id="SVGID_2_" cx="26.5996" cy="7.6499" r="29.8" fx="13.7447" fy="7.6499" gradientTransform="matrix(1 0 0 0.729 0 2.0729)" gradientUnits="userSpaceOnUse">
			<stop  offset="0" style="stop-color:#FD424F"/>
			<stop  offset="0.4" style="stop-color:#E93735"/>
			<stop  offset="0.698" style="stop-color:#561B1A"/>
			<stop  offset="0.8157" style="stop-color:#271416"/>
			<stop  offset="1" style="stop-color:#2D1516"/>
		</radialGradient>
		<rect x="0.45" y="0.35" fill-rule="evenodd" clip-rule="evenodd" fill="url(#SVGID_2_)" width="42.2" height="14.2"/>
	</g>
	<g>
		
			<radialGradient id="SVGID_3_" cx="21.5996" cy="7.9502" r="6.575" gradientTransform="matrix(1 0 0 1.0114 0 -0.0907)" gradientUnits="userSpaceOnUse">
			<stop  offset="0" style="stop-color:#FFFFFF"/>
			<stop  offset="0.1922" style="stop-color:#FFFFFF"/>
			<stop  offset="0.2824" style="stop-color:#FFFFFF;stop-opacity:0.7412"/>
			<stop  offset="0.4157" style="stop-color:#FFFFFF;stop-opacity:0.6"/>
			<stop  offset="0.5882" style="stop-color:#FEFEFE;stop-opacity:0.3529"/>
			<stop  offset="0.8157" style="stop-color:#FCFCFC;stop-opacity:0.0941"/>
			<stop  offset="1" style="stop-color:#F9F9F9;stop-opacity:0"/>
		</radialGradient>
		<path fill-rule="evenodd" clip-rule="evenodd" fill="url(#SVGID_3_)" d="M21.5,1.4c1.833,0,3.384,0.633,4.65,1.9
			C27.384,4.567,28,6.117,28,7.95c0,1.833-0.616,3.383-1.85,4.649c-1.267,1.2-2.817,1.801-4.65,1.801c-1.7,0-3.184-0.601-4.45-1.801
			c-1.267-1.267-1.9-2.816-1.9-4.649c0-1.833,0.633-3.383,1.9-4.65C18.316,2.033,19.8,1.4,21.5,1.4z"/>
	</g>
</g>
</svg>
