<?xml version="1.0" encoding="utf-8"?>
<!-- Generator: Adobe Illustrator 16.0.0, SVG Export Plug-In . SVG Version: 6.00 Build 0)  -->
<!DOCTYPE svg PUBLIC "-//W3C//DTD SVG 1.1//EN" "http://www.w3.org/Graphics/SVG/1.1/DTD/svg11.dtd">
<svg version="1.1" id="Layer_2" xmlns="http://www.w3.org/2000/svg" xmlns:xlink="http://www.w3.org/1999/xlink" x="0px" y="0px"
	 width="189.88px" height="74px" viewBox="0 0 189.88 74" enable-background="new 0 0 189.88 74" xml:space="preserve">
<g>
	<g>
		<path fill-rule="evenodd" clip-rule="evenodd" fill="#61616A" d="M188.73,30.54v-3.11c0.07,0.5,0.1,1,0.1,1.51
			C188.83,29.5,188.8,30.04,188.73,30.54z"/>
		<linearGradient id="SVGID_1_" gradientUnits="userSpaceOnUse" x1="98.8638" y1="56.999" x2="90.2147" y2="-4.3583">
			<stop  offset="0" style="stop-color:#333335"/>
			<stop  offset="1" style="stop-color:#1E1D1B"/>
		</linearGradient>
		<path fill-rule="evenodd" clip-rule="evenodd" fill="url(#SVGID_1_)" d="M188.73,30.54c-0.27,1.57-0.9,3.09-1.9,4.57
			c-3.67,5.18-12.18,9.78-25.54,13.79c-18.36,5.52-40.51,8.28-66.44,8.28c-25.94,0-48.08-2.76-66.44-8.28
			C15.7,45.05,7.38,40.69,3.48,35.81c-0.17-0.27-0.33-0.5-0.5-0.7c-1.28-1.88-1.95-3.83-2-5.87v-0.55c0.03-2.27,0.87-4.45,2.5-6.52
			c3.9-4.92,12.22-9.28,24.93-13.09c18.36-5.52,40.51-8.28,66.44-8.28c25.94,0,48.08,2.76,66.44,8.28
			c17.12,5.12,26.27,11.24,27.44,18.36V30.54z"/>
		<linearGradient id="SVGID_2_" gradientUnits="userSpaceOnUse" x1="0.9751" y1="51.333" x2="188.7344" y2="51.333">
			<stop  offset="0" style="stop-color:#23241F"/>
			<stop  offset="0.1804" style="stop-color:#6C6B69"/>
			<stop  offset="0.2706" style="stop-color:#F4F3F1"/>
			<stop  offset="0.4431" style="stop-color:#F1EDEC"/>
			<stop  offset="0.5373" style="stop-color:#5A5955"/>
			<stop  offset="0.6627" style="stop-color:#726F68"/>
			<stop  offset="0.7059" style="stop-color:#FCFFFF"/>
			<stop  offset="0.7451" style="stop-color:#F6F5F3"/>
			<stop  offset="0.7922" style="stop-color:#BFBAB4"/>
			<stop  offset="0.8706" style="stop-color:#BFB8B2"/>
			<stop  offset="0.9255" style="stop-color:#605B55"/>
			<stop  offset="1" style="stop-color:#707169"/>
		</linearGradient>
		<path fill-rule="evenodd" clip-rule="evenodd" fill="url(#SVGID_2_)" d="M0.98,29.23c0.05,2.04,0.72,3.99,2,5.87
			c0.17,0.2,0.33,0.43,0.5,0.7c3.9,4.88,12.22,9.25,24.93,13.09c18.36,5.52,40.51,8.28,66.44,8.28c25.94,0,48.08-2.76,66.44-8.28
			c13.35-4.01,21.86-8.61,25.54-13.79c1-1.47,1.63-2.99,1.9-4.57v16.2c-0.4,2.34-1.6,4.57-3.61,6.67
			c-4.31,4.35-12.25,8.25-23.83,11.69c-18.36,5.55-40.51,8.33-66.44,8.33c-25.94,0-48.08-2.78-66.44-8.33
			C16.66,61.56,8.67,57.54,4.43,53.06c-0.33-0.37-0.65-0.72-0.95-1.05c-1.6-2.08-2.44-4.23-2.5-6.47V29.23z"/>
	</g>
	<g>
		<linearGradient id="SVGID_3_" gradientUnits="userSpaceOnUse" x1="-116.4209" y1="-66.4351" x2="201.3295" y2="77.0425">
			<stop  offset="0" style="stop-color:#5A564B"/>
			<stop  offset="0" style="stop-color:#5A564A"/>
			<stop  offset="0.1804" style="stop-color:#5A553F"/>
			<stop  offset="0.4275" style="stop-color:#695F38"/>
			<stop  offset="0.6314" style="stop-color:#5B6141"/>
			<stop  offset="0.8667" style="stop-color:#7F6F62"/>
			<stop  offset="1" style="stop-color:#4B4634"/>
		</linearGradient>
		<path fill-rule="evenodd" clip-rule="evenodd" fill="url(#SVGID_3_)" d="M188.73,30.54c-0.27,1.57-0.9,3.09-1.9,4.57
			c-3.67,5.18-12.18,9.78-25.54,13.79c-18.36,5.52-40.51,8.28-66.44,8.28c-25.94,0-48.08-2.76-66.44-8.28
			C15.7,45.05,7.38,40.69,3.48,35.81c-0.17-0.27-0.33-0.5-0.5-0.7c-1.3-1.91-1.97-3.9-2-5.97v-0.45c0.03-2.27,0.87-4.45,2.5-6.52
			c3.9-4.92,12.22-9.28,24.93-13.09c18.36-5.52,40.51-8.28,66.44-8.28c25.94,0,48.08,2.76,66.44,8.28
			c17.12,5.12,26.27,11.24,27.44,18.36V30.54z"/>
	</g>
	<g>
		<linearGradient id="SVGID_4_" gradientUnits="userSpaceOnUse" x1="-0.1914" y1="-13.9575" x2="178.6895" y2="66.8236">
			<stop  offset="0" style="stop-color:#605B57"/>
			<stop  offset="0.2549" style="stop-color:#BFB6B1"/>
			<stop  offset="0.3686" style="stop-color:#3F3A36"/>
			<stop  offset="0.5647" style="stop-color:#655C57"/>
			<stop  offset="0.6902" style="stop-color:#E7E4E4"/>
			<stop  offset="0.8235" style="stop-color:#968D88"/>
			<stop  offset="1" style="stop-color:#696D6E"/>
		</linearGradient>
		<path fill-rule="evenodd" clip-rule="evenodd" fill="url(#SVGID_4_)" d="M188.73,30.54c-0.27,1.57-0.9,3.09-1.9,4.57
			c-3.67,5.18-12.18,9.78-25.54,13.79c-18.36,5.52-40.51,8.28-66.44,8.28c-25.94,0-48.08-2.76-66.44-8.28
			C15.7,45.05,7.38,40.69,3.48,35.81c-0.17-0.27-0.33-0.5-0.5-0.7c-1.3-1.91-1.97-3.9-2-5.97v-0.45c0.03-2.27,0.87-4.45,2.5-6.52
			c3.9-4.92,12.22-9.28,24.93-13.09c18.36-5.52,40.51-8.28,66.44-8.28c25.94,0,48.08,2.76,66.44,8.28
			c17.12,5.12,26.27,11.24,27.44,18.36V30.54z"/>
	</g>
	<g>
		<linearGradient id="SVGID_5_" gradientUnits="userSpaceOnUse" x1="93.355" y1="15.1694" x2="97.0843" y2="65.2294">
			<stop  offset="0" style="stop-color:#605C5B"/>
			<stop  offset="0.2275" style="stop-color:#D0CAC8"/>
			<stop  offset="0.3922" style="stop-color:#BEB6B3"/>
			<stop  offset="0.6902" style="stop-color:#65605A"/>
			<stop  offset="0.9098" style="stop-color:#A1998E"/>
			<stop  offset="1" style="stop-color:#ACA69C"/>
		</linearGradient>
		<path fill-rule="evenodd" clip-rule="evenodd" fill="url(#SVGID_5_)" d="M175.62,25.77v2.61c-0.2,1.27-0.75,2.52-1.65,3.76
			c-3.14,4.21-10.5,7.96-22.08,11.24c-15.89,4.58-35.12,6.87-57.68,6.87c-22.46,0-41.67-2.29-57.63-6.87
			c-11.55-3.28-18.89-7.02-22.03-11.24c-1.14-1.57-1.72-3.23-1.75-4.97v-0.3c0.17-6.35,8.09-11.74,23.78-16.15
			C52.53,6.21,71.74,3.95,94.2,3.95c22.56,0,41.79,2.26,57.68,6.77C166.74,14.94,174.65,19.95,175.62,25.77z"/>
		
			<path fill-rule="evenodd" clip-rule="evenodd" fill="none" stroke="#595959" stroke-width="0.1" stroke-linecap="round" stroke-linejoin="round" stroke-miterlimit="3" d="
			M175.62,28.38c-0.2,1.27-0.75,2.52-1.65,3.76c-3.14,4.21-10.5,7.96-22.08,11.24c-15.89,4.58-35.12,6.87-57.68,6.87
			c-22.46,0-41.67-2.29-57.63-6.87c-11.55-3.28-18.89-7.02-22.03-11.24c-1.14-1.57-1.72-3.23-1.75-4.97 M12.79,26.88
			c0.17-6.35,8.09-11.74,23.78-16.15C52.53,6.21,71.74,3.95,94.2,3.95c22.56,0,41.79,2.26,57.68,6.77
			c14.85,4.21,22.77,9.23,23.73,15.05"/>
		
			<path fill-rule="evenodd" clip-rule="evenodd" fill="none" stroke="#434545" stroke-width="0.1" stroke-linecap="round" stroke-linejoin="round" stroke-miterlimit="3" d="
			M12.79,27.18v-0.3 M175.62,25.77v2.61"/>
	</g>
	<g>
		
			<radialGradient id="SVGID_6_" cx="93.543" cy="37.0488" r="82.125" gradientTransform="matrix(1.0014 0 0 1.0033 0.5318 0.7901)" gradientUnits="userSpaceOnUse">
			<stop  offset="0" style="stop-color:#FFFFFF;stop-opacity:0.4235"/>
			<stop  offset="1" style="stop-color:#F5F5F5;stop-opacity:0"/>
		</radialGradient>
		<path fill-rule="evenodd" clip-rule="evenodd" fill="url(#SVGID_6_)" d="M151.73,42.08c10.15-2.91,17.22-5.85,21.23-8.83
			l-0.6,0.75c-3.9,3.45-10.68,6.54-20.33,9.28c-15.92,4.55-35.2,6.82-57.83,6.82c-22.5,0-41.76-2.27-57.78-6.82
			c-9.51-2.74-16.21-5.79-20.08-9.13l-0.2-0.25c3.81,2.64,12.17,5.8,25.08,9.48c12.89,3.65,30.54,5.47,52.97,5.47
			c22.47,0,41.62-2.26,57.48-6.77H151.73z"/>
	</g>
	<g>
		<path fill-rule="evenodd" clip-rule="evenodd" fill="none" d="M188.33,32.14c-0.33,1-0.83,1.99-1.5,2.96
			c-3.67,5.18-12.18,9.78-25.54,13.79c-18.36,5.52-40.51,8.28-66.44,8.28c-8.78,0-17.12-0.3-25.04-0.9
			c-15.49-1.24-29.29-3.69-41.41-7.38C15.7,45.05,7.38,40.69,3.48,35.81c-0.17-0.27-0.33-0.5-0.5-0.7
			c-0.67-0.97-1.15-1.96-1.45-2.96"/>
	</g>
	<g>
		<g>
			
				<radialGradient id="SVGID_7_" cx="116.1934" cy="55.2002" r="23.1459" gradientTransform="matrix(0.9944 -0.1184 0.0183 0.1539 0.3373 61.4389)" gradientUnits="userSpaceOnUse">
				<stop  offset="0" style="stop-color:#FEFEFE"/>
				<stop  offset="0.2078" style="stop-color:#FEFEFE"/>
				<stop  offset="0.4902" style="stop-color:#FFFFFF;stop-opacity:0.298"/>
				<stop  offset="0.6784" style="stop-color:#FFFFFF;stop-opacity:0.0824"/>
				<stop  offset="0.8392" style="stop-color:#FCFCFC;stop-opacity:0"/>
				<stop  offset="1" style="stop-color:#FBFBFB;stop-opacity:0"/>
			</radialGradient>
			<path fill-rule="evenodd" clip-rule="evenodd" fill="url(#SVGID_7_)" d="M132.86,51.76c4.71,0.17,7.13,0.74,7.26,1.71
				c0.1,0.97-2.12,2.09-6.66,3.36c-4.37,1.24-9.75,2.22-16.12,2.96c-6.41,0.77-11.9,1.07-16.47,0.9c-4.57-0.2-6.91-0.79-7.01-1.76
				c-0.13-0.97,1.99-2.07,6.36-3.31c4.44-1.24,9.86-2.22,16.27-2.96C122.83,51.89,128.28,51.59,132.86,51.76z"/>
		</g>
		<g>
			
				<radialGradient id="SVGID_8_" cx="79.1431" cy="56.0488" r="10.0021" gradientTransform="matrix(1.0011 0.0234 -3.622895e-003 0.1555 0.7564 46.4578)" gradientUnits="userSpaceOnUse">
				<stop  offset="0" style="stop-color:#FEFEFE"/>
				<stop  offset="0.2078" style="stop-color:#FEFEFE"/>
				<stop  offset="0.4902" style="stop-color:#FFFFFF;stop-opacity:0.298"/>
				<stop  offset="0.6784" style="stop-color:#FFFFFF;stop-opacity:0.0824"/>
				<stop  offset="0.8392" style="stop-color:#FCFCFC;stop-opacity:0"/>
				<stop  offset="1" style="stop-color:#FBFBFB;stop-opacity:0"/>
			</radialGradient>
			<path fill-rule="evenodd" clip-rule="evenodd" fill="url(#SVGID_8_)" d="M69.77,56.78c0-0.43,0.97-0.79,2.9-1.05
				c2-0.24,4.41-0.33,7.21-0.3c2.77,0.03,5.11,0.27,7.01,0.7c1.97,0.33,2.95,0.72,2.95,1.15c0,0.4-0.98,0.74-2.95,1
				c-2,0.27-4.39,0.37-7.16,0.3c-2.77-0.03-5.12-0.27-7.06-0.7C70.74,57.54,69.77,57.18,69.77,56.78z"/>
		</g>
		<g>
			
				<radialGradient id="SVGID_9_" cx="181.9395" cy="38.25" r="8.9062" gradientTransform="matrix(0.8162 -0.5813 0.16 0.2256 28.1031 136.2993)" gradientUnits="userSpaceOnUse">
				<stop  offset="0" style="stop-color:#FEFEFE"/>
				<stop  offset="0.2078" style="stop-color:#FEFEFE"/>
				<stop  offset="0.4902" style="stop-color:#FFFFFF;stop-opacity:0.298"/>
				<stop  offset="0.6784" style="stop-color:#FFFFFF;stop-opacity:0.0824"/>
				<stop  offset="0.8392" style="stop-color:#FCFCFC;stop-opacity:0"/>
				<stop  offset="1" style="stop-color:#FBFBFB;stop-opacity:0"/>
			</radialGradient>
			<path fill-rule="evenodd" clip-rule="evenodd" fill="url(#SVGID_9_)" d="M188.83,36.91c-1.1,1.41-2.65,2.83-4.66,4.26
				c-2.04,1.44-3.92,2.47-5.66,3.11c-1.67,0.6-2.71,0.62-3.11,0.05c-0.37-0.54,0-1.52,1.1-2.96c1.13-1.41,2.72-2.83,4.76-4.26
				c2-1.44,3.85-2.48,5.56-3.11c1.77-0.57,2.84-0.58,3.2-0.05C190.4,34.52,190,35.5,188.83,36.91z"/>
		</g>
	</g>
</g>
</svg>
