<?xml version="1.0" encoding="utf-8"?>
<!-- Generator: Adobe Illustrator 16.0.0, SVG Export Plug-In . SVG Version: 6.00 Build 0)  -->
<!DOCTYPE svg PUBLIC "-//W3C//DTD SVG 1.1//EN" "http://www.w3.org/Graphics/SVG/1.1/DTD/svg11.dtd">
<svg version="1.1" id="Layer_2" xmlns="http://www.w3.org/2000/svg" xmlns:xlink="http://www.w3.org/1999/xlink" x="0px" y="0px"
	 width="59.33px" height="47.64px" viewBox="0 0 59.33 47.64" enable-background="new 0 0 59.33 47.64" xml:space="preserve">
<g>
	<g>
		<path fill-rule="evenodd" clip-rule="evenodd" d="M48.4,7.59c0.24,0.29,0.35,0.62,0.31,0.99l-0.75,8.36l0.01-0.04
			c-0.47,7.57-0.05,12.71,1.25,15.42c2,3.97,2.56,8.29,1.66,12.95c-0.07,0.37-0.26,0.66-0.57,0.87c-0.31,0.21-0.65,0.28-1.01,0.21
			c-0.37-0.07-0.66-0.26-0.87-0.57c-0.21-0.31-0.28-0.65-0.21-1.01c0.77-4.04,0.3-7.78-1.43-11.23c-1.53-2.94-2.04-8.54-1.53-16.8
			c0-0.01,0-0.03,0.01-0.04l0.75-8.36c0.03-0.37,0.2-0.67,0.48-0.91c0.29-0.24,0.62-0.34,0.99-0.31C47.86,7.14,48.16,7.3,48.4,7.59z
			 M48.8,1.8c0.02,0.37-0.09,0.7-0.34,0.98c-0.25,0.28-0.56,0.43-0.93,0.45c-0.37,0.02-0.7-0.09-0.98-0.34
			c-0.28-0.25-0.44-0.56-0.46-0.93c-0.01-0.17-0.02-0.35-0.03-0.52c-1.72,1.47-3.66,2.79-5.83,3.97h-0.01
			c-5.02,2.72-9.84,4.12-14.45,4.2c-4.67,0.09-8.96-0.97-12.85-3.16v0.01C9.82,4.71,7.06,2.56,4.66,0h3.87
			c1.74,1.56,3.64,2.92,5.72,4.09v0.01c3.48,1.96,7.3,2.89,11.46,2.81h0.01c4.21-0.09,8.62-1.38,13.21-3.87h-0.01
			c1.69-0.91,3.22-1.92,4.61-3.03h5.17C48.73,0.6,48.77,1.2,48.8,1.8z"/>
	</g>
	<g>
		
			<radialGradient id="SVGID_1_" cx="-181.8999" cy="-267.3936" r="42.95" gradientTransform="matrix(0.2359 0 0 0.2359 89.8644 75.0828)" gradientUnits="userSpaceOnUse">
			<stop  offset="0" style="stop-color:#95999C"/>
			<stop  offset="1" style="stop-color:#474843"/>
		</radialGradient>
		<path fill-rule="evenodd" clip-rule="evenodd" fill="url(#SVGID_1_)" d="M56.86,12.3c0,2.34-0.83,4.34-2.49,5.99
			c-1.65,1.66-3.65,2.49-5.99,2.49s-4.34-0.83-5.99-2.49c-1.65-1.65-2.48-3.65-2.48-5.99c0-2.33,0.83-4.33,2.48-5.99
			c1.65-1.65,3.65-2.48,5.99-2.48s4.34,0.83,5.99,2.48C56.03,7.97,56.86,9.96,56.86,12.3z"/>
	</g>
	<g>
		
			<linearGradient id="SVGID_2_" gradientUnits="userSpaceOnUse" x1="-208.9624" y1="-294.8389" x2="-145.5374" y2="-294.8389" gradientTransform="matrix(0.2359 0 0 0.2359 89.8644 75.0828)">
			<stop  offset="0" style="stop-color:#2A2920"/>
			<stop  offset="0.1804" style="stop-color:#777D6E"/>
			<stop  offset="0.4471" style="stop-color:#2C2B22"/>
			<stop  offset="1" style="stop-color:#26241C"/>
		</linearGradient>
		<path fill-rule="evenodd" clip-rule="evenodd" fill="url(#SVGID_2_)" d="M48.26,6.88L48.2,4.21h7.35l-1.84,2.1
			c-0.23,0.09-0.68,0.19-1.34,0.32C51.35,6.81,49.98,6.89,48.26,6.88z"/>
		
			<linearGradient id="SVGID_3_" gradientUnits="userSpaceOnUse" x1="-196.709" y1="-292.5195" x2="-168.7228" y2="-308.6501" gradientTransform="matrix(0.2359 0 0 0.2359 89.8644 75.0828)">
			<stop  offset="0" style="stop-color:#2A2920"/>
			<stop  offset="0.1804" style="stop-color:#777D6E"/>
			<stop  offset="0.4471" style="stop-color:#2C2B22"/>
			<stop  offset="1" style="stop-color:#26241C"/>
		</linearGradient>
		<path fill-rule="evenodd" clip-rule="evenodd" fill="url(#SVGID_3_)" d="M48.2,4.21l0.06,2.67c-0.15-0.01-0.28-0.01-0.4-0.01
			c-1.72-0.04-2.91-0.13-3.57-0.27c-0.66-0.15-1.08-0.26-1.26-0.34c-0.03-0.02-0.05-0.04-0.06-0.06l-2.38-1.98H48.2z"/>
	</g>
	<g>
		
			<linearGradient id="SVGID_4_" gradientUnits="userSpaceOnUse" x1="-214.5996" y1="-305.0918" x2="-139.5503" y2="-305.0918" gradientTransform="matrix(0.2359 0 0 0.2359 89.8644 75.0828)">
			<stop  offset="0" style="stop-color:#888B82"/>
			<stop  offset="0.1098" style="stop-color:#7A7C74"/>
			<stop  offset="0.2039" style="stop-color:#B3B7AE"/>
			<stop  offset="0.3765" style="stop-color:#78766D"/>
			<stop  offset="0.549" style="stop-color:#7A716B"/>
			<stop  offset="0.6902" style="stop-color:#828079"/>
			<stop  offset="0.7686" style="stop-color:#545149"/>
			<stop  offset="0.8941" style="stop-color:#CBC4BC"/>
			<stop  offset="1" style="stop-color:#000000"/>
		</linearGradient>
		<path fill-rule="evenodd" clip-rule="evenodd" fill="url(#SVGID_4_)" d="M39.25,1.19c0.01,0.16,0.84,0.3,2.49,0.44
			c1.64,0.13,3.66,0.21,6.04,0.22c2.39,0.02,4.45-0.04,6.17-0.18c1.71-0.13,2.72-0.26,3.01-0.39v2.92V4.4
			c-0.28,0.11-1.16,0.25-2.65,0.42c-1.49,0.17-3.48,0.24-5.94,0.24c-2.47-0.02-4.6-0.11-6.4-0.27c-1.8-0.16-2.7-0.32-2.7-0.48V1.19z
			"/>
		<path fill-rule="evenodd" clip-rule="evenodd" fill="#151410" d="M39.25,1.19c0.01-0.16,0.88-0.29,2.61-0.4
			c1.74-0.11,3.84-0.17,6.3-0.17s4.56,0.05,6.31,0.17c1.37,0.09,2.2,0.19,2.49,0.31v0.19c-0.29,0.13-1.29,0.26-3.01,0.39
			c-1.72,0.14-3.78,0.2-6.17,0.18c-2.38-0.02-4.39-0.09-6.04-0.22C40.09,1.49,39.26,1.35,39.25,1.19z"/>
	</g>
	<g>
		
			<linearGradient id="SVGID_5_" gradientUnits="userSpaceOnUse" x1="-168.501" y1="-310.5928" x2="-145.426" y2="-310.5928" gradientTransform="matrix(0.2359 0 0 0.2359 89.8644 75.0828)">
			<stop  offset="0" style="stop-color:#797158"/>
			<stop  offset="0.2549" style="stop-color:#3D392C"/>
			<stop  offset="1" style="stop-color:#000000"/>
		</linearGradient>
		<polygon fill-rule="evenodd" clip-rule="evenodd" fill="url(#SVGID_5_)" points="50.12,1.76 53.84,0 55.57,0 55.57,0.87 
			50.12,3.66 		"/>
		
			<linearGradient id="SVGID_6_" gradientUnits="userSpaceOnUse" x1="-215.4004" y1="-307.4819" x2="-168.501" y2="-307.4819" gradientTransform="matrix(0.2359 0 0 0.2359 89.8644 75.0828)">
			<stop  offset="0" style="stop-color:#777876"/>
			<stop  offset="0.2549" style="stop-color:#A7ABAC"/>
			<stop  offset="1" style="stop-color:#585853"/>
		</linearGradient>
		<path fill-rule="evenodd" clip-rule="evenodd" fill="url(#SVGID_6_)" d="M39.06,1.33c2.41,0.44,6.09,0.58,11.06,0.42v1.9
			c-3.96,0.27-7.65,0.13-11.06-0.44V1.33z"/>
		<path fill-rule="evenodd" clip-rule="evenodd" fill="#2A2A2A" d="M50.12,1.76c-4.97,0.16-8.66,0.02-11.06-0.42L42.78,0h11.06
			L50.12,1.76z"/>
		<path fill-rule="evenodd" clip-rule="evenodd" fill="none" d="M39.06,1.33c2.41,0.44,6.09,0.58,11.06,0.42"/>
	</g>
	<g>
		
			<linearGradient id="SVGID_7_" gradientUnits="userSpaceOnUse" x1="-210.8999" y1="-316.3389" x2="-143.1011" y2="-316.3389" gradientTransform="matrix(0.2359 0 0 0.2359 89.8644 75.0828)">
			<stop  offset="0" style="stop-color:#565657"/>
			<stop  offset="0.1882" style="stop-color:#292827"/>
			<stop  offset="0.4784" style="stop-color:#131210"/>
			<stop  offset="0.7451" style="stop-color:#312D2D"/>
			<stop  offset="1" style="stop-color:#000000"/>
		</linearGradient>
		<path fill-rule="evenodd" clip-rule="evenodd" fill="url(#SVGID_7_)" d="M56.11,0.11v0.19c-0.25,0.12-1.05,0.26-2.39,0.41
			c-1.35,0.17-3.14,0.25-5.37,0.24c-2.24-0.02-4.17-0.1-5.8-0.25c-1.62-0.17-2.43-0.33-2.43-0.5V0h15.99V0.11z"/>
	</g>
	<g>
		
			<radialGradient id="SVGID_8_" cx="-193.25" cy="-270.7432" r="5.9875" gradientTransform="matrix(0.2359 0 0 0.225 89.8644 72.15)" gradientUnits="userSpaceOnUse">
			<stop  offset="0" style="stop-color:#FFFFFF"/>
			<stop  offset="0.1922" style="stop-color:#FFFFFF"/>
			<stop  offset="0.2824" style="stop-color:#FFFFFF;stop-opacity:0.7294"/>
			<stop  offset="0.4157" style="stop-color:#FFFFFF;stop-opacity:0.6"/>
			<stop  offset="0.5882" style="stop-color:#FEFEFE;stop-opacity:0.3412"/>
			<stop  offset="0.8157" style="stop-color:#FCFCFC;stop-opacity:0.0863"/>
			<stop  offset="1" style="stop-color:#F9F9F9;stop-opacity:0"/>
		</radialGradient>
		<path fill-rule="evenodd" clip-rule="evenodd" fill="url(#SVGID_8_)" d="M42.89,11.23c0-0.36,0.13-0.67,0.4-0.93
			c0.28-0.27,0.6-0.4,0.98-0.4c0.39,0,0.72,0.13,0.99,0.4c0.27,0.26,0.4,0.57,0.4,0.93s-0.13,0.67-0.4,0.93
			c-0.28,0.24-0.61,0.37-0.99,0.37c-0.38,0-0.7-0.12-0.98-0.37C43.03,11.9,42.89,11.59,42.89,11.23z"/>
	</g>
	<g>
		
			<radialGradient id="SVGID_9_" cx="-161" cy="-265.8936" r="3.625" gradientTransform="matrix(0.2359 0 0 0.675 89.8644 191.8575)" gradientUnits="userSpaceOnUse">
			<stop  offset="0" style="stop-color:#FFFFFF"/>
			<stop  offset="0.1922" style="stop-color:#FFFFFF"/>
			<stop  offset="0.2824" style="stop-color:#FFFFFF;stop-opacity:0.7294"/>
			<stop  offset="0.4157" style="stop-color:#FFFFFF;stop-opacity:0.6"/>
			<stop  offset="0.5882" style="stop-color:#FEFEFE;stop-opacity:0.3412"/>
			<stop  offset="0.8157" style="stop-color:#FCFCFC;stop-opacity:0.0863"/>
			<stop  offset="1" style="stop-color:#F9F9F9;stop-opacity:0"/>
		</radialGradient>
		<path fill-rule="evenodd" clip-rule="evenodd" fill="url(#SVGID_9_)" d="M51.05,12.37c0-0.66,0.08-1.23,0.24-1.7
			c0.17-0.48,0.36-0.72,0.59-0.72c0.24,0,0.44,0.24,0.6,0.72c0.17,0.47,0.25,1.04,0.25,1.7c0,0.66-0.08,1.23-0.25,1.7
			c-0.17,0.45-0.37,0.67-0.6,0.67c-0.23,0-0.42-0.22-0.59-0.67C51.13,13.6,51.05,13.03,51.05,12.37z"/>
	</g>
	<g>
		
			<radialGradient id="SVGID_10_" cx="-152.6499" cy="-267.0933" r="2.9375" gradientTransform="matrix(0.2359 0 0 0.7628 89.8644 215.817)" gradientUnits="userSpaceOnUse">
			<stop  offset="0" style="stop-color:#FFFFFF"/>
			<stop  offset="0.1922" style="stop-color:#FFFFFF"/>
			<stop  offset="0.2824" style="stop-color:#FFFFFF;stop-opacity:0.7294"/>
			<stop  offset="0.4157" style="stop-color:#FFFFFF;stop-opacity:0.6"/>
			<stop  offset="0.5882" style="stop-color:#FEFEFE;stop-opacity:0.3412"/>
			<stop  offset="0.8157" style="stop-color:#FCFCFC;stop-opacity:0.0863"/>
			<stop  offset="1" style="stop-color:#F9F9F9;stop-opacity:0"/>
		</radialGradient>
		<path fill-rule="evenodd" clip-rule="evenodd" fill="url(#SVGID_10_)" d="M53.19,12.09c0-0.61,0.06-1.13,0.19-1.56
			c0.13-0.43,0.29-0.65,0.48-0.65c0.18,0,0.34,0.22,0.47,0.65c0.13,0.43,0.2,0.95,0.2,1.56c0,0.6-0.07,1.12-0.2,1.56
			c-0.13,0.41-0.29,0.61-0.47,0.61c-0.19,0-0.35-0.2-0.48-0.61C53.25,13.21,53.19,12.69,53.19,12.09z"/>
	</g>
	<g>
		
			<radialGradient id="SVGID_11_" cx="-145.0503" cy="-267.5933" r="1.2375" gradientTransform="matrix(0.2359 0 0 0.7624 89.8644 215.972)" gradientUnits="userSpaceOnUse">
			<stop  offset="0" style="stop-color:#FFFFFF"/>
			<stop  offset="0.1922" style="stop-color:#FFFFFF"/>
			<stop  offset="0.2824" style="stop-color:#FFFFFF;stop-opacity:0.7294"/>
			<stop  offset="0.4157" style="stop-color:#FFFFFF;stop-opacity:0.6"/>
			<stop  offset="0.5882" style="stop-color:#FEFEFE;stop-opacity:0.3412"/>
			<stop  offset="0.8157" style="stop-color:#FCFCFC;stop-opacity:0.0863"/>
			<stop  offset="1" style="stop-color:#F9F9F9;stop-opacity:0"/>
		</radialGradient>
		<path fill-rule="evenodd" clip-rule="evenodd" fill="url(#SVGID_11_)" d="M55.37,11.97c0-0.25,0.03-0.47,0.08-0.66
			c0.06-0.18,0.12-0.27,0.2-0.27s0.15,0.09,0.2,0.27c0.06,0.19,0.08,0.41,0.08,0.66c0,0.25-0.03,0.47-0.08,0.66
			c-0.06,0.17-0.12,0.25-0.2,0.25s-0.15-0.08-0.2-0.25C55.4,12.44,55.37,12.22,55.37,11.97z"/>
	</g>
	<g>
		<path fill-rule="evenodd" clip-rule="evenodd" fill="none" d="M48,7.02c1.56-0.01,3.14-0.19,4.72-0.53"/>
		<path fill-rule="evenodd" clip-rule="evenodd" fill="none" d="M44.12,6.58c1.11,0.23,2.21,0.37,3.33,0.43
			c0.18,0,0.37,0.01,0.55,0.01"/>
	</g>
	<g>
		
			<radialGradient id="SVGID_12_" cx="-192.8501" cy="-271.0435" r="19.9625" gradientTransform="matrix(0.2359 0 0 0.2245 89.8644 72.0005)" gradientUnits="userSpaceOnUse">
			<stop  offset="0" style="stop-color:#FFFFFF"/>
			<stop  offset="0.1922" style="stop-color:#FFFFFF"/>
			<stop  offset="0.2824" style="stop-color:#FFFFFF;stop-opacity:0.7294"/>
			<stop  offset="0.4157" style="stop-color:#FFFFFF;stop-opacity:0.6"/>
			<stop  offset="0.5882" style="stop-color:#FEFEFE;stop-opacity:0.3412"/>
			<stop  offset="0.8157" style="stop-color:#FCFCFC;stop-opacity:0.0863"/>
			<stop  offset="1" style="stop-color:#F9F9F9;stop-opacity:0"/>
		</radialGradient>
		<path fill-rule="evenodd" clip-rule="evenodd" fill="url(#SVGID_12_)" d="M44.34,6.73c1.28,0,2.37,0.44,3.28,1.31
			c0.89,0.86,1.33,1.9,1.33,3.11c0,1.21-0.44,2.25-1.33,3.11c-0.9,0.81-2,1.21-3.28,1.21c-1.25,0-2.33-0.4-3.24-1.21
			c-0.89-0.87-1.33-1.9-1.33-3.11c0-1.21,0.44-2.25,1.33-3.11C42.01,7.17,43.09,6.73,44.34,6.73z"/>
	</g>
</g>
</svg>
