<?xml version="1.0" encoding="utf-8"?>
<!-- Generator: Adobe Illustrator 16.0.0, SVG Export Plug-In . SVG Version: 6.00 Build 0)  -->
<!DOCTYPE svg PUBLIC "-//W3C//DTD SVG 1.1//EN" "http://www.w3.org/Graphics/SVG/1.1/DTD/svg11.dtd">
<svg version="1.1" id="Layer_2" xmlns="http://www.w3.org/2000/svg" xmlns:xlink="http://www.w3.org/1999/xlink" x="0px" y="0px"
	 width="94.67px" height="22.83px" viewBox="0 0 94.67 22.83" enable-background="new 0 0 94.67 22.83" xml:space="preserve">
<g>
	<g>
		<g>
			<path fill="#989EA3" d="M93.63,7.87v10.949c0,2.031-1.02,3.051-3.05,3.051H7.23c-2,0-3-1.02-3-3.051V7.87c0-2.03,1-3.05,3-3.05
				h83.35C92.62,4.82,93.63,5.83,93.63,7.87z"/>
		</g>
		<g>
			<path d="M90.58,4.22v10.95c0,2.03-1.021,3.05-3.05,3.05H4.23c-2.03,0-3.05-1.02-3.05-3.05V4.22c0-2.03,1.02-3.05,3.05-3.05h83.3
				C89.569,1.17,90.58,2.18,90.58,4.22z"/>
		</g>
		<g>
			
				<linearGradient id="SVGID_1_" gradientUnits="userSpaceOnUse" x1="207.8799" y1="-136.8125" x2="207.8799" y2="-107.6125" gradientTransform="matrix(1 0 0 -1 -160.5 -106.1445)">
				<stop  offset="0" style="stop-color:#414547"/>
				<stop  offset="1" style="stop-color:#B6BBC1"/>
			</linearGradient>
			<path fill="url(#SVGID_1_)" d="M92.08,5.72v10.95c0,2.03-1.021,3.05-3.05,3.05H5.73c-2.03,0-3.05-1.02-3.05-3.05V5.72
				c0-2.03,1.02-3.05,3.05-3.05h83.3C91.069,2.67,92.08,3.68,92.08,5.72z"/>
			
				<path fill="none" stroke="#45484B" stroke-width="0.1" stroke-linecap="round" stroke-linejoin="round" stroke-miterlimit="3" d="
				M92.08,5.72c0-2.03-1.021-3.05-3.05-3.05H5.73c-2.03,0-3.05,1.02-3.05,3.05v10.95c0,2.03,1.02,3.05,3.05,3.05h83.3
				c2.029,0,3.05-1.02,3.05-3.05V5.72z"/>
		</g>
	</g>
</g>
</svg>
