<?xml version="1.0" encoding="utf-8"?>
<!-- Generator: Adobe Illustrator 16.0.0, SVG Export Plug-In . SVG Version: 6.00 Build 0)  -->
<!DOCTYPE svg PUBLIC "-//W3C//DTD SVG 1.1//EN" "http://www.w3.org/Graphics/SVG/1.1/DTD/svg11.dtd">
<svg version="1.1" id="Layer_1" xmlns="http://www.w3.org/2000/svg" xmlns:xlink="http://www.w3.org/1999/xlink" x="0px" y="0px"
	 width="181px" height="122px" viewBox="0 0 181 122" enable-background="new 0 0 181 122" xml:space="preserve">
<g>
	<g>
		<path fill="#595E62" d="M64.6,9.65H21.25c-7.23,0-11.87,2.53-13.9,7.6c-0.77,1.83-1.38,4.12-1.85,6.85
			c0.1-3.03,0.38-5.32,0.85-6.85c1.87-5.8,6.7-8.7,14.5-8.7h43.8c0.77,0.4,0.75,0.7-0.05,0.9V9.5C64.6,9.57,64.6,9.62,64.6,9.65z
			 M116.6,8.6l45.05-0.05c4.47,0,7.9,1.05,10.3,3.15c1.13,1.07,2.12,2.39,2.95,3.95c0.47,1.13,0.8,2.18,1,3.15
			c0.3,1.47,0.45,3.12,0.45,4.95l-0.15,37.1l-0.6-37.05c-0.07-1.4-0.23-2.68-0.5-3.85c-0.23-1.27-0.65-2.53-1.25-3.8
			c-2.2-4.33-6.43-6.5-12.7-6.5h-44.5c0-0.03,0-0.08,0-0.15V9.35C116.65,9.12,116.63,8.87,116.6,8.6z"/>
		<path fill="#333637" d="M12.5,95.05c0.07,1.37,0.22,2.6,0.45,3.7c0.4,2.03,1.17,3.68,2.3,4.95c2.23,2.7,5.78,4.05,10.65,4.05
			h131.05c4.37-0.07,7.58-1.42,9.65-4.05c1.63-2.13,2.5-5.1,2.6-8.9v2.65c-0.07,4.03-0.93,7.13-2.6,9.3
			c-2.07,2.63-5.28,3.98-9.65,4.05H25.9c-4.87,0-8.42-1.35-10.65-4.05c-1.13-1.27-1.9-2.92-2.3-4.95c-0.3-1.27-0.45-2.72-0.45-4.35
			V95.05z"/>
		<path fill="#54967A" d="M159.55,31.8c-0.4-4.93-4.1-7.25-11.1-6.95H31.05c-6.63,0.17-10.03,2.65-10.2,7.45v-2.65
			c-0.03-5.07,3.37-7.67,10.2-7.8h117.4c7.9-0.33,11.6,2.62,11.1,8.85V31.8z"/>
		
			<linearGradient id="SVGID_1_" gradientUnits="userSpaceOnUse" x1="251.9043" y1="-103.8623" x2="251.9043" y2="-24.4877" gradientTransform="matrix(1 0 0 -1 -160.5 -6.9746)">
			<stop  offset="0" style="stop-color:#54595D"/>
			<stop  offset="1" style="stop-color:#0B0B09"/>
		</linearGradient>
		<path fill="url(#SVGID_1_)" d="M12.5,95.05V26.4c0-8.87,4.47-13.3,13.4-13.3l133.4,0.15l0.45,0.05c6.23,1.07,9.38,5.43,9.45,13.1
			v49.05c1.1-0.37,1.38-0.43,0.85-0.2c-0.23,0.07-0.52,0.18-0.85,0.35v19.2c-0.1,3.8-0.97,6.77-2.6,8.9
			c-2.07,2.63-5.28,3.98-9.65,4.05H25.9c-4.87,0-8.42-1.35-10.65-4.05c-1.13-1.27-1.9-2.92-2.3-4.95
			C12.72,97.65,12.57,96.42,12.5,95.05z M20.85,32.3v0.15c0,0.07,0,0.15,0,0.25v38c0.07,0.5,0.18,1.08,0.35,1.75
			c1,3.47,4.33,5.22,10,5.25h75.4c15.37,0.1,27.92,0.18,37.65,0.25c2.17,0,4.22,0,6.15,0c5.7,0.13,8.75-2.08,9.15-6.65
			c0.03-0.63,0.03-1.37,0-2.2V33.75c0.03-0.7,0.03-1.35,0-1.95v-1.1c0.5-6.23-3.2-9.18-11.1-8.85H31.05
			c-6.83,0.13-10.23,2.73-10.2,7.8V32.3z"/>
		
			<linearGradient id="SVGID_2_" gradientUnits="userSpaceOnUse" x1="251.3652" y1="-129.1631" x2="251.3652" y2="-12.0876" gradientTransform="matrix(1 0 0 -1 -160.5 -6.9746)">
			<stop  offset="0" style="stop-color:#080A09"/>
			<stop  offset="1" style="stop-color:#949BA1"/>
		</linearGradient>
		<path fill="url(#SVGID_2_)" d="M5.5,24.1c0.47-2.73,1.08-5.02,1.85-6.85c2.03-5.07,6.67-7.6,13.9-7.6H64.6h52.05h44.5
			c6.27,0,10.5,2.17,12.7,6.5c0.6,1.27,1.02,2.53,1.25,3.8c0.27,1.17,0.43,2.45,0.5,3.85l0.6,37.05l0.15,36.95
			c0.4,11.6-3,18.13-10.2,19.6H17.6c-8.37-0.7-12.42-6.38-12.15-17.05V24.8c0,0.03-0.03,0.08-0.1,0.15c0.07-0.2,0.12-0.4,0.15-0.6
			C5.47,24.28,5.47,24.2,5.5,24.1z M169.2,94.8V75.6c0.33-0.17,0.62-0.28,0.85-0.35c0.53-0.23,0.25-0.17-0.85,0.2V26.4
			c-0.07-7.67-3.22-12.03-9.45-13.1l-0.45-0.05L25.9,13.1c-8.93,0-13.4,4.43-13.4,13.3v68.65v2.4c0,1.63,0.15,3.08,0.45,4.35
			c0.4,2.03,1.17,3.68,2.3,4.95c2.23,2.7,5.78,4.05,10.65,4.05h131.05c4.37-0.07,7.58-1.42,9.65-4.05c1.67-2.17,2.53-5.27,2.6-9.3
			V94.8z M13.1,117c0.1,0.1,0.24,0.24,0.4,0.4h-0.15C13.25,117.21,13.17,117.07,13.1,117z"/>
		
			<linearGradient id="SVGID_3_" gradientUnits="userSpaceOnUse" x1="251.125" y1="-10.4126" x2="251.125" y2="-18.9376" gradientTransform="matrix(1 0 0 -1 -160.5 -6.9746)">
			<stop  offset="0" style="stop-color:#080A09"/>
			<stop  offset="1" style="stop-color:#949BA1"/>
		</linearGradient>
		<path fill="url(#SVGID_3_)" d="M116.6,8.6c0.03,0.27,0.05,0.52,0.05,0.75V9.5c0,0.07,0,0.12,0,0.15H64.6c0-0.03,0-0.08,0-0.15
			V9.45c0.8-0.2,0.82-0.5,0.05-0.9c0.1-0.43,0.23-0.82,0.4-1.15c0.03-0.17,0.1-0.3,0.2-0.4c0.17-0.23,0.35-0.47,0.55-0.7
			c0.87-0.8,1.9-1.2,3.1-1.2h43.45c1.2,0,2.2,0.4,3,1.2c0.2,0.23,0.42,0.47,0.65,0.7c0.03,0.1,0.1,0.23,0.2,0.4
			c0.17,0.33,0.3,0.72,0.4,1.15V8.6z"/>
		
			<linearGradient id="SVGID_4_" gradientUnits="userSpaceOnUse" x1="187.5449" y1="-31.3457" x2="315.0677" y2="-85.5508" gradientTransform="matrix(1 0 0 -1 -160.5 -6.9746)">
			<stop  offset="0" style="stop-color:#E7E9E2"/>
			<stop  offset="1" style="stop-color:#66AA8E"/>
		</linearGradient>
		<path fill="url(#SVGID_4_)" d="M159.55,31.8c0.03,0.6,0.03,1.25,0,1.95V69.1c0.03,0.83,0.03,1.57,0,2.2
			c-0.4,4.57-3.45,6.78-9.15,6.65c-1.93,0-3.98,0-6.15,0c-9.73-0.07-22.28-0.15-37.65-0.25H31.2c-5.67-0.03-9-1.78-10-5.25
			c-0.17-0.67-0.28-1.25-0.35-1.75v-38c0-0.1,0-0.18,0-0.25V32.3c0.17-4.8,3.57-7.28,10.2-7.45h117.4
			C155.45,24.55,159.15,26.87,159.55,31.8z"/>
	</g>
	<g>
		<path d="M101.05,57.8v-4.05h3.45v4.05H101.05z M104.5,69.5h-3.45v-4.05h3.45V69.5z"/>
	</g>
	<g>
		<path d="M57.95,53h3.45v4.05h-3.45V53z M61.4,68.75h-3.45V64.7h3.45V68.75z"/>
	</g>
	<g>
		<path d="M128.6,35.6h-0.45c-0.1-0.37-0.23-0.65-0.4-0.85c-0.3-0.5-0.7-0.85-1.2-1.05c-0.6-0.4-1.07-0.6-1.4-0.6
			c-0.3,0-0.62,0.1-0.95,0.3c0,0.2,0,0.42,0,0.65c0,0.2,0,0.37,0,0.5c0.33,0.3,0.97,0.77,1.9,1.4c1.37,0.67,2.2,1.25,2.5,1.75
			c0.3,0.43,0.45,0.95,0.45,1.55c0,0.33-0.08,0.72-0.25,1.15c-0.03,0.1-0.1,0.22-0.2,0.35c-0.1,0.2-0.25,0.4-0.45,0.6
			c-0.3,0.2-0.67,0.38-1.1,0.55c-0.33,0.27-0.8,0.4-1.4,0.4c-0.63,0-1.27-0.13-1.9-0.4l-0.5-0.25c-0.3,0-0.62,0.22-0.95,0.65
			l-0.45-3.35h0.45c0.33,0.8,0.82,1.43,1.45,1.9c0.63,0.43,1.1,0.65,1.4,0.65c0.33,0,0.65-0.1,0.95-0.3
			c0.3-0.13,0.45-0.35,0.45-0.65c0-0.3-0.15-0.58-0.45-0.85c-0.3-0.27-0.77-0.62-1.4-1.05c-1.27-0.67-2.07-1.2-2.4-1.6
			c-0.3-0.63-0.45-1.25-0.45-1.85c0-0.7,0.32-1.33,0.95-1.9c0.3-0.67,1.08-1,2.35-1c0.33,0,0.8,0.17,1.4,0.5l0.5,0.05
			c0.43,0,0.65-0.02,0.65-0.05l0.45-0.4L128.6,35.6z M87.15,29.2c0.17,0.27,0.25,0.52,0.25,0.75c0,0.47-0.18,0.85-0.55,1.15
			c-0.2,0.3-0.5,0.45-0.9,0.45c-0.37,0-0.72-0.15-1.05-0.45c-0.2-0.3-0.3-0.68-0.3-1.15c0-0.23,0.05-0.48,0.15-0.75
			c0.03-0.1,0.08-0.2,0.15-0.3c0.33-0.3,0.68-0.45,1.05-0.45c0.4,0,0.7,0.15,0.9,0.45C86.95,29,87.05,29.1,87.15,29.2z M90,33.7
			c-0.13-0.2-0.35-0.33-0.65-0.4V33h3.3v1.2c0.33-0.53,0.72-0.9,1.15-1.1c0.4-0.27,0.85-0.4,1.35-0.4c0.47,0,0.87,0.18,1.2,0.55
			c0.3,0.3,0.53,0.7,0.7,1.2c0.1,0.4,0.15,1.13,0.15,2.2v3.65c0,0.7,0.08,1.15,0.25,1.35c0.03,0.17,0.25,0.28,0.65,0.35v0.35h-4V42
			c0.2-0.07,0.35-0.23,0.45-0.5c0.13-0.13,0.2-0.53,0.2-1.2v-4.2c0-0.73,0-1.2,0-1.4c-0.13-0.23-0.25-0.4-0.35-0.5
			c-0.17-0.1-0.27-0.15-0.3-0.15c-0.63,0-1.12,0.42-1.45,1.25v5c0,0.7,0.05,1.15,0.15,1.35c0.1,0.17,0.27,0.28,0.5,0.35v0.35h-3.95
			V42c0.27-0.07,0.48-0.2,0.65-0.4c0.2-0.17,0.3-0.6,0.3-1.3V35C90.3,34.27,90.2,33.83,90,33.7z M87.4,41.65
			c0.13,0.23,0.43,0.35,0.9,0.35v0.35h-4.65V42c0.37,0,0.68-0.13,0.95-0.4c0.1-0.17,0.15-0.57,0.15-1.2v-5.5
			c0-0.67-0.05-1.07-0.15-1.2c-0.27-0.2-0.58-0.33-0.95-0.4V33h3.65v7.4C87.3,41.03,87.33,41.45,87.4,41.65z M69.15,33.3V33h3.25
			v1.2c0.5-0.53,0.93-0.93,1.3-1.2c0.37-0.2,0.77-0.3,1.2-0.3c0.57,0,1,0.13,1.3,0.4c0.4,0.3,0.73,0.72,1,1.25
			c0.5-0.6,0.9-1.02,1.2-1.25c0.47-0.27,0.95-0.4,1.45-0.4c0.57,0,1,0.15,1.3,0.45c0.4,0.3,0.65,0.68,0.75,1.15
			c0.1,0.47,0.15,1.18,0.15,2.15v3.85c0,0.7,0.05,1.15,0.15,1.35c0.23,0.17,0.5,0.28,0.8,0.35v0.35h-4.2V42c0.3,0,0.53-0.17,0.7-0.5
			c0.1-0.13,0.15-0.53,0.15-1.2v-4.05c0-0.83,0-1.35,0-1.55c-0.1-0.27-0.23-0.45-0.4-0.55C79.15,34.05,79,34,78.8,34
			c-0.27,0-0.5,0.1-0.7,0.3c-0.23,0.2-0.5,0.53-0.8,1v5c0,0.67,0,1.1,0,1.3c0.3,0.27,0.62,0.4,0.95,0.4v0.35h-4.4V42
			c0.27,0,0.5-0.07,0.7-0.2c0.13-0.13,0.2-0.28,0.2-0.45c0-0.13,0-0.48,0-1.05v-4.05c0-0.83,0-1.35,0-1.55
			c-0.13-0.23-0.28-0.42-0.45-0.55c-0.03-0.1-0.1-0.15-0.2-0.15c-0.27,0-0.52,0.07-0.75,0.2c-0.23,0.23-0.55,0.6-0.95,1.1v5
			c0,0.67,0.08,1.1,0.25,1.3c0.13,0.2,0.37,0.33,0.7,0.4v0.35h-4.2V42c0.3-0.07,0.5-0.2,0.6-0.4C69.92,41.43,70,41,70,40.3V35
			c0-0.73-0.08-1.17-0.25-1.3C69.65,33.5,69.45,33.37,69.15,33.3z M46.4,41.8h-4.7v-0.3c0.3-0.03,0.58-0.15,0.85-0.35
			c0.1-0.17,0.15-0.55,0.15-1.15v-3.8c0-0.8-0.03-1.3-0.1-1.5c-0.03-0.1-0.18-0.23-0.45-0.4c-0.1-0.07-0.22-0.1-0.35-0.1
			c-0.33,0-0.62,0.05-0.85,0.15c-0.2,0.23-0.45,0.55-0.75,0.95V40c0,0.6,0.02,0.98,0.05,1.15c0.17,0.2,0.42,0.32,0.75,0.35v0.3h-4.6
			v-0.3c0.33-0.03,0.58-0.15,0.75-0.35c0.2-0.17,0.3-0.55,0.3-1.15v-8.8c0-0.63-0.13-1.05-0.4-1.25c-0.1-0.13-0.32-0.23-0.65-0.3
			v-0.3h3.8v4.95c0.43-0.47,0.92-0.8,1.45-1c0.33-0.3,0.75-0.45,1.25-0.45c0.63,0,1.12,0.18,1.45,0.55c0.47,0.33,0.77,0.72,0.9,1.15
			c0.17,0.4,0.25,1.08,0.25,2.05V40c0,0.6,0.05,1,0.15,1.2c0.1,0.17,0.35,0.27,0.75,0.3V41.8z"/>
	</g>
</g>
</svg>
