<?xml version="1.0" encoding="utf-8"?>
<!-- Generator: Adobe Illustrator 16.0.0, SVG Export Plug-In . SVG Version: 6.00 Build 0)  -->
<!DOCTYPE svg PUBLIC "-//W3C//DTD SVG 1.1//EN" "http://www.w3.org/Graphics/SVG/1.1/DTD/svg11.dtd">
<svg version="1.1" xmlns="http://www.w3.org/2000/svg" xmlns:xlink="http://www.w3.org/1999/xlink" x="0px" y="0px" width="143px"
	 height="145px" viewBox="0 0 143 145" enable-background="new 0 0 143 145" xml:space="preserve">
<g id="BG">
</g>
<g id="Beakers_under">
	<g>
		<g>
			<linearGradient id="SVGID_1_" gradientUnits="userSpaceOnUse" x1="11.8501" y1="75.4502" x2="137.2998" y2="75.4502">
				<stop  offset="0" style="stop-color:#EBEBEB;stop-opacity:0.3529"/>
				<stop  offset="0.1569" style="stop-color:#EBEBEB;stop-opacity:0"/>
				<stop  offset="0.7333" style="stop-color:#F4F4F4;stop-opacity:0"/>
				<stop  offset="0.9255" style="stop-color:#FFFFFF;stop-opacity:0.1529"/>
				<stop  offset="1" style="stop-color:#7B7B7B"/>
			</linearGradient>
			<path fill-rule="evenodd" clip-rule="evenodd" fill="url(#SVGID_1_)" d="M16,14.15c0.03,0.03,0.05,0.07,0.05,0.1
				c3.9,2.77,8.33,5.08,13.3,6.95c0.03,0,0.07,0.02,0.1,0.05c1.93,0.73,3.95,1.4,6.05,2h0.05l0.05,0.05c0.13,0,0.28,0.02,0.45,0.05
				c0.03,0.03,0.1,0.07,0.2,0.1c11.03,3.13,23.8,4.7,38.3,4.7c2.03,0,4.07-0.03,6.1-0.1h0.1c5.33-0.17,10.42-0.57,15.25-1.2
				c7.77-1,14.87-2.6,21.3-4.8c0.07,0,0.12-0.02,0.15-0.05c0.67-0.23,1.32-0.47,1.95-0.7c0.77-0.3,1.52-0.58,2.25-0.85h0.05
				c8.57-3.47,13.77-7.42,15.6-11.85v98.65c0,7.4-2.37,13.83-7.1,19.3c-0.5,0.57-1.03,1.13-1.6,1.7c-0.07,0.07-0.13,0.13-0.2,0.2
				c-0.43,0.4-0.85,0.8-1.25,1.2c-4.33,3.77-9.78,6.45-16.35,8.05c-1.5,0.43-3,0.83-4.5,1.2c-9.23,2.27-19.82,3.4-31.75,3.4
				s-22.5-1.13-31.7-3.4c-1.4-0.33-2.75-0.7-4.05-1.1c-0.13,0-0.27-0.02-0.4-0.05l-0.1-0.05c-3.93-1.07-7.4-2.43-10.4-4.1
				c-1.97-1.03-3.72-2.18-5.25-3.45c-0.77-0.63-1.48-1.27-2.15-1.9c-0.57-0.57-1.08-1.13-1.55-1.7c-4.73-5.47-7.1-11.9-7.1-19.3
				v-96.3C13.15,12.08,14.53,13.15,16,14.15z"/>
		</g>
		<g>
			<linearGradient id="SVGID_2_" gradientUnits="userSpaceOnUse" x1="14.9502" y1="70.375" x2="21.1504" y2="70.375">
				<stop  offset="0" style="stop-color:#FFFFFF"/>
				<stop  offset="1" style="stop-color:#FFFFFF;stop-opacity:7.843138e-003"/>
			</linearGradient>
			<path fill-rule="evenodd" clip-rule="evenodd" fill="url(#SVGID_2_)" d="M21.15,20.95v103.3c-1.87-0.07-3.93-2.22-6.2-6.45V16.5
				L21.15,20.95z"/>
			<linearGradient id="SVGID_3_" gradientUnits="userSpaceOnUse" x1="20.3623" y1="56.6885" x2="78.2865" y2="107.2394">
				<stop  offset="0" style="stop-color:#FFFFFF;stop-opacity:0.298"/>
				<stop  offset="1" style="stop-color:#FFFFFF;stop-opacity:7.843138e-003"/>
			</linearGradient>
			<path fill-rule="evenodd" clip-rule="evenodd" fill="url(#SVGID_3_)" d="M59.55,30.7v106.7c-3.87,0.07-7.63-0.37-11.3-1.3
				c-2.8-0.73-6.17-1.97-10.1-3.7V27.2C45.55,29.4,52.68,30.57,59.55,30.7z"/>
			
				<linearGradient id="SVGID_4_" gradientUnits="userSpaceOnUse" x1="-811.3496" y1="-494.4746" x2="-805.1504" y2="-494.4746" gradientTransform="matrix(-1 0 0 -1 -676 -426)">
				<stop  offset="0" style="stop-color:#FFFFFF"/>
				<stop  offset="1" style="stop-color:#FFFFFF;stop-opacity:7.843138e-003"/>
			</linearGradient>
			<path fill-rule="evenodd" clip-rule="evenodd" fill="url(#SVGID_4_)" d="M129.15,18.75l6.2-4.45v99.9
				c-1.57,2.93-2.65,4.87-3.25,5.8c-1.13,1.73-2.12,2.62-2.95,2.65V18.75z"/>
		</g>
		<g>
			
				<radialGradient id="SVGID_5_" cx="73.25" cy="4.25" r="70" gradientTransform="matrix(1 0 0 0.3591 0 2.7238)" gradientUnits="userSpaceOnUse">
				<stop  offset="0" style="stop-color:#B4B4B4"/>
				<stop  offset="0.3098" style="stop-color:#E8E8E8;stop-opacity:0"/>
				<stop  offset="0.5412" style="stop-color:#FFFFFF"/>
				<stop  offset="0.8588" style="stop-color:#F4F4F4;stop-opacity:0"/>
				<stop  offset="0.9294" style="stop-color:#A6A6A6"/>
			</radialGradient>
			<path fill-rule="evenodd" clip-rule="evenodd" fill="url(#SVGID_5_)" d="M137.3,8.6c-1.83,4.43-7.03,8.38-15.6,11.85h-0.05
				c-0.73,0.27-1.48,0.55-2.25,0.85c-0.63,0.23-1.28,0.47-1.95,0.7c-0.03,0.03-0.08,0.05-0.15,0.05c-10.43,3.57-22.62,5.57-36.55,6
				h-0.1c-2.03,0.07-4.07,0.1-6.1,0.1c-14.5,0-27.27-1.57-38.3-4.7c-0.1-0.03-0.17-0.07-0.2-0.1c-0.17-0.03-0.32-0.05-0.45-0.05
				l-0.05-0.05H35.5c-2.1-0.6-4.12-1.27-6.05-2c-0.03-0.03-0.07-0.05-0.1-0.05c-4.97-1.87-9.4-4.18-13.3-6.95
				c0-0.03-0.02-0.07-0.05-0.1c-1.47-1-2.85-2.07-4.15-3.2c-0.03-0.03-0.06-0.06-0.1-0.1C11.08,10.18,10.03,9.57,8.6,9
				C7.37,8.5,5.85,8.02,4.05,7.55C4.32,6.98,4.63,6.4,5,5.8h4.8C9.77,5.87,9.73,5.92,9.7,5.95c1.67,0.23,4.33,2.18,8,5.85
				c1.8,1.77,6,4.12,12.6,7.05c0.7,0.23,1.43,0.5,2.2,0.8c1.23,0.4,2.48,0.82,3.75,1.25c10.87,3.33,23.63,5,38.3,5
				c2.07,0,4.1-0.03,6.1-0.1c13.8-0.43,25.78-2.48,35.95-6.15c1.43-0.53,2.8-1.07,4.1-1.6c8.17-3.53,12.6-7.62,13.3-12.25h4
				C137.9,6.77,137.67,7.7,137.3,8.6z"/>
			<linearGradient id="SVGID_6_" gradientUnits="userSpaceOnUse" x1="74.5215" y1="77.2051" x2="74.8752" y2="117.1176">
				<stop  offset="0" style="stop-color:#FFFFFF"/>
				<stop  offset="1" style="stop-color:#FFFFFF;stop-opacity:0"/>
			</linearGradient>
			<path fill-rule="evenodd" clip-rule="evenodd" fill="url(#SVGID_6_)" d="M129.85,125.85c-2.67,3.07-7.5,5.82-14.5,8.25
				c-1.4,0.5-2.82,0.97-4.25,1.4c-1.5,0.43-3.02,0.83-4.55,1.2c-9.23,2.17-19.78,3.25-31.65,3.25c-11.87,0-22.42-1.08-31.65-3.25
				c-1.53-0.37-3.05-0.77-4.55-1.2c-1.47-0.43-2.9-0.9-4.3-1.4c-6.97-2.43-11.78-5.18-14.45-8.25c-1.53-1.83-2.3-3.78-2.3-5.85
				c0-5.5,5.58-10.2,16.75-14.1c11.17-3.9,24.67-5.85,40.5-5.85c15.83,0,29.32,1.95,40.45,5.85c11.2,3.9,16.8,8.6,16.8,14.1
				C132.15,122.07,131.38,124.02,129.85,125.85z"/>
			
				<path fill-rule="evenodd" clip-rule="evenodd" fill="none" stroke="#FFFFFF" stroke-width="0.1" stroke-linecap="round" stroke-linejoin="round" stroke-miterlimit="3" d="
				M137.3,8.6v98.65c0,7.4-2.37,13.83-7.1,19.3c-0.5,0.57-1.03,1.13-1.6,1.7c-0.07,0.07-0.13,0.13-0.2,0.2
				c-0.43,0.4-0.85,0.8-1.25,1.2c-4.33,3.77-9.78,6.45-16.35,8.05c-1.5,0.43-3,0.83-4.5,1.2c-9.23,2.27-19.82,3.4-31.75,3.4
				s-22.5-1.13-31.7-3.4c-1.4-0.33-2.75-0.7-4.05-1.1c-0.13,0-0.27-0.02-0.4-0.05l-0.1-0.05c-3.93-1.07-7.4-2.43-10.4-4.1
				c-1.97-1.03-3.72-2.18-5.25-3.45c-0.77-0.63-1.48-1.27-2.15-1.9c-0.57-0.57-1.08-1.13-1.55-1.7c-4.73-5.47-7.1-11.9-7.1-19.3V11
				c-0.03-0.06-0.06-0.11-0.1-0.15C11.08,10.18,10.03,9.57,8.6,9C7.37,8.5,5.85,8.02,4.05,7.55C4.32,6.98,4.63,6.4,5,5.8
				 M35.5,23.25h0.05 M80.65,28.05h0.1 M121.65,20.45h0.05"/>
			
				<path fill-rule="evenodd" clip-rule="evenodd" fill="none" stroke="#FFFFFF" stroke-width="0.1" stroke-linecap="round" stroke-linejoin="round" stroke-miterlimit="3" stroke-opacity="0.6941" d="
				M138,5.8c-0.1,0.97-0.33,1.9-0.7,2.8"/>
			
				<path fill-rule="evenodd" clip-rule="evenodd" fill="none" stroke="#FFFFFF" stroke-width="0.1" stroke-linecap="round" stroke-linejoin="round" stroke-miterlimit="3" stroke-opacity="0.1373" d="
				M129.85,125.85c-2.67,3.07-7.5,5.82-14.5,8.25c-1.4,0.5-2.82,0.97-4.25,1.4c-1.5,0.43-3.02,0.83-4.55,1.2
				c-9.23,2.17-19.78,3.25-31.65,3.25c-11.87,0-22.42-1.08-31.65-3.25c-1.53-0.37-3.05-0.77-4.55-1.2c-1.47-0.43-2.9-0.9-4.3-1.4
				c-6.97-2.43-11.78-5.18-14.45-8.25c-1.53-1.83-2.3-3.78-2.3-5.85c0-5.5,5.58-10.2,16.75-14.1c11.17-3.9,24.67-5.85,40.5-5.85
				c15.83,0,29.32,1.95,40.45,5.85c11.2,3.9,16.8,8.6,16.8,14.1C132.15,122.07,131.38,124.02,129.85,125.85z"/>
		</g>
		<g>
			
				<radialGradient id="SVGID_7_" cx="74.9502" cy="27.75" r="12.2612" gradientTransform="matrix(0.9991 -0.0417 9.436935e-003 0.2263 -0.1968 24.5925)" gradientUnits="userSpaceOnUse">
				<stop  offset="0" style="stop-color:#FFFFFF"/>
				<stop  offset="0.0902" style="stop-color:#FFFFFF"/>
				<stop  offset="0.2627" style="stop-color:#FFFFFF;stop-opacity:0.5765"/>
				<stop  offset="0.4392" style="stop-color:#FFFFFF;stop-opacity:0.451"/>
				<stop  offset="0.5725" style="stop-color:#FFFFFF;stop-opacity:0.298"/>
				<stop  offset="0.8314" style="stop-color:#FFFFFF;stop-opacity:0.0471"/>
				<stop  offset="1" style="stop-color:#FFFFFF;stop-opacity:0"/>
			</radialGradient>
			<path fill-rule="evenodd" clip-rule="evenodd" fill="url(#SVGID_7_)" d="M82.75,25.7c2.2,0.37,3.32,0.9,3.35,1.6
				c0.03,0.7-1.03,1.33-3.2,1.9c-2.13,0.6-4.75,0.95-7.85,1.05c-3.03,0.13-5.65,0-7.85-0.4c-2.17-0.37-3.27-0.9-3.3-1.6
				c-0.03-0.7,1.02-1.33,3.15-1.9c2.17-0.6,4.77-0.97,7.8-1.1C77.95,25.15,80.58,25.3,82.75,25.7z"/>
		</g>
		<g>
			
				<radialGradient id="SVGID_8_" cx="61.8496" cy="27.9531" r="9.5456" gradientTransform="matrix(0.991 0.1336 -0.0298 0.2213 1.3878 13.5063)" gradientUnits="userSpaceOnUse">
				<stop  offset="0" style="stop-color:#FFFFFF"/>
				<stop  offset="0.0902" style="stop-color:#FFFFFF"/>
				<stop  offset="0.2627" style="stop-color:#FFFFFF;stop-opacity:0.5765"/>
				<stop  offset="0.4392" style="stop-color:#FFFFFF;stop-opacity:0.451"/>
				<stop  offset="0.5725" style="stop-color:#FFFFFF;stop-opacity:0.298"/>
				<stop  offset="0.8314" style="stop-color:#FFFFFF;stop-opacity:0.0471"/>
				<stop  offset="1" style="stop-color:#FFFFFF;stop-opacity:0"/>
			</radialGradient>
			<path fill-rule="evenodd" clip-rule="evenodd" fill="url(#SVGID_8_)" d="M56.05,25.8c1.73-0.17,3.77-0.08,6.1,0.25
				c2.4,0.3,4.4,0.75,6,1.35c1.6,0.63,2.37,1.2,2.3,1.7c-0.07,0.53-0.95,0.87-2.65,1c-1.73,0.17-3.8,0.1-6.2-0.2
				c-2.33-0.33-4.3-0.8-5.9-1.4c-1.67-0.6-2.47-1.17-2.4-1.7C53.37,26.3,54.28,25.97,56.05,25.8z"/>
		</g>
	</g>
</g>
</svg>
