<?xml version="1.0" encoding="utf-8"?>
<!-- Generator: Adobe Illustrator 16.0.0, SVG Export Plug-In . SVG Version: 6.00 Build 0)  -->
<!DOCTYPE svg PUBLIC "-//W3C//DTD SVG 1.1//EN" "http://www.w3.org/Graphics/SVG/1.1/DTD/svg11.dtd">
<svg version="1.1" id="Layer_1" xmlns="http://www.w3.org/2000/svg" xmlns:xlink="http://www.w3.org/1999/xlink" x="0px" y="0px"
	 width="55.5px" height="17.33px" viewBox="0 0 55.5 17.33" enable-background="new 0 0 55.5 17.33" xml:space="preserve">
<g>
	<path fill-rule="evenodd" clip-rule="evenodd" fill="#FFFFFF" d="M1.5,12.83c-0.07,1.5-0.08,1.5-0.05,0H1.5z M3,15.88l-0.05,0.05
		c-1.43-0.7-1.83-1.55-1.2-2.55c0.07,0.03,0.1,0.07,0.1,0.1C1.88,14.45,2.27,15.25,3,15.88z M4.05,11.83H4.1
		C4.07,12.9,4.05,12.9,4.05,11.83z M7.55,12.33l0.1,0.05c0.2,1.13-0.45,1.48-1.95,1.05c-0.03-0.03-0.03-0.07,0-0.1
		C6.07,12.63,6.68,12.3,7.55,12.33z M11.95,12.33c0.13,0,0.2,0.07,0.2,0.2c-0.17,2.4-1.6,2.92-4.3,1.55v-0.05
		C9.68,14.07,11.05,13.5,11.95,12.33z M14.2,13.43h0.05c0.17-0.03,0.3-0.13,0.4-0.3c0.2,0.57,0.12,0.92-0.25,1.05
		c-0.03,0.37-0.33,0.68-0.9,0.95c-4.77,2.2-7.98,1.63-9.65-1.7c0.17,0,0.28,0.03,0.35,0.1c3,2.73,6.05,2.92,9.15,0.55
		c0.23-0.2,0.47-0.4,0.7-0.6c0.03-0.03,0.07-0.07,0.1-0.1C14.15,13.42,14.17,13.43,14.2,13.43z M14.65,12.73
		c-0.87-0.2-1.33-0.42-1.4-0.65c-0.8-0.27-1.5-0.45-2.1-0.55c0.07-0.03,0.13-0.07,0.2-0.1c0.53-0.1,1.07-0.18,1.6-0.25
		c0.2,0.13,0.38,0.27,0.55,0.4c0.13-0.07,0.28-0.15,0.45-0.25c0.1,0.03,0.22,0.1,0.35,0.2c0.4,0.3,0.57,0.68,0.5,1.15
		C14.73,12.75,14.68,12.77,14.65,12.73z M52.9,5.83c0.73-0.63,1.12-1.43,1.15-2.4c0-0.03,0.03-0.07,0.1-0.1
		c0.63,1,0.23,1.85-1.2,2.55L52.9,5.83z M54.4,2.78h0.05C54.48,4.28,54.47,4.28,54.4,2.78z M48.05,4.03
		c-2.7,1.37-4.13,0.85-4.3-1.55c0-0.13,0.07-0.2,0.2-0.2c0.9,1.17,2.27,1.73,4.1,1.7V4.03z M50.2,3.28c0.03,0.03,0.03,0.07,0,0.1
		c-1.5,0.43-2.15,0.08-1.95-1.05l0.1-0.05C49.22,2.25,49.83,2.58,50.2,3.28z M52.05,3.38c-1.67,3.33-4.88,3.9-9.65,1.7
		c-0.57-0.27-0.87-0.58-0.9-0.95C41.13,4,41.05,3.65,41.25,3.08c0.1,0.17,0.23,0.27,0.4,0.3h0.05c0.03,0,0.05-0.02,0.05-0.05
		c0.03,0.03,0.07,0.07,0.1,0.1c0.23,0.2,0.47,0.4,0.7,0.6c3.1,2.37,6.15,2.18,9.15-0.55C51.77,3.42,51.88,3.38,52.05,3.38z
		 M51.8,1.78h0.05C51.85,2.85,51.83,2.85,51.8,1.78z M44.75,1.48c-0.6,0.1-1.3,0.28-2.1,0.55c-0.07,0.23-0.53,0.45-1.4,0.65
		c-0.03,0.03-0.08,0.02-0.15-0.05c-0.07-0.47,0.1-0.85,0.5-1.15c0.13-0.1,0.25-0.17,0.35-0.2c0.17,0.1,0.32,0.18,0.45,0.25
		c0.17-0.13,0.35-0.27,0.55-0.4c0.53,0.07,1.07,0.15,1.6,0.25C44.62,1.42,44.68,1.45,44.75,1.48z"/>
</g>
</svg>
