<?xml version="1.0" encoding="utf-8"?>
<!-- Generator: Adobe Illustrator 16.0.0, SVG Export Plug-In . SVG Version: 6.00 Build 0)  -->
<!DOCTYPE svg PUBLIC "-//W3C//DTD SVG 1.1//EN" "http://www.w3.org/Graphics/SVG/1.1/DTD/svg11.dtd">
<svg version="1.1" id="Layer_1" xmlns="http://www.w3.org/2000/svg" xmlns:xlink="http://www.w3.org/1999/xlink" x="0px" y="0px"
	 width="437.67px" height="105px" viewBox="0 0 437.67 105" enable-background="new 0 0 437.67 105" xml:space="preserve">
<g>
	<g>
		<path fill-opacity="0.0275" d="M126.71,71.28c0.32-0.22,0.66-0.34,1.02-0.35v4.45c-8.35,5.33-20.96,10.19-37.82,14.58
			c-16.09,4.3-25.45,7.86-28.08,10.67c-0.26,0.29-0.56,0.49-0.9,0.6v-5c4.34-2.93,13.65-6.3,27.92-10.13h0.02
			C106.03,81.65,118.64,76.71,126.71,71.28z M128.93,39.93l0.8-4h17.8c0.56,0,1.03,0.19,1.42,0.57c0.39,0.39,0.58,0.87,0.58,1.43
			s-0.19,1.03-0.58,1.42c-0.39,0.39-0.87,0.58-1.42,0.58H128.93z M320.11,89.18c-0.33,0.16-0.69,0.23-1.08,0.2
			c-17.11-1.31-29.54-5.81-37.3-13.52v-6.1c0.05,0.05,0.1,0.11,0.15,0.18c6.87,8.93,19.35,14.08,37.45,15.45
			c0.35,0.03,0.67,0.14,0.95,0.33c0.3-0.17,0.63-0.24,1-0.23c20.17,1.01,36.05,4.02,47.65,9.05c0.13,0.06,0.27,0.12,0.4,0.17
			c1.34,0.58,2.63,1.2,3.88,1.85c0.49,0.26,0.81,0.65,0.97,1.17c0.17,0.53,0.13,1.04-0.13,1.52c-0.26,0.49-0.65,0.81-1.17,0.98
			c-0.53,0.17-1.03,0.13-1.52-0.13c-0.79-0.42-1.59-0.82-2.43-1.2c-0.39-0.19-0.79-0.37-1.2-0.55c-11.3-4.93-26.85-7.89-46.65-8.88
			C320.71,89.46,320.39,89.37,320.11,89.18z M266.53,34.13h12.8l0.4,4h-13.2c-0.56,0-1.03-0.19-1.42-0.57
			c-0.39-0.39-0.58-0.87-0.58-1.43s0.19-1.03,0.58-1.42C265.5,34.32,265.98,34.13,266.53,34.13z"/>
	</g>
	<g>
		<path fill="#1B5C7C" d="M82.86,43.01c-0.04-0.06-0.09-0.13-0.13-0.2c-6.78-14.15-12.75-24.3-17.92-30.45
			c-4.41-5.22-8.04-7.23-10.9-6.02c-6.59,3.75-10.28,23.18-11.08,58.3c-0.02,0.55-0.22,1.02-0.63,1.4c-0.4,0.38-0.88,0.56-1.42,0.55
			c-0.55-0.01-1.02-0.22-1.4-0.63c-0.38-0.4-0.56-0.88-0.55-1.42c0.84-37.39,5.25-57.98,13.23-61.78c4.42-2.57,9.68-0.23,15.8,7.03
			c5.34,6.3,11.5,16.73,18.48,31.27c4.4,6.77,10.05,8.97,16.95,6.57c7.66-2.79,16.76-10.74,27.3-23.85
			c9.06-11.28,16.07-18.06,21.02-20.33c3.25-1.53,5.82-1.49,7.7,0.13c1.81,1.24,2.94,3.83,3.4,7.77c0.02,0.12,0.02,0.23,0.02,0.35
			c0,0.06-0.01,0.12-0.02,0.17c-0.05,0.16-0.24,0.31-0.58,0.45c-0.37,0.17-0.83,0.25-1.4,0.25s-1.05-0.08-1.45-0.25
			c-0.26-0.12-0.43-0.24-0.5-0.38c-0.01-0.05-0.02-0.1-0.03-0.15c0-0.04-0.01-0.08-0.02-0.13c-0.3-2.43-0.91-4.08-1.85-4.93
			c-0.87-0.5-2.06-0.39-3.57,0.33c-4.58,2.21-11.12,8.61-19.63,19.2c-11.16,13.89-20.84,22.26-29.05,25.1
			C95.73,54.6,88.47,51.81,82.86,43.01z M374.06,9.43c-3-3.24-6.68-3.73-11.02-1.45c-5.08,2.71-10.97,8.68-17.67,17.93
			c-7.43,11.97-16.28,18.06-26.55,18.3c-10.08,0.41-21.52-4.96-34.3-16.13c-0.12-0.11-0.23-0.23-0.33-0.35
			c-0.11-0.09-0.22-0.19-0.32-0.3c-10.41-11.41-18.18-18.29-23.3-20.65c-1.7-0.76-2.96-0.88-3.77-0.38
			c-0.82,0.91-1.22,2.67-1.2,5.27v0.05c0,0.02,0,0.05,0,0.08v0.02c-0.07,0.17-0.27,0.32-0.6,0.45c-0.37,0.17-0.83,0.25-1.4,0.25
			c-0.57,0-1.05-0.08-1.45-0.25c-0.27-0.13-0.43-0.25-0.5-0.35c-0.03-0.06-0.05-0.13-0.05-0.2c0-0.03,0-0.07,0-0.1
			c-0.03-4.15,0.82-6.89,2.55-8.22c1.76-1.79,4.45-1.87,8.05-0.25c5.46,2.39,13.67,9.58,24.63,21.57c0.06,0.07,0.12,0.13,0.18,0.2
			c0.06,0.05,0.11,0.1,0.17,0.15c11.79,10.31,22.29,15.36,31.5,15.15c9-0.38,16.79-5.9,23.38-16.55c0.02-0.04,0.05-0.08,0.08-0.13
			c7.19-9.91,13.55-16.29,19.07-19.13c6.26-3.27,11.54-2.49,15.85,2.32c7.64,8.19,11.82,30.28,12.55,66.28
			c0.01,0.55-0.17,1.03-0.55,1.42c-0.38,0.4-0.85,0.61-1.4,0.63c-0.55,0.01-1.03-0.17-1.42-0.55c-0.4-0.38-0.61-0.85-0.63-1.4
			C384.88,38.59,381.04,17.36,374.06,9.43z"/>
	</g>
	<g>
		<path fill="#B4CC75" d="M10.26,31.53c0.37-0.42,0.82-0.65,1.38-0.7c0.55-0.04,1.03,0.12,1.45,0.48s0.66,0.82,0.7,1.38
			c0.04,0.55-0.12,1.03-0.48,1.45c-0.54,0.62-1.03,1.29-1.48,2l-0.02,0.03c-2.69,4.27-4.4,10.22-5.13,17.88
			c-0.23,2.29-0.38,4.74-0.45,7.35c-0.06,3.81,0.05,7.96,0.35,12.43c0.03,0.55-0.13,1.03-0.5,1.45c-0.37,0.41-0.82,0.64-1.38,0.68
			c-0.55,0.03-1.03-0.13-1.45-0.5c-0.41-0.37-0.64-0.82-0.67-1.38c-0.3-4.59-0.42-8.84-0.35-12.75v-0.02
			c0.06-2.72,0.21-5.27,0.45-7.65c0.81-8.42,2.73-14.96,5.77-19.63l-0.02,0.03C8.99,33.14,9.59,32.31,10.26,31.53z M427.16,29.16
			c0.53,0.14,0.93,0.45,1.2,0.92c5.39,9.21,7.2,25.34,5.42,48.4c-0.04,0.55-0.28,1.01-0.7,1.38c-0.42,0.36-0.9,0.52-1.45,0.48
			s-1.01-0.28-1.38-0.7c-0.36-0.42-0.52-0.9-0.47-1.45c1.7-21.95,0.07-37.31-4.88-46.1c-0.28-0.48-0.34-0.99-0.2-1.52
			c0.14-0.53,0.45-0.93,0.92-1.2C426.12,29.08,426.62,29.01,427.16,29.16z"/>
	</g>
	<g>
		
			<radialGradient id="SVGID_1_" cx="274.2334" cy="104.168" r="6.4004" gradientTransform="matrix(1 0 0 -1 94 110)" gradientUnits="userSpaceOnUse">
			<stop  offset="0" style="stop-color:#FFFFFF"/>
			<stop  offset="1" style="stop-color:#FFFFFF;stop-opacity:0"/>
		</radialGradient>
		<path fill="url(#SVGID_1_)" d="M361.18,5.61c0.02-0.14,0.09-0.24,0.2-0.32c3.75-2.77,8.17-2.79,13.28-0.05
			c0.12,0.07,0.21,0.17,0.25,0.3s0.04,0.25-0.03,0.38c-0.07,0.12-0.17,0.21-0.3,0.25s-0.25,0.04-0.38-0.03
			c-4.7-2.53-8.77-2.54-12.22-0.05c-0.11,0.08-0.24,0.12-0.38,0.1c-0.14-0.02-0.24-0.09-0.33-0.2
			C361.2,5.87,361.17,5.74,361.18,5.61z"/>
		
			<radialGradient id="SVGID_2_" cx="288.4336" cy="72.9688" r="24.099" gradientTransform="matrix(1 0 0 -1 94 110)" gradientUnits="userSpaceOnUse">
			<stop  offset="0" style="stop-color:#FFFFFF"/>
			<stop  offset="1" style="stop-color:#FFFFFF;stop-opacity:0"/>
		</radialGradient>
		<path fill="url(#SVGID_2_)" d="M378.53,12.33c0.14,0.03,0.25,0.11,0.33,0.23c4.68,6.93,7.46,22.96,8.32,48.1
			c0.01,0.14-0.03,0.27-0.13,0.38c-0.09,0.1-0.21,0.15-0.35,0.15c-0.14,0.01-0.27-0.03-0.38-0.13c-0.1-0.1-0.15-0.21-0.15-0.35
			c-0.87-24.86-3.59-40.73-8.17-47.6c-0.08-0.12-0.1-0.24-0.08-0.38c0.03-0.14,0.11-0.25,0.23-0.32
			C378.27,12.33,378.4,12.31,378.53,12.33z"/>
		
			<radialGradient id="SVGID_3_" cx="228.7334" cy="71.8682" r="25.8125" gradientTransform="matrix(1 0 0 -1 94 110)" gradientUnits="userSpaceOnUse">
			<stop  offset="0" style="stop-color:#FFFFFF"/>
			<stop  offset="1" style="stop-color:#FFFFFF;stop-opacity:0"/>
		</radialGradient>
		<path fill="url(#SVGID_3_)" d="M346.23,22.11c0.02,0.14-0.02,0.26-0.1,0.38l-5.8,8.15c-0.01,0.02-0.02,0.03-0.03,0.05l-1.13,1.32
			l-0.02,0.03c-3.63,4.46-7.77,7.54-12.45,9.22c-2.31,0.81-4.8,1.31-7.45,1.48h-0.05c-7.69-0.23-15.07-2.67-22.15-7.32
			c-0.12-0.08-0.19-0.19-0.22-0.33c-0.03-0.13,0-0.26,0.08-0.38s0.19-0.19,0.33-0.23c0.13-0.03,0.26,0,0.38,0.08
			c6.91,4.54,14.1,6.93,21.6,7.17c2.55-0.16,4.93-0.64,7.15-1.42c4.51-1.64,8.52-4.63,12.02-8.95l0.03-0.02l1.15-1.35l-0.02,0.05
			l5.8-8.15c0.08-0.11,0.19-0.18,0.33-0.2c0.14-0.02,0.26,0.02,0.38,0.1C346.14,21.86,346.21,21.97,346.23,22.11z"/>
		
			<radialGradient id="SVGID_4_" cx="172.4326" cy="108.5674" r="17.1" gradientTransform="matrix(1 0 0 -1 94 110)" gradientUnits="userSpaceOnUse">
			<stop  offset="0" style="stop-color:#FFFFFF"/>
			<stop  offset="1" style="stop-color:#FFFFFF;stop-opacity:0"/>
		</radialGradient>
		<path fill="url(#SVGID_4_)" d="M256.61,5.13c-1.41,0.89-2.42,2.74-3.03,5.55c-0.03,0.14-0.11,0.25-0.22,0.32l-0.03,0.03
			c-0.11,0.06-0.23,0.08-0.35,0.05c-0.14-0.03-0.25-0.11-0.33-0.23c-0.08-0.12-0.1-0.24-0.08-0.38c0.21-0.95,0.46-1.8,0.75-2.55
			c0.68-1.75,1.6-2.97,2.75-3.65c1.64-1.04,3.76-0.96,6.35,0.25h0.03c4.64,2.17,11.97,8.75,22,19.72c0.09,0.1,0.13,0.22,0.13,0.35
			c-0.01,0.14-0.07,0.26-0.17,0.35c-0.1,0.09-0.22,0.13-0.35,0.13c-0.14-0.01-0.25-0.07-0.35-0.17
			c-9.9-10.83-17.14-17.32-21.7-19.48h0.03C259.82,4.41,258.01,4.31,256.61,5.13z"/>
		
			<radialGradient id="SVGID_5_" cx="-38.5171" cy="101.418" r="8.7" gradientTransform="matrix(1 0 0 -1 94 110)" gradientUnits="userSpaceOnUse">
			<stop  offset="0" style="stop-color:#FFFFFF"/>
			<stop  offset="1" style="stop-color:#FFFFFF;stop-opacity:0"/>
		</radialGradient>
		<path fill="url(#SVGID_5_)" d="M62.86,6.41c0.12,0.08,0.19,0.19,0.23,0.32c0.03,0.13,0,0.26-0.08,0.38
			c-0.08,0.12-0.19,0.19-0.32,0.23c-0.13,0.03-0.26,0-0.38-0.08c-3.41-2.27-6.21-3.15-8.4-2.65c-2.14,0.6-4.18,2.75-6.13,6.45
			c-0.07,0.12-0.17,0.21-0.3,0.25s-0.25,0.04-0.38-0.02c-0.12-0.07-0.21-0.17-0.25-0.3c-0.04-0.13-0.04-0.25,0.02-0.38
			c2.12-4.03,4.38-6.35,6.78-6.95C56.07,3.03,59.14,3.94,62.86,6.41z"/>
		
			<radialGradient id="SVGID_6_" cx="-50.9155" cy="69.7813" r="19.2881" gradientTransform="matrix(1 0 0 -1 94 110)" gradientUnits="userSpaceOnUse">
			<stop  offset="0" style="stop-color:#FFFFFF"/>
			<stop  offset="1" style="stop-color:#FFFFFF;stop-opacity:0"/>
		</radialGradient>
		<path fill="url(#SVGID_6_)" d="M45.53,20.86c0.06,0.12,0.07,0.25,0.02,0.38c-2.19,7.24-3.51,19.95-3.98,38.13
			c0,0.13-0.05,0.24-0.15,0.33c-0.1,0.1-0.21,0.15-0.35,0.15c-0.14,0-0.25-0.05-0.35-0.15c-0.1-0.11-0.15-0.23-0.15-0.38
			c0.47-18.29,1.81-31.09,4.02-38.38c0.04-0.13,0.13-0.23,0.25-0.3c0.12-0.06,0.25-0.07,0.38-0.02
			C45.37,20.65,45.47,20.73,45.53,20.86z"/>
		
			<radialGradient id="SVGID_7_" cx="4.333" cy="67.7676" r="14.6" gradientTransform="matrix(1 0 0 -1 94 110)" gradientUnits="userSpaceOnUse">
			<stop  offset="0" style="stop-color:#FFFFFF"/>
			<stop  offset="1" style="stop-color:#FFFFFF;stop-opacity:0"/>
		</radialGradient>
		<path fill="url(#SVGID_7_)" d="M83.38,40.83c-0.06-0.13-0.07-0.26-0.02-0.4c0.03-0.12,0.11-0.22,0.23-0.27
			c0.13-0.07,0.26-0.09,0.4-0.05c0.13,0.03,0.23,0.11,0.3,0.23c3.3,5.99,7.4,9.26,12.3,9.8c4.95,0.53,10.51-1.7,16.67-6.7
			c0.11-0.08,0.24-0.12,0.38-0.1c0.14,0.01,0.26,0.07,0.35,0.17c0.08,0.11,0.12,0.24,0.1,0.38c-0.01,0.14-0.07,0.26-0.17,0.35
			c-6.43,5.2-12.24,7.5-17.43,6.9C91.25,50.61,86.88,47.17,83.38,40.83z"/>
		
			<radialGradient id="SVGID_8_" cx="61.583" cy="102.918" r="7.3" gradientTransform="matrix(1 0 0 -1 94 110)" gradientUnits="userSpaceOnUse">
			<stop  offset="0" style="stop-color:#FFFFFF"/>
			<stop  offset="1" style="stop-color:#FFFFFF;stop-opacity:0"/>
		</radialGradient>
		<path fill="url(#SVGID_8_)" d="M147.83,8.58c-0.14,0-0.25-0.05-0.35-0.15s-0.15-0.21-0.15-0.35c0-0.14,0.05-0.25,0.15-0.35
			c3.49-3.36,6.29-4.86,8.38-4.5c2.04,0.28,3.85,2.42,5.45,6.43c0.04,0.13,0.04,0.25-0.02,0.38s-0.15,0.22-0.28,0.27
			c-0.13,0.04-0.25,0.04-0.38-0.02s-0.22-0.15-0.27-0.28c-1.4-3.53-2.95-5.46-4.65-5.77c-1.84-0.24-4.35,1.16-7.52,4.2
			C148.08,8.53,147.97,8.58,147.83,8.58z"/>
	</g>
</g>
</svg>
