<?xml version="1.0" encoding="utf-8"?>
<!-- Generator: Adobe Illustrator 16.0.0, SVG Export Plug-In . SVG Version: 6.00 Build 0)  -->
<!DOCTYPE svg PUBLIC "-//W3C//DTD SVG 1.1//EN" "http://www.w3.org/Graphics/SVG/1.1/DTD/svg11.dtd">
<svg version="1.1" id="Layer_1" xmlns="http://www.w3.org/2000/svg" xmlns:xlink="http://www.w3.org/1999/xlink" x="0px" y="0px"
	 width="423.5px" height="158.5px" viewBox="0 0 423.5 158.5" enable-background="new 0 0 423.5 158.5" xml:space="preserve">
<g>
	<g>
		<path fill-rule="evenodd" clip-rule="evenodd" fill="#666666" d="M355,35.13c-0.04,0.03-0.07,0.05-0.1,0.08
			C254.86,116,167.67,123.26,93.33,57l-0.03-0.02C70.12,35.81,51.13,21.84,36.33,15.05C22.47,8.72,12.52,8.97,6.48,15.8
			c-0.36,0.42-0.82,0.65-1.38,0.7c-0.55,0.04-1.03-0.12-1.45-0.48C3.23,15.66,3,15.2,2.95,14.65c-0.04-0.55,0.12-1.03,0.47-1.45
			c6.98-8.54,18.5-9.14,34.55-1.8c15.09,6.88,34.42,21.08,58,42.6L96,54.02c72.83,64.56,158.26,57.27,256.3-21.85
			c17.44-15.69,31.77-25.29,43-28.8c12.13-3.83,20.87-1.04,26.23,8.38c0.28,0.48,0.34,0.99,0.2,1.52c-0.14,0.53-0.45,0.93-0.92,1.2
			c-0.48,0.28-0.99,0.34-1.52,0.2c-0.53-0.14-0.93-0.45-1.2-0.92c-4.44-7.52-11.63-9.71-21.55-6.58
			C385.71,10.63,371.86,19.95,355,35.13z"/>
	</g>
	<g>
		<path fill-rule="evenodd" clip-rule="evenodd" fill-opacity="0.0275" d="M367.83,116.4c0.55,0,1.01,0.21,1.4,0.6
			c0.39,0.4,0.58,0.87,0.58,1.42c0,0.55-0.21,1.01-0.6,1.4c-0.4,0.39-0.87,0.58-1.42,0.58l-11.93-0.05l-3.17,8.8
			c-0.14,0.38-0.39,0.69-0.72,0.92c-0.34,0.24-0.71,0.37-1.13,0.38c-3.79,0.05-6.51,0.06-8.17,0.02l-4.38,11.25
			c-0.14,0.33-0.34,0.6-0.63,0.83c-0.27,0.22-0.58,0.37-0.93,0.42c-94.13,15.87-180.17,16.03-258.12,0.48
			c-0.34-0.06-0.64-0.21-0.9-0.42c-0.26-0.23-0.46-0.52-0.58-0.85l-5.42-15.05l-10.03,0.08c-0.4,0.01-0.76-0.09-1.1-0.3
			c-0.32-0.21-0.57-0.5-0.73-0.85L57.52,121H45.8c-0.56,0-1.03-0.19-1.42-0.58c-0.39-0.39-0.58-0.87-0.58-1.42
			c0-0.56,0.19-1.03,0.58-1.42c0.39-0.39,0.87-0.58,1.42-0.58h13c0.39,0,0.74,0.11,1.08,0.33c0.32,0.2,0.56,0.48,0.73,0.83
			l2.32,5.05l10.15-0.1c0.43-0.01,0.82,0.11,1.17,0.35c0.34,0.25,0.59,0.57,0.73,0.97l5.52,15.35
			c76.91,15.16,161.71,14.97,254.42-0.55l4.5-11.55c0.17-0.42,0.44-0.74,0.83-0.97c0.38-0.24,0.8-0.34,1.25-0.3
			c0.91,0.09,3.55,0.11,7.9,0.07l3.17-8.82c0.14-0.39,0.38-0.71,0.72-0.95c0.36-0.24,0.75-0.36,1.17-0.35L367.83,116.4z"/>
	</g>
	<g>
		<radialGradient id="SVGID_1_" cx="399.75" cy="13.7998" r="22.15" gradientUnits="userSpaceOnUse">
			<stop  offset="0" style="stop-color:#FFFFFF"/>
			<stop  offset="1" style="stop-color:#FFFFFF;stop-opacity:0"/>
		</radialGradient>
		<path fill-rule="evenodd" clip-rule="evenodd" fill="url(#SVGID_1_)" d="M404.05,4.1c-7.51,0.18-16.16,3.76-25.95,10.75
			c-0.11,0.08-0.24,0.12-0.38,0.1c-0.14-0.02-0.24-0.09-0.32-0.2c-0.08-0.11-0.12-0.24-0.1-0.38c0.02-0.14,0.09-0.24,0.2-0.33
			c10.01-7.14,18.86-10.79,26.55-10.95c7.94-0.17,13.69,3.33,17.25,10.52c0.06,0.12,0.07,0.25,0.03,0.38
			c-0.04,0.13-0.13,0.23-0.25,0.3c-0.12,0.06-0.25,0.07-0.38,0.03c-0.13-0.04-0.23-0.13-0.3-0.25
			C417.02,7.26,411.58,3.94,404.05,4.1z"/>
		<radialGradient id="SVGID_2_" cx="203.75" cy="93.5" r="70.25" gradientUnits="userSpaceOnUse">
			<stop  offset="0" style="stop-color:#FFFFFF"/>
			<stop  offset="1" style="stop-color:#FFFFFF;stop-opacity:0"/>
		</radialGradient>
		<path fill-rule="evenodd" clip-rule="evenodd" fill="url(#SVGID_2_)" d="M276.22,83.2c-0.05,0.12-0.15,0.2-0.27,0.25
			c-52.69,22.24-99.67,22.24-140.93,0c-0.12-0.07-0.21-0.17-0.25-0.3c-0.04-0.13-0.04-0.25,0.02-0.38c0.07-0.12,0.17-0.21,0.3-0.25
			c0.13-0.04,0.25-0.04,0.38,0.02c41.01,22.09,87.7,22.09,140.07,0c0.13-0.06,0.27-0.07,0.4-0.02c0.12,0.05,0.2,0.15,0.25,0.27
			C276.26,82.93,276.27,83.07,276.22,83.2z"/>
		<radialGradient id="SVGID_3_" cx="78.1499" cy="44.1499" r="43.7" gradientUnits="userSpaceOnUse">
			<stop  offset="0" style="stop-color:#FFFFFF"/>
			<stop  offset="1" style="stop-color:#FFFFFF;stop-opacity:0"/>
		</radialGradient>
		<path fill-rule="evenodd" clip-rule="evenodd" fill="url(#SVGID_3_)" d="M43.08,16c0.07-0.12,0.17-0.19,0.3-0.23
			c0.13-0.04,0.26-0.02,0.38,0.05c9.12,5.2,19.63,12.56,31.52,22.07h-0.02c10.37,8.27,22.82,19.02,37.33,32.23
			c0.11,0.09,0.16,0.21,0.17,0.35c0.01,0.13-0.03,0.25-0.13,0.35c-0.09,0.11-0.21,0.16-0.35,0.17c-0.13,0.01-0.25-0.03-0.35-0.13
			C97.43,57.69,85.01,46.96,74.65,38.7c-11.85-9.49-22.31-16.83-31.4-22.03c-0.12-0.07-0.19-0.17-0.23-0.3
			C42.99,16.24,43.01,16.12,43.08,16z"/>
		<radialGradient id="SVGID_4_" cx="12.6001" cy="10.1499" r="13" gradientUnits="userSpaceOnUse">
			<stop  offset="0" style="stop-color:#FFFFFF"/>
			<stop  offset="1" style="stop-color:#FFFFFF;stop-opacity:0"/>
		</radialGradient>
		<path fill-rule="evenodd" clip-rule="evenodd" fill="url(#SVGID_4_)" d="M28.2,10.13c-5.89-1.8-10.95-2.12-15.18-0.95
			c-4.2,1.2-7.45,3.86-9.75,7.98c-0.07,0.12-0.17,0.19-0.3,0.23c-0.13,0.04-0.26,0.02-0.38-0.05c-0.12-0.07-0.19-0.17-0.23-0.3
			c-0.04-0.13-0.02-0.26,0.05-0.38c2.44-4.35,5.89-7.16,10.35-8.42c4.38-1.23,9.62-0.92,15.73,0.95c0.13,0.04,0.23,0.13,0.3,0.25
			c0.06,0.12,0.07,0.25,0.03,0.38c-0.04,0.13-0.13,0.23-0.25,0.3C28.46,10.16,28.33,10.17,28.2,10.13z"/>
	</g>
</g>
</svg>
