<?xml version="1.0" encoding="utf-8"?>
<!-- Generator: Adobe Illustrator 16.0.0, SVG Export Plug-In . SVG Version: 6.00 Build 0)  -->
<!DOCTYPE svg PUBLIC "-//W3C//DTD SVG 1.1//EN" "http://www.w3.org/Graphics/SVG/1.1/DTD/svg11.dtd">
<svg version="1.1" id="Layer_1" xmlns="http://www.w3.org/2000/svg" xmlns:xlink="http://www.w3.org/1999/xlink" x="0px" y="0px"
	 width="136px" height="96px" viewBox="0 0 136 96" enable-background="new 0 0 136 96" xml:space="preserve">
<g>
	<g>
		<linearGradient id="SVGID_1_" gradientUnits="userSpaceOnUse" x1="68.7236" y1="-5.1504" x2="67.0575" y2="36.725">
			<stop  offset="0" style="stop-color:#FFFFFF"/>
			<stop  offset="1" style="stop-color:#FFFFFF;stop-opacity:0.3765"/>
		</linearGradient>
		<path fill-rule="evenodd" clip-rule="evenodd" fill="url(#SVGID_1_)" d="M66.38,49.6c-17.24-0.01-31.65-1.97-43.25-5.9
			C11.53,39.77,5.8,35.19,5.95,29.95v-0.03c-0.06-0.39-0.1-0.8-0.1-1.22c0-0.39,0.04-0.78,0.1-1.18c0.18-1.17,0.6-2.3,1.27-3.38
			c2.46-3.87,7.92-7.31,16.38-10.3c12.1-4.27,26.7-6.4,43.8-6.4c17.13,0,31.73,2.13,43.8,6.4c8.49,2.99,13.95,6.41,16.38,10.25
			c0.49,0.77,0.84,1.52,1.05,2.25c0.2,0.73,0.25,2.6,0.15,5.6c-0.1,3.01-6.22,6.71-18.35,11.1C98.3,47.43,83.62,49.61,66.38,49.6z"
			/>
		<radialGradient id="SVGID_2_" cx="64.75" cy="50.2002" r="76.75" gradientUnits="userSpaceOnUse">
			<stop  offset="0" style="stop-color:#FFFFFF;stop-opacity:0"/>
			<stop  offset="0.5529" style="stop-color:#FFFFFF;stop-opacity:0"/>
			<stop  offset="1" style="stop-color:#FFFFFF"/>
		</radialGradient>
		<path fill-rule="evenodd" clip-rule="evenodd" fill="url(#SVGID_2_)" d="M5.2,32.75c2.09,4.67,8.05,8.73,17.9,12.2
			c12.24,4.33,27,6.5,44.3,6.5c17.33,0,32.1-2.17,44.3-6.5c10.17-3.57,16.21-7.78,18.1-12.65v24.4c0,7.4-2.35,13.83-7.05,19.3
			c-0.5,0.57-1.03,1.13-1.6,1.7c-0.07,0.07-0.13,0.13-0.2,0.2c-0.43,0.4-0.85,0.8-1.25,1.2c-4.3,3.77-9.72,6.45-16.25,8.05
			c-1.47,0.43-2.95,0.83-4.45,1.2c-9.17,2.27-19.68,3.4-31.55,3.4c-11.83,0-22.32-1.13-31.45-3.4c-1.4-0.33-2.75-0.7-4.05-1.1
			c-0.13,0-0.27-0.02-0.4-0.05l-0.1-0.05c-3.9-1.07-7.33-2.43-10.3-4.1c-1.97-1.03-3.72-2.18-5.25-3.45
			c-0.77-0.63-1.47-1.27-2.1-1.9c-0.57-0.57-1.08-1.13-1.55-1.7C7.55,70.53,5.2,64.1,5.2,56.7V32.75z"/>
		<path fill-rule="evenodd" clip-rule="evenodd" fill="#FFFFFF" d="M5.2,32.75c-0.38-0.84-0.63-1.7-0.75-2.58
			c-0.07-0.47-0.1-0.96-0.1-1.47c0-0.48,0.03-0.95,0.1-1.43c0.22-1.36,0.73-2.67,1.52-3.92c2.54-4.13,9.14-7.95,19.82-11.48
			c10.69-3.52,24.68-5.29,41.98-5.33c17.3-0.03,31.17,1.73,41.63,5.28c10.45,3.55,16.92,7.38,19.42,11.47c0.58,0.9,1,1.82,1.25,2.75
			c0.25,0.87,0.38,1.75,0.38,2.65c0.02,1.23-0.2,2.43-0.65,3.6c-1.89,4.87-7.93,9.08-18.1,12.65c-12.2,4.33-26.97,6.5-44.3,6.5
			c-17.3,0-32.06-2.17-44.3-6.5C13.25,41.48,7.29,37.42,5.2,32.75z M66.38,49.6c17.24,0.01,31.92-2.17,44.05-6.55
			c12.13-4.39,18.25-8.09,18.35-11.1c0.1-3,0.05-4.87-0.15-5.6c-0.21-0.73-0.56-1.48-1.05-2.25c-2.43-3.84-7.89-7.26-16.38-10.25
			c-12.07-4.27-26.67-6.4-43.8-6.4c-17.1,0-31.7,2.13-43.8,6.4c-8.46,2.99-13.91,6.43-16.38,10.3c-0.67,1.08-1.1,2.2-1.27,3.38
			c-0.06,0.39-0.1,0.78-0.1,1.18c0,0.42,0.04,0.83,0.1,1.22v0.03c-0.15,5.24,5.58,9.82,17.17,13.75
			C34.72,47.63,49.14,49.59,66.38,49.6z"/>
	</g>
	<g>
		<g>
			<path fill-rule="evenodd" clip-rule="evenodd" fill="#FFFFFF" d="M124.6,24c0.03-0.23,0.12-0.5,0.25-0.8
				c0.03-0.03,0.08-0.07,0.15-0.1c0.6,0.3,1.02,0.73,1.25,1.3c0.07,0.17,0.12,0.33,0.15,0.5c0.03,0.07,0.05,0.13,0.05,0.2
				c-0.03,0-0.07,0.02-0.1,0.05c-0.63,0.13-1.1,0.13-1.4,0C124.85,24.75,124.73,24.37,124.6,24z M68.25,7.6
				c-1.4,1.53-2.72,1.4-3.95-0.4c-0.03-0.03,0.05-0.07,0.25-0.1c1.3-0.2,2.48-0.08,3.55,0.35C68.17,7.48,68.22,7.53,68.25,7.6z
				 M128.4,25.35c0.47,0.47,0.5,1.15,0.1,2.05l-0.05,0.05c-0.03,0.03-0.07,0.07-0.1,0.1c-1.3-0.73-1.57-1.62-0.8-2.65v-0.05
				C127.92,24.98,128.2,25.15,128.4,25.35z M11.15,17.9c1.87-1.1,3.8-1.85,5.8-2.25c0.43-0.64,1.11-0.99,2.02-1.05
				c-0.14,0.09-0.28,0.19-0.43,0.3c0.29-0.08,0.59-0.17,0.88-0.25c0.56,1.46-0.28,2-2.52,1.6c-0.53,1.03-1.9,2.18-4.1,3.45
				c-0.17,0.1-0.52,0.23-1.05,0.4c-0.63-0.3-0.88-0.85-0.75-1.65C11.03,18.28,11.08,18.1,11.15,17.9z M7.4,28.35
				c2.1,1.47,4.08,3.03,5.95,4.7v0.1c-3.1-0.4-5.13-1.98-6.1-4.75L7.4,28.35z"/>
			<linearGradient id="SVGID_3_" gradientUnits="userSpaceOnUse" x1="15.73" y1="24.6865" x2="129.5459" y2="24.6865">
				<stop  offset="0" style="stop-color:#FFFFFF"/>
				<stop  offset="1" style="stop-color:#FFFFFF;stop-opacity:0.3765"/>
			</linearGradient>
			<path fill-rule="evenodd" clip-rule="evenodd" fill="url(#SVGID_3_)" d="M126.25,24.4c-0.23-0.57-0.65-1-1.25-1.3
				c-0.07,0.03-0.12,0.07-0.15,0.1c-0.13,0.3-0.22,0.57-0.25,0.8c-0.87-2.4-2.65-4.43-5.35-6.1l0.15-0.05
				C123.5,19.45,125.78,21.63,126.25,24.4z M110.5,18.85c5.33,0.33,7.58,1.8,6.75,4.4c-2.07-2.27-4.5-3.72-7.3-4.35L110.5,18.85z
				 M113.95,26.9c-1.3,0.6-2.23,1.52-2.8,2.75c3.73-0.3,5.25,0.87,4.55,3.5c-0.27,0.93-0.93,1.53-2,1.8
				c-6.87,1.77-13.6,2.12-20.2,1.05c7.83,0.4,15.17-0.87,22-3.8c-1.7-0.57-3.53-1.07-5.5-1.5c-0.17-0.03-0.3-0.12-0.4-0.25
				c0.73-2.8,2.7-4.7,5.9-5.7c0.5-0.17,0.97-0.38,1.4-0.65c-0.13,0.23-0.28,0.47-0.45,0.7C115.92,25.7,115.08,26.4,113.95,26.9z
				 M68.25,7.6c-0.03-0.07-0.08-0.12-0.15-0.15c-1.07-0.43-2.25-0.55-3.55-0.35c-0.2,0.03-0.28,0.07-0.25,0.1
				C65.53,9,66.85,9.13,68.25,7.6z M70.3,9.35C70.27,9.18,70.25,9,70.25,8.8c-5.53-0.03-10.97-0.33-16.3-0.9
				c0.8-0.97,2.13-1.27,4-0.9c1.77,0.33,3.37,0.28,4.8-0.15c3.67-1.2,6.62-0.83,8.85,1.1c0.17,0.13,0.23,0.33,0.2,0.6
				c0.1,0.07,0.18,0.08,0.25,0.05c2.63-0.83,4.72-0.62,6.25,0.65c0.07,0.07,0.12,0.17,0.15,0.3c-1.47,1.67-3.75,2.02-6.85,1.05
				c-0.2-0.07-0.38-0.13-0.55-0.2V9.35H70.3z M29.2,14.7c-0.13-0.4-0.37-0.7-0.7-0.9c-0.13,0.03-0.23,0.05-0.3,0.05
				c-0.17,0-0.33,0.02-0.5,0.05c4.47-2.87,9.8-4.43,16-4.7c1.33-0.07,2.58-0.27,3.75-0.6c1.17-0.43,2.03-0.25,2.6,0.55
				c0.03,0.03,0.05,0.08,0.05,0.15C42.83,10.03,35.87,11.83,29.2,14.7z M25.8,15.25l-0.05,0.05c0.06,0.06,0.12,0.12,0.17,0.18
				c-0.06-0.06-0.14-0.12-0.22-0.18C25.73,15.27,25.77,15.25,25.8,15.25z M58.7,10.4c-0.03-0.17,0.05-0.27,0.25-0.3
				c0.87-0.27,1.42-0.03,1.65,0.7c0,0.07,0,0.12,0,0.15C59.67,11.92,59.03,11.73,58.7,10.4z M54.25,43.2
				C44.78,42.93,35.9,40.87,27.6,37c0.8,0.2,1.65,0.38,2.55,0.55c8.2,1.5,16.23,2.98,24.1,4.45c2.03,0.37,4.05,0.73,6.05,1.1
				C58.27,43.2,56.25,43.23,54.25,43.2z M128.4,25.35c0.07-0.23,0.17-0.45,0.3-0.65c0.03-0.03,0.08-0.07,0.15-0.1
				c0.77,0.9,0.9,2,0.4,3.3c-0.03,0.03-0.08,0.08-0.15,0.15c-0.27-0.17-0.48-0.37-0.65-0.6l0.05-0.05
				C128.9,26.5,128.87,25.82,128.4,25.35z M124.95,25.15c0.3,0.13,0.77,0.13,1.4,0c0.03,1.07-0.17,2.22-0.6,3.45
				c-0.1,0.27-0.27,0.25-0.5-0.05C125.32,27.35,125.22,26.22,124.95,25.15z M17.7,31.35c-1.8-1.23-2.37-2.95-1.7-5.15
				c0.27-0.9,0.8-1.52,1.6-1.85c-0.47,3.43,0.28,6.23,2.25,8.4C19.15,32.28,18.43,31.82,17.7,31.35z M32.85,28.85
				c-0.03,0.07-0.08,0.13-0.15,0.2c3.97,1.67,7.98,3,12.05,4c-4.53,0.37-9.03-0.75-13.5-3.35c-0.1-0.5,0.03-0.9,0.4-1.2
				c0.5-0.43,0.67-0.9,0.5-1.4c-2.03-0.3-2.78-1.02-2.25-2.15c0.03-0.03,0.1-0.07,0.2-0.1C33.1,25.08,34.02,26.42,32.85,28.85z"/>
			<linearGradient id="SVGID_4_" gradientUnits="userSpaceOnUse" x1="65.0498" y1="19.564" x2="71.7998" y2="19.564">
				<stop  offset="0" style="stop-color:#FFFFFF"/>
				<stop  offset="1" style="stop-color:#FFFFFF;stop-opacity:0.3765"/>
			</linearGradient>
			<path fill-rule="evenodd" clip-rule="evenodd" fill="url(#SVGID_4_)" d="M65.3,16.05c0.77,0.23,1.03,0.72,0.8,1.45
				c0,0.03,0.03,0.08,0.1,0.15c2.13-0.03,4,0.27,5.6,0.9v0.35c-0.8,0.37-1.53,0.63-2.2,0.8c-0.27,0.03-0.52,0.08-0.75,0.15
				c-2.4,0.33-3.67-0.87-3.8-3.6C65.05,16.12,65.13,16.05,65.3,16.05z M66.3,19.8c1.4,0.03,2.6,0.22,3.6,0.55
				c0.03,0,0.05,0.03,0.05,0.1c-0.7,0.5-1.28,0.83-1.75,1c0.53,0.23,0.92,0.67,1.15,1.3c0.03,0.03,0.03,0.08,0,0.15
				c-1.67,0.47-2.25,0.02-1.75-1.35c-0.8,0-1.27-0.58-1.4-1.75H66.3z"/>
			<linearGradient id="SVGID_5_" gradientUnits="userSpaceOnUse" x1="-520" y1="13.625" x2="-519.999" y2="13.625">
				<stop  offset="0" style="stop-color:#FFFFFF"/>
				<stop  offset="1" style="stop-color:#FFFFFF;stop-opacity:0.3765"/>
			</linearGradient>
			<path fill-rule="evenodd" clip-rule="evenodd" fill="url(#SVGID_5_)" d="M71.05,13.8v-0.35c0.13,0.03,0.27,0.08,0.4,0.15
				C71.32,13.67,71.18,13.73,71.05,13.8z"/>
			<linearGradient id="SVGID_6_" gradientUnits="userSpaceOnUse" x1="-518.7998" y1="14.9751" x2="-518.7988" y2="14.9751">
				<stop  offset="0" style="stop-color:#FFFFFF"/>
				<stop  offset="1" style="stop-color:#FFFFFF;stop-opacity:0.3765"/>
			</linearGradient>
			<path fill-rule="evenodd" clip-rule="evenodd" fill="url(#SVGID_6_)" d="M71.8,15.5c-0.43-0.27-0.68-0.62-0.75-1.05h0.75V15.5z"
				/>
			<linearGradient id="SVGID_7_" gradientUnits="userSpaceOnUse" x1="21.7002" y1="14.75" x2="29.3252" y2="14.75">
				<stop  offset="0" style="stop-color:#FFFFFF"/>
				<stop  offset="1" style="stop-color:#FFFFFF;stop-opacity:0.3765"/>
			</linearGradient>
			<path fill-rule="evenodd" clip-rule="evenodd" fill="url(#SVGID_7_)" d="M25.92,15.48c-0.06-0.06-0.12-0.12-0.17-0.18l0.05-0.05
				c0.33-0.77,0.97-1.22,1.9-1.35c0.17-0.03,0.33-0.05,0.5-0.05c0.07,0,0.17-0.02,0.3-0.05c0.33,0.2,0.57,0.5,0.7,0.9
				c0.07,0.17,0.1,0.35,0.1,0.55c0.03,0.07,0.03,0.12,0,0.15c-1.2,0.87-2.32,0.9-3.35,0.1L25.92,15.48z M22.4,14.3
				c0.87,0.1,1.65,0.28,2.35,0.55c0.03,0,0.05,0.03,0.05,0.1c-2.07,1.4-2.87,1.2-2.4-0.6V14.3z M23.9,15.55
				c0.7,0.4,0.83,0.98,0.4,1.75c-0.03,0.07-0.08,0.12-0.15,0.15c-1.03-0.3-1.18-0.9-0.45-1.8C23.77,15.58,23.83,15.55,23.9,15.55z
				 M26.9,12.05c0.22,2.26-1.51,2.89-5.2,1.9C23.68,13.33,25.41,12.69,26.9,12.05z"/>
		</g>
	</g>
</g>
</svg>
