<?xml version="1.0" encoding="utf-8"?>
<!-- Generator: Adobe Illustrator 16.0.0, SVG Export Plug-In . SVG Version: 6.00 Build 0)  -->
<!DOCTYPE svg PUBLIC "-//W3C//DTD SVG 1.1//EN" "http://www.w3.org/Graphics/SVG/1.1/DTD/svg11.dtd">
<svg version="1.1" id="Layer_1" xmlns="http://www.w3.org/2000/svg" xmlns:xlink="http://www.w3.org/1999/xlink" x="0px" y="0px"
	 width="53.88px" height="275px" viewBox="0 0 53.88 275" enable-background="new 0 0 53.88 275" xml:space="preserve">
<g>
	<g>
		<g>
			<path fill-rule="evenodd" clip-rule="evenodd" d="M47.78,243.42c3.53,0,5.29,1.77,5.29,5.3v13.38c0,3.48-1.77,5.22-5.29,5.22
				H6.22c-3.48,0-5.22-1.74-5.22-5.22v-13.38c0-3.53,1.74-5.3,5.22-5.3C20.1,249.4,33.95,249.4,47.78,243.42z"/>
		</g>
		<g>
			<g>
				
					<linearGradient id="SVGID_1_" gradientUnits="userSpaceOnUse" x1="-334.812" y1="-44.25" x2="-310.3125" y2="-44.25" gradientTransform="matrix(1.4709 0 0 1.4709 500.5323 325.4225)">
					<stop  offset="0" style="stop-color:#000000"/>
					<stop  offset="0.1961" style="stop-color:#101010"/>
					<stop  offset="0.4" style="stop-color:#29292C"/>
					<stop  offset="0.7294" style="stop-color:#000000"/>
					<stop  offset="1" style="stop-color:#010101"/>
				</linearGradient>
				<path fill-rule="evenodd" clip-rule="evenodd" fill="url(#SVGID_1_)" d="M8.13,247.46c0.64,0.25,1.59,0.52,2.87,0.81
					c0.49,0.05,1.05,0.12,1.69,0.22c3.63,0.54,7.99,0.81,13.09,0.81c3.73,0,7.08-0.15,10.08-0.44c0.39-0.05,0.78-0.07,1.18-0.07
					c0.54-0.15,1.1-0.25,1.69-0.29c0.39-0.05,0.76-0.1,1.1-0.15c1.81-0.34,3.06-0.69,3.75-1.03c0.1-0.05,0.2-0.1,0.29-0.15
					c0.05-0.05,0.1-0.1,0.15-0.15c0.05,0.05,0.07,0.1,0.07,0.15l-0.07,0.44v23.83c-0.64,0.49-2.3,0.93-5,1.32
					c-3.58,0.59-7.89,0.88-12.94,0.88c-4.95,0-9.22-0.29-12.8-0.88c-3.14-0.49-4.88-1.05-5.22-1.69v-23.61H8.13z"/>
				<path fill-rule="evenodd" clip-rule="evenodd" fill="#111111" d="M43.88,247.17c-0.1,0.05-0.2,0.1-0.29,0.15
					c-0.69,0.34-1.94,0.69-3.75,1.03l0.22-0.15c-0.1-0.98-0.12-1.69-0.07-2.13C42.82,246.41,44.12,246.78,43.88,247.17z M11,248.27
					c-1.27-0.29-2.23-0.56-2.87-0.81c0-0.49,0.98-0.79,2.94-0.88L11,248.27z"/>
				
					<linearGradient id="SVGID_2_" gradientUnits="userSpaceOnUse" x1="-334.8125" y1="-53.0249" x2="-310.3125" y2="-53.0249" gradientTransform="matrix(1.4709 0 0 1.4709 500.5323 325.4225)">
					<stop  offset="0" style="stop-color:#282828"/>
					<stop  offset="0.0667" style="stop-color:#282828"/>
					<stop  offset="0.1961" style="stop-color:#101010"/>
					<stop  offset="0.2863" style="stop-color:#656568"/>
					<stop  offset="0.3451" style="stop-color:#D1D1D8"/>
					<stop  offset="0.3765" style="stop-color:#D1D1D8"/>
					<stop  offset="0.5255" style="stop-color:#2B2927"/>
					<stop  offset="1" style="stop-color:#010101"/>
				</linearGradient>
				<path fill-rule="evenodd" clip-rule="evenodd" fill="url(#SVGID_2_)" d="M8.13,247.46H8.06v-0.07
					C8.11,247.39,8.13,247.42,8.13,247.46z"/>
			</g>
		</g>
	</g>
	<g>
		<g>
			<path fill-rule="evenodd" clip-rule="evenodd" d="M47.78,7.64c3.53,0,5.29,1.76,5.29,5.29v13.39c0,3.48-1.77,5.22-5.29,5.22H6.22
				C2.74,31.54,1,29.8,1,26.32V12.93C1,9.4,2.74,7.64,6.22,7.64H47.78z"/>
		</g>
		<g>
			<g>
				
					<linearGradient id="SVGID_3_" gradientUnits="userSpaceOnUse" x1="-332" y1="-214.3252" x2="-310.925" y2="-214.3252" gradientTransform="matrix(1.4709 0 0 1.4709 500.5323 325.4225)">
					<stop  offset="0" style="stop-color:#000000"/>
					<stop  offset="0.3843" style="stop-color:#312D2D"/>
					<stop  offset="0.6667" style="stop-color:#0E0C0C"/>
					<stop  offset="1" style="stop-color:#000000"/>
				</linearGradient>
				<path fill-rule="evenodd" clip-rule="evenodd" fill="url(#SVGID_3_)" d="M35.27,18.23l-6.84-0.22c-0.1,0-0.17,0-0.22,0h-0.15
					c-0.1,0-0.17,0-0.22,0l-4.34,0.07c-0.44,0.05-0.88,0.07-1.32,0.07c-2.79,0.15-5.34,0.37-7.65,0.66c-0.2,0.05-0.39,0.1-0.59,0.15
					l-1.69,0.22V3.37c0-0.59,1.54-1.1,4.63-1.54c1.57-0.25,3.33-0.39,5.29-0.44c1.32-0.1,2.7-0.17,4.12-0.22c0.59,0,1.13,0,1.62,0
					c0.2,0,0.37,0,0.51,0c4.07,0,7.58,0.22,10.52,0.66c2.26,0.29,3.68,0.64,4.27,1.03v16.18c-0.39-0.05-0.88-0.12-1.47-0.22
					C39.78,18.52,37.63,18.33,35.27,18.23z"/>
				
					<linearGradient id="SVGID_4_" gradientUnits="userSpaceOnUse" x1="-334.1626" y1="-205.2749" x2="-308.562" y2="-205.2749" gradientTransform="matrix(1.4709 0 0 1.4709 500.5323 325.4225)">
					<stop  offset="0" style="stop-color:#282828"/>
					<stop  offset="0.0667" style="stop-color:#282828"/>
					<stop  offset="0.2745" style="stop-color:#101010"/>
					<stop  offset="0.4392" style="stop-color:#423F3E"/>
					<stop  offset="0.5255" style="stop-color:#2B2927"/>
					<stop  offset="1" style="stop-color:#010101"/>
				</linearGradient>
				<path fill-rule="evenodd" clip-rule="evenodd" fill="url(#SVGID_4_)" d="M46.6,28.74c-0.29-0.49-1.67-0.93-4.12-1.32
					c-0.1-0.05-0.25-0.07-0.44-0.07c-0.05,0-0.1,0-0.15,0c-0.25-0.1-0.51-0.17-0.81-0.22c-3.58-0.44-7.92-0.66-13.02-0.66
					c-0.1,0-0.17,0-0.22,0c-2.11,0-4.07,0.02-5.88,0.07c-3.09,0.15-5.47,0.32-7.13,0.52c-1.08,0.15-1.81,0.27-2.21,0.37
					c-0.25,0-0.37,0.02-0.37,0.07c-2.14,0.49-3.22,0.98-3.24,1.47V20.8c0-0.64,1.08-1.18,3.24-1.62l1.69-0.22
					c0.2-0.05,0.39-0.1,0.59-0.15c2.3-0.29,4.85-0.51,7.65-0.66c0.44,0,0.88-0.02,1.32-0.07l4.34-0.07c0.05,0,0.12,0,0.22,0h0.15
					c0.05,0,0.12,0,0.22,0l6.84,0.22c2.11,0.15,4.04,0.34,5.81,0.59c0.49,0.1,0.96,0.17,1.4,0.22c2.5,0.44,3.9,0.96,4.19,1.54
					l-0.07,0.44V28.74z"/>
				<path fill-rule="evenodd" clip-rule="evenodd" d="M12.62,27.42v3.09l-0.37-0.07c-2.16-0.49-3.24-0.98-3.24-1.47
					c0.02-0.49,1.1-0.98,3.24-1.47C12.25,27.44,12.38,27.42,12.62,27.42z M42.04,27.35c0.2,0,0.34,0.02,0.44,0.07
					c2.45,0.39,3.82,0.83,4.12,1.32v0.44c-0.29,0.49-1.62,0.93-3.97,1.32c-0.05,0-0.1,0-0.15,0v0.07l-0.44,0.15V27.35z"/>
				
					<path fill-rule="evenodd" clip-rule="evenodd" fill="none" stroke="#000000" stroke-width="0.1" stroke-linecap="round" stroke-linejoin="round" stroke-miterlimit="3" d="
					M46.6,29.19c-0.29,0.49-1.62,0.93-3.97,1.32c-0.05,0-0.1,0-0.15,0"/>
			</g>
		</g>
	</g>
</g>
</svg>
