<?xml version="1.0" encoding="utf-8"?>
<!-- Generator: Adobe Illustrator 16.0.0, SVG Export Plug-In . SVG Version: 6.00 Build 0)  -->
<!DOCTYPE svg PUBLIC "-//W3C//DTD SVG 1.1//EN" "http://www.w3.org/Graphics/SVG/1.1/DTD/svg11.dtd">
<svg version="1.1" id="Layer_1" xmlns="http://www.w3.org/2000/svg" xmlns:xlink="http://www.w3.org/1999/xlink" x="0px" y="0px"
	 width="200.8px" height="564px" viewBox="0 0 200.8 564" enable-background="new 0 0 200.8 564" xml:space="preserve">
<g>
	<g>
		<path fill-rule="evenodd" clip-rule="evenodd" d="M174.75,556.25l10.45,4.9H19.65c-6.13-2.13-10.65-3.83-13.55-5.1L174.75,556.25z
			"/>
	</g>
	<g>
		<g>
			<path fill-rule="evenodd" clip-rule="evenodd" fill-opacity="0.251" d="M173.1,53.5l-0.2,498.85l21.05,7.7H21.9L2.7,554.7
				L2,538.3h19.05V63.55c7.97-27.8,14.08-33.92,18.35-18.35h129.25L173.1,53.5z"/>
		</g>
		<g>
			<path fill-rule="evenodd" clip-rule="evenodd" fill-opacity="0.4784" d="M143.35,51.75L143.1,550.6l17.2,7.7H20.2l-15.65-5.35
				l-0.6-16.4H19.5V61.8C26,34,30.97,27.87,34.4,43.4h105.25L143.35,51.75z"/>
		</g>
		<g>
			<linearGradient id="SVGID_1_" gradientUnits="userSpaceOnUse" x1="29.9873" y1="-193.0225" x2="43.2636" y2="556.5994">
				<stop  offset="0" style="stop-color:#B4B8C0"/>
				<stop  offset="0.5333" style="stop-color:#E1E2E6"/>
				<stop  offset="1" style="stop-color:#9D9FA6"/>
			</linearGradient>
			<path fill-rule="evenodd" clip-rule="evenodd" fill="url(#SVGID_1_)" d="M30.35,538.15V9.45v-0.3H46.2v6.05v37.25v4.95v477.45
				c-0.07,0-0.12,0.02-0.15,0.05h0.15v2.95V538v2.65H30.35l0.15-2.5H30.35z"/>
			<polygon fill-rule="evenodd" clip-rule="evenodd" fill="#534D45" points="135.25,57.4 95.4,57.4 46.2,57.4 46.2,52.45 
				139.05,52.45 147.45,52.45 147.45,52.9 135.7,57.4 			"/>
			<linearGradient id="SVGID_2_" gradientUnits="userSpaceOnUse" x1="160.5723" y1="35.2808" x2="56.373" y2="33.0482">
				<stop  offset="0" style="stop-color:#485362"/>
				<stop  offset="0.1176" style="stop-color:#6D7683"/>
				<stop  offset="0.1608" style="stop-color:#CED2DB"/>
				<stop  offset="1" style="stop-color:#A5ADB8"/>
			</linearGradient>
			<rect x="46.2" y="15.2" fill-rule="evenodd" clip-rule="evenodd" fill="url(#SVGID_2_)" width="92.85" height="37.25"/>
			<linearGradient id="SVGID_3_" gradientUnits="userSpaceOnUse" x1="10.8247" y1="-39.709" x2="38.1425" y2="528.4127">
				<stop  offset="0" style="stop-color:#8C8F98"/>
				<stop  offset="1" style="stop-color:#797C86"/>
			</linearGradient>
			<polygon fill-rule="evenodd" clip-rule="evenodd" fill="url(#SVGID_3_)" points="30.35,9.45 30.35,538.15 30.35,538.6 
				30.35,540.65 21.6,538.15 21.45,538.15 21.45,40.4 			"/>
			<linearGradient id="SVGID_4_" gradientUnits="userSpaceOnUse" x1="53.4854" y1="57.4414" x2="127.9574" y2="537.7668">
				<stop  offset="0" style="stop-color:#777777"/>
				<stop  offset="0.5882" style="stop-color:#717C86"/>
				<stop  offset="1" style="stop-color:#4E5054"/>
			</linearGradient>
			<path fill-rule="evenodd" clip-rule="evenodd" fill="url(#SVGID_4_)" d="M46.2,534.85V57.4h49.2h39.85v215.55v0.1v264.8h-88.7
				H46.2v-2.95V534.85z M80.65,404.45c0.07,0,0.15,0.02,0.25,0.05v-1.3C80.8,403.23,80.72,403.65,80.65,404.45z"/>
			<path fill-rule="evenodd" clip-rule="evenodd" fill="#3F3F3A" d="M80.65,404.45c0.07-0.8,0.15-1.22,0.25-1.25v1.3
				C80.8,404.47,80.72,404.45,80.65,404.45z"/>
			<polygon fill-rule="evenodd" clip-rule="evenodd" fill="#A9A9AA" points="30.35,538.6 30.35,538.15 30.5,538.15 			"/>
			<polygon fill-rule="evenodd" clip-rule="evenodd" fill="#797C86" points="6.7,538.25 18.95,542.2 18.8,542.4 18.8,560.5 
				6.7,555.95 			"/>
			<path fill-rule="evenodd" clip-rule="evenodd" fill="#B6B8BB" d="M181.65,542.55l-162.7-0.35L6.7,538.25v-0.1h14.75h0.15
				l8.75,2.5H46.2h101.25h0.6h15.3v-0.9c-0.07-0.03-0.1-0.07-0.1-0.1l0.1,0.05v-1.4L181.65,542.55z"/>
			<linearGradient id="SVGID_5_" gradientUnits="userSpaceOnUse" x1="-77.6978" y1="71.5522" x2="101.0068" y2="553.6348">
				<stop  offset="0" style="stop-color:#DADDE8"/>
				<stop  offset="0.5804" style="stop-color:#D6D7DE"/>
				<stop  offset="1" style="stop-color:#989EAB"/>
			</linearGradient>
			<polygon fill-rule="evenodd" clip-rule="evenodd" fill="url(#SVGID_5_)" points="18.95,542.2 181.65,542.55 181.6,560.65 
				19.05,560.6 18.8,560.5 18.8,542.4 			"/>
			<path fill-rule="evenodd" clip-rule="evenodd" fill="#CDCFD1" d="M18.8,560.5l0.25,0.1H18.8V560.5z M0,584.85l1.9-1.7v2L0,584.85
				z"/>
			<path fill-rule="evenodd" clip-rule="evenodd" fill="#696A72" d="M141.7,537.85l0.6-1.25l-0.6,1.35V537.85z M46.2,537.85h0.35
				c-0.13,0.07-0.25,0.12-0.35,0.15V537.85z M46.2,534.9h-0.15c0.03-0.03,0.08-0.05,0.15-0.05V534.9z"/>
			<path fill-rule="evenodd" clip-rule="evenodd" fill="#2D2E2F" d="M46.2,538c0.1-0.03,0.22-0.08,0.35-0.15h88.7v0.1l11.85,2.5
				l0.35,0.2H46.2V538z"/>
			<linearGradient id="SVGID_6_" gradientUnits="userSpaceOnUse" x1="137.4766" y1="33.8237" x2="146.9033" y2="33.8262">
				<stop  offset="0" style="stop-color:#CBCFD8"/>
				<stop  offset="0.6902" style="stop-color:#C7CCD5"/>
				<stop  offset="0.8627" style="stop-color:#ACB3BE"/>
				<stop  offset="1" style="stop-color:#505B6B"/>
			</linearGradient>
			<polygon fill-rule="evenodd" clip-rule="evenodd" fill="url(#SVGID_6_)" points="138.05,52.45 138.05,15.2 145.25,15.2 
				147.45,15.2 147.45,52.45 			"/>
			<polygon fill-rule="evenodd" clip-rule="evenodd" fill="#677383" points="147.45,15.2 145.25,15.2 147.45,9.15 			"/>
			<linearGradient id="SVGID_7_" gradientUnits="userSpaceOnUse" x1="60.9902" y1="20.1416" x2="239.6948" y2="502.2242">
				<stop  offset="0" style="stop-color:#DADDE8"/>
				<stop  offset="0.5804" style="stop-color:#D6D7DE"/>
				<stop  offset="1" style="stop-color:#BDC0CA"/>
			</linearGradient>
			<path fill-rule="evenodd" clip-rule="evenodd" fill="url(#SVGID_7_)" d="M147.45,540.5V52.9v-0.45V15.2V9.15h15.9V538.3v1.4
				l-0.1-0.05c0,0.03,0.03,0.07,0.1,0.1v0.9h-15.3L147.45,540.5z"/>
			<linearGradient id="SVGID_8_" gradientUnits="userSpaceOnUse" x1="74.7373" y1="67.5889" x2="200.7068" y2="498.4405">
				<stop  offset="0" style="stop-color:#5E5E5E"/>
				<stop  offset="0.5882" style="stop-color:#626262"/>
				<stop  offset="1" style="stop-color:#302625"/>
			</linearGradient>
			<path fill-rule="evenodd" clip-rule="evenodd" fill="url(#SVGID_8_)" d="M135.25,537.85v-264.8v-0.1V57.4h0.45l11.75-4.5v487.6
				l-0.35-0.05l-11.85-2.5V537.85z M141.7,537.85v0.1l0.6-1.35L141.7,537.85z"/>
			<polygon fill-rule="evenodd" clip-rule="evenodd" fill="#423633" points="147.1,540.45 147.45,540.5 147.45,540.65 			"/>
			<polygon fill-rule="evenodd" clip-rule="evenodd" fill="#6C573D" points="147.45,540.65 147.45,540.5 148.05,540.65 			"/>
			
				<path fill-rule="evenodd" clip-rule="evenodd" fill="none" stroke="#000000" stroke-width="0.1" stroke-linecap="round" stroke-linejoin="round" stroke-miterlimit="3" d="
				M135.25,273.05v-0.1 M135.25,537.85v0.1"/>
		</g>
		<g>
			<line fill-rule="evenodd" clip-rule="evenodd" fill="none" x1="30.95" y1="13.8" x2="30.95" y2="503.8"/>
			<line fill-rule="evenodd" clip-rule="evenodd" fill="none" x1="18.9" y1="542.15" x2="173.8" y2="542.15"/>
		</g>
		<g>
			<g>
				<path fill-rule="evenodd" clip-rule="evenodd" d="M118.85,80.85c0.83-0.83,1.82-1.35,2.95-1.55c1.13,0.2,2.12,0.72,2.95,1.55
					c1.07,1.07,1.6,2.4,1.6,4c0,0.87-0.17,1.67-0.5,2.4c-0.07,0.07-0.1,0.12-0.1,0.15c-0.13-0.23-0.43-0.8-0.9-1.7
					c0.07,0.2,0.12,0.4,0.15,0.6c0.17,0.7,0.3,1.28,0.4,1.75c-0.17,0.17-0.32,0.35-0.45,0.55c-0.1,0.1-0.17,0.17-0.2,0.2
					c-0.6,0.6-1.27,1.03-2,1.3c-0.3,0.1-0.62,0.18-0.95,0.25c-0.1,0-0.2-0.03-0.3-0.1c-1.03-0.23-1.92-0.72-2.65-1.45
					c-1.07-1.07-1.6-2.38-1.6-3.95C117.25,83.25,117.78,81.92,118.85,80.85z"/>
			</g>
			<g>
				<path fill-rule="evenodd" clip-rule="evenodd" fill="#9F9F9F" d="M122.8,90.5c-0.37,0-0.7-0.05-1-0.15
					c0.33-0.07,0.65-0.15,0.95-0.25C122.75,90.2,122.77,90.33,122.8,90.5c-0.03-0.17-0.05-0.3-0.05-0.4c0.73-0.27,1.4-0.7,2-1.3
					c0.03-0.03,0.1-0.1,0.2-0.2c0.13-0.2,0.28-0.38,0.45-0.55c0.2,1.13,0.2,1.75,0,1.85C124.6,90.3,123.73,90.5,122.8,90.5z"/>
				
					<path fill-rule="evenodd" clip-rule="evenodd" fill="none" stroke="#000000" stroke-linecap="round" stroke-linejoin="round" stroke-miterlimit="3" d="
					M125,86.3c0.17,0.53,0.32,1.1,0.45,1.7c1.33,5.87,2.15,12.03,2.45,18.5c0.63,14.63,0.92,32.32,0.85,53.05
					c-0.43,21.23-1.63,40.2-3.6,56.9c-0.37,3.53-0.8,6.95-1.3,10.25c-2.7,12-9.08,17.25-19.15,15.75 M122.75,90.1
					c0,0.1,0.02,0.23,0.05,0.4c2.07,11.87,2.68,27.18,1.85,45.95c-1.03,21.67-1.67,33.48-1.9,35.45
					c-0.63,11.57-1.27,18.85-1.9,21.85c-0.7,2.93-1.63,5.17-2.8,6.7c-1.23,1.5-2.47,2.53-3.7,3.1c-1.27,0.53-4.25,0.77-8.95,0.7
					 M122.75,90.1c-0.3-1.73-0.65-3.4-1.05-5 M103.6,144.05c12.77,4.3,18.73-13.63,17.9-53.8c-0.07-1.9-0.15-3.88-0.25-5.95"/>
			</g>
		</g>
		<g>
			<g>
				<g>
					<path fill-rule="evenodd" clip-rule="evenodd" fill="#9F9F9F" d="M121.8,507.05c1.13-0.2,2.12-0.72,2.95-1.55
						c1.07-1.07,1.6-2.38,1.6-3.95c0-0.9-0.17-1.72-0.5-2.45c-0.3-0.6-0.67-1.12-1.1-1.55c-0.57-0.53-1.17-0.92-1.8-1.15
						c-0.03-0.17-0.05-0.32-0.05-0.45c1.27,0,2.37,0.37,3.3,1.1c0.2,0.13,0.4,0.3,0.6,0.5l0.05,0.1c1.1,1.03,1.65,2.33,1.65,3.9
						s-0.57,2.88-1.7,3.95c-1.1,1.13-2.43,1.7-4,1.7C122.43,507.2,122.1,507.15,121.8,507.05z"/>
					<path fill-rule="evenodd" clip-rule="evenodd" d="M121.8,507.05c-1.13-0.2-2.12-0.72-2.95-1.55c-1.07-1.07-1.6-2.38-1.6-3.95
						c0-1.5,0.48-2.75,1.45-3.75c0.03-0.1,0.08-0.18,0.15-0.25c0.83-0.83,1.82-1.35,2.95-1.55c0.37,0.07,0.75,0.2,1.15,0.4
						c0.63,0.23,1.23,0.62,1.8,1.15c0.43,0.43,0.8,0.95,1.1,1.55c0.33,0.73,0.5,1.55,0.5,2.45c0,1.57-0.53,2.88-1.6,3.95
						C123.92,506.33,122.93,506.85,121.8,507.05z"/>
				</g>
			</g>
			<g>
				<path fill-rule="evenodd" clip-rule="evenodd" fill="#9F9F9F" d="M122.9,495.95c0,0.13,0.02,0.28,0.05,0.45
					c-0.4-0.2-0.78-0.33-1.15-0.4c0.3-0.03,0.63-0.05,1-0.05H122.9z"/>
				
					<path fill-rule="evenodd" clip-rule="evenodd" fill="none" stroke="#000000" stroke-linecap="round" stroke-linejoin="round" stroke-miterlimit="3" d="
					M104.65,346.2c8.1,0.93,12.95,3.83,14.55,8.7c1.43,3.97,2.37,9.3,2.8,16c0.2,2.87,0.3,5.98,0.3,9.35c-0.4,21.2,0.6,46.57,3,76.1
					c1.43,18.37,1.48,33.23,0.15,44.6 M122.9,495.95c-1-6.1-1.57-14.9-1.7-26.4c-0.3-16.87-1.7-30.15-4.2-39.85
					c-2.83-10.93-3.5-24.13-2-39.6c1.43-6.5-2.6-8.9-12.1-7.2 M123.5,502.35c-1.87-1.33-3.47-2.85-4.8-4.55
					c-0.8-1-1.48-2.03-2.05-3.1c-1.67-3.03-2.55-9.75-2.65-20.15c-0.17-10.47-0.07-18.95,0.3-25.45c0.3-6.53-2.98-9.65-9.85-9.35
					 M122.9,495.95c0,0.13,0.02,0.28,0.05,0.45c0.43,2.63,0.95,4.73,1.55,6.3"/>
			</g>
		</g>
	</g>
</g>
</svg>
