<?xml version="1.0" encoding="utf-8"?>
<!-- Generator: Adobe Illustrator 16.0.0, SVG Export Plug-In . SVG Version: 6.00 Build 0)  -->
<!DOCTYPE svg PUBLIC "-//W3C//DTD SVG 1.1//EN" "http://www.w3.org/Graphics/SVG/1.1/DTD/svg11.dtd">
<svg version="1.1" id="Layer_2" xmlns="http://www.w3.org/2000/svg" xmlns:xlink="http://www.w3.org/1999/xlink" x="0px" y="0px"
	 width="12.44px" height="57.13px" viewBox="0 0 12.44 57.13" enable-background="new 0 0 12.44 57.13" xml:space="preserve">
<g>
	<g>
		<path fill-rule="evenodd" clip-rule="evenodd" d="M2.39,3.71c0-0.93,0.32-1.75,0.95-2.45c0.63-0.63,1.42-0.95,2.35-0.95
			c0.9,0,1.67,0.32,2.3,0.95c0.7,0.7,1.05,1.52,1.05,2.45c0,0.93-0.35,1.72-1.05,2.35c-0.63,0.63-1.4,0.95-2.3,0.95
			c-0.93,0-1.72-0.32-2.35-0.95S2.39,4.65,2.39,3.71z"/>
	</g>
	<g>
		<g>
			<path fill-rule="evenodd" clip-rule="evenodd" fill-opacity="0.349" d="M9.97,47.74l-0.03-0.02c-0.84-0.37-1.81-0.55-2.9-0.55
				c-1.08,0-1.99,0.18-2.73,0.55c-0.02,0.01-0.05,0.02-0.07,0.02c-0.3,0.1-0.55,0.25-0.73,0.45c-0.02,0.02-0.03,0.03-0.05,0.05
				c-0.12,0.11-0.23,0.21-0.33,0.3c0.49,0.37,0.88,0.63,1.17,0.78H4.29c0.75,0.3,1.66,0.45,2.75,0.45c1.1,0,2.08-0.16,2.92-0.48
				l-0.03,0.03c0.52-0.23,0.81-0.5,0.85-0.8C10.76,48.19,10.48,47.94,9.97,47.74z M3.44,53.76c-0.13,0.09-0.24,0.19-0.35,0.27
				c0.52,0.37,0.93,0.63,1.22,0.78H4.29c0.75,0.3,1.66,0.45,2.75,0.45c1.1,0,2.08-0.16,2.92-0.48c0.51-0.27,0.78-0.55,0.83-0.82
				c-0.04-0.3-0.33-0.57-0.85-0.8v0.03c-0.84-0.35-1.81-0.52-2.9-0.53c-1.09,0-2,0.17-2.75,0.5h0.02c-0.35,0.17-0.62,0.35-0.82,0.55
				C3.48,53.73,3.46,53.75,3.44,53.76z M4.29,42.26h0.02c-0.35,0.17-0.62,0.35-0.82,0.55c-0.02,0.02-0.03,0.03-0.05,0.05
				c-0.12,0.09-0.23,0.19-0.32,0.3c0.5,0.38,0.9,0.65,1.2,0.8H4.29c0.75,0.3,1.66,0.45,2.75,0.45c1.1,0,2.08-0.16,2.92-0.47
				c0.5-0.27,0.78-0.53,0.83-0.78c-0.04-0.33-0.31-0.62-0.83-0.88c-0.85-0.31-1.82-0.47-2.92-0.47C5.96,41.81,5.04,41.96,4.29,42.26
				z M10.79,37.61c-0.05-0.27-0.33-0.52-0.85-0.75c-0.84-0.37-1.81-0.55-2.9-0.55c-1.08,0-1.99,0.18-2.73,0.55
				c-0.02,0.01-0.05,0.02-0.07,0.03c-0.32,0.1-0.57,0.25-0.75,0.42c-0.14,0.14-0.27,0.27-0.38,0.38c0.47,0.37,0.85,0.6,1.13,0.7
				c0.03,0.01,0.05,0.02,0.07,0.02c0.74,0.37,1.65,0.55,2.73,0.55c1.09,0,2.06-0.18,2.9-0.55C10.47,38.18,10.75,37.92,10.79,37.61z
				 M3.44,32.01c-0.12,0.09-0.23,0.19-0.32,0.3c0.5,0.35,0.9,0.6,1.2,0.75H4.29c0.75,0.33,1.66,0.5,2.75,0.5
				c1.09,0,2.06-0.18,2.9-0.53v0.03c0.52-0.23,0.81-0.5,0.85-0.8c-0.04-0.33-0.32-0.62-0.85-0.85l0.03,0.03
				c-0.85-0.31-1.82-0.47-2.92-0.47c-1.09,0-2,0.15-2.75,0.45h0.02c-0.35,0.17-0.62,0.35-0.82,0.55C3.48,31.98,3.46,32,3.44,32.01z
				 M3.44,26.56c-0.12,0.09-0.23,0.18-0.32,0.28c0.47,0.37,0.85,0.6,1.13,0.7c0.03,0.01,0.05,0.02,0.07,0.03
				c0.74,0.37,1.65,0.55,2.73,0.55c1.09,0,2.06-0.18,2.9-0.55c0.52-0.23,0.81-0.5,0.85-0.8c-0.04-0.3-0.33-0.57-0.85-0.8l0.03,0.02
				c-0.85-0.31-1.82-0.47-2.92-0.47c-1.09,0-2,0.15-2.75,0.45h0.02c-0.35,0.17-0.62,0.35-0.82,0.55
				C3.48,26.53,3.46,26.55,3.44,26.56z M4.32,22.21H4.29c0.75,0.3,1.66,0.45,2.75,0.45c1.1,0,2.08-0.16,2.92-0.47
				c0.51-0.28,0.79-0.57,0.83-0.88c-0.05-0.27-0.32-0.53-0.83-0.78c-0.85-0.31-1.82-0.47-2.92-0.47c-1.09,0-2,0.15-2.75,0.45h0.02
				c-0.33,0.17-0.6,0.36-0.8,0.58c-0.03,0.04-0.06,0.07-0.1,0.1c-0.11,0.07-0.21,0.13-0.3,0.2C3.63,21.79,4.03,22.07,4.32,22.21z
				 M9.97,16.74c0.51-0.27,0.78-0.55,0.83-0.83c-0.04-0.3-0.33-0.57-0.85-0.8v0.03c-0.84-0.35-1.81-0.52-2.9-0.53
				c-1.09,0-2,0.17-2.75,0.5h0.02c-0.35,0.17-0.62,0.35-0.82,0.55c-0.02,0.02-0.03,0.04-0.05,0.05c-0.13,0.09-0.24,0.19-0.35,0.27
				c0.52,0.37,0.93,0.63,1.22,0.78H4.29c0.75,0.3,1.66,0.45,2.75,0.45C8.14,17.21,9.12,17.05,9.97,16.74z M4.32,9.66
				c-0.35,0.17-0.62,0.35-0.82,0.55c-0.02,0.02-0.03,0.03-0.05,0.05c-0.13,0.1-0.25,0.2-0.35,0.3c0.5,0.37,0.91,0.62,1.2,0.75
				c0.75,0.33,1.66,0.5,2.75,0.5c1.09,0,2.06-0.18,2.9-0.52l-0.02,0.02c0.54-0.26,0.83-0.54,0.88-0.85c-0.04-0.3-0.33-0.57-0.85-0.8
				l0.03,0.02C9.12,9.37,8.14,9.21,7.04,9.21c-1.09,0-2,0.15-2.75,0.45H4.32z M1.52,10.31C0.71,9.45,0.66,8.47,1.37,7.39
				c0.58-0.91,1.79-1.91,3.63-3C5.11,4.32,5.24,4.3,5.37,4.34C5.5,4.37,5.6,4.45,5.67,4.56c0.07,0.12,0.09,0.24,0.05,0.38
				c-0.03,0.13-0.11,0.23-0.22,0.3c-1.66,0.98-2.76,1.87-3.3,2.68c-0.41,0.63-0.38,1.2,0.08,1.7C2.29,9.64,2.3,9.66,2.32,9.69
				c0.03,0.04,0.06,0.09,0.1,0.13C2.55,9.7,2.69,9.58,2.84,9.46c0.26-0.25,0.6-0.48,1.03-0.7h0.02C4.75,8.4,5.8,8.22,7.04,8.21
				c1.23,0,2.32,0.17,3.27,0.52l0.03,0.03c1.01,0.44,1.5,1,1.45,1.7c0.05,0.69-0.43,1.27-1.42,1.75l-0.03,0.02
				c-0.96,0.39-2.06,0.58-3.3,0.58c-1.25,0-2.3-0.2-3.15-0.6c-0.36-0.14-0.85-0.45-1.47-0.92c-0.06,0.06-0.12,0.12-0.17,0.17
				c-0.03,0.09-0.07,0.16-0.13,0.23c-0.96,1.08-0.91,2.19,0.15,3.33c0.02,0.02,0.03,0.05,0.05,0.08c0.04,0.05,0.08,0.1,0.13,0.15
				c0.12-0.11,0.25-0.22,0.4-0.33c0.26-0.25,0.6-0.48,1.03-0.7h0.02c0.85-0.4,1.9-0.6,3.15-0.6c1.24,0,2.34,0.19,3.3,0.58v0.03
				c1.01,0.44,1.5,1,1.45,1.7c0.04,0.65-0.43,1.23-1.42,1.75c-0.02,0.01-0.03,0.02-0.05,0.03c-0.95,0.35-2.04,0.53-3.27,0.53
				c-1.25,0-2.3-0.19-3.15-0.55H3.87c-0.35-0.18-0.85-0.49-1.48-0.95c-0.08,0.1-0.17,0.21-0.27,0.32c-0.97,1.14-0.92,2.28,0.15,3.43
				c0.02,0.02,0.03,0.05,0.05,0.07c0.03,0.04,0.06,0.09,0.1,0.13c0.13-0.1,0.27-0.2,0.42-0.3l0.03-0.02c0.26-0.28,0.59-0.52,1-0.73
				h0.02c0.85-0.36,1.9-0.55,3.15-0.55c1.23,0,2.32,0.17,3.27,0.53c0.02,0.01,0.03,0.02,0.05,0.02c1,0.48,1.48,1.05,1.42,1.7
				c0.04,0.68-0.43,1.28-1.42,1.8c-0.02,0.01-0.03,0.02-0.05,0.03c-0.95,0.35-2.04,0.53-3.27,0.52c-1.25,0-2.3-0.19-3.15-0.55H3.87
				c-0.35-0.17-0.83-0.51-1.45-1c-0.09,0.13-0.19,0.25-0.3,0.38c-0.95,1.09-0.91,2.23,0.13,3.42l0.02,0.03
				c0.05,0.05,0.11,0.1,0.17,0.15c0.12-0.11,0.25-0.22,0.4-0.33c0.26-0.25,0.6-0.48,1.03-0.7h0.02c0.85-0.36,1.9-0.55,3.15-0.55
				c1.23,0,2.32,0.17,3.27,0.52l0.03,0.03c1.01,0.44,1.5,1,1.45,1.7c0.04,0.7-0.44,1.26-1.45,1.7c-0.96,0.43-2.06,0.65-3.3,0.65
				c-1.26,0-2.31-0.22-3.17-0.65c-0.36-0.13-0.85-0.43-1.45-0.9c-0.09,0.11-0.19,0.22-0.3,0.33l-0.03,0.02
				c-0.94,1.13-0.88,2.27,0.17,3.4c0.02,0.02,0.03,0.05,0.05,0.08c0.04,0.06,0.08,0.11,0.13,0.17c0.12-0.12,0.25-0.24,0.4-0.35
				c0.26-0.25,0.6-0.49,1.03-0.7h0.02c0.85-0.36,1.9-0.55,3.15-0.55c1.23,0,2.32,0.17,3.27,0.52l0.03,0.03
				c1.01,0.43,1.49,1.02,1.45,1.75c0.04,0.7-0.44,1.26-1.45,1.7v0.02c-0.96,0.39-2.06,0.58-3.3,0.58c-1.25,0-2.3-0.2-3.15-0.6H3.87
				c-0.35-0.17-0.83-0.48-1.45-0.93c-0.08,0.1-0.16,0.2-0.25,0.3c-0.99,1.12-0.96,2.27,0.1,3.45l0.03,0.03
				c0.04,0.05,0.09,0.1,0.15,0.15c0.11-0.11,0.22-0.22,0.35-0.35c0.27-0.27,0.63-0.49,1.08-0.65c0.86-0.43,1.92-0.65,3.17-0.65
				c1.24,0,2.34,0.22,3.3,0.65c1.02,0.44,1.5,0.99,1.45,1.65c0.04,0.7-0.44,1.26-1.45,1.7c-0.96,0.43-2.06,0.65-3.3,0.65
				c-1.26,0-2.31-0.22-3.17-0.65c-0.36-0.13-0.84-0.43-1.43-0.9c-0.1,0.12-0.21,0.25-0.32,0.38c-0.97,1.14-0.92,2.28,0.15,3.43
				c0.02,0.02,0.03,0.05,0.05,0.07c0.03,0.05,0.07,0.1,0.1,0.15c0.13-0.14,0.27-0.26,0.42-0.38c0.26-0.25,0.6-0.48,1.03-0.7h0.02
				c0.85-0.36,1.9-0.55,3.15-0.55c1.23,0,2.32,0.17,3.27,0.53c0.02,0.01,0.03,0.02,0.05,0.02c0.99,0.48,1.47,1.08,1.42,1.8
				c0.05,0.61-0.43,1.18-1.42,1.7c-0.02,0.01-0.03,0.02-0.05,0.03c-0.95,0.35-2.04,0.53-3.27,0.52c-1.25,0-2.3-0.19-3.15-0.55H3.87
				c-0.35-0.17-0.84-0.5-1.48-0.97c-0.06,0.08-0.13,0.18-0.2,0.27l-0.02,0.03c-0.99,1.11-0.96,2.24,0.1,3.38
				c0.02,0.02,0.03,0.05,0.05,0.08c0.04,0.06,0.09,0.12,0.15,0.17c0.09-0.09,0.19-0.18,0.3-0.28c0.02-0.02,0.03-0.03,0.05-0.05
				c0.27-0.29,0.62-0.52,1.05-0.67c0.86-0.43,1.92-0.65,3.17-0.65c1.24,0,2.34,0.22,3.3,0.65l-0.03-0.03
				c1.02,0.4,1.51,0.98,1.48,1.73c0.04,0.7-0.44,1.26-1.45,1.7l-0.03,0.02c-0.95,0.35-2.04,0.53-3.27,0.53
				c-1.25,0-2.3-0.19-3.15-0.55H3.87c-0.35-0.17-0.83-0.49-1.45-0.95c-0.08,0.1-0.18,0.22-0.28,0.35l-0.02,0.03
				c-0.97,1.14-0.92,2.28,0.15,3.42c0.02,0.02,0.03,0.05,0.05,0.08c0.04,0.05,0.08,0.1,0.13,0.15c0.12-0.11,0.25-0.22,0.4-0.32
				c0.26-0.25,0.6-0.49,1.03-0.7h0.02c0.85-0.4,1.9-0.6,3.15-0.6c1.24,0,2.34,0.19,3.3,0.58v0.03c1.01,0.44,1.5,1,1.45,1.7
				c0.04,0.65-0.43,1.23-1.42,1.75c-0.02,0.01-0.03,0.02-0.05,0.02c-0.95,0.35-2.04,0.53-3.27,0.53c-1.25,0-2.3-0.19-3.15-0.55H3.87
				c-0.35-0.18-0.84-0.49-1.48-0.95c-0.05,0.08-0.11,0.18-0.17,0.27c-0.02,0.03-0.05,0.05-0.08,0.08c-0.09,0.1-0.18,0.23-0.25,0.38
				c-0.02,0.04-0.05,0.07-0.08,0.1c-0.13,0.15-0.2,0.31-0.22,0.47c-0.02,0.14-0.09,0.26-0.2,0.35c-0.1,0.08-0.22,0.12-0.35,0.1
				c-0.14-0.02-0.26-0.09-0.35-0.2c-0.08-0.1-0.12-0.22-0.1-0.35c0.04-0.33,0.17-0.64,0.4-0.93c0.11-0.21,0.23-0.4,0.38-0.55
				c0.13-0.19,0.25-0.34,0.38-0.47c-0.09-0.08-0.16-0.17-0.23-0.25C0.06,52.18,0,50.6,1.34,49.01l0.03-0.03
				c0.13-0.17,0.26-0.33,0.38-0.47c-0.09-0.08-0.16-0.16-0.23-0.25c-1.47-1.59-1.51-3.15-0.13-4.7l0.03-0.03
				c0.11-0.14,0.21-0.27,0.3-0.38c-0.07-0.08-0.14-0.17-0.2-0.25C0.05,41.32,0,39.73,1.37,38.14c0.14-0.16,0.26-0.31,0.38-0.45
				c-0.09-0.08-0.16-0.17-0.23-0.25l-0.02-0.03c-1.45-1.61-1.47-3.19-0.08-4.72c0.12-0.14,0.24-0.27,0.35-0.4
				c-0.1-0.09-0.18-0.18-0.25-0.27C0.05,30.42,0,28.83,1.37,27.24l0.02-0.02c0.13-0.13,0.25-0.27,0.35-0.4
				c-0.08-0.07-0.14-0.14-0.2-0.2l-0.03-0.02C0.05,24.93,0,23.34,1.37,21.84c0.13-0.15,0.26-0.3,0.38-0.45
				c-0.09-0.07-0.16-0.14-0.23-0.23C0.05,19.57,0,17.98,1.37,16.39c0.14-0.16,0.26-0.3,0.38-0.42c-0.09-0.08-0.16-0.16-0.23-0.25
				c-1.44-1.55-1.53-3.07-0.27-4.55c0.02-0.09,0.07-0.18,0.15-0.25c0.13-0.13,0.24-0.24,0.35-0.35C1.66,10.48,1.58,10.4,1.52,10.31z
				"/>
		</g>
		<g>
			
				<radialGradient id="SVGID_1_" cx="6.0859" cy="29.5186" r="26.6695" gradientTransform="matrix(1 0 0 1.007 0 -0.2079)" gradientUnits="userSpaceOnUse">
				<stop  offset="0" style="stop-color:#FF9900"/>
				<stop  offset="0.4157" style="stop-color:#E98C00"/>
				<stop  offset="0.7412" style="stop-color:#AE6800"/>
				<stop  offset="1" style="stop-color:#8F5601"/>
			</radialGradient>
			<path fill-rule="evenodd" clip-rule="evenodd" fill="url(#SVGID_1_)" d="M3.44,52.86c-0.13,0.1-0.25,0.2-0.35,0.3
				c0.5,0.37,0.91,0.62,1.2,0.75c0.75,0.33,1.66,0.5,2.75,0.5c1.09,0,2.06-0.18,2.9-0.52l-0.02,0.02c0.54-0.26,0.83-0.54,0.88-0.85
				c-0.04-0.3-0.33-0.57-0.85-0.8l0.03,0.02c-0.85-0.31-1.82-0.47-2.92-0.47c-1.09,0-2,0.15-2.75,0.45h0.02
				c-0.35,0.17-0.62,0.35-0.82,0.55C3.48,52.83,3.46,52.85,3.44,52.86z M3.49,47.31l-0.03,0.03c-0.13,0.11-0.24,0.22-0.35,0.32
				c0.51,0.35,0.91,0.6,1.2,0.75H4.29c0.75,0.33,1.66,0.5,2.75,0.5c1.09,0,2.06-0.18,2.9-0.52v0.02c0.52-0.23,0.81-0.5,0.85-0.8
				c-0.04-0.32-0.31-0.58-0.83-0.77H9.94c-0.84-0.35-1.81-0.52-2.9-0.53c-1.09,0-2,0.17-2.75,0.5C3.96,46.95,3.69,47.12,3.49,47.31z
				 M9.94,41.41v0.03c-0.84-0.35-1.81-0.52-2.9-0.53c-1.09,0-2,0.17-2.75,0.5c-0.32,0.14-0.58,0.31-0.78,0.53
				c-0.02,0.03-0.05,0.05-0.08,0.08c-0.12,0.09-0.23,0.19-0.32,0.3c0.5,0.35,0.9,0.6,1.2,0.75H4.29c0.75,0.3,1.66,0.45,2.75,0.45
				c1.1,0,2.08-0.16,2.92-0.48c0.5-0.27,0.78-0.53,0.83-0.77C10.75,41.93,10.47,41.64,9.94,41.41z M10.79,36.76
				c-0.04-0.3-0.33-0.57-0.85-0.8c-0.84-0.37-1.81-0.55-2.9-0.55c-1.08,0-1.99,0.18-2.73,0.55c-0.02,0.01-0.05,0.02-0.07,0.02
				c-0.3,0.1-0.55,0.25-0.73,0.45c-0.02,0.02-0.03,0.03-0.05,0.05c-0.13,0.11-0.24,0.22-0.35,0.33c0.5,0.38,0.89,0.63,1.17,0.75
				h0.02c0.74,0.37,1.65,0.55,2.73,0.55c1.09,0,2.06-0.18,2.9-0.55C10.47,37.33,10.75,37.07,10.79,36.76z M3.44,31.11
				c-0.12,0.09-0.23,0.19-0.32,0.3c0.5,0.38,0.9,0.65,1.2,0.8H4.29c0.75,0.3,1.66,0.45,2.75,0.45c1.1,0,2.08-0.16,2.92-0.47
				c0.5-0.25,0.78-0.5,0.83-0.78c-0.03-0.37-0.32-0.67-0.85-0.9l0.03,0.02c-0.85-0.31-1.82-0.47-2.92-0.47c-1.09,0-2,0.15-2.75,0.45
				h0.02c-0.35,0.17-0.62,0.35-0.82,0.55C3.48,31.08,3.46,31.1,3.44,31.11z M3.44,25.71c-0.11,0.08-0.21,0.17-0.3,0.25
				c0.46,0.35,0.83,0.58,1.1,0.67c0.03,0.01,0.05,0.02,0.07,0.02c0.74,0.37,1.65,0.55,2.73,0.55c1.09,0,2.06-0.18,2.9-0.55
				c0.52-0.23,0.81-0.5,0.85-0.8c-0.05-0.27-0.32-0.53-0.83-0.77c-0.85-0.32-1.82-0.47-2.92-0.48c-1.09,0-2,0.15-2.75,0.45h0.02
				c-0.33,0.17-0.6,0.36-0.8,0.58C3.5,25.67,3.47,25.69,3.44,25.71z M4.29,19.66h0.02c-0.35,0.17-0.62,0.35-0.82,0.55
				c-0.02,0.02-0.03,0.03-0.05,0.05c-0.11,0.08-0.21,0.17-0.3,0.25c0.49,0.39,0.89,0.66,1.17,0.8H4.29c0.75,0.3,1.66,0.45,2.75,0.45
				c1.1,0,2.08-0.16,2.92-0.48c0.51-0.27,0.78-0.55,0.83-0.82c-0.04-0.3-0.33-0.57-0.85-0.8v0.03c-0.84-0.35-1.81-0.52-2.9-0.53
				C5.96,19.16,5.04,19.33,4.29,19.66z M10.79,15.01c-0.04-0.3-0.33-0.57-0.85-0.8l0.03,0.02c-0.85-0.31-1.82-0.47-2.92-0.47
				c-1.09,0-2,0.15-2.75,0.45h0.02c-0.35,0.17-0.62,0.35-0.82,0.55c-0.02,0.02-0.03,0.03-0.05,0.05c-0.13,0.1-0.25,0.2-0.35,0.3
				c0.5,0.37,0.91,0.62,1.2,0.75c0.75,0.33,1.66,0.5,2.75,0.5c1.09,0,2.06-0.18,2.9-0.52l-0.02,0.02
				C10.46,15.61,10.75,15.32,10.79,15.01z M1.74,9.66C1.66,9.58,1.58,9.5,1.52,9.41C0.71,8.55,0.66,7.57,1.37,6.49
				c0.58-0.91,1.79-1.91,3.63-3C5.11,3.42,5.24,3.4,5.37,3.44C5.5,3.47,5.6,3.55,5.67,3.66c0.07,0.12,0.09,0.24,0.05,0.38
				c-0.03,0.13-0.11,0.23-0.22,0.3c-1.66,0.98-2.76,1.87-3.3,2.68c-0.41,0.63-0.38,1.2,0.08,1.7C2.29,8.74,2.3,8.76,2.32,8.79
				c0.03,0.04,0.07,0.09,0.1,0.13c0.13-0.1,0.27-0.2,0.42-0.3l0.03-0.02c0.26-0.28,0.59-0.52,1-0.73h0.02
				C4.75,7.5,5.8,7.32,7.04,7.31c1.23,0,2.32,0.17,3.27,0.52c0.02,0.01,0.03,0.02,0.05,0.02c1,0.48,1.48,1.05,1.42,1.7
				c0.04,0.68-0.43,1.28-1.42,1.8c-0.02,0.01-0.03,0.02-0.05,0.03c-0.95,0.35-2.04,0.53-3.27,0.52c-1.25,0-2.3-0.19-3.15-0.55H3.87
				c-0.35-0.17-0.84-0.5-1.48-0.97c-0.04,0.06-0.09,0.12-0.15,0.17c-0.03,0.09-0.07,0.16-0.13,0.23c-0.96,1.11-0.91,2.24,0.15,3.37
				c0.02,0.02,0.03,0.05,0.05,0.08c0.03,0.04,0.06,0.09,0.1,0.13c0.13-0.12,0.27-0.23,0.42-0.35c0.26-0.25,0.6-0.48,1.03-0.7h0.02
				c0.85-0.36,1.9-0.55,3.15-0.55c1.23,0,2.32,0.17,3.27,0.52l0.03,0.02c1.01,0.44,1.5,1,1.45,1.7c0.05,0.69-0.43,1.27-1.42,1.75
				l-0.03,0.02c-0.96,0.39-2.06,0.58-3.3,0.58c-1.25,0-2.3-0.2-3.15-0.6c-0.36-0.14-0.86-0.45-1.5-0.92c-0.08,0.1-0.17,0.2-0.27,0.3
				l-0.03,0.02c-0.94,1.13-0.88,2.27,0.17,3.4c0.02,0.02,0.03,0.05,0.05,0.08c0.04,0.05,0.08,0.1,0.13,0.15
				c0.12-0.11,0.26-0.22,0.4-0.32c0.26-0.25,0.6-0.49,1.03-0.7h0.02c0.85-0.4,1.9-0.6,3.15-0.6c1.24,0,2.34,0.19,3.3,0.58v0.03
				c1.01,0.44,1.5,1,1.45,1.7c0.04,0.65-0.43,1.23-1.42,1.75c-0.02,0.01-0.03,0.02-0.05,0.02c-0.95,0.35-2.04,0.53-3.27,0.53
				c-1.25,0-2.3-0.19-3.15-0.55H3.87c-0.35-0.17-0.82-0.5-1.43-0.98c-0.1,0.12-0.21,0.24-0.32,0.35l-0.03,0.02
				c-0.94,1.11-0.88,2.26,0.17,3.42l0.03,0.03c0.05,0.05,0.1,0.1,0.17,0.15c0.1-0.08,0.22-0.18,0.35-0.28l0.03-0.03
				c0.26-0.29,0.6-0.54,1.03-0.75h0.02c0.85-0.36,1.9-0.55,3.15-0.55c1.23,0,2.32,0.17,3.27,0.53c0.02,0.01,0.03,0.02,0.05,0.02
				c1,0.48,1.48,1.05,1.42,1.7c0.04,0.7-0.44,1.26-1.45,1.7c-0.96,0.43-2.06,0.65-3.3,0.65c-1.26,0-2.31-0.22-3.17-0.65
				c-0.36-0.13-0.84-0.43-1.45-0.9c-0.09,0.12-0.19,0.25-0.3,0.38c-0.97,1.14-0.92,2.28,0.15,3.43c0.02,0.02,0.03,0.05,0.05,0.07
				c0.03,0.05,0.07,0.1,0.1,0.15c0.13-0.14,0.27-0.26,0.42-0.38c0.26-0.25,0.6-0.48,1.03-0.7h0.02c0.85-0.36,1.9-0.55,3.15-0.55
				c1.23,0,2.32,0.17,3.27,0.53l0.03,0.02c1,0.43,1.49,1.03,1.45,1.8c0.05,0.65-0.42,1.22-1.42,1.7c-0.02,0.01-0.03,0.02-0.05,0.03
				c-0.95,0.35-2.04,0.53-3.27,0.52c-1.25,0-2.3-0.19-3.15-0.55H3.87c-0.35-0.17-0.83-0.5-1.45-0.97c-0.08,0.1-0.17,0.2-0.25,0.3
				c-0.99,1.12-0.96,2.27,0.08,3.47l0.02,0.03c0.05,0.05,0.11,0.1,0.17,0.15c0.1-0.1,0.21-0.2,0.33-0.3
				c0.02-0.02,0.03-0.03,0.05-0.05c0.27-0.29,0.62-0.52,1.05-0.67c0.86-0.43,1.92-0.65,3.17-0.65c1.24,0,2.34,0.22,3.3,0.65
				c1.01,0.44,1.5,1,1.45,1.7c0.04,0.7-0.44,1.26-1.45,1.7c-0.96,0.43-2.06,0.65-3.3,0.65c-1.26,0-2.31-0.22-3.17-0.65h0.02
				c-0.35-0.14-0.84-0.45-1.45-0.93c-0.1,0.12-0.21,0.24-0.32,0.35l-0.03,0.02c-0.94,1.13-0.88,2.27,0.17,3.4
				c0.02,0.02,0.03,0.05,0.05,0.08c0.04,0.05,0.08,0.11,0.13,0.17c0.12-0.13,0.26-0.24,0.4-0.35c0.26-0.29,0.61-0.52,1.05-0.7
				c0.85-0.4,1.9-0.6,3.15-0.6c1.24,0,2.34,0.19,3.3,0.58v0.03c1.01,0.43,1.49,1.02,1.45,1.75c0.05,0.61-0.43,1.18-1.42,1.7
				c-0.02,0.01-0.03,0.02-0.05,0.02c-0.95,0.35-2.04,0.53-3.27,0.53c-1.25,0-2.3-0.19-3.15-0.55H3.87
				c-0.35-0.18-0.84-0.48-1.48-0.93c-0.05,0.07-0.11,0.15-0.17,0.25c-0.01,0.03-0.03,0.05-0.05,0.08c-0.99,1.08-0.96,2.21,0.1,3.38
				l0.03,0.03c0.04,0.05,0.09,0.11,0.15,0.17c0.11-0.11,0.23-0.22,0.35-0.33l0.02-0.02c0.27-0.26,0.62-0.49,1.08-0.68
				c0.85-0.4,1.9-0.6,3.15-0.6c1.24,0,2.34,0.19,3.3,0.58h-0.03c1.02,0.4,1.51,0.98,1.48,1.72c0.04,0.7-0.44,1.26-1.45,1.7v0.03
				c-0.96,0.39-2.06,0.58-3.3,0.57c-1.25,0-2.3-0.2-3.15-0.6H3.87c-0.35-0.17-0.83-0.48-1.45-0.92c-0.09,0.11-0.19,0.23-0.3,0.35
				c-0.97,1.17-0.92,2.33,0.15,3.48c0.02,0.02,0.03,0.05,0.05,0.07c0.03,0.04,0.06,0.09,0.1,0.13c0.13-0.12,0.27-0.23,0.42-0.35
				c0.26-0.25,0.6-0.48,1.03-0.7h0.02c0.85-0.36,1.9-0.55,3.15-0.55c1.23,0,2.32,0.17,3.27,0.53l0.03,0.02c1.01,0.44,1.5,1,1.45,1.7
				c0.05,0.69-0.43,1.27-1.42,1.75l-0.03,0.03c-0.96,0.39-2.06,0.58-3.3,0.57c-1.25,0-2.3-0.2-3.15-0.6
				c-0.36-0.14-0.86-0.45-1.5-0.92c-0.05,0.07-0.11,0.15-0.17,0.25l-0.03,0.02c-0.12,0.15-0.23,0.3-0.32,0.45
				c-0.01,0.02-0.02,0.03-0.03,0.05c-0.14,0.19-0.22,0.36-0.25,0.53c-0.02,0.13-0.09,0.24-0.2,0.33c-0.11,0.08-0.24,0.12-0.38,0.1
				c-0.13-0.02-0.24-0.09-0.33-0.2c-0.08-0.11-0.12-0.24-0.1-0.38c0.04-0.3,0.19-0.63,0.45-0.97c0.1-0.16,0.21-0.32,0.33-0.47
				c0.12-0.18,0.24-0.33,0.35-0.45c-0.08-0.07-0.14-0.15-0.2-0.23c-1.46-1.59-1.51-3.2-0.15-4.82c0.14-0.16,0.27-0.31,0.4-0.45
				c-0.1-0.08-0.18-0.17-0.25-0.25l-0.02-0.03c-1.46-1.63-1.48-3.19-0.08-4.7c0.11-0.15,0.22-0.29,0.33-0.4
				c-0.09-0.08-0.16-0.17-0.23-0.25C0.05,40.42,0,38.83,1.37,37.24l0.02-0.02c0.13-0.13,0.25-0.27,0.35-0.4
				c-0.08-0.08-0.14-0.14-0.2-0.2l-0.03-0.02c-1.47-1.66-1.5-3.26-0.1-4.8c0.11-0.13,0.22-0.25,0.33-0.38
				c-0.09-0.08-0.16-0.16-0.23-0.25C0.05,29.57,0,27.98,1.37,26.39c0.14-0.16,0.26-0.31,0.38-0.45c-0.09-0.08-0.16-0.17-0.23-0.25
				l-0.02-0.03c-1.45-1.61-1.49-3.19-0.13-4.72l0.02-0.03c0.13-0.13,0.24-0.26,0.35-0.4c-0.09-0.08-0.16-0.16-0.23-0.25
				C0.05,18.67,0,17.08,1.37,15.49l0.02-0.02c0.13-0.13,0.24-0.24,0.35-0.35c-0.09-0.08-0.16-0.16-0.23-0.25
				c-1.43-1.55-1.52-3.08-0.27-4.6c0.02-0.09,0.07-0.18,0.15-0.25C1.52,9.89,1.63,9.77,1.74,9.66z M3.42,9.44
				C3.3,9.51,3.19,9.58,3.09,9.66c0.52,0.38,0.93,0.65,1.22,0.8H4.29c0.75,0.3,1.66,0.45,2.75,0.45c1.1,0,2.08-0.16,2.92-0.48
				c0.51-0.28,0.79-0.57,0.83-0.88c-0.05-0.27-0.32-0.53-0.83-0.77C9.12,8.47,8.14,8.31,7.04,8.31c-1.09,0-2,0.15-2.75,0.45h0.02
				c-0.33,0.16-0.6,0.36-0.8,0.57C3.49,9.38,3.46,9.41,3.42,9.44z"/>
		</g>
	</g>
</g>
</svg>
