<?xml version="1.0" encoding="utf-8"?>
<!-- Generator: Adobe Illustrator 16.0.0, SVG Export Plug-In . SVG Version: 6.00 Build 0)  -->
<!DOCTYPE svg PUBLIC "-//W3C//DTD SVG 1.1//EN" "http://www.w3.org/Graphics/SVG/1.1/DTD/svg11.dtd">
<svg version="1.1" id="Layer_2" xmlns="http://www.w3.org/2000/svg" xmlns:xlink="http://www.w3.org/1999/xlink" x="0px" y="0px"
	 width="31px" height="380.5px" viewBox="0 0 31 380.5" enable-background="new 0 0 31 380.5" xml:space="preserve">
<g>
	<g>
		
			<radialGradient id="SVGID_1_" cx="-257.8198" cy="463.8079" r="4.3247" gradientTransform="matrix(1.4709 0 0 -39.7947 394.4949 18634.9121)" gradientUnits="userSpaceOnUse">
			<stop  offset="0" style="stop-color:#FFFFFF;stop-opacity:0.6941"/>
			<stop  offset="0.1922" style="stop-color:#FFFFFF;stop-opacity:0.4902"/>
			<stop  offset="0.5333" style="stop-color:#FEFEFE;stop-opacity:0.2"/>
			<stop  offset="0.7765" style="stop-color:#FCFCFC;stop-opacity:0.0863"/>
			<stop  offset="1" style="stop-color:#F9F9F9;stop-opacity:0"/>
		</radialGradient>
		<path fill="url(#SVGID_1_)" d="M21.45,177.88c0,46.58-0.59,86.49-1.77,119.73c-1.23,31.04-2.72,46.55-4.49,46.55
			c-1.67,0-3.11-15.52-4.34-46.55c-1.23-33.24-1.84-73.15-1.84-119.73s0.61-86.49,1.84-119.73c1.23-33.24,2.67-49.86,4.34-49.86
			c1.76,0,3.26,16.62,4.49,49.86C20.86,91.39,21.45,131.3,21.45,177.88z"/>
	</g>
</g>
<g>
	<g>
		
			<linearGradient id="SVGID_2_" gradientUnits="userSpaceOnUse" x1="-267.2437" y1="378.2581" x2="-247.9941" y2="378.2581" gradientTransform="matrix(1.4709 0 0 -1.4709 394.4949 748.1608)">
			<stop  offset="0" style="stop-color:#995210"/>
			<stop  offset="0.1176" style="stop-color:#F8C45F"/>
			<stop  offset="0.251" style="stop-color:#BB6B22"/>
			<stop  offset="0.4392" style="stop-color:#FFF9E7"/>
			<stop  offset="0.6353" style="stop-color:#D8AF79"/>
			<stop  offset="0.8471" style="stop-color:#CB9349"/>
			<stop  offset="0.9333" style="stop-color:#966537"/>
			<stop  offset="1" style="stop-color:#8A5B32"/>
		</linearGradient>
		<path fill="url(#SVGID_2_)" d="M29.72,3.69l0.04-0.11h0.07l-0.07,374.27l-0.07,0.29c-0.2,0.29-0.78,0.56-1.76,0.81
			c-0.64,0.15-1.45,0.27-2.43,0.37c-2.7,0.44-6.01,0.66-9.93,0.66c-3.92,0-7.28-0.22-10.08-0.66c-2.7-0.39-4.04-0.88-4.04-1.47V3.65
			C1.46,4.24,2.8,4.73,5.49,5.12c2.79,0.44,6.15,0.66,10.08,0.66c3.92,0,7.23-0.22,9.93-0.66c2.45-0.34,3.85-0.76,4.19-1.25V3.84
			L29.72,3.69z"/>
		<path fill="#C89048" d="M1.45,3.65c0-0.59,1.35-1.1,4.04-1.54c2.79-0.39,6.15-0.59,10.08-0.59c3.92,0,7.23,0.2,9.93,0.59
			c1.19,0.21,2.13,0.42,2.83,0.63c0.95,0.31,1.41,0.63,1.4,0.96l-0.04,0.15v0.04c-0.34,0.49-1.74,0.91-4.19,1.25
			c-2.7,0.44-6.01,0.66-9.93,0.66c-3.92,0-7.28-0.22-10.08-0.66C2.8,4.73,1.46,4.24,1.45,3.65z"/>
	</g>
	<g>
		
			<radialGradient id="SVGID_3_" cx="-257.8652" cy="463.7639" r="4.3105" gradientTransform="matrix(1.4709 0 0 -39.8973 394.4949 18680.8887)" gradientUnits="userSpaceOnUse">
			<stop  offset="0" style="stop-color:#FFFFFF;stop-opacity:0.6941"/>
			<stop  offset="0.1922" style="stop-color:#FFFFFF;stop-opacity:0.4902"/>
			<stop  offset="0.5333" style="stop-color:#FEFEFE;stop-opacity:0.2"/>
			<stop  offset="0.7765" style="stop-color:#FCFCFC;stop-opacity:0.0863"/>
			<stop  offset="1" style="stop-color:#F9F9F9;stop-opacity:0"/>
		</radialGradient>
		<path fill="url(#SVGID_3_)" d="M21.38,177.95c0,46.53-0.59,86.42-1.76,119.66c-1.23,31.04-2.72,46.55-4.49,46.55
			c-1.67,0-3.11-15.52-4.34-46.55c-1.18-33.24-1.77-73.13-1.77-119.66c0-46.63,0.59-86.54,1.77-119.73
			c1.23-33.24,2.67-49.86,4.34-49.86c1.76,0,3.26,16.62,4.49,49.86C20.79,91.41,21.38,131.32,21.38,177.95z"/>
	</g>
</g>
</svg>
