<?xml version="1.0" encoding="utf-8"?>
<!-- Generator: Adobe Illustrator 16.0.0, SVG Export Plug-In . SVG Version: 6.00 Build 0)  -->
<!DOCTYPE svg PUBLIC "-//W3C//DTD SVG 1.1//EN" "http://www.w3.org/Graphics/SVG/1.1/DTD/svg11.dtd">
<svg version="1.1" id="Layer_1" xmlns="http://www.w3.org/2000/svg" xmlns:xlink="http://www.w3.org/1999/xlink" x="0px" y="0px"
	 width="101.9px" height="481.2px" viewBox="0 0 101.9 481.2" enable-background="new 0 0 101.9 481.2" xml:space="preserve">
<g>
	<g>
		
			<linearGradient id="SVGID_1_" gradientUnits="userSpaceOnUse" x1="-351.2856" y1="-158.8643" x2="-326.4159" y2="-101.937" gradientTransform="matrix(1.4709 0 0 1.4709 500.5479 244.8046)">
			<stop  offset="0" style="stop-color:#FFFFFF"/>
			<stop  offset="1" style="stop-color:#FFFFFF;stop-opacity:0"/>
		</linearGradient>
		<path fill-rule="evenodd" clip-rule="evenodd" fill="url(#SVGID_1_)" d="M98.4,24.05L9.85,87.08v224.53L0,321.46L0.29,93.84
			c0-6.28,0-12.55,0-18.83V0H98.4V24.05z"/>
		
			<radialGradient id="SVGID_2_" cx="-348.2036" cy="163.3662" r="99.55" gradientTransform="matrix(1.4709 0 0 0.6372 500.5479 381.0029)" gradientUnits="userSpaceOnUse">
			<stop  offset="0" style="stop-color:#FFFFFF"/>
			<stop  offset="1" style="stop-color:#FFFFFF;stop-opacity:0"/>
		</radialGradient>
		<polygon fill-rule="evenodd" clip-rule="evenodd" fill="url(#SVGID_2_)" points="1.62,403.24 95.97,320.14 95.97,481.2 
			1.62,481.2 		"/>
	</g>
	<g>
		<g>
			
				<radialGradient id="SVGID_3_" cx="-325.5034" cy="-152.2339" r="12.9917" gradientTransform="matrix(0.4194 -1.4098 0.3481 0.1035 211.2685 -422.2565)" gradientUnits="userSpaceOnUse">
				<stop  offset="0" style="stop-color:#FFFFFF"/>
				<stop  offset="0.1922" style="stop-color:#FFFFFF"/>
				<stop  offset="0.2824" style="stop-color:#FFFFFF;stop-opacity:0.7216"/>
				<stop  offset="0.4157" style="stop-color:#FFFFFF;stop-opacity:0.6"/>
				<stop  offset="0.5882" style="stop-color:#FEFEFE;stop-opacity:0.3333"/>
				<stop  offset="0.8157" style="stop-color:#FCFCFC;stop-opacity:0.0863"/>
				<stop  offset="1" style="stop-color:#F9F9F9;stop-opacity:0"/>
			</radialGradient>
			<path fill-rule="evenodd" clip-rule="evenodd" fill="url(#SVGID_3_)" d="M26.04,22.36c-1.42,4.85-3.07,8.95-4.93,12.28
				c-1.91,3.14-3.48,4.54-4.71,4.19s-1.76-2.38-1.62-6.1c0.2-3.82,1-8.16,2.43-13.02c1.52-5,3.24-9.14,5.15-12.43
				c1.91-3.14,3.48-4.53,4.71-4.19c1.23,0.34,1.76,2.38,1.62,6.1C28.44,12.97,27.55,17.36,26.04,22.36z"/>
		</g>
		<g>
			
				<radialGradient id="SVGID_4_" cx="-461.7642" cy="40.5874" r="11.3783" gradientTransform="matrix(0.0776 -1.4688 0.9453 0.118 88.9374 -212.2884)" gradientUnits="userSpaceOnUse">
				<stop  offset="0" style="stop-color:#FFFFFF"/>
				<stop  offset="0.1922" style="stop-color:#FFFFFF"/>
				<stop  offset="0.2824" style="stop-color:#FFFFFF;stop-opacity:0.7216"/>
				<stop  offset="0.4157" style="stop-color:#FFFFFF;stop-opacity:0.6"/>
				<stop  offset="0.5882" style="stop-color:#FEFEFE;stop-opacity:0.3333"/>
				<stop  offset="0.8157" style="stop-color:#FCFCFC;stop-opacity:0.0863"/>
				<stop  offset="1" style="stop-color:#F9F9F9;stop-opacity:0"/>
			</radialGradient>
			<path fill-rule="evenodd" clip-rule="evenodd" fill="url(#SVGID_4_)" d="M99.58,460.17c1.77,3.48,2.53,7.5,2.28,12.06
				c-0.25,4.41-1.4,8.12-3.46,11.11c-2.3,2.89-4.9,4.17-7.8,3.82c-2.89-0.34-5.29-2.25-7.21-5.74s-2.75-7.43-2.5-11.84
				c0.25-4.56,1.47-8.34,3.68-11.33c2.31-2.84,4.9-4.09,7.8-3.75C95.26,454.85,97.67,456.73,99.58,460.17z"/>
		</g>
		<g>
			
				<radialGradient id="SVGID_5_" cx="-152.1577" cy="22.6689" r="11.3783" gradientTransform="matrix(0.0776 -1.4688 0.9453 0.118 79.6557 -213.4466)" gradientUnits="userSpaceOnUse">
				<stop  offset="0" style="stop-color:#FFFFFF"/>
				<stop  offset="0.1922" style="stop-color:#FFFFFF"/>
				<stop  offset="0.2824" style="stop-color:#FFFFFF;stop-opacity:0.7216"/>
				<stop  offset="0.4157" style="stop-color:#FFFFFF;stop-opacity:0.6"/>
				<stop  offset="0.5882" style="stop-color:#FEFEFE;stop-opacity:0.3333"/>
				<stop  offset="0.8157" style="stop-color:#FCFCFC;stop-opacity:0.0863"/>
				<stop  offset="1" style="stop-color:#F9F9F9;stop-opacity:0"/>
			</radialGradient>
			<path fill-rule="evenodd" clip-rule="evenodd" fill="url(#SVGID_5_)" d="M97.37,2.13c1.76,3.48,2.52,7.5,2.28,12.06
				c-0.25,4.41-1.4,8.11-3.46,11.1c-2.3,2.89-4.9,4.17-7.8,3.82c-2.89-0.34-5.3-2.26-7.21-5.74c-1.91-3.48-2.75-7.43-2.5-11.84
				c0.25-4.56,1.47-8.34,3.68-11.33c2.3-2.84,4.9-4.09,7.8-3.75C93.06-3.19,95.46-1.3,97.37,2.13z"/>
		</g>
	</g>
	<g>
		<g>
			
				<radialGradient id="SVGID_6_" cx="-282.9536" cy="-27.6836" r="105.3517" gradientTransform="matrix(8.350265e-003 -1.4709 0.2159 1.225590e-003 92.6944 -212.0667)" gradientUnits="userSpaceOnUse">
				<stop  offset="0" style="stop-color:#FFFFFF"/>
				<stop  offset="0.1412" style="stop-color:#FFFFFF;stop-opacity:0.8902"/>
				<stop  offset="0.2824" style="stop-color:#FFFFFF;stop-opacity:0.6196"/>
				<stop  offset="0.4157" style="stop-color:#FFFFFF;stop-opacity:0.451"/>
				<stop  offset="0.5882" style="stop-color:#FEFEFE;stop-opacity:0.298"/>
				<stop  offset="0.8157" style="stop-color:#FCFCFC;stop-opacity:0.0863"/>
				<stop  offset="1" style="stop-color:#F9F9F9;stop-opacity:0"/>
			</radialGradient>
			<path fill-rule="evenodd" clip-rule="evenodd" fill="url(#SVGID_6_)" d="M85.17,53.32c6.18,0.05,11.35,14.71,15.52,43.98
				c3.97,29.96,5.86,65.94,5.66,107.96c-0.25,41.33-2.52,76.93-6.84,106.79c-4.51,29.22-9.86,43.81-16.03,43.76
				c-6.13-0.05-11.3-14.68-15.52-43.91c-4.27-29.96-6.28-65.58-6.03-106.86c0.25-42.07,2.65-78.03,7.21-107.89
				C73.64,67.93,78.99,53.32,85.17,53.32z"/>
		</g>
		<g>
			
				<radialGradient id="SVGID_7_" cx="-393.8164" cy="76.2993" r="33.8259" gradientTransform="matrix(0.7811 -1.2464 0.5354 0.3598 339.3406 -109.5337)" gradientUnits="userSpaceOnUse">
				<stop  offset="0" style="stop-color:#FFFFFF;stop-opacity:0.6941"/>
				<stop  offset="0.1922" style="stop-color:#FFFFFF;stop-opacity:0.4902"/>
				<stop  offset="0.5333" style="stop-color:#FEFEFE;stop-opacity:0.2"/>
				<stop  offset="0.7765" style="stop-color:#FCFCFC;stop-opacity:0.0863"/>
				<stop  offset="1" style="stop-color:#F9F9F9;stop-opacity:0"/>
			</radialGradient>
			<path fill-rule="evenodd" clip-rule="evenodd" fill="url(#SVGID_7_)" d="M98.25,367.79c4.9,3.29,6.62,10.08,5.15,20.37
				c-0.74,13.4-3.73,28.4-8.97,45.01c-5.25,16.61-14.46,21.07-27.65,13.39c-8.48,5.59-15.17,6.74-20.08,3.46
				c-4.9-3.28-6.59-10.08-5.07-20.37c1.57-10.49,5.88-21.35,12.94-32.58c7.16-11.42,15.05-20.03,23.68-25.81
				C86.68,365.66,93.35,364.51,98.25,367.79z"/>
		</g>
	</g>
</g>
</svg>
