<?xml version="1.0" encoding="utf-8"?>
<!-- Generator: Adobe Illustrator 16.0.0, SVG Export Plug-In . SVG Version: 6.00 Build 0)  -->
<!DOCTYPE svg PUBLIC "-//W3C//DTD SVG 1.1//EN" "http://www.w3.org/Graphics/SVG/1.1/DTD/svg11.dtd">
<svg version="1.1" id="Layer_1" xmlns="http://www.w3.org/2000/svg" xmlns:xlink="http://www.w3.org/1999/xlink" x="0px" y="0px"
	 width="29.83px" height="28px" viewBox="0 0 29.83 28" enable-background="new 0 0 29.83 28" xml:space="preserve">
<symbol  id="glace" viewBox="-7.1 -2.5 14.15 5.05">
	<g id="Layer_1_2_">
		<g>
			
				<radialGradient id="SVGID_1_" cx="0" cy="0" r="7.25" gradientTransform="matrix(1 0 0 0.3569 0 4.882813e-004)" gradientUnits="userSpaceOnUse">
				<stop  offset="0" style="stop-color:#FFFFFF;stop-opacity:0.6941"/>
				<stop  offset="0.1922" style="stop-color:#FFFFFF;stop-opacity:0.4902"/>
				<stop  offset="0.5333" style="stop-color:#FEFEFE;stop-opacity:0.2"/>
				<stop  offset="0.7765" style="stop-color:#FCFCFC;stop-opacity:0.0902"/>
				<stop  offset="1" style="stop-color:#F9F9F9;stop-opacity:0"/>
			</radialGradient>
			<path fill-rule="evenodd" clip-rule="evenodd" fill="url(#SVGID_1_)" d="M-0.05,2.55C1.92,2.55,3.6,2.3,5,1.8
				C6.37,1.3,7.05,0.7,7.05,0S6.37-1.3,5-1.8C3.6-2.27,1.92-2.5-0.05-2.5c-1.93,0-3.6,0.23-5,0.7C-6.42-1.3-7.1-0.7-7.1,0
				s0.68,1.3,2.05,1.8C-3.65,2.3-1.98,2.55-0.05,2.55z"/>
		</g>
	</g>
</symbol>
<g>
	<g>
		<g>
			
				<linearGradient id="SVGID_2_" gradientUnits="userSpaceOnUse" x1="-526.5142" y1="-467.6255" x2="-518.0191" y2="-467.6255" gradientTransform="matrix(-0.6033 -0.7975 0.8217 -0.5713 78.4682 -677.4198)">
				<stop  offset="0" style="stop-color:#101013"/>
				<stop  offset="1" style="stop-color:#565447"/>
			</linearGradient>
			<path fill-rule="evenodd" clip-rule="evenodd" fill="url(#SVGID_2_)" d="M8.9,2.77c3.3-1.7,6.75-2.02,10.35-0.95
				c3.53,1.03,6.15,3.13,7.85,6.3c1.8,3.13,2.15,6.38,1.05,9.75c-1.07,3.4-3.25,5.95-6.55,7.65c-3.33,1.7-6.75,2.03-10.25,1
				c-3.6-1.1-6.25-3.22-7.95-6.35c-1.77-3.13-2.12-6.42-1.05-9.85C3.45,6.98,5.63,4.47,8.9,2.77z"/>
		</g>
	</g>
	<g>
		<g>
			<path fill-rule="evenodd" clip-rule="evenodd" d="M25.25,14.37c0,2.67-0.97,4.93-2.9,6.8c-1.93,1.87-4.3,2.8-7.1,2.8
				c-2.77,0-5.12-0.93-7.05-2.8c-2-1.87-3-4.13-3-6.8c0-2.63,1-4.88,3-6.75c1.93-1.9,4.28-2.85,7.05-2.85c2.8,0,5.17,0.95,7.1,2.85
				C24.28,9.48,25.25,11.73,25.25,14.37z"/>
		</g>
		<g>
			<g>
				
					<linearGradient id="SVGID_3_" gradientUnits="userSpaceOnUse" x1="-333.8501" y1="-7.417" x2="-331.4771" y2="-7.417" gradientTransform="matrix(0.6637 -0.748 0.7755 0.6327 234.7094 -235.0121)">
					<stop  offset="0" style="stop-color:#000000"/>
					<stop  offset="0.8392" style="stop-color:#534A36"/>
					<stop  offset="1" style="stop-color:#3E3728"/>
				</linearGradient>
				<path fill-rule="evenodd" clip-rule="evenodd" fill="url(#SVGID_3_)" d="M8.05,7.79L8.5,8.12l0.1,0.05
					c0.07,0.07,0.15,0.12,0.25,0.15c0.17,0.2,0.25,0.47,0.25,0.8c0,0.03,0,0.08,0,0.15c0,0.1-0.03,0.2-0.1,0.3
					C8.93,9.63,8.88,9.72,8.85,9.82h-0.1c-0.03,0.1-0.12,0.17-0.25,0.2c-0.13,0.07-0.28,0.1-0.45,0.1c-0.27,0-0.52-0.1-0.75-0.3
					c0-0.07-0.02-0.1-0.05-0.1l-0.5-0.4c0.03,0,0.13,0,0.3,0c0.27,0,0.52-0.1,0.75-0.3c0.2-0.2,0.3-0.43,0.3-0.7
					c0-0.13,0-0.23,0-0.3C8.07,7.95,8.05,7.9,8.05,7.87V7.79z"/>
				<path fill-rule="evenodd" clip-rule="evenodd" fill="#333333" d="M6.75,9.32l0.5,0.4c-0.3,0.4-0.52,0.83-0.65,1.3
					c-0.07,0.1-0.13,0.18-0.2,0.25l-0.55-0.45l0.1-0.1c0.2-0.5,0.43-0.98,0.7-1.45v0.05H6.75z M8.5,8.12L8.05,7.79V7.77l-0.1-0.05
					C8.02,7.65,8.07,7.6,8.1,7.57c0.33-0.33,0.67-0.62,1-0.85l0.15,0.15l0.3,0.15l0.1,0.05C9.32,7.33,9,7.62,8.7,7.92
					C8.63,7.98,8.57,8.05,8.5,8.12z M13.35,5.47c-0.03,0-0.08,0-0.15,0c-0.03,0.07-0.08,0.1-0.15,0.1h-0.1
					c-0.47,0.13-0.92,0.28-1.35,0.45l-0.55-0.4h0.05c0.5-0.2,1.02-0.38,1.55-0.55c0.03,0,0.08,0,0.15,0
					c0.07,0.07,0.15,0.12,0.25,0.15L13.35,5.47z M15.45,5.22l-0.6-0.35c0.1,0,0.17,0,0.2,0c0.6,0,1.17,0.02,1.7,0.05l0.65,0.55
					c-0.2-0.07-0.42-0.1-0.65-0.1C16.32,5.27,15.88,5.22,15.45,5.22z M19.85,5.92l0.95,0.95c-0.2-0.17-0.42-0.3-0.65-0.4
					c-0.27-0.17-0.53-0.3-0.8-0.4l-0.8-0.7C18.98,5.53,19.42,5.72,19.85,5.92z M22.25,8.12L21.4,6.87c0.13,0.13,0.28,0.28,0.45,0.45
					c0.1,0.07,0.18,0.15,0.25,0.25c0.1,0.1,0.22,0.2,0.35,0.3l0.7,1.25c-0.2-0.33-0.43-0.65-0.7-0.95
					C22.38,8.17,22.32,8.15,22.25,8.12z M6.5,18.92l1.2,0.8c0.17,0.2,0.37,0.4,0.6,0.6c0.1,0.17,0.23,0.32,0.4,0.45l-1.65-1
					C6.85,19.53,6.67,19.25,6.5,18.92z M5.35,16.22l0.9,0.55c0.07,0.2,0.12,0.4,0.15,0.6c0.07,0.23,0.15,0.42,0.25,0.55H6.6
					l-0.85-0.55c-0.03-0.03-0.05-0.08-0.05-0.15C5.6,16.92,5.48,16.58,5.35,16.22z M5.35,12.72L6,13.27c-0.03,0.33-0.05,0.67-0.05,1
					v0.1c0,0.17,0,0.3,0,0.4l-0.75-0.5c0-0.03,0-0.08,0-0.15C5.2,13.65,5.25,13.18,5.35,12.72z"/>
				<polygon fill-rule="evenodd" clip-rule="evenodd" fill="#6D6247" points="9.25,6.87 9.1,6.72 9.15,6.72 9.25,6.77 				"/>
				
					<linearGradient id="SVGID_4_" gradientUnits="userSpaceOnUse" x1="-304.3657" y1="6.6279" x2="-300.4933" y2="6.6279" gradientTransform="matrix(0.7231 -0.6908 0.7249 0.6904 224.5069 -206.3063)">
					<stop  offset="0" style="stop-color:#000000"/>
					<stop  offset="0.8392" style="stop-color:#534A36"/>
					<stop  offset="1" style="stop-color:#3E3728"/>
				</linearGradient>
				<path fill-rule="evenodd" clip-rule="evenodd" fill="url(#SVGID_4_)" d="M11.05,5.62l0.55,0.4c0.2,0.2,0.3,0.45,0.3,0.75
					c0,0.2-0.05,0.38-0.15,0.55c-0.07,0.07-0.12,0.12-0.15,0.15c-0.07,0.07-0.12,0.1-0.15,0.1c-0.07,0.03-0.13,0.08-0.2,0.15
					c-0.13,0.03-0.27,0.05-0.4,0.05H10.8c-0.27,0-0.52-0.1-0.75-0.3C9.98,7.43,9.93,7.33,9.9,7.17c-0.1,0-0.18-0.03-0.25-0.1
					l-0.1-0.05c0.17,0.03,0.3,0.05,0.4,0.05c0.33,0,0.62-0.1,0.85-0.3c0.2-0.2,0.3-0.43,0.3-0.7c0-0.13-0.02-0.25-0.05-0.35V5.62z"
					/>
				
					<radialGradient id="SVGID_5_" cx="187.543" cy="-99.9893" r="10.4062" gradientTransform="matrix(0.8757 0.4829 -0.7964 1.3201 -231.9604 60.4545)" gradientUnits="userSpaceOnUse">
					<stop  offset="0" style="stop-color:#574F42"/>
					<stop  offset="1" style="stop-color:#1E1E1E"/>
				</radialGradient>
				<path fill-rule="evenodd" clip-rule="evenodd" fill="url(#SVGID_5_)" d="M17.65,23.17c0-0.3-0.1-0.55-0.3-0.75
					c-0.07-0.07-0.15-0.12-0.25-0.15c-0.1-0.07-0.23-0.1-0.4-0.1c0-0.03-0.03-0.05-0.1-0.05c-0.17,0-0.3,0.05-0.4,0.15
					c-0.1,0-0.2,0.05-0.3,0.15c-0.07,0.03-0.13,0.08-0.2,0.15c-0.1,0.17-0.15,0.37-0.15,0.6c0,0.1,0,0.18,0,0.25
					c-0.07,0-0.12,0-0.15,0c-0.43,0-0.87-0.03-1.3-0.1c0-0.1,0-0.2,0-0.3c0-0.23-0.1-0.47-0.3-0.7c-0.07-0.1-0.15-0.17-0.25-0.2
					c-0.17-0.07-0.33-0.1-0.5-0.1c-0.33,0-0.6,0.1-0.8,0.3c0,0.07-0.03,0.12-0.1,0.15c-0.03,0-0.05,0.03-0.05,0.1
					c-0.07,0.1-0.1,0.2-0.1,0.3c-0.07,0-0.1-0.02-0.1-0.05h-0.05c-0.13-0.07-0.25-0.12-0.35-0.15c-0.3-0.13-0.62-0.3-0.95-0.5
					c-0.07-0.03-0.12-0.05-0.15-0.05c0.1-0.1,0.17-0.23,0.2-0.4c0.07-0.1,0.1-0.23,0.1-0.4c0-0.23-0.1-0.47-0.3-0.7
					c-0.07-0.03-0.13-0.05-0.2-0.05l-0.05-0.1c-0.17-0.1-0.33-0.15-0.5-0.15c-0.33,0-0.6,0.1-0.8,0.3c0,0.06-0.02,0.1-0.08,0.13
					l-0.02,0.02H8.7c-0.17-0.13-0.3-0.28-0.4-0.45c-0.23-0.2-0.43-0.4-0.6-0.6c0.1-0.07,0.22-0.12,0.35-0.15
					c0.17-0.23,0.25-0.5,0.25-0.8c0-0.27-0.08-0.5-0.25-0.7c-0.13-0.1-0.25-0.15-0.35-0.15c-0.1-0.1-0.25-0.15-0.45-0.15
					c-0.23,0-0.43,0.05-0.6,0.15c-0.1-0.13-0.18-0.32-0.25-0.55c-0.03-0.2-0.08-0.4-0.15-0.6c0.27,0,0.52-0.1,0.75-0.3
					c0.17-0.17,0.27-0.35,0.3-0.55c0-0.07,0-0.12,0-0.15c0-0.1-0.02-0.2-0.05-0.3c0-0.07,0-0.12,0-0.15
					C7.12,15.18,7.03,15.1,7,15.07c-0.07-0.1-0.15-0.18-0.25-0.25c-0.17-0.03-0.33-0.05-0.5-0.05c-0.1,0-0.2,0-0.3,0
					c0-0.1,0-0.23,0-0.4v-0.1c0-0.33,0.02-0.67,0.05-1c0.1,0.07,0.22,0.1,0.35,0.1c0.3,0,0.57-0.1,0.8-0.3
					C7.22,13,7.27,12.95,7.3,12.92c0.1-0.17,0.15-0.35,0.15-0.55c0-0.07,0-0.12,0-0.15c-0.03-0.27-0.13-0.48-0.3-0.65
					c-0.1-0.03-0.18-0.08-0.25-0.15c-0.17-0.03-0.33-0.08-0.5-0.15c0.07-0.07,0.13-0.15,0.2-0.25c0.13-0.47,0.35-0.9,0.65-1.3
					c0.03,0,0.05,0.03,0.05,0.1c0.23,0.2,0.48,0.3,0.75,0.3c0.17,0,0.32-0.03,0.45-0.1c0.13-0.03,0.22-0.1,0.25-0.2h0.1
					C8.88,9.72,8.93,9.63,9,9.57c0.07-0.1,0.1-0.2,0.1-0.3c0-0.07,0-0.12,0-0.15c0-0.33-0.08-0.6-0.25-0.8
					C8.75,8.28,8.67,8.23,8.6,8.17L8.5,8.12c0.07-0.07,0.13-0.13,0.2-0.2C9,7.62,9.32,7.33,9.65,7.07c0.07,0.07,0.15,0.1,0.25,0.1
					c0.03,0.17,0.08,0.27,0.15,0.3c0.23,0.2,0.48,0.3,0.75,0.3h0.05c0.13,0,0.27-0.02,0.4-0.05c0.07-0.07,0.13-0.12,0.2-0.15
					c0.03,0,0.08-0.03,0.15-0.1c0.03-0.03,0.08-0.08,0.15-0.15c0.1-0.17,0.15-0.35,0.15-0.55c0-0.3-0.1-0.55-0.3-0.75
					c0.43-0.17,0.88-0.32,1.35-0.45h0.1c0.07,0,0.12-0.03,0.15-0.1c0.07,0,0.12,0,0.15,0c0,0.07,0,0.12,0,0.15c0,0.1,0,0.18,0,0.25
					c0.07,0.03,0.13,0.1,0.2,0.2c0,0.1,0.05,0.18,0.15,0.25c0.1,0.17,0.23,0.27,0.4,0.3c0.1,0,0.2,0,0.3,0
					c0.23,0,0.43-0.02,0.6-0.05c0.03-0.07,0.12-0.15,0.25-0.25c0.2-0.17,0.3-0.4,0.3-0.7c0-0.1-0.03-0.23-0.1-0.4
					c0.43,0,0.87,0.05,1.3,0.15c0.23,0,0.45,0.03,0.65,0.1c-0.17,0.17-0.25,0.35-0.25,0.55c0,0.2,0.07,0.35,0.2,0.45
					c0.03,0.1,0.08,0.2,0.15,0.3c0.07,0,0.12,0.03,0.15,0.1c0.17,0.13,0.38,0.2,0.65,0.2c0.27,0,0.52-0.1,0.75-0.3
					c0.2-0.2,0.3-0.43,0.3-0.7c0.27,0.1,0.53,0.23,0.8,0.4c0.23,0.1,0.45,0.23,0.65,0.4c-0.1,0-0.18,0.05-0.25,0.15
					c-0.1,0.03-0.17,0.12-0.2,0.25c-0.07,0.13-0.1,0.28-0.1,0.45c0,0.13,0.03,0.28,0.1,0.45c0.03,0.07,0.08,0.12,0.15,0.15
					c0.1,0.1,0.2,0.18,0.3,0.25c0.1,0.1,0.27,0.15,0.5,0.15c0.2,0,0.38-0.03,0.55-0.1c0.07-0.03,0.15-0.1,0.25-0.2
					s0.15-0.2,0.15-0.3c0.07,0.03,0.13,0.05,0.2,0.05c0.27,0.3,0.5,0.62,0.7,0.95c0.07,0.1,0.15,0.17,0.25,0.2
					c0,0.1,0.03,0.18,0.1,0.25c-0.07,0-0.13,0.03-0.2,0.1c-0.1,0-0.23,0.05-0.4,0.15l-0.05,0.05c-0.17,0.17-0.25,0.38-0.25,0.65
					v0.05c0,0.1,0,0.18,0,0.25c0,0.03,0,0.08,0,0.15c0.03,0,0.05,0.02,0.05,0.05v0.1c0.07,0,0.1,0.02,0.1,0.05l0.1,0.1
					c0.2,0.2,0.47,0.3,0.8,0.3c0.27,0,0.5-0.1,0.7-0.3c0.17,0.53,0.3,1.05,0.4,1.55c0.07,0.07,0.1,0.15,0.1,0.25
					c-0.1-0.07-0.2-0.1-0.3-0.1c-0.27,0-0.52,0.1-0.75,0.3c-0.07,0.07-0.12,0.15-0.15,0.25c-0.1,0.17-0.15,0.32-0.15,0.45
					c0,0.2,0.05,0.35,0.15,0.45c0,0.13,0.05,0.25,0.15,0.35c0.23,0.2,0.48,0.3,0.75,0.3c0.13,0,0.27-0.03,0.4-0.1
					c-0.07,0.47-0.15,0.93-0.25,1.4h-0.1c-0.03-0.03-0.12-0.08-0.25-0.15c-0.03,0-0.1,0-0.2,0c-0.3,0-0.55,0.1-0.75,0.3
					c-0.17,0.17-0.27,0.33-0.3,0.5c0,0.1,0,0.17,0,0.2c0,0.17,0.02,0.33,0.05,0.5c0.07,0.1,0.15,0.2,0.25,0.3
					c0.17,0.13,0.38,0.23,0.65,0.3c-0.23,0.4-0.5,0.78-0.8,1.15l-0.1-0.05c-0.03-0.13-0.12-0.2-0.25-0.2
					c-0.17-0.1-0.32-0.15-0.45-0.15s-0.25,0.03-0.35,0.1c-0.17,0-0.3,0.08-0.4,0.25c-0.2,0.2-0.3,0.42-0.3,0.65
					c0,0.17,0.02,0.33,0.05,0.5c0,0.03,0.03,0.05,0.1,0.05c0,0.07,0.05,0.15,0.15,0.25c0.07,0.07,0.15,0.12,0.25,0.15
					c-0.37,0.3-0.77,0.58-1.2,0.85c0-0.17-0.08-0.3-0.25-0.4c-0.1-0.1-0.18-0.17-0.25-0.2c-0.17-0.07-0.33-0.1-0.5-0.1
					c-0.1,0-0.2,0-0.3,0c-0.13,0.1-0.25,0.18-0.35,0.25h-0.05l-0.1,0.05c-0.2,0.23-0.3,0.47-0.3,0.7c0,0.17,0.05,0.33,0.15,0.5
					c0.03,0.03,0.08,0.1,0.15,0.2C18.52,23.03,18.08,23.13,17.65,23.17z M9.95,20.27v0.05h0.1L9.95,20.27z M16.85,21.97l0.1,0.05
					v-0.05H16.85z"/>
				
					<linearGradient id="SVGID_6_" gradientUnits="userSpaceOnUse" x1="-297.6826" y1="8.6357" x2="-295.6136" y2="8.6357" gradientTransform="matrix(0.725 -0.6887 0.7208 0.6946 223.2648 -204.5288)">
					<stop  offset="0" style="stop-color:#000000"/>
					<stop  offset="0.8392" style="stop-color:#534A36"/>
					<stop  offset="1" style="stop-color:#3E3728"/>
				</linearGradient>
				<path fill-rule="evenodd" clip-rule="evenodd" fill="url(#SVGID_6_)" d="M14.85,4.87l0.6,0.35c0.07,0.17,0.1,0.3,0.1,0.4
					c0,0.3-0.1,0.53-0.3,0.7C15.12,6.42,15.03,6.5,15,6.57c-0.17,0.03-0.37,0.05-0.6,0.05c-0.1,0-0.2,0-0.3,0
					c-0.17-0.03-0.3-0.13-0.4-0.3c-0.1-0.07-0.15-0.15-0.15-0.25c-0.07-0.1-0.13-0.17-0.2-0.2c0-0.07,0-0.15,0-0.25
					c0-0.03,0-0.08,0-0.15c0.17,0.07,0.32,0.1,0.45,0.1c0.3,0,0.53-0.12,0.7-0.35C14.67,5.12,14.78,5,14.85,4.87z"/>
				
					<linearGradient id="SVGID_7_" gradientUnits="userSpaceOnUse" x1="-242.0537" y1="26.0693" x2="-239.5135" y2="26.0693" gradientTransform="matrix(0.807 -0.5905 0.615 0.7891 196.1967 -156.9182)">
					<stop  offset="0" style="stop-color:#000000"/>
					<stop  offset="0.8392" style="stop-color:#534A36"/>
					<stop  offset="1" style="stop-color:#3E3728"/>
				</linearGradient>
				<path fill-rule="evenodd" clip-rule="evenodd" fill="url(#SVGID_7_)" d="M17.4,5.47l-0.65-0.55c0.6,0.1,1.2,0.25,1.8,0.45
					l0.8,0.7c0,0.27-0.1,0.5-0.3,0.7c-0.23,0.2-0.48,0.3-0.75,0.3c-0.27,0-0.48-0.07-0.65-0.2c-0.03-0.07-0.08-0.1-0.15-0.1
					c-0.07-0.1-0.12-0.2-0.15-0.3c-0.13-0.1-0.2-0.25-0.2-0.45C17.15,5.82,17.23,5.63,17.4,5.47z"/>
				
					<linearGradient id="SVGID_8_" gradientUnits="userSpaceOnUse" x1="-294.4038" y1="15.7217" x2="-292.0157" y2="15.7217" gradientTransform="matrix(0.7328 -0.6805 0.7213 0.6949 224.5072 -203.2818)">
					<stop  offset="0" style="stop-color:#000000"/>
					<stop  offset="0.8392" style="stop-color:#534A36"/>
					<stop  offset="1" style="stop-color:#3E3728"/>
				</linearGradient>
				<path fill-rule="evenodd" clip-rule="evenodd" fill="url(#SVGID_8_)" d="M21.4,6.87l0.85,1.25c0,0.1-0.05,0.2-0.15,0.3
					s-0.18,0.17-0.25,0.2c-0.17,0.07-0.35,0.1-0.55,0.1c-0.23,0-0.4-0.05-0.5-0.15c-0.1-0.07-0.2-0.15-0.3-0.25
					c-0.07-0.03-0.12-0.08-0.15-0.15c-0.07-0.17-0.1-0.32-0.1-0.45c0-0.17,0.03-0.32,0.1-0.45c0.03-0.13,0.1-0.22,0.2-0.25
					c0.07-0.1,0.15-0.15,0.25-0.15l-0.95-0.95C20.38,6.18,20.9,6.5,21.4,6.87z"/>
				
					<linearGradient id="SVGID_9_" gradientUnits="userSpaceOnUse" x1="-197.0601" y1="40.9424" x2="-195.246" y2="40.9424" gradientTransform="matrix(0.8682 -0.4961 0.5258 0.8513 172.2665 -121.5296)">
					<stop  offset="0" style="stop-color:#000000"/>
					<stop  offset="0.8392" style="stop-color:#534A36"/>
					<stop  offset="1" style="stop-color:#3E3728"/>
				</linearGradient>
				<path fill-rule="evenodd" clip-rule="evenodd" fill="url(#SVGID_9_)" d="M24.35,11.27c-0.2,0.2-0.43,0.3-0.7,0.3
					c-0.33,0-0.6-0.1-0.8-0.3l-0.1-0.1c0-0.03-0.03-0.05-0.1-0.05v-0.1c0-0.03-0.02-0.05-0.05-0.05c0-0.07,0-0.12,0-0.15
					c0-0.07,0-0.15,0-0.25v-0.05c0-0.27,0.08-0.48,0.25-0.65l0.05-0.05c0.17-0.1,0.3-0.15,0.4-0.15l1,1.5L24.35,11.27z"/>
				
					<linearGradient id="SVGID_10_" gradientUnits="userSpaceOnUse" x1="266.7842" y1="-413.9912" x2="268.1612" y2="-413.9912" gradientTransform="matrix(0.2723 0.9622 -0.9737 0.2318 -451.6331 -146.6098)">
					<stop  offset="0" style="stop-color:#000000"/>
					<stop  offset="0.8392" style="stop-color:#534A36"/>
					<stop  offset="1" style="stop-color:#3E3728"/>
				</linearGradient>
				<path fill-rule="evenodd" clip-rule="evenodd" fill="url(#SVGID_10_)" d="M24.95,14.97c-0.13,0.07-0.27,0.1-0.4,0.1
					c-0.27,0-0.52-0.1-0.75-0.3c-0.1-0.1-0.15-0.22-0.15-0.35c-0.1-0.1-0.15-0.25-0.15-0.45c0-0.13,0.05-0.28,0.15-0.45L24.95,14.97
					z"/>
				
					<linearGradient id="SVGID_11_" gradientUnits="userSpaceOnUse" x1="249.8896" y1="-193.0908" x2="251.5164" y2="-193.0908" gradientTransform="matrix(0.7223 0.6916 -0.7249 0.6904 -300.2008 -17.6278)">
					<stop  offset="0" style="stop-color:#000000"/>
					<stop  offset="0.8392" style="stop-color:#534A36"/>
					<stop  offset="1" style="stop-color:#3E3728"/>
				</linearGradient>
				<path fill-rule="evenodd" clip-rule="evenodd" fill="url(#SVGID_11_)" d="M19.1,21.42c0.1-0.07,0.22-0.15,0.35-0.25
					c0.1,0,0.2,0,0.3,0c0.17,0,0.33,0.03,0.5,0.1c0.07,0.03,0.15,0.1,0.25,0.2c0.17,0.1,0.25,0.23,0.25,0.4L19.1,21.42z"/>
				
					<linearGradient id="SVGID_12_" gradientUnits="userSpaceOnUse" x1="270.2783" y1="-416.3462" x2="272.5587" y2="-416.3462" gradientTransform="matrix(0.2631 0.9648 -0.9728 0.2335 -452.5923 -145.6607)">
					<stop  offset="0" style="stop-color:#000000"/>
					<stop  offset="0.8392" style="stop-color:#534A36"/>
					<stop  offset="1" style="stop-color:#3E3728"/>
				</linearGradient>
				<path fill-rule="evenodd" clip-rule="evenodd" fill="url(#SVGID_12_)" d="M24.05,18.32c-0.27-0.07-0.48-0.17-0.65-0.3
					c-0.1-0.1-0.18-0.2-0.25-0.3c-0.03-0.17-0.05-0.33-0.05-0.5c0-0.03,0-0.1,0-0.2L24.05,18.32z"/>
				
					<linearGradient id="SVGID_13_" gradientUnits="userSpaceOnUse" x1="117.4619" y1="-677.0596" x2="119.5027" y2="-677.0596" gradientTransform="matrix(-0.5145 0.8575 -0.8699 -0.4937 -521.5018 -423.4401)">
					<stop  offset="0" style="stop-color:#000000"/>
					<stop  offset="0.8392" style="stop-color:#534A36"/>
					<stop  offset="1" style="stop-color:#3E3728"/>
				</linearGradient>
				<path fill-rule="evenodd" clip-rule="evenodd" fill="url(#SVGID_13_)" d="M6,13.27l-0.65-0.55h0.1c0.27,0,0.5-0.1,0.7-0.3
					c0.23-0.2,0.35-0.45,0.35-0.75c0-0.1-0.03-0.23-0.1-0.4c0.17,0.07,0.33,0.12,0.5,0.15c0.07,0.07,0.15,0.12,0.25,0.15
					c0.17,0.17,0.27,0.38,0.3,0.65c0,0.03,0,0.08,0,0.15c0,0.2-0.05,0.38-0.15,0.55C7.27,12.95,7.22,13,7.15,13.07
					c-0.23,0.2-0.5,0.3-0.8,0.3C6.22,13.37,6.1,13.33,6,13.27z"/>
				
					<linearGradient id="SVGID_14_" gradientUnits="userSpaceOnUse" x1="120.6426" y1="-682.0894" x2="122.4949" y2="-682.0894" gradientTransform="matrix(-0.5264 0.8503 -0.8703 -0.494 -523.2562 -424.5043)">
					<stop  offset="0" style="stop-color:#000000"/>
					<stop  offset="0.8392" style="stop-color:#534A36"/>
					<stop  offset="1" style="stop-color:#3E3728"/>
				</linearGradient>
				<path fill-rule="evenodd" clip-rule="evenodd" fill="url(#SVGID_14_)" d="M6.25,16.77l-0.9-0.55v-0.05
					c0.13-0.07,0.25-0.15,0.35-0.25c0.2-0.2,0.3-0.47,0.3-0.8c0-0.1-0.02-0.2-0.05-0.3v-0.05c0.1,0,0.2,0,0.3,0
					c0.17,0,0.33,0.02,0.5,0.05c0.1,0.07,0.18,0.15,0.25,0.25c0.03,0.03,0.12,0.12,0.25,0.25c0,0.03,0,0.08,0,0.15
					c0.03,0.1,0.05,0.2,0.05,0.3c0,0.03,0,0.08,0,0.15c-0.03,0.2-0.13,0.38-0.3,0.55C6.77,16.67,6.52,16.77,6.25,16.77z"/>
				
					<linearGradient id="SVGID_15_" gradientUnits="userSpaceOnUse" x1="125.2764" y1="-684.0352" x2="127.0386" y2="-684.0352" gradientTransform="matrix(-0.5249 0.8512 -0.8744 -0.4872 -524.5424 -421.9258)">
					<stop  offset="0" style="stop-color:#000000"/>
					<stop  offset="0.8392" style="stop-color:#534A36"/>
					<stop  offset="1" style="stop-color:#3E3728"/>
				</linearGradient>
				<path fill-rule="evenodd" clip-rule="evenodd" fill="url(#SVGID_15_)" d="M7.7,19.72l-1.2-0.8c0.1-0.13,0.15-0.33,0.15-0.6
					c0-0.17,0-0.3,0-0.4c0.17-0.1,0.37-0.15,0.6-0.15c0.2,0,0.35,0.05,0.45,0.15c0.1,0,0.22,0.05,0.35,0.15
					c0.17,0.2,0.25,0.43,0.25,0.7c0,0.3-0.08,0.57-0.25,0.8C7.92,19.6,7.8,19.65,7.7,19.72z"/>
				<linearGradient id="SVGID_16_" gradientUnits="userSpaceOnUse" x1="9.8213" y1="21.293" x2="10.3025" y2="23.1163">
					<stop  offset="0" style="stop-color:#000000"/>
					<stop  offset="0.8392" style="stop-color:#534A36"/>
					<stop  offset="1" style="stop-color:#3E3728"/>
				</linearGradient>
				<path fill-rule="evenodd" clip-rule="evenodd" fill="url(#SVGID_16_)" d="M8.77,20.74c0.05-0.03,0.08-0.07,0.08-0.13
					c0.2-0.2,0.47-0.3,0.8-0.3c0.17,0,0.33,0.05,0.5,0.15l0.05,0.1c0.07,0,0.13,0.02,0.2,0.05c0.2,0.23,0.3,0.47,0.3,0.7
					c0,0.17-0.03,0.3-0.1,0.4c-0.03,0.17-0.1,0.3-0.2,0.4c0-0.1,0-0.23,0-0.4c0-0.17-0.03-0.3-0.1-0.4
					c-0.07-0.1-0.15-0.22-0.25-0.35c-0.07-0.07-0.12-0.1-0.15-0.1c-0.1-0.07-0.18-0.12-0.25-0.15c-0.07,0-0.15,0-0.25,0
					c-0.03-0.07-0.08-0.1-0.15-0.1C9.09,20.62,8.94,20.66,8.77,20.74z"/>
				
					<linearGradient id="SVGID_17_" gradientUnits="userSpaceOnUse" x1="275.0557" y1="-287.4785" x2="276.8179" y2="-287.4785" gradientTransform="matrix(0.5249 0.8512 -0.8852 0.4697 -385.149 -75.6949)">
					<stop  offset="0" style="stop-color:#000000"/>
					<stop  offset="0.8392" style="stop-color:#534A36"/>
					<stop  offset="1" style="stop-color:#3E3728"/>
				</linearGradient>
				<path fill-rule="evenodd" clip-rule="evenodd" fill="url(#SVGID_17_)" d="M12.25,22.32c0.2-0.2,0.47-0.3,0.8-0.3
					c0.17,0,0.33,0.03,0.5,0.1c0.1,0.03,0.18,0.1,0.25,0.2c0.2,0.23,0.3,0.47,0.3,0.7c0,0.1,0,0.2,0,0.3H14L12.25,22.32z"/>
				
					<linearGradient id="SVGID_18_" gradientUnits="userSpaceOnUse" x1="247.1855" y1="-191.2715" x2="249.0951" y2="-191.2715" gradientTransform="matrix(0.7201 0.6939 -0.7187 0.6962 -298.2459 -15.206)">
					<stop  offset="0" style="stop-color:#000000"/>
					<stop  offset="0.8392" style="stop-color:#534A36"/>
					<stop  offset="1" style="stop-color:#3E3728"/>
				</linearGradient>
				<path fill-rule="evenodd" clip-rule="evenodd" fill="url(#SVGID_18_)" d="M15.7,22.57c0.07-0.07,0.13-0.12,0.2-0.15
					c0.1-0.1,0.2-0.15,0.3-0.15c0.1-0.1,0.23-0.15,0.4-0.15c0.07,0,0.1,0.02,0.1,0.05c0.17,0,0.3,0.03,0.4,0.1
					c0.1,0.03,0.18,0.08,0.25,0.15c0.2,0.2,0.3,0.45,0.3,0.75L15.7,22.57z"/>
			</g>
		</g>
		<g>
			<path fill-rule="evenodd" clip-rule="evenodd" d="M18.7,10.97c0.97,0.93,1.45,2.03,1.45,3.3c0,1.3-0.48,2.42-1.45,3.35
				c-0.97,0.93-2.12,1.4-3.45,1.4c-1.4,0-2.6-0.47-3.6-1.4c-0.9-0.93-1.35-2.05-1.35-3.35c0-1.27,0.45-2.37,1.35-3.3
				c1-0.93,2.2-1.4,3.6-1.4C16.58,9.57,17.73,10.03,18.7,10.97z"/>
		</g>
		<g>
			
				<linearGradient id="SVGID_19_" gradientUnits="userSpaceOnUse" x1="253.5762" y1="-239.5332" x2="255.9545" y2="-239.5332" gradientTransform="matrix(0.6412 0.7674 -0.7911 0.6128 -335.2165 -35.3516)">
				<stop  offset="0" style="stop-color:#000000"/>
				<stop  offset="0.1608" style="stop-color:#0B0B0B"/>
				<stop  offset="0.3373" style="stop-color:#616161"/>
				<stop  offset="0.5529" style="stop-color:#0B0B0B"/>
				<stop  offset="0.6471" style="stop-color:#000000"/>
				<stop  offset="1" style="stop-color:#000000"/>
			</linearGradient>
			<path fill-rule="evenodd" clip-rule="evenodd" fill="url(#SVGID_19_)" d="M19.25,12.52l-1.2,0.45c0.07-0.1,0.1-0.18,0.1-0.25
				c0-0.23-0.12-0.45-0.35-0.65c-0.1-0.13-0.2-0.22-0.3-0.25l0.7-0.7c0.07,0,0.1,0.02,0.1,0.05C18.73,11.53,19.05,11.98,19.25,12.52
				z M17.8,13.92c-0.2,0.03-0.78,0.23-1.75,0.6l1.05-2.3c0.1,0.03,0.2,0.1,0.3,0.2c0.17,0.17,0.25,0.38,0.25,0.65
				C17.65,13.1,17.7,13.38,17.8,13.92z"/>
			<path fill-rule="evenodd" clip-rule="evenodd" fill="#0B0B0B" d="M17.5,11.82c0.1,0.03,0.2,0.12,0.3,0.25
				c0.23,0.2,0.35,0.42,0.35,0.65c0,0.07-0.03,0.15-0.1,0.25l-0.25,0.95c-0.1-0.53-0.15-0.82-0.15-0.85c0-0.27-0.08-0.48-0.25-0.65
				c-0.1-0.1-0.2-0.17-0.3-0.2L17.5,11.82z"/>
			
				<radialGradient id="SVGID_20_" cx="187.6416" cy="-102.6123" r="5.7962" gradientTransform="matrix(0.8756 0.4831 -0.7958 1.3177 -232.7517 61.3817)" gradientUnits="userSpaceOnUse">
				<stop  offset="0" style="stop-color:#565447"/>
				<stop  offset="0.3373" style="stop-color:#0C0C0C"/>
				<stop  offset="1" style="stop-color:#0B0B0B"/>
			</radialGradient>
			<path fill-rule="evenodd" clip-rule="evenodd" fill="url(#SVGID_20_)" d="M18.05,12.97l1.2-0.45c0.3,0.5,0.45,1.07,0.45,1.7
				c0,1.17-0.47,2.2-1.4,3.1c-0.87,0.83-1.92,1.25-3.15,1.25c-1.3,0-2.38-0.42-3.25-1.25c-0.87-0.9-1.3-1.93-1.3-3.1v-0.1l5.45,0.4
				l-4.8-2.65c0.23-0.23,0.45-0.47,0.65-0.7c0.87-0.87,1.95-1.3,3.25-1.3c1.2,0,2.22,0.42,3.05,1.25l-0.7,0.7l-0.4,0.4l-1.05,2.3
				c0.97-0.37,1.55-0.57,1.75-0.6L18.05,12.97z"/>
			
				<linearGradient id="SVGID_21_" gradientUnits="userSpaceOnUse" x1="-439.999" y1="-85.71" x2="-429.7483" y2="-85.71" gradientTransform="matrix(0.3634 -0.9316 0.9378 0.3477 252.413 -363.19)">
				<stop  offset="0" style="stop-color:#000000"/>
				<stop  offset="0.1647" style="stop-color:#000000"/>
				<stop  offset="0.3373" style="stop-color:#616161"/>
				<stop  offset="0.4745" style="stop-color:#0B0B0B"/>
				<stop  offset="0.6471" style="stop-color:#000000"/>
				<stop  offset="1" style="stop-color:#000000"/>
			</linearGradient>
			<path fill-rule="evenodd" clip-rule="evenodd" fill="url(#SVGID_21_)" d="M11.25,11.87l4.8,2.65l-5.45-0.4c0-0.2,0-0.4,0-0.6
				C10.73,12.88,10.95,12.33,11.25,11.87z"/>
		</g>
		
			<use xlink:href="#glace"  width="14.15" height="5.05" x="-7.1" y="-2.5" transform="matrix(0.4324 0.1109 0.1545 -0.5518 13.1499 14.0674)" overflow="visible"/>
		
			<use xlink:href="#glace"  width="14.15" height="5.05" x="-7.1" y="-2.5" transform="matrix(0.4869 -0.7902 -0.845 -0.4315 5.2002 9.2666)" overflow="visible"/>
	</g>
</g>
</svg>
