<?xml version="1.0" encoding="utf-8"?>
<!-- Generator: Adobe Illustrator 16.0.0, SVG Export Plug-In . SVG Version: 6.00 Build 0)  -->
<!DOCTYPE svg PUBLIC "-//W3C//DTD SVG 1.1//EN" "http://www.w3.org/Graphics/SVG/1.1/DTD/svg11.dtd">
<svg version="1.1" id="Layer_1" xmlns="http://www.w3.org/2000/svg" xmlns:xlink="http://www.w3.org/1999/xlink" x="0px" y="0px"
	 width="28.39px" height="379.75px" viewBox="0 0 28.39 379.75" enable-background="new 0 0 28.39 379.75" xml:space="preserve">
<g>
	<path fill-rule="evenodd" clip-rule="evenodd" fill-opacity="0.2471" d="M28.31,2.92h0.07v374.12c0-0.1-0.03-0.17-0.07-0.22v0.51
		c-0.34,0.44-1.72,0.83-4.12,1.18c-2.75,0.44-6.08,0.66-10,0.66s-7.28-0.22-10.08-0.66C1.37,378.12,0,377.63,0,377.04V2.7
		c0-0.59,1.37-1.1,4.12-1.54c2.79-0.39,6.15-0.59,10.08-0.59s7.26,0.2,10,0.59c2.4,0.39,3.78,0.83,4.12,1.32V2.92z"/>
</g>
</svg>
