<?xml version="1.0" encoding="utf-8"?>
<!-- Generator: Adobe Illustrator 16.0.0, SVG Export Plug-In . SVG Version: 6.00 Build 0)  -->
<!DOCTYPE svg PUBLIC "-//W3C//DTD SVG 1.1//EN" "http://www.w3.org/Graphics/SVG/1.1/DTD/svg11.dtd">
<svg version="1.1" id="Layer_2" xmlns="http://www.w3.org/2000/svg" xmlns:xlink="http://www.w3.org/1999/xlink" x="0px" y="0px"
	 width="57.33px" height="436.33px" viewBox="0 0 57.33 436.33" enable-background="new 0 0 57.33 436.33" xml:space="preserve">
<g>
	<g>
		
			<linearGradient id="SVGID_1_" gradientUnits="userSpaceOnUse" x1="-274.1636" y1="-148.7896" x2="-274.1636" y2="-143.6145" gradientTransform="matrix(1.4586 0 0 1.469 426.2721 284.7066)">
			<stop  offset="0" style="stop-color:#3E4143"/>
			<stop  offset="0.3608" style="stop-color:#959A9E"/>
			<stop  offset="0.4902" style="stop-color:#A9B0B2"/>
			<stop  offset="0.7373" style="stop-color:#D0D4D4"/>
			<stop  offset="1" style="stop-color:#869193"/>
		</linearGradient>
		<path fill-rule="evenodd" clip-rule="evenodd" fill="url(#SVGID_1_)" d="M23.97,66.33h5.18c-0.24,0.88-0.39,1.74-0.44,2.57
			c-0.15,1.57,0,3.13,0.44,4.7h-5.18c-0.29-1.76-0.41-3.31-0.36-4.63V68.9C23.65,67.97,23.78,67.12,23.97,66.33z"/>
		
			<linearGradient id="SVGID_2_" gradientUnits="userSpaceOnUse" x1="-274.1636" y1="-108.7393" x2="-274.1636" y2="-103.7638" gradientTransform="matrix(1.4586 0 0 1.469 426.2721 284.7066)">
			<stop  offset="0" style="stop-color:#3E4143"/>
			<stop  offset="0.3608" style="stop-color:#959A9E"/>
			<stop  offset="0.4902" style="stop-color:#A9B0B2"/>
			<stop  offset="0.7373" style="stop-color:#D0D4D4"/>
			<stop  offset="1" style="stop-color:#869193"/>
		</linearGradient>
		<path fill-rule="evenodd" clip-rule="evenodd" fill="url(#SVGID_2_)" d="M29.15,125.02c-0.24,0.83-0.39,1.69-0.44,2.57
			c-0.15,1.57,0,3.13,0.44,4.7h-5.18c-0.29-1.76-0.41-3.31-0.36-4.63v-0.07c0.05-0.98,0.17-1.84,0.36-2.57H29.15z"/>
		
			<linearGradient id="SVGID_3_" gradientUnits="userSpaceOnUse" x1="-274.1636" y1="-81.5889" x2="-274.1636" y2="-77.2139" gradientTransform="matrix(1.4586 0 0 1.469 426.2721 284.7066)">
			<stop  offset="0" style="stop-color:#3E4143"/>
			<stop  offset="0.3608" style="stop-color:#959A9E"/>
			<stop  offset="0.4902" style="stop-color:#A9B0B2"/>
			<stop  offset="0.7373" style="stop-color:#D0D4D4"/>
			<stop  offset="1" style="stop-color:#869193"/>
		</linearGradient>
		<path fill-rule="evenodd" clip-rule="evenodd" fill="url(#SVGID_3_)" d="M23.61,167.04c0.05-0.98,0.17-1.86,0.36-2.64h5.18
			c-0.24,0.88-0.39,1.76-0.44,2.64c-0.15,1.57,0,3.13,0.44,4.7h-5.18c-0.29-1.76-0.41-3.31-0.36-4.63V167.04z"/>
		
			<linearGradient id="SVGID_4_" gradientUnits="userSpaceOnUse" x1="-274.1636" y1="-11.0889" x2="-274.1636" y2="-6.7134" gradientTransform="matrix(1.4586 0 0 1.469 426.2721 284.7066)">
			<stop  offset="0" style="stop-color:#3E4143"/>
			<stop  offset="0.3608" style="stop-color:#959A9E"/>
			<stop  offset="0.4902" style="stop-color:#A9B0B2"/>
			<stop  offset="0.7373" style="stop-color:#D0D4D4"/>
			<stop  offset="1" style="stop-color:#869193"/>
		</linearGradient>
		<path fill-rule="evenodd" clip-rule="evenodd" fill="url(#SVGID_4_)" d="M23.97,267.96h5.18c-0.24,0.88-0.39,1.76-0.44,2.64
			c-0.15,1.57,0,3.13,0.44,4.7h-5.18c-0.29-1.76-0.41-3.3-0.36-4.63v-0.07C23.65,269.62,23.78,268.74,23.97,267.96z"/>
		
			<linearGradient id="SVGID_5_" gradientUnits="userSpaceOnUse" x1="-274.1636" y1="13.5615" x2="-274.1636" y2="17.9365" gradientTransform="matrix(1.4586 0 0 1.469 426.2721 284.7066)">
			<stop  offset="0" style="stop-color:#3E4143"/>
			<stop  offset="0.3608" style="stop-color:#959A9E"/>
			<stop  offset="0.4902" style="stop-color:#A9B0B2"/>
			<stop  offset="0.7373" style="stop-color:#D0D4D4"/>
			<stop  offset="1" style="stop-color:#869193"/>
		</linearGradient>
		<path fill-rule="evenodd" clip-rule="evenodd" fill="url(#SVGID_5_)" d="M23.97,304.17h5.18c-0.24,0.88-0.39,1.76-0.44,2.64
			c-0.15,1.57,0,3.11,0.44,4.63h-5.18c-0.29-1.71-0.41-3.23-0.36-4.55v-0.07C23.65,305.84,23.78,304.95,23.97,304.17z"/>
		
			<linearGradient id="SVGID_6_" gradientUnits="userSpaceOnUse" x1="-274.2129" y1="51.3613" x2="-274.2129" y2="55.7368" gradientTransform="matrix(1.4586 0 0 1.469 426.2721 284.7066)">
			<stop  offset="0" style="stop-color:#3E4143"/>
			<stop  offset="0.3608" style="stop-color:#959A9E"/>
			<stop  offset="0.4902" style="stop-color:#A9B0B2"/>
			<stop  offset="0.7373" style="stop-color:#D0D4D4"/>
			<stop  offset="1" style="stop-color:#869193"/>
		</linearGradient>
		<path fill-rule="evenodd" clip-rule="evenodd" fill="url(#SVGID_6_)" d="M23.97,367.05c-0.39-1.76-0.56-3.31-0.51-4.63v-0.07
			c0.05-0.98,0.27-1.86,0.66-2.64h5.03c-0.19,0.88-0.34,1.76-0.44,2.64c-0.15,1.57,0,3.13,0.44,4.7H23.97z"/>
	</g>
	<g>
		<g>
			<path fill-rule="evenodd" clip-rule="evenodd" d="M48.11,12.05c-0.05,0.05-0.07,0.1-0.07,0.15c-0.15-0.24-0.44-0.81-0.88-1.69
				c0.05,0.2,0.1,0.39,0.15,0.59c0.15,0.69,0.27,1.27,0.36,1.76c-0.15,0.15-0.29,0.32-0.44,0.51c-0.1,0.1-0.17,0.17-0.22,0.22
				c-0.58,0.59-1.24,1.03-1.97,1.32c-0.29,0.1-0.61,0.17-0.95,0.22c-0.1,0-0.19-0.02-0.29-0.07c-1.02-0.25-1.9-0.73-2.63-1.47
				c-1.07-1.08-1.6-2.4-1.6-3.97c0-1.57,0.54-2.89,1.6-3.97c0.83-0.83,1.8-1.35,2.92-1.54c1.12,0.2,2.09,0.71,2.92,1.54
				c1.07,1.08,1.6,2.4,1.6,3.97C48.62,10.51,48.45,11.32,48.11,12.05z"/>
		</g>
		<g>
			<path fill-rule="evenodd" clip-rule="evenodd" d="M19.52,66.55c0-0.29-0.1-0.51-0.29-0.66c-0.15-0.2-0.34-0.29-0.58-0.29
				c-0.34,0-0.61,0.17-0.8,0.51c-0.24,0.29-0.39,0.91-0.44,1.84c0.39-0.49,0.88-0.73,1.46-0.73c0.63,0,1.19,0.27,1.68,0.81
				c0.44,0.49,0.66,1.13,0.66,1.91c0,0.83-0.24,1.52-0.73,2.06c-0.49,0.49-1.12,0.73-1.9,0.73c-0.83,0-1.48-0.32-1.97-0.95
				c-0.53-0.64-0.8-1.69-0.8-3.16c0-1.52,0.27-2.62,0.8-3.31c0.54-0.64,1.24-0.96,2.12-0.96c0.63,0,1.17,0.17,1.6,0.51
				c0.39,0.34,0.63,0.86,0.73,1.54L19.52,66.55z M14.93,60.75h-3.72v10.5H8.66v-10.5H4.94v-2.13h9.99V60.75z M17.84,68.76
				c-0.19,0.25-0.29,0.59-0.29,1.03c0,0.54,0.1,0.95,0.29,1.25c0.24,0.24,0.51,0.37,0.8,0.37s0.54-0.1,0.73-0.29
				c0.19-0.24,0.29-0.64,0.29-1.17s-0.1-0.93-0.29-1.18c-0.19-0.24-0.46-0.37-0.8-0.37C18.28,68.39,18.04,68.51,17.84,68.76z
				 M12.3,117.9v10.5H9.75v-10.5H6.03v-2.13h9.99v2.13H12.3z M17.12,125.9l0.73-4.26H22v1.47h-2.92l-0.29,1.4
				c0.39-0.2,0.75-0.29,1.09-0.29c0.68,0,1.26,0.27,1.75,0.81c0.49,0.49,0.73,1.15,0.73,1.98c0,0.64-0.19,1.22-0.58,1.76
				c-0.53,0.73-1.26,1.1-2.19,1.1c-0.78,0-1.38-0.2-1.82-0.59c-0.49-0.44-0.78-1-0.88-1.69l1.53-0.15c0.05,0.34,0.2,0.64,0.44,0.88
				c0.19,0.2,0.44,0.29,0.73,0.29c0.34,0,0.61-0.15,0.8-0.44c0.24-0.25,0.36-0.64,0.36-1.18c0-0.49-0.12-0.86-0.36-1.1
				c-0.19-0.29-0.49-0.44-0.88-0.44c-0.44,0-0.83,0.2-1.17,0.59L17.12,125.9z M21.42,164.02v5.21h1.02v1.4h-1.02v1.62h-1.46v-1.62
				H16.6v-1.4l3.5-5.21H21.42z M16.02,160.42H12.3v10.5H9.75v-10.5H6.03v-2.13h9.99V160.42z M19.96,169.24v-2.79l-1.9,2.79H19.96z"
				/>
		</g>
		<g>
			<path fill-rule="evenodd" clip-rule="evenodd" fill="#9F9F9F" d="M45.12,15.28c-0.39,0-0.73-0.05-1.02-0.15
				c0.34-0.05,0.66-0.12,0.95-0.22C45.05,15.01,45.07,15.14,45.12,15.28c-0.05-0.15-0.07-0.27-0.07-0.37
				c0.73-0.29,1.39-0.73,1.97-1.32c0.05-0.05,0.12-0.12,0.22-0.22c0.15-0.2,0.29-0.37,0.44-0.51c0.19,1.13,0.19,1.74,0,1.84
				C46.9,15.09,46.04,15.28,45.12,15.28z"/>
			
				<path fill-rule="evenodd" clip-rule="evenodd" fill="none" stroke="#000000" stroke-linecap="round" stroke-linejoin="round" stroke-miterlimit="3" d="
				M45.05,14.92c0,0.1,0.02,0.22,0.07,0.37c2.04,11.85,2.65,27.15,1.82,45.91c-1.02,21.64-1.65,33.45-1.9,35.4
				c-0.63,11.56-1.26,18.83-1.9,21.81c-0.68,2.94-1.6,5.17-2.77,6.68c-1.21,1.52-2.43,2.55-3.65,3.08c-1.26,0.54-4.23,0.78-8.9,0.73
				 M45.05,14.92c-0.29-1.76-0.63-3.43-1.02-4.99 M47.31,11.1c0.15,0.54,0.29,1.1,0.44,1.69c1.31,5.88,2.12,12.05,2.41,18.51
				c0.63,14.59,0.92,32.25,0.88,52.96c-0.44,21.2-1.63,40.15-3.57,56.85c-0.39,3.53-0.83,6.93-1.31,10.21
				c-2.67,12-9,17.24-18.96,15.72 M26.09,68.76c12.64,4.31,18.55-13.59,17.72-53.69c-0.05-1.91-0.12-3.89-0.22-5.95"/>
		</g>
	</g>
	<g>
		<g>
			<g>
				<path fill-rule="evenodd" clip-rule="evenodd" d="M45.27,420.67c0.63,0.24,1.22,0.64,1.75,1.18c0.44,0.44,0.8,0.96,1.09,1.54
					c0.34,0.73,0.51,1.54,0.51,2.43c0,1.57-0.54,2.89-1.6,3.96c-0.83,0.83-1.8,1.35-2.92,1.54c-1.12-0.2-2.09-0.71-2.92-1.54
					c-1.07-1.08-1.6-2.4-1.6-3.96c0-1.47,0.49-2.72,1.46-3.75c0.05-0.1,0.1-0.17,0.15-0.22c0.83-0.83,1.8-1.35,2.92-1.54
					C44.49,420.35,44.88,420.47,45.27,420.67z"/>
				<path fill-rule="evenodd" clip-rule="evenodd" fill="#9F9F9F" d="M45.27,420.67c-0.05-0.15-0.07-0.29-0.07-0.44
					c1.26,0,2.36,0.37,3.28,1.1c0.19,0.15,0.39,0.32,0.58,0.52l0.07,0.07c1.07,1.03,1.6,2.33,1.6,3.89c0,1.57-0.56,2.89-1.68,3.96
					c-1.07,1.13-2.38,1.69-3.94,1.69c-0.39,0-0.73-0.05-1.02-0.15c1.12-0.2,2.09-0.71,2.92-1.54c1.07-1.08,1.6-2.4,1.6-3.96
					c0-0.88-0.17-1.69-0.51-2.43c-0.29-0.59-0.66-1.1-1.09-1.54C46.48,421.3,45.9,420.91,45.27,420.67z"/>
			</g>
		</g>
		<g>
			<path fill-rule="evenodd" clip-rule="evenodd" fill="#9F9F9F" d="M45.27,420.67c-0.39-0.2-0.78-0.32-1.17-0.37
				c0.29-0.05,0.63-0.07,1.02-0.07h0.07C45.19,420.37,45.22,420.52,45.27,420.67z"/>
			
				<path fill-rule="evenodd" clip-rule="evenodd" fill="none" stroke="#000000" stroke-linecap="round" stroke-linejoin="round" stroke-miterlimit="3" d="
				M27.11,270.68c8.02,0.93,12.84,3.82,14.44,8.67c1.41,3.97,2.33,9.3,2.77,16.01c0.19,2.84,0.29,5.95,0.29,9.33
				c-0.39,21.15,0.61,46.49,2.99,76.02c1.41,18.31,1.46,33.15,0.15,44.51 M45.19,420.22c-0.97-6.07-1.53-14.86-1.68-26.37
				c-0.29-16.84-1.68-30.12-4.16-39.81c-2.82-10.92-3.48-24.09-1.97-39.52c1.41-6.51-2.6-8.91-12.03-7.2 M45.78,426.61
				c-1.85-1.32-3.43-2.84-4.74-4.55c-0.78-0.98-1.46-2.01-2.04-3.08c-1.65-3.04-2.53-9.74-2.63-20.13
				c-0.15-10.43-0.05-18.9,0.29-25.42c0.29-6.51-2.97-9.62-9.77-9.33 M45.19,420.22c0,0.15,0.02,0.29,0.07,0.44
				c0.44,2.64,0.95,4.75,1.53,6.32"/>
		</g>
		<g>
			<path fill-rule="evenodd" clip-rule="evenodd" d="M15.8,266.64h-3.72v10.5H9.53v-10.5H5.81v-2.13h9.99V266.64z M18.79,273.47
				c0.39,0,0.71-0.1,0.95-0.29c0.24-0.2,0.36-0.44,0.36-0.73c0-0.29-0.1-0.51-0.29-0.66c-0.15-0.2-0.37-0.29-0.66-0.29
				c-0.24,0-0.46,0.1-0.66,0.29s-0.32,0.46-0.37,0.81l-1.46-0.22c0.15-0.49,0.32-0.88,0.51-1.18c0.19-0.29,0.46-0.54,0.8-0.73
				c0.39-0.15,0.8-0.22,1.24-0.22c0.78,0,1.39,0.24,1.82,0.73c0.39,0.39,0.58,0.86,0.58,1.4c0,0.69-0.39,1.25-1.17,1.69
				c0.49,0.1,0.85,0.32,1.09,0.66c0.29,0.34,0.44,0.76,0.44,1.25c0,0.73-0.27,1.37-0.8,1.91c-0.49,0.49-1.12,0.73-1.9,0.73
				c-0.78,0-1.41-0.22-1.9-0.66c-0.49-0.44-0.75-1-0.8-1.69l1.53-0.15c0.05,0.39,0.17,0.69,0.37,0.88s0.44,0.29,0.73,0.29
				c0.34,0,0.63-0.12,0.88-0.37c0.19-0.24,0.29-0.56,0.29-0.95c0-0.44-0.1-0.76-0.29-0.96c-0.24-0.24-0.51-0.37-0.8-0.37
				c-0.19,0-0.44,0.05-0.73,0.15L18.79,273.47z M15.8,302.48h-3.72v10.5H9.53v-10.5H5.81v-2.13h9.99V302.48z M17.48,306.67
				c0.49-0.39,1.09-0.59,1.82-0.59c0.83,0,1.46,0.22,1.9,0.66c0.49,0.44,0.73,0.98,0.73,1.62c0,0.34-0.07,0.69-0.22,1.03
				c-0.1,0.34-0.29,0.71-0.58,1.1c-0.19,0.24-0.54,0.59-1.02,1.03c-0.54,0.44-0.85,0.73-0.95,0.88c-0.15,0.15-0.27,0.29-0.36,0.44
				h3.14v1.47h-5.47c0.05-0.54,0.22-1.05,0.51-1.54c0.29-0.49,0.88-1.15,1.75-1.98c0.73-0.69,1.17-1.13,1.31-1.32
				c0.19-0.34,0.29-0.69,0.29-1.03s-0.07-0.59-0.22-0.73c-0.19-0.2-0.46-0.29-0.8-0.29c-0.34,0-0.61,0.1-0.8,0.29
				c-0.19,0.2-0.29,0.51-0.29,0.96l-1.61-0.15C16.7,307.62,16.99,307.01,17.48,306.67z M15.8,361.39h-3.72v10.5H9.53v-10.5H5.81
				v-2.13h9.99V361.39z M18.43,366.31c0.44-0.39,0.75-0.83,0.95-1.32h1.24v8.23h-1.53v-5.95c-0.58,0.54-1.26,0.96-2.04,1.25v-1.47
				C17.48,366.9,17.94,366.65,18.43,366.31z"/>
		</g>
	</g>
</g>
</svg>
