<?xml version="1.0" encoding="utf-8"?>
<!-- Generator: Adobe Illustrator 16.0.0, SVG Export Plug-In . SVG Version: 6.00 Build 0)  -->
<!DOCTYPE svg PUBLIC "-//W3C//DTD SVG 1.1//EN" "http://www.w3.org/Graphics/SVG/1.1/DTD/svg11.dtd">
<svg version="1.1" id="Layer_1" xmlns="http://www.w3.org/2000/svg" xmlns:xlink="http://www.w3.org/1999/xlink" x="0px" y="0px"
	 width="41.6px" height="48.45px" viewBox="0 0 41.6 48.45" enable-background="new 0 0 41.6 48.45" xml:space="preserve">
<symbol  id="glace" viewBox="-7.1 -2.5 14.15 5.05">
	<g id="Layer_1_2_">
		<g>
			
				<radialGradient id="SVGID_1_" cx="0" cy="0" r="7.25" gradientTransform="matrix(1 0 0 0.3569 0 4.882813e-004)" gradientUnits="userSpaceOnUse">
				<stop  offset="0" style="stop-color:#FFFFFF;stop-opacity:0.6941"/>
				<stop  offset="0.1922" style="stop-color:#FFFFFF;stop-opacity:0.4902"/>
				<stop  offset="0.5333" style="stop-color:#FEFEFE;stop-opacity:0.2"/>
				<stop  offset="0.7765" style="stop-color:#FCFCFC;stop-opacity:0.0863"/>
				<stop  offset="1" style="stop-color:#F9F9F9;stop-opacity:0"/>
			</radialGradient>
			<path fill-rule="evenodd" clip-rule="evenodd" fill="url(#SVGID_1_)" d="M-0.05,2.55C1.92,2.55,3.6,2.3,5,1.8
				C6.37,1.3,7.05,0.7,7.05,0S6.37-1.3,5-1.8C3.6-2.27,1.92-2.5-0.05-2.5c-1.93,0-3.6,0.23-5,0.7C-6.42-1.3-7.1-0.7-7.1,0
				s0.68,1.3,2.05,1.8C-3.65,2.3-1.98,2.55-0.05,2.55z"/>
		</g>
	</g>
</symbol>
<g>
	<g>
		<g>
			<linearGradient id="SVGID_2_" gradientUnits="userSpaceOnUse" x1="0" y1="7.1992" x2="41.6001" y2="7.1992">
				<stop  offset="0" style="stop-color:#836F52"/>
				<stop  offset="1" style="stop-color:#E6E1DD"/>
			</linearGradient>
			<path fill-rule="evenodd" clip-rule="evenodd" fill="url(#SVGID_2_)" d="M0.4,0.35V14.1h40.85V0.35H0.4z M0,0h41.6v14.4H0V0z"/>
			
				<radialGradient id="SVGID_3_" cx="25.6997" cy="7.4492" r="28.825" fx="13.6045" fy="7.4492" gradientTransform="matrix(1 0 0 0.729 0 2.019)" gradientUnits="userSpaceOnUse">
				<stop  offset="0" style="stop-color:#FD424F"/>
				<stop  offset="0.4" style="stop-color:#E93735"/>
				<stop  offset="0.698" style="stop-color:#561B1A"/>
				<stop  offset="0.8157" style="stop-color:#271416"/>
				<stop  offset="1" style="stop-color:#2D1516"/>
			</radialGradient>
			<rect x="0.4" y="0.35" fill-rule="evenodd" clip-rule="evenodd" fill="url(#SVGID_3_)" width="40.85" height="13.75"/>
		</g>
		
			<use xlink:href="#glace"  width="14.15" height="5.05" x="-7.1" y="-2.5" transform="matrix(0.8784 0 0 -2.4871 20.8501 7.6992)" overflow="visible"/>
	</g>
	<g>
		<polygon fill-rule="evenodd" clip-rule="evenodd" fill="#151515" points="14.25,39.5 28.5,39.5 30.35,46.35 30.3,46.35 
			13.05,46.35 13.05,46.05 		"/>
		<polygon fill-rule="evenodd" clip-rule="evenodd" fill="#222222" points="13.05,46.35 30.3,46.35 30.3,48.45 13,48.45 		"/>
		<rect x="14.25" y="27.95" fill-rule="evenodd" clip-rule="evenodd" fill="#333333" width="14.25" height="11.55"/>
	</g>
</g>
</svg>
