<?xml version="1.0" encoding="utf-8"?>
<!-- Generator: Adobe Illustrator 16.0.0, SVG Export Plug-In . SVG Version: 6.00 Build 0)  -->
<!DOCTYPE svg PUBLIC "-//W3C//DTD SVG 1.1//EN" "http://www.w3.org/Graphics/SVG/1.1/DTD/svg11.dtd">
<svg version="1.1" xmlns="http://www.w3.org/2000/svg" xmlns:xlink="http://www.w3.org/1999/xlink" x="0px" y="0px" width="23px"
	 height="322.67px" viewBox="0 0 23 322.67" enable-background="new 0 0 23 322.67" xml:space="preserve">
<g id="Layer_1">
</g>
<g id="Layer_3">
	<g>
		<g>
			<path fill-rule="evenodd" clip-rule="evenodd" d="M11.6,6.4H7.9v10.5H5.35V6.4H1.6V4.3h10V6.4z M14.55,11.75
				c-0.27,0.3-0.42,0.92-0.45,1.85c0.37-0.5,0.85-0.75,1.45-0.75c0.63,0,1.2,0.28,1.7,0.85c0.43,0.47,0.65,1.1,0.65,1.9
				c0,0.83-0.25,1.52-0.75,2.05c-0.5,0.5-1.13,0.75-1.9,0.75c-0.83,0-1.48-0.32-1.95-0.95c-0.53-0.67-0.8-1.73-0.8-3.2
				c0-1.5,0.27-2.6,0.8-3.3c0.53-0.63,1.23-0.95,2.1-0.95c0.63,0,1.17,0.17,1.6,0.5c0.4,0.37,0.65,0.88,0.75,1.55L16.2,12.2
				c0-0.3-0.1-0.52-0.3-0.65c-0.13-0.2-0.32-0.3-0.55-0.3C14.98,11.25,14.72,11.42,14.55,11.75z M16.35,15.6
				c0-0.53-0.1-0.93-0.3-1.2c-0.2-0.23-0.47-0.35-0.8-0.35c-0.3,0-0.53,0.12-0.7,0.35c-0.2,0.27-0.3,0.62-0.3,1.05
				c0,0.53,0.1,0.95,0.3,1.25c0.23,0.23,0.5,0.35,0.8,0.35c0.27,0,0.5-0.1,0.7-0.3C16.25,16.52,16.35,16.13,16.35,15.6z M18.7,68.75
				h-2.95l-0.25,1.4c0.37-0.2,0.72-0.3,1.05-0.3c0.7,0,1.28,0.28,1.75,0.85c0.5,0.47,0.75,1.12,0.75,1.95c0,0.63-0.2,1.22-0.6,1.75
				c-0.53,0.77-1.25,1.15-2.15,1.15c-0.8,0-1.42-0.2-1.85-0.6c-0.47-0.43-0.75-1-0.85-1.7l1.5-0.15c0.07,0.33,0.22,0.63,0.45,0.9
				c0.2,0.2,0.45,0.3,0.75,0.3c0.33,0,0.6-0.15,0.8-0.45c0.23-0.27,0.35-0.67,0.35-1.2c0-0.47-0.12-0.83-0.35-1.1
				c-0.2-0.3-0.5-0.45-0.9-0.45c-0.43,0-0.82,0.2-1.15,0.6l-1.25-0.15l0.75-4.25h4.15V68.75z M9,63.55v10.5H6.45v-10.5H2.7V61.4h10
				v2.15H9z M9,106.1v10.5H6.45v-10.5H2.7v-2.15h10v2.15H9z M18.1,109.7v5.2h1v1.4h-1v1.6h-1.45v-1.6H13.3v-1.4l3.5-5.2H18.1z
				 M16.65,114.9v-2.8l-1.9,2.8H16.65z"/>
		</g>
		<g>
			<path fill-rule="evenodd" clip-rule="evenodd" d="M15.2,217.45c-0.2,0.2-0.33,0.48-0.4,0.85l-1.45-0.25
				c0.17-0.5,0.33-0.88,0.5-1.15c0.2-0.3,0.47-0.55,0.8-0.75c0.4-0.13,0.82-0.2,1.25-0.2c0.8,0,1.42,0.23,1.85,0.7
				c0.37,0.4,0.55,0.87,0.55,1.4c0,0.7-0.38,1.27-1.15,1.7c0.5,0.1,0.87,0.32,1.1,0.65c0.3,0.33,0.45,0.75,0.45,1.25
				c0,0.73-0.27,1.37-0.8,1.9c-0.5,0.5-1.13,0.75-1.9,0.75c-0.8,0-1.43-0.22-1.9-0.65c-0.5-0.43-0.77-1-0.8-1.7l1.5-0.15
				c0.07,0.4,0.2,0.7,0.4,0.9c0.17,0.2,0.4,0.3,0.7,0.3c0.33,0,0.63-0.13,0.9-0.4c0.2-0.23,0.3-0.55,0.3-0.95
				c0-0.43-0.1-0.75-0.3-0.95c-0.27-0.23-0.53-0.35-0.8-0.35c-0.2,0-0.45,0.05-0.75,0.15l0.2-1.35c0.4,0,0.72-0.1,0.95-0.3
				c0.27-0.2,0.4-0.43,0.4-0.7c0-0.3-0.1-0.53-0.3-0.7c-0.17-0.2-0.38-0.3-0.65-0.3S15.37,217.25,15.2,217.45z M12.5,212.35H8.75
				v10.5H6.2v-10.5H2.5v-2.15h10V212.35z M8.75,248.15v10.55H6.2v-10.55H2.5v-2.1h10v2.1H8.75z M16.8,253.4
				c-0.2-0.2-0.47-0.3-0.8-0.3c-0.37,0-0.63,0.1-0.8,0.3c-0.2,0.2-0.3,0.52-0.3,0.95l-1.6-0.15c0.1-0.9,0.38-1.52,0.85-1.85
				c0.5-0.4,1.12-0.6,1.85-0.6c0.8,0,1.43,0.23,1.9,0.7c0.47,0.43,0.7,0.97,0.7,1.6c0,0.33-0.07,0.68-0.2,1.05
				c-0.1,0.33-0.3,0.7-0.6,1.1c-0.2,0.23-0.53,0.57-1,1c-0.53,0.43-0.85,0.73-0.95,0.9c-0.17,0.13-0.3,0.28-0.4,0.45h3.15V260h-5.45
				c0.03-0.53,0.2-1.05,0.5-1.55c0.3-0.5,0.88-1.17,1.75-2c0.73-0.67,1.17-1.1,1.3-1.3c0.2-0.33,0.3-0.68,0.3-1.05
				C17,253.77,16.93,253.53,16.8,253.4z M16.05,310.7h1.25v8.2h-1.55v-5.95c-0.57,0.53-1.25,0.95-2.05,1.25v-1.45
				c0.47-0.17,0.93-0.42,1.4-0.75C15.53,311.6,15.85,311.17,16.05,310.7z M8.75,307.1v10.5H6.2v-10.5H2.5v-2.15h10v2.15H8.75z"/>
		</g>
	</g>
</g>
</svg>
