<?xml version="1.0" encoding="utf-8"?>
<!-- Generator: Adobe Illustrator 16.0.0, SVG Export Plug-In . SVG Version: 6.00 Build 0)  -->
<!DOCTYPE svg PUBLIC "-//W3C//DTD SVG 1.1//EN" "http://www.w3.org/Graphics/SVG/1.1/DTD/svg11.dtd">
<svg version="1.1" id="Layer_3" xmlns="http://www.w3.org/2000/svg" xmlns:xlink="http://www.w3.org/1999/xlink" x="0px" y="0px"
	 width="189.88px" height="74px" viewBox="0 0 189.88 74" enable-background="new 0 0 189.88 74" xml:space="preserve">
<symbol  id="glaceee_x5F_alumni" viewBox="-14.55 -14.6 29.15 29.15">
	<g id="Layer_1_2_">
		<g>
			<radialGradient id="SVGID_1_" cx="0.0254" cy="-0.0254" r="14.4875" gradientUnits="userSpaceOnUse">
				<stop  offset="0" style="stop-color:#FEFEFE"/>
				<stop  offset="0.2078" style="stop-color:#FEFEFE"/>
				<stop  offset="0.4902" style="stop-color:#FFFFFF;stop-opacity:0.302"/>
				<stop  offset="0.6784" style="stop-color:#FFFFFF;stop-opacity:0.0824"/>
				<stop  offset="0.8392" style="stop-color:#FCFCFC;stop-opacity:0"/>
				<stop  offset="1" style="stop-color:#FBFBFB;stop-opacity:0"/>
			</radialGradient>
			<path fill-rule="evenodd" clip-rule="evenodd" fill="url(#SVGID_1_)" d="M10.25,10.3C13.15,7.47,14.6,4.03,14.6,0
				s-1.45-7.47-4.35-10.3C7.42-13.17,4-14.6,0-14.6c-4.03,0-7.47,1.43-10.3,4.3c-2.83,2.83-4.25,6.27-4.25,10.3s1.42,7.47,4.25,10.3
				c2.83,2.83,6.27,4.25,10.3,4.25C4,14.55,7.42,13.13,10.25,10.3z"/>
		</g>
	</g>
</symbol>
<linearGradient id="SVGID_2_" gradientUnits="userSpaceOnUse" x1="0.9751" y1="51.0918" x2="188.6777" y2="51.0918">
	<stop  offset="0" style="stop-color:#958D88"/>
	<stop  offset="0.1804" style="stop-color:#8D8D83"/>
	<stop  offset="0.2706" style="stop-color:#D6D5D3"/>
	<stop  offset="0.4275" style="stop-color:#898A85"/>
	<stop  offset="0.5333" style="stop-color:#B8B8B6"/>
	<stop  offset="0.6314" style="stop-color:#7A7B76"/>
	<stop  offset="0.8667" style="stop-color:#767771"/>
	<stop  offset="1" style="stop-color:#707169"/>
</linearGradient>
<path fill-rule="evenodd" clip-rule="evenodd" fill="url(#SVGID_2_)" d="M66.92,55.71c1.86,0.17,3.75,0.31,5.66,0.45
	c-0.93-0.04-1.86-0.1-2.78-0.17C68.83,55.91,67.87,55.82,66.92,55.71c0.95,0.11,1.91,0.2,2.88,0.27c0.92,0.07,1.85,0.13,2.78,0.17
	L93,56.88c0.24,0,0.49,0,0.73,0c0.22,0,0.45,0,0.68,0c0.14,0,0.28,0,0.42,0c25.93,0,48.07-2.73,66.42-8.2
	c13.35-3.97,21.86-8.53,25.53-13.66c0.66-0.96,1.16-1.93,1.5-2.93c0.18-0.52,0.31-1.05,0.4-1.59v16.04c-0.4,2.32-1.6,4.52-3.6,6.61
	c-4.31,4.31-12.25,8.16-23.83,11.57c-18.35,5.5-40.49,8.25-66.42,8.25c-25.93,0-48.07-2.75-66.42-8.25
	C16.66,61.21,8.67,57.24,4.43,52.8c-2.24-2.32-3.39-4.8-3.45-7.45V29.21c0.03,0.98,0.2,1.94,0.53,2.88c0.04,0.08,0.07,0.17,0.1,0.25
	c0.05,0.11,0.1,0.23,0.15,0.35l0.02,0.1l0.28,0.62c0.09,0.19,0.19,0.38,0.3,0.57c0.02,0.05,0.05,0.1,0.08,0.15
	c0.17,0.3,0.35,0.6,0.55,0.89c3.64,5.13,12.11,9.68,25.43,13.66L66.92,55.71z"/>
<path fill-rule="evenodd" clip-rule="evenodd" fill="#61616A" d="M188.68,30.5v-3.08c0.07,0.5,0.1,0.99,0.1,1.49
	C188.78,29.48,188.74,30.01,188.68,30.5z"/>
<linearGradient id="SVGID_3_" gradientUnits="userSpaceOnUse" x1="-116.3496" y1="-66.4063" x2="201.2467" y2="77.0017">
	<stop  offset="0" style="stop-color:#282520"/>
	<stop  offset="1" style="stop-color:#696D6E"/>
</linearGradient>
<path fill-rule="evenodd" clip-rule="evenodd" fill="url(#SVGID_3_)" d="M72.58,56.16c-1.91-0.13-3.8-0.28-5.66-0.45L28.4,48.68
	C15.09,44.71,6.61,40.15,2.98,35.02c-0.2-0.29-0.39-0.59-0.55-0.89c-0.03-0.05-0.05-0.1-0.08-0.15c-0.11-0.19-0.21-0.38-0.3-0.57
	l-0.28-0.62l-0.02-0.1c-0.05-0.12-0.1-0.23-0.15-0.35c-0.03-0.08-0.06-0.16-0.1-0.25c-0.32-0.94-0.5-1.9-0.53-2.88v-0.55
	c0.2-7.58,9.34-14.06,27.43-19.42c18.35-5.46,40.49-8.2,66.42-8.2c25.93,0,48.07,2.73,66.42,8.2c17.12,5.07,26.26,11.13,27.43,18.18
	v3.08c-0.09,0.53-0.22,1.06-0.4,1.59c-0.34,1-0.84,1.97-1.5,2.93c-3.67,5.13-12.18,9.68-25.53,13.66
	c-18.35,5.46-40.49,8.2-66.42,8.2c-0.14,0-0.28,0-0.42,0c-0.23,0-0.45,0-0.68,0c-0.24,0-0.48,0-0.73,0L72.58,56.16z M30.61,41.33
	c1.83,0.66,3.82,1.29,5.96,1.89c15.95,4.54,35.15,6.8,57.61,6.8c22.56,0,41.78-2.27,57.66-6.8c2-0.56,3.87-1.14,5.6-1.74l12.37-5.66
	l0.67-0.47c0.67-0.46,1.27-0.93,1.83-1.42l0.27-0.35c0.5-0.49,0.95-0.98,1.33-1.49c0.9-1.22,1.45-2.47,1.65-3.72v-2.58
	c-0.97-5.76-8.88-10.73-23.73-14.9c-15.88-4.47-35.1-6.71-57.66-6.71c-22.46,0-41.66,2.23-57.61,6.71
	c-15.68,4.37-23.61,9.7-23.78,16v0.3c0.03,1.72,0.62,3.36,1.75,4.92c0.45,0.59,0.98,1.17,1.6,1.74c0.02,0.03,0.05,0.05,0.07,0.08
	l0.13,0.17c0.5,0.43,1.05,0.85,1.65,1.27L30.61,41.33z"/>
<linearGradient id="SVGID_4_" gradientUnits="userSpaceOnUse" x1="92.8721" y1="9.0537" x2="95.3783" y2="42.7209">
	<stop  offset="0" style="stop-color:#433F38"/>
	<stop  offset="1" style="stop-color:#67686C"/>
</linearGradient>
<path fill-rule="evenodd" clip-rule="evenodd" fill="url(#SVGID_4_)" d="M16.14,33.83c-0.62-0.57-1.16-1.15-1.6-1.74
	c-1.13-1.56-1.72-3.2-1.75-4.92v-0.3c0.17-6.29,8.09-11.62,23.78-16c15.95-4.47,35.15-6.71,57.61-6.71
	c22.56,0,41.78,2.23,57.66,6.71c14.85,4.17,22.76,9.14,23.73,14.9v2.58c-0.2,1.26-0.75,2.5-1.65,3.72c-0.38,0.51-0.82,1-1.33,1.49
	l0.33-0.4c-4,2.95-11.08,5.86-21.22,8.74h-0.05c-15.85,4.47-35,6.71-57.46,6.71c-22.42,0-40.08-1.81-52.96-5.42
	C28.3,39.58,19.95,36.45,16.14,33.83z M157.44,41.48c-1.74,0.6-3.61,1.18-5.6,1.74c-15.88,4.54-35.1,6.8-57.66,6.8
	c-22.46,0-41.66-2.27-57.61-6.8c-2.14-0.6-4.12-1.23-5.96-1.89c1.8,0.6,3.74,1.2,5.81,1.79c16.02,4.5,35.27,6.76,57.76,6.76
	c22.63,0,41.9-2.25,57.81-6.76C153.92,42.57,155.74,42.03,157.44,41.48z"/>
<radialGradient id="SVGID_5_" cx="94.2256" cy="36.3428" r="82.125" gradientTransform="matrix(1.0011 0 0 0.9934 -0.1508 1.7519)" gradientUnits="userSpaceOnUse">
	<stop  offset="0" style="stop-color:#FFFFFF;stop-opacity:0.4235"/>
	<stop  offset="1" style="stop-color:#F5F5F5;stop-opacity:0"/>
</radialGradient>
<path fill-rule="evenodd" clip-rule="evenodd" fill="url(#SVGID_5_)" d="M169.81,35.82l-12.37,5.66c-1.7,0.55-3.52,1.09-5.45,1.64
	c-15.92,4.5-35.19,6.76-57.81,6.76c-22.49,0-41.74-2.25-57.76-6.76c-2.07-0.59-4-1.19-5.81-1.79l-12.61-5.98
	c-0.6-0.41-1.15-0.84-1.65-1.27l-0.13-0.17c-0.03-0.02-0.05-0.05-0.07-0.08c3.8,2.62,12.16,5.74,25.08,9.39
	c12.88,3.61,30.53,5.42,52.96,5.42c22.46,0,41.61-2.24,57.46-6.71h0.05c10.14-2.88,17.22-5.79,21.22-8.74l-0.33,0.4l-0.27,0.35
	c-0.55,0.48-1.16,0.95-1.83,1.42L169.81,35.82z"/>
<path fill-rule="evenodd" clip-rule="evenodd" fill="none" stroke="#434545" stroke-width="0.1" stroke-linecap="round" stroke-linejoin="round" stroke-miterlimit="3" d="
	M16.14,33.83c0.02,0.03,0.05,0.05,0.07,0.08 M17.99,35.35l12.61,5.98 M157.44,41.48l12.37-5.66 M16.14,33.83
	c-0.62-0.57-1.16-1.15-1.6-1.74c-1.13-1.56-1.72-3.2-1.75-4.92v-0.3c0.17-6.29,8.09-11.62,23.78-16
	c15.95-4.47,35.15-6.71,57.61-6.71c22.56,0,41.78,2.23,57.66,6.71c14.85,4.17,22.76,9.14,23.73,14.9v2.58
	c-0.2,1.26-0.75,2.5-1.65,3.72c-0.38,0.51-0.82,1-1.33,1.49 M157.44,41.48c-1.74,0.6-3.61,1.18-5.6,1.74
	c-15.88,4.54-35.1,6.8-57.66,6.8c-22.46,0-41.66-2.27-57.61-6.8c-2.14-0.6-4.12-1.23-5.96-1.89"/>
<path fill-rule="evenodd" clip-rule="evenodd" fill="none" d="M188.28,32.09c-0.34,1-0.84,1.97-1.5,2.93
	c-3.67,5.13-12.18,9.68-25.53,13.66c-18.35,5.46-40.49,8.2-66.42,8.2c-0.14,0-0.28,0-0.42,0c-0.23,0-0.45,0-0.68,0
	c-0.24,0-0.48,0-0.73,0l-20.42-0.72c-0.93-0.04-1.86-0.1-2.78-0.17c-0.97-0.08-1.93-0.17-2.88-0.27L28.4,48.68
	C15.09,44.71,6.61,40.15,2.98,35.02c-0.2-0.29-0.39-0.59-0.55-0.89c-0.03-0.05-0.05-0.1-0.08-0.15c-0.11-0.19-0.21-0.38-0.3-0.57
	l-0.28-0.62l-0.02-0.1c-0.05-0.12-0.1-0.23-0.15-0.35c-0.03-0.08-0.06-0.16-0.1-0.25"/>
<use xlink:href="#glaceee_x5F_alumni"  width="29.15" height="29.15" x="-14.55" y="-14.6" transform="matrix(0.9013 -0.1056 -0.0165 -0.1383 128.2627 55.2871)" overflow="visible" opacity="0.9492"/>
<use xlink:href="#glaceee_x5F_alumni"  width="29.15" height="29.15" x="-14.55" y="-14.6" transform="matrix(0.6903 0.0154 2.393193e-003 -0.1059 79.7598 56.7275)" overflow="visible" opacity="0.9492"/>
<use xlink:href="#glaceee_x5F_alumni"  width="29.15" height="29.15" x="-14.55" y="-14.6" transform="matrix(0.3 -0.2109 -0.0587 -0.0822 182.6709 39.0469)" overflow="visible" opacity="0.9492"/>
<g>
	<g>
		<path fill-rule="evenodd" clip-rule="evenodd" fill="#61616A" d="M188.91,31v-3.07c0.08,0.5,0.13,1,0.13,1.5
			C189.03,29.97,188.99,30.5,188.91,31z"/>
		
			<linearGradient id="SVGID_6_" gradientUnits="userSpaceOnUse" x1="-223.4873" y1="-211.3105" x2="-230.2769" y2="-259.5039" gradientTransform="matrix(1.2625 0 0 1.2625 381.1968 324.0405)">
			<stop  offset="0" style="stop-color:#333335"/>
			<stop  offset="1" style="stop-color:#1E1D1B"/>
		</linearGradient>
		<path fill-rule="evenodd" clip-rule="evenodd" fill="url(#SVGID_6_)" d="M188.91,27.93V31c-0.25,1.55-0.89,3.05-1.9,4.52
			c-3.67,5.14-12.17,9.7-25.53,13.67c-18.33,5.48-40.47,8.21-66.42,8.21c-25.91,0-48.05-2.74-66.42-8.21
			c-13.31-3.97-21.78-8.53-25.4-13.67c-1.31-1.88-1.98-3.85-2.02-5.9v-0.44c0.21-7.61,9.35-14.09,27.43-19.44
			c18.37-5.48,40.51-8.21,66.42-8.21c25.95,0,48.09,2.74,66.42,8.21C178.63,14.8,187.77,20.86,188.91,27.93z"/>
		
			<linearGradient id="SVGID_7_" gradientUnits="userSpaceOnUse" x1="-300.9678" y1="-215.8447" x2="-152.3076" y2="-215.8447" gradientTransform="matrix(1.2625 0 0 1.2625 381.1968 324.0405)">
			<stop  offset="0" style="stop-color:#958D88"/>
			<stop  offset="0.1804" style="stop-color:#8D8D83"/>
			<stop  offset="0.2706" style="stop-color:#D6D5D3"/>
			<stop  offset="0.4275" style="stop-color:#898A85"/>
			<stop  offset="0.5333" style="stop-color:#B8B8B6"/>
			<stop  offset="0.6314" style="stop-color:#7A7B76"/>
			<stop  offset="0.8667" style="stop-color:#767771"/>
			<stop  offset="1" style="stop-color:#707169"/>
		</linearGradient>
		<path fill-rule="evenodd" clip-rule="evenodd" fill="url(#SVGID_7_)" d="M1.22,29.62c0.04,2.05,0.72,4.01,2.02,5.9
			c3.62,5.14,12.09,9.7,25.4,13.67c18.37,5.48,40.51,8.21,66.42,8.21c25.95,0,48.09-2.74,66.42-8.21
			c13.35-3.97,21.86-8.53,25.53-13.67c1.01-1.46,1.64-2.97,1.9-4.52v16.05c-0.38,2.3-1.58,4.5-3.6,6.59
			c-4.3,4.31-12.24,8.17-23.82,11.6c-18.33,5.48-40.47,8.21-66.42,8.21c-25.91,0-48.05-2.74-66.42-8.21
			C16.89,61.73,8.91,57.75,4.7,53.32c-2.23-2.34-3.39-4.83-3.48-7.46V29.62z"/>
	</g>
	<g>
		
			<linearGradient id="SVGID_8_" gradientUnits="userSpaceOnUse" x1="-393.9043" y1="-308.875" x2="-142.3525" y2="-195.2853" gradientTransform="matrix(1.2625 0 0 1.2625 381.1968 324.0405)">
			<stop  offset="0" style="stop-color:#5A564B"/>
			<stop  offset="0" style="stop-color:#5A564A"/>
			<stop  offset="0.1804" style="stop-color:#5A553F"/>
			<stop  offset="0.4275" style="stop-color:#695F38"/>
			<stop  offset="0.6314" style="stop-color:#5B6141"/>
			<stop  offset="0.8667" style="stop-color:#7F6F62"/>
			<stop  offset="1" style="stop-color:#4B4634"/>
		</linearGradient>
		<path fill-rule="evenodd" clip-rule="evenodd" fill="url(#SVGID_8_)" d="M188.91,27.93V31c-0.25,1.55-0.89,3.05-1.9,4.52
			c-3.67,5.14-12.17,9.7-25.53,13.67c-18.33,5.48-40.47,8.21-66.42,8.21c-25.91,0-48.05-2.74-66.42-8.21
			c-13.31-3.97-21.78-8.53-25.4-13.67c-1.31-1.88-1.98-3.85-2.02-5.9v-0.44c0.21-7.61,9.35-14.09,27.43-19.44
			c18.37-5.48,40.51-8.21,66.42-8.21c25.95,0,48.09,2.74,66.42,8.21C178.63,14.8,187.77,20.86,188.91,27.93z"/>
	</g>
	<g>
		
			<linearGradient id="SVGID_9_" gradientUnits="userSpaceOnUse" x1="-393.9043" y1="-308.875" x2="-142.3525" y2="-195.2853" gradientTransform="matrix(1.2625 0 0 1.2625 381.1968 324.0405)">
			<stop  offset="0" style="stop-color:#282520"/>
			<stop  offset="1" style="stop-color:#696D6E"/>
		</linearGradient>
		<path fill-rule="evenodd" clip-rule="evenodd" fill="url(#SVGID_9_)" d="M187.01,35.51c-3.67,5.14-12.17,9.7-25.53,13.67
			c-18.33,5.48-40.47,8.21-66.42,8.21c-25.91,0-48.05-2.74-66.42-8.21c-13.31-3.97-21.78-8.53-25.4-13.67
			c-1.31-1.88-1.98-3.85-2.02-5.9v-0.44c0.21-7.61,9.35-14.09,27.43-19.44c18.37-5.48,40.51-8.21,66.42-8.21
			c25.95,0,48.09,2.74,66.42,8.21c17.14,5.06,26.29,11.12,27.43,18.19V31C188.65,32.54,188.02,34.05,187.01,35.51z"/>
	</g>
	<g>
		
			<linearGradient id="SVGID_10_" gradientUnits="userSpaceOnUse" x1="-228.1719" y1="-249.1138" x2="-226.187" y2="-222.4529" gradientTransform="matrix(1.2625 0 0 1.2625 381.1968 324.0405)">
			<stop  offset="0" style="stop-color:#433F38"/>
			<stop  offset="1" style="stop-color:#67686C"/>
		</linearGradient>
		<path fill-rule="evenodd" clip-rule="evenodd" fill="url(#SVGID_10_)" d="M174.18,32.57c-3.16,4.18-10.53,7.9-22.12,11.16
			c-15.88,4.51-35.09,6.77-57.63,6.77c-22.46,0-41.67-2.26-57.63-6.77c-11.54-3.26-18.87-6.98-21.99-11.16
			c-1.14-1.55-1.73-3.18-1.77-4.89v-0.31c0.17-6.27,8.09-11.6,23.76-15.99C52.77,6.9,71.98,4.66,94.43,4.66
			c22.54,0,41.75,2.24,57.63,6.71c14.87,4.18,22.79,9.16,23.76,14.92v2.57C175.61,30.12,175.07,31.35,174.18,32.57z"/>
		
			<path fill-rule="evenodd" clip-rule="evenodd" fill="none" stroke="#434545" stroke-width="0.1" stroke-linecap="round" stroke-linejoin="round" stroke-miterlimit="3" d="
			M174.18,32.57c-3.16,4.18-10.53,7.9-22.12,11.16c-15.88,4.51-35.09,6.77-57.63,6.77c-22.46,0-41.67-2.26-57.63-6.77
			c-11.54-3.26-18.87-6.98-21.99-11.16c-1.14-1.55-1.73-3.18-1.77-4.89v-0.31c0.17-6.27,8.09-11.6,23.76-15.99
			C52.77,6.9,71.98,4.66,94.43,4.66c22.54,0,41.75,2.24,57.63,6.71c14.87,4.18,22.79,9.16,23.76,14.92v2.57
			C175.61,30.12,175.07,31.35,174.18,32.57z"/>
	</g>
	<g>
		
			<radialGradient id="SVGID_11_" cx="-227.0996" cy="-227.4927" r="65.0507" gradientTransform="matrix(1.2639 0 0 1.2541 381.4556 323.6414)" gradientUnits="userSpaceOnUse">
			<stop  offset="0" style="stop-color:#FFFFFF;stop-opacity:0.4235"/>
			<stop  offset="1" style="stop-color:#F5F5F5;stop-opacity:0"/>
		</radialGradient>
		<path fill-rule="evenodd" clip-rule="evenodd" fill="url(#SVGID_11_)" d="M173.17,33.7l-0.63,0.75
			c-3.89,3.37-10.66,6.41-20.32,9.12h0.03c-15.94,4.53-35.21,6.8-57.82,6.8c-22.52,0-41.78-2.27-57.79-6.8
			c-9.5-2.68-16.19-5.68-20.06-9l-0.19-0.25c3.79,2.63,12.14,5.76,25.06,9.37c12.92,3.62,30.59,5.42,52.99,5.42
			c22.47,0,41.61-2.24,57.44-6.74h0.03C162.09,39.51,169.17,36.62,173.17,33.7z"/>
	</g>
	<g>
		<path fill-rule="evenodd" clip-rule="evenodd" fill="none" d="M188.53,32.57c-0.35,1-0.85,1.98-1.52,2.95
			c-3.67,5.14-12.17,9.7-25.53,13.67c-18.33,5.48-40.47,8.21-66.42,8.21c-8.78,0-17.12-0.31-25.02-0.94
			c-15.45-1.23-29.24-3.65-41.39-7.27c-13.31-3.97-21.78-8.53-25.4-13.67c-0.67-0.96-1.16-1.94-1.48-2.95"/>
	</g>
	<g>
		
			<radialGradient id="SVGID_12_" cx="-200.1494" cy="-213.5938" r="10.422" gradientTransform="matrix(1.2552 -0.1467 0.0228 0.1925 384.5998 67.5279)" gradientUnits="userSpaceOnUse">
			<stop  offset="0" style="stop-color:#FEFEFE"/>
			<stop  offset="0.2078" style="stop-color:#FEFEFE"/>
			<stop  offset="0.4902" style="stop-color:#FFFFFF;stop-opacity:0.298"/>
			<stop  offset="0.6784" style="stop-color:#FFFFFF;stop-opacity:0.0824"/>
			<stop  offset="0.8392" style="stop-color:#FCFCFC;stop-opacity:0"/>
			<stop  offset="1" style="stop-color:#FBFBFB;stop-opacity:0"/>
		</radialGradient>
		<path fill-rule="evenodd" clip-rule="evenodd" fill="url(#SVGID_12_)" d="M119.39,58.28c-2.61-0.08-3.96-0.4-4.04-0.94
			c-0.08-0.54,1.14-1.19,3.66-1.95c2.53-0.67,5.6-1.21,9.23-1.63c3.62-0.42,6.72-0.59,9.29-0.5c2.65,0.08,4.02,0.4,4.11,0.94
			c0.08,0.54-1.16,1.19-3.73,1.94c-2.49,0.67-5.54,1.21-9.16,1.63C125.12,58.19,122,58.36,119.39,58.28z"/>
	</g>
	<g>
		
			<radialGradient id="SVGID_13_" cx="-238.5" cy="-212.4443" r="7.9265" gradientTransform="matrix(1.2636 0.0266 -4.149380e-003 0.1938 380.5061 104.7344)" gradientUnits="userSpaceOnUse">
			<stop  offset="0" style="stop-color:#FEFEFE"/>
			<stop  offset="0.2078" style="stop-color:#FEFEFE"/>
			<stop  offset="0.4902" style="stop-color:#FFFFFF;stop-opacity:0.298"/>
			<stop  offset="0.6784" style="stop-color:#FFFFFF;stop-opacity:0.0824"/>
			<stop  offset="0.8392" style="stop-color:#FCFCFC;stop-opacity:0"/>
			<stop  offset="1" style="stop-color:#FBFBFB;stop-opacity:0"/>
		</radialGradient>
		<path fill-rule="evenodd" clip-rule="evenodd" fill="url(#SVGID_13_)" d="M72.88,58.09c-1.94-0.34-2.91-0.71-2.91-1.13
			s0.97-0.75,2.91-1c2.02-0.25,4.42-0.36,7.21-0.31c2.78,0.04,5.12,0.27,7.01,0.69c1.98,0.33,2.97,0.71,2.97,1.13
			c0,0.42-0.99,0.75-2.97,1c-1.98,0.25-4.36,0.36-7.14,0.31C77.18,58.74,74.82,58.5,72.88,58.09z"/>
	</g>
	<g>
		
			<radialGradient id="SVGID_14_" cx="-157.0991" cy="-226.5439" r="4.2239" gradientTransform="matrix(1.0313 -0.725 0.2016 0.2823 390.5788 -10.4209)" gradientUnits="userSpaceOnUse">
			<stop  offset="0" style="stop-color:#FEFEFE"/>
			<stop  offset="0.2078" style="stop-color:#FEFEFE"/>
			<stop  offset="0.4902" style="stop-color:#FFFFFF;stop-opacity:0.298"/>
			<stop  offset="0.6784" style="stop-color:#FFFFFF;stop-opacity:0.0824"/>
			<stop  offset="0.8392" style="stop-color:#FCFCFC;stop-opacity:0"/>
			<stop  offset="1" style="stop-color:#FBFBFB;stop-opacity:0"/>
		</radialGradient>
		<path fill-rule="evenodd" clip-rule="evenodd" fill="url(#SVGID_14_)" d="M187.26,36.45c0.25,0.33,0.04,0.94-0.63,1.82
			c-0.72,0.79-1.66,1.61-2.84,2.44c-1.22,0.84-2.34,1.46-3.35,1.88c-1.01,0.33-1.64,0.33-1.9,0c-0.25-0.33-0.04-0.92,0.63-1.76
			c0.67-0.84,1.62-1.67,2.84-2.51c1.18-0.84,2.3-1.44,3.35-1.82C186.38,36.14,187.01,36.12,187.26,36.45z"/>
	</g>
</g>
</svg>
