<?xml version="1.0" encoding="utf-8"?>
<!-- Generator: Adobe Illustrator 16.0.0, SVG Export Plug-In . SVG Version: 6.00 Build 0)  -->
<!DOCTYPE svg PUBLIC "-//W3C//DTD SVG 1.1//EN" "http://www.w3.org/Graphics/SVG/1.1/DTD/svg11.dtd">
<svg version="1.1" id="Layer_3" xmlns="http://www.w3.org/2000/svg" xmlns:xlink="http://www.w3.org/1999/xlink" x="0px" y="0px"
	 width="189.88px" height="74px" viewBox="0 0 189.88 74" enable-background="new 0 0 189.88 74" xml:space="preserve">
<g>
	<g>
		<g>
			<path fill-rule="evenodd" clip-rule="evenodd" fill="#61616A" d="M188.82,30.63v-3.11c0.1,0.5,0.15,1,0.15,1.51
				C188.97,29.59,188.92,30.13,188.82,30.63z"/>
			<linearGradient id="SVGID_1_" gradientUnits="userSpaceOnUse" x1="98.7505" y1="57.1318" x2="90.0879" y2="-4.3213">
				<stop  offset="0" style="stop-color:#333335"/>
				<stop  offset="1" style="stop-color:#1E1D1B"/>
			</linearGradient>
			<path fill-rule="evenodd" clip-rule="evenodd" fill="url(#SVGID_1_)" d="M188.82,30.63c-0.27,1.57-0.9,3.1-1.91,4.57
				c-3.68,5.19-12.21,9.8-25.6,13.82c-18.37,5.53-40.56,8.29-66.59,8.29c-25.96,0-48.16-2.76-66.59-8.29
				C14.78,45,6.3,40.39,2.69,35.2c-1.3-1.91-1.99-3.9-2.06-5.98v-0.45c0.13-4.55,3.43-8.71,9.89-12.46
				c1.87-1.11,4.05-2.19,6.52-3.27c3.21-1.34,6.91-2.65,11.09-3.92c7.73-2.34,16.16-4.19,25.29-5.53
				c12.51-1.88,26.28-2.81,41.3-2.81c15.09,0,28.89,0.94,41.4,2.81c9.07,1.34,17.46,3.18,25.19,5.53c4.18,1.27,7.93,2.58,11.24,3.92
				c2.44,1.07,4.62,2.16,6.52,3.27c5.85,3.42,9.1,7.15,9.73,11.2V30.63z"/>
			<linearGradient id="SVGID_2_" gradientUnits="userSpaceOnUse" x1="0.6328" y1="51.4033" x2="188.8188" y2="51.4033">
				<stop  offset="0" style="stop-color:#5A564B"/>
				<stop  offset="0" style="stop-color:#5A564A"/>
				<stop  offset="0.1804" style="stop-color:#5A553F"/>
				<stop  offset="0.4275" style="stop-color:#695F38"/>
				<stop  offset="0.6314" style="stop-color:#5B6141"/>
				<stop  offset="0.8667" style="stop-color:#7F6F62"/>
				<stop  offset="1" style="stop-color:#4B4634"/>
			</linearGradient>
			<path fill-rule="evenodd" clip-rule="evenodd" fill="url(#SVGID_2_)" d="M0.63,29.22c0.07,2.08,0.75,4.07,2.06,5.98
				C6.3,40.39,14.78,45,28.13,49.02c18.43,5.53,40.63,8.29,66.59,8.29c26.03,0,48.23-2.76,66.59-8.29
				c13.38-4.02,21.92-8.62,25.6-13.82c1-1.47,1.64-3,1.91-4.57v16.23c-0.37,2.34-1.57,4.57-3.61,6.68
				c-4.32,4.35-12.28,8.26-23.89,11.71c-18.37,5.56-40.56,8.34-66.59,8.34c-25.96,0-48.16-2.78-66.59-8.34
				C16.36,61.69,8.36,57.67,4.15,53.19c-2.24-2.35-3.41-4.86-3.51-7.54V29.22z"/>
		</g>
		<g>
			<linearGradient id="SVGID_3_" gradientUnits="userSpaceOnUse" x1="-117.022" y1="-66.5776" x2="201.4497" y2="77.2256">
				<stop  offset="0" style="stop-color:#5A564B"/>
				<stop  offset="0" style="stop-color:#5A564A"/>
				<stop  offset="0.1804" style="stop-color:#5A553F"/>
				<stop  offset="0.4275" style="stop-color:#695F38"/>
				<stop  offset="0.6314" style="stop-color:#5B6141"/>
				<stop  offset="0.8667" style="stop-color:#7F6F62"/>
				<stop  offset="1" style="stop-color:#4B4634"/>
			</linearGradient>
			<path fill-rule="evenodd" clip-rule="evenodd" fill="url(#SVGID_3_)" d="M179.08,16.31c5.85,3.42,9.1,7.15,9.73,11.2v3.11
				c-0.27,1.57-0.9,3.1-1.91,4.57c-3.68,5.19-12.21,9.8-25.6,13.82c-18.37,5.53-40.56,8.29-66.59,8.29
				c-25.96,0-48.16-2.76-66.59-8.29C14.78,45,6.3,40.39,2.69,35.2c-1.3-1.91-1.99-3.9-2.06-5.98v-0.45
				c0.13-4.55,3.43-8.71,9.89-12.46c1.87-1.11,4.05-2.19,6.52-3.27c3.21-1.34,6.91-2.65,11.09-3.92c7.73-2.34,16.16-4.19,25.29-5.53
				c12.51-1.88,26.28-2.81,41.3-2.81c15.09,0,28.89,0.94,41.4,2.81c9.07,1.34,17.46,3.18,25.19,5.53c4.18,1.27,7.93,2.58,11.24,3.92
				C175,14.12,177.18,15.21,179.08,16.31z"/>
		</g>
		<g>
			<linearGradient id="SVGID_4_" gradientUnits="userSpaceOnUse" x1="-117.022" y1="-66.5776" x2="201.4497" y2="77.2256">
				<stop  offset="0" style="stop-color:#161616"/>
				<stop  offset="1" style="stop-color:#0E0E0E;stop-opacity:0.251"/>
			</linearGradient>
			<path fill-rule="evenodd" clip-rule="evenodd" fill="url(#SVGID_4_)" d="M179.08,16.31c5.85,3.42,9.1,7.15,9.73,11.2v3.11
				c-0.27,1.57-0.9,3.1-1.91,4.57c-3.68,5.19-12.21,9.8-25.6,13.82c-18.37,5.53-40.56,8.29-66.59,8.29
				c-25.96,0-48.16-2.76-66.59-8.29C14.78,45,6.3,40.39,2.69,35.2c-1.3-1.91-1.99-3.9-2.06-5.98v-0.45
				c0.13-4.55,3.43-8.71,9.89-12.46c1.87-1.11,4.05-2.19,6.52-3.27c3.21-1.34,6.91-2.65,11.09-3.92c7.73-2.34,16.16-4.19,25.29-5.53
				c12.51-1.88,26.28-2.81,41.3-2.81c15.09,0,28.89,0.94,41.4,2.81c9.07,1.34,17.46,3.18,25.19,5.53c4.18,1.27,7.93,2.58,11.24,3.92
				C175,14.12,177.18,15.21,179.08,16.31z"/>
		</g>
		<g>
			<linearGradient id="SVGID_5_" gradientUnits="userSpaceOnUse" x1="92.7817" y1="8.8979" x2="95.3152" y2="42.9314">
				<stop  offset="0" style="stop-color:#1C1817"/>
				<stop  offset="1" style="stop-color:#38393B"/>
			</linearGradient>
			<path fill-rule="evenodd" clip-rule="evenodd" fill="url(#SVGID_5_)" d="M175.72,25.86v2.61c-0.24,1.27-0.79,2.51-1.66,3.72
				c-3.18,4.25-10.57,8.02-22.18,11.3c-15.92,4.59-35.18,6.88-57.76,6.88c-22.52,0-41.79-2.29-57.81-6.88
				c-11.58-3.28-18.92-7.05-22.03-11.3c-1.14-1.54-1.74-3.18-1.81-4.92v-0.3c0.1-3.95,3.16-7.5,9.18-10.65
				c2.14-1.17,4.63-2.26,7.48-3.27c2.17-0.8,4.57-1.56,7.18-2.26c16.03-4.52,35.3-6.78,57.81-6.78c22.58,0,41.84,2.26,57.76,6.78
				c2.61,0.7,5,1.46,7.17,2.26c2.84,1.07,5.35,2.16,7.53,3.27C172.08,19.23,175.12,22.41,175.72,25.86z"/>
			
				<path fill-rule="evenodd" clip-rule="evenodd" fill="none" stroke="#211D1B" stroke-width="0.1" stroke-linecap="round" stroke-linejoin="round" stroke-miterlimit="3" d="
				M175.72,25.86v2.61c-0.24,1.27-0.79,2.51-1.66,3.72c-3.18,4.25-10.57,8.02-22.18,11.3c-15.92,4.59-35.18,6.88-57.76,6.88
				c-22.52,0-41.79-2.29-57.81-6.88c-11.58-3.28-18.92-7.05-22.03-11.3c-1.14-1.54-1.74-3.18-1.81-4.92v-0.3
				c0.1-3.95,3.16-7.5,9.18-10.65c2.14-1.17,4.63-2.26,7.48-3.27c2.17-0.8,4.57-1.56,7.18-2.26c16.03-4.52,35.3-6.78,57.81-6.78
				c22.58,0,41.84,2.26,57.76,6.78c2.61,0.7,5,1.46,7.17,2.26c2.84,1.07,5.35,2.16,7.53,3.27
				C172.08,19.23,175.12,22.41,175.72,25.86z"/>
		</g>
		<g>
			
				<radialGradient id="SVGID_6_" cx="93.1826" cy="38.2324" r="82.1249" gradientTransform="matrix(1.0037 0 0 1.0047 0.5995 -0.3473)" gradientUnits="userSpaceOnUse">
				<stop  offset="0" style="stop-color:#FFFFFF;stop-opacity:0.4235"/>
				<stop  offset="1" style="stop-color:#F5F5F5;stop-opacity:0"/>
			</radialGradient>
			<path fill-rule="evenodd" clip-rule="evenodd" fill="url(#SVGID_6_)" d="M151.68,42.19h0.05c10.2-2.91,17.31-5.86,21.33-8.84
				l-0.65,0.75c-3.88,3.45-10.66,6.55-20.32,9.29c-15.96,4.55-35.28,6.83-57.96,6.83c-22.58,0-41.89-2.28-57.91-6.83
				c-9.57-2.75-16.29-5.79-20.17-9.14L15.84,34c3.81,2.65,12.21,5.81,25.19,9.5c12.91,3.65,30.61,5.48,53.09,5.48
				C116.61,48.97,135.79,46.71,151.68,42.19z"/>
		</g>
		<g>
			<path fill-rule="evenodd" clip-rule="evenodd" fill="none" d="M188.42,32.19c-0.33,1.04-0.83,2.04-1.5,3.01
				c-3.68,5.19-12.21,9.8-25.6,13.82c-18.37,5.53-40.56,8.29-66.59,8.29c-25.96,0-48.16-2.76-66.59-8.29
				C14.78,45,6.3,40.39,2.69,35.2c-0.67-0.97-1.15-1.98-1.46-3.01"/>
		</g>
	</g>
	<g>
		<g>
			
				<radialGradient id="SVGID_7_" cx="127.1821" cy="55.7822" r="13.1541" gradientTransform="matrix(0.9968 -0.1177 0.0182 0.1547 0.4619 62.0426)" gradientUnits="userSpaceOnUse">
				<stop  offset="0" style="stop-color:#FEFEFE"/>
				<stop  offset="0.2078" style="stop-color:#FEFEFE"/>
				<stop  offset="0.4902" style="stop-color:#FFFFFF;stop-opacity:0.298"/>
				<stop  offset="0.6784" style="stop-color:#FFFFFF;stop-opacity:0.0824"/>
				<stop  offset="0.8392" style="stop-color:#FCFCFC;stop-opacity:0"/>
				<stop  offset="1" style="stop-color:#FBFBFB;stop-opacity:0"/>
			</radialGradient>
			<path fill-rule="evenodd" clip-rule="evenodd" fill="url(#SVGID_7_)" d="M141.45,54.09c0.07,0.54-1.19,1.19-3.76,1.96
				c-2.48,0.67-5.54,1.22-9.18,1.66c-3.61,0.44-6.74,0.6-9.38,0.5c-2.61-0.07-3.96-0.39-4.07-0.96c-0.07-0.54,1.17-1.19,3.71-1.96
				c2.51-0.67,5.59-1.22,9.23-1.66c3.65-0.4,6.76-0.57,9.33-0.5C139.98,53.24,141.35,53.55,141.45,54.09z"/>
		</g>
		<g>
			
				<radialGradient id="SVGID_8_" cx="78.7827" cy="57.2314" r="10.0025" gradientTransform="matrix(1.0034 0.0235 -3.631179e-003 0.1557 0.8289 46.3966)" gradientUnits="userSpaceOnUse">
				<stop  offset="0" style="stop-color:#FEFEFE"/>
				<stop  offset="0.2078" style="stop-color:#FEFEFE"/>
				<stop  offset="0.4902" style="stop-color:#FFFFFF;stop-opacity:0.298"/>
				<stop  offset="0.6784" style="stop-color:#FFFFFF;stop-opacity:0.0824"/>
				<stop  offset="0.8392" style="stop-color:#FCFCFC;stop-opacity:0"/>
				<stop  offset="1" style="stop-color:#FBFBFB;stop-opacity:0"/>
			</radialGradient>
			<path fill-rule="evenodd" clip-rule="evenodd" fill="url(#SVGID_8_)" d="M79.72,55.55c2.78,0.03,5.12,0.27,7.03,0.7
				c1.97,0.33,2.96,0.72,2.96,1.16c0,0.4-0.99,0.74-2.96,1c-1.97,0.23-4.37,0.33-7.18,0.3c-2.78-0.03-5.14-0.27-7.08-0.7
				c-1.94-0.33-2.91-0.7-2.91-1.11c0-0.44,0.97-0.79,2.91-1.05C74.54,55.61,76.94,55.51,79.72,55.55z"/>
		</g>
		<g>
			
				<radialGradient id="SVGID_9_" cx="181.5337" cy="39.4326" r="5.3251" gradientTransform="matrix(0.8193 -0.5804 0.16 0.2264 27.7587 135.6989)" gradientUnits="userSpaceOnUse">
				<stop  offset="0" style="stop-color:#FEFEFE"/>
				<stop  offset="0.2078" style="stop-color:#FEFEFE"/>
				<stop  offset="0.4902" style="stop-color:#FFFFFF;stop-opacity:0.298"/>
				<stop  offset="0.6784" style="stop-color:#FFFFFF;stop-opacity:0.0824"/>
				<stop  offset="0.8392" style="stop-color:#FCFCFC;stop-opacity:0"/>
				<stop  offset="1" style="stop-color:#FBFBFB;stop-opacity:0"/>
			</radialGradient>
			<path fill-rule="evenodd" clip-rule="evenodd" fill="url(#SVGID_9_)" d="M180.34,42.33c-1,0.37-1.64,0.37-1.91,0
				c-0.27-0.33-0.05-0.92,0.65-1.76c0.67-0.84,1.61-1.67,2.81-2.51c1.21-0.87,2.33-1.49,3.36-1.86c1.04-0.37,1.67-0.39,1.91-0.05
				c0.27,0.33,0.07,0.94-0.6,1.81c-0.74,0.8-1.69,1.64-2.86,2.51C182.46,41.31,181.34,41.93,180.34,42.33z"/>
		</g>
	</g>
</g>
</svg>
