<?xml version="1.0" encoding="utf-8"?>
<!-- Generator: Adobe Illustrator 16.0.0, SVG Export Plug-In . SVG Version: 6.00 Build 0)  -->
<!DOCTYPE svg PUBLIC "-//W3C//DTD SVG 1.1//EN" "http://www.w3.org/Graphics/SVG/1.1/DTD/svg11.dtd">
<svg version="1.1" id="Layer_1" xmlns="http://www.w3.org/2000/svg" xmlns:xlink="http://www.w3.org/1999/xlink" x="0px" y="0px"
	 width="18.469px" height="21.2px" viewBox="0 0 18.469 21.2" enable-background="new 0 0 18.469 21.2" xml:space="preserve">
<g>
	<g>
		<polygon fill-rule="evenodd" clip-rule="evenodd" fill="#151515" points="16.287,9.25 1.538,9.25 0.337,2.5 0.337,2.2 18.138,2.2 
			18.188,2.2 		"/>
		<polygon fill-rule="evenodd" clip-rule="evenodd" fill="#222222" points="18.138,2.2 0.337,2.2 0.237,0 18.138,0 		"/>
		<rect x="1.538" y="9.25" fill-rule="evenodd" clip-rule="evenodd" fill="#333333" width="14.75" height="11.95"/>
	</g>
	<g>
		<rect x="2.837" y="12.9" fill-rule="evenodd" clip-rule="evenodd" fill="#00AA00" width="12.25" height="4.95"/>
	</g>
	<g>
		<g>
			<path fill-rule="evenodd" clip-rule="evenodd" d="M12.787,14.35h-1.5v0.75h1.301v0.55h-1.301v1.3h-0.6V13.9h2.1V14.35z
				 M10.188,14.35h-1.5v0.75h1.3v0.55h-1.3v1.3h-0.6V13.9h2.1V14.35z M5.487,14.6c-0.133,0.2-0.2,0.467-0.2,0.8
				c0,0.366,0.066,0.634,0.2,0.8c0.167,0.2,0.367,0.3,0.6,0.3c0.267,0,0.467-0.1,0.6-0.3c0.167-0.166,0.25-0.434,0.25-0.8
				c0-0.333-0.083-0.6-0.25-0.8c-0.133-0.167-0.333-0.25-0.6-0.25C5.854,14.35,5.654,14.433,5.487,14.6z M6.087,13.85
				c0.467,0,0.833,0.116,1.1,0.35c0.3,0.3,0.45,0.7,0.45,1.2c0,0.533-0.15,0.917-0.45,1.15C6.921,16.85,6.554,17,6.087,17
				c-0.433,0-0.783-0.149-1.05-0.449c-0.3-0.233-0.45-0.617-0.45-1.15c0-0.3,0.05-0.55,0.15-0.75c0.1-0.134,0.2-0.283,0.3-0.45
				c0.1-0.1,0.233-0.2,0.4-0.3C5.638,13.867,5.854,13.85,6.087,13.85z"/>
		</g>
	</g>
</g>
</svg>
