<?xml version="1.0" encoding="utf-8"?>
<!-- Generator: Adobe Illustrator 16.0.0, SVG Export Plug-In . SVG Version: 6.00 Build 0)  -->
<!DOCTYPE svg PUBLIC "-//W3C//DTD SVG 1.1//EN" "http://www.w3.org/Graphics/SVG/1.1/DTD/svg11.dtd">
<svg version="1.1" id="Layer_1" xmlns="http://www.w3.org/2000/svg" xmlns:xlink="http://www.w3.org/1999/xlink" x="0px" y="0px"
	 width="17.9px" height="21.25px" viewBox="0 0 17.9 21.25" enable-background="new 0 0 17.9 21.25" xml:space="preserve">
<g>
	<g>
		<polygon fill-rule="evenodd" clip-rule="evenodd" fill="#222222" points="0.1,19 17.9,19 17.9,21.25 0,21.25 		"/>
		<polygon fill-rule="evenodd" clip-rule="evenodd" fill="#151515" points="16.05,11.95 17.95,19 17.9,19 0.1,19 0.1,18.7 
			1.3,11.95 		"/>
		<rect x="1.3" fill-rule="evenodd" clip-rule="evenodd" fill="#333333" width="14.75" height="11.95"/>
	</g>
	<g>
		<rect x="2.6" y="3.6" fill-rule="evenodd" clip-rule="evenodd" fill="#00AA00" width="12.25" height="4.95"/>
	</g>
	<g>
		<path fill-rule="evenodd" clip-rule="evenodd" d="M11.351,7.55H10.75l-1.25-2v2H9V4.6h0.601L10.8,6.55V4.6h0.551V7.55z M7,4.5
			c0.467,0,0.817,0.133,1.05,0.4c0.333,0.3,0.5,0.667,0.5,1.1c0,0.533-0.166,0.917-0.5,1.15C7.817,7.45,7.5,7.6,7.1,7.6
			C6.634,7.6,6.267,7.45,6,7.15C5.7,6.917,5.55,6.566,5.55,6.1c0-0.3,0.05-0.583,0.15-0.85C5.8,5.117,5.9,5,6,4.9
			c0.1-0.1,0.233-0.183,0.4-0.25C6.6,4.55,6.8,4.5,7,4.5z M6.45,5.25C6.317,5.45,6.25,5.7,6.25,6c0,0.367,0.067,0.633,0.2,0.8
			C6.617,7,6.8,7.1,7,7.1c0.267,0,0.467-0.1,0.6-0.3C7.767,6.633,7.85,6.367,7.85,6c0-0.333-0.083-0.583-0.25-0.75
			C7.467,5.117,7.267,5.05,7,5.05C6.8,5.05,6.617,5.117,6.45,5.25z"/>
	</g>
</g>
</svg>
