<?xml version="1.0" encoding="utf-8"?>
<!-- Generator: Adobe Illustrator 16.0.0, SVG Export Plug-In . SVG Version: 6.00 Build 0)  -->
<!DOCTYPE svg PUBLIC "-//W3C//DTD SVG 1.1//EN" "http://www.w3.org/Graphics/SVG/1.1/DTD/svg11.dtd">
<svg version="1.1" id="Layer_1" xmlns="http://www.w3.org/2000/svg" xmlns:xlink="http://www.w3.org/1999/xlink" x="0px" y="0px"
	 width="26px" height="25.13px" viewBox="0 0 26 25.13" enable-background="new 0 0 26 25.13" xml:space="preserve">
<symbol  id="glace" viewBox="-7.1 -2.5 14.15 5.05">
	<g id="Layer_1_2_">
		<g>
			
				<radialGradient id="SVGID_1_" cx="0" cy="0" r="7.25" gradientTransform="matrix(1 0 0 0.3569 0 4.882813e-004)" gradientUnits="userSpaceOnUse">
				<stop  offset="0" style="stop-color:#FFFFFF"/>
				<stop  offset="0.1922" style="stop-color:#FFFFFF"/>
				<stop  offset="0.2824" style="stop-color:#FFFFFF;stop-opacity:0.7412"/>
				<stop  offset="0.4157" style="stop-color:#FFFFFF;stop-opacity:0.6"/>
				<stop  offset="0.5882" style="stop-color:#FEFEFE;stop-opacity:0.3529"/>
				<stop  offset="0.8157" style="stop-color:#FCFCFC;stop-opacity:0.0941"/>
				<stop  offset="1" style="stop-color:#F9F9F9;stop-opacity:0"/>
			</radialGradient>
			<path fill-rule="evenodd" clip-rule="evenodd" fill="url(#SVGID_1_)" d="M-0.05,2.55C1.92,2.55,3.6,2.3,5,1.8
				C6.37,1.3,7.05,0.7,7.05,0S6.37-1.3,5-1.8C3.6-2.27,1.92-2.5-0.05-2.5c-1.93,0-3.6,0.23-5,0.7C-6.42-1.3-7.1-0.7-7.1,0
				s0.68,1.3,2.05,1.8C-3.65,2.3-1.98,2.55-0.05,2.55z"/>
		</g>
	</g>
</symbol>
<g>
	<g>
		<path fill-rule="evenodd" clip-rule="evenodd" d="M22.13,21.4c-1.83,1.83-4.07,2.75-6.7,2.75c-2.57,0-4.77-0.92-6.6-2.75
			c-1.87-1.83-2.8-4.07-2.8-6.7c0-2.57,0.93-4.77,2.8-6.6c1.83-1.87,4.03-2.8,6.6-2.8c2.63,0,4.87,0.93,6.7,2.8
			c1.83,1.83,2.75,4.03,2.75,6.6C24.88,17.33,23.96,19.57,22.13,21.4z"/>
	</g>
	<g>
		<g>
			
				<radialGradient id="SVGID_2_" cx="12.3252" cy="19.25" r="9.8949" gradientTransform="matrix(0.8664 0.4993 -0.7865 1.3646 16.7863 -13.1738)" gradientUnits="userSpaceOnUse">
				<stop  offset="0" style="stop-color:#574F42"/>
				<stop  offset="1" style="stop-color:#1E1E1E"/>
			</radialGradient>
			<path fill-rule="evenodd" clip-rule="evenodd" fill="url(#SVGID_2_)" d="M17.48,5.95c-0.13,0.17-0.2,0.35-0.2,0.55
				s0.05,0.35,0.15,0.45c0.03,0.1,0.08,0.2,0.15,0.3c0.03,0,0.08,0.03,0.15,0.1c0.13,0.13,0.33,0.2,0.6,0.2c0.23,0,0.47-0.1,0.7-0.3
				c0.2-0.2,0.3-0.42,0.3-0.65c0.23,0.1,0.48,0.22,0.75,0.35c0.2,0.1,0.4,0.23,0.6,0.4c-0.1,0-0.18,0.05-0.25,0.15
				c-0.1,0.03-0.17,0.1-0.2,0.2c-0.07,0.17-0.1,0.33-0.1,0.5c0,0.13,0.03,0.28,0.1,0.45c0.03,0.03,0.08,0.08,0.15,0.15
				c0.1,0.1,0.2,0.17,0.3,0.2c0.1,0.1,0.25,0.15,0.45,0.15s0.38-0.02,0.55-0.05c0.03-0.07,0.1-0.15,0.2-0.25s0.15-0.2,0.15-0.3
				c0.07,0.07,0.12,0.1,0.15,0.1c0.27,0.3,0.5,0.6,0.7,0.9c0.07,0.1,0.15,0.17,0.25,0.2c0,0.1,0.02,0.18,0.05,0.25
				c-0.03,0-0.08,0.03-0.15,0.1c-0.1,0-0.22,0.05-0.35,0.15l-0.1,0.05c-0.17,0.17-0.25,0.37-0.25,0.6V11c0,0.1,0,0.17,0,0.2
				c0,0.07,0,0.12,0,0.15c0.07,0,0.1,0.03,0.1,0.1v0.05c0.03,0,0.05,0.03,0.05,0.1l0.1,0.05c0.2,0.23,0.45,0.35,0.75,0.35
				c0.27,0,0.5-0.12,0.7-0.35c0.13,0.53,0.25,1.05,0.35,1.55c0.07,0.03,0.1,0.1,0.1,0.2c-0.1-0.03-0.2-0.05-0.3-0.05
				c-0.27,0-0.5,0.1-0.7,0.3c-0.03,0.03-0.08,0.12-0.15,0.25c-0.1,0.13-0.15,0.28-0.15,0.45c0,0.2,0.05,0.35,0.15,0.45
				c0,0.1,0.05,0.2,0.15,0.3c0.2,0.2,0.43,0.3,0.7,0.3c0.13,0,0.27-0.03,0.4-0.1c-0.07,0.47-0.15,0.93-0.25,1.4h-0.1
				c-0.03-0.07-0.1-0.12-0.2-0.15c-0.07,0-0.15,0-0.25,0c-0.23,0-0.45,0.1-0.65,0.3c-0.17,0.13-0.27,0.28-0.3,0.45
				c0,0.1,0,0.18,0,0.25c0,0.13,0.02,0.28,0.05,0.45c0.07,0.1,0.15,0.2,0.25,0.3c0.13,0.13,0.33,0.23,0.6,0.3
				c-0.2,0.4-0.45,0.78-0.75,1.15l-0.1-0.1c-0.03-0.1-0.1-0.15-0.2-0.15c-0.17-0.1-0.33-0.15-0.5-0.15c-0.1,0-0.2,0.03-0.3,0.1
				c-0.13,0-0.25,0.07-0.35,0.2c-0.2,0.2-0.3,0.43-0.3,0.7c0,0.13,0.02,0.28,0.05,0.45c0,0.03,0.03,0.05,0.1,0.05
				c0,0.07,0.05,0.15,0.15,0.25c0.03,0.03,0.1,0.08,0.2,0.15c-0.33,0.3-0.72,0.58-1.15,0.85c0-0.17-0.07-0.3-0.2-0.4
				c-0.1-0.1-0.18-0.17-0.25-0.2c-0.13-0.07-0.28-0.1-0.45-0.1c-0.1,0-0.2,0-0.3,0c-0.1,0.1-0.2,0.18-0.3,0.25h-0.05l-0.1,0.05
				c-0.2,0.2-0.3,0.43-0.3,0.7c0,0.13,0.05,0.28,0.15,0.45c0.03,0.03,0.08,0.12,0.15,0.25c-0.4,0.13-0.8,0.23-1.2,0.3
				c0-0.33-0.1-0.6-0.3-0.8c-0.07-0.03-0.15-0.08-0.25-0.15c-0.1-0.03-0.23-0.05-0.4-0.05c0-0.07-0.02-0.1-0.05-0.1
				c-0.17,0-0.3,0.05-0.4,0.15c-0.1,0-0.2,0.05-0.3,0.15c-0.03,0.07-0.08,0.12-0.15,0.15c-0.1,0.17-0.15,0.38-0.15,0.65
				c0,0.1,0,0.17,0,0.2c-0.03,0-0.08,0-0.15,0c-0.4,0-0.8-0.02-1.2-0.05c0-0.1,0-0.2,0-0.3c0-0.27-0.1-0.5-0.3-0.7
				c-0.07-0.1-0.15-0.18-0.25-0.25c-0.13-0.03-0.28-0.05-0.45-0.05c-0.3,0-0.55,0.1-0.75,0.3c0,0.03-0.03,0.08-0.1,0.15
				c-0.03,0-0.05,0.02-0.05,0.05c-0.07,0.1-0.1,0.22-0.1,0.35c-0.03,0-0.05-0.03-0.05-0.1h-0.1c-0.1-0.07-0.2-0.12-0.3-0.15
				c-0.3-0.1-0.6-0.25-0.9-0.45c-0.07-0.07-0.12-0.1-0.15-0.1c0.1-0.1,0.17-0.22,0.2-0.35c0.07-0.1,0.1-0.23,0.1-0.4
				c0-0.27-0.1-0.5-0.3-0.7c-0.07-0.03-0.12-0.05-0.15-0.05l-0.1-0.1c-0.13-0.1-0.28-0.15-0.45-0.15c-0.3,0-0.55,0.1-0.75,0.3
				c0,0.07-0.02,0.12-0.05,0.15h-0.1c-0.17-0.13-0.3-0.28-0.4-0.45c-0.2-0.2-0.37-0.4-0.5-0.6c0.1-0.03,0.2-0.08,0.3-0.15
				c0.13-0.2,0.2-0.45,0.2-0.75c0-0.27-0.07-0.5-0.2-0.7c-0.1-0.1-0.2-0.15-0.3-0.15c-0.1-0.1-0.25-0.15-0.45-0.15
				c-0.23,0-0.42,0.05-0.55,0.15c-0.1-0.13-0.18-0.3-0.25-0.5c-0.03-0.23-0.08-0.45-0.15-0.65c0.27,0,0.5-0.1,0.7-0.3
				c0.17-0.13,0.27-0.3,0.3-0.5c0-0.07,0-0.12,0-0.15c0-0.1-0.02-0.2-0.05-0.3c0-0.07,0-0.12,0-0.15c-0.13-0.13-0.22-0.22-0.25-0.25
				c-0.07-0.1-0.15-0.18-0.25-0.25c-0.13-0.03-0.28-0.05-0.45-0.05c-0.1,0-0.2,0-0.3,0c0-0.1,0-0.23,0-0.4v-0.05
				c0-0.37,0.03-0.7,0.1-1c0.1,0.03,0.2,0.05,0.3,0.05c0.3,0,0.55-0.1,0.75-0.3c0.07-0.03,0.12-0.08,0.15-0.15
				c0.1-0.13,0.15-0.3,0.15-0.5c0-0.07,0-0.12,0-0.15c-0.03-0.27-0.13-0.47-0.3-0.6c-0.1-0.07-0.18-0.13-0.25-0.2
				c-0.13-0.03-0.28-0.08-0.45-0.15c0.07-0.03,0.12-0.1,0.15-0.2c0.17-0.47,0.38-0.9,0.65-1.3c0.03,0,0.05,0.03,0.05,0.1
				c0.2,0.2,0.43,0.3,0.7,0.3c0.13,0,0.28-0.03,0.45-0.1c0.1-0.03,0.17-0.1,0.2-0.2h0.1c0.03-0.1,0.08-0.18,0.15-0.25
				c0.07-0.1,0.1-0.2,0.1-0.3c0-0.07,0-0.12,0-0.15c0-0.3-0.08-0.55-0.25-0.75c-0.1-0.07-0.18-0.12-0.25-0.15l-0.05-0.1
				C9.16,8.52,9.21,8.47,9.27,8.4c0.3-0.3,0.6-0.58,0.9-0.85c0.07,0.07,0.15,0.1,0.25,0.1c0.03,0.13,0.08,0.23,0.15,0.3
				c0.2,0.2,0.42,0.3,0.65,0.3h0.1c0.1,0,0.23-0.02,0.4-0.05c0.03-0.07,0.08-0.13,0.15-0.2c0.03,0,0.08-0.02,0.15-0.05
				c0.03-0.07,0.08-0.12,0.15-0.15c0.1-0.17,0.15-0.35,0.15-0.55c0-0.3-0.1-0.55-0.3-0.75c0.4-0.17,0.82-0.32,1.25-0.45h0.1
				c0.07,0,0.12-0.03,0.15-0.1c0.07,0,0.12,0,0.15,0c0,0.07,0,0.12,0,0.15c0,0.1,0,0.18,0,0.25c0.07,0.07,0.12,0.15,0.15,0.25
				c0,0.1,0.05,0.17,0.15,0.2c0.1,0.17,0.23,0.27,0.4,0.3c0.1,0,0.2,0,0.3,0c0.2,0,0.38-0.02,0.55-0.05c0.03-0.07,0.1-0.15,0.2-0.25
				c0.2-0.13,0.3-0.37,0.3-0.7c0-0.1-0.02-0.22-0.05-0.35c0.4,0,0.8,0.05,1.2,0.15C17.08,5.9,17.27,5.92,17.48,5.95z M17.02,22.15
				h-0.1l0.1,0.1V22.15z M10.48,20.55h0.1l-0.1-0.05V20.55z"/>
			<linearGradient id="SVGID_3_" gradientUnits="userSpaceOnUse" x1="16.9814" y1="7.0796" x2="18.9362" y2="5.6109">
				<stop  offset="0" style="stop-color:#000000"/>
				<stop  offset="0.8392" style="stop-color:#534A36"/>
				<stop  offset="1" style="stop-color:#3E3728"/>
			</linearGradient>
			<path fill-rule="evenodd" clip-rule="evenodd" fill="url(#SVGID_3_)" d="M16.88,5.45c0.57,0.1,1.12,0.25,1.65,0.45l0.8,0.7
				c0,0.23-0.1,0.45-0.3,0.65c-0.23,0.2-0.47,0.3-0.7,0.3c-0.27,0-0.47-0.07-0.6-0.2c-0.07-0.07-0.12-0.1-0.15-0.1
				c-0.07-0.1-0.12-0.2-0.15-0.3c-0.1-0.1-0.15-0.25-0.15-0.45s0.07-0.38,0.2-0.55L16.88,5.45z"/>
			<linearGradient id="SVGID_4_" gradientUnits="userSpaceOnUse" x1="13.9878" y1="6.9629" x2="15.3878" y2="5.5629">
				<stop  offset="0" style="stop-color:#000000"/>
				<stop  offset="0.8392" style="stop-color:#534A36"/>
				<stop  offset="1" style="stop-color:#3E3728"/>
			</linearGradient>
			<path fill-rule="evenodd" clip-rule="evenodd" fill="url(#SVGID_4_)" d="M13.67,5.95c0.17,0.07,0.3,0.1,0.4,0.1
				c0.3,0,0.52-0.1,0.65-0.3c0.17-0.1,0.27-0.23,0.3-0.4l0.65,0.4C15.71,5.88,15.73,6,15.73,6.1c0,0.33-0.1,0.57-0.3,0.7
				c-0.1,0.1-0.17,0.18-0.2,0.25c-0.17,0.03-0.35,0.05-0.55,0.05c-0.1,0-0.2,0-0.3,0c-0.17-0.03-0.3-0.13-0.4-0.3
				c-0.1-0.03-0.15-0.1-0.15-0.2c-0.03-0.1-0.08-0.18-0.15-0.25c0-0.07,0-0.15,0-0.25C13.67,6.07,13.67,6.02,13.67,5.95z"/>
			<path fill-rule="evenodd" clip-rule="evenodd" fill="#333333" d="M15.67,5.75l-0.65-0.4c0.13,0,0.22,0,0.25,0
				c0.57,0,1.1,0.03,1.6,0.1l0.6,0.5c-0.2-0.03-0.4-0.05-0.6-0.05C16.48,5.8,16.08,5.75,15.67,5.75z M12.02,6.5l-0.55-0.4h0.1
				c0.43-0.2,0.9-0.37,1.4-0.5c0.07,0,0.12,0,0.15,0c0.07,0.03,0.15,0.08,0.25,0.15l0.3,0.2c-0.03,0-0.08,0-0.15,0
				c-0.03,0.07-0.08,0.1-0.15,0.1h-0.1C12.84,6.18,12.42,6.33,12.02,6.5z M10.13,7.5l0.05,0.05c-0.3,0.27-0.6,0.55-0.9,0.85
				C9.21,8.47,9.16,8.52,9.13,8.55L8.67,8.3V8.25L8.58,8.2C8.64,8.13,8.69,8.07,8.73,8c0.3-0.3,0.62-0.57,0.95-0.8l0.15,0.15
				L10.13,7.5z M7.13,11.65l-0.5-0.45l0.05-0.05c0.2-0.5,0.43-0.98,0.7-1.45v0.05h0.05l0.5,0.4c-0.27,0.4-0.48,0.83-0.65,1.3
				C7.24,11.55,7.19,11.62,7.13,11.65z M6.17,13.1l0.6,0.55c-0.07,0.3-0.1,0.63-0.1,1v0.05c0,0.17,0,0.3,0,0.4l-0.65-0.45
				c0-0.07,0-0.12,0-0.15C6.02,14.03,6.08,13.57,6.17,13.1z M6.17,16.55l0.8,0.5c0.07,0.2,0.12,0.42,0.15,0.65
				c0.07,0.2,0.15,0.37,0.25,0.5h-0.1l-0.75-0.5c-0.03-0.07-0.05-0.12-0.05-0.15C6.38,17.22,6.27,16.88,6.17,16.55z M7.23,19.2
				l1.15,0.75c0.13,0.2,0.3,0.4,0.5,0.6c0.1,0.17,0.23,0.32,0.4,0.45l-1.55-0.95C7.52,19.78,7.36,19.5,7.23,19.2z M21.23,7.35
				c0.13,0.13,0.28,0.28,0.45,0.45c0.1,0.03,0.17,0.1,0.2,0.2c0.1,0.13,0.2,0.25,0.3,0.35l0.7,1.2c-0.2-0.3-0.43-0.6-0.7-0.9
				c-0.03,0-0.08-0.03-0.15-0.1L21.23,7.35z M19.77,6.45l0.9,0.9c-0.2-0.17-0.4-0.3-0.6-0.4c-0.27-0.13-0.52-0.25-0.75-0.35
				l-0.8-0.7C18.96,6.03,19.38,6.22,19.77,6.45z"/>
			<linearGradient id="SVGID_5_" gradientUnits="userSpaceOnUse" x1="9.813" y1="8.9629" x2="12.438" y2="6.3379">
				<stop  offset="0" style="stop-color:#000000"/>
				<stop  offset="0.8392" style="stop-color:#534A36"/>
				<stop  offset="1" style="stop-color:#3E3728"/>
			</linearGradient>
			<path fill-rule="evenodd" clip-rule="evenodd" fill="url(#SVGID_5_)" d="M10.17,7.55L10.13,7.5c0.13,0.03,0.25,0.05,0.35,0.05
				c0.3,0,0.55-0.1,0.75-0.3c0.23-0.2,0.35-0.42,0.35-0.65c0-0.17-0.03-0.3-0.1-0.4V6.1l0.55,0.4c0.2,0.2,0.3,0.45,0.3,0.75
				c0,0.2-0.05,0.38-0.15,0.55c-0.07,0.03-0.12,0.08-0.15,0.15C11.96,7.98,11.91,8,11.88,8c-0.07,0.07-0.12,0.13-0.15,0.2
				c-0.17,0.03-0.3,0.05-0.4,0.05h-0.1c-0.23,0-0.45-0.1-0.65-0.3c-0.07-0.07-0.12-0.17-0.15-0.3C10.33,7.65,10.24,7.62,10.17,7.55z
				"/>
			<polygon fill-rule="evenodd" clip-rule="evenodd" fill="#6D6247" points="9.83,7.35 9.67,7.2 9.73,7.2 9.83,7.25 			"/>
			<linearGradient id="SVGID_6_" gradientUnits="userSpaceOnUse" x1="8.0713" y1="10.416" x2="9.5545" y2="8.673">
				<stop  offset="0" style="stop-color:#000000"/>
				<stop  offset="0.8392" style="stop-color:#534A36"/>
				<stop  offset="1" style="stop-color:#3E3728"/>
			</linearGradient>
			<path fill-rule="evenodd" clip-rule="evenodd" fill="url(#SVGID_6_)" d="M7.92,10.15l-0.5-0.4c0.07,0,0.17,0,0.3,0
				c0.27,0,0.5-0.1,0.7-0.3c0.2-0.2,0.3-0.42,0.3-0.65c0-0.17,0-0.27,0-0.3C8.69,8.43,8.67,8.38,8.67,8.35V8.3l0.45,0.25l0.05,0.1
				C9.24,8.68,9.33,8.73,9.42,8.8C9.59,9,9.67,9.25,9.67,9.55c0,0.03,0,0.08,0,0.15c0,0.1-0.03,0.2-0.1,0.3
				c-0.07,0.07-0.12,0.15-0.15,0.25h-0.1c-0.03,0.1-0.1,0.17-0.2,0.2c-0.17,0.07-0.32,0.1-0.45,0.1c-0.27,0-0.5-0.1-0.7-0.3
				C7.98,10.18,7.96,10.15,7.92,10.15z"/>
			<linearGradient id="SVGID_7_" gradientUnits="userSpaceOnUse" x1="7.7734" y1="11.9902" x2="6.775" y2="13.6912">
				<stop  offset="0" style="stop-color:#000000"/>
				<stop  offset="0.8392" style="stop-color:#534A36"/>
				<stop  offset="1" style="stop-color:#3E3728"/>
			</linearGradient>
			<path fill-rule="evenodd" clip-rule="evenodd" fill="url(#SVGID_7_)" d="M6.77,13.65l-0.6-0.55h0.05c0.27,0,0.5-0.1,0.7-0.3
				c0.2-0.2,0.3-0.45,0.3-0.75c0-0.1-0.03-0.23-0.1-0.4c0.17,0.07,0.32,0.12,0.45,0.15c0.07,0.07,0.15,0.13,0.25,0.2
				c0.17,0.13,0.27,0.33,0.3,0.6c0,0.03,0,0.08,0,0.15c0,0.2-0.05,0.37-0.15,0.5c-0.03,0.07-0.08,0.12-0.15,0.15
				c-0.2,0.2-0.45,0.3-0.75,0.3C6.98,13.7,6.88,13.68,6.77,13.65z"/>
			<linearGradient id="SVGID_8_" gradientUnits="userSpaceOnUse" x1="7.5503" y1="15.3398" x2="6.6474" y2="16.8881">
				<stop  offset="0" style="stop-color:#000000"/>
				<stop  offset="0.8392" style="stop-color:#534A36"/>
				<stop  offset="1" style="stop-color:#3E3728"/>
			</linearGradient>
			<path fill-rule="evenodd" clip-rule="evenodd" fill="url(#SVGID_8_)" d="M6.98,17.05l-0.8-0.5v-0.1c0.1-0.03,0.2-0.1,0.3-0.2
				c0.2-0.2,0.3-0.47,0.3-0.8c0-0.1-0.03-0.2-0.1-0.3V15.1c0.1,0,0.2,0,0.3,0c0.17,0,0.32,0.02,0.45,0.05
				c0.1,0.07,0.18,0.15,0.25,0.25c0.03,0.03,0.12,0.12,0.25,0.25c0,0.03,0,0.08,0,0.15c0.03,0.1,0.05,0.2,0.05,0.3
				c0,0.03,0,0.08,0,0.15c-0.03,0.2-0.13,0.37-0.3,0.5C7.48,16.95,7.24,17.05,6.98,17.05z"/>
			<linearGradient id="SVGID_9_" gradientUnits="userSpaceOnUse" x1="8.4956" y1="18.2021" x2="7.6253" y2="19.6799">
				<stop  offset="0" style="stop-color:#000000"/>
				<stop  offset="0.8392" style="stop-color:#534A36"/>
				<stop  offset="1" style="stop-color:#3E3728"/>
			</linearGradient>
			<path fill-rule="evenodd" clip-rule="evenodd" fill="url(#SVGID_9_)" d="M8.38,19.95L7.23,19.2c0.1-0.17,0.15-0.37,0.15-0.6
				c0-0.17,0-0.3,0-0.4c0.13-0.1,0.32-0.15,0.55-0.15c0.2,0,0.35,0.05,0.45,0.15c0.1,0,0.2,0.05,0.3,0.15c0.13,0.2,0.2,0.43,0.2,0.7
				c0,0.3-0.07,0.55-0.2,0.75C8.58,19.87,8.48,19.92,8.38,19.95z"/>
			
				<linearGradient id="SVGID_10_" gradientUnits="userSpaceOnUse" x1="48.125" y1="-199.6816" x2="49.84" y2="-199.6816" gradientTransform="matrix(0.5102 0.8601 -0.8708 0.4922 -184.4432 80.4702)">
				<stop  offset="0" style="stop-color:#000000"/>
				<stop  offset="0.8392" style="stop-color:#534A36"/>
				<stop  offset="1" style="stop-color:#3E3728"/>
			</linearGradient>
			<path fill-rule="evenodd" clip-rule="evenodd" fill="url(#SVGID_10_)" d="M14.38,23.55h-0.1l-1.65-1c0.2-0.2,0.45-0.3,0.75-0.3
				c0.17,0,0.32,0.02,0.45,0.05c0.1,0.07,0.18,0.15,0.25,0.25c0.2,0.2,0.3,0.43,0.3,0.7C14.38,23.35,14.38,23.45,14.38,23.55z"/>
			<linearGradient id="SVGID_11_" gradientUnits="userSpaceOnUse" x1="17.3003" y1="23.3252" x2="18.6003" y2="24.6252">
				<stop  offset="0" style="stop-color:#000000"/>
				<stop  offset="0.8392" style="stop-color:#534A36"/>
				<stop  offset="1" style="stop-color:#3E3728"/>
			</linearGradient>
			<path fill-rule="evenodd" clip-rule="evenodd" fill="url(#SVGID_11_)" d="M17.73,23.4l-1.85-0.65c0.07-0.03,0.12-0.08,0.15-0.15
				c0.1-0.1,0.2-0.15,0.3-0.15c0.1-0.1,0.23-0.15,0.4-0.15c0.03,0,0.05,0.03,0.05,0.1c0.17,0,0.3,0.02,0.4,0.05
				c0.1,0.07,0.18,0.12,0.25,0.15C17.63,22.8,17.73,23.07,17.73,23.4z"/>
			
				<linearGradient id="SVGID_12_" gradientUnits="userSpaceOnUse" x1="17.3843" y1="-253.9727" x2="19.2154" y2="-253.9727" gradientTransform="matrix(0.2457 0.9693 -0.9659 0.2595 -239.2112 70.6001)">
				<stop  offset="0" style="stop-color:#000000"/>
				<stop  offset="0.8392" style="stop-color:#534A36"/>
				<stop  offset="1" style="stop-color:#3E3728"/>
			</linearGradient>
			<path fill-rule="evenodd" clip-rule="evenodd" fill="url(#SVGID_12_)" d="M10.88,22.3c0-0.1,0-0.22,0-0.35
				c0-0.17-0.03-0.3-0.1-0.4c-0.03-0.1-0.1-0.23-0.2-0.4c-0.07-0.03-0.12-0.05-0.15-0.05c-0.1-0.07-0.18-0.12-0.25-0.15
				c-0.03,0-0.1,0-0.2,0c-0.07-0.07-0.12-0.1-0.15-0.1c-0.17,0-0.32,0.05-0.45,0.15c0.03-0.03,0.05-0.08,0.05-0.15
				c0.2-0.2,0.45-0.3,0.75-0.3c0.17,0,0.32,0.05,0.45,0.15l0.1,0.1c0.03,0,0.08,0.02,0.15,0.05c0.2,0.2,0.3,0.43,0.3,0.7
				c0,0.17-0.03,0.3-0.1,0.4C11.04,22.08,10.98,22.2,10.88,22.3z"/>
			<linearGradient id="SVGID_13_" gradientUnits="userSpaceOnUse" x1="20.0288" y1="8.4648" x2="21.6476" y2="6.8586">
				<stop  offset="0" style="stop-color:#000000"/>
				<stop  offset="0.8392" style="stop-color:#534A36"/>
				<stop  offset="1" style="stop-color:#3E3728"/>
			</linearGradient>
			<path fill-rule="evenodd" clip-rule="evenodd" fill="url(#SVGID_13_)" d="M20.67,7.35l-0.9-0.9c0.5,0.23,0.98,0.53,1.45,0.9
				l0.8,1.2c0,0.1-0.05,0.2-0.15,0.3s-0.17,0.18-0.2,0.25c-0.17,0.03-0.35,0.05-0.55,0.05S20.77,9.1,20.67,9
				c-0.1-0.03-0.2-0.1-0.3-0.2c-0.07-0.07-0.12-0.12-0.15-0.15c-0.07-0.17-0.1-0.32-0.1-0.45c0-0.17,0.03-0.33,0.1-0.5
				c0.03-0.1,0.1-0.17,0.2-0.2C20.49,7.4,20.58,7.35,20.67,7.35z"/>
			<linearGradient id="SVGID_14_" gradientUnits="userSpaceOnUse" x1="22.4531" y1="11.5142" x2="23.9269" y2="10.6371">
				<stop  offset="0" style="stop-color:#000000"/>
				<stop  offset="0.8392" style="stop-color:#534A36"/>
				<stop  offset="1" style="stop-color:#3E3728"/>
			</linearGradient>
			<path fill-rule="evenodd" clip-rule="evenodd" fill="url(#SVGID_14_)" d="M23.02,10.1l0.9,1.5l0.1,0.05
				c-0.2,0.23-0.43,0.35-0.7,0.35c-0.3,0-0.55-0.12-0.75-0.35l-0.1-0.05c0-0.07-0.02-0.1-0.05-0.1v-0.05c0-0.07-0.03-0.1-0.1-0.1
				c0-0.03,0-0.08,0-0.15c0-0.03,0-0.1,0-0.2v-0.1c0-0.23,0.08-0.43,0.25-0.6l0.1-0.05C22.81,10.15,22.92,10.1,23.02,10.1z"/>
			
				<linearGradient id="SVGID_15_" gradientUnits="userSpaceOnUse" x1="12.0737" y1="-266.0977" x2="13.42" y2="-266.0977" gradientTransform="matrix(0.26 0.9656 -0.9693 0.2464 -237.2835 68.4294)">
				<stop  offset="0" style="stop-color:#000000"/>
				<stop  offset="0.8392" style="stop-color:#534A36"/>
				<stop  offset="1" style="stop-color:#3E3728"/>
			</linearGradient>
			<path fill-rule="evenodd" clip-rule="evenodd" fill="url(#SVGID_15_)" d="M23.33,13.9l1.25,1.4c-0.13,0.07-0.27,0.1-0.4,0.1
				c-0.27,0-0.5-0.1-0.7-0.3c-0.1-0.1-0.15-0.2-0.15-0.3c-0.1-0.1-0.15-0.25-0.15-0.45C23.17,14.18,23.23,14.03,23.33,13.9z"/>
			<linearGradient id="SVGID_16_" gradientUnits="userSpaceOnUse" x1="23.2578" y1="18.1372" x2="23.8236" y2="20.3146">
				<stop  offset="0" style="stop-color:#000000"/>
				<stop  offset="0.8392" style="stop-color:#534A36"/>
				<stop  offset="1" style="stop-color:#3E3728"/>
			</linearGradient>
			<path fill-rule="evenodd" clip-rule="evenodd" fill="url(#SVGID_16_)" d="M22.83,17.3l0.9,1.3c-0.27-0.07-0.47-0.17-0.6-0.3
				c-0.1-0.1-0.18-0.2-0.25-0.3c-0.03-0.17-0.05-0.32-0.05-0.45C22.83,17.48,22.83,17.4,22.83,17.3z"/>
			<linearGradient id="SVGID_17_" gradientUnits="userSpaceOnUse" x1="20.165" y1="22.1108" x2="21.265" y2="23.2108">
				<stop  offset="0" style="stop-color:#000000"/>
				<stop  offset="0.8392" style="stop-color:#534A36"/>
				<stop  offset="1" style="stop-color:#3E3728"/>
			</linearGradient>
			<path fill-rule="evenodd" clip-rule="evenodd" fill="url(#SVGID_17_)" d="M20.58,22.1l-1.5-0.45c0.1-0.07,0.2-0.15,0.3-0.25
				c0.1,0,0.2,0,0.3,0c0.17,0,0.32,0.03,0.45,0.1c0.07,0.03,0.15,0.1,0.25,0.2C20.51,21.8,20.58,21.93,20.58,22.1z"/>
		</g>
	</g>
	<g>
		<path fill-rule="evenodd" clip-rule="evenodd" d="M18.67,17.9c-0.9,0.9-1.98,1.35-3.25,1.35c-1.3,0-2.42-0.45-3.35-1.35
			c-0.87-0.9-1.3-1.98-1.3-3.25s0.43-2.37,1.3-3.3c0.93-0.9,2.05-1.35,3.35-1.35c1.27,0,2.35,0.45,3.25,1.35
			c0.93,0.93,1.4,2.03,1.4,3.3S19.61,17,18.67,17.9z"/>
	</g>
	<g>
		
			<radialGradient id="SVGID_18_" cx="13.5249" cy="17.1499" r="5.5103" gradientTransform="matrix(0.8663 0.4995 -0.7864 1.3638 15.2955 -12.9952)" gradientUnits="userSpaceOnUse">
			<stop  offset="0" style="stop-color:#565447"/>
			<stop  offset="0.3373" style="stop-color:#0C0C0C"/>
			<stop  offset="1" style="stop-color:#0B0B0B"/>
		</radialGradient>
		<path fill-rule="evenodd" clip-rule="evenodd" fill="url(#SVGID_18_)" d="M19.23,12.9c0.27,0.5,0.4,1.05,0.4,1.65
			c0,1.17-0.43,2.18-1.3,3.05c-0.8,0.8-1.78,1.2-2.95,1.2c-1.23,0-2.25-0.4-3.05-1.2c-0.83-0.87-1.25-1.88-1.25-3.05V14.5l5.1,0.35
			l-4.45-2.55c0.2-0.27,0.4-0.5,0.6-0.7c0.8-0.87,1.82-1.3,3.05-1.3c1.1,0,2.05,0.4,2.85,1.2l-0.65,0.7l-0.4,0.4l-1,2.25
			c0.93-0.33,1.5-0.53,1.7-0.6l0.2-0.9L19.23,12.9z"/>
		<linearGradient id="SVGID_19_" gradientUnits="userSpaceOnUse" x1="12.5342" y1="17.1982" x2="16.0206" y2="7.7932">
			<stop  offset="0" style="stop-color:#000000"/>
			<stop  offset="0.1647" style="stop-color:#000000"/>
			<stop  offset="0.3373" style="stop-color:#616161"/>
			<stop  offset="0.4745" style="stop-color:#0B0B0B"/>
			<stop  offset="0.6471" style="stop-color:#000000"/>
			<stop  offset="1" style="stop-color:#000000"/>
		</linearGradient>
		<path fill-rule="evenodd" clip-rule="evenodd" fill="url(#SVGID_19_)" d="M11.73,12.3l4.45,2.55l-5.1-0.35c0-0.2,0-0.4,0-0.6
			C11.17,13.27,11.39,12.73,11.73,12.3z"/>
		<path fill-rule="evenodd" clip-rule="evenodd" fill="#0B0B0B" d="M17.58,12.2c0.1,0.07,0.2,0.15,0.3,0.25
			c0.2,0.2,0.3,0.42,0.3,0.65c0,0.07-0.03,0.15-0.1,0.25l-0.2,0.9c-0.1-0.5-0.15-0.78-0.15-0.85c0-0.23-0.08-0.43-0.25-0.6
			c-0.1-0.1-0.2-0.17-0.3-0.2L17.58,12.2z"/>
		<linearGradient id="SVGID_20_" gradientUnits="userSpaceOnUse" x1="16.9604" y1="12.8364" x2="18.4046" y2="14.6162">
			<stop  offset="0" style="stop-color:#000000"/>
			<stop  offset="0.1608" style="stop-color:#0B0B0B"/>
			<stop  offset="0.3373" style="stop-color:#616161"/>
			<stop  offset="0.5529" style="stop-color:#0B0B0B"/>
			<stop  offset="0.6471" style="stop-color:#000000"/>
			<stop  offset="1" style="stop-color:#000000"/>
		</linearGradient>
		<path fill-rule="evenodd" clip-rule="evenodd" fill="url(#SVGID_20_)" d="M18.23,11.5c0.07,0,0.1,0.03,0.1,0.1
			c0.4,0.37,0.7,0.8,0.9,1.3l-1.15,0.45c0.07-0.1,0.1-0.18,0.1-0.25c0-0.23-0.1-0.45-0.3-0.65c-0.1-0.1-0.2-0.18-0.3-0.25
			L18.23,11.5z M17.88,14.25c-0.2,0.07-0.77,0.27-1.7,0.6l1-2.25c0.1,0.03,0.2,0.1,0.3,0.2c0.17,0.17,0.25,0.37,0.25,0.6
			C17.73,13.47,17.77,13.75,17.88,14.25z"/>
	</g>
	
		<use xlink:href="#glace"  width="14.15" height="5.05" x="-7.1" y="-2.5" transform="matrix(0.4065 0.109 0.1453 -0.5421 13.4751 14.3999)" overflow="visible"/>
	
		<use xlink:href="#glace"  width="14.15" height="5.05" x="-7.1" y="-2.5" transform="matrix(0.4578 -0.7763 -0.7943 -0.4239 6.0249 9.7002)" overflow="visible"/>
</g>
</svg>
