<?xml version="1.0" encoding="utf-8"?>
<!-- Generator: Adobe Illustrator 16.0.0, SVG Export Plug-In . SVG Version: 6.00 Build 0)  -->
<!DOCTYPE svg PUBLIC "-//W3C//DTD SVG 1.1//EN" "http://www.w3.org/Graphics/SVG/1.1/DTD/svg11.dtd">
<svg version="1.1" id="Layer_1" xmlns="http://www.w3.org/2000/svg" xmlns:xlink="http://www.w3.org/1999/xlink" x="0px" y="0px"
	 width="20.13px" height="42.25px" viewBox="0 0 20.13 42.25" enable-background="new 0 0 20.13 42.25" xml:space="preserve">
<g id="Layer_1_1_">
	<g>
		<g>
			<path fill-opacity="0.4902" d="M19.28,32.17c0,2.53-0.88,4.68-2.65,6.45c-1.83,1.77-4.02,2.65-6.55,2.65
				c-2.47,0-4.6-0.88-6.4-2.65c-1.77-1.77-2.65-3.92-2.65-6.45c0-0.97,0.15-1.88,0.45-2.75c0.4-1.37,1.13-2.58,2.2-3.65
				c1.8-1.77,3.93-2.65,6.4-2.65c2.53,0,4.72,0.88,6.55,2.65c1.17,1.17,1.95,2.48,2.35,3.95C19.17,30.49,19.28,31.31,19.28,32.17z
				 M8.63,26.33c0.27-0.9,0-1.42-0.8-1.55c-0.73,0.27-1.3,0.6-1.7,1c0.4,1.07,1.23,1.27,2.5,0.6V26.33z M15.63,28.28
				c0.7,1.23,1,1.35,0.9,0.35c-0.13-1.07-1.35-2.27-3.65-3.6l-0.15,0.1C13.96,26.03,14.92,27.08,15.63,28.28z"/>
		</g>
		<g>
			
				<linearGradient id="SVGID_1_" gradientUnits="userSpaceOnUse" x1="162.3467" y1="-100.0024" x2="176.4962" y2="-99.6254" gradientTransform="matrix(1 0 0 -1 -160.5 -86.7246)">
				<stop  offset="0" style="stop-color:#121212"/>
				<stop  offset="0.4627" style="stop-color:#6F6F6F"/>
				<stop  offset="0.5843" style="stop-color:#FFFFFF"/>
				<stop  offset="0.7255" style="stop-color:#484848"/>
				<stop  offset="1" style="stop-color:#000000"/>
				<stop  offset="1" style="stop-color:#111111"/>
				<stop  offset="1" style="stop-color:#1E1E1E"/>
			</linearGradient>
			<path fill="url(#SVGID_1_)" d="M18.97,25.03c-0.4-1.47-1.18-2.78-2.35-3.95c-1.83-1.77-4.02-2.65-6.55-2.65
				c-2.47,0-4.6,0.88-6.4,2.65c-1.07,1.07-1.8,2.28-2.2,3.65L4.92,3.67c0.2-0.5,0.52-0.98,0.95-1.45c1.07-0.9,2.23-1.35,3.5-1.35
				c1.03,0,2,0.3,2.9,0.9c0.1,0.1,0.23,0.17,0.4,0.2c0.33,0.37,0.67,0.8,1,1.3c0.1,0.1,0.17,0.23,0.2,0.4
				c0.1,0.13,0.2,0.28,0.3,0.45L18.97,25.03z"/>
			
				<radialGradient id="SVGID_2_" cx="169.0762" cy="-111.6006" r="10.1997" gradientTransform="matrix(1 0 0 -1 -160.5 -86.7246)" gradientUnits="userSpaceOnUse">
				<stop  offset="0" style="stop-color:#FFFFFF"/>
				<stop  offset="0.4275" style="stop-color:#737373"/>
				<stop  offset="0.6275" style="stop-color:#6F6F6F"/>
				<stop  offset="1" style="stop-color:#404040"/>
				<stop  offset="1" style="stop-color:#2F2F2F"/>
				<stop  offset="1" style="stop-color:#2F2F2F"/>
			</radialGradient>
			<path fill="url(#SVGID_2_)" d="M1.48,24.72c0.4-1.37,1.13-2.58,2.2-3.65c1.8-1.77,3.93-2.65,6.4-2.65c2.53,0,4.72,0.88,6.55,2.65
				c1.17,1.17,1.95,2.48,2.35,3.95c0.2,0.77,0.3,1.58,0.3,2.45c0,2.53-0.88,4.68-2.65,6.45c-1.83,1.77-4.02,2.65-6.55,2.65
				c-2.47,0-4.6-0.88-6.4-2.65c-1.77-1.77-2.65-3.92-2.65-6.45C1.02,26.51,1.17,25.59,1.48,24.72z"/>
		</g>
	</g>
</g>
<g id="Layer_2">
	
		<radialGradient id="SVGID_3_" cx="168.9902" cy="-107.8887" r="1.962" gradientTransform="matrix(1 0 0 -1 -160.5 -86.7246)" gradientUnits="userSpaceOnUse">
		<stop  offset="0" style="stop-color:#FFFFFF"/>
		<stop  offset="1" style="stop-color:#FFFFFF;stop-opacity:0"/>
	</radialGradient>
	<circle fill="url(#SVGID_3_)" cx="8.79" cy="21.67" r="1.75"/>
	
		<linearGradient id="SVGID_4_" gradientUnits="userSpaceOnUse" x1="171.3867" y1="-105.0234" x2="176.6599" y2="-111.0186" gradientTransform="matrix(1 0 0 -1 -160.5 -86.7246)">
		<stop  offset="0" style="stop-color:#FFFFFF"/>
		<stop  offset="1" style="stop-color:#FFFFFF;stop-opacity:0"/>
	</linearGradient>
	<path fill="url(#SVGID_4_)" d="M12.21,20.31c0,0-1.79,0.77,1.42,2.11c2.6,1.08,2.92,3.04,3.25,4.12s-0.1-3.39-1.38-4.91
		C13.67,19.44,12.21,20.31,12.21,20.31z"/>
</g>
</svg>
