<?xml version="1.0" encoding="utf-8"?>
<!-- Generator: Adobe Illustrator 16.0.0, SVG Export Plug-In . SVG Version: 6.00 Build 0)  -->
<!DOCTYPE svg PUBLIC "-//W3C//DTD SVG 1.1//EN" "http://www.w3.org/Graphics/SVG/1.1/DTD/svg11.dtd">
<svg version="1.1" id="Layer_1" xmlns="http://www.w3.org/2000/svg" xmlns:xlink="http://www.w3.org/1999/xlink" x="0px" y="0px"
	 width="22.44px" height="19.56px" viewBox="0 0 22.44 19.56" enable-background="new 0 0 22.44 19.56" xml:space="preserve">
<g>
	
		<linearGradient id="SVGID_1_" gradientUnits="userSpaceOnUse" x1="-552.4131" y1="39.5137" x2="-552.3753" y2="217.4137" gradientTransform="matrix(0.106 0 0 0.106 69.7106 -3.8307)">
		<stop  offset="0" style="stop-color:#F8B300"/>
		<stop  offset="1" style="stop-color:#DB8700"/>
	</linearGradient>
	<path fill-rule="evenodd" clip-rule="evenodd" fill="url(#SVGID_1_)" d="M10.44,0.83c0.21-0.24,0.45-0.36,0.74-0.36
		c0.28,0,0.53,0.12,0.74,0.36c0.03,0.04,0.07,0.09,0.11,0.15l0.03,0.06l0.92,1.5l8.85,14.69l0.06,0.13
		c0.09,0.18,0.13,0.37,0.13,0.58c0,0.31-0.1,0.59-0.31,0.82c-0.15,0.17-0.34,0.28-0.57,0.33H1.34c-0.27-0.01-0.51-0.13-0.7-0.34
		c-0.21-0.23-0.31-0.5-0.31-0.82c0-0.17,0.03-0.33,0.1-0.49l0.16-0.26L9.37,2.55l0.92-1.49L10.32,1c0.01-0.02,0.02-0.04,0.03-0.05
		C10.38,0.9,10.41,0.87,10.44,0.83z"/>
	
		<linearGradient id="SVGID_2_" gradientUnits="userSpaceOnUse" x1="-552.4131" y1="39.5137" x2="-552.3753" y2="217.4137" gradientTransform="matrix(0.106 0 0 0.106 69.7106 -3.8307)">
		<stop  offset="0" style="stop-color:#F8B300"/>
		<stop  offset="1" style="stop-color:#DB8700"/>
	</linearGradient>
	<path fill-rule="evenodd" clip-rule="evenodd" fill="url(#SVGID_2_)" d="M10.44,0.83c0.21-0.24,0.45-0.36,0.74-0.36
		c0.28,0,0.53,0.12,0.74,0.36c0.03,0.04,0.07,0.09,0.11,0.15l0.03,0.06l0.92,1.5l8.85,14.69l0.06,0.13
		c0.09,0.18,0.13,0.37,0.13,0.58c0,0.31-0.1,0.59-0.31,0.82c-0.15,0.17-0.34,0.28-0.57,0.33H1.34c-0.27-0.01-0.51-0.13-0.7-0.34
		c-0.21-0.23-0.31-0.5-0.31-0.82c0-0.17,0.03-0.33,0.1-0.49l0.16-0.26L9.37,2.55l0.92-1.49L10.32,1c0.01-0.02,0.02-0.04,0.03-0.05
		C10.38,0.9,10.41,0.87,10.44,0.83z"/>
	
		<linearGradient id="SVGID_3_" gradientUnits="userSpaceOnUse" x1="-491.5376" y1="-38.0879" x2="-491.4998" y2="139.8121" gradientTransform="matrix(0.1015 0 0 0.1015 61.1361 4.9511)">
		<stop  offset="0" style="stop-color:#FFFFFF"/>
		<stop  offset="0.6" style="stop-color:#FEF3E0;stop-opacity:0"/>
		<stop  offset="1" style="stop-color:#FFF5E5;stop-opacity:0"/>
	</linearGradient>
	<path fill-rule="evenodd" clip-rule="evenodd" fill="url(#SVGID_3_)" d="M18.77,12.81h-0.34l-5.68-9.43l-0.76-1.24l-0.03-0.05
		C11.92,2.04,11.89,2,11.87,1.96c-0.17-0.2-0.37-0.3-0.6-0.3c-0.24,0-0.44,0.1-0.61,0.3c-0.02,0.03-0.04,0.06-0.07,0.1
		c-0.01,0.01-0.02,0.02-0.03,0.04l-0.03,0.05L9.78,3.38l-5.66,9.43H3.74l5.78-9.62l0.88-1.43l0.03-0.06
		c0.01-0.02,0.02-0.04,0.03-0.04c0.03-0.04,0.06-0.08,0.08-0.11c0.2-0.23,0.43-0.34,0.71-0.34c0.27,0,0.51,0.12,0.71,0.34
		c0.03,0.04,0.07,0.09,0.11,0.14l0.03,0.06l0.88,1.44L18.77,12.81z"/>
	
		<linearGradient id="SVGID_4_" gradientUnits="userSpaceOnUse" x1="-491.5376" y1="-38.0879" x2="-491.4998" y2="139.8121" gradientTransform="matrix(0.1015 0 0 0.1015 61.1361 4.9511)">
		<stop  offset="0" style="stop-color:#FFFFFF"/>
		<stop  offset="0.6" style="stop-color:#FEF3E0;stop-opacity:0"/>
		<stop  offset="1" style="stop-color:#FFF5E5;stop-opacity:0"/>
	</linearGradient>
	<path fill-rule="evenodd" clip-rule="evenodd" fill="url(#SVGID_4_)" d="M18.77,12.81h-0.34l-5.68-9.43l-0.76-1.24l-0.03-0.05
		C11.92,2.04,11.89,2,11.87,1.96c-0.17-0.2-0.37-0.3-0.6-0.3c-0.24,0-0.44,0.1-0.61,0.3c-0.02,0.03-0.04,0.06-0.07,0.1
		c-0.01,0.01-0.02,0.02-0.03,0.04l-0.03,0.05L9.78,3.38l-5.66,9.43H3.74l5.78-9.62l0.88-1.43l0.03-0.06
		c0.01-0.02,0.02-0.04,0.03-0.04c0.03-0.04,0.06-0.08,0.08-0.11c0.2-0.23,0.43-0.34,0.71-0.34c0.27,0,0.51,0.12,0.71,0.34
		c0.03,0.04,0.07,0.09,0.11,0.14l0.03,0.06l0.88,1.44L18.77,12.81z"/>
	<g>
		<path fill-rule="evenodd" clip-rule="evenodd" fill="#EEB248" d="M12.09,14.9c0.24,0.24,0.36,0.53,0.36,0.87s-0.12,0.63-0.36,0.87
			C11.85,16.88,11.56,17,11.23,17s-0.63-0.12-0.87-0.36C10.12,16.4,10,16.11,10,15.77s0.12-0.63,0.36-0.87
			c0.24-0.24,0.53-0.36,0.87-0.36S11.85,14.66,12.09,14.9z"/>
		<path fill-rule="evenodd" clip-rule="evenodd" fill="#EEB248" d="M12.09,14.9c0.24,0.24,0.36,0.53,0.36,0.87s-0.12,0.63-0.36,0.87
			C11.85,16.88,11.56,17,11.23,17s-0.63-0.12-0.87-0.36C10.12,16.4,10,16.11,10,15.77s0.12-0.63,0.36-0.87
			c0.24-0.24,0.53-0.36,0.87-0.36S11.85,14.66,12.09,14.9z"/>
		<path fill-rule="evenodd" clip-rule="evenodd" fill="#820B03" d="M12.09,14.55c0.24,0.24,0.36,0.53,0.36,0.87
			c0,0.34-0.12,0.63-0.36,0.86c-0.24,0.24-0.53,0.36-0.87,0.36s-0.63-0.12-0.87-0.36C10.12,16.05,10,15.76,10,15.42
			c0-0.34,0.12-0.63,0.36-0.87c0.24-0.24,0.53-0.36,0.87-0.36S11.85,14.31,12.09,14.55z"/>
		<path fill-rule="evenodd" clip-rule="evenodd" fill="#820B03" d="M12.09,14.55c0.24,0.24,0.36,0.53,0.36,0.87
			c0,0.34-0.12,0.63-0.36,0.86c-0.24,0.24-0.53,0.36-0.87,0.36s-0.63-0.12-0.87-0.36C10.12,16.05,10,15.76,10,15.42
			c0-0.34,0.12-0.63,0.36-0.87c0.24-0.24,0.53-0.36,0.87-0.36S11.85,14.31,12.09,14.55z"/>
	</g>
	<g>
		<path fill-rule="evenodd" clip-rule="evenodd" fill="#FFBF3C" d="M11.3,4.98c0.34,0,0.64,0.11,0.88,0.34
			c0.23,0.22,0.33,0.49,0.32,0.79l-0.36,6.15c-0.01,0.15-0.1,0.28-0.27,0.39c-0.17,0.1-0.37,0.15-0.6,0.16
			c-0.23,0-0.43-0.06-0.6-0.16c-0.17-0.11-0.26-0.24-0.27-0.39l-0.3-6.15c-0.02-0.3,0.09-0.56,0.33-0.79
			C10.66,5.09,10.95,4.98,11.3,4.98z"/>
		<path fill-rule="evenodd" clip-rule="evenodd" fill="#FFBF3C" d="M11.3,4.98c0.34,0,0.64,0.11,0.88,0.34
			c0.23,0.22,0.33,0.49,0.32,0.79l-0.36,6.15c-0.01,0.15-0.1,0.28-0.27,0.39c-0.17,0.1-0.37,0.15-0.6,0.16
			c-0.23,0-0.43-0.06-0.6-0.16c-0.17-0.11-0.26-0.24-0.27-0.39l-0.3-6.15c-0.02-0.3,0.09-0.56,0.33-0.79
			C10.66,5.09,10.95,4.98,11.3,4.98z"/>
		<path fill-rule="evenodd" clip-rule="evenodd" fill="#820B03" d="M11.25,4.58c0.32,0,0.59,0.11,0.81,0.34
			c0.21,0.22,0.31,0.49,0.29,0.79l-0.33,6.15c-0.01,0.15-0.09,0.28-0.25,0.39c-0.16,0.1-0.34,0.16-0.55,0.16
			c-0.22,0-0.4-0.06-0.55-0.16c-0.16-0.11-0.24-0.24-0.25-0.39L10.14,5.7c-0.02-0.3,0.09-0.56,0.3-0.79
			C10.66,4.69,10.93,4.58,11.25,4.58z"/>
		<path fill-rule="evenodd" clip-rule="evenodd" fill="#820B03" d="M11.25,4.58c0.32,0,0.59,0.11,0.81,0.34
			c0.21,0.22,0.31,0.49,0.29,0.79l-0.33,6.15c-0.01,0.15-0.09,0.28-0.25,0.39c-0.16,0.1-0.34,0.16-0.55,0.16
			c-0.22,0-0.4-0.06-0.55-0.16c-0.16-0.11-0.24-0.24-0.25-0.39L10.14,5.7c-0.02-0.3,0.09-0.56,0.3-0.79
			C10.66,4.69,10.93,4.58,11.25,4.58z"/>
	</g>
</g>
</svg>
