<?xml version="1.0" encoding="utf-8"?>
<!-- Generator: Adobe Illustrator 16.0.0, SVG Export Plug-In . SVG Version: 6.00 Build 0)  -->
<!DOCTYPE svg PUBLIC "-//W3C//DTD SVG 1.1//EN" "http://www.w3.org/Graphics/SVG/1.1/DTD/svg11.dtd">
<svg version="1.1" id="Layer_1" xmlns="http://www.w3.org/2000/svg" xmlns:xlink="http://www.w3.org/1999/xlink" x="0px" y="0px"
	 width="460.667px" height="107.333px" viewBox="0 0 460.667 107.333" enable-background="new 0 0 460.667 107.333"
	 xml:space="preserve">
<g>
	<linearGradient id="SVGID_1_" gradientUnits="userSpaceOnUse" x1="-162.8623" y1="75.2158" x2="66.2628" y2="75.2158">
		<stop  offset="0" style="stop-color:#797A76"/>
		<stop  offset="1" style="stop-color:#181412"/>
	</linearGradient>
	<path fill-rule="evenodd" clip-rule="evenodd" fill="url(#SVGID_1_)" d="M39.45,75.066c0.2,0.067,0.45,0.117,0.75,0.15
		c0.133,0,0.267,0,0.4,0c0.433,0,0.833-0.05,1.2-0.15h0.25c-0.433,0.2-0.917,0.3-1.45,0.3c-0.133,0-0.267,0-0.4,0
		c-0.367-0.067-0.7-0.167-1-0.3H39.45z"/>
	
		<radialGradient id="SVGID_2_" cx="40" cy="71.6162" r="1.7" gradientTransform="matrix(1 0 0 2.5588 0 -111.6368)" gradientUnits="userSpaceOnUse">
		<stop  offset="0" style="stop-color:#5A5A57"/>
		<stop  offset="0.2392" style="stop-color:#302D2B"/>
		<stop  offset="1" style="stop-color:#181412"/>
	</radialGradient>
	<path fill-rule="evenodd" clip-rule="evenodd" fill="url(#SVGID_2_)" d="M41.8,75.066c-0.367,0.1-0.767,0.15-1.2,0.15
		c-0.133,0-0.267,0-0.4,0c-0.3-0.033-0.55-0.083-0.75-0.15H41.8z"/>
	<g>
		<path fill-rule="evenodd" clip-rule="evenodd" fill-opacity="0.251" d="M102.3,57.166h0.9c-0.034,0.267-0.184,0.483-0.45,0.65
			c-0.233,0.2-0.467,0.4-0.7,0.6c-0.466,1.133-1.2,2.033-2.2,2.7c-0.434,0.3-0.85,0.6-1.25,0.9c-0.033,0.033-0.083,0.083-0.15,0.15
			c0,0.033-0.017,0.066-0.05,0.1c-0.033,0.133-0.1,0.25-0.2,0.35c-0.833,0.433-1.667,0.383-2.5-0.15c-0.4,0-0.784-0.066-1.15-0.2
			c-0.1-0.034-0.167-0.067-0.2-0.1c-0.033-0.066-0.067-0.117-0.1-0.15c-0.067-0.067-0.117-0.133-0.15-0.2
			c-0.067-0.033-0.15-0.066-0.25-0.1c-0.033-0.033-0.1-0.083-0.2-0.15c-0.033-0.1-0.066-0.2-0.1-0.3
			c-0.033-0.2-0.05-0.417-0.05-0.65c0-0.034,0-0.067,0-0.1c0.167-0.267,0.25-0.567,0.25-0.9c0-0.134,0-0.25,0-0.35
			c0-0.167,0.017-0.35,0.05-0.55c0.067-0.2,0.217-0.333,0.45-0.4c0.167-0.1,0.333-0.233,0.5-0.4c1.433-0.6,2.867-0.816,4.3-0.65
			c0.833-0.167,1.667-0.434,2.5-0.8c0.133,0,0.233-0.033,0.3-0.1c0.133,0,0.267-0.034,0.4-0.1c0.033,0,0.1,0,0.2,0
			c0.133,0.066,0.233,0.1,0.3,0.1c0.133,0.1,0.233,0.2,0.3,0.3c0.067,0.066,0.117,0.167,0.15,0.3c0,0.1,0,0.167,0,0.2H102.3z"/>
		
			<path fill-rule="evenodd" clip-rule="evenodd" fill="none" stroke="#000000" stroke-width="0.75" stroke-linecap="round" stroke-linejoin="round" stroke-miterlimit="3" stroke-opacity="0.2471" d="
			M93.75,59.266H79.1c-0.6-0.1-1.533,0.15-2.8,0.75c-1.2,0.533-1.983,1.033-2.35,1.5 M103.2,57.166l5.6,2.2
			c3.867,0.933,9.467,1.816,16.8,2.65c0.733,0.1,1.417,0.183,2.05,0.25c5.8,0.667,9.767,1.15,11.9,1.45 M93.55,61.266
			c-0.833,0.3-1.6,0.633-2.3,1c-2.1,1.2-5.917,3.667-11.45,7.4c-3.966,2.633-11.25,4.5-21.85,5.6c-9.4,0.933-14.85,2.617-16.35,5.05
			 M99.85,61.116c0.267,0.2,0.517,0.417,0.75,0.65c0.6,0.6,1.566,1.65,2.9,3.15c2.9,2.5,4.383,3.783,4.45,3.85
			c1.7,2.367,2.233,5.633,1.6,9.8 M102.3,57.166h0.9 M171.05,81.216l16-2.3c3.6-0.033,8.517-0.934,14.75-2.7
			c0.133-0.033,0.284-0.066,0.45-0.1c1.9-0.3,3.767-0.917,5.6-1.85c3.033-1.467,4.55-3.167,4.55-5.1c0-1.133,2.05-2.15,6.15-3.05
			c4.9-1.1,8.367-2.7,10.4-4.8c3.4-3.533,5.583-6.267,6.55-8.2c1.033-2.067,1.55-4.884,1.55-8.45c0-1.467-0.133-2.717-0.4-3.75
			c-0.267-1-0.4-1.934-0.4-2.8c0-3.134,0.533-6.617,1.6-10.45c1.433-5.333,3.367-8,5.8-8"/>
	</g>
	<g>
		
			<path fill-rule="evenodd" clip-rule="evenodd" fill="none" stroke="#4C4E50" stroke-width="0.75" stroke-linecap="round" stroke-linejoin="round" stroke-miterlimit="3" d="
			M110.65,9.366c0.833-2.434,2.85-3.583,6.05-3.45c3.167,0.033,6.283,1.083,9.35,3.15c3.034,2,6.534,3.233,10.5,3.7
			c4.8,0.8,8.434,2.383,10.9,4.75c2.433,2.333,6.767,3.267,13,2.8c3.033-0.267,5.583,0.483,7.65,2.25c4.133,4.833,8.133,7.167,12,7
			c5.633-1.167,10.05-0.283,13.25,2.65c1.133,2.2,1.85,4.517,2.15,6.95c-0.6,6.5,2.15,7.184,8.25,2.05
			c5.233-3.1,11.283-3.167,18.15-0.2c6.833,2.933,10.8-2.434,11.9-16.1c0.967-8.267,5.267-10.733,12.9-7.4 M72.6,61.066
			c3.533-1.933,5.983-4.767,7.35-8.5c1.1-2.966,4.216-5.1,9.35-6.4c2.8-0.667,6.45-2.7,10.95-6.1c4.7-3.6,7.05-6.3,7.05-8.1
			c0-0.466-0.316-1.15-0.95-2.05s-0.95-1.983-0.95-3.25c-11.3,7.733-19.8,11.816-25.5,12.25c-1.433,0.133-3.233,0.2-5.4,0.2
			c-1.667,0.133-3.05,0.7-4.15,1.7c-0.8,0.767-2.217,2.467-4.25,5.1c-1.533,2-3.483,3.767-5.85,5.3c-0.733,0.5-1.217,1.534-1.45,3.1
			c-0.267,1.7-0.633,2.8-1.1,3.3c-0.4,0.4-1.317,1.116-2.75,2.15c-1.233,1.033-2,2-2.3,2.9c0.833,2.934-0.033,5.583-2.6,7.95
			c-0.133,0.133-0.267,0.25-0.4,0.35c-1.533,1.4-4.117,3.467-7.75,6.2 M104.45,26.566h0.95c0,0.034,0,0.067,0,0.1
			c0.2-0.167,0.434-0.367,0.7-0.6c-0.367-0.1-0.7-0.15-1-0.15 M107.6,78.116c5.733-5.667,8.733-8.667,9-9
			c1.467-1.967,2.2-4.65,2.2-8.05c0-3.233,0.95-6.667,2.85-10.3c1.867-3.6,0.983-6.05-2.65-7.35c-3.7-1.3-6.617-4.3-8.75-9
			c-2.133-4.667-3.517-7.45-4.15-8.35"/>
	</g>
	<g>
		
			<path fill-rule="evenodd" clip-rule="evenodd" fill="none" stroke="#000000" stroke-width="0.75" stroke-linecap="round" stroke-linejoin="round" stroke-miterlimit="3" d="
			M110.65,9.366c0.867-2.567,2.8-4.05,5.8-4.45c3-0.467,6.667,1,11,4.4c1.966,1.934,5,3.083,9.1,3.45c4.8,0.767,8.6,2.033,11.4,3.8
			c2.833,1.733,7.05,2.617,12.65,2.65c4.1-0.133,7.433,1.083,10,3.65c2.467,2.966,5.633,4.417,9.5,4.35
			c5.633,0.4,9.483,2.184,11.55,5.35c2.267,1.967,3.55,4.167,3.85,6.6c-0.4,5.333,2.35,5.417,8.25,0.25
			c5.1-2.733,11.05-2.733,17.85,0c6.733,2.7,10.533-2.833,11.4-16.6c1.5-6.867,7.433-8.316,17.8-4.35 M72.6,61.066
			c2.333-2.3,4.417-5.05,6.25-8.25c1.8-3.2,4.6-5.517,8.4-6.95c3.767-1.467,8.033-3.7,12.8-6.7c4.7-3.033,6.85-5.2,6.45-6.5
			c-0.433-1.3-0.717-2.316-0.85-3.05c-0.133-0.7-0.217-1.684-0.25-2.95c-10.167,6.533-17.133,10.066-20.9,10.6
			c-3.767,0.5-6.8,0.966-9.1,1.4c-2.267,0.434-4.05,1.017-5.35,1.75c-1.333,0.733-2.883,2.367-4.65,4.9
			c-1.833,2.5-3.483,4.034-4.95,4.6c-1.5,0.533-2.333,1.75-2.5,3.65c-0.233,1.867-0.767,2.983-1.6,3.35
			c-0.867,0.367-1.617,1.2-2.25,2.5c-0.667,1.267-1.15,2.35-1.45,3.25c-0.267,3.367-1.133,5.883-2.6,7.55
			c-0.133,0.1-0.267,0.233-0.4,0.4c-1.533,1.6-4.117,3.783-7.75,6.55 M107.6,78.116c4.4-5.667,7.183-9.067,8.35-10.2
			c1.167-1.167,1.75-3.4,1.75-6.7c0-3.333,0.883-6.816,2.65-10.45c1.767-3.6,0.833-6.05-2.8-7.35c-3.733-1.3-6.417-4.3-8.05-9
			c-1.633-4.667-2.767-7.45-3.4-8.35c-0.267,0.233-0.5,0.434-0.7,0.6 M106.1,26.066c-0.367-0.1-0.7-0.15-1-0.15 M104.45,26.566h0.95
			c0,0.034,0,0.067,0,0.1"/>
	</g>
	<g>
		<g>
			<path fill-rule="evenodd" clip-rule="evenodd" d="M250.55,16.266c0.967,0.933,1.45,1.983,1.45,3.15c0,1.267-0.483,2.333-1.45,3.2
				c-0.9,0.933-1.95,1.4-3.15,1.4c-1.267,0-2.367-0.467-3.3-1.4c-0.9-0.867-1.35-1.934-1.35-3.2c0-1.167,0.45-2.217,1.35-3.15
				c0.933-0.9,2.033-1.35,3.3-1.35C248.6,14.916,249.65,15.366,250.55,16.266z"/>
		</g>
		<g>
			<linearGradient id="SVGID_3_" gradientUnits="userSpaceOnUse" x1="242.5625" y1="23.916" x2="252.3375" y2="23.916">
				<stop  offset="0" style="stop-color:#65624B"/>
				<stop  offset="0.5098" style="stop-color:#8F8B6B"/>
				<stop  offset="1" style="stop-color:#0F0E0B"/>
				<stop  offset="1" style="stop-color:#434132"/>
			</linearGradient>
			<path fill-rule="evenodd" clip-rule="evenodd" fill="url(#SVGID_3_)" d="M251.15,20.716c0.133,0.2,0.283,0.4,0.449,0.6
				c0.334,0.534,0.567,1.133,0.7,1.8l-0.05,4.5c-0.134-0.434-0.3-0.833-0.5-1.2c-0.267-0.367-0.55-0.7-0.85-1
				c-0.967-0.934-2.117-1.4-3.45-1.4c-1.367,0-2.534,0.466-3.5,1.4c-0.267,0.3-0.517,0.633-0.75,1c-0.367,0.667-0.567,1.434-0.6,2.3
				l0.05-5.5c0.133-0.933,0.517-1.767,1.15-2.5c0.034-0.066,0.083-0.15,0.15-0.25c0.966-0.9,2.133-1.35,3.5-1.35
				c1.333,0,2.483,0.45,3.45,1.35C251,20.566,251.083,20.649,251.15,20.716z"/>
			<linearGradient id="SVGID_4_" gradientUnits="userSpaceOnUse" x1="243.6626" y1="18.416" x2="251.2376" y2="18.416">
				<stop  offset="0" style="stop-color:#353228"/>
				<stop  offset="0.5098" style="stop-color:#434034"/>
				<stop  offset="1" style="stop-color:#000000"/>
				<stop  offset="1" style="stop-color:#434132"/>
			</linearGradient>
			<path fill-rule="evenodd" clip-rule="evenodd" fill="url(#SVGID_4_)" d="M243.8,20.716c-0.1-0.267-0.15-0.55-0.15-0.85
				c0-1.067,0.367-1.983,1.1-2.75c0.733-0.667,1.633-1,2.7-1c1,0,1.883,0.333,2.649,1c0.601,0.6,0.95,1.3,1.051,2.1v0.05
				c0,0.066,0.033,0.117,0.1,0.15c0,0.133,0,0.283,0,0.45c0,0.3-0.033,0.583-0.1,0.85c-0.067-0.066-0.15-0.15-0.25-0.25
				c-0.967-0.9-2.117-1.35-3.45-1.35c-1.367,0-2.534,0.45-3.5,1.35C243.883,20.566,243.833,20.649,243.8,20.716z"/>
			<path fill-rule="evenodd" clip-rule="evenodd" fill="#918D6C" d="M252.25,27.616c0.066,0.366,0.1,0.783,0.1,1.25
				c0,0.6-0.083,1.167-0.25,1.7c-0.233,0.633-0.633,1.217-1.199,1.75c-0.967,0.967-2.117,1.45-3.45,1.45
				c-1.367,0-2.534-0.483-3.5-1.45c-0.9-0.933-1.35-2.083-1.35-3.45c0-0.034,0-0.067,0-0.1v-0.05c0.033-0.866,0.233-1.633,0.6-2.3
				c0.233-0.367,0.483-0.7,0.75-1c0.966-0.934,2.133-1.4,3.5-1.4c1.333,0,2.483,0.466,3.45,1.4c0.3,0.3,0.583,0.633,0.85,1
				C251.95,26.783,252.116,27.183,252.25,27.616z M250.1,28.866c0,0.767-0.25,1.4-0.75,1.9c-0.567,0.5-1.217,0.75-1.95,0.75
				s-1.35-0.25-1.85-0.75c-0.533-0.5-0.8-1.133-0.8-1.9c0-0.3,0.033-0.567,0.1-0.8c0.133-0.433,0.367-0.8,0.7-1.1
				c0.5-0.5,1.117-0.75,1.85-0.75s1.383,0.25,1.95,0.75c0.3,0.367,0.533,0.75,0.7,1.15C250.083,28.383,250.1,28.633,250.1,28.866z
				 M249.8,26.566c-0.7-0.633-1.5-0.95-2.4-0.95s-1.667,0.316-2.3,0.95c-0.367,0.333-0.617,0.7-0.75,1.1
				c-0.167,0.4-0.25,0.8-0.25,1.2c0,0.933,0.333,1.716,1,2.35c0.633,0.634,1.4,0.95,2.3,0.95s1.7-0.316,2.4-0.95
				c0.601-0.633,0.9-1.417,0.9-2.35c0-0.4-0.05-0.767-0.15-1.1C250.384,27.299,250.134,26.899,249.8,26.566z"/>
			<path fill-rule="evenodd" clip-rule="evenodd" fill="#302E25" d="M250.1,28.866c0-0.233-0.017-0.483-0.05-0.75
				c-0.167-0.4-0.4-0.784-0.7-1.15c-0.567-0.5-1.217-0.75-1.95-0.75s-1.35,0.25-1.85,0.75c-0.333,0.3-0.566,0.667-0.7,1.1
				c-0.067,0.233-0.1,0.5-0.1,0.8c0,0.767,0.267,1.4,0.8,1.9c0.5,0.5,1.117,0.75,1.85,0.75s1.383-0.25,1.95-0.75
				C249.85,30.266,250.1,29.633,250.1,28.866z M249.8,26.566c0.334,0.333,0.584,0.733,0.75,1.2c0.101,0.333,0.15,0.7,0.15,1.1
				c0,0.933-0.3,1.716-0.9,2.35c-0.7,0.634-1.5,0.95-2.4,0.95s-1.667-0.316-2.3-0.95c-0.667-0.633-1-1.417-1-2.35
				c0-0.4,0.083-0.8,0.25-1.2c0.133-0.4,0.383-0.767,0.75-1.1c0.633-0.633,1.4-0.95,2.3-0.95S249.1,25.933,249.8,26.566z"/>
			
				<path fill-rule="evenodd" clip-rule="evenodd" fill="none" stroke="#302E25" stroke-width="0.75" stroke-linecap="round" stroke-linejoin="round" stroke-miterlimit="3" d="
				M249.8,26.566c-0.7-0.633-1.5-0.95-2.4-0.95s-1.667,0.316-2.3,0.95c-0.367,0.333-0.617,0.7-0.75,1.1
				c-0.167,0.4-0.25,0.8-0.25,1.2c0,0.933,0.333,1.716,1,2.35c0.633,0.634,1.4,0.95,2.3,0.95s1.7-0.316,2.4-0.95
				c0.601-0.633,0.9-1.417,0.9-2.35c0-0.4-0.05-0.767-0.15-1.1C250.384,27.299,250.134,26.899,249.8,26.566z"/>
		</g>
	</g>
	<g>
		<path fill-rule="evenodd" clip-rule="evenodd" d="M110.9,8.166c0.1,0,0.2,0.083,0.3,0.25c0.1,0.1,0.233,0.217,0.4,0.35h0.05
			c0.133,0.066,0.283,0.1,0.45,0.1c0.1,0,0.25,0.017,0.45,0.05c0.034,0.066,0.067,0.133,0.1,0.2c0.1,0.033,0.15,0.083,0.15,0.15
			c0.034,0.033,0.1,0.083,0.2,0.15c0,0.066,0,0.117,0,0.15c-0.067,0.034-0.1,0.083-0.1,0.15c0,0.067,0,0.167,0,0.3v0.1
			c0,0.1-0.017,0.167-0.05,0.2c-0.067,0.2-0.184,0.367-0.35,0.5c0,0.434-0.05,0.85-0.15,1.25l0.05,0.2c0,0.1,0,0.183,0,0.25
			l-0.05,0.15c-0.033,0.133-0.1,0.233-0.2,0.3c-0.033,0-0.05,0.017-0.05,0.05c-0.133,0.267-0.283,0.533-0.45,0.8
			c0,0.1,0,0.217,0,0.35c-0.033,0.033-0.05,0.083-0.05,0.15c-0.033,0.034-0.083,0.067-0.15,0.1c0,0.033-0.017,0.083-0.05,0.15
			c-0.133,0.067-0.217,0.133-0.25,0.2h-0.05c-0.033,0.066-0.1,0.15-0.2,0.25s-0.15,0.267-0.15,0.5
			c0.133,1.633-0.083,3.183-0.65,4.65c0,0.167,0,0.316,0,0.45c0,0.167,0,0.333,0,0.5c0,0.133,0,0.283,0,0.45l-0.15,0.1
			c-0.034,0.1-0.067,0.15-0.1,0.15c-0.067,0.034-0.1,0.1-0.1,0.2c0,0.033,0,0.066,0,0.1c0,0.1,0,0.167,0,0.2c0,0.1,0,0.184,0,0.25
			c0,0.034,0,0.1,0,0.2l-0.05,0.05c0,0.1-0.017,0.167-0.05,0.2c-0.133,0.133-0.25,0.233-0.35,0.3c-0.033,0.434-0.033,0.833,0,1.2
			c0,0.333,0,0.667,0,1c-0.033,0.133-0.033,0.267,0,0.4c0.067,0.1,0.117,0.184,0.15,0.25c0,0.033,0,0.1,0,0.2
			c-0.034,0.033-0.083,0.05-0.15,0.05c-0.033,0.1-0.05,0.184-0.05,0.25c-0.133,0.033-0.25,0.117-0.35,0.25
			c0.067,0.133,0.15,0.217,0.25,0.25c0.233,0.267,0.417,0.583,0.55,0.95c0.1,0.167,0.2,0.316,0.3,0.45c0,0.034,0.033,0.1,0.1,0.2
			c0,0.133-0.033,0.25-0.1,0.35c-0.067,0.167-0.117,0.283-0.15,0.35c-0.067,0.067-0.133,0.1-0.2,0.1
			c-0.066,0.034-0.117,0.05-0.15,0.05c-0.4,0.233-0.833,0.267-1.3,0.1c-0.133-0.1-0.217-0.15-0.25-0.15
			c-0.3-0.3-0.617-0.533-0.95-0.7c-0.167-0.034-0.3-0.067-0.4-0.1c-1.434-0.233-2.8-0.2-4.1,0.1c-0.067,0-0.133,0.05-0.2,0.15
			c-0.066,0.066-0.117,0.133-0.15,0.2c-0.2,0-0.35,0.017-0.45,0.05c-0.1,0-0.184,0-0.25,0c-0.233-0.034-0.467-0.117-0.7-0.25
			c-0.1-0.1-0.15-0.2-0.15-0.3c-0.067-0.267-0.083-0.566-0.05-0.9c0.034-0.3,0.05-0.583,0.05-0.85c0-0.066,0.017-0.15,0.05-0.25
			l0.1-0.05c0.133-0.133,0.217-0.217,0.25-0.25c0.2-0.033,0.367-0.066,0.5-0.1c0.5-0.066,0.967-0.15,1.4-0.25
			c-0.066-0.133-0.066-0.316,0-0.55c-0.066,0-0.1-0.017-0.1-0.05c-0.066-0.066-0.167-0.133-0.3-0.2c0-0.067,0-0.15,0-0.25v-0.05
			c0-0.133,0-0.233,0-0.3s0-0.117,0-0.15c-0.033-0.067-0.1-0.133-0.2-0.2c0-0.033-0.017-0.066-0.05-0.1
			c0-0.033-0.017-0.05-0.05-0.05l0.05-0.15c0.6-1.133,0.917-2.5,0.95-4.1l0.7-0.45c0-0.133,0-0.233,0-0.3
			c0.133-0.467,0.367-0.883,0.7-1.25c0-0.1,0.017-0.233,0.05-0.4c0-1.333,0.184-2.617,0.55-3.85l0.5-0.4l0.2-1.6l1.3-1.6l0.05-1.05
			c0.033-0.1,0.067-0.167,0.1-0.2c0.1-0.2,0.183-0.417,0.25-0.65c0.1,0,0.233,0.017,0.4,0.05c0.033-0.033,0.067-0.05,0.1-0.05
			c0-0.033,0.05-0.1,0.15-0.2c0.1,0,0.183-0.017,0.25-0.05c0.1,0,0.233-0.017,0.4-0.05c0.033,0,0.083,0,0.15,0
			c0.434,0,0.817,0.017,1.15,0.05c0.167,0,0.316,0.017,0.45,0.05C110.717,8.033,110.8,8.1,110.9,8.166z"/>
	</g>
	<g>
		<g>
			
				<radialGradient id="SVGID_5_" cx="40.6499" cy="81.0161" r="8.0125" gradientTransform="matrix(1 0 0 0.5195 0 38.9282)" gradientUnits="userSpaceOnUse">
				<stop  offset="0" style="stop-color:#797A76"/>
				<stop  offset="1" style="stop-color:#181412"/>
			</radialGradient>
			<path fill-rule="evenodd" clip-rule="evenodd" fill="url(#SVGID_5_)" d="M35.85,79.866v-0.05c0-0.533,0.467-1,1.4-1.4
				c0.867-0.333,1.95-0.5,3.25-0.5s2.417,0.167,3.35,0.5c0.933,0.4,1.4,0.867,1.4,1.4v0.05c-0.033,0.466-0.5,0.866-1.4,1.2
				c-0.934,0.4-2.05,0.6-3.35,0.6s-2.383-0.2-3.25-0.6C36.35,80.732,35.883,80.333,35.85,79.866z"/>
			<linearGradient id="SVGID_6_" gradientUnits="userSpaceOnUse" x1="35.8501" y1="80.8911" x2="45.25" y2="80.8911">
				<stop  offset="0" style="stop-color:#797A76"/>
				<stop  offset="1" style="stop-color:#181412"/>
			</linearGradient>
			<path fill-rule="evenodd" clip-rule="evenodd" fill="url(#SVGID_6_)" d="M35.85,79.866c0.033,0.466,0.5,0.866,1.4,1.2
				c0.867,0.4,1.95,0.6,3.25,0.6s2.417-0.2,3.35-0.6c0.9-0.333,1.367-0.733,1.4-1.2c0,0.066,0,0.116,0,0.15
				c0,0.5-0.467,0.933-1.4,1.3c-0.934,0.4-2.05,0.6-3.35,0.6s-2.383-0.2-3.25-0.6c-0.933-0.367-1.4-0.8-1.4-1.3
				C35.85,79.982,35.85,79.933,35.85,79.866z"/>
		</g>
		<g>
			
				<radialGradient id="SVGID_7_" cx="38.3501" cy="80.916" r="2.3625" gradientTransform="matrix(1 0 0 1.2751 0 -22.2624)" gradientUnits="userSpaceOnUse">
				<stop  offset="0" style="stop-color:#C5C5C2"/>
				<stop  offset="1" style="stop-color:#C1C1BE;stop-opacity:0"/>
			</radialGradient>
			<path fill-rule="evenodd" clip-rule="evenodd" fill="url(#SVGID_7_)" d="M39.2,81.266c0.767,0.1,1.4,0.167,1.9,0.2
				c-0.434,0.1-1.067,0.1-1.9,0c-0.833-0.033-1.55-0.2-2.15-0.5c-0.367-0.2-0.65-0.383-0.85-0.55c0.233,0.033,0.583,0.15,1.05,0.35
				C37.783,81.033,38.433,81.199,39.2,81.266z"/>
		</g>
	</g>
	<g>
		<g>
			
				<radialGradient id="SVGID_8_" cx="40.7002" cy="79.5161" r="5.4" gradientTransform="matrix(1 0 0 0.5162 0 38.4696)" gradientUnits="userSpaceOnUse">
				<stop  offset="0" style="stop-color:#797A76"/>
				<stop  offset="1" style="stop-color:#181412"/>
			</radialGradient>
			<path fill-rule="evenodd" clip-rule="evenodd" fill="url(#SVGID_8_)" d="M43.8,78.816c-0.033,0.3-0.35,0.567-0.95,0.8
				c-0.633,0.267-1.383,0.4-2.25,0.4s-1.617-0.133-2.25-0.4c-0.567-0.233-0.883-0.5-0.95-0.8c0-0.033,0-0.083,0-0.15
				c0-0.333,0.317-0.617,0.95-0.85c0.633-0.267,1.383-0.4,2.25-0.4s1.617,0.133,2.25,0.4c0.633,0.233,0.95,0.517,0.95,0.85
				C43.8,78.732,43.8,78.783,43.8,78.816z"/>
			<linearGradient id="SVGID_9_" gradientUnits="userSpaceOnUse" x1="-250.1255" y1="79.4658" x2="77.2244" y2="79.4658">
				<stop  offset="0" style="stop-color:#797A76"/>
				<stop  offset="1" style="stop-color:#181412"/>
			</linearGradient>
			<path fill-rule="evenodd" clip-rule="evenodd" fill="url(#SVGID_9_)" d="M37.4,78.816c0.067,0.3,0.383,0.567,0.95,0.8
				c0.633,0.267,1.383,0.4,2.25,0.4s1.617-0.133,2.25-0.4c0.6-0.233,0.917-0.5,0.95-0.8v0.05c0,0.333-0.316,0.633-0.95,0.9
				c-0.633,0.233-1.383,0.35-2.25,0.35s-1.617-0.117-2.25-0.35c-0.633-0.267-0.95-0.567-0.95-0.9V78.816z"/>
		</g>
		<g>
			
				<radialGradient id="SVGID_10_" cx="39.1499" cy="79.4658" r="1.6" gradientTransform="matrix(1 0 0 1.2734 0 -21.7291)" gradientUnits="userSpaceOnUse">
				<stop  offset="0" style="stop-color:#C5C5C2"/>
				<stop  offset="1" style="stop-color:#C1C1BE;stop-opacity:0"/>
			</radialGradient>
			<path fill-rule="evenodd" clip-rule="evenodd" fill="url(#SVGID_10_)" d="M37.65,79.066c0.133,0.1,0.367,0.2,0.7,0.3
				c0.4,0.167,0.85,0.283,1.35,0.35c0.5,0.067,0.917,0.1,1.25,0.1c-0.233,0.1-0.65,0.117-1.25,0.05c-0.6-0.034-1.083-0.15-1.45-0.35
				C37.966,79.374,37.767,79.224,37.65,79.066z"/>
		</g>
	</g>
	<g>
		<g>
			<path fill-rule="evenodd" clip-rule="evenodd" fill="#666662" d="M109.05,96.166l-7.6-0.55c0.167-0.233,0.45-0.45,0.85-0.65
				c0.767-0.233,1.7-0.35,2.8-0.35s2.05,0.116,2.85,0.35C108.683,95.299,109.05,95.699,109.05,96.166z M101.25,95.916l7.7,0.65
				c-0.167,0.233-0.5,0.467-1,0.7c-0.8,0.267-1.75,0.4-2.85,0.4s-2.033-0.133-2.8-0.4c-0.7-0.3-1.066-0.65-1.1-1.05v-0.05
				C101.2,96.033,101.217,95.949,101.25,95.916z"/>
			<linearGradient id="SVGID_11_" gradientUnits="userSpaceOnUse" x1="101.1499" y1="97.0908" x2="109.0499" y2="97.0908">
				<stop  offset="0" style="stop-color:#B0B1AF"/>
				<stop  offset="0.5176" style="stop-color:#E1E1E1"/>
				<stop  offset="1" style="stop-color:#878584"/>
			</linearGradient>
			<path fill-rule="evenodd" clip-rule="evenodd" fill="url(#SVGID_11_)" d="M108.95,96.566c0.064-0.097,0.098-0.18,0.1-0.25
				c0,0.07,0,0.153,0,0.25c-0.1,0.333-0.466,0.617-1.1,0.85c-0.8,0.367-1.75,0.55-2.85,0.55s-2.033-0.183-2.8-0.55
				c-0.733-0.267-1.1-0.633-1.1-1.1v-0.1c0.033,0.4,0.4,0.75,1.1,1.05c0.767,0.267,1.7,0.4,2.8,0.4s2.05-0.133,2.85-0.4
				C108.45,97.033,108.783,96.799,108.95,96.566z"/>
			<linearGradient id="SVGID_12_" gradientUnits="userSpaceOnUse" x1="101.2251" y1="96.0908" x2="109.0751" y2="96.0908">
				<stop  offset="0" style="stop-color:#B0B1AF"/>
				<stop  offset="0.5176" style="stop-color:#E1E1E1"/>
				<stop  offset="1" style="stop-color:#878584"/>
			</linearGradient>
			<path fill-rule="evenodd" clip-rule="evenodd" fill="url(#SVGID_12_)" d="M108.95,96.566l-7.7-0.65
				c0.033-0.133,0.1-0.233,0.2-0.3l7.6,0.55v0.15C109.048,96.386,109.015,96.469,108.95,96.566z"/>
		</g>
	</g>
	<g>
		<g>
			<linearGradient id="SVGID_13_" gradientUnits="userSpaceOnUse" x1="126.4082" y1="69.7026" x2="133.2819" y2="70.2563">
				<stop  offset="0" style="stop-color:#B0B1AF"/>
				<stop  offset="0.5176" style="stop-color:#E1E1E1"/>
				<stop  offset="1" style="stop-color:#878584"/>
			</linearGradient>
			<path fill-rule="evenodd" clip-rule="evenodd" fill="url(#SVGID_13_)" d="M133.35,69.516c0,0.101,0,0.167,0,0.2
				c-0.167,0.3-0.517,0.55-1.05,0.75c-0.7,0.267-1.55,0.35-2.55,0.25c-0.967-0.066-1.733-0.267-2.3-0.6
				c-0.667-0.333-0.983-0.7-0.95-1.1c0.033,0.3,0.35,0.6,0.95,0.9c0.566,0.3,1.333,0.483,2.3,0.55c1,0.1,1.85,0.05,2.55-0.15
				c0.467-0.133,0.784-0.333,0.95-0.6C133.314,69.684,133.348,69.617,133.35,69.516z"/>
			
				<linearGradient id="SVGID_14_" gradientUnits="userSpaceOnUse" x1="136.7993" y1="58.8975" x2="143.6704" y2="58.8975" gradientTransform="matrix(0.9971 0.0764 -0.0905 0.996 -4.5513 -0.3159)">
				<stop  offset="0" style="stop-color:#B0B1AF"/>
				<stop  offset="0.5176" style="stop-color:#E1E1E1"/>
				<stop  offset="1" style="stop-color:#878584"/>
			</linearGradient>
			<path fill-rule="evenodd" clip-rule="evenodd" fill="url(#SVGID_14_)" d="M126.8,68.416l6.55,1v0.1
				c-0.002,0.101-0.036,0.167-0.1,0.2l-6.7-1C126.65,68.583,126.733,68.482,126.8,68.416z"/>
			<path fill-rule="evenodd" clip-rule="evenodd" fill="#666662" d="M126.55,68.716l6.7,1c-0.167,0.267-0.483,0.467-0.95,0.6
				c-0.7,0.2-1.55,0.25-2.55,0.15c-0.967-0.066-1.733-0.25-2.3-0.55c-0.6-0.3-0.917-0.6-0.95-0.9v-0.1
				C126.5,68.816,126.517,68.75,126.55,68.716z M133.35,69.416l-6.55-1c0.133-0.167,0.383-0.316,0.75-0.45
				c0.7-0.2,1.534-0.267,2.5-0.2c0.967,0.1,1.767,0.283,2.4,0.55C133.117,68.649,133.417,69.016,133.35,69.416z"/>
		</g>
	</g>
	<g>
		<g>
			
				<linearGradient id="SVGID_15_" gradientUnits="userSpaceOnUse" x1="29.7954" y1="66.1748" x2="36.6588" y2="66.1748" gradientTransform="matrix(0.9944 -0.1056 0.1192 0.993 7.0216 0.1157)">
				<stop  offset="0" style="stop-color:#B0B1AF"/>
				<stop  offset="0.5176" style="stop-color:#E1E1E1"/>
				<stop  offset="1" style="stop-color:#878584"/>
			</linearGradient>
			<path fill-rule="evenodd" clip-rule="evenodd" fill="url(#SVGID_15_)" d="M51.25,62.316l-6.7,0.35c0-0.1,0.05-0.217,0.15-0.35
				l6.65-0.3v0.15C51.349,62.2,51.315,62.25,51.25,62.316z"/>
			<path fill-rule="evenodd" clip-rule="evenodd" fill="#666662" d="M44.55,62.666l6.7-0.35c-0.1,0.2-0.367,0.4-0.8,0.6
				c-0.633,0.233-1.434,0.4-2.4,0.5c-0.933,0.066-1.767,0.066-2.5,0c-0.633-0.133-0.983-0.316-1.05-0.55v-0.1
				C44.5,62.699,44.517,62.666,44.55,62.666z M51.35,62.016l-6.65,0.3c0.1-0.1,0.35-0.233,0.75-0.4c0.633-0.267,1.4-0.434,2.3-0.5
				c1-0.1,1.85-0.1,2.55,0C50.967,61.516,51.317,61.716,51.35,62.016z"/>
			<linearGradient id="SVGID_16_" gradientUnits="userSpaceOnUse" x1="44.5308" y1="63.4297" x2="51.3817" y2="62.6865">
				<stop  offset="0" style="stop-color:#B0B1AF"/>
				<stop  offset="0.5176" style="stop-color:#E1E1E1"/>
				<stop  offset="1" style="stop-color:#878584"/>
			</linearGradient>
			<path fill-rule="evenodd" clip-rule="evenodd" fill="url(#SVGID_16_)" d="M44.5,62.866c0.067,0.233,0.417,0.417,1.05,0.55
				c0.733,0.066,1.567,0.066,2.5,0c0.967-0.1,1.767-0.267,2.4-0.5c0.433-0.2,0.7-0.4,0.8-0.6c0.065-0.065,0.099-0.116,0.1-0.15
				c0,0.034,0,0.067,0,0.1c-0.067,0.3-0.367,0.55-0.9,0.75c-0.633,0.3-1.434,0.5-2.4,0.6c-0.933,0.066-1.767,0.033-2.5-0.1
				c-0.667-0.1-1.017-0.3-1.05-0.6V62.866z"/>
		</g>
	</g>
	<g>
		<g>
			<path fill-rule="evenodd" clip-rule="evenodd" fill="#666662" d="M15.35,87.016l-7.55,1.25c0.1-0.233,0.317-0.483,0.65-0.75
				c0.7-0.467,1.583-0.817,2.65-1.05c1.066-0.267,2.017-0.35,2.85-0.25C14.75,86.283,15.217,86.549,15.35,87.016z M7.7,88.666
				l7.55-1.2c-0.067,0.3-0.317,0.617-0.75,0.95c-0.767,0.4-1.667,0.733-2.7,1c-1.066,0.267-2,0.367-2.8,0.3
				c-0.733-0.1-1.167-0.35-1.3-0.75v-0.05C7.667,88.783,7.667,88.699,7.7,88.666z"/>
			<linearGradient id="SVGID_17_" gradientUnits="userSpaceOnUse" x1="7.812" y1="89.791" x2="15.4858" y2="87.936">
				<stop  offset="0" style="stop-color:#B0B1AF"/>
				<stop  offset="0.5176" style="stop-color:#E1E1E1"/>
				<stop  offset="1" style="stop-color:#878584"/>
			</linearGradient>
			<path fill-rule="evenodd" clip-rule="evenodd" fill="url(#SVGID_17_)" d="M15.25,87.466c0.099-0.131,0.132-0.231,0.1-0.3
				c0.033,0.068,0.05,0.151,0.05,0.25c-0.033,0.367-0.316,0.733-0.85,1.1c-0.733,0.533-1.633,0.917-2.7,1.15
				C10.817,89.933,9.9,90,9.1,89.866c-0.8-0.1-1.267-0.384-1.4-0.85v-0.05c0.133,0.4,0.566,0.65,1.3,0.75
				c0.8,0.067,1.733-0.033,2.8-0.3c1.034-0.267,1.934-0.6,2.7-1C14.933,88.083,15.183,87.766,15.25,87.466z"/>
			<linearGradient id="SVGID_18_" gradientUnits="userSpaceOnUse" x1="7.6772" y1="88.7998" x2="15.326" y2="86.9447">
				<stop  offset="0" style="stop-color:#B0B1AF"/>
				<stop  offset="0.5176" style="stop-color:#E1E1E1"/>
				<stop  offset="1" style="stop-color:#878584"/>
			</linearGradient>
			<path fill-rule="evenodd" clip-rule="evenodd" fill="url(#SVGID_18_)" d="M7.8,88.266l7.55-1.25v0.15
				c0.032,0.068-0.001,0.168-0.1,0.3l-7.55,1.2C7.7,88.533,7.733,88.399,7.8,88.266z"/>
		</g>
	</g>
	<g>
		<path fill-rule="evenodd" clip-rule="evenodd" d="M42.55,78.566c0,0.067-0.167,0.15-0.5,0.25c-0.333,0.067-0.767,0.1-1.3,0.1
			c-0.467,0-0.867-0.033-1.2-0.1c-0.333-0.1-0.5-0.2-0.5-0.3s0.167-0.184,0.5-0.25c0.333-0.067,0.733-0.1,1.2-0.1
			c0.533,0,0.967,0.033,1.3,0.1C42.383,78.333,42.55,78.433,42.55,78.566z"/>
	</g>
	<g>
		
			<radialGradient id="SVGID_19_" cx="40.3501" cy="75.4658" r="2.225" gradientTransform="matrix(1 0 0 0.3989 0 45.3643)" gradientUnits="userSpaceOnUse">
			<stop  offset="0" style="stop-color:#5A5A57"/>
			<stop  offset="1" style="stop-color:#181412"/>
		</radialGradient>
		<path fill-rule="evenodd" clip-rule="evenodd" fill="url(#SVGID_19_)" d="M42.2,76.266h-0.1c-0.367,0.133-0.833,0.2-1.4,0.2
			c-0.534,0-1-0.066-1.4-0.2c-0.4-0.067-0.6-0.184-0.6-0.35v-0.05c0-0.167,0.2-0.3,0.6-0.4c0.4-0.167,0.867-0.25,1.4-0.25
			c0.566,0,1.033,0.083,1.4,0.25c0.4,0.1,0.6,0.233,0.6,0.4v0.05C42.7,76.083,42.533,76.199,42.2,76.266z"/>
		
			<radialGradient id="SVGID_20_" cx="40.3501" cy="77.2158" r="1.0875" gradientTransform="matrix(1 0 0 1.977 0 -75.4406)" gradientUnits="userSpaceOnUse">
			<stop  offset="0" style="stop-color:#5A5A57"/>
			<stop  offset="0.2392" style="stop-color:#302D2B"/>
			<stop  offset="1" style="stop-color:#181412"/>
		</radialGradient>
		<path fill-rule="evenodd" clip-rule="evenodd" fill="url(#SVGID_20_)" d="M39.3,76.266c0.4,0.133,0.867,0.2,1.4,0.2
			c0.566,0,1.033-0.066,1.4-0.2h0.1l-0.1,2.25c-0.934,0.267-1.867,0.267-2.8,0V76.266z"/>
	</g>
	<g>
		<g>
			<g>
				<linearGradient id="SVGID_21_" gradientUnits="userSpaceOnUse" x1="102.25" y1="80.8911" x2="111.6499" y2="80.8911">
					<stop  offset="0" style="stop-color:#797A76"/>
					<stop  offset="1" style="stop-color:#181412"/>
				</linearGradient>
				<path fill-rule="evenodd" clip-rule="evenodd" fill="url(#SVGID_21_)" d="M111.65,79.866c0,0.066,0,0.116,0,0.15
					c0,0.5-0.467,0.933-1.4,1.3c-0.9,0.4-2.017,0.6-3.35,0.6c-1.3,0-2.383-0.2-3.25-0.6c-0.933-0.367-1.4-0.8-1.4-1.3
					c0-0.034,0-0.083,0-0.15c0.033,0.466,0.5,0.866,1.4,1.2c0.867,0.4,1.95,0.6,3.25,0.6c1.333,0,2.45-0.2,3.35-0.6
					C111.15,80.732,111.617,80.333,111.65,79.866z"/>
				
					<radialGradient id="SVGID_22_" cx="107.0498" cy="81.0161" r="8.0125" gradientTransform="matrix(1 0 0 0.5195 0 38.9282)" gradientUnits="userSpaceOnUse">
					<stop  offset="0" style="stop-color:#797A76"/>
					<stop  offset="1" style="stop-color:#181412"/>
				</radialGradient>
				<path fill-rule="evenodd" clip-rule="evenodd" fill="url(#SVGID_22_)" d="M102.25,79.866v-0.05c0-0.533,0.467-1,1.4-1.4
					c0.867-0.333,1.95-0.5,3.25-0.5c1.333,0,2.45,0.167,3.35,0.5c0.933,0.4,1.4,0.867,1.4,1.4v0.05c-0.033,0.466-0.5,0.866-1.4,1.2
					c-0.9,0.4-2.017,0.6-3.35,0.6c-1.3,0-2.383-0.2-3.25-0.6C102.75,80.732,102.283,80.333,102.25,79.866z"/>
			</g>
			<g>
				
					<radialGradient id="SVGID_23_" cx="104.7998" cy="80.916" r="2.3625" gradientTransform="matrix(1 0 0 1.2751 0 -22.2624)" gradientUnits="userSpaceOnUse">
					<stop  offset="0" style="stop-color:#C5C5C2"/>
					<stop  offset="1" style="stop-color:#C1C1BE;stop-opacity:0"/>
				</radialGradient>
				<path fill-rule="evenodd" clip-rule="evenodd" fill="url(#SVGID_23_)" d="M105.6,81.266c0.767,0.1,1.4,0.167,1.9,0.2
					c-0.433,0.1-1.067,0.1-1.9,0c-0.833-0.033-1.55-0.2-2.15-0.5c-0.367-0.2-0.633-0.383-0.8-0.55c0.2,0.033,0.533,0.15,1,0.35
					C104.183,81.033,104.833,81.199,105.6,81.266z"/>
			</g>
		</g>
		<g>
			<g>
				
					<radialGradient id="SVGID_24_" cx="107.1001" cy="79.5161" r="5.4" gradientTransform="matrix(1 0 0 0.5162 0 38.4696)" gradientUnits="userSpaceOnUse">
					<stop  offset="0" style="stop-color:#797A76"/>
					<stop  offset="1" style="stop-color:#181412"/>
				</radialGradient>
				<path fill-rule="evenodd" clip-rule="evenodd" fill="url(#SVGID_24_)" d="M110.2,78.816c-0.034,0.3-0.35,0.567-0.95,0.8
					c-0.633,0.267-1.383,0.4-2.25,0.4s-1.6-0.133-2.2-0.4c-0.6-0.233-0.917-0.5-0.95-0.8c0-0.033,0-0.083,0-0.15
					c0-0.333,0.316-0.617,0.95-0.85c0.6-0.267,1.333-0.4,2.2-0.4s1.617,0.133,2.25,0.4c0.633,0.233,0.95,0.517,0.95,0.85
					C110.2,78.732,110.2,78.783,110.2,78.816z"/>
				<linearGradient id="SVGID_25_" gradientUnits="userSpaceOnUse" x1="-183.6748" y1="79.4658" x2="143.6753" y2="79.4658">
					<stop  offset="0" style="stop-color:#797A76"/>
					<stop  offset="1" style="stop-color:#181412"/>
				</linearGradient>
				<path fill-rule="evenodd" clip-rule="evenodd" fill="url(#SVGID_25_)" d="M103.85,78.816c0.033,0.3,0.35,0.567,0.95,0.8
					c0.6,0.267,1.333,0.4,2.2,0.4s1.617-0.133,2.25-0.4c0.6-0.233,0.917-0.5,0.95-0.8v0.05c0,0.333-0.317,0.633-0.95,0.9
					c-0.633,0.233-1.383,0.35-2.25,0.35s-1.6-0.117-2.2-0.35c-0.633-0.267-0.95-0.567-0.95-0.9V78.816z"/>
			</g>
			<g>
				
					<radialGradient id="SVGID_26_" cx="105.5498" cy="79.4658" r="1.6" gradientTransform="matrix(1 0 0 1.2734 0 -21.7291)" gradientUnits="userSpaceOnUse">
					<stop  offset="0" style="stop-color:#C5C5C2"/>
					<stop  offset="1" style="stop-color:#C1C1BE;stop-opacity:0"/>
				</radialGradient>
				<path fill-rule="evenodd" clip-rule="evenodd" fill="url(#SVGID_26_)" d="M103.95,78.866l0.15,0.2c0.1,0.1,0.333,0.2,0.7,0.3
					c0.367,0.167,0.8,0.283,1.3,0.35c0.5,0.067,0.917,0.1,1.25,0.1c-0.233,0.1-0.65,0.117-1.25,0.05
					c-0.6-0.034-1.083-0.15-1.45-0.35C104.283,79.316,104.05,79.1,103.95,78.866z"/>
			</g>
		</g>
		<g>
			<path fill-rule="evenodd" clip-rule="evenodd" d="M108.45,78.266c0.333,0.066,0.5,0.167,0.5,0.3c0,0.067-0.167,0.15-0.5,0.25
				c-0.333,0.067-0.75,0.1-1.25,0.1c-0.467,0-0.867-0.033-1.2-0.1c-0.367-0.1-0.55-0.2-0.55-0.3s0.183-0.184,0.55-0.25
				c0.333-0.067,0.733-0.1,1.2-0.1C107.7,78.166,108.117,78.199,108.45,78.266z"/>
		</g>
		<g>
			
				<radialGradient id="SVGID_27_" cx="106.75" cy="75.4658" r="2.225" gradientTransform="matrix(1 0 0 0.3989 0 45.3643)" gradientUnits="userSpaceOnUse">
				<stop  offset="0" style="stop-color:#5A5A57"/>
				<stop  offset="1" style="stop-color:#181412"/>
			</radialGradient>
			<path fill-rule="evenodd" clip-rule="evenodd" fill="url(#SVGID_27_)" d="M108.65,76.266h-0.15c-0.367,0.133-0.833,0.2-1.4,0.2
				c-0.533,0-1-0.066-1.4-0.2c-0.4-0.067-0.6-0.184-0.6-0.35v-0.05c0-0.167,0.2-0.3,0.6-0.4c0.4-0.167,0.867-0.25,1.4-0.25
				c0.566,0,1.033,0.083,1.4,0.25c0.433,0.1,0.65,0.233,0.65,0.4v0.05C109.15,76.083,108.983,76.199,108.65,76.266z"/>
			
				<radialGradient id="SVGID_28_" cx="106.75" cy="77.2158" r="1.0875" gradientTransform="matrix(1 0 0 1.977 0 -75.4406)" gradientUnits="userSpaceOnUse">
				<stop  offset="0" style="stop-color:#5A5A57"/>
				<stop  offset="0.2392" style="stop-color:#302D2B"/>
				<stop  offset="1" style="stop-color:#181412"/>
			</radialGradient>
			<path fill-rule="evenodd" clip-rule="evenodd" fill="url(#SVGID_28_)" d="M105.7,76.266c0.4,0.133,0.867,0.2,1.4,0.2
				c0.566,0,1.033-0.066,1.4-0.2h0.15l-0.15,2.25c-0.933,0.267-1.867,0.267-2.8,0V76.266z"/>
		</g>
	</g>
	<g>
		<g>
			<g>
				<linearGradient id="SVGID_29_" gradientUnits="userSpaceOnUse" x1="66.8501" y1="64.4912" x2="76.25" y2="64.4912">
					<stop  offset="0" style="stop-color:#797A76"/>
					<stop  offset="1" style="stop-color:#181412"/>
				</linearGradient>
				<path fill-rule="evenodd" clip-rule="evenodd" fill="url(#SVGID_29_)" d="M66.85,63.466c0.033,0.467,0.5,0.867,1.4,1.2
					c0.867,0.4,1.95,0.6,3.25,0.6s2.417-0.2,3.35-0.6c0.9-0.333,1.367-0.733,1.4-1.2c0,0.034,0,0.083,0,0.15
					c0,0.5-0.467,0.933-1.4,1.3c-0.934,0.4-2.05,0.6-3.35,0.6s-2.383-0.2-3.25-0.6c-0.933-0.367-1.4-0.8-1.4-1.3
					C66.85,63.549,66.85,63.5,66.85,63.466z"/>
				
					<radialGradient id="SVGID_30_" cx="71.6499" cy="64.6162" r="8.0125" gradientTransform="matrix(1 0 0 0.5195 0 31.048)" gradientUnits="userSpaceOnUse">
					<stop  offset="0" style="stop-color:#797A76"/>
					<stop  offset="1" style="stop-color:#181412"/>
				</radialGradient>
				<path fill-rule="evenodd" clip-rule="evenodd" fill="url(#SVGID_30_)" d="M76.25,63.466c-0.033,0.467-0.5,0.867-1.4,1.2
					c-0.934,0.4-2.05,0.6-3.35,0.6s-2.383-0.2-3.25-0.6c-0.9-0.333-1.367-0.733-1.4-1.2v-0.05c0-0.533,0.467-1,1.4-1.4
					c0.867-0.333,1.95-0.5,3.25-0.5s2.417,0.167,3.35,0.5c0.933,0.4,1.4,0.867,1.4,1.4V63.466z"/>
			</g>
			<g>
				
					<radialGradient id="SVGID_31_" cx="69.3501" cy="64.4658" r="2.3625" gradientTransform="matrix(1 0 0 1.2751 0 -17.7365)" gradientUnits="userSpaceOnUse">
					<stop  offset="0" style="stop-color:#C5C5C2"/>
					<stop  offset="1" style="stop-color:#C1C1BE;stop-opacity:0"/>
				</radialGradient>
				<path fill-rule="evenodd" clip-rule="evenodd" fill="url(#SVGID_31_)" d="M70.2,64.866c0.733,0.066,1.367,0.133,1.9,0.2
					c-0.434,0.067-1.067,0.067-1.9,0c-0.867-0.066-1.583-0.233-2.15-0.5c-0.4-0.233-0.683-0.433-0.85-0.6
					c0.233,0.067,0.583,0.2,1.05,0.4C68.783,64.6,69.433,64.766,70.2,64.866z"/>
			</g>
		</g>
		<g>
			<g>
				<linearGradient id="SVGID_32_" gradientUnits="userSpaceOnUse" x1="-219.1255" y1="63.0659" x2="108.2244" y2="63.0659">
					<stop  offset="0" style="stop-color:#797A76"/>
					<stop  offset="1" style="stop-color:#181412"/>
				</linearGradient>
				<path fill-rule="evenodd" clip-rule="evenodd" fill="url(#SVGID_32_)" d="M68.4,62.416c0.067,0.3,0.383,0.566,0.95,0.8
					c0.633,0.267,1.367,0.4,2.2,0.4c0.9,0,1.667-0.134,2.3-0.4c0.6-0.233,0.917-0.5,0.95-0.8v0.05c0,0.333-0.316,0.634-0.95,0.9
					c-0.633,0.233-1.4,0.35-2.3,0.35c-0.833,0-1.566-0.116-2.2-0.35c-0.633-0.267-0.95-0.567-0.95-0.9V62.416z"/>
				
					<radialGradient id="SVGID_33_" cx="71.7002" cy="63.1162" r="5.4" gradientTransform="matrix(1 0 0 0.5162 0 30.5354)" gradientUnits="userSpaceOnUse">
					<stop  offset="0" style="stop-color:#797A76"/>
					<stop  offset="1" style="stop-color:#181412"/>
				</radialGradient>
				<path fill-rule="evenodd" clip-rule="evenodd" fill="url(#SVGID_33_)" d="M68.4,62.416c0-0.066,0-0.117,0-0.15
					c0-0.333,0.317-0.617,0.95-0.85c0.633-0.267,1.367-0.4,2.2-0.4c0.9,0,1.667,0.133,2.3,0.4c0.633,0.233,0.95,0.517,0.95,0.85
					c0,0.033,0,0.083,0,0.15c-0.033,0.3-0.35,0.566-0.95,0.8c-0.633,0.267-1.4,0.4-2.3,0.4c-0.833,0-1.566-0.134-2.2-0.4
					C68.783,62.982,68.467,62.716,68.4,62.416z"/>
			</g>
			<g>
				
					<radialGradient id="SVGID_34_" cx="70.1001" cy="63.0161" r="1.6" gradientTransform="matrix(1 0 0 1.2734 0 -17.2311)" gradientUnits="userSpaceOnUse">
					<stop  offset="0" style="stop-color:#C5C5C2"/>
					<stop  offset="1" style="stop-color:#C1C1BE;stop-opacity:0"/>
				</radialGradient>
				<path fill-rule="evenodd" clip-rule="evenodd" fill="url(#SVGID_34_)" d="M69.35,62.966c0.4,0.167,0.85,0.267,1.35,0.3
					c0.5,0.1,0.917,0.15,1.25,0.15c-0.267,0.066-0.684,0.083-1.25,0.05c-0.6-0.033-1.083-0.15-1.45-0.35
					c-0.255-0.149-0.438-0.291-0.55-0.425C68.835,62.755,69.052,62.847,69.35,62.966z"/>
			</g>
		</g>
		<g>
			<path fill-rule="evenodd" clip-rule="evenodd" d="M73.55,62.166c0,0.066-0.167,0.15-0.5,0.25c-0.367,0.066-0.8,0.1-1.3,0.1
				c-0.467,0-0.867-0.034-1.2-0.1c-0.333-0.1-0.5-0.217-0.5-0.35c0-0.066,0.167-0.15,0.5-0.25c0.333-0.033,0.733-0.05,1.2-0.05
				c0.5,0,0.933,0.017,1.3,0.05C73.383,61.916,73.55,62.033,73.55,62.166z"/>
		</g>
		<g>
			
				<radialGradient id="SVGID_35_" cx="71.2998" cy="59.0659" r="2.225" gradientTransform="matrix(1 0 0 0.3989 0 35.5059)" gradientUnits="userSpaceOnUse">
				<stop  offset="0" style="stop-color:#5A5A57"/>
				<stop  offset="1" style="stop-color:#181412"/>
			</radialGradient>
			<path fill-rule="evenodd" clip-rule="evenodd" fill="url(#SVGID_35_)" d="M73.2,59.866h-0.1c-0.4,0.133-0.867,0.2-1.4,0.2
				c-0.534,0-1-0.066-1.4-0.2c-0.4-0.067-0.6-0.184-0.6-0.35v-0.1c0-0.167,0.2-0.283,0.6-0.35c0.4-0.167,0.867-0.25,1.4-0.25
				c0.533,0,1,0.083,1.4,0.25c0.4,0.067,0.6,0.184,0.6,0.35v0.1C73.7,59.683,73.533,59.799,73.2,59.866z"/>
			
				<radialGradient id="SVGID_36_" cx="71.2998" cy="60.8154" r="1.0875" gradientTransform="matrix(1 0 0 1.977 0 -59.4173)" gradientUnits="userSpaceOnUse">
				<stop  offset="0" style="stop-color:#5A5A57"/>
				<stop  offset="0.2392" style="stop-color:#302D2B"/>
				<stop  offset="1" style="stop-color:#181412"/>
			</radialGradient>
			<path fill-rule="evenodd" clip-rule="evenodd" fill="url(#SVGID_36_)" d="M70.3,59.866c0.4,0.133,0.867,0.2,1.4,0.2
				c0.533,0,1-0.066,1.4-0.2h0.1l-0.1,2.2c-0.934,0.3-1.867,0.3-2.8,0V59.866z"/>
		</g>
	</g>
	<g>
		<path fill-rule="evenodd" clip-rule="evenodd" fill="#FFFFFF" fill-opacity="0.498" d="M121.55,88.466h-2.75l-0.7-7h-4.05
			l-0.1-1.45h10.85l0.1,1.45h-4.05L121.55,88.466z M128.9,83.866c0.833,0,1.5,0.167,2,0.5c0.467,0.267,0.717,0.566,0.75,0.9
			c0.067,0.466-0.35,0.833-1.25,1.1c0.567,0.1,1.017,0.25,1.35,0.45c0.333,0.267,0.5,0.567,0.5,0.9
			c0.067,0.467-0.183,0.867-0.75,1.2c-0.533,0.333-1.217,0.5-2.05,0.5c-0.8,0-1.483-0.133-2.05-0.4
			c-0.566-0.267-0.917-0.633-1.05-1.1l1.7-0.15c0.067,0.267,0.2,0.466,0.4,0.6c0.3,0.167,0.617,0.25,0.95,0.25
			c0.333,0,0.6-0.083,0.8-0.25c0.233-0.167,0.316-0.4,0.25-0.7c0-0.267-0.117-0.483-0.35-0.65c-0.267-0.133-0.567-0.2-0.9-0.2
			c-0.2,0-0.45,0.034-0.75,0.1l0.15-0.9c0.433,0,0.783-0.067,1.05-0.2c0.2-0.133,0.3-0.3,0.3-0.5c-0.034-0.167-0.15-0.316-0.35-0.45
			c-0.167-0.134-0.4-0.2-0.7-0.2c-0.3,0-0.55,0.066-0.75,0.2c-0.233,0.133-0.35,0.333-0.35,0.6l-1.55-0.2
			c0.067-0.3,0.183-0.55,0.35-0.75c0.233-0.233,0.55-0.383,0.95-0.45C127.95,83.933,128.4,83.866,128.9,83.866z"/>
	</g>
	<g>
		<path fill-rule="evenodd" clip-rule="evenodd" fill="#FFFFFF" fill-opacity="0.498" d="M90.25,64.966H86.2l-1.25,8.35H82.2
			l1.25-8.35H79.4l0.25-1.7H90.5L90.25,64.966z M95.05,67.816l-0.95,6.6h-1.7l0.7-4.75c-0.633,0.434-1.383,0.75-2.25,0.95l0.15-1.15
			c0.433-0.066,0.95-0.25,1.55-0.55c0.534-0.333,0.934-0.7,1.2-1.1H95.05z"/>
	</g>
	<g>
		<path fill-rule="evenodd" clip-rule="evenodd" fill="#FFFFFF" fill-opacity="0.498" d="M30.75,80.466H26.7l-1.85,8.55H22.1
			l1.8-8.55h-4.05l0.4-1.7H31.1L30.75,80.466z M32.75,84.666c-0.2,0.167-0.367,0.45-0.5,0.85l-1.7-0.15c0.233-0.7,0.65-1.2,1.25-1.5
			c0.633-0.333,1.35-0.5,2.15-0.5c0.9,0,1.55,0.183,1.95,0.55c0.434,0.333,0.583,0.783,0.45,1.35c-0.033,0.3-0.167,0.583-0.4,0.85
			c-0.2,0.267-0.483,0.55-0.85,0.85c-0.267,0.2-0.7,0.5-1.3,0.9c-0.6,0.366-1.017,0.583-1.25,0.65c-0.133,0.133-0.25,0.267-0.35,0.4
			h3.4l-0.25,1.2h-6c0.133-0.467,0.4-0.884,0.8-1.25c0.434-0.434,1.2-0.983,2.3-1.65c0.9-0.566,1.466-0.933,1.7-1.1
			c0.233-0.233,0.383-0.5,0.45-0.8c0.066-0.267,0.017-0.483-0.15-0.65c-0.167-0.167-0.434-0.25-0.8-0.25
			C33.317,84.416,33.017,84.5,32.75,84.666z"/>
	</g>
	<g>
		<path fill-rule="evenodd" clip-rule="evenodd" fill="#FFFFFF" fill-opacity="0.498" d="M276.25,27.666l0.25,6.5h1.35l0.101,1.7
			h-1.4l0.05,2.1h-2l-0.1-2.1h-4.45l-0.05-1.7l4.45-6.5H276.25z M268.85,23.216H263.9l0.449,13.1h-3.399l-0.45-13.1h-5l-0.1-2.65
			h13.3L268.85,23.216z M274.35,30.666l-2.399,3.5h2.5L274.35,30.666z"/>
	</g>
</g>
<g>
	
		<linearGradient id="SVGID_37_" gradientUnits="userSpaceOnUse" x1="-594.0625" y1="-176.4092" x2="-364.9375" y2="-176.4092" gradientTransform="matrix(-1 0 0 -1 0 -112.668)">
		<stop  offset="0" style="stop-color:#797A76"/>
		<stop  offset="1" style="stop-color:#181412"/>
	</linearGradient>
	<path fill-rule="evenodd" clip-rule="evenodd" fill="url(#SVGID_37_)" d="M391,63.716v0.15c-0.134,0-0.267,0-0.4,0
		c-0.533,0-1.017-0.083-1.449-0.25h0.25c0.333,0.066,0.733,0.1,1.199,0.1C390.733,63.716,390.866,63.716,391,63.716z"/>
	
		<radialGradient id="SVGID_38_" cx="-391.2002" cy="-172.7842" r="1.7" gradientTransform="matrix(-1 0 0 2.5588 0 502.2398)" gradientUnits="userSpaceOnUse">
		<stop  offset="0" style="stop-color:#5A5A57"/>
		<stop  offset="0.2392" style="stop-color:#302D2B"/>
		<stop  offset="1" style="stop-color:#181412"/>
	</radialGradient>
	<path fill-rule="evenodd" clip-rule="evenodd" fill="url(#SVGID_38_)" d="M391,63.716c-0.134,0-0.267,0-0.4,0
		c-0.466,0-0.866-0.033-1.199-0.1h1.6V63.716z"/>
	
		<linearGradient id="SVGID_39_" gradientUnits="userSpaceOnUse" x1="-625.0625" y1="-192.8091" x2="-395.9374" y2="-192.8091" gradientTransform="matrix(-1 0 0 -1 0 -112.668)">
		<stop  offset="0" style="stop-color:#797A76"/>
		<stop  offset="1" style="stop-color:#181412"/>
	</linearGradient>
	<path fill-rule="evenodd" clip-rule="evenodd" fill="url(#SVGID_39_)" d="M422.75,80.016H423c-0.3,0.133-0.634,0.216-1,0.25
		c-0.134,0-0.267,0-0.4,0c-0.533,0-1.017-0.083-1.449-0.25h0.25c0.333,0.066,0.733,0.1,1.199,0.1c0.134,0,0.267,0,0.4,0
		C422.3,80.083,422.55,80.049,422.75,80.016z"/>
	
		<radialGradient id="SVGID_40_" cx="-422.1499" cy="-189.2339" r="1.7" gradientTransform="matrix(-1 0 0 2.5588 0 560.7814)" gradientUnits="userSpaceOnUse">
		<stop  offset="0" style="stop-color:#5A5A57"/>
		<stop  offset="0.2392" style="stop-color:#302D2B"/>
		<stop  offset="1" style="stop-color:#181412"/>
	</radialGradient>
	<path fill-rule="evenodd" clip-rule="evenodd" fill="url(#SVGID_40_)" d="M420.4,80.016h2.35c-0.2,0.033-0.45,0.066-0.75,0.1
		c-0.134,0-0.267,0-0.4,0C421.134,80.116,420.733,80.083,420.4,80.016z"/>
	
		<radialGradient id="SVGID_41_" cx="-355.75" cy="-189.2339" r="1.7" gradientTransform="matrix(-1 0 0 2.5588 0 560.7814)" gradientUnits="userSpaceOnUse">
		<stop  offset="0" style="stop-color:#5A5A57"/>
		<stop  offset="0.2392" style="stop-color:#302D2B"/>
		<stop  offset="1" style="stop-color:#181412"/>
	</radialGradient>
	<path fill-rule="evenodd" clip-rule="evenodd" fill="url(#SVGID_41_)" d="M354,80.016h1.6v0.1c-0.133,0-0.267,0-0.399,0
		C354.733,80.116,354.333,80.083,354,80.016z"/>
	
		<linearGradient id="SVGID_42_" gradientUnits="userSpaceOnUse" x1="-558.6626" y1="-192.8091" x2="-329.5376" y2="-192.8091" gradientTransform="matrix(-1 0 0 -1 0 -112.668)">
		<stop  offset="0" style="stop-color:#797A76"/>
		<stop  offset="1" style="stop-color:#181412"/>
	</linearGradient>
	<path fill-rule="evenodd" clip-rule="evenodd" fill="url(#SVGID_42_)" d="M354,80.016c0.333,0.066,0.733,0.1,1.2,0.1
		c0.133,0,0.267,0,0.399,0v0.15c-0.133,0-0.267,0-0.399,0c-0.533,0-1.017-0.083-1.45-0.25H354z"/>
	<g>
		<path fill-rule="evenodd" clip-rule="evenodd" fill-opacity="0.2471" d="M368.45,64.166c0,0.133,0,0.267,0,0.4
			c0,0.333,0.083,0.617,0.25,0.85c0,0.066,0,0.117,0,0.15c0,0.2-0.017,0.4-0.05,0.6c-0.034,0.1-0.084,0.217-0.15,0.35
			c-0.066,0.033-0.116,0.066-0.15,0.1c-0.1,0.066-0.199,0.116-0.3,0.15c-0.033,0.033-0.066,0.1-0.1,0.2
			c-0.033,0.034-0.084,0.067-0.15,0.1c-0.033,0.034-0.083,0.083-0.149,0.15c-0.4,0.1-0.784,0.15-1.15,0.15
			c-0.833,0.566-1.684,0.616-2.55,0.15c-0.066-0.1-0.117-0.2-0.15-0.3c-0.066-0.066-0.1-0.116-0.1-0.15
			c-0.033-0.033-0.066-0.066-0.101-0.1c-0.433-0.3-0.85-0.6-1.25-0.9c-1.033-0.667-1.783-1.566-2.25-2.7
			c-0.199-0.233-0.416-0.45-0.649-0.65c-0.267-0.167-0.417-0.383-0.45-0.65c0-0.033,0-0.083,0-0.15c0.033-0.133,0.066-0.25,0.1-0.35
			c0.101-0.066,0.217-0.167,0.351-0.3c0.066,0,0.166-0.017,0.3-0.05c0.066,0,0.134,0,0.2,0c0.1,0.034,0.217,0.05,0.35,0.05
			c0.101,0.1,0.217,0.15,0.351,0.15c0.833,0.367,1.666,0.633,2.5,0.8c1.433-0.167,2.866,0.05,4.3,0.65
			c0.166,0.167,0.333,0.283,0.5,0.35c0.2,0.1,0.35,0.25,0.45,0.45C368.434,63.833,368.45,64,368.45,64.166z"/>
		
			<path fill-rule="evenodd" clip-rule="evenodd" fill="none" stroke="#000000" stroke-linecap="round" stroke-linejoin="round" stroke-miterlimit="3" stroke-opacity="0.2471" d="
			M368.45,64.166H383.1c0.601-0.066,1.534,0.184,2.801,0.75c1.199,0.566,1.966,1.083,2.3,1.55 M368.65,66.166
			c0.833,0.3,1.583,0.65,2.25,1.05c2.1,1.167,5.933,3.617,11.5,7.35c3.966,2.667,11.25,4.55,21.85,5.65
			c9.366,0.934,14.816,2.617,16.35,5.05 M359,62.066l-5.65,2.25c-3.866,0.9-9.466,1.784-16.8,2.65c-6.899,0.8-11.55,1.367-13.95,1.7
			 M362.35,66.066c-0.267,0.167-0.533,0.383-0.8,0.65c-0.566,0.567-1.533,1.617-2.899,3.15c-2.9,2.466-4.367,3.75-4.4,3.85
			c-1.733,2.333-2.283,5.583-1.65,9.75"/>
		<g>
			<g>
				
					<linearGradient id="SVGID_43_" gradientUnits="userSpaceOnUse" x1="-429.0664" y1="-135.5273" x2="-422.203" y2="-135.5273" gradientTransform="matrix(-0.9944 -0.1056 0.1192 -0.993 7.1034 -112.2625)">
					<stop  offset="0" style="stop-color:#B0B1AF"/>
					<stop  offset="0.5176" style="stop-color:#E1E1E1"/>
					<stop  offset="1" style="stop-color:#878584"/>
				</linearGradient>
				<path fill-rule="evenodd" clip-rule="evenodd" fill="url(#SVGID_43_)" d="M410.95,67.266c-0.1-0.099-0.149-0.166-0.15-0.2v-0.1
					l6.7,0.3c0.1,0.133,0.15,0.233,0.15,0.3L410.95,67.266z"/>
				<path fill-rule="evenodd" clip-rule="evenodd" fill="#666662" d="M417.7,67.766c-0.101,0.267-0.467,0.45-1.101,0.55
					c-0.699,0.1-1.517,0.1-2.449,0c-0.967-0.066-1.767-0.233-2.4-0.5c-0.467-0.2-0.733-0.383-0.8-0.55l6.7,0.3
					c0.033,0,0.05,0.05,0.05,0.15V67.766z M417.5,67.266l-6.7-0.3c0.033-0.3,0.4-0.517,1.101-0.65c0.699-0.1,1.533-0.1,2.5,0
					c0.933,0.1,1.716,0.267,2.35,0.5C417.116,66.982,417.366,67.133,417.5,67.266z"/>
				
					<linearGradient id="SVGID_44_" gradientUnits="userSpaceOnUse" x1="-429.1929" y1="-135.1074" x2="-422.3041" y2="-135.1074" gradientTransform="matrix(-0.9942 -0.1078 0.1078 -0.9942 5.4868 -112.261)">
					<stop  offset="0" style="stop-color:#B0B1AF"/>
					<stop  offset="0.5176" style="stop-color:#E1E1E1"/>
					<stop  offset="1" style="stop-color:#878584"/>
				</linearGradient>
				<path fill-rule="evenodd" clip-rule="evenodd" fill="url(#SVGID_44_)" d="M410.8,67.066c0.001,0.034,0.051,0.101,0.15,0.2
					c0.066,0.167,0.333,0.35,0.8,0.55c0.634,0.267,1.434,0.434,2.4,0.5c0.933,0.1,1.75,0.1,2.449,0c0.634-0.1,1-0.283,1.101-0.55
					v0.05c-0.033,0.3-0.4,0.517-1.101,0.65c-0.699,0.134-1.517,0.15-2.449,0.05c-0.967-0.067-1.767-0.25-2.4-0.55
					c-0.533-0.2-0.85-0.45-0.95-0.75C410.8,67.15,410.8,67.1,410.8,67.066z"/>
			</g>
		</g>
	</g>
	<g>
		
			<path fill-rule="evenodd" clip-rule="evenodd" fill="none" stroke="#4C4E50" stroke-linecap="round" stroke-linejoin="round" stroke-miterlimit="3" d="
			M380.15,39.916h-0.95c0,0.066-0.033,0.117-0.101,0.15c7.967,6.434,14.7,9.833,20.2,10.2c1.4,0.1,3.2,0.15,5.4,0.15
			c1.533,0.133,2.649,0.617,3.35,1.45c0.467,0.633,1.15,2.033,2.05,4.2c0.634,1.7,1.801,3.184,3.5,4.45
			c0.534,0.4,0.567,1.267,0.101,2.6c-0.467,1.433-0.566,2.35-0.3,2.75c0.199,0.333,0.783,0.933,1.75,1.8
			c0.8,0.867,1.166,1.65,1.1,2.35c-2.1,2.5-2.4,4.733-0.9,6.7c0.101,0.1,0.184,0.217,0.25,0.35c0.934,1.133,2.617,2.833,5.051,5.1
			 M354.55,82.966c-3.267-4.733-4.95-7.233-5.05-7.5c-0.634-1.633-0.2-3.866,1.3-6.7c1.4-2.733,1.934-5.583,1.601-8.55
			c-0.334-3.033,1.633-5.1,5.899-6.2c4.233-1.1,8.434-3.6,12.601-7.5c4.166-3.9,6.783-6.25,7.85-7.05c0.4-0.033,0.75-0.05,1.05-0.05
			 M391.6,68.766c-2.033-1.633-2.35-4-0.949-7.1c1.166-2.5-0.317-4.267-4.45-5.3c-1-0.267-1.967-0.767-2.9-1.5
			c-1.533-0.867-3.133-2.083-4.8-3.65c-0.267-0.233-0.517-0.483-0.75-0.75c-2.566-2.633-3.5-4.633-2.8-6
			c0.2-0.366,0.816-0.95,1.85-1.75c1-0.733,1.767-1.616,2.3-2.65c-0.1-0.167-0.216-0.367-0.35-0.6"/>
	</g>
	<g>
		
			<path fill-rule="evenodd" clip-rule="evenodd" fill="none" stroke="#000000" stroke-linecap="round" stroke-linejoin="round" stroke-miterlimit="3" d="
			M380.15,39.916h-0.95c0,0.066-0.033,0.117-0.101,0.15c7.367,5.434,12.801,8.383,16.301,8.85c3.566,0.4,6.416,0.767,8.55,1.1
			c2.033,0.4,3.533,0.917,4.5,1.55c1.066,0.567,1.934,1.9,2.6,4c0.733,2.1,1.7,3.383,2.9,3.85c1.267,0.467,1.583,1.483,0.95,3.05
			c-0.567,1.567-0.517,2.517,0.149,2.85c0.7,0.3,1.084,0.983,1.15,2.05c0.1,1.066,0.116,1.95,0.05,2.65
			c-1.233,2.833-1.467,4.966-0.7,6.4c0.066,0.033,0.134,0.133,0.2,0.3c0.866,1.3,2.5,3.117,4.9,5.45 M391.6,68.766
			c-0.633-1.934-0.633-4.25,0-6.95c0.634-2.633-0.383-4.566-3.05-5.8c-0.767-0.333-1.517-0.717-2.25-1.15
			c-2.333-1.134-4.75-2.6-7.25-4.4c-3.399-2.533-4.6-4.333-3.6-5.4c0.967-1.1,1.684-1.95,2.149-2.55c0.434-0.6,0.934-1.417,1.5-2.45
			c-0.1-0.167-0.216-0.367-0.35-0.6c-1.066,0.8-3.434,3.15-7.1,7.05c-3.7,3.9-7.667,6.4-11.9,7.5c-4.267,1.1-6.283,3.167-6.05,6.2
			c0.2,2.967-0.434,5.833-1.9,8.6c-1.434,2.8-1.816,4.684-1.149,5.65c0.666,0.934,1.966,3.767,3.899,8.5 M378.75,39.466
			c0.4-0.033,0.75-0.05,1.05-0.05"/>
	</g>
	<g>
		<path fill-rule="evenodd" clip-rule="evenodd" d="M376.1,14.416c1.267,0,2.351,0.467,3.25,1.4c0.9,0.967,1.351,2.083,1.351,3.35
			c0,1.3-0.45,2.417-1.351,3.35c-0.899,1-1.983,1.5-3.25,1.5c-1.233,0-2.283-0.5-3.149-1.5c-0.967-0.934-1.45-2.05-1.45-3.35
			c0-1.267,0.483-2.383,1.45-3.35C373.816,14.883,374.866,14.416,376.1,14.416z"/>
	</g>
	<g>
		<path fill-rule="evenodd" clip-rule="evenodd" fill="#151515" d="M379.25,18.666c0,0.033,0.017,0.1,0.05,0.2l-0.05,1.3l1,1.85
			v1.95l0.45,0.5c0.2,1.434,0.217,2.934,0.05,4.5c0,0.2,0,0.367,0,0.5c0.3,0.467,0.467,0.95,0.5,1.45c0,0.133,0,0.25,0,0.35
			l0.65,0.6c-0.167,1.866-0.034,3.483,0.399,4.85l0.05,0.2h-0.05c-0.1,0.066-0.149,0.117-0.149,0.15
			c-0.101,0.067-0.167,0.133-0.2,0.2c0,0.1,0,0.167,0,0.2c-0.033,0.1-0.05,0.233-0.05,0.4v0.05c0,0.066-0.017,0.167-0.051,0.3
			c-0.133,0.034-0.25,0.117-0.35,0.25c0,0.034-0.017,0.05-0.05,0.05c0,0.233-0.017,0.433-0.05,0.6c0.366,0.167,0.8,0.267,1.3,0.3
			c0.133,0.033,0.3,0.083,0.5,0.15c0.066,0.034,0.133,0.133,0.2,0.3l0.1,0.05c0.033,0.133,0.05,0.25,0.05,0.35
			c-0.033,0.267-0.05,0.583-0.05,0.95c0,0.4-0.066,0.75-0.2,1.05c0,0.133-0.066,0.267-0.2,0.4c-0.267,0.1-0.5,0.2-0.699,0.3
			c-0.067,0-0.15,0-0.25,0c-0.134-0.1-0.284-0.15-0.45-0.15c-0.033-0.033-0.101-0.083-0.2-0.15c0-0.133-0.033-0.2-0.1-0.2
			c-1.267-0.333-2.634-0.383-4.101-0.15c-0.1,0.067-0.233,0.117-0.399,0.15c-0.367,0.2-0.717,0.467-1.051,0.8
			c-0.033,0-0.116,0.066-0.25,0.2c-0.5,0.2-0.949,0.15-1.35-0.15c-0.033,0-0.066-0.017-0.1-0.05c-0.101,0-0.167-0.034-0.2-0.1
			s-0.084-0.2-0.15-0.4c-0.033-0.133-0.033-0.284,0-0.45c0.066-0.066,0.101-0.15,0.101-0.25c0.166-0.133,0.283-0.3,0.35-0.5
			c0.167-0.433,0.4-0.816,0.7-1.15c0.1,0,0.2-0.1,0.3-0.3c-0.1-0.134-0.217-0.217-0.35-0.25c0.033-0.1,0.033-0.2,0-0.3
			c-0.034,0-0.084-0.033-0.15-0.1c0-0.066,0-0.15,0-0.25c0.1-0.066,0.167-0.15,0.2-0.25c0.033-0.167,0.05-0.316,0.05-0.45
			c0.066-0.4,0.116-0.817,0.15-1.25c0.066-0.467,0.1-0.934,0.1-1.4c-0.033-0.1-0.116-0.217-0.25-0.35c-0.033-0.034-0.033-0.1,0-0.2
			l-0.05-0.1c0-0.1,0-0.167,0-0.2c0-0.133,0.017-0.25,0.05-0.35c0-0.033,0-0.117,0-0.25c0-0.033,0-0.066,0-0.1
			c0.066-0.133,0.066-0.216,0-0.25c-0.033,0-0.066-0.05-0.1-0.15l-0.15-0.15c0.066-0.2,0.1-0.383,0.1-0.55
			c0.034-0.167,0.051-0.35,0.051-0.55c0.033-0.133,0.05-0.3,0.05-0.5c-0.367-1.767-0.384-3.617-0.05-5.55
			c0.033-0.267,0.017-0.483-0.051-0.65c-0.066-0.066-0.116-0.15-0.149-0.25h-0.05c-0.034-0.066-0.117-0.15-0.25-0.25
			c-0.067-0.033-0.101-0.066-0.101-0.1c0-0.1-0.017-0.167-0.05-0.2c0-0.033-0.017-0.083-0.05-0.15c0-0.1,0.017-0.267,0.05-0.5
			c-0.134-0.233-0.25-0.517-0.35-0.85c0.033-0.066,0.033-0.1,0-0.1c-0.101-0.066-0.167-0.183-0.2-0.35v-0.15c0-0.133,0-0.233,0-0.3
			l0.05-0.2c0-0.5,0.017-1,0.05-1.5c-0.1-0.167-0.2-0.383-0.3-0.65c-0.033-0.033-0.033-0.1,0-0.2v-0.15
			c0-0.133,0.017-0.25,0.05-0.35c0-0.033-0.017-0.1-0.05-0.2c0-0.034,0-0.067,0-0.1c0.1-0.133,0.184-0.217,0.25-0.25
			c0-0.033,0.05-0.083,0.15-0.15c0.033-0.1,0.066-0.184,0.1-0.25c0.2-0.034,0.35-0.05,0.45-0.05c0.166,0,0.333-0.033,0.5-0.1H375
			c0.167-0.2,0.3-0.333,0.4-0.4c0.166-0.2,0.3-0.3,0.399-0.3c0.066-0.1,0.15-0.167,0.25-0.2c0.101-0.1,0.233-0.15,0.4-0.15
			c0.399-0.033,0.8-0.05,1.2-0.05c0.1,0,0.166,0,0.199,0c0.134,0.033,0.233,0.05,0.301,0.05c0.1,0.1,0.199,0.15,0.3,0.15
			c0.066,0.067,0.1,0.134,0.1,0.2c0.033,0,0.084,0.017,0.15,0.05c0.166-0.033,0.283-0.05,0.35-0.05
			C379.083,18.149,379.15,18.399,379.25,18.666z"/>
	</g>
	<g>
		<path fill-rule="evenodd" clip-rule="evenodd" fill="#616161" fill-opacity="0.4627" d="M375.8,16.366l0.3-0.1l1.25,0.85
			c0,0.066,0.017,0.116,0.051,0.15v0.05c-0.034,0.067-0.067,0.117-0.101,0.15c-0.333,0.134-0.316,0.45,0.05,0.95
			c-0.466,0.066-0.683,0.15-0.649,0.25c0,0.167,0.066,0.283,0.2,0.35c0.133,0.1,0.416,0.3,0.85,0.6c-0.3,0.167-0.434,0.366-0.4,0.6
			v0.1l-0.05,0.05c-0.033,0-0.083,0.017-0.149,0.05c-0.067,0-0.134,0.017-0.2,0.05c0.2,0.167,0.35,0.3,0.45,0.4
			c0.1,0.033,0.149,0.267,0.149,0.7c0,0.233-0.083,0.467-0.25,0.7c-0.1,0.066-0.149,0.216-0.149,0.45
			c-0.034,0.333,0.05,0.55,0.25,0.65c0.233,0.233,0.35,0.433,0.35,0.6c0,0.167-0.083,0.35-0.25,0.55c-0.1,0.1-0.15,0.216-0.15,0.35
			c-0.033,0.4,0.434,0.9,1.4,1.5c-0.9,0.167-1.316,0.366-1.25,0.6c0.866,0,1.366,0.05,1.5,0.15c-0.2,0.167-0.667,0.4-1.4,0.7
			c0.733,0.233,1.2,0.55,1.4,0.95c-0.833,0.667-1.083,1.75-0.75,3.25c0.5,2.466,0.75,4.45,0.75,5.95v0.05l-0.4,1.3
			c0,0.1,0.034,0.184,0.101,0.25c0.033,0.034,0.05,0.067,0.05,0.1s-0.017,0.083-0.05,0.15c-0.066,0.034-0.117,0.05-0.15,0.05
			s-0.066-0.017-0.1-0.05c-0.134-0.133-0.184-0.333-0.15-0.6l0.4-1.25c-0.066-0.866-0.267-2.017-0.601-3.45
			c-0.633-0.067-1.066-0.267-1.3-0.6c0.834-0.8,1.184-1.55,1.05-2.25c-0.033-0.133-0.383-0.233-1.05-0.3
			c0.3-0.367,0.634-0.833,1-1.4c-0.467,0.034-0.916-0.083-1.35-0.35c0.866-0.667,0.583-0.967-0.851-0.9
			c0.5-0.366,0.867-0.683,1.101-0.95c0.066-0.267-0.184-0.5-0.75-0.7c0.166-0.233,0.483-0.433,0.95-0.6
			c0.033-0.566,0.083-1.1,0.149-1.6c-0.066-0.233,0-0.434,0.2-0.6v0.05c0.066-0.167,0.116-0.283,0.15-0.35
			c-0.034-0.1-0.117-0.2-0.25-0.3h0.1c-0.267-0.233-0.4-0.55-0.4-0.95c-0.033-0.233-0.333-0.417-0.899-0.55
			c0.666-0.066,1.033-0.117,1.1-0.15v0.05c0.134-0.167-0.333-0.417-1.399-0.75c1-0.1,1.5-0.167,1.5-0.2h0.1
			c-0.2-0.067-0.417-0.25-0.65-0.55c-0.033-0.066-0.033-0.117,0-0.15c-0.033-0.033-0.033-0.066,0-0.1
			c0.134-0.133-0.133-0.283-0.8-0.45c0.7-0.267,1-0.467,0.9-0.6c-0.2-0.167-0.3-0.367-0.3-0.6c-0.034-0.233-0.334-0.4-0.9-0.5
			c0.7-0.434,1.184-0.733,1.45-0.9l-2-0.75L375.8,16.366z"/>
		<radialGradient id="SVGID_45_" cx="379.2246" cy="40.416" r="2.0767" gradientUnits="userSpaceOnUse">
			<stop  offset="0" style="stop-color:#BDBDBD;stop-opacity:0.8314"/>
			<stop  offset="1" style="stop-color:#A9A9A9;stop-opacity:0"/>
		</radialGradient>
		<path fill-rule="evenodd" clip-rule="evenodd" fill="url(#SVGID_45_)" d="M377.15,40.366c0.166,0.333,0,0.55-0.5,0.65
			c-0.2,0-0.301-0.117-0.301-0.35c0-0.267,0.2-0.367,0.601-0.3c0.066,0,0.116,0,0.149,0H377.15z M380.3,39.816
			c0.3,0,0.584,0.017,0.851,0.05c0.033,0,0.066,0.017,0.1,0.05c0.1,0.1,0.184,0.184,0.25,0.25c0,0.066,0.033,0.1,0.1,0.1
			c0.101,0.033,0.217,0.066,0.351,0.1c0.033,0.033,0.083,0.083,0.149,0.15c-0.066,0.033-0.116,0.05-0.149,0.05c-0.2,0-0.4,0-0.601,0
			c-0.066,0-0.116-0.017-0.149-0.05c-0.066-0.1-0.15-0.184-0.25-0.25v-0.1c-0.533,0.133-0.767,0.033-0.7-0.3
			C380.25,39.833,380.267,39.816,380.3,39.816z"/>
	</g>
	<g>
		<g>
			
				<radialGradient id="SVGID_46_" cx="-421.5498" cy="-198.6338" r="8.0125" gradientTransform="matrix(-1 0 0 0.5195 0 189.1563)" gradientUnits="userSpaceOnUse">
				<stop  offset="0" style="stop-color:#797A76"/>
				<stop  offset="1" style="stop-color:#181412"/>
			</radialGradient>
			<path fill-rule="evenodd" clip-rule="evenodd" fill="url(#SVGID_46_)" d="M416.95,84.816v-0.05c0-0.567,0.45-1.034,1.35-1.4
				c0.934-0.333,2.05-0.5,3.351-0.5c1.3,0,2.399,0.167,3.3,0.5c0.934,0.366,1.399,0.833,1.399,1.4v0.05
				c-0.033,0.467-0.5,0.867-1.399,1.2c-0.9,0.367-2,0.55-3.3,0.55c-1.301,0-2.417-0.183-3.351-0.55
				C417.434,85.683,416.983,85.283,416.95,84.816z"/>
			<linearGradient id="SVGID_47_" gradientUnits="userSpaceOnUse" x1="416.9502" y1="85.8159" x2="426.3496" y2="85.8159">
				<stop  offset="0" style="stop-color:#797A76"/>
				<stop  offset="1" style="stop-color:#181412"/>
			</linearGradient>
			<path fill-rule="evenodd" clip-rule="evenodd" fill="url(#SVGID_47_)" d="M416.95,84.816c0.033,0.467,0.483,0.867,1.35,1.2
				c0.934,0.367,2.05,0.55,3.351,0.55c1.3,0,2.399-0.183,3.3-0.55c0.899-0.333,1.366-0.733,1.399-1.2c0,0.034,0,0.067,0,0.1
				c0,0.533-0.466,0.983-1.399,1.35c-0.9,0.367-2,0.55-3.3,0.55c-1.301,0-2.417-0.183-3.351-0.55c-0.899-0.367-1.35-0.817-1.35-1.35
				C416.95,84.883,416.95,84.85,416.95,84.816z"/>
		</g>
		<g>
			
				<radialGradient id="SVGID_48_" cx="-423.7998" cy="-198.4844" r="2.3626" gradientTransform="matrix(-1 0 0 1.2751 0 338.9098)" gradientUnits="userSpaceOnUse">
				<stop  offset="0" style="stop-color:#C5C5C2"/>
				<stop  offset="1" style="stop-color:#C1C1BE;stop-opacity:0"/>
			</radialGradient>
			<path fill-rule="evenodd" clip-rule="evenodd" fill="url(#SVGID_48_)" d="M423,86.216c0.767-0.1,1.417-0.267,1.95-0.5
				c0.467-0.233,0.816-0.366,1.05-0.4c-0.2,0.167-0.483,0.35-0.85,0.55c-0.601,0.3-1.317,0.466-2.15,0.5c-0.833,0.1-1.467,0.1-1.9,0
				C421.6,86.333,422.233,86.283,423,86.216z"/>
		</g>
	</g>
	<g>
		<g>
			
				<linearGradient id="SVGID_49_" gradientUnits="userSpaceOnUse" x1="-712.2749" y1="-197.0586" x2="-384.9246" y2="-197.0586" gradientTransform="matrix(-1 0 0 -1 0 -112.668)">
				<stop  offset="0" style="stop-color:#797A76"/>
				<stop  offset="1" style="stop-color:#181412"/>
			</linearGradient>
			<path fill-rule="evenodd" clip-rule="evenodd" fill="url(#SVGID_49_)" d="M418.4,83.716c0.033,0.3,0.35,0.583,0.949,0.85
				c0.634,0.233,1.384,0.35,2.25,0.35c0.834,0,1.567-0.117,2.2-0.35c0.601-0.267,0.917-0.55,0.95-0.85v0.1
				c0,0.333-0.316,0.617-0.95,0.85c-0.633,0.267-1.366,0.4-2.2,0.4c-0.866,0-1.616-0.133-2.25-0.4
				c-0.633-0.233-0.949-0.517-0.949-0.85V83.716z"/>
			
				<radialGradient id="SVGID_50_" cx="-421.5" cy="-197.084" r="5.4" gradientTransform="matrix(-1 0 0 0.5162 0 186.1516)" gradientUnits="userSpaceOnUse">
				<stop  offset="0" style="stop-color:#797A76"/>
				<stop  offset="1" style="stop-color:#181412"/>
			</radialGradient>
			<path fill-rule="evenodd" clip-rule="evenodd" fill="url(#SVGID_50_)" d="M424.75,83.716c-0.033,0.3-0.35,0.583-0.95,0.85
				c-0.633,0.233-1.366,0.35-2.2,0.35c-0.866,0-1.616-0.117-2.25-0.35c-0.6-0.267-0.916-0.55-0.949-0.85c0-0.033,0-0.066,0-0.1
				c0-0.333,0.316-0.634,0.949-0.9c0.634-0.233,1.384-0.35,2.25-0.35c0.834,0,1.567,0.116,2.2,0.35c0.634,0.267,0.95,0.567,0.95,0.9
				C424.75,83.649,424.75,83.683,424.75,83.716z"/>
		</g>
		<g>
			
				<radialGradient id="SVGID_51_" cx="-423.0498" cy="-197.0342" r="1.6" gradientTransform="matrix(-1 0 0 1.2734 0 335.2774)" gradientUnits="userSpaceOnUse">
				<stop  offset="0" style="stop-color:#C5C5C2"/>
				<stop  offset="1" style="stop-color:#C1C1BE;stop-opacity:0"/>
			</radialGradient>
			<path fill-rule="evenodd" clip-rule="evenodd" fill="url(#SVGID_51_)" d="M424.65,83.816c-0.101,0.2-0.334,0.4-0.7,0.6
				c-0.4,0.233-0.884,0.367-1.45,0.4c-0.6,0.034-1.017,0.017-1.25-0.05c0.333,0,0.75-0.05,1.25-0.15c0.5-0.034,0.934-0.134,1.3-0.3
				c0.334-0.133,0.566-0.25,0.7-0.35L424.65,83.816z"/>
		</g>
	</g>
	<g>
		<g>
			
				<linearGradient id="SVGID_52_" gradientUnits="userSpaceOnUse" x1="-360.9751" y1="-213.6592" x2="-353.1245" y2="-213.6592" gradientTransform="matrix(-1 0 0 -1 0 -112.668)">
				<stop  offset="0" style="stop-color:#B0B1AF"/>
				<stop  offset="0.5176" style="stop-color:#E1E1E1"/>
				<stop  offset="1" style="stop-color:#878584"/>
			</linearGradient>
			<path fill-rule="evenodd" clip-rule="evenodd" fill="url(#SVGID_52_)" d="M353.1,101.116l7.65-0.6c0.1,0.1,0.167,0.216,0.2,0.35
				l-7.7,0.6c-0.097-0.064-0.146-0.147-0.15-0.25V101.116z"/>
			
				<linearGradient id="SVGID_53_" gradientUnits="userSpaceOnUse" x1="-361.0498" y1="-214.6841" x2="-353.1494" y2="-214.6841" gradientTransform="matrix(-1 0 0 -1 0 -112.668)">
				<stop  offset="0" style="stop-color:#B0B1AF"/>
				<stop  offset="0.5176" style="stop-color:#E1E1E1"/>
				<stop  offset="1" style="stop-color:#878584"/>
			</linearGradient>
			<path fill-rule="evenodd" clip-rule="evenodd" fill="url(#SVGID_53_)" d="M353.1,101.216c0.004,0.103,0.054,0.186,0.15,0.25
				c0.167,0.267,0.5,0.5,1,0.7c0.8,0.3,1.75,0.45,2.85,0.45c1.101,0,2.017-0.15,2.75-0.45s1.117-0.633,1.15-1v0.05
				c0,0.467-0.384,0.85-1.15,1.15c-0.733,0.333-1.649,0.5-2.75,0.5c-1.1,0-2.05-0.167-2.85-0.5c-0.634-0.267-1.017-0.567-1.15-0.9
				C353.1,101.401,353.1,101.318,353.1,101.216z"/>
			<path fill-rule="evenodd" clip-rule="evenodd" fill="#666662" d="M360.75,100.516l-7.65,0.6c0-0.467,0.384-0.867,1.15-1.2
				c0.8-0.267,1.75-0.4,2.85-0.4c1.101,0,2.017,0.133,2.75,0.4C360.283,100.116,360.583,100.316,360.75,100.516z M353.25,101.466
				l7.7-0.6c0.033,0.033,0.05,0.116,0.05,0.25v0.05c-0.033,0.367-0.417,0.7-1.15,1s-1.649,0.45-2.75,0.45
				c-1.1,0-2.05-0.15-2.85-0.45C353.75,101.966,353.417,101.732,353.25,101.466z"/>
		</g>
	</g>
	<g>
		<g>
			
				<linearGradient id="SVGID_54_" gradientUnits="userSpaceOnUse" x1="-324.4502" y1="-214.0479" x2="-317.5562" y2="-214.0479" gradientTransform="matrix(-0.9968 0.0803 -0.0803 -0.9968 -4.8062 -112.6626)">
				<stop  offset="0" style="stop-color:#B0B1AF"/>
				<stop  offset="0.5176" style="stop-color:#E1E1E1"/>
				<stop  offset="1" style="stop-color:#878584"/>
			</linearGradient>
			<path fill-rule="evenodd" clip-rule="evenodd" fill="url(#SVGID_54_)" d="M328.95,74.666c0.166,0.233,0.483,0.417,0.95,0.55
				c0.699,0.2,1.533,0.267,2.5,0.2c0.966-0.1,1.75-0.3,2.35-0.6c0.6-0.267,0.917-0.55,0.95-0.85c0.033,0.367-0.283,0.717-0.95,1.05
				c-0.6,0.333-1.384,0.55-2.35,0.65c-0.967,0.066-1.801-0.017-2.5-0.25c-0.567-0.233-0.934-0.483-1.101-0.75c0-0.065,0-0.132,0-0.2
				C328.802,74.534,328.852,74.601,328.95,74.666z"/>
			
				<linearGradient id="SVGID_55_" gradientUnits="userSpaceOnUse" x1="-322.3218" y1="-211.8403" x2="-315.4522" y2="-211.8403" gradientTransform="matrix(-0.9971 0.0764 -0.0905 -0.996 -4.9339 -112.6407)">
				<stop  offset="0" style="stop-color:#B0B1AF"/>
				<stop  offset="0.5176" style="stop-color:#E1E1E1"/>
				<stop  offset="1" style="stop-color:#878584"/>
			</linearGradient>
			<path fill-rule="evenodd" clip-rule="evenodd" fill="url(#SVGID_55_)" d="M328.8,74.316l6.601-1c0.066,0.1,0.149,0.2,0.25,0.3
				l-6.7,1.05c-0.099-0.065-0.148-0.132-0.15-0.2V74.316z"/>
			<path fill-rule="evenodd" clip-rule="evenodd" fill="#666662" d="M335.65,73.616c0.033,0.066,0.05,0.133,0.05,0.2v0.15
				c-0.033,0.3-0.351,0.583-0.95,0.85c-0.6,0.3-1.384,0.5-2.35,0.6c-0.967,0.066-1.801,0-2.5-0.2
				c-0.467-0.133-0.784-0.316-0.95-0.55L335.65,73.616z M328.8,74.316c-0.033-0.367,0.283-0.716,0.95-1.05
				c0.634-0.3,1.434-0.483,2.4-0.55c0.966-0.1,1.783-0.05,2.449,0.15c0.4,0.133,0.667,0.283,0.801,0.45L328.8,74.316z"/>
		</g>
	</g>
	<g>
		<g>
			
				<linearGradient id="SVGID_56_" gradientUnits="userSpaceOnUse" x1="-476.8672" y1="-96.7075" x2="-468.9719" y2="-96.7075" gradientTransform="matrix(-0.972 -0.235 0.235 -0.972 13.5421 -111.3359)">
				<stop  offset="0" style="stop-color:#B0B1AF"/>
				<stop  offset="0.5176" style="stop-color:#E1E1E1"/>
				<stop  offset="1" style="stop-color:#878584"/>
			</linearGradient>
			<path fill-rule="evenodd" clip-rule="evenodd" fill="url(#SVGID_56_)" d="M446.85,92.066c-0.031,0.103-0.014,0.203,0.051,0.3
				c0.1,0.3,0.366,0.616,0.8,0.95c0.733,0.434,1.633,0.784,2.7,1.05c1.033,0.233,1.949,0.333,2.75,0.3
				c0.767-0.133,1.216-0.383,1.35-0.75v0.05c-0.134,0.467-0.6,0.733-1.4,0.8c-0.8,0.133-1.716,0.083-2.75-0.15
				c-1.066-0.267-1.983-0.65-2.75-1.15c-0.5-0.366-0.767-0.75-0.8-1.15C446.8,92.251,446.816,92.168,446.85,92.066z"/>
			<path fill-rule="evenodd" clip-rule="evenodd" fill="#666662" d="M446.9,92.366l7.6,1.2c0.033,0.067,0.033,0.15,0,0.25v0.1
				c-0.134,0.367-0.583,0.617-1.35,0.75c-0.801,0.033-1.717-0.066-2.75-0.3c-1.067-0.267-1.967-0.617-2.7-1.05
				C447.267,92.982,447,92.666,446.9,92.366z M446.85,91.966c0.134-0.466,0.601-0.75,1.4-0.85c0.833-0.067,1.783,0.017,2.85,0.25
				c1.034,0.267,1.917,0.633,2.65,1.1c0.333,0.233,0.533,0.483,0.6,0.75L446.85,91.966z"/>
			
				<linearGradient id="SVGID_57_" gradientUnits="userSpaceOnUse" x1="-476.8672" y1="-94.8682" x2="-468.9966" y2="-94.8682" gradientTransform="matrix(-0.9718 -0.2357 0.2357 -0.9718 13.4538 -110.8555)">
				<stop  offset="0" style="stop-color:#B0B1AF"/>
				<stop  offset="0.5176" style="stop-color:#E1E1E1"/>
				<stop  offset="1" style="stop-color:#878584"/>
			</linearGradient>
			<path fill-rule="evenodd" clip-rule="evenodd" fill="url(#SVGID_57_)" d="M446.85,92.066v-0.1l7.5,1.25
				c0.101,0.134,0.15,0.25,0.15,0.35l-7.6-1.2C446.836,92.269,446.818,92.169,446.85,92.066z"/>
		</g>
	</g>
	<g>
		<path fill-rule="evenodd" clip-rule="evenodd" d="M419.65,83.466c0-0.1,0.166-0.2,0.5-0.3c0.333-0.033,0.75-0.05,1.25-0.05
			c0.466,0,0.866,0.017,1.199,0.05c0.334,0.1,0.5,0.184,0.5,0.25c0,0.133-0.166,0.233-0.5,0.3c-0.333,0.1-0.733,0.15-1.199,0.15
			c-0.5,0-0.917-0.05-1.25-0.15C419.816,83.649,419.65,83.566,419.65,83.466z"/>
	</g>
	<g>
		
			<radialGradient id="SVGID_58_" cx="-421.8501" cy="-193.084" r="2.225" gradientTransform="matrix(-1 0 0 0.3989 0 157.4326)" gradientUnits="userSpaceOnUse">
			<stop  offset="0" style="stop-color:#5A5A57"/>
			<stop  offset="1" style="stop-color:#181412"/>
		</radialGradient>
		<path fill-rule="evenodd" clip-rule="evenodd" fill="url(#SVGID_58_)" d="M422.85,81.216c-0.366,0.134-0.816,0.2-1.35,0.2
			c-0.566,0-1.033-0.066-1.4-0.2h-0.149c-0.334-0.1-0.5-0.233-0.5-0.4v-0.05c0-0.167,0.217-0.284,0.649-0.35
			c0.367-0.2,0.834-0.3,1.4-0.3c0.533,0,0.983,0.1,1.35,0.3c0.434,0.066,0.65,0.184,0.65,0.35v0.05
			C423.5,80.982,423.283,81.116,422.85,81.216z"/>
		
			<radialGradient id="SVGID_59_" cx="-421.8501" cy="-194.834" r="1.0875" gradientTransform="matrix(-1 0 0 1.977 0 467.3547)" gradientUnits="userSpaceOnUse">
			<stop  offset="0" style="stop-color:#5A5A57"/>
			<stop  offset="0.2392" style="stop-color:#302D2B"/>
			<stop  offset="1" style="stop-color:#181412"/>
		</radialGradient>
		<path fill-rule="evenodd" clip-rule="evenodd" fill="url(#SVGID_59_)" d="M422.85,81.216v2.2c-0.899,0.3-1.816,0.3-2.75,0
			l-0.149-2.2h0.149c0.367,0.134,0.834,0.2,1.4,0.2C422.033,81.416,422.483,81.35,422.85,81.216z"/>
	</g>
	<g>
		<g>
			
				<radialGradient id="SVGID_60_" cx="-390.5498" cy="-182.1841" r="8.0125" gradientTransform="matrix(-1 0 0 0.5195 0 164.1609)" gradientUnits="userSpaceOnUse">
				<stop  offset="0" style="stop-color:#797A76"/>
				<stop  offset="1" style="stop-color:#181412"/>
			</radialGradient>
			<path fill-rule="evenodd" clip-rule="evenodd" fill="url(#SVGID_60_)" d="M395.35,68.416c-0.033,0.467-0.5,0.867-1.399,1.2
				c-0.867,0.366-1.967,0.55-3.3,0.55c-1.301,0-2.4-0.184-3.301-0.55c-0.899-0.333-1.366-0.733-1.399-1.2v-0.1
				c0-0.533,0.467-0.983,1.399-1.35c0.9-0.333,2-0.5,3.301-0.5c1.333,0,2.433,0.167,3.3,0.5c0.934,0.367,1.399,0.817,1.399,1.35
				V68.416z"/>
			<linearGradient id="SVGID_61_" gradientUnits="userSpaceOnUse" x1="385.9502" y1="69.416" x2="395.3496" y2="69.416">
				<stop  offset="0" style="stop-color:#797A76"/>
				<stop  offset="1" style="stop-color:#181412"/>
			</linearGradient>
			<path fill-rule="evenodd" clip-rule="evenodd" fill="url(#SVGID_61_)" d="M395.35,68.416c0,0.033,0,0.066,0,0.1
				c0,0.5-0.466,0.95-1.399,1.35c-0.867,0.366-1.967,0.55-3.3,0.55c-1.301,0-2.4-0.184-3.301-0.55c-0.933-0.4-1.399-0.85-1.399-1.35
				c0-0.034,0-0.067,0-0.1c0.033,0.467,0.5,0.867,1.399,1.2c0.9,0.366,2,0.55,3.301,0.55c1.333,0,2.433-0.184,3.3-0.55
				C394.85,69.283,395.316,68.883,395.35,68.416z"/>
		</g>
		<g>
			
				<radialGradient id="SVGID_62_" cx="-392.7998" cy="-182.084" r="2.3625" gradientTransform="matrix(-1 0 0 1.2751 0 301.5968)" gradientUnits="userSpaceOnUse">
				<stop  offset="0" style="stop-color:#C5C5C2"/>
				<stop  offset="1" style="stop-color:#C1C1BE;stop-opacity:0"/>
			</radialGradient>
			<path fill-rule="evenodd" clip-rule="evenodd" fill="url(#SVGID_62_)" d="M394.15,69.466c-0.601,0.3-1.317,0.467-2.15,0.5
				c-0.833,0.1-1.467,0.1-1.9,0c0.5-0.033,1.134-0.1,1.9-0.2c0.767-0.067,1.417-0.233,1.95-0.5c0.467-0.2,0.833-0.317,1.1-0.35
				C394.816,69.083,394.517,69.266,394.15,69.466z"/>
		</g>
	</g>
	<g>
		<g>
			
				<linearGradient id="SVGID_63_" gradientUnits="userSpaceOnUse" x1="-681.2749" y1="-180.6592" x2="-353.9246" y2="-180.6592" gradientTransform="matrix(-1 0 0 -1 0 -112.668)">
				<stop  offset="0" style="stop-color:#797A76"/>
				<stop  offset="1" style="stop-color:#181412"/>
			</linearGradient>
			<path fill-rule="evenodd" clip-rule="evenodd" fill="url(#SVGID_63_)" d="M387.4,67.316c0.033,0.3,0.35,0.583,0.949,0.85
				c0.634,0.233,1.384,0.35,2.25,0.35c0.834,0,1.567-0.117,2.2-0.35c0.601-0.267,0.917-0.55,0.95-0.85v0.05
				c0,0.366-0.316,0.667-0.95,0.9c-0.633,0.267-1.366,0.4-2.2,0.4c-0.866,0-1.616-0.133-2.25-0.4
				c-0.633-0.233-0.949-0.534-0.949-0.9V67.316z"/>
			
				<radialGradient id="SVGID_64_" cx="-390.5" cy="-180.6841" r="5.4" gradientTransform="matrix(-1 0 0 0.5162 0 161.286)" gradientUnits="userSpaceOnUse">
				<stop  offset="0" style="stop-color:#797A76"/>
				<stop  offset="1" style="stop-color:#181412"/>
			</radialGradient>
			<path fill-rule="evenodd" clip-rule="evenodd" fill="url(#SVGID_64_)" d="M387.4,67.316c0-0.033,0-0.066,0-0.1
				c0-0.333,0.316-0.633,0.949-0.9c0.634-0.267,1.384-0.4,2.25-0.4c0.834,0,1.567,0.133,2.2,0.4c0.634,0.267,0.95,0.567,0.95,0.9
				c0,0.034,0,0.067,0,0.1c-0.033,0.3-0.35,0.583-0.95,0.85c-0.633,0.233-1.366,0.35-2.2,0.35c-0.866,0-1.616-0.117-2.25-0.35
				C387.75,67.899,387.434,67.616,387.4,67.316z"/>
		</g>
		<g>
			
				<radialGradient id="SVGID_65_" cx="-392.0498" cy="-180.6338" r="1.6" gradientTransform="matrix(-1 0 0 1.2734 0 297.9921)" gradientUnits="userSpaceOnUse">
				<stop  offset="0" style="stop-color:#C5C5C2"/>
				<stop  offset="1" style="stop-color:#C1C1BE;stop-opacity:0"/>
			</radialGradient>
			<path fill-rule="evenodd" clip-rule="evenodd" fill="url(#SVGID_65_)" d="M392.95,68.016c-0.367,0.2-0.851,0.333-1.45,0.4
				c-0.6,0.033-1.017,0-1.25-0.1c0.333,0,0.75-0.033,1.25-0.1c0.5-0.033,0.934-0.133,1.3-0.3c0.334-0.133,0.566-0.25,0.7-0.35
				l0.15-0.2C393.55,67.6,393.316,67.816,392.95,68.016z"/>
		</g>
	</g>
	<g>
		<path fill-rule="evenodd" clip-rule="evenodd" d="M389.15,67.316c-0.334-0.066-0.5-0.15-0.5-0.25c0-0.133,0.166-0.233,0.5-0.3
			c0.333-0.034,0.75-0.05,1.25-0.05c0.466,0,0.866,0.017,1.199,0.05c0.367,0.066,0.551,0.15,0.551,0.25
			c0,0.133-0.184,0.233-0.551,0.3c-0.333,0.1-0.733,0.15-1.199,0.15C389.9,67.466,389.483,67.416,389.15,67.316z"/>
	</g>
	<g>
		
			<radialGradient id="SVGID_66_" cx="-390.8501" cy="-176.6338" r="2.225" gradientTransform="matrix(-1 0 0 0.3989 0 134.4208)" gradientUnits="userSpaceOnUse">
			<stop  offset="0" style="stop-color:#5A5A57"/>
			<stop  offset="1" style="stop-color:#181412"/>
		</radialGradient>
		<path fill-rule="evenodd" clip-rule="evenodd" fill="url(#SVGID_66_)" d="M391.85,64.816c-0.366,0.1-0.816,0.15-1.35,0.15
			c-0.566,0-1.033-0.05-1.4-0.15h-0.149c-0.334-0.1-0.5-0.233-0.5-0.4v-0.05c0-0.167,0.217-0.3,0.649-0.4
			c0.367-0.167,0.834-0.25,1.4-0.25c0.533,0,0.983,0.083,1.35,0.25c0.434,0.1,0.65,0.233,0.65,0.4v0.05
			C392.5,64.583,392.283,64.716,391.85,64.816z"/>
		
			<radialGradient id="SVGID_67_" cx="-390.8501" cy="-178.4341" r="1.0875" gradientTransform="matrix(-1 0 0 1.977 0 418.532)" gradientUnits="userSpaceOnUse">
			<stop  offset="0" style="stop-color:#5A5A57"/>
			<stop  offset="0.2392" style="stop-color:#302D2B"/>
			<stop  offset="1" style="stop-color:#181412"/>
		</radialGradient>
		<path fill-rule="evenodd" clip-rule="evenodd" fill="url(#SVGID_67_)" d="M391.85,64.816v2.2c-0.899,0.3-1.816,0.3-2.75,0
			l-0.149-2.2h0.149c0.367,0.1,0.834,0.15,1.4,0.15C391.033,64.966,391.483,64.916,391.85,64.816z"/>
	</g>
	<g>
		<g>
			<linearGradient id="SVGID_68_" gradientUnits="userSpaceOnUse" x1="350.5498" y1="85.8159" x2="359.9502" y2="85.8159">
				<stop  offset="0" style="stop-color:#797A76"/>
				<stop  offset="1" style="stop-color:#181412"/>
			</linearGradient>
			<path fill-rule="evenodd" clip-rule="evenodd" fill="url(#SVGID_68_)" d="M359.95,84.816c0,0.034,0,0.067,0,0.1
				c0,0.533-0.467,0.983-1.4,1.35c-0.899,0.367-2,0.55-3.3,0.55s-2.417-0.183-3.35-0.55c-0.9-0.367-1.351-0.817-1.351-1.35
				c0-0.033,0-0.066,0-0.1c0.033,0.467,0.483,0.867,1.351,1.2c0.933,0.367,2.05,0.55,3.35,0.55s2.4-0.183,3.3-0.55
				C359.417,85.683,359.884,85.283,359.95,84.816z"/>
			
				<radialGradient id="SVGID_69_" cx="-355.1499" cy="-198.6338" r="8.0125" gradientTransform="matrix(-1 0 0 0.5195 0 189.1563)" gradientUnits="userSpaceOnUse">
				<stop  offset="0" style="stop-color:#797A76"/>
				<stop  offset="1" style="stop-color:#181412"/>
			</radialGradient>
			<path fill-rule="evenodd" clip-rule="evenodd" fill="url(#SVGID_69_)" d="M350.55,84.816v-0.05c0-0.567,0.45-1.034,1.351-1.4
				c0.933-0.333,2.05-0.5,3.35-0.5s2.4,0.167,3.3,0.5c0.934,0.366,1.4,0.833,1.4,1.4v0.05c-0.066,0.467-0.533,0.867-1.4,1.2
				c-0.899,0.367-2,0.55-3.3,0.55s-2.417-0.183-3.35-0.55C351.033,85.683,350.583,85.283,350.55,84.816z"/>
		</g>
		<g>
			
				<radialGradient id="SVGID_70_" cx="-357.3999" cy="-198.4844" r="2.3626" gradientTransform="matrix(-1 0 0 1.2751 0 338.9098)" gradientUnits="userSpaceOnUse">
				<stop  offset="0" style="stop-color:#C5C5C2"/>
				<stop  offset="1" style="stop-color:#C1C1BE;stop-opacity:0"/>
			</radialGradient>
			<path fill-rule="evenodd" clip-rule="evenodd" fill="url(#SVGID_70_)" d="M356.6,86.216c0.733-0.1,1.384-0.267,1.95-0.5
				c0.467-0.233,0.816-0.366,1.05-0.4c-0.199,0.167-0.483,0.35-0.85,0.55c-0.6,0.3-1.316,0.466-2.15,0.5c-0.866,0.1-1.5,0.1-1.899,0
				C355.2,86.333,355.833,86.283,356.6,86.216z"/>
		</g>
	</g>
	<g>
		<g>
			
				<radialGradient id="SVGID_71_" cx="-355.0498" cy="-197.084" r="5.4" gradientTransform="matrix(-1 0 0 0.5162 0 186.1516)" gradientUnits="userSpaceOnUse">
				<stop  offset="0" style="stop-color:#797A76"/>
				<stop  offset="1" style="stop-color:#181412"/>
			</radialGradient>
			<path fill-rule="evenodd" clip-rule="evenodd" fill="url(#SVGID_71_)" d="M358.35,83.716c-0.033,0.3-0.35,0.583-0.949,0.85
				c-0.634,0.233-1.367,0.35-2.2,0.35c-0.9,0-1.667-0.117-2.3-0.35c-0.567-0.267-0.867-0.55-0.9-0.85c0-0.033,0-0.066,0-0.1
				c0-0.333,0.3-0.634,0.9-0.9c0.633-0.233,1.399-0.35,2.3-0.35c0.833,0,1.566,0.116,2.2,0.35c0.633,0.267,0.949,0.567,0.949,0.9
				C358.35,83.649,358.35,83.683,358.35,83.716z"/>
			
				<linearGradient id="SVGID_72_" gradientUnits="userSpaceOnUse" x1="-645.875" y1="-197.0586" x2="-318.5247" y2="-197.0586" gradientTransform="matrix(-1 0 0 -1 0 -112.668)">
				<stop  offset="0" style="stop-color:#797A76"/>
				<stop  offset="1" style="stop-color:#181412"/>
			</linearGradient>
			<path fill-rule="evenodd" clip-rule="evenodd" fill="url(#SVGID_72_)" d="M358.35,83.716v0.1c0,0.333-0.316,0.617-0.949,0.85
				c-0.634,0.267-1.367,0.4-2.2,0.4c-0.9,0-1.667-0.133-2.3-0.4c-0.601-0.233-0.9-0.517-0.9-0.85v-0.1
				c0.033,0.3,0.333,0.583,0.9,0.85c0.633,0.233,1.399,0.35,2.3,0.35c0.833,0,1.566-0.117,2.2-0.35
				C358,84.299,358.316,84.016,358.35,83.716z"/>
		</g>
		<g>
			
				<radialGradient id="SVGID_73_" cx="-356.6499" cy="-197.0342" r="1.6" gradientTransform="matrix(-1 0 0 1.2734 0 335.2774)" gradientUnits="userSpaceOnUse">
				<stop  offset="0" style="stop-color:#C5C5C2"/>
				<stop  offset="1" style="stop-color:#C1C1BE;stop-opacity:0"/>
			</radialGradient>
			<path fill-rule="evenodd" clip-rule="evenodd" fill="url(#SVGID_73_)" d="M358.25,83.816c-0.1,0.2-0.333,0.4-0.7,0.6
				c-0.399,0.233-0.883,0.367-1.45,0.4c-0.6,0.034-1.033,0.017-1.3-0.05c0.334,0,0.767-0.05,1.3-0.15
				c0.5-0.034,0.934-0.134,1.301-0.3c0.333-0.133,0.566-0.25,0.699-0.35L358.25,83.816z"/>
		</g>
	</g>
	<g>
		<path fill-rule="evenodd" clip-rule="evenodd" d="M353.25,83.466c0-0.1,0.167-0.2,0.5-0.3c0.333-0.033,0.75-0.05,1.25-0.05
			c0.467,0,0.866,0.017,1.2,0.05c0.333,0.1,0.5,0.184,0.5,0.25c0,0.133-0.167,0.233-0.5,0.3c-0.334,0.1-0.733,0.15-1.2,0.15
			c-0.5,0-0.917-0.05-1.25-0.15C353.417,83.649,353.25,83.566,353.25,83.466z"/>
	</g>
	<g>
		
			<radialGradient id="SVGID_74_" cx="-355.4502" cy="-193.084" r="2.225" gradientTransform="matrix(-1 0 0 0.3989 0 157.4326)" gradientUnits="userSpaceOnUse">
			<stop  offset="0" style="stop-color:#5A5A57"/>
			<stop  offset="1" style="stop-color:#181412"/>
		</radialGradient>
		<path fill-rule="evenodd" clip-rule="evenodd" fill="url(#SVGID_74_)" d="M356.45,81.216c-0.367,0.134-0.834,0.2-1.4,0.2
			c-0.533,0-0.983-0.066-1.35-0.2h-0.15c-0.333-0.1-0.5-0.233-0.5-0.4v-0.05c0-0.167,0.217-0.284,0.65-0.35
			c0.366-0.2,0.816-0.3,1.35-0.3c0.566,0,1.033,0.1,1.4,0.3c0.434,0.066,0.649,0.184,0.649,0.35v0.05
			C357.1,80.982,356.884,81.116,356.45,81.216z"/>
		
			<radialGradient id="SVGID_75_" cx="-355.4502" cy="-194.834" r="1.0875" gradientTransform="matrix(-1 0 0 1.977 0 467.3547)" gradientUnits="userSpaceOnUse">
			<stop  offset="0" style="stop-color:#5A5A57"/>
			<stop  offset="0.2392" style="stop-color:#302D2B"/>
			<stop  offset="1" style="stop-color:#181412"/>
		</radialGradient>
		<path fill-rule="evenodd" clip-rule="evenodd" fill="url(#SVGID_75_)" d="M356.45,81.216v2.2c-0.934,0.3-1.851,0.3-2.75,0
			l-0.15-2.2h0.15c0.366,0.134,0.816,0.2,1.35,0.2C355.616,81.416,356.083,81.35,356.45,81.216z"/>
	</g>
	<g>
		<path fill-rule="evenodd" clip-rule="evenodd" d="M375.8,64.816H371.4l0.35,8.95h-2.9l-0.35-8.95h-4.35l-0.051-1.8H375.7
			L375.8,64.816z M380.15,71.316c-0.567,0-1.051,0.167-1.45,0.5l-1.45-0.2l0.8-3.6h4.8l0.051,1.25h-3.4l-0.25,1.15
			c0.366-0.133,0.767-0.2,1.2-0.2c0.8,0,1.5,0.217,2.1,0.65c0.566,0.433,0.884,1,0.95,1.7c0,0.6-0.217,1.1-0.65,1.5
			c-0.633,0.633-1.5,0.95-2.6,0.95c-0.866,0-1.583-0.167-2.15-0.5c-0.566-0.367-0.916-0.833-1.05-1.4l1.8-0.15
			c0.067,0.333,0.217,0.583,0.45,0.75c0.267,0.167,0.566,0.25,0.9,0.25c0.366,0,0.7-0.116,1-0.35
			c0.267-0.233,0.399-0.583,0.399-1.05c-0.066-0.433-0.216-0.75-0.449-0.95C380.884,71.416,380.55,71.316,380.15,71.316z"/>
	</g>
	<g>
		<path fill-rule="evenodd" clip-rule="evenodd" d="M325.55,80.966h11.601l-0.4,1.9h-4.35l-1.95,9.15h-2.9l1.95-9.15h-4.35
			L325.55,80.966z M342.25,86.366c0.434,0.366,0.65,0.816,0.65,1.35l-1.801,0.2c0-0.3-0.083-0.517-0.25-0.65
			c-0.1-0.133-0.3-0.2-0.6-0.2c-0.4,0-0.767,0.133-1.1,0.4c-0.334,0.267-0.601,0.817-0.801,1.65c0.534-0.434,1.134-0.65,1.801-0.65
			c0.767,0,1.383,0.233,1.85,0.7c0.434,0.434,0.583,0.983,0.45,1.65c-0.167,0.767-0.584,1.35-1.25,1.75
			c-0.7,0.467-1.483,0.7-2.351,0.7c-0.966,0-1.699-0.267-2.199-0.8c-0.5-0.6-0.617-1.533-0.351-2.8c0.267-1.3,0.783-2.25,1.55-2.85
			c0.801-0.566,1.7-0.85,2.7-0.85C341.25,85.966,341.816,86.1,342.25,86.366z M338.65,89.816c-0.301,0.2-0.483,0.517-0.551,0.95
			c-0.1,0.4-0.017,0.733,0.25,1c0.167,0.233,0.434,0.35,0.801,0.35c0.333,0,0.633-0.1,0.899-0.3c0.267-0.2,0.45-0.517,0.55-0.95
			c0.101-0.467,0.067-0.8-0.1-1c-0.233-0.267-0.533-0.4-0.9-0.4C339.267,89.466,338.95,89.583,338.65,89.816z"/>
	</g>
	<g>
		<path fill-rule="evenodd" clip-rule="evenodd" d="M435,89.566h-2.9l-0.75-7.55h-4.399l-0.101-1.5h11.601l0.149,1.5h-4.35
			L435,89.566z M443.45,90.516h-1.75c-0.066-0.8,0.116-1.633,0.55-2.5c0.434-0.833,1.066-1.583,1.9-2.25h-4.2l-0.101-1.1h6.25
			l0.051,0.85c-0.5,0.333-0.983,0.8-1.45,1.4c-0.467,0.533-0.8,1.133-1,1.8C443.5,89.383,443.417,89.982,443.45,90.516z"/>
	</g>
</g>
</svg>
