<?xml version="1.0" encoding="utf-8"?>
<!-- Generator: Adobe Illustrator 16.0.0, SVG Export Plug-In . SVG Version: 6.00 Build 0)  -->
<!DOCTYPE svg PUBLIC "-//W3C//DTD SVG 1.1//EN" "http://www.w3.org/Graphics/SVG/1.1/DTD/svg11.dtd">
<svg version="1.1" xmlns="http://www.w3.org/2000/svg" xmlns:xlink="http://www.w3.org/1999/xlink" x="0px" y="0px" width="591px"
	 height="107.33px" viewBox="-53.17 0 591 107.33" enable-background="new -53.17 0 591 107.33" xml:space="preserve">
<g id="Layer_1">
	<g>
		<g>
			<path fill-opacity="0.251" d="M102.3,57.17h0.9c-0.03,0.27-0.18,0.48-0.45,0.65c-0.23,0.2-0.47,0.4-0.7,0.6
				c-0.47,1.13-1.2,2.03-2.2,2.7c-0.43,0.3-0.85,0.6-1.25,0.9c-0.03,0.03-0.08,0.08-0.15,0.15c0,0.03-0.02,0.07-0.05,0.1
				c-0.03,0.13-0.1,0.25-0.2,0.35c-0.83,0.43-1.67,0.38-2.5-0.15c-0.4,0-0.78-0.07-1.15-0.2c-0.1-0.03-0.17-0.07-0.2-0.1
				c-0.03-0.07-0.07-0.12-0.1-0.15c-0.07-0.07-0.12-0.13-0.15-0.2c-0.07-0.03-0.15-0.07-0.25-0.1c-0.03-0.03-0.1-0.08-0.2-0.15
				c-0.03-0.1-0.07-0.2-0.1-0.3c-0.03-0.2-0.05-0.42-0.05-0.65c0-0.03,0-0.07,0-0.1c0.17-0.27,0.25-0.57,0.25-0.9
				c0-0.13,0-0.25,0-0.35c0-0.17,0.02-0.35,0.05-0.55c0.07-0.2,0.22-0.33,0.45-0.4c0.17-0.1,0.33-0.23,0.5-0.4
				c1.43-0.6,2.87-0.82,4.3-0.65c0.83-0.17,1.67-0.43,2.5-0.8c0.13,0,0.23-0.03,0.3-0.1c0.13,0,0.27-0.03,0.4-0.1
				c0.03,0,0.1,0,0.2,0c0.13,0.07,0.23,0.1,0.3,0.1c0.13,0.1,0.23,0.2,0.3,0.3c0.07,0.07,0.12,0.17,0.15,0.3c0,0.1,0,0.17,0,0.2
				H102.3z"/>
			
				<path fill="none" stroke="#000000" stroke-width="0.75" stroke-linecap="round" stroke-linejoin="round" stroke-miterlimit="3" stroke-opacity="0.2471" d="
				M93.75,59.27H79.1c-0.6-0.1-1.53,0.15-2.8,0.75c-1.2,0.53-1.98,1.03-2.35,1.5 M103.2,57.17l5.6,2.2
				c3.87,0.93,9.47,1.82,16.8,2.65c0.73,0.1,1.42,0.18,2.05,0.25c5.8,0.67,9.77,1.15,11.9,1.45 M93.55,61.27
				c-0.83,0.3-1.6,0.63-2.3,1c-2.1,1.2-5.92,3.67-11.45,7.4c-3.97,2.63-11.25,4.5-21.85,5.6c-9.4,0.93-14.85,2.62-16.35,5.05
				 M99.85,61.12c0.27,0.2,0.52,0.42,0.75,0.65c0.6,0.6,1.57,1.65,2.9,3.15c2.9,2.5,4.38,3.78,4.45,3.85c1.7,2.37,2.23,5.63,1.6,9.8
				 M102.3,57.17h0.9 M171.05,81.22l16-2.3c3.6-0.03,8.52-0.93,14.75-2.7c0.13-0.03,0.28-0.07,0.45-0.1c1.9-0.3,3.77-0.92,5.6-1.85
				c3.03-1.47,4.55-3.17,4.55-5.1c0-1.13,2.05-2.15,6.15-3.05c4.9-1.1,8.37-2.7,10.4-4.8c3.4-3.53,5.58-6.27,6.55-8.2
				c1.03-2.07,1.55-4.88,1.55-8.45c0-1.47-0.13-2.72-0.4-3.75c-0.27-1-0.4-1.93-0.4-2.8c0-3.13,0.53-6.62,1.6-10.45
				c1.43-5.33,3.37-8,5.8-8"/>
		</g>
		<g>
			
				<path fill="none" stroke="#4C4E50" stroke-width="0.75" stroke-linecap="round" stroke-linejoin="round" stroke-miterlimit="3" d="
				M110.65,9.37c0.83-2.43,2.85-3.58,6.05-3.45c3.17,0.03,6.28,1.08,9.35,3.15c3.03,2,6.53,3.23,10.5,3.7
				c4.8,0.8,8.43,2.38,10.9,4.75c2.43,2.33,6.77,3.27,13,2.8c3.03-0.27,5.58,0.48,7.65,2.25c4.13,4.83,8.13,7.17,12,7
				c5.63-1.17,10.05-0.28,13.25,2.65c1.13,2.2,1.85,4.52,2.15,6.95c-0.6,6.5,2.15,7.18,8.25,2.05c5.23-3.1,11.28-3.17,18.15-0.2
				c6.83,2.93,10.8-2.43,11.9-16.1c0.97-8.27,5.27-10.73,12.9-7.4 M72.6,61.07c3.53-1.93,5.98-4.77,7.35-8.5
				c1.1-2.97,4.22-5.1,9.35-6.4c2.8-0.67,6.45-2.7,10.95-6.1c4.7-3.6,7.05-6.3,7.05-8.1c0-0.47-0.32-1.15-0.95-2.05
				c-0.63-0.9-0.95-1.98-0.95-3.25C94.1,34.4,85.6,38.48,79.9,38.92c-1.43,0.13-3.23,0.2-5.4,0.2c-1.67,0.13-3.05,0.7-4.15,1.7
				c-0.8,0.77-2.22,2.47-4.25,5.1c-1.53,2-3.48,3.77-5.85,5.3c-0.73,0.5-1.22,1.53-1.45,3.1c-0.27,1.7-0.63,2.8-1.1,3.3
				c-0.4,0.4-1.32,1.12-2.75,2.15c-1.23,1.03-2,2-2.3,2.9c0.83,2.93-0.03,5.58-2.6,7.95c-0.13,0.13-0.27,0.25-0.4,0.35
				c-1.53,1.4-4.12,3.47-7.75,6.2 M104.45,26.57h0.95c0,0.03,0,0.07,0,0.1c0.2-0.17,0.43-0.37,0.7-0.6c-0.37-0.1-0.7-0.15-1-0.15
				 M107.6,78.12c5.73-5.67,8.73-8.67,9-9c1.47-1.97,2.2-4.65,2.2-8.05c0-3.23,0.95-6.67,2.85-10.3c1.87-3.6,0.98-6.05-2.65-7.35
				c-3.7-1.3-6.62-4.3-8.75-9c-2.13-4.67-3.52-7.45-4.15-8.35"/>
		</g>
		<g>
			
				<path fill="none" stroke="#000000" stroke-width="0.75" stroke-linecap="round" stroke-linejoin="round" stroke-miterlimit="3" d="
				M110.65,9.37c0.87-2.57,2.8-4.05,5.8-4.45c3-0.47,6.67,1,11,4.4c1.97,1.93,5,3.08,9.1,3.45c4.8,0.77,8.6,2.03,11.4,3.8
				c2.83,1.73,7.05,2.62,12.65,2.65c4.1-0.13,7.43,1.08,10,3.65c2.47,2.97,5.63,4.42,9.5,4.35c5.63,0.4,9.48,2.18,11.55,5.35
				c2.27,1.97,3.55,4.17,3.85,6.6c-0.4,5.33,2.35,5.42,8.25,0.25c5.1-2.73,11.05-2.73,17.85,0c6.73,2.7,10.53-2.83,11.4-16.6
				c1.5-6.87,7.43-8.32,17.8-4.35 M72.6,61.07c2.33-2.3,4.42-5.05,6.25-8.25c1.8-3.2,4.6-5.52,8.4-6.95c3.77-1.47,8.03-3.7,12.8-6.7
				c4.7-3.03,6.85-5.2,6.45-6.5c-0.43-1.3-0.72-2.32-0.85-3.05c-0.13-0.7-0.22-1.68-0.25-2.95c-10.17,6.53-17.13,10.07-20.9,10.6
				c-3.77,0.5-6.8,0.97-9.1,1.4c-2.27,0.43-4.05,1.02-5.35,1.75c-1.33,0.73-2.88,2.37-4.65,4.9c-1.83,2.5-3.48,4.03-4.95,4.6
				c-1.5,0.53-2.33,1.75-2.5,3.65c-0.23,1.87-0.77,2.98-1.6,3.35c-0.87,0.37-1.62,1.2-2.25,2.5c-0.67,1.27-1.15,2.35-1.45,3.25
				c-0.27,3.37-1.13,5.88-2.6,7.55c-0.13,0.1-0.27,0.23-0.4,0.4c-1.53,1.6-4.12,3.78-7.75,6.55 M107.6,78.12
				c4.4-5.67,7.18-9.07,8.35-10.2c1.17-1.17,1.75-3.4,1.75-6.7c0-3.33,0.88-6.82,2.65-10.45c1.77-3.6,0.83-6.05-2.8-7.35
				c-3.73-1.3-6.42-4.3-8.05-9c-1.63-4.67-2.77-7.45-3.4-8.35c-0.27,0.23-0.5,0.43-0.7,0.6 M106.1,26.07c-0.37-0.1-0.7-0.15-1-0.15
				 M104.45,26.57h0.95c0,0.03,0,0.07,0,0.1"/>
		</g>
		<g>
			<g>
				<path d="M250.55,16.27c0.97,0.93,1.45,1.98,1.45,3.15c0,1.27-0.48,2.33-1.45,3.2c-0.9,0.93-1.95,1.4-3.15,1.4
					c-1.27,0-2.37-0.47-3.3-1.4c-0.9-0.87-1.35-1.93-1.35-3.2c0-1.17,0.45-2.22,1.35-3.15c0.93-0.9,2.03-1.35,3.3-1.35
					C248.6,14.92,249.65,15.37,250.55,16.27z"/>
			</g>
			<g>
				
					<linearGradient id="SVGID_1_" gradientUnits="userSpaceOnUse" x1="-38.9375" y1="274.9175" x2="-29.163" y2="274.9175" gradientTransform="matrix(1 0 0 -1 281.5 298.833)">
					<stop  offset="0" style="stop-color:#65624B"/>
					<stop  offset="0.5098" style="stop-color:#8F8B6B"/>
					<stop  offset="1" style="stop-color:#0F0E0B"/>
					<stop  offset="1" style="stop-color:#434132"/>
				</linearGradient>
				<path fill="url(#SVGID_1_)" d="M251.15,20.72c0.13,0.2,0.28,0.4,0.45,0.6c0.33,0.53,0.57,1.13,0.7,1.8l-0.05,4.5
					c-0.13-0.43-0.3-0.83-0.5-1.2c-0.27-0.37-0.55-0.7-0.85-1c-0.97-0.93-2.12-1.4-3.45-1.4c-1.37,0-2.53,0.47-3.5,1.4
					c-0.27,0.3-0.52,0.63-0.75,1c-0.37,0.67-0.57,1.43-0.6,2.3l0.05-5.5c0.13-0.93,0.52-1.77,1.15-2.5
					c0.04-0.07,0.08-0.15,0.15-0.25c0.97-0.9,2.13-1.35,3.5-1.35c1.33,0,2.48,0.45,3.45,1.35C251,20.57,251.08,20.65,251.15,20.72z"
					/>
				
					<linearGradient id="SVGID_2_" gradientUnits="userSpaceOnUse" x1="-37.8374" y1="280.4175" x2="-30.2629" y2="280.4175" gradientTransform="matrix(1 0 0 -1 281.5 298.833)">
					<stop  offset="0" style="stop-color:#353228"/>
					<stop  offset="0.5098" style="stop-color:#434034"/>
					<stop  offset="1" style="stop-color:#000000"/>
					<stop  offset="1" style="stop-color:#434132"/>
				</linearGradient>
				<path fill="url(#SVGID_2_)" d="M243.8,20.72c-0.1-0.27-0.15-0.55-0.15-0.85c0-1.07,0.37-1.98,1.1-2.75c0.73-0.67,1.63-1,2.7-1
					c1,0,1.88,0.33,2.65,1c0.6,0.6,0.95,1.3,1.05,2.1v0.05c0,0.07,0.03,0.12,0.1,0.15c0,0.13,0,0.28,0,0.45
					c0,0.3-0.03,0.58-0.1,0.85c-0.07-0.07-0.15-0.15-0.25-0.25c-0.97-0.9-2.12-1.35-3.45-1.35c-1.37,0-2.54,0.45-3.5,1.35
					C243.88,20.57,243.83,20.65,243.8,20.72z"/>
				<path fill="#918D6C" d="M252.25,27.62c0.07,0.37,0.1,0.78,0.1,1.25c0,0.6-0.08,1.17-0.25,1.7c-0.23,0.63-0.63,1.22-1.2,1.75
					c-0.97,0.97-2.12,1.45-3.45,1.45c-1.37,0-2.53-0.48-3.5-1.45c-0.9-0.93-1.35-2.08-1.35-3.45c0-0.03,0-0.07,0-0.1v-0.05
					c0.03-0.87,0.23-1.63,0.6-2.3c0.23-0.37,0.48-0.7,0.75-1c0.97-0.93,2.13-1.4,3.5-1.4c1.33,0,2.48,0.47,3.45,1.4
					c0.3,0.3,0.58,0.63,0.85,1C251.95,26.78,252.12,27.18,252.25,27.62z M250.1,28.87c0,0.77-0.25,1.4-0.75,1.9
					c-0.57,0.5-1.22,0.75-1.95,0.75s-1.35-0.25-1.85-0.75c-0.53-0.5-0.8-1.13-0.8-1.9c0-0.3,0.03-0.57,0.1-0.8
					c0.13-0.43,0.37-0.8,0.7-1.1c0.5-0.5,1.12-0.75,1.85-0.75s1.38,0.25,1.95,0.75c0.3,0.37,0.53,0.75,0.7,1.15
					C250.08,28.38,250.1,28.63,250.1,28.87z M249.8,26.57c-0.7-0.63-1.5-0.95-2.4-0.95s-1.67,0.32-2.3,0.95
					c-0.37,0.33-0.62,0.7-0.75,1.1c-0.17,0.4-0.25,0.8-0.25,1.2c0,0.93,0.33,1.72,1,2.35c0.63,0.63,1.4,0.95,2.3,0.95
					s1.7-0.32,2.4-0.95c0.6-0.63,0.9-1.42,0.9-2.35c0-0.4-0.05-0.77-0.15-1.1C250.38,27.3,250.13,26.9,249.8,26.57z"/>
				<path fill="#302E25" d="M250.1,28.87c0-0.23-0.02-0.48-0.05-0.75c-0.17-0.4-0.4-0.78-0.7-1.15c-0.57-0.5-1.22-0.75-1.95-0.75
					s-1.35,0.25-1.85,0.75c-0.33,0.3-0.57,0.67-0.7,1.1c-0.07,0.23-0.1,0.5-0.1,0.8c0,0.77,0.27,1.4,0.8,1.9
					c0.5,0.5,1.12,0.75,1.85,0.75s1.38-0.25,1.95-0.75C249.85,30.27,250.1,29.63,250.1,28.87z M249.8,26.57
					c0.33,0.33,0.58,0.73,0.75,1.2c0.1,0.33,0.15,0.7,0.15,1.1c0,0.93-0.3,1.72-0.9,2.35c-0.7,0.63-1.5,0.95-2.4,0.95
					s-1.67-0.32-2.3-0.95c-0.67-0.63-1-1.42-1-2.35c0-0.4,0.08-0.8,0.25-1.2c0.13-0.4,0.38-0.77,0.75-1.1
					c0.63-0.63,1.4-0.95,2.3-0.95S249.1,25.93,249.8,26.57z"/>
				
					<path fill="none" stroke="#302E25" stroke-width="0.75" stroke-linecap="round" stroke-linejoin="round" stroke-miterlimit="3" d="
					M249.8,26.57c-0.7-0.63-1.5-0.95-2.4-0.95s-1.67,0.32-2.3,0.95c-0.37,0.33-0.62,0.7-0.75,1.1c-0.17,0.4-0.25,0.8-0.25,1.2
					c0,0.93,0.33,1.72,1,2.35c0.63,0.63,1.4,0.95,2.3,0.95s1.7-0.32,2.4-0.95c0.6-0.63,0.9-1.42,0.9-2.35c0-0.4-0.05-0.77-0.15-1.1
					C250.38,27.3,250.13,26.9,249.8,26.57z"/>
			</g>
		</g>
		<g>
			<path d="M110.9,8.17c0.1,0,0.2,0.08,0.3,0.25c0.1,0.1,0.23,0.22,0.4,0.35h0.05c0.13,0.07,0.28,0.1,0.45,0.1
				c0.1,0,0.25,0.02,0.45,0.05c0.03,0.07,0.07,0.13,0.1,0.2c0.1,0.03,0.15,0.08,0.15,0.15c0.03,0.03,0.1,0.08,0.2,0.15
				c0,0.07,0,0.12,0,0.15c-0.07,0.03-0.1,0.08-0.1,0.15c0,0.07,0,0.17,0,0.3v0.1c0,0.1-0.02,0.17-0.05,0.2
				c-0.07,0.2-0.18,0.37-0.35,0.5c0,0.43-0.05,0.85-0.15,1.25l0.05,0.2c0,0.1,0,0.18,0,0.25l-0.05,0.15c-0.03,0.13-0.1,0.23-0.2,0.3
				c-0.03,0-0.05,0.02-0.05,0.05c-0.13,0.27-0.28,0.53-0.45,0.8c0,0.1,0,0.22,0,0.35c-0.03,0.03-0.05,0.08-0.05,0.15
				c-0.03,0.03-0.08,0.07-0.15,0.1c0,0.03-0.02,0.08-0.05,0.15c-0.13,0.07-0.22,0.13-0.25,0.2h-0.05c-0.03,0.07-0.1,0.15-0.2,0.25
				s-0.15,0.27-0.15,0.5c0.13,1.63-0.08,3.18-0.65,4.65c0,0.17,0,0.32,0,0.45c0,0.17,0,0.33,0,0.5c0,0.13,0,0.28,0,0.45l-0.15,0.1
				c-0.03,0.1-0.07,0.15-0.1,0.15c-0.07,0.03-0.1,0.1-0.1,0.2c0,0.03,0,0.07,0,0.1c0,0.1,0,0.17,0,0.2c0,0.1,0,0.18,0,0.25
				c0,0.03,0,0.1,0,0.2l-0.05,0.05c0,0.1-0.02,0.17-0.05,0.2c-0.13,0.13-0.25,0.23-0.35,0.3c-0.03,0.43-0.03,0.83,0,1.2
				c0,0.33,0,0.67,0,1c-0.03,0.13-0.03,0.27,0,0.4c0.07,0.1,0.12,0.18,0.15,0.25c0,0.03,0,0.1,0,0.2c-0.03,0.03-0.08,0.05-0.15,0.05
				c-0.03,0.1-0.05,0.18-0.05,0.25c-0.13,0.03-0.25,0.12-0.35,0.25c0.07,0.13,0.15,0.22,0.25,0.25c0.23,0.27,0.42,0.58,0.55,0.95
				c0.1,0.17,0.2,0.32,0.3,0.45c0,0.03,0.03,0.1,0.1,0.2c0,0.13-0.03,0.25-0.1,0.35c-0.07,0.17-0.12,0.28-0.15,0.35
				c-0.07,0.07-0.13,0.1-0.2,0.1c-0.07,0.03-0.12,0.05-0.15,0.05c-0.4,0.23-0.83,0.27-1.3,0.1c-0.13-0.1-0.22-0.15-0.25-0.15
				c-0.3-0.3-0.62-0.53-0.95-0.7c-0.17-0.03-0.3-0.07-0.4-0.1c-1.43-0.23-2.8-0.2-4.1,0.1c-0.07,0-0.13,0.05-0.2,0.15
				c-0.07,0.07-0.12,0.13-0.15,0.2c-0.2,0-0.35,0.02-0.45,0.05c-0.1,0-0.18,0-0.25,0c-0.23-0.03-0.47-0.12-0.7-0.25
				c-0.1-0.1-0.15-0.2-0.15-0.3c-0.07-0.27-0.08-0.57-0.05-0.9c0.03-0.3,0.05-0.58,0.05-0.85c0-0.07,0.02-0.15,0.05-0.25l0.1-0.05
				c0.13-0.13,0.22-0.22,0.25-0.25c0.2-0.03,0.37-0.07,0.5-0.1c0.5-0.07,0.97-0.15,1.4-0.25c-0.07-0.13-0.07-0.32,0-0.55
				c-0.07,0-0.1-0.02-0.1-0.05c-0.07-0.07-0.17-0.13-0.3-0.2c0-0.07,0-0.15,0-0.25v-0.05c0-0.13,0-0.23,0-0.3s0-0.12,0-0.15
				c-0.03-0.07-0.1-0.13-0.2-0.2c0-0.03-0.02-0.07-0.05-0.1c0-0.03-0.02-0.05-0.05-0.05l0.05-0.15c0.6-1.13,0.92-2.5,0.95-4.1
				l0.7-0.45c0-0.13,0-0.23,0-0.3c0.13-0.47,0.37-0.88,0.7-1.25c0-0.1,0.02-0.23,0.05-0.4c0-1.33,0.18-2.62,0.55-3.85l0.5-0.4
				l0.2-1.6l1.3-1.6l0.05-1.05c0.03-0.1,0.07-0.17,0.1-0.2c0.1-0.2,0.18-0.42,0.25-0.65c0.1,0,0.23,0.02,0.4,0.05
				c0.03-0.03,0.07-0.05,0.1-0.05c0-0.03,0.05-0.1,0.15-0.2c0.1,0,0.18-0.02,0.25-0.05c0.1,0,0.23-0.02,0.4-0.05
				c0.03,0,0.08,0,0.15,0c0.43,0,0.82,0.02,1.15,0.05c0.17,0,0.32,0.02,0.45,0.05C110.72,8.03,110.8,8.1,110.9,8.17z"/>
		</g>
		<g>
			<g>
				<path fill="#666662" d="M109.05,96.17l-7.6-0.55c0.17-0.23,0.45-0.45,0.85-0.65c0.77-0.23,1.7-0.35,2.8-0.35
					s2.05,0.12,2.85,0.35C108.68,95.3,109.05,95.7,109.05,96.17z M101.25,95.92l7.7,0.65c-0.17,0.23-0.5,0.47-1,0.7
					c-0.8,0.27-1.75,0.4-2.85,0.4s-2.03-0.13-2.8-0.4c-0.7-0.3-1.07-0.65-1.1-1.05v-0.05C101.2,96.03,101.22,95.95,101.25,95.92z"/>
				
					<linearGradient id="SVGID_3_" gradientUnits="userSpaceOnUse" x1="-180.3501" y1="201.7427" x2="-172.4501" y2="201.7427" gradientTransform="matrix(1 0 0 -1 281.5 298.833)">
					<stop  offset="0" style="stop-color:#B0B1AF"/>
					<stop  offset="0.5176" style="stop-color:#E1E1E1"/>
					<stop  offset="1" style="stop-color:#878584"/>
				</linearGradient>
				<path fill="url(#SVGID_3_)" d="M108.95,96.57c0.06-0.1,0.1-0.18,0.1-0.25c0,0.07,0,0.15,0,0.25c-0.1,0.33-0.47,0.62-1.1,0.85
					c-0.8,0.37-1.75,0.55-2.85,0.55s-2.03-0.18-2.8-0.55c-0.73-0.27-1.1-0.63-1.1-1.1v-0.1c0.03,0.4,0.4,0.75,1.1,1.05
					c0.77,0.27,1.7,0.4,2.8,0.4s2.05-0.13,2.85-0.4C108.45,97.03,108.78,96.8,108.95,96.57z"/>
				
					<linearGradient id="SVGID_4_" gradientUnits="userSpaceOnUse" x1="-180.2749" y1="202.7427" x2="-172.4249" y2="202.7427" gradientTransform="matrix(1 0 0 -1 281.5 298.833)">
					<stop  offset="0" style="stop-color:#B0B1AF"/>
					<stop  offset="0.5176" style="stop-color:#E1E1E1"/>
					<stop  offset="1" style="stop-color:#878584"/>
				</linearGradient>
				<path fill="url(#SVGID_4_)" d="M108.95,96.57l-7.7-0.65c0.03-0.13,0.1-0.23,0.2-0.3l7.6,0.55v0.15
					C109.05,96.39,109.02,96.47,108.95,96.57z"/>
			</g>
		</g>
		<g>
			<g>
				
					<linearGradient id="SVGID_5_" gradientUnits="userSpaceOnUse" x1="-155.0913" y1="229.1304" x2="-148.2176" y2="228.5767" gradientTransform="matrix(1 0 0 -1 281.5 298.833)">
					<stop  offset="0" style="stop-color:#B0B1AF"/>
					<stop  offset="0.5176" style="stop-color:#E1E1E1"/>
					<stop  offset="1" style="stop-color:#878584"/>
				</linearGradient>
				<path fill="url(#SVGID_5_)" d="M133.35,69.52c0,0.1,0,0.17,0,0.2c-0.17,0.3-0.52,0.55-1.05,0.75c-0.7,0.27-1.55,0.35-2.55,0.25
					c-0.97-0.07-1.73-0.27-2.3-0.6c-0.67-0.33-0.98-0.7-0.95-1.1c0.03,0.3,0.35,0.6,0.95,0.9c0.57,0.3,1.33,0.48,2.3,0.55
					c1,0.1,1.85,0.05,2.55-0.15c0.47-0.13,0.78-0.33,0.95-0.6C133.31,69.68,133.35,69.62,133.35,69.52z"/>
				
					<linearGradient id="SVGID_6_" gradientUnits="userSpaceOnUse" x1="-114.0249" y1="246.7183" x2="-107.1538" y2="246.7183" gradientTransform="matrix(0.9971 0.0764 0.0905 -0.996 217.8875 323.2396)">
					<stop  offset="0" style="stop-color:#B0B1AF"/>
					<stop  offset="0.5176" style="stop-color:#E1E1E1"/>
					<stop  offset="1" style="stop-color:#878584"/>
				</linearGradient>
				<path fill="url(#SVGID_6_)" d="M126.8,68.42l6.55,1v0.1c0,0.1-0.04,0.17-0.1,0.2l-6.7-1C126.65,68.58,126.73,68.48,126.8,68.42z
					"/>
				<path fill="#666662" d="M126.55,68.72l6.7,1c-0.17,0.27-0.48,0.47-0.95,0.6c-0.7,0.2-1.55,0.25-2.55,0.15
					c-0.97-0.07-1.73-0.25-2.3-0.55c-0.6-0.3-0.92-0.6-0.95-0.9v-0.1C126.5,68.82,126.52,68.75,126.55,68.72z M133.35,69.42l-6.55-1
					c0.13-0.17,0.38-0.32,0.75-0.45c0.7-0.2,1.53-0.27,2.5-0.2c0.97,0.1,1.77,0.28,2.4,0.55C133.12,68.65,133.42,69.02,133.35,69.42
					z"/>
			</g>
		</g>
		<g>
			<g>
				
					<linearGradient id="SVGID_7_" gradientUnits="userSpaceOnUse" x1="-293.041" y1="226.5942" x2="-286.1776" y2="226.5942" gradientTransform="matrix(0.9944 -0.1056 -0.1192 -0.993 362.9485 256.7435)">
					<stop  offset="0" style="stop-color:#B0B1AF"/>
					<stop  offset="0.5176" style="stop-color:#E1E1E1"/>
					<stop  offset="1" style="stop-color:#878584"/>
				</linearGradient>
				<path fill="url(#SVGID_7_)" d="M51.25,62.32l-6.7,0.35c0-0.1,0.05-0.22,0.15-0.35l6.65-0.3v0.15
					C51.35,62.2,51.31,62.25,51.25,62.32z"/>
				<path fill="#666662" d="M44.55,62.67l6.7-0.35c-0.1,0.2-0.37,0.4-0.8,0.6c-0.63,0.23-1.43,0.4-2.4,0.5
					c-0.93,0.07-1.77,0.07-2.5,0c-0.63-0.13-0.98-0.32-1.05-0.55v-0.1C44.5,62.7,44.52,62.67,44.55,62.67z M51.35,62.02l-6.65,0.3
					c0.1-0.1,0.35-0.23,0.75-0.4c0.63-0.27,1.4-0.43,2.3-0.5c1-0.1,1.85-0.1,2.55,0C50.97,61.52,51.32,61.72,51.35,62.02z"/>
				
					<linearGradient id="SVGID_8_" gradientUnits="userSpaceOnUse" x1="-236.9692" y1="235.4038" x2="-230.1178" y2="236.1471" gradientTransform="matrix(1 0 0 -1 281.5 298.833)">
					<stop  offset="0" style="stop-color:#B0B1AF"/>
					<stop  offset="0.5176" style="stop-color:#E1E1E1"/>
					<stop  offset="1" style="stop-color:#878584"/>
				</linearGradient>
				<path fill="url(#SVGID_8_)" d="M44.5,62.87c0.07,0.23,0.42,0.42,1.05,0.55c0.73,0.07,1.57,0.07,2.5,0
					c0.97-0.1,1.77-0.27,2.4-0.5c0.43-0.2,0.7-0.4,0.8-0.6c0.06-0.07,0.1-0.12,0.1-0.15c0,0.03,0,0.07,0,0.1
					c-0.07,0.3-0.37,0.55-0.9,0.75c-0.63,0.3-1.43,0.5-2.4,0.6c-0.93,0.07-1.77,0.03-2.5-0.1c-0.67-0.1-1.02-0.3-1.05-0.6V62.87z"/>
			</g>
		</g>
		<g>
			<g>
				<path fill="#666662" d="M15.35,87.02L7.8,88.27c0.1-0.23,0.32-0.48,0.65-0.75c0.7-0.47,1.58-0.82,2.65-1.05
					c1.07-0.27,2.02-0.35,2.85-0.25C14.75,86.28,15.22,86.55,15.35,87.02z M7.7,88.67l7.55-1.2c-0.07,0.3-0.32,0.62-0.75,0.95
					c-0.77,0.4-1.67,0.73-2.7,1c-1.07,0.27-2,0.37-2.8,0.3c-0.73-0.1-1.17-0.35-1.3-0.75v-0.05C7.67,88.78,7.67,88.7,7.7,88.67z"/>
				
					<linearGradient id="SVGID_9_" gradientUnits="userSpaceOnUse" x1="-273.6885" y1="209.0415" x2="-266.0137" y2="210.8967" gradientTransform="matrix(1 0 0 -1 281.5 298.833)">
					<stop  offset="0" style="stop-color:#B0B1AF"/>
					<stop  offset="0.5176" style="stop-color:#E1E1E1"/>
					<stop  offset="1" style="stop-color:#878584"/>
				</linearGradient>
				<path fill="url(#SVGID_9_)" d="M15.25,87.47c0.1-0.13,0.13-0.23,0.1-0.3c0.03,0.07,0.05,0.15,0.05,0.25
					c-0.03,0.37-0.32,0.73-0.85,1.1c-0.73,0.53-1.63,0.92-2.7,1.15C10.82,89.93,9.9,90,9.1,89.87c-0.8-0.1-1.27-0.38-1.4-0.85v-0.05
					c0.13,0.4,0.57,0.65,1.3,0.75c0.8,0.07,1.73-0.03,2.8-0.3c1.03-0.27,1.93-0.6,2.7-1C14.93,88.08,15.18,87.77,15.25,87.47z"/>
				
					<linearGradient id="SVGID_10_" gradientUnits="userSpaceOnUse" x1="-273.8228" y1="210.0337" x2="-266.174" y2="211.8888" gradientTransform="matrix(1 0 0 -1 281.5 298.833)">
					<stop  offset="0" style="stop-color:#B0B1AF"/>
					<stop  offset="0.5176" style="stop-color:#E1E1E1"/>
					<stop  offset="1" style="stop-color:#878584"/>
				</linearGradient>
				<path fill="url(#SVGID_10_)" d="M7.8,88.27l7.55-1.25v0.15c0.03,0.07,0,0.17-0.1,0.3l-7.55,1.2C7.7,88.53,7.73,88.4,7.8,88.27z"
					/>
			</g>
		</g>
		<g>
			<g>
				<g>
					<path fill="#660316" d="M66.85,63.47c0.03,0.47,0.5,0.87,1.4,1.2c0.87,0.4,1.95,0.6,3.25,0.6s2.42-0.2,3.35-0.6
						c0.9-0.33,1.37-0.73,1.4-1.2c0,0.04,0,0.08,0,0.15c0,0.5-0.47,0.93-1.4,1.3c-0.93,0.4-2.05,0.6-3.35,0.6s-2.38-0.2-3.25-0.6
						c-0.93-0.37-1.4-0.8-1.4-1.3C66.85,63.55,66.85,63.5,66.85,63.47z"/>
					
						<radialGradient id="SVGID_11_" cx="-209.8496" cy="-82.4175" r="8.013" gradientTransform="matrix(1 0 0 -0.5195 281.5 21.8001)" gradientUnits="userSpaceOnUse">
						<stop  offset="0" style="stop-color:#D42027"/>
						<stop  offset="1" style="stop-color:#690000"/>
					</radialGradient>
					<path fill="url(#SVGID_11_)" d="M76.25,63.47c-0.03,0.47-0.5,0.87-1.4,1.2c-0.93,0.4-2.05,0.6-3.35,0.6s-2.38-0.2-3.25-0.6
						c-0.9-0.33-1.37-0.73-1.4-1.2v-0.05c0-0.53,0.47-1,1.4-1.4c0.87-0.33,1.95-0.5,3.25-0.5s2.42,0.17,3.35,0.5
						c0.93,0.4,1.4,0.87,1.4,1.4V63.47z"/>
				</g>
				<g>
					
						<radialGradient id="SVGID_12_" cx="-212.1504" cy="308.2241" r="2.363" gradientTransform="matrix(1 0 0 -1.2751 281.5 457.4822)" gradientUnits="userSpaceOnUse">
						<stop  offset="0" style="stop-color:#C5C5C2"/>
						<stop  offset="1" style="stop-color:#C1C1BE;stop-opacity:0"/>
					</radialGradient>
					<path fill="url(#SVGID_12_)" d="M70.2,64.87c0.73,0.07,1.37,0.13,1.9,0.2c-0.43,0.07-1.07,0.07-1.9,0
						c-0.87-0.07-1.58-0.23-2.15-0.5c-0.4-0.23-0.68-0.43-0.85-0.6c0.23,0.07,0.58,0.2,1.05,0.4C68.78,64.6,69.43,64.77,70.2,64.87z
						"/>
				</g>
			</g>
			<g>
				<g>
					<g id="XMLID_1_">
						<g>
							<radialGradient id="SVGID_13_" cx="71.6035" cy="63.0669" r="2.309" gradientUnits="userSpaceOnUse">
								<stop  offset="0" style="stop-color:#420000"/>
								<stop  offset="1" style="stop-color:#690000"/>
							</radialGradient>
							<path fill="url(#SVGID_13_)" d="M74.8,62.42v0.05c0,1.16-2.52,1.25-3.25,1.25c-0.84,0-1.57-0.12-2.2-0.35
								c-0.64-0.27-0.95-0.57-0.95-0.9v-0.05c0.06,0.3,0.38,0.57,0.95,0.8c0.63,0.27,1.36,0.4,2.2,0.4c0.9,0,1.66-0.13,2.3-0.4
								C74.45,62.99,74.76,62.72,74.8,62.42z"/>
							
								<radialGradient id="SVGID_14_" cx="71.7007" cy="63.1157" r="5.3985" gradientTransform="matrix(1 0 0 0.5162 0 30.5354)" gradientUnits="userSpaceOnUse">
								<stop  offset="0" style="stop-color:#D42027"/>
								<stop  offset="1" style="stop-color:#690000"/>
							</radialGradient>
							<path fill="url(#SVGID_14_)" d="M74.8,62.27c0,0.03,0,0.08,0,0.15c-0.04,0.3-0.35,0.57-0.95,0.8c-0.64,0.27-1.4,0.4-2.3,0.4
								c-0.84,0-1.57-0.13-2.2-0.4c-0.57-0.23-0.89-0.5-0.95-0.8c0-0.07,0-0.12,0-0.15c0-0.33,0.31-0.62,0.95-0.85
								c0.63-0.27,1.36-0.4,2.2-0.4c0.9,0,1.66,0.13,2.3,0.4C74.48,61.65,74.8,61.94,74.8,62.27z"/>
						</g>
						<g>
						</g>
					</g>
				</g>
				<g>
					
						<radialGradient id="SVGID_15_" cx="-211.3999" cy="309.3169" r="1.6" gradientTransform="matrix(1 0 0 -1.2734 281.5 456.897)" gradientUnits="userSpaceOnUse">
						<stop  offset="0" style="stop-color:#C5C5C2"/>
						<stop  offset="1" style="stop-color:#C1C1BE;stop-opacity:0"/>
					</radialGradient>
					<path fill="url(#SVGID_15_)" d="M69.35,62.97c0.4,0.17,0.85,0.27,1.35,0.3c0.5,0.1,0.92,0.15,1.25,0.15
						c-0.27,0.07-0.68,0.08-1.25,0.05c-0.6-0.03-1.08-0.15-1.45-0.35c-0.25-0.15-0.44-0.29-0.55-0.42
						C68.83,62.75,69.05,62.85,69.35,62.97z"/>
				</g>
			</g>
			<g>
				<path fill="#490202" d="M73.55,62.17c0,0.07-0.17,0.15-0.5,0.25c-0.37,0.07-0.8,0.1-1.3,0.1c-0.47,0-0.87-0.03-1.2-0.1
					c-0.33-0.1-0.5-0.22-0.5-0.35c0-0.07,0.17-0.15,0.5-0.25c0.33-0.03,0.73-0.05,1.2-0.05c0.5,0,0.93,0.02,1.3,0.05
					C73.38,61.92,73.55,62.03,73.55,62.17z"/>
			</g>
			<g>
				
					<radialGradient id="SVGID_16_" cx="-210.2002" cy="-276.0923" r="2.2249" gradientTransform="matrix(1 0 0 -0.3989 281.5 -51.0661)" gradientUnits="userSpaceOnUse">
					<stop  offset="0" style="stop-color:#A91E22"/>
					<stop  offset="1" style="stop-color:#6F0000"/>
				</radialGradient>
				<path fill="url(#SVGID_16_)" d="M73.2,59.87h-0.1c-0.4,0.13-0.87,0.2-1.4,0.2c-0.53,0-1-0.07-1.4-0.2
					c-0.4-0.07-0.6-0.18-0.6-0.35v-0.1c0-0.17,0.2-0.28,0.6-0.35c0.4-0.17,0.87-0.25,1.4-0.25c0.53,0,1,0.08,1.4,0.25
					c0.4,0.07,0.6,0.18,0.6,0.35v0.1C73.7,59.68,73.53,59.8,73.2,59.87z"/>
				
					<radialGradient id="SVGID_17_" cx="-210.2002" cy="407.1938" r="1.0875" gradientTransform="matrix(1 0 0 -1.977 281.5 865.8357)" gradientUnits="userSpaceOnUse">
					<stop  offset="0" style="stop-color:#BE2026"/>
					<stop  offset="0.2392" style="stop-color:#7D1416"/>
					<stop  offset="1" style="stop-color:#530000"/>
				</radialGradient>
				<path fill="url(#SVGID_17_)" d="M70.3,59.87c0.4,0.13,0.87,0.2,1.4,0.2c0.53,0,1-0.07,1.4-0.2h0.1l-0.1,2.2
					c-0.93,0.3-1.87,0.3-2.8,0V59.87z"/>
			</g>
		</g>
		<g>
			<g>
				<g>
					<path fill="#660316" d="M36.73,80.13c0.03,0.47,0.5,0.87,1.4,1.2c0.87,0.4,1.95,0.6,3.25,0.6s2.42-0.2,3.35-0.6
						c0.9-0.33,1.37-0.73,1.4-1.2c0,0.04,0,0.08,0,0.15c0,0.5-0.47,0.93-1.4,1.3c-0.93,0.4-2.05,0.6-3.35,0.6s-2.38-0.2-3.25-0.6
						c-0.93-0.37-1.4-0.8-1.4-1.3C36.73,80.22,36.73,80.17,36.73,80.13z"/>
					
						<radialGradient id="SVGID_18_" cx="-239.9746" cy="-114.5005" r="8.0134" gradientTransform="matrix(1 0 0 -0.5195 281.5 21.8001)" gradientUnits="userSpaceOnUse">
						<stop  offset="0" style="stop-color:#D42027"/>
						<stop  offset="1" style="stop-color:#690000"/>
					</radialGradient>
					<path fill="url(#SVGID_18_)" d="M46.13,80.13c-0.03,0.47-0.5,0.87-1.4,1.2c-0.93,0.4-2.05,0.6-3.35,0.6s-2.38-0.2-3.25-0.6
						c-0.9-0.33-1.37-0.73-1.4-1.2v-0.05c0-0.53,0.47-1,1.4-1.4c0.87-0.33,1.95-0.5,3.25-0.5s2.42,0.17,3.35,0.5
						c0.93,0.4,1.4,0.87,1.4,1.4V80.13z"/>
				</g>
				<g>
					
						<radialGradient id="SVGID_19_" cx="-242.2754" cy="295.1538" r="2.3629" gradientTransform="matrix(1 0 0 -1.2751 281.5 457.4822)" gradientUnits="userSpaceOnUse">
						<stop  offset="0" style="stop-color:#C5C5C2"/>
						<stop  offset="1" style="stop-color:#C1C1BE;stop-opacity:0"/>
					</radialGradient>
					<path fill="url(#SVGID_19_)" d="M40.08,81.53c0.73,0.07,1.37,0.13,1.9,0.2c-0.43,0.07-1.07,0.07-1.9,0
						c-0.87-0.07-1.58-0.23-2.15-0.5c-0.4-0.23-0.68-0.43-0.85-0.6c0.23,0.07,0.58,0.2,1.05,0.4
						C38.66,81.27,39.31,81.43,40.08,81.53z"/>
				</g>
			</g>
			<g>
				<g>
					<g id="XMLID_2_">
						<g>
							<radialGradient id="SVGID_20_" cx="41.4785" cy="79.7329" r="2.3091" gradientUnits="userSpaceOnUse">
								<stop  offset="0" style="stop-color:#420000"/>
								<stop  offset="1" style="stop-color:#690000"/>
							</radialGradient>
							<path fill="url(#SVGID_20_)" d="M44.68,79.08v0.05c0,1.16-2.52,1.25-3.25,1.25c-0.84,0-1.57-0.12-2.2-0.35
								c-0.64-0.27-0.95-0.57-0.95-0.9v-0.05c0.06,0.3,0.38,0.57,0.95,0.8c0.63,0.27,1.36,0.4,2.2,0.4c0.9,0,1.66-0.13,2.3-0.4
								C44.33,79.65,44.64,79.38,44.68,79.08z"/>
							
								<radialGradient id="SVGID_21_" cx="41.5757" cy="79.7817" r="5.3987" gradientTransform="matrix(1 0 0 0.5162 0 38.5984)" gradientUnits="userSpaceOnUse">
								<stop  offset="0" style="stop-color:#D42027"/>
								<stop  offset="1" style="stop-color:#690000"/>
							</radialGradient>
							<path fill="url(#SVGID_21_)" d="M44.68,78.93c0,0.03,0,0.08,0,0.15c-0.04,0.3-0.35,0.57-0.95,0.8c-0.64,0.27-1.4,0.4-2.3,0.4
								c-0.84,0-1.57-0.13-2.2-0.4c-0.57-0.23-0.89-0.5-0.95-0.8c0-0.07,0-0.12,0-0.15c0-0.33,0.31-0.62,0.95-0.85
								c0.63-0.27,1.36-0.4,2.2-0.4c0.9,0,1.66,0.13,2.3,0.4C44.36,78.31,44.68,78.6,44.68,78.93z"/>
						</g>
						<g>
						</g>
					</g>
				</g>
				<g>
					
						<radialGradient id="SVGID_22_" cx="-241.5249" cy="296.228" r="1.6" gradientTransform="matrix(1 0 0 -1.2734 281.5 456.897)" gradientUnits="userSpaceOnUse">
						<stop  offset="0" style="stop-color:#C5C5C2"/>
						<stop  offset="1" style="stop-color:#C1C1BE;stop-opacity:0"/>
					</radialGradient>
					<path fill="url(#SVGID_22_)" d="M39.23,79.63c0.4,0.17,0.85,0.27,1.35,0.3c0.5,0.1,0.92,0.15,1.25,0.15
						c-0.27,0.07-0.68,0.08-1.25,0.05c-0.6-0.03-1.08-0.15-1.45-0.35c-0.25-0.15-0.44-0.29-0.55-0.42
						C38.71,79.42,38.93,79.51,39.23,79.63z"/>
				</g>
			</g>
			<g>
				<path fill="#490202" d="M43.42,78.83c0,0.07-0.17,0.15-0.5,0.25c-0.37,0.07-0.8,0.1-1.3,0.1c-0.47,0-0.87-0.03-1.2-0.1
					c-0.33-0.1-0.5-0.22-0.5-0.35c0-0.07,0.17-0.15,0.5-0.25c0.33-0.03,0.73-0.05,1.2-0.05c0.5,0,0.93,0.02,1.3,0.05
					C43.26,78.58,43.42,78.7,43.42,78.83z"/>
			</g>
			<g>
				
					<radialGradient id="SVGID_23_" cx="-240.3252" cy="-317.8745" r="2.2249" gradientTransform="matrix(1 0 0 -0.3989 281.5 -51.0661)" gradientUnits="userSpaceOnUse">
					<stop  offset="0" style="stop-color:#A91E22"/>
					<stop  offset="1" style="stop-color:#6F0000"/>
				</radialGradient>
				<path fill="url(#SVGID_23_)" d="M43.08,76.53h-0.1c-0.4,0.13-0.87,0.2-1.4,0.2c-0.53,0-1-0.07-1.4-0.2
					c-0.4-0.07-0.6-0.18-0.6-0.35v-0.1c0-0.17,0.2-0.28,0.6-0.35c0.4-0.17,0.87-0.25,1.4-0.25c0.53,0,1,0.08,1.4,0.25
					c0.4,0.07,0.6,0.18,0.6,0.35v0.1C43.58,76.35,43.41,76.47,43.08,76.53z"/>
				
					<radialGradient id="SVGID_24_" cx="-240.3252" cy="398.7632" r="1.0875" gradientTransform="matrix(1 0 0 -1.977 281.5 865.8357)" gradientUnits="userSpaceOnUse">
					<stop  offset="0" style="stop-color:#BE2026"/>
					<stop  offset="0.2392" style="stop-color:#7D1416"/>
					<stop  offset="1" style="stop-color:#530000"/>
				</radialGradient>
				<path fill="url(#SVGID_24_)" d="M40.17,76.53c0.4,0.13,0.87,0.2,1.4,0.2c0.53,0,1-0.07,1.4-0.2h0.1l-0.1,2.2
					c-0.93,0.3-1.87,0.3-2.8,0V76.53z"/>
			</g>
		</g>
		<g>
			<g>
				<g>
					<path fill="#660316" d="M102.09,80.42c0.03,0.47,0.5,0.87,1.4,1.2c0.87,0.4,1.95,0.6,3.25,0.6s2.42-0.2,3.35-0.6
						c0.9-0.33,1.37-0.73,1.4-1.2c0,0.04,0,0.08,0,0.15c0,0.5-0.47,0.93-1.4,1.3c-0.93,0.4-2.05,0.6-3.35,0.6s-2.38-0.2-3.25-0.6
						c-0.93-0.37-1.4-0.8-1.4-1.3C102.09,80.51,102.09,80.46,102.09,80.42z"/>
					
						<radialGradient id="SVGID_25_" cx="-174.6074" cy="-115.0601" r="8.0126" gradientTransform="matrix(1 0 0 -0.5195 281.5 21.8001)" gradientUnits="userSpaceOnUse">
						<stop  offset="0" style="stop-color:#D42027"/>
						<stop  offset="1" style="stop-color:#690000"/>
					</radialGradient>
					<path fill="url(#SVGID_25_)" d="M111.49,80.42c-0.03,0.47-0.5,0.87-1.4,1.2c-0.93,0.4-2.05,0.6-3.35,0.6s-2.38-0.2-3.25-0.6
						c-0.9-0.33-1.37-0.73-1.4-1.2v-0.05c0-0.53,0.47-1,1.4-1.4c0.87-0.33,1.95-0.5,3.25-0.5s2.42,0.17,3.35,0.5
						c0.93,0.4,1.4,0.87,1.4,1.4V80.42z"/>
				</g>
				<g>
					
						<radialGradient id="SVGID_26_" cx="-176.9082" cy="294.9253" r="2.363" gradientTransform="matrix(1 0 0 -1.2751 281.5 457.4822)" gradientUnits="userSpaceOnUse">
						<stop  offset="0" style="stop-color:#C5C5C2"/>
						<stop  offset="1" style="stop-color:#C1C1BE;stop-opacity:0"/>
					</radialGradient>
					<path fill="url(#SVGID_26_)" d="M105.44,81.82c0.73,0.07,1.37,0.13,1.9,0.2c-0.43,0.07-1.07,0.07-1.9,0
						c-0.87-0.07-1.58-0.23-2.15-0.5c-0.4-0.23-0.68-0.43-0.85-0.6c0.23,0.07,0.58,0.2,1.05,0.4
						C104.03,81.56,104.68,81.72,105.44,81.82z"/>
				</g>
			</g>
			<g>
				<g>
					<g id="XMLID_3_">
						<g>
							<radialGradient id="SVGID_27_" cx="106.8457" cy="80.0239" r="2.3091" gradientUnits="userSpaceOnUse">
								<stop  offset="0" style="stop-color:#420000"/>
								<stop  offset="1" style="stop-color:#690000"/>
							</radialGradient>
							<path fill="url(#SVGID_27_)" d="M110.05,79.37v0.05c0,1.16-2.52,1.25-3.25,1.25c-0.84,0-1.57-0.12-2.2-0.35
								c-0.64-0.27-0.95-0.57-0.95-0.9v-0.05c0.06,0.3,0.38,0.57,0.95,0.8c0.63,0.27,1.36,0.4,2.2,0.4c0.9,0,1.66-0.13,2.3-0.4
								C109.7,79.94,110.01,79.67,110.05,79.37z"/>
							
								<radialGradient id="SVGID_28_" cx="106.9429" cy="80.0728" r="5.3987" gradientTransform="matrix(1 0 0 0.5162 0 38.7392)" gradientUnits="userSpaceOnUse">
								<stop  offset="0" style="stop-color:#D42027"/>
								<stop  offset="1" style="stop-color:#690000"/>
							</radialGradient>
							<path fill="url(#SVGID_28_)" d="M110.05,79.22c0,0.03,0,0.08,0,0.15c-0.04,0.3-0.35,0.57-0.95,0.8
								c-0.64,0.27-1.4,0.4-2.3,0.4c-0.84,0-1.57-0.13-2.2-0.4c-0.57-0.23-0.89-0.5-0.95-0.8c0-0.07,0-0.12,0-0.15
								c0-0.33,0.31-0.62,0.95-0.85c0.63-0.27,1.36-0.4,2.2-0.4c0.9,0,1.66,0.13,2.3,0.4C109.73,78.6,110.05,78.89,110.05,79.22z"/>
						</g>
						<g>
						</g>
					</g>
				</g>
				<g>
					
						<radialGradient id="SVGID_29_" cx="-176.1577" cy="295.9995" r="1.6" gradientTransform="matrix(1 0 0 -1.2734 281.5 456.897)" gradientUnits="userSpaceOnUse">
						<stop  offset="0" style="stop-color:#C5C5C2"/>
						<stop  offset="1" style="stop-color:#C1C1BE;stop-opacity:0"/>
					</radialGradient>
					<path fill="url(#SVGID_29_)" d="M104.59,79.92c0.4,0.17,0.85,0.27,1.35,0.3c0.5,0.1,0.92,0.15,1.25,0.15
						c-0.27,0.07-0.68,0.08-1.25,0.05c-0.6-0.03-1.08-0.15-1.45-0.35c-0.25-0.15-0.44-0.29-0.55-0.42
						C104.08,79.71,104.29,79.81,104.59,79.92z"/>
				</g>
			</g>
			<g>
				<path fill="#490202" d="M108.79,79.12c0,0.07-0.17,0.15-0.5,0.25c-0.37,0.07-0.8,0.1-1.3,0.1c-0.47,0-0.87-0.03-1.2-0.1
					c-0.33-0.1-0.5-0.22-0.5-0.35c0-0.07,0.17-0.15,0.5-0.25c0.33-0.03,0.73-0.05,1.2-0.05c0.5,0,0.93,0.02,1.3,0.05
					C108.63,78.87,108.79,78.99,108.79,79.12z"/>
			</g>
			<g>
				
					<radialGradient id="SVGID_30_" cx="-174.958" cy="-318.604" r="2.2249" gradientTransform="matrix(1 0 0 -0.3989 281.5 -51.0661)" gradientUnits="userSpaceOnUse">
					<stop  offset="0" style="stop-color:#A91E22"/>
					<stop  offset="1" style="stop-color:#6F0000"/>
				</radialGradient>
				<path fill="url(#SVGID_30_)" d="M108.44,76.82h-0.1c-0.4,0.13-0.87,0.2-1.4,0.2c-0.53,0-1-0.07-1.4-0.2
					c-0.4-0.07-0.6-0.18-0.6-0.35v-0.1c0-0.17,0.2-0.28,0.6-0.35c0.4-0.17,0.87-0.25,1.4-0.25c0.53,0,1,0.08,1.4,0.25
					c0.4,0.07,0.6,0.18,0.6,0.35v0.1C108.94,76.64,108.78,76.76,108.44,76.82z"/>
				
					<radialGradient id="SVGID_31_" cx="-174.958" cy="398.6157" r="1.0875" gradientTransform="matrix(1 0 0 -1.977 281.5 865.8357)" gradientUnits="userSpaceOnUse">
					<stop  offset="0" style="stop-color:#BE2026"/>
					<stop  offset="0.2392" style="stop-color:#7D1416"/>
					<stop  offset="1" style="stop-color:#530000"/>
				</radialGradient>
				<path fill="url(#SVGID_31_)" d="M105.54,76.82c0.4,0.13,0.87,0.2,1.4,0.2c0.53,0,1-0.07,1.4-0.2h0.1l-0.1,2.2
					c-0.93,0.3-1.87,0.3-2.8,0V76.82z"/>
			</g>
		</g>
	</g>
	<g>
		<g>
			<path fill-opacity="0.2471" d="M368.45,64.17c0,0.13,0,0.27,0,0.4c0,0.33,0.08,0.62,0.25,0.85c0,0.07,0,0.12,0,0.15
				c0,0.2-0.02,0.4-0.05,0.6c-0.03,0.1-0.08,0.22-0.15,0.35c-0.07,0.03-0.12,0.07-0.15,0.1c-0.1,0.07-0.2,0.12-0.3,0.15
				c-0.03,0.03-0.07,0.1-0.1,0.2c-0.03,0.04-0.08,0.07-0.15,0.1c-0.03,0.03-0.08,0.08-0.15,0.15c-0.4,0.1-0.79,0.15-1.15,0.15
				c-0.83,0.57-1.68,0.62-2.55,0.15c-0.07-0.1-0.12-0.2-0.15-0.3c-0.06-0.07-0.1-0.12-0.1-0.15c-0.03-0.03-0.07-0.07-0.1-0.1
				c-0.43-0.3-0.85-0.6-1.25-0.9c-1.03-0.67-1.78-1.57-2.25-2.7c-0.2-0.23-0.42-0.45-0.65-0.65c-0.27-0.17-0.42-0.38-0.45-0.65
				c0-0.03,0-0.08,0-0.15c0.03-0.13,0.07-0.25,0.1-0.35c0.1-0.07,0.22-0.17,0.35-0.3c0.06,0,0.17-0.02,0.3-0.05c0.07,0,0.13,0,0.2,0
				c0.1,0.04,0.22,0.05,0.35,0.05c0.1,0.1,0.22,0.15,0.35,0.15c0.83,0.37,1.67,0.63,2.5,0.8c1.43-0.17,2.87,0.05,4.3,0.65
				c0.17,0.17,0.33,0.28,0.5,0.35c0.2,0.1,0.35,0.25,0.45,0.45C368.43,63.83,368.45,64,368.45,64.17z"/>
			
				<path fill="none" stroke="#000000" stroke-linecap="round" stroke-linejoin="round" stroke-miterlimit="3" stroke-opacity="0.2471" d="
				M368.45,64.17h14.65c0.6-0.07,1.54,0.18,2.8,0.75c1.2,0.57,1.96,1.08,2.3,1.55 M368.65,66.17c0.83,0.3,1.58,0.65,2.25,1.05
				c2.1,1.17,5.93,3.62,11.5,7.35c3.97,2.67,11.25,4.55,21.85,5.65c9.37,0.93,14.82,2.62,16.35,5.05 M359,62.07l-5.65,2.25
				c-3.87,0.9-9.46,1.78-16.8,2.65c-6.9,0.8-11.55,1.37-13.95,1.7 M362.35,66.07c-0.27,0.17-0.53,0.38-0.8,0.65
				c-0.57,0.57-1.53,1.62-2.9,3.15c-2.9,2.47-4.37,3.75-4.4,3.85c-1.73,2.33-2.28,5.58-1.65,9.75"/>
			<g>
				<g>
					
						<linearGradient id="SVGID_32_" gradientUnits="userSpaceOnUse" x1="-902.1724" y1="1109.1118" x2="-895.3094" y2="1109.1118" gradientTransform="matrix(-0.9944 -0.1056 -0.1192 0.993 -347.3019 -1128.9915)">
						<stop  offset="0" style="stop-color:#B0B1AF"/>
						<stop  offset="0.5176" style="stop-color:#E1E1E1"/>
						<stop  offset="1" style="stop-color:#878584"/>
					</linearGradient>
					<path fill="url(#SVGID_32_)" d="M410.95,67.27c-0.1-0.1-0.15-0.17-0.15-0.2v-0.1l6.7,0.3c0.1,0.13,0.15,0.23,0.15,0.3
						L410.95,67.27z"/>
					<path fill="#666662" d="M417.7,67.77c-0.1,0.27-0.47,0.45-1.1,0.55c-0.7,0.1-1.52,0.1-2.45,0c-0.97-0.07-1.77-0.23-2.4-0.5
						c-0.47-0.2-0.73-0.38-0.8-0.55l6.7,0.3c0.03,0,0.05,0.05,0.05,0.15V67.77z M417.5,67.27l-6.7-0.3c0.03-0.3,0.4-0.52,1.1-0.65
						c0.7-0.1,1.53-0.1,2.5,0c0.93,0.1,1.71,0.27,2.35,0.5C417.12,66.98,417.37,67.13,417.5,67.27z"/>
					
						<linearGradient id="SVGID_33_" gradientUnits="userSpaceOnUse" x1="-898.4849" y1="1108.4458" x2="-891.5961" y2="1108.4458" gradientTransform="matrix(-0.9942 -0.1078 -0.1078 0.9942 -356.1568 -1130.5442)">
						<stop  offset="0" style="stop-color:#B0B1AF"/>
						<stop  offset="0.5176" style="stop-color:#E1E1E1"/>
						<stop  offset="1" style="stop-color:#878584"/>
					</linearGradient>
					<path fill="url(#SVGID_33_)" d="M410.8,67.07c0,0.03,0.05,0.1,0.15,0.2c0.06,0.17,0.33,0.35,0.8,0.55
						c0.63,0.27,1.43,0.43,2.4,0.5c0.93,0.1,1.75,0.1,2.45,0c0.63-0.1,1-0.28,1.1-0.55v0.05c-0.03,0.3-0.4,0.52-1.1,0.65
						c-0.7,0.13-1.52,0.15-2.45,0.05c-0.97-0.07-1.77-0.25-2.4-0.55c-0.53-0.2-0.85-0.45-0.95-0.75
						C410.8,67.15,410.8,67.1,410.8,67.07z"/>
				</g>
			</g>
		</g>
		<g>
			<path fill="none" stroke="#4C4E50" stroke-linecap="round" stroke-linejoin="round" stroke-miterlimit="3" d="M380.15,39.92
				h-0.95c0,0.07-0.03,0.12-0.1,0.15c7.97,6.43,14.7,9.83,20.2,10.2c1.4,0.1,3.2,0.15,5.4,0.15c1.53,0.13,2.65,0.62,3.35,1.45
				c0.47,0.63,1.15,2.03,2.05,4.2c0.63,1.7,1.8,3.18,3.5,4.45c0.53,0.4,0.57,1.27,0.1,2.6c-0.47,1.43-0.57,2.35-0.3,2.75
				c0.2,0.33,0.78,0.93,1.75,1.8c0.8,0.87,1.17,1.65,1.1,2.35c-2.1,2.5-2.4,4.73-0.9,6.7c0.1,0.1,0.19,0.22,0.25,0.35
				c0.94,1.13,2.62,2.83,5.05,5.1 M354.55,82.97c-3.27-4.73-4.95-7.23-5.05-7.5c-0.63-1.63-0.2-3.87,1.3-6.7
				c1.4-2.73,1.93-5.58,1.6-8.55c-0.33-3.03,1.63-5.1,5.9-6.2c4.23-1.1,8.43-3.6,12.6-7.5c4.17-3.9,6.78-6.25,7.85-7.05
				c0.4-0.03,0.75-0.05,1.05-0.05 M391.6,68.77c-2.03-1.63-2.35-4-0.95-7.1c1.17-2.5-0.32-4.27-4.45-5.3c-1-0.27-1.97-0.77-2.9-1.5
				c-1.53-0.87-3.13-2.08-4.8-3.65c-0.27-0.23-0.52-0.48-0.75-0.75c-2.57-2.63-3.5-4.63-2.8-6c0.2-0.37,0.82-0.95,1.85-1.75
				c1-0.73,1.77-1.62,2.3-2.65c-0.1-0.17-0.22-0.37-0.35-0.6"/>
		</g>
		<g>
			<path fill="none" stroke="#000000" stroke-linecap="round" stroke-linejoin="round" stroke-miterlimit="3" d="M380.15,39.92
				h-0.95c0,0.07-0.03,0.12-0.1,0.15c7.37,5.43,12.8,8.38,16.3,8.85c3.57,0.4,6.42,0.77,8.55,1.1c2.03,0.4,3.53,0.92,4.5,1.55
				c1.06,0.57,1.93,1.9,2.6,4c0.73,2.1,1.7,3.38,2.9,3.85c1.27,0.47,1.58,1.48,0.95,3.05c-0.57,1.57-0.52,2.52,0.15,2.85
				c0.7,0.3,1.08,0.98,1.15,2.05c0.1,1.07,0.12,1.95,0.05,2.65c-1.23,2.83-1.47,4.97-0.7,6.4c0.07,0.03,0.13,0.13,0.2,0.3
				c0.87,1.3,2.5,3.12,4.9,5.45 M391.6,68.77c-0.63-1.93-0.63-4.25,0-6.95c0.63-2.63-0.38-4.57-3.05-5.8
				c-0.77-0.33-1.52-0.72-2.25-1.15c-2.33-1.13-4.75-2.6-7.25-4.4c-3.4-2.53-4.6-4.33-3.6-5.4c0.97-1.1,1.68-1.95,2.15-2.55
				c0.43-0.6,0.93-1.42,1.5-2.45c-0.1-0.17-0.22-0.37-0.35-0.6c-1.07,0.8-3.43,3.15-7.1,7.05c-3.7,3.9-7.67,6.4-11.9,7.5
				c-4.27,1.1-6.28,3.17-6.05,6.2c0.2,2.97-0.43,5.83-1.9,8.6c-1.43,2.8-1.81,4.68-1.15,5.65c0.67,0.93,1.97,3.77,3.9,8.5
				 M378.75,39.47c0.4-0.03,0.75-0.05,1.05-0.05"/>
		</g>
		<g>
			<path d="M376.1,14.42c1.27,0,2.35,0.47,3.25,1.4c0.9,0.97,1.35,2.08,1.35,3.35c0,1.3-0.45,2.42-1.35,3.35
				c-0.9,1-1.98,1.5-3.25,1.5c-1.23,0-2.28-0.5-3.15-1.5c-0.97-0.93-1.45-2.05-1.45-3.35c0-1.27,0.48-2.38,1.45-3.35
				C373.82,14.88,374.87,14.42,376.1,14.42z"/>
		</g>
		<g>
			<path fill="#151515" d="M379.25,18.67c0,0.03,0.02,0.1,0.05,0.2l-0.05,1.3l1,1.85v1.95l0.45,0.5c0.2,1.43,0.22,2.93,0.05,4.5
				c0,0.2,0,0.37,0,0.5c0.3,0.47,0.47,0.95,0.5,1.45c0,0.13,0,0.25,0,0.35l0.65,0.6c-0.17,1.87-0.03,3.48,0.4,4.85l0.05,0.2h-0.05
				c-0.1,0.07-0.15,0.12-0.15,0.15c-0.1,0.07-0.17,0.13-0.2,0.2c0,0.1,0,0.17,0,0.2c-0.03,0.1-0.05,0.23-0.05,0.4v0.05
				c0,0.07-0.02,0.17-0.05,0.3c-0.13,0.03-0.25,0.12-0.35,0.25c0,0.03-0.02,0.05-0.05,0.05c0,0.23-0.02,0.43-0.05,0.6
				c0.37,0.17,0.8,0.27,1.3,0.3c0.13,0.03,0.3,0.08,0.5,0.15c0.07,0.03,0.13,0.13,0.2,0.3l0.1,0.05c0.03,0.13,0.05,0.25,0.05,0.35
				c-0.03,0.27-0.05,0.58-0.05,0.95c0,0.4-0.07,0.75-0.2,1.05c0,0.13-0.06,0.27-0.2,0.4c-0.27,0.1-0.5,0.2-0.7,0.3
				c-0.07,0-0.15,0-0.25,0c-0.13-0.1-0.28-0.15-0.45-0.15c-0.03-0.03-0.1-0.08-0.2-0.15c0-0.13-0.03-0.2-0.1-0.2
				c-1.27-0.33-2.63-0.38-4.1-0.15c-0.1,0.07-0.23,0.12-0.4,0.15c-0.37,0.2-0.72,0.47-1.05,0.8c-0.03,0-0.12,0.07-0.25,0.2
				c-0.5,0.2-0.95,0.15-1.35-0.15c-0.03,0-0.07-0.02-0.1-0.05c-0.1,0-0.17-0.03-0.2-0.1s-0.08-0.2-0.15-0.4
				c-0.03-0.13-0.03-0.28,0-0.45c0.07-0.07,0.1-0.15,0.1-0.25c0.17-0.13,0.28-0.3,0.35-0.5c0.17-0.43,0.4-0.82,0.7-1.15
				c0.1,0,0.2-0.1,0.3-0.3c-0.1-0.13-0.22-0.22-0.35-0.25c0.03-0.1,0.03-0.2,0-0.3c-0.03,0-0.08-0.03-0.15-0.1c0-0.07,0-0.15,0-0.25
				c0.1-0.07,0.17-0.15,0.2-0.25c0.03-0.17,0.05-0.32,0.05-0.45c0.07-0.4,0.12-0.82,0.15-1.25c0.07-0.47,0.1-0.93,0.1-1.4
				c-0.03-0.1-0.12-0.22-0.25-0.35c-0.03-0.03-0.03-0.1,0-0.2l-0.05-0.1c0-0.1,0-0.17,0-0.2c0-0.13,0.02-0.25,0.05-0.35
				c0-0.03,0-0.12,0-0.25c0-0.03,0-0.07,0-0.1c0.07-0.13,0.07-0.22,0-0.25c-0.03,0-0.07-0.05-0.1-0.15l-0.15-0.15
				c0.07-0.2,0.1-0.38,0.1-0.55c0.04-0.17,0.05-0.35,0.05-0.55c0.03-0.13,0.05-0.3,0.05-0.5c-0.37-1.77-0.38-3.62-0.05-5.55
				c0.03-0.27,0.02-0.48-0.05-0.65c-0.06-0.07-0.12-0.15-0.15-0.25h-0.05c-0.04-0.07-0.12-0.15-0.25-0.25
				c-0.07-0.03-0.1-0.07-0.1-0.1c0-0.1-0.02-0.17-0.05-0.2c0-0.03-0.02-0.08-0.05-0.15c0-0.1,0.02-0.27,0.05-0.5
				c-0.13-0.23-0.25-0.52-0.35-0.85c0.03-0.07,0.03-0.1,0-0.1c-0.1-0.07-0.17-0.18-0.2-0.35v-0.15c0-0.13,0-0.23,0-0.3l0.05-0.2
				c0-0.5,0.02-1,0.05-1.5c-0.1-0.17-0.2-0.38-0.3-0.65c-0.03-0.03-0.03-0.1,0-0.2v-0.15c0-0.13,0.02-0.25,0.05-0.35
				c0-0.03-0.02-0.1-0.05-0.2c0-0.03,0-0.07,0-0.1c0.1-0.13,0.18-0.22,0.25-0.25c0-0.03,0.05-0.08,0.15-0.15
				c0.03-0.1,0.07-0.18,0.1-0.25c0.2-0.03,0.35-0.05,0.45-0.05c0.17,0,0.33-0.03,0.5-0.1H375c0.17-0.2,0.3-0.33,0.4-0.4
				c0.17-0.2,0.3-0.3,0.4-0.3c0.07-0.1,0.15-0.17,0.25-0.2c0.1-0.1,0.23-0.15,0.4-0.15c0.4-0.03,0.8-0.05,1.2-0.05
				c0.1,0,0.16,0,0.2,0c0.13,0.03,0.23,0.05,0.3,0.05c0.1,0.1,0.2,0.15,0.3,0.15c0.07,0.07,0.1,0.13,0.1,0.2
				c0.03,0,0.08,0.02,0.15,0.05c0.17-0.03,0.28-0.05,0.35-0.05C379.08,18.15,379.15,18.4,379.25,18.67z"/>
		</g>
		<g>
			<path fill="#616161" fill-opacity="0.4627" d="M375.8,16.37l0.3-0.1l1.25,0.85c0,0.07,0.02,0.12,0.05,0.15v0.05
				c-0.04,0.07-0.07,0.12-0.1,0.15c-0.33,0.13-0.32,0.45,0.05,0.95c-0.46,0.07-0.68,0.15-0.65,0.25c0,0.17,0.07,0.28,0.2,0.35
				c0.13,0.1,0.42,0.3,0.85,0.6c-0.3,0.17-0.43,0.37-0.4,0.6v0.1l-0.05,0.05c-0.03,0-0.08,0.02-0.15,0.05
				c-0.07,0-0.13,0.02-0.2,0.05c0.2,0.17,0.35,0.3,0.45,0.4c0.1,0.03,0.15,0.27,0.15,0.7c0,0.23-0.08,0.47-0.25,0.7
				c-0.1,0.07-0.15,0.22-0.15,0.45c-0.03,0.33,0.05,0.55,0.25,0.65c0.23,0.23,0.35,0.43,0.35,0.6s-0.08,0.35-0.25,0.55
				c-0.1,0.1-0.15,0.22-0.15,0.35c-0.03,0.4,0.44,0.9,1.4,1.5c-0.9,0.17-1.32,0.37-1.25,0.6c0.87,0,1.37,0.05,1.5,0.15
				c-0.2,0.17-0.67,0.4-1.4,0.7c0.73,0.23,1.2,0.55,1.4,0.95c-0.83,0.67-1.08,1.75-0.75,3.25c0.5,2.47,0.75,4.45,0.75,5.95v0.05
				l-0.4,1.3c0,0.1,0.04,0.18,0.1,0.25c0.03,0.03,0.05,0.07,0.05,0.1s-0.02,0.08-0.05,0.15c-0.07,0.03-0.12,0.05-0.15,0.05
				s-0.06-0.02-0.1-0.05c-0.13-0.13-0.18-0.33-0.15-0.6l0.4-1.25c-0.07-0.87-0.27-2.02-0.6-3.45c-0.63-0.07-1.06-0.27-1.3-0.6
				c0.83-0.8,1.18-1.55,1.05-2.25c-0.03-0.13-0.38-0.23-1.05-0.3c0.3-0.37,0.63-0.83,1-1.4c-0.47,0.03-0.92-0.08-1.35-0.35
				c0.87-0.67,0.58-0.97-0.85-0.9c0.5-0.37,0.87-0.68,1.1-0.95c0.06-0.27-0.19-0.5-0.75-0.7c0.17-0.23,0.48-0.43,0.95-0.6
				c0.03-0.57,0.08-1.1,0.15-1.6c-0.06-0.23,0-0.43,0.2-0.6v0.05c0.07-0.17,0.12-0.28,0.15-0.35c-0.04-0.1-0.12-0.2-0.25-0.3h0.1
				c-0.27-0.23-0.4-0.55-0.4-0.95c-0.03-0.23-0.33-0.42-0.9-0.55c0.67-0.07,1.03-0.12,1.1-0.15v0.05c0.13-0.17-0.33-0.42-1.4-0.75
				c1-0.1,1.5-0.17,1.5-0.2h0.1c-0.2-0.07-0.42-0.25-0.65-0.55c-0.03-0.07-0.03-0.12,0-0.15c-0.03-0.03-0.03-0.07,0-0.1
				c0.13-0.13-0.13-0.28-0.8-0.45c0.7-0.27,1-0.47,0.9-0.6c-0.2-0.17-0.3-0.37-0.3-0.6c-0.04-0.23-0.33-0.4-0.9-0.5
				c0.7-0.43,1.18-0.73,1.45-0.9l-2-0.75L375.8,16.37z"/>
			
				<radialGradient id="SVGID_34_" cx="97.7251" cy="258.4165" r="2.0775" gradientTransform="matrix(1 0 0 -1 281.5 298.833)" gradientUnits="userSpaceOnUse">
				<stop  offset="0" style="stop-color:#BDBDBD;stop-opacity:0.8314"/>
				<stop  offset="1" style="stop-color:#A9A9A9;stop-opacity:0"/>
			</radialGradient>
			<path fill="url(#SVGID_34_)" d="M377.15,40.37c0.17,0.33,0,0.55-0.5,0.65c-0.2,0-0.3-0.12-0.3-0.35c0-0.27,0.2-0.37,0.6-0.3
				c0.06,0,0.12,0,0.15,0H377.15z M380.3,39.82c0.3,0,0.58,0.02,0.85,0.05c0.03,0,0.06,0.02,0.1,0.05c0.1,0.1,0.18,0.18,0.25,0.25
				c0,0.07,0.03,0.1,0.1,0.1c0.1,0.03,0.22,0.07,0.35,0.1c0.03,0.03,0.08,0.08,0.15,0.15c-0.07,0.03-0.12,0.05-0.15,0.05
				c-0.2,0-0.4,0-0.6,0c-0.07,0-0.12-0.02-0.15-0.05c-0.07-0.1-0.15-0.18-0.25-0.25v-0.1c-0.53,0.13-0.77,0.03-0.7-0.3
				C380.25,39.83,380.27,39.82,380.3,39.82z"/>
		</g>
		<g>
			<g>
				
					<linearGradient id="SVGID_35_" gradientUnits="userSpaceOnUse" x1="-793.8086" y1="1197.1587" x2="-785.957" y2="1197.1587" gradientTransform="matrix(-1 0 0 1 -432.833 -1096.168)">
					<stop  offset="0" style="stop-color:#B0B1AF"/>
					<stop  offset="0.5176" style="stop-color:#E1E1E1"/>
					<stop  offset="1" style="stop-color:#878584"/>
				</linearGradient>
				<path fill="url(#SVGID_35_)" d="M353.1,101.12l7.65-0.6c0.1,0.1,0.17,0.22,0.2,0.35l-7.7,0.6c-0.1-0.06-0.15-0.15-0.15-0.25
					V101.12z"/>
				
					<linearGradient id="SVGID_36_" gradientUnits="userSpaceOnUse" x1="-793.8823" y1="1198.1841" x2="-785.9819" y2="1198.1841" gradientTransform="matrix(-1 0 0 1 -432.833 -1096.168)">
					<stop  offset="0" style="stop-color:#B0B1AF"/>
					<stop  offset="0.5176" style="stop-color:#E1E1E1"/>
					<stop  offset="1" style="stop-color:#878584"/>
				</linearGradient>
				<path fill="url(#SVGID_36_)" d="M353.1,101.22c0,0.1,0.05,0.19,0.15,0.25c0.17,0.27,0.5,0.5,1,0.7c0.8,0.3,1.75,0.45,2.85,0.45
					c1.1,0,2.02-0.15,2.75-0.45c0.73-0.3,1.12-0.63,1.15-1v0.05c0,0.47-0.38,0.85-1.15,1.15c-0.73,0.33-1.65,0.5-2.75,0.5
					c-1.1,0-2.05-0.17-2.85-0.5c-0.63-0.27-1.02-0.57-1.15-0.9C353.1,101.4,353.1,101.32,353.1,101.22z"/>
				<path fill="#666662" d="M360.75,100.52l-7.65,0.6c0-0.47,0.38-0.87,1.15-1.2c0.8-0.27,1.75-0.4,2.85-0.4
					c1.1,0,2.02,0.13,2.75,0.4C360.28,100.12,360.58,100.32,360.75,100.52z M353.25,101.47l7.7-0.6c0.03,0.03,0.05,0.12,0.05,0.25
					v0.05c-0.03,0.37-0.42,0.7-1.15,1c-0.73,0.3-1.65,0.45-2.75,0.45c-1.1,0-2.05-0.15-2.85-0.45
					C353.75,101.97,353.42,101.73,353.25,101.47z"/>
			</g>
		</g>
		<g>
			<g>
				
					<linearGradient id="SVGID_37_" gradientUnits="userSpaceOnUse" x1="-729.5493" y1="1202.5093" x2="-722.6544" y2="1202.5093" gradientTransform="matrix(-0.9968 0.0803 0.0803 0.9968 -487.982 -1065.4303)">
					<stop  offset="0" style="stop-color:#B0B1AF"/>
					<stop  offset="0.5176" style="stop-color:#E1E1E1"/>
					<stop  offset="1" style="stop-color:#878584"/>
				</linearGradient>
				<path fill="url(#SVGID_37_)" d="M328.95,74.67c0.17,0.23,0.48,0.42,0.95,0.55c0.7,0.2,1.53,0.27,2.5,0.2
					c0.97-0.1,1.75-0.3,2.35-0.6c0.6-0.27,0.92-0.55,0.95-0.85c0.03,0.37-0.28,0.72-0.95,1.05c-0.6,0.33-1.38,0.55-2.35,0.65
					c-0.97,0.07-1.8-0.02-2.5-0.25c-0.57-0.23-0.93-0.48-1.1-0.75c0-0.07,0-0.13,0-0.2C328.8,74.53,328.85,74.6,328.95,74.67z"/>
				
					<linearGradient id="SVGID_38_" gradientUnits="userSpaceOnUse" x1="-723.8701" y1="1200.1196" x2="-716.9996" y2="1200.1196" gradientTransform="matrix(-0.9971 0.0764 0.0905 0.996 -494.757 -1066.2881)">
					<stop  offset="0" style="stop-color:#B0B1AF"/>
					<stop  offset="0.5176" style="stop-color:#E1E1E1"/>
					<stop  offset="1" style="stop-color:#878584"/>
				</linearGradient>
				<path fill="url(#SVGID_38_)" d="M328.8,74.32l6.6-1c0.06,0.1,0.15,0.2,0.25,0.3l-6.7,1.05c-0.1-0.07-0.15-0.13-0.15-0.2V74.32
					L328.8,74.32z"/>
				<path fill="#666662" d="M335.65,73.62c0.03,0.07,0.05,0.13,0.05,0.2v0.15c-0.03,0.3-0.35,0.58-0.95,0.85
					c-0.6,0.3-1.38,0.5-2.35,0.6c-0.97,0.07-1.8,0-2.5-0.2c-0.47-0.13-0.78-0.32-0.95-0.55L335.65,73.62z M328.8,74.32
					c-0.03-0.37,0.28-0.72,0.95-1.05c0.63-0.3,1.43-0.48,2.4-0.55c0.97-0.1,1.78-0.05,2.45,0.15c0.4,0.13,0.67,0.28,0.8,0.45
					L328.8,74.32z"/>
			</g>
		</g>
		<g>
			<g>
				
					<linearGradient id="SVGID_39_" gradientUnits="userSpaceOnUse" x1="-988.0288" y1="1052.8364" x2="-980.1406" y2="1052.8364" gradientTransform="matrix(-0.972 -0.235 -0.235 0.972 -258.6159 -1160.8174)">
					<stop  offset="0" style="stop-color:#B0B1AF"/>
					<stop  offset="0.5176" style="stop-color:#E1E1E1"/>
					<stop  offset="1" style="stop-color:#878584"/>
				</linearGradient>
				<path fill="url(#SVGID_39_)" d="M446.85,92.07c-0.03,0.1-0.01,0.2,0.05,0.3c0.1,0.3,0.37,0.62,0.8,0.95
					c0.73,0.43,1.63,0.78,2.7,1.05c1.03,0.23,1.95,0.33,2.75,0.3c0.77-0.13,1.21-0.38,1.35-0.75v0.05c-0.13,0.47-0.6,0.73-1.4,0.8
					c-0.8,0.13-1.72,0.08-2.75-0.15c-1.07-0.27-1.98-0.65-2.75-1.15c-0.5-0.37-0.77-0.75-0.8-1.15
					C446.8,92.25,446.82,92.17,446.85,92.07z"/>
				<path fill="#666662" d="M446.9,92.37l7.6,1.2c0.03,0.07,0.03,0.15,0,0.25v0.1c-0.13,0.37-0.58,0.62-1.35,0.75
					c-0.8,0.03-1.72-0.07-2.75-0.3c-1.07-0.27-1.97-0.62-2.7-1.05C447.27,92.98,447,92.67,446.9,92.37z M446.85,91.97
					c0.13-0.46,0.6-0.75,1.4-0.85c0.83-0.07,1.78,0.02,2.85,0.25c1.04,0.27,1.92,0.63,2.65,1.1c0.33,0.23,0.53,0.48,0.6,0.75
					L446.85,91.97z"/>
				
					<linearGradient id="SVGID_40_" gradientUnits="userSpaceOnUse" x1="-988.2617" y1="1050.8931" x2="-980.3911" y2="1050.8931" gradientTransform="matrix(-0.9718 -0.2357 -0.2357 0.9718 -258.1852 -1160.459)">
					<stop  offset="0" style="stop-color:#B0B1AF"/>
					<stop  offset="0.5176" style="stop-color:#E1E1E1"/>
					<stop  offset="1" style="stop-color:#878584"/>
				</linearGradient>
				<path fill="url(#SVGID_40_)" d="M446.85,92.07v-0.1l7.5,1.25c0.1,0.13,0.15,0.25,0.15,0.35l-7.6-1.2
					C446.84,92.27,446.82,92.17,446.85,92.07z"/>
			</g>
		</g>
		<g>
			<g>
				<g>
					<path fill="#660316" d="M416.82,84.75c0.03,0.47,0.5,0.87,1.4,1.2c0.87,0.4,1.95,0.6,3.25,0.6c1.3,0,2.42-0.2,3.35-0.6
						c0.9-0.33,1.37-0.73,1.4-1.2c0,0.04,0,0.08,0,0.15c0,0.5-0.47,0.93-1.4,1.3c-0.93,0.4-2.05,0.6-3.35,0.6
						c-1.3,0-2.38-0.2-3.25-0.6c-0.93-0.37-1.4-0.8-1.4-1.3C416.82,84.83,416.82,84.78,416.82,84.75z"/>
					
						<radialGradient id="SVGID_41_" cx="140.1157" cy="-123.3882" r="8.013" gradientTransform="matrix(1 0 0 -0.5195 281.5 21.8001)" gradientUnits="userSpaceOnUse">
						<stop  offset="0" style="stop-color:#D42027"/>
						<stop  offset="1" style="stop-color:#690000"/>
					</radialGradient>
					<path fill="url(#SVGID_41_)" d="M426.22,84.75c-0.03,0.47-0.5,0.87-1.4,1.2c-0.93,0.4-2.05,0.6-3.35,0.6
						c-1.3,0-2.38-0.2-3.25-0.6c-0.9-0.33-1.37-0.73-1.4-1.2V84.7c0-0.53,0.47-1,1.4-1.4c0.87-0.33,1.95-0.5,3.25-0.5
						c1.3,0,2.42,0.17,3.35,0.5c0.93,0.4,1.4,0.87,1.4,1.4V84.75z"/>
				</g>
				<g>
					
						<radialGradient id="SVGID_42_" cx="137.8159" cy="291.5327" r="2.3626" gradientTransform="matrix(1 0 0 -1.2751 281.5 457.4822)" gradientUnits="userSpaceOnUse">
						<stop  offset="0" style="stop-color:#C5C5C2"/>
						<stop  offset="1" style="stop-color:#C1C1BE;stop-opacity:0"/>
					</radialGradient>
					<path fill="url(#SVGID_42_)" d="M420.17,86.15c0.73,0.07,1.37,0.13,1.9,0.2c-0.43,0.07-1.07,0.07-1.9,0
						c-0.87-0.07-1.58-0.23-2.15-0.5c-0.4-0.23-0.68-0.43-0.85-0.6c0.23,0.07,0.58,0.2,1.05,0.4
						C418.75,85.88,419.4,86.05,420.17,86.15z"/>
				</g>
			</g>
			<g>
				<g>
					<g id="XMLID_4_">
						<g>
							
								<radialGradient id="SVGID_43_" cx="421.6665" cy="84.3989" r="5.3979" gradientTransform="matrix(1 0 0 0.5162 0 40.8322)" gradientUnits="userSpaceOnUse">
								<stop  offset="0" style="stop-color:#D42027"/>
								<stop  offset="1" style="stop-color:#690000"/>
							</radialGradient>
							<path fill="url(#SVGID_43_)" d="M421.52,84.9c-0.84,0-1.57-0.13-2.2-0.4c-0.57-0.23-0.89-0.5-0.95-0.8c0-0.07,0-0.12,0-0.15
								c0-0.33,0.31-0.62,0.95-0.85c0.63-0.27,1.36-0.4,2.2-0.4c0.9,0,1.66,0.13,2.3,0.4c0.63,0.23,0.95,0.52,0.95,0.85
								c0,0.03,0,0.08,0,0.15c-0.04,0.3-0.35,0.57-0.95,0.8C423.18,84.77,422.42,84.9,421.52,84.9z"/>
							<radialGradient id="SVGID_44_" cx="421.5698" cy="84.3501" r="2.3085" gradientUnits="userSpaceOnUse">
								<stop  offset="0" style="stop-color:#420000"/>
								<stop  offset="1" style="stop-color:#690000"/>
							</radialGradient>
							<path fill="url(#SVGID_44_)" d="M419.32,84.5c0.63,0.27,1.36,0.4,2.2,0.4c0.9,0,1.66-0.13,2.3-0.4
								c0.6-0.23,0.91-0.5,0.95-0.8v0.05c0,1.16-2.52,1.25-3.25,1.25c-0.84,0-1.57-0.12-2.2-0.35c-0.64-0.27-0.95-0.57-0.95-0.9
								V83.7C418.43,84,418.75,84.27,419.32,84.5z"/>
						</g>
						<g>
						</g>
					</g>
				</g>
				<g>
					
						<radialGradient id="SVGID_45_" cx="138.5664" cy="292.6021" r="1.6" gradientTransform="matrix(1 0 0 -1.2734 281.5 456.897)" gradientUnits="userSpaceOnUse">
						<stop  offset="0" style="stop-color:#C5C5C2"/>
						<stop  offset="1" style="stop-color:#C1C1BE;stop-opacity:0"/>
					</radialGradient>
					<path fill="url(#SVGID_45_)" d="M419.32,84.25c0.4,0.17,0.85,0.27,1.35,0.3c0.5,0.1,0.92,0.15,1.25,0.15
						c-0.27,0.07-0.68,0.08-1.25,0.05c-0.6-0.03-1.08-0.15-1.45-0.35c-0.25-0.15-0.44-0.29-0.55-0.42
						C418.8,84.04,419.02,84.13,419.32,84.25z"/>
				</g>
			</g>
			<g>
				<path fill="#490202" d="M423.52,83.45c0,0.07-0.17,0.15-0.5,0.25c-0.37,0.07-0.8,0.1-1.3,0.1c-0.47,0-0.87-0.03-1.2-0.1
					c-0.33-0.1-0.5-0.22-0.5-0.35c0-0.07,0.17-0.15,0.5-0.25c0.33-0.03,0.73-0.05,1.2-0.05c0.5,0,0.93,0.02,1.3,0.05
					C423.35,83.2,423.52,83.32,423.52,83.45z"/>
			</g>
			<g>
				
					<radialGradient id="SVGID_46_" cx="139.7661" cy="-329.4492" r="2.2249" gradientTransform="matrix(1 0 0 -0.3989 281.5 -51.0661)" gradientUnits="userSpaceOnUse">
					<stop  offset="0" style="stop-color:#A91E22"/>
					<stop  offset="1" style="stop-color:#6F0000"/>
				</radialGradient>
				<path fill="url(#SVGID_46_)" d="M423.17,81.15h-0.1c-0.4,0.13-0.87,0.2-1.4,0.2c-0.54,0-1-0.07-1.4-0.2
					c-0.4-0.07-0.6-0.18-0.6-0.35v-0.1c0-0.17,0.2-0.28,0.6-0.35c0.4-0.17,0.87-0.25,1.4-0.25c0.53,0,1,0.08,1.4,0.25
					c0.4,0.07,0.6,0.18,0.6,0.35v0.1C423.67,80.97,423.5,81.08,423.17,81.15z"/>
				
					<radialGradient id="SVGID_47_" cx="139.7661" cy="396.4272" r="1.0875" gradientTransform="matrix(1 0 0 -1.977 281.5 865.8357)" gradientUnits="userSpaceOnUse">
					<stop  offset="0" style="stop-color:#BE2026"/>
					<stop  offset="0.2392" style="stop-color:#7D1416"/>
					<stop  offset="1" style="stop-color:#530000"/>
				</radialGradient>
				<path fill="url(#SVGID_47_)" d="M420.27,81.15c0.4,0.13,0.87,0.2,1.4,0.2c0.53,0,1-0.07,1.4-0.2h0.1l-0.1,2.2
					c-0.93,0.3-1.87,0.3-2.8,0V81.15z"/>
			</g>
		</g>
		<g>
			<g>
				<g>
					<path fill="#660316" d="M386.82,70.17c0.03,0.47,0.5,0.87,1.4,1.2c0.87,0.4,1.95,0.6,3.25,0.6c1.3,0,2.42-0.2,3.35-0.6
						c0.9-0.33,1.37-0.73,1.4-1.2c0,0.04,0,0.08,0,0.15c0,0.5-0.47,0.93-1.4,1.3c-0.93,0.4-2.05,0.6-3.35,0.6
						c-1.3,0-2.38-0.2-3.25-0.6c-0.93-0.37-1.4-0.8-1.4-1.3C386.82,70.25,386.82,70.2,386.82,70.17z"/>
					
						<radialGradient id="SVGID_48_" cx="110.1157" cy="-95.3169" r="8.013" gradientTransform="matrix(1 0 0 -0.5195 281.5 21.8001)" gradientUnits="userSpaceOnUse">
						<stop  offset="0" style="stop-color:#D42027"/>
						<stop  offset="1" style="stop-color:#690000"/>
					</radialGradient>
					<path fill="url(#SVGID_48_)" d="M396.22,70.17c-0.03,0.47-0.5,0.87-1.4,1.2c-0.93,0.4-2.05,0.6-3.35,0.6
						c-1.3,0-2.38-0.2-3.25-0.6c-0.9-0.33-1.37-0.73-1.4-1.2v-0.05c0-0.53,0.47-1,1.4-1.4c0.87-0.33,1.95-0.5,3.25-0.5
						c1.3,0,2.42,0.17,3.35,0.5c0.93,0.4,1.4,0.87,1.4,1.4V70.17z"/>
				</g>
				<g>
					
						<radialGradient id="SVGID_49_" cx="107.8159" cy="302.9702" r="2.3625" gradientTransform="matrix(1 0 0 -1.2751 281.5 457.4822)" gradientUnits="userSpaceOnUse">
						<stop  offset="0" style="stop-color:#C5C5C2"/>
						<stop  offset="1" style="stop-color:#C1C1BE;stop-opacity:0"/>
					</radialGradient>
					<path fill="url(#SVGID_49_)" d="M390.17,71.57c0.73,0.07,1.37,0.13,1.9,0.2c-0.43,0.07-1.07,0.07-1.9,0
						c-0.87-0.07-1.58-0.23-2.15-0.5c-0.4-0.23-0.68-0.43-0.85-0.6c0.23,0.07,0.58,0.2,1.05,0.4
						C388.75,71.3,389.4,71.47,390.17,71.57z"/>
				</g>
			</g>
			<g>
				<g>
					<g id="XMLID_5_">
						<g>
							
								<radialGradient id="SVGID_50_" cx="391.6665" cy="69.8169" r="5.3976" gradientTransform="matrix(1 0 0 0.5162 0 33.7774)" gradientUnits="userSpaceOnUse">
								<stop  offset="0" style="stop-color:#D42027"/>
								<stop  offset="1" style="stop-color:#690000"/>
							</radialGradient>
							<path fill="url(#SVGID_50_)" d="M393.82,68.12c0.63,0.23,0.95,0.52,0.95,0.85c0,0.03,0,0.08,0,0.15
								c-0.04,0.3-0.35,0.57-0.95,0.8c-0.64,0.27-1.4,0.4-2.3,0.4c-0.84,0-1.57-0.13-2.2-0.4c-0.57-0.23-0.89-0.5-0.95-0.8
								c0-0.07,0-0.12,0-0.15c0-0.33,0.31-0.62,0.95-0.85c0.63-0.27,1.36-0.4,2.2-0.4C392.42,67.72,393.18,67.85,393.82,68.12z"/>
							<radialGradient id="SVGID_51_" cx="391.5698" cy="69.7681" r="2.3083" gradientUnits="userSpaceOnUse">
								<stop  offset="0" style="stop-color:#420000"/>
								<stop  offset="1" style="stop-color:#690000"/>
							</radialGradient>
							<path fill="url(#SVGID_51_)" d="M391.52,70.32c0.9,0,1.66-0.13,2.3-0.4c0.6-0.23,0.91-0.5,0.95-0.8v0.05
								c0,1.16-2.52,1.25-3.25,1.25c-0.84,0-1.57-0.12-2.2-0.35c-0.64-0.27-0.95-0.57-0.95-0.9v-0.05c0.06,0.3,0.38,0.57,0.95,0.8
								C389.95,70.19,390.68,70.32,391.52,70.32z"/>
						</g>
						<g>
						</g>
					</g>
				</g>
				<g>
					
						<radialGradient id="SVGID_52_" cx="108.5664" cy="304.0542" r="1.6" gradientTransform="matrix(1 0 0 -1.2734 281.5 456.897)" gradientUnits="userSpaceOnUse">
						<stop  offset="0" style="stop-color:#C5C5C2"/>
						<stop  offset="1" style="stop-color:#C1C1BE;stop-opacity:0"/>
					</radialGradient>
					<path fill="url(#SVGID_52_)" d="M389.32,69.67c0.4,0.17,0.85,0.27,1.35,0.3c0.5,0.1,0.92,0.15,1.25,0.15
						c-0.27,0.07-0.68,0.08-1.25,0.05c-0.6-0.03-1.08-0.15-1.45-0.35c-0.25-0.15-0.44-0.29-0.55-0.42
						C388.8,69.46,389.02,69.55,389.32,69.67z"/>
				</g>
			</g>
			<g>
				<path fill="#490202" d="M393.52,68.87c0,0.07-0.17,0.15-0.5,0.25c-0.37,0.07-0.8,0.1-1.3,0.1c-0.47,0-0.87-0.03-1.2-0.1
					c-0.33-0.1-0.5-0.22-0.5-0.35c0-0.07,0.17-0.15,0.5-0.25c0.33-0.03,0.73-0.05,1.2-0.05c0.5,0,0.93,0.02,1.3,0.05
					C393.35,68.62,393.52,68.73,393.52,68.87z"/>
			</g>
			<g>
				
					<radialGradient id="SVGID_53_" cx="109.7661" cy="-292.8911" r="2.2249" gradientTransform="matrix(1 0 0 -0.3989 281.5 -51.0661)" gradientUnits="userSpaceOnUse">
					<stop  offset="0" style="stop-color:#A91E22"/>
					<stop  offset="1" style="stop-color:#6F0000"/>
				</radialGradient>
				<path fill="url(#SVGID_53_)" d="M393.17,66.57h-0.1c-0.4,0.13-0.87,0.2-1.4,0.2c-0.54,0-1-0.07-1.4-0.2
					c-0.4-0.07-0.6-0.18-0.6-0.35v-0.1c0-0.17,0.2-0.28,0.6-0.35c0.4-0.17,0.87-0.25,1.4-0.25c0.53,0,1,0.08,1.4,0.25
					c0.4,0.07,0.6,0.18,0.6,0.35v0.1C393.67,66.38,393.5,66.5,393.17,66.57z"/>
				
					<radialGradient id="SVGID_54_" cx="109.7661" cy="403.8042" r="1.0875" gradientTransform="matrix(1 0 0 -1.977 281.5 865.8357)" gradientUnits="userSpaceOnUse">
					<stop  offset="0" style="stop-color:#BE2026"/>
					<stop  offset="0.2392" style="stop-color:#7D1416"/>
					<stop  offset="1" style="stop-color:#530000"/>
				</radialGradient>
				<path fill="url(#SVGID_54_)" d="M390.27,66.57c0.4,0.13,0.87,0.2,1.4,0.2c0.53,0,1-0.07,1.4-0.2h0.1l-0.1,2.2
					c-0.93,0.3-1.87,0.3-2.8,0V66.57z"/>
			</g>
		</g>
		<g>
			<g>
				<g>
					<path fill="#660316" d="M349.58,85.67c0.03,0.47,0.5,0.87,1.4,1.2c0.87,0.4,1.95,0.6,3.25,0.6c1.3,0,2.42-0.2,3.35-0.6
						c0.9-0.33,1.37-0.73,1.4-1.2c0,0.04,0,0.08,0,0.15c0,0.5-0.47,0.93-1.4,1.3c-0.93,0.4-2.05,0.6-3.35,0.6
						c-1.3,0-2.38-0.2-3.25-0.6c-0.93-0.37-1.4-0.8-1.4-1.3C349.58,85.75,349.58,85.7,349.58,85.67z"/>
					
						<radialGradient id="SVGID_55_" cx="72.8804" cy="-125.1509" r="8.0126" gradientTransform="matrix(1 0 0 -0.5195 281.5 21.8001)" gradientUnits="userSpaceOnUse">
						<stop  offset="0" style="stop-color:#D42027"/>
						<stop  offset="1" style="stop-color:#690000"/>
					</radialGradient>
					<path fill="url(#SVGID_55_)" d="M358.98,85.67c-0.03,0.47-0.5,0.87-1.4,1.2c-0.93,0.4-2.05,0.6-3.35,0.6
						c-1.3,0-2.38-0.2-3.25-0.6c-0.9-0.33-1.37-0.73-1.4-1.2v-0.05c0-0.53,0.47-1,1.4-1.4c0.87-0.33,1.95-0.5,3.25-0.5
						c1.3,0,2.42,0.17,3.35,0.5c0.93,0.4,1.4,0.87,1.4,1.4V85.67z"/>
				</g>
				<g>
					
						<radialGradient id="SVGID_56_" cx="70.5806" cy="290.814" r="2.3626" gradientTransform="matrix(1 0 0 -1.2751 281.5 457.4822)" gradientUnits="userSpaceOnUse">
						<stop  offset="0" style="stop-color:#C5C5C2"/>
						<stop  offset="1" style="stop-color:#C1C1BE;stop-opacity:0"/>
					</radialGradient>
					<path fill="url(#SVGID_56_)" d="M352.93,87.07c0.73,0.07,1.37,0.13,1.9,0.2c-0.43,0.07-1.07,0.07-1.9,0
						c-0.87-0.07-1.58-0.23-2.15-0.5c-0.4-0.23-0.68-0.43-0.85-0.6c0.23,0.07,0.58,0.2,1.05,0.4
						C351.51,86.8,352.16,86.97,352.93,87.07z"/>
				</g>
			</g>
			<g>
				<g>
					<g id="XMLID_6_">
						<g>
							
								<radialGradient id="SVGID_57_" cx="354.4302" cy="85.3149" r="5.3996" gradientTransform="matrix(1 0 0 0.5162 0 41.2754)" gradientUnits="userSpaceOnUse">
								<stop  offset="0" style="stop-color:#D42027"/>
								<stop  offset="1" style="stop-color:#690000"/>
							</radialGradient>
							<path fill="url(#SVGID_57_)" d="M356.58,85.42c-0.64,0.27-1.4,0.4-2.3,0.4c-0.84,0-1.57-0.13-2.2-0.4
								c-0.57-0.23-0.89-0.5-0.95-0.8c0-0.07,0-0.12,0-0.15c0-0.33,0.31-0.62,0.95-0.85c0.63-0.27,1.36-0.4,2.2-0.4
								c0.9,0,1.66,0.13,2.3,0.4c0.63,0.23,0.95,0.52,0.95,0.85c0,0.03,0,0.08,0,0.15C357.49,84.92,357.18,85.19,356.58,85.42z"/>
							<radialGradient id="SVGID_58_" cx="354.3335" cy="85.2661" r="2.3091" gradientUnits="userSpaceOnUse">
								<stop  offset="0" style="stop-color:#420000"/>
								<stop  offset="1" style="stop-color:#690000"/>
							</radialGradient>
							<path fill="url(#SVGID_58_)" d="M354.28,85.82c0.9,0,1.66-0.13,2.3-0.4c0.6-0.23,0.91-0.5,0.95-0.8v0.05
								c0,1.16-2.52,1.25-3.25,1.25c-0.84,0-1.57-0.12-2.2-0.35c-0.64-0.27-0.95-0.57-0.95-0.9v-0.05c0.06,0.3,0.38,0.57,0.95,0.8
								C352.71,85.69,353.44,85.82,354.28,85.82z"/>
						</g>
						<g>
						</g>
					</g>
				</g>
				<g>
					
						<radialGradient id="SVGID_59_" cx="71.3311" cy="291.8823" r="1.6" gradientTransform="matrix(1 0 0 -1.2734 281.5 456.897)" gradientUnits="userSpaceOnUse">
						<stop  offset="0" style="stop-color:#C5C5C2"/>
						<stop  offset="1" style="stop-color:#C1C1BE;stop-opacity:0"/>
					</radialGradient>
					<path fill="url(#SVGID_59_)" d="M352.08,85.17c0.4,0.17,0.85,0.27,1.35,0.3c0.5,0.1,0.92,0.15,1.25,0.15
						c-0.27,0.07-0.68,0.08-1.25,0.05c-0.6-0.03-1.08-0.15-1.45-0.35c-0.25-0.15-0.44-0.29-0.55-0.42
						C351.57,84.95,351.78,85.05,352.08,85.17z"/>
				</g>
			</g>
			<g>
				<path fill="#490202" d="M356.28,84.37c0,0.07-0.17,0.15-0.5,0.25c-0.37,0.07-0.8,0.1-1.3,0.1c-0.47,0-0.87-0.03-1.2-0.1
					c-0.33-0.1-0.5-0.22-0.5-0.35c0-0.07,0.17-0.15,0.5-0.25c0.33-0.03,0.73-0.05,1.2-0.05c0.5,0,0.93,0.02,1.3,0.05
					C356.11,84.12,356.28,84.23,356.28,84.37z"/>
			</g>
			<g>
				
					<radialGradient id="SVGID_60_" cx="72.5308" cy="-331.7456" r="2.2249" gradientTransform="matrix(1 0 0 -0.3989 281.5 -51.0661)" gradientUnits="userSpaceOnUse">
					<stop  offset="0" style="stop-color:#A91E22"/>
					<stop  offset="1" style="stop-color:#6F0000"/>
				</radialGradient>
				<path fill="url(#SVGID_60_)" d="M355.93,82.07h-0.1c-0.4,0.13-0.87,0.2-1.4,0.2c-0.54,0-1-0.07-1.4-0.2
					c-0.4-0.07-0.6-0.18-0.6-0.35v-0.1c0-0.17,0.2-0.28,0.6-0.35c0.4-0.17,0.87-0.25,1.4-0.25c0.53,0,1,0.08,1.4,0.25
					c0.4,0.07,0.6,0.18,0.6,0.35v0.1C356.43,81.88,356.26,82,355.93,82.07z"/>
				
					<radialGradient id="SVGID_61_" cx="72.5308" cy="395.9644" r="1.0875" gradientTransform="matrix(1 0 0 -1.977 281.5 865.8357)" gradientUnits="userSpaceOnUse">
					<stop  offset="0" style="stop-color:#BE2026"/>
					<stop  offset="0.2392" style="stop-color:#7D1416"/>
					<stop  offset="1" style="stop-color:#530000"/>
				</radialGradient>
				<path fill="url(#SVGID_61_)" d="M353.03,82.07c0.4,0.13,0.87,0.2,1.4,0.2c0.53,0,1-0.07,1.4-0.2h0.1l-0.1,2.2
					c-0.93,0.3-1.87,0.3-2.8,0V82.07z"/>
			</g>
		</g>
	</g>
</g>
<g id="Layer_9">
	<g>
		<path fill="#FFFFFF" d="M-33.35,28.85V16.36h-4.46v-2.54h11.95v2.54h-4.45v12.49H-33.35z"/>
		<path fill="#FFFFFF" d="M-21.14,35.85h-1.68v-6.33c-0.61,0.57-1.34,1-2.17,1.27v-1.52c0.44-0.14,0.92-0.42,1.43-0.82
			c0.51-0.4,0.87-0.87,1.06-1.4h1.36V35.85z"/>
	</g>
	<g>
		<path fill="#FFFFFF" d="M-44.02,64.52V52.03h-4.46v-2.54h11.95v2.54h-4.45v12.49H-44.02z"/>
		<path fill="#FFFFFF" d="M-30.43,69.95v1.56h-5.89c0.06-0.59,0.26-1.15,0.57-1.68s0.95-1.23,1.89-2.1
			c0.76-0.71,1.22-1.18,1.39-1.43c0.23-0.35,0.35-0.69,0.35-1.03c0-0.37-0.1-0.66-0.3-0.86s-0.48-0.3-0.83-0.3
			c-0.35,0-0.63,0.11-0.84,0.32s-0.33,0.56-0.36,1.05l-1.67-0.17c0.1-0.92,0.41-1.59,0.94-1.99c0.53-0.4,1.18-0.6,1.97-0.6
			c0.86,0,1.54,0.23,2.04,0.7c0.49,0.47,0.74,1.05,0.74,1.74c0,0.39-0.07,0.77-0.21,1.13c-0.14,0.36-0.37,0.73-0.67,1.12
			c-0.2,0.26-0.57,0.63-1.1,1.12c-0.53,0.49-0.87,0.81-1.01,0.97s-0.26,0.31-0.34,0.47H-30.43z"/>
	</g>
	<g>
		<path fill="#FFFFFF" d="M196.48,96.35V83.86h-4.46v-2.54h11.95v2.54h-4.45v12.49H196.48z"/>
		<path fill="#FFFFFF" d="M204.33,101.02l1.63-0.2c0.05,0.41,0.19,0.73,0.42,0.95c0.23,0.22,0.5,0.33,0.82,0.33
			c0.35,0,0.64-0.13,0.88-0.39c0.24-0.26,0.36-0.62,0.36-1.06c0-0.42-0.11-0.76-0.34-1c-0.23-0.25-0.5-0.37-0.83-0.37
			c-0.22,0-0.47,0.04-0.77,0.13l0.19-1.37c0.45,0.01,0.8-0.09,1.04-0.3c0.24-0.21,0.36-0.49,0.36-0.83c0-0.29-0.09-0.53-0.26-0.71
			c-0.18-0.18-0.41-0.26-0.7-0.26c-0.29,0-0.53,0.1-0.74,0.3s-0.33,0.49-0.37,0.87l-1.55-0.26c0.11-0.53,0.27-0.95,0.49-1.27
			c0.22-0.32,0.52-0.57,0.91-0.75c0.39-0.18,0.82-0.27,1.31-0.27c0.82,0,1.49,0.26,1.98,0.79c0.41,0.43,0.62,0.92,0.62,1.46
			c0,0.77-0.42,1.38-1.26,1.84c0.5,0.11,0.9,0.35,1.2,0.72s0.45,0.83,0.45,1.36c0,0.77-0.28,1.42-0.84,1.97s-1.26,0.81-2.1,0.81
			c-0.79,0-1.45-0.23-1.97-0.68C204.72,102.36,204.42,101.76,204.33,101.02z"/>
	</g>
	<g>
		<path fill="#FFFFFF" d="M249.82,81.69V69.2h-4.46v-2.54h11.95v2.54h-4.45v12.49H249.82z"/>
		<path fill="#FFFFFF" d="M263.42,82.06l-1.63,0.18c-0.04-0.33-0.14-0.58-0.31-0.74c-0.17-0.16-0.38-0.24-0.65-0.24
			c-0.35,0-0.65,0.16-0.9,0.48c-0.25,0.32-0.4,0.98-0.46,1.99c0.42-0.49,0.94-0.74,1.56-0.74c0.7,0,1.3,0.27,1.8,0.8
			s0.75,1.22,0.75,2.07c0,0.9-0.26,1.62-0.79,2.16c-0.53,0.54-1.2,0.81-2.03,0.81c-0.88,0-1.61-0.34-2.18-1.03
			c-0.57-0.69-0.86-1.81-0.86-3.38c0-1.61,0.3-2.76,0.89-3.47c0.59-0.71,1.37-1.06,2.31-1.06c0.67,0,1.22,0.19,1.65,0.56
			C263.02,80.81,263.3,81.35,263.42,82.06z M259.61,85.73c0,0.55,0.13,0.97,0.38,1.26s0.54,0.45,0.86,0.45
			c0.31,0,0.57-0.12,0.78-0.37c0.21-0.24,0.31-0.64,0.31-1.2c0-0.57-0.11-0.99-0.33-1.25c-0.22-0.27-0.5-0.4-0.84-0.4
			c-0.32,0-0.6,0.13-0.82,0.38C259.72,84.86,259.61,85.23,259.61,85.73z"/>
	</g>
	<g>
		<path fill="#FFFFFF" d="M263.82,35.69V23.2h-4.46v-2.54h11.95v2.54h-4.45v12.49H263.82z"/>
		<path fill="#FFFFFF" d="M275.02,42.68v-1.76h-3.59v-1.47l3.8-5.57h1.41v5.56h1.09v1.48h-1.09v1.76H275.02z M275.02,39.44v-3
			l-2.01,3H275.02z"/>
	</g>
	<g>
		<path fill="#FFFFFF" d="M513.15,53.02V40.53h-4.46v-2.54h11.95v2.54h-4.45v12.49H513.15z"/>
		<path fill="#FFFFFF" d="M521.09,57.76l1.67-0.17c0.05,0.38,0.19,0.68,0.42,0.9c0.24,0.22,0.51,0.33,0.81,0.33
			c0.35,0,0.65-0.14,0.89-0.43c0.24-0.29,0.36-0.71,0.36-1.29c0-0.54-0.12-0.94-0.36-1.21c-0.24-0.27-0.56-0.4-0.94-0.4
			c-0.48,0-0.92,0.21-1.3,0.64l-1.36-0.2l0.86-4.56h4.44v1.57h-3.17l-0.26,1.49c0.38-0.19,0.76-0.28,1.15-0.28
			c0.75,0,1.38,0.27,1.89,0.81c0.52,0.54,0.78,1.25,0.78,2.11c0,0.72-0.21,1.37-0.63,1.93c-0.57,0.77-1.36,1.16-2.37,1.16
			c-0.81,0-1.47-0.22-1.98-0.65C521.49,59.08,521.19,58.49,521.09,57.76z"/>
	</g>
	<g>
		<path fill="#FFFFFF" d="M519.15,95.69V83.2h-4.46v-2.54h11.95v2.54h-4.45v12.49H519.15z"/>
		<path fill="#FFFFFF" d="M527.06,95.6v-1.56h5.75v1.22c-0.47,0.47-0.96,1.14-1.45,2.01s-0.86,1.8-1.12,2.78
			c-0.26,0.98-0.38,1.86-0.38,2.63h-1.62c0.03-1.21,0.28-2.45,0.75-3.71c0.47-1.26,1.1-2.39,1.89-3.38H527.06z"/>
	</g>
</g>
<g id="Layer_10">
	<g>
		<g>
			<line fill="none" stroke="#FFFFFF" stroke-width="0.75" stroke-miterlimit="10" x1="-19.17" y1="21.5" x2="-17.8" y2="22.12"/>
			
				<line fill="none" stroke="#FFFFFF" stroke-width="0.75" stroke-miterlimit="10" stroke-dasharray="3.1062,3.1062,3.1062,3.1062" x1="-14.98" y1="23.41" x2="-5.09" y2="27.93"/>
			
				<line fill="none" stroke="#FFFFFF" stroke-width="0.75" stroke-miterlimit="10" stroke-dasharray="3.1062,3.1062,3.1062,3.1062,3.1062,3.1062" x1="-3.68" y1="28.58" x2="62.72" y2="58.9"/>
			<line fill="none" stroke="#FFFFFF" stroke-width="0.75" stroke-miterlimit="10" x1="64.13" y1="59.54" x2="65.5" y2="60.17"/>
		</g>
	</g>
	<g>
		<g>
			<line fill="none" stroke="#FFFFFF" stroke-width="0.75" stroke-miterlimit="10" x1="-29.75" y1="59.48" x2="-28.32" y2="59.95"/>
			
				<line fill="none" stroke="#FFFFFF" stroke-width="0.75" stroke-miterlimit="10" stroke-dasharray="2.962,2.962,2.962,2.962" x1="-25.51" y1="60.88" x2="-15.66" y2="64.11"/>
			
				<line fill="none" stroke="#FFFFFF" stroke-width="0.75" stroke-miterlimit="10" stroke-dasharray="2.962,2.962,2.962,2.962,2.962,2.962" x1="-14.25" y1="64.57" x2="35" y2="80.74"/>
			<line fill="none" stroke="#FFFFFF" stroke-width="0.75" stroke-miterlimit="10" x1="36.41" y1="81.2" x2="37.83" y2="81.67"/>
		</g>
	</g>
	<g>
		<g>
			<line fill="none" stroke="#FFFFFF" stroke-width="0.75" stroke-miterlimit="10" x1="191.2" y1="89.38" x2="189.71" y2="89.24"/>
			
				<line fill="none" stroke="#FFFFFF" stroke-width="0.75" stroke-miterlimit="10" stroke-dasharray="2.7205,2.7205,2.7205,2.7205" x1="187" y1="88.99" x2="177.52" y2="88.13"/>
			
				<line fill="none" stroke="#FFFFFF" stroke-width="0.75" stroke-miterlimit="10" stroke-dasharray="2.7205,2.7205,2.7205,2.7205,2.7205,2.7205" x1="176.16" y1="88.01" x2="112.49" y2="82.23"/>
			<line fill="none" stroke="#FFFFFF" stroke-width="0.75" stroke-miterlimit="10" x1="111.14" y1="82.11" x2="109.65" y2="81.97"/>
		</g>
	</g>
	<g>
		<g>
			<line fill="none" stroke="#FFFFFF" stroke-width="0.75" stroke-miterlimit="10" x1="505.34" y1="55.01" x2="503.85" y2="55.2"/>
			
				<line fill="none" stroke="#FFFFFF" stroke-width="0.75" stroke-miterlimit="10" stroke-dasharray="3.1064,3.1064,3.1064,3.1064" x1="500.76" y1="55.58" x2="489.97" y2="56.91"/>
			
				<line fill="none" stroke="#FFFFFF" stroke-width="0.75" stroke-miterlimit="10" stroke-dasharray="3.1064,3.1064,3.1064,3.1064,3.1064,3.1064" x1="488.43" y1="57.1" x2="397.48" y2="68.31"/>
			<line fill="none" stroke="#FFFFFF" stroke-width="0.75" stroke-miterlimit="10" x1="395.94" y1="68.5" x2="394.45" y2="68.68"/>
		</g>
	</g>
	<g>
		<g>
			<line fill="none" stroke="#FFFFFF" stroke-width="0.75" stroke-miterlimit="10" x1="514.32" y1="89.31" x2="512.82" y2="89.17"/>
			
				<line fill="none" stroke="#FFFFFF" stroke-width="0.75" stroke-miterlimit="10" stroke-dasharray="2.8967,2.8967,2.8967,2.8967" x1="509.94" y1="88.92" x2="499.84" y2="88.04"/>
			
				<line fill="none" stroke="#FFFFFF" stroke-width="0.75" stroke-miterlimit="10" stroke-dasharray="2.8967,2.8967,2.8967,2.8967,2.8967,2.8967" x1="498.39" y1="87.92" x2="430.58" y2="82"/>
			<line fill="none" stroke="#FFFFFF" stroke-width="0.75" stroke-miterlimit="10" x1="429.14" y1="81.88" x2="427.64" y2="81.74"/>
		</g>
	</g>
	<g>
		<g>
			<line fill="none" stroke="#FFFFFF" stroke-width="0.75" stroke-miterlimit="10" x1="350.98" y1="82.64" x2="349.49" y2="82.51"/>
			
				<line fill="none" stroke="#FFFFFF" stroke-width="0.75" stroke-miterlimit="10" stroke-dasharray="2.8967,2.8967,2.8967,2.8967" x1="346.6" y1="82.26" x2="336.5" y2="81.38"/>
			
				<line fill="none" stroke="#FFFFFF" stroke-width="0.75" stroke-miterlimit="10" stroke-dasharray="2.8967,2.8967,2.8967,2.8967,2.8967,2.8967" x1="335.06" y1="81.25" x2="267.24" y2="75.33"/>
			<line fill="none" stroke="#FFFFFF" stroke-width="0.75" stroke-miterlimit="10" x1="265.8" y1="75.21" x2="264.31" y2="75.08"/>
		</g>
	</g>
</g>
</svg>
